<svg width="111" height="104" viewBox="0 0 111 104" fill="none" xmlns="http://www.w3.org/2000/svg">
<g clip-path="url(#clip0_156_59645)">
<path d="M52.3896 95.269C64.0688 83.9224 76.7938 71.6545 85.8619 62.6061C86.2241 62.2446 85.7201 61.6881 85.3201 62.0056C78.3938 67.5516 71.3542 72.9624 64.5129 78.6153C75.767 66.8191 86.706 54.4663 97.8687 42.5129C98.5081 41.8275 97.6136 40.8057 96.8482 41.3465C90.7377 45.6694 84.4193 49.9767 78.5576 54.3217C86.1989 44.2389 93.8055 34.1719 101.447 24.0891C94.5237 29.1635 86.5107 34.6592 79.5876 39.7336C90.1644 26.7552 100.319 14.1855 110.817 1.28262C111.381 0.590939 110.527 -0.352257 109.784 0.138205C94.0291 10.5134 77.8237 20.7722 62.1601 31.1694C70.9321 24.0514 79.5372 17.0183 88.2588 9.92544C88.977 9.34066 88.2588 8.20882 87.4241 8.61754C82.1515 11.2113 77.1969 14.4748 72.2833 17.7194C65.8106 21.9921 58.4717 25.7869 51.999 30.0595C59.3222 23.0925 66.639 15.9493 73.959 8.90993C74.6425 8.25284 73.7826 7.17759 72.9857 7.69635C57.7536 17.6628 42.9246 29.0566 29.7744 41.4125C35.34 35.0553 40.5119 28.7422 45.8696 22.4071C46.424 21.75 45.5389 20.8634 44.8806 21.4167C36.3574 28.5976 23.0529 39.6016 11.1248 49.5051C-2.28992 60.6411 -3.79549 80.6558 7.805 93.6687C19.4968 106.785 39.7843 107.515 52.3896 95.269Z" fill="#D15000"/>
<path d="M30.8735 103.057C22.3346 103.057 14.1862 99.4066 8.51352 93.0432C3.07392 86.9407 0.415537 79.0965 1.02974 70.9535C1.64079 62.8106 5.44252 55.4537 11.7326 50.2315C14.4004 48.0182 17.1344 45.7482 19.8715 43.4782C28.2403 36.5363 36.8643 29.3837 43.3276 23.9603C42.2378 25.2557 41.1543 26.5478 40.0708 27.8432C36.521 32.0813 32.8516 36.464 29.0624 40.7933C28.7317 41.1737 28.7569 41.7428 29.1191 42.0917C29.3018 42.2678 29.538 42.3558 29.7743 42.3558C30.0105 42.3558 30.2404 42.2709 30.4231 42.098C42.6599 30.6005 56.6479 19.6248 72.028 9.45398C69.7539 11.6453 67.4798 13.843 65.2057 16.0438C60.6638 20.4359 55.9644 24.979 51.3437 29.3743C50.9909 29.7107 50.9531 30.264 51.2555 30.6445C51.4413 30.8771 51.7154 30.9997 51.9957 30.9997C52.1752 30.9997 52.3579 30.9494 52.5154 30.8425C55.7313 28.7203 59.2306 26.6768 62.6135 24.6992C66.0183 22.709 69.5397 20.6529 72.7997 18.5024C77.1968 15.6005 81.7292 12.6074 86.4885 10.1425C83.2443 12.7835 80.0126 15.415 76.781 18.0496C71.7257 22.1683 66.6703 26.2869 61.5614 30.4338C61.1709 30.7514 61.0984 31.3204 61.3977 31.726C61.5835 31.9775 61.867 32.1096 62.1599 32.1096C62.3394 32.1096 62.5221 32.0593 62.6828 31.9524C71.2217 26.2869 80.0662 20.5648 88.6209 15.0314C95.4621 10.6047 102.53 6.03647 109.419 1.50598C104.94 7.01111 100.524 12.4565 96.1047 17.9019C90.4918 24.8187 84.69 31.9744 78.8535 39.1364C78.5543 39.5042 78.5732 40.0387 78.9008 40.3814C79.0866 40.5763 79.3354 40.6738 79.5843 40.6738C79.7795 40.6738 79.9748 40.6141 80.1418 40.4914C83.597 37.9605 87.3893 35.2756 91.0556 32.6786C92.9833 31.3141 94.9455 29.9245 96.8763 28.5474C94.3439 31.8926 91.8147 35.2347 89.2855 38.5767C85.4585 43.6323 81.6316 48.691 77.7984 53.7528C77.5149 54.1269 77.5495 54.652 77.8802 54.9852C78.0629 55.1707 78.3055 55.265 78.5511 55.265C78.7496 55.265 78.9449 55.2053 79.1149 55.0795C83.1183 52.1116 87.4114 49.1091 91.5659 46.2041C93.0746 45.1477 94.5865 44.0913 96.0858 43.0349C91.7958 47.6472 87.4838 52.3631 83.3073 56.9376C76.9574 63.8922 70.387 71.0825 63.8261 77.9615C63.4828 78.3231 63.4796 78.889 63.8198 79.2568C64.0056 79.4549 64.2576 79.5555 64.5096 79.5555C64.7238 79.5555 64.9348 79.4832 65.1112 79.3386C69.4106 75.7859 73.8675 72.2677 78.1826 68.8628C72.447 74.4905 65.9585 80.7848 59.6212 86.9281C56.9723 89.4968 54.3233 92.0654 51.728 94.59C46.112 100.048 38.7038 103.054 30.8735 103.054V103.057Z" fill="#F49B03"/>
<path d="M7.81461 90.1664C4.53258 86.5823 3.55616 81.4953 3.0459 76.6661C2.34666 70.026 2.32461 63.0432 5.17827 57.0036C8.16423 50.6811 14.3094 45.9431 21.1916 44.6603C22.8515 44.3491 24.5555 44.2265 26.1618 43.7108C27.9855 43.1229 29.6077 42.0508 31.1825 40.963C39.3971 35.2881 47.0541 28.8052 54.0024 21.64C49.8731 27.1452 45.7438 32.6503 41.6145 38.1586C52.1818 31.7511 62.7461 25.3437 73.3135 18.9362C66.636 24.5545 59.9586 30.1728 53.2811 35.788C51.0731 37.6461 48.7014 39.8029 48.4305 42.6733C51.2275 43.7234 54.2827 42.1829 56.812 40.592C72.5859 30.6759 85.7801 17.053 101.689 7.35376C88.1928 21.2156 75.0049 35.3761 62.1382 49.8228C61.0767 51.0175 59.9586 52.7184 60.8184 54.064C61.8516 55.6832 64.3493 54.8406 65.9777 53.8219C74.0127 48.7884 81.7894 43.3399 89.2669 37.5109C81.1532 45.5564 73.8899 54.4538 67.6313 64.0084C73.0709 60.9525 78.5105 57.8965 83.9501 54.8437C78.92 59.7483 73.8899 64.653 68.8597 69.5607C64.4658 73.846 60.0216 78.1941 56.8592 83.4509C59.6877 82.3253 62.5161 81.1998 65.3446 80.0742C56.8372 86.4471 52.4212 98.1113 42.4397 101.78C37.6143 103.554 32.1904 103.076 27.3115 101.456C22.4326 99.8405 17.9914 97.1555 13.6007 94.4831C11.5376 93.2287 9.44302 91.9459 7.81461 90.1664Z" fill="#FFB73D"/>
<path d="M61.124 74.6477C60.0404 80.4767 57.464 85.9787 53.9992 90.7953C53.3032 91.7605 52.5598 92.71 51.7661 93.6123C49.7565 95.9042 47.4352 97.9195 44.7799 99.2809C43.7153 99.8279 42.5972 100.268 41.4255 100.579C35.2961 102.195 28.8769 100.001 22.9208 97.8347C17.1252 95.725 10.9108 93.2947 7.60041 88.0946C4.66171 83.4792 4.64911 77.6408 4.93259 72.1766C5.36095 63.9959 6.74054 54.8846 13.2448 49.8888C14.785 48.7035 16.4921 47.8484 18.3032 47.2322C20.2592 46.5656 22.3318 46.1758 24.4484 45.9494C26.9965 45.6727 29.6045 45.6256 32.1369 45.6036C38.7104 45.547 45.6524 45.5879 51.322 48.9079C59.7759 53.8565 62.9067 65.0303 61.124 74.6477Z" fill="#C27041"/>
<path d="M51.7818 93.4519C51.7755 93.5054 51.7724 93.5588 51.7661 93.6123C49.7565 95.9042 47.4352 97.9195 44.7799 99.2809C43.7153 99.8279 42.5972 100.268 41.4255 100.579C35.2961 102.195 28.8769 100.001 22.9207 97.8346C17.1252 95.725 10.9108 93.2947 7.60041 88.0946C4.66171 83.4792 4.64911 77.6408 4.93259 72.1766C5.36095 63.9959 6.74054 54.8846 13.2447 49.8888C14.785 48.7035 16.4921 47.8484 18.3032 47.2321C20.2592 46.5656 22.3318 46.1758 24.4484 45.9494C25.6736 48.735 25.4531 52.4858 25.1035 55.6895C25.0153 56.5006 24.9397 57.3401 25.2138 58.1072C25.8374 59.849 27.995 60.5092 29.847 60.4432C31.6991 60.3772 33.5606 59.8333 35.378 60.1854C38.4143 60.7702 40.4333 63.6406 41.6932 66.4545C43.5925 70.6863 44.2634 76.2732 40.8711 79.4392C39.2836 80.9231 37.0946 81.5676 35.3055 82.8032C33.5196 84.042 32.1085 86.4345 33.1574 88.3367C34.1055 90.0564 36.5812 90.3331 38.4049 89.5943C40.2286 88.8523 41.6428 87.3903 43.2397 86.2365C44.8335 85.0858 46.8903 84.2086 48.7455 84.8751C51.8354 85.9881 52.0873 90.1885 51.7818 93.4519Z" fill="#B0663B"/>
<path d="M44.7799 99.2808C43.7153 99.8279 42.5972 100.268 41.4255 100.579C35.2961 102.195 28.8769 100.001 22.9208 97.8346C17.1252 95.725 10.9108 93.2947 7.60041 88.0945C4.66171 83.4792 4.64911 77.6408 4.93259 72.1765C5.36095 63.9959 6.74054 54.8846 13.2448 49.8888C14.785 48.7035 16.4921 47.8483 18.3032 47.2321C18.4765 47.3076 18.6466 47.3893 18.8135 47.4773C23.4027 49.9045 24.1397 56.5069 21.9632 61.2103C20.6057 64.1531 18.3536 66.7972 17.9914 70.0135C17.7111 72.5035 18.6938 75.1004 20.5521 76.7825C22.3318 78.389 24.7948 79.1593 26.3855 80.9514C29.1509 84.0734 28.6186 89.5219 32.0707 91.8673C34.0488 93.213 36.6631 93.0149 38.9561 93.7066C41.6743 94.5271 43.6901 96.6745 44.7799 99.2808Z" fill="#965732"/>
<path d="M26.2437 69.1866C26.2437 66.2847 27.8973 63.0967 30.7509 62.5433C32.4896 62.2069 34.3038 62.9332 35.6456 64.087C36.9874 65.2409 37.9323 66.7783 38.7922 68.3251C39.6269 69.8311 40.4175 71.4157 40.5781 73.1292C40.7388 74.8426 40.1466 76.7227 38.7072 77.6722C36.0425 79.0964 32.5841 78.7506 30.1273 76.9931C27.6705 75.2356 26.2437 72.2048 26.2437 69.1866Z" fill="#7D482A"/>
<path d="M35.0599 77.6125C33.485 77.6125 31.9259 77.1189 30.6755 76.226C28.5242 74.6886 27.1887 71.991 27.1855 69.1866C27.1855 66.7311 28.584 63.9235 30.9274 63.4708C31.1511 63.4268 31.3842 63.4048 31.6204 63.4048C32.7511 63.4048 33.9953 63.9141 35.0284 64.8007C36.3072 65.898 37.2143 67.4322 37.964 68.781C38.6947 70.0983 39.4884 71.6357 39.6365 73.214C39.7814 74.7483 39.227 76.1725 38.2222 76.8611C37.2868 77.3515 36.1938 77.6125 35.063 77.6125H35.0599Z" fill="#5C351F"/>
<path d="M13.6445 56.5258C14.6871 55.1236 15.7895 53.671 17.3581 52.9008C18.9266 52.1305 21.1063 52.2971 22.0953 53.7371C23.3205 55.5228 22.1205 57.9154 20.9299 59.7264C19.9093 61.2826 18.8227 62.8955 17.1943 63.7947C15.5659 64.6939 13.2225 64.6027 12.1389 63.0904C10.7342 61.1286 12.2051 58.4593 13.6445 56.5226V56.5258Z" fill="#7D482A"/>
<path d="M14.9326 63.4331C14.0506 63.4331 13.3136 63.1093 12.9104 62.5465C12.0758 61.3801 12.5797 59.544 14.4034 57.0917C15.3294 55.8467 16.3783 54.4382 17.7768 53.7528C18.2461 53.5233 18.8005 53.3943 19.3391 53.3943C20.2115 53.3943 20.9328 53.715 21.3171 54.2747C22.0289 55.3122 21.6447 56.9282 20.1422 59.2139C19.232 60.5972 18.202 62.1661 16.7405 62.9741C16.2051 63.2696 15.5625 63.4331 14.9357 63.4331H14.9326Z" fill="#5C351F"/>
<path d="M36.6723 91.3297C37.7149 89.9275 38.8173 88.475 40.3859 87.7047C41.9545 86.9344 44.1341 87.1011 45.1231 88.541C46.3483 90.3268 45.1483 92.7225 43.9577 94.5303C42.9372 96.0866 41.8505 97.6994 40.2221 98.5986C38.5937 99.4978 36.2503 99.4066 35.1668 97.8944C33.762 95.9325 35.2329 93.2633 36.6723 91.3266V91.3297Z" fill="#7D482A"/>
<path d="M37.9604 98.234C37.0785 98.234 36.3414 97.9101 35.9383 97.3473C35.1036 96.1809 35.6076 94.3448 37.4313 91.8925C38.3573 90.6475 39.4061 89.239 40.8046 88.5536C41.2739 88.3241 41.8314 88.1952 42.3669 88.1952C43.2394 88.1952 43.9607 88.5159 44.3418 89.0755C45.0536 90.113 44.6694 91.729 43.1669 94.0179C42.2567 95.4012 41.2267 96.9701 39.7652 97.7781C39.2298 98.0736 38.5872 98.2371 37.9604 98.2371V98.234Z" fill="#5C351F"/>
<path d="M18.5992 83.3C20.4859 83.9476 22.4167 84.6173 23.9569 85.8812C25.5003 87.1451 26.5964 89.1415 26.231 91.1002C24.464 92.0937 22.2309 91.9459 20.3473 91.1945C18.4638 90.4431 16.8511 89.1572 15.2731 87.887C14.1675 87.0004 12.9391 85.7743 13.2951 84.4035C13.5502 83.4163 14.5991 82.8001 15.6164 82.7152C16.6338 82.6334 17.6354 82.9698 18.5992 83.3Z" fill="#7D482A"/>
<path d="M23.3804 90.8581C22.5111 90.8581 21.5851 90.6726 20.6968 90.3173C18.9298 89.6131 17.3707 88.3618 15.862 87.1513C14.5769 86.1201 14.0351 85.2964 14.2052 84.6393C14.3533 84.0671 15.0777 83.7055 15.6888 83.6584C15.7707 83.6521 15.8494 83.6489 15.9313 83.6489C16.6967 83.6489 17.5062 83.9256 18.2904 84.196C20.0795 84.8091 21.9284 85.4441 23.3584 86.6137C24.6592 87.6795 25.4089 89.154 25.3522 90.484C24.7632 90.7323 24.1049 90.8581 23.3804 90.8581Z" fill="#5C351F"/>
<path d="M56.2826 64.0839C56.2637 64.8888 55.7944 65.6119 55.1078 66.0332C53.7912 66.8475 52.1974 66.5268 50.9312 65.8005C48.9532 64.6687 47.7279 62.7352 46.8429 60.5941C46.279 59.2328 47.7216 57.9123 49.0256 58.5945C50.5406 59.3868 52.0588 60.1791 53.5738 60.9745C54.8621 61.6473 56.3173 62.556 56.2826 64.0839Z" fill="#7D482A"/>
<path d="M53.3753 65.571C52.7548 65.571 52.0713 65.3698 51.4036 64.9862C49.8665 64.1059 48.6948 62.5968 47.7184 60.2357C47.6113 59.9747 47.6869 59.7704 47.7688 59.6477C47.8885 59.4654 48.0901 59.3553 48.2917 59.3553C48.3893 59.3553 48.4901 59.3805 48.5877 59.4339L53.136 61.8139C54.2919 62.4176 55.3597 63.1093 55.3376 64.065C55.3282 64.5178 55.0478 64.9642 54.61 65.2346C54.2478 65.4578 53.832 65.5742 53.3722 65.5742L53.3753 65.571Z" fill="#5C351F"/>
</g>
<defs>
<clipPath id="clip0_156_59645">
<rect width="111" height="104" fill="white"/>
</clipPath>
</defs>
</svg>
