<svg width="140" height="209" viewBox="0 0 140 209" fill="none" xmlns="http://www.w3.org/2000/svg">
<g clip-path="url(#clip0_84_35176)">
<path d="M128.93 127.023C130.099 122.054 131.519 117.139 133.151 112.303C134.006 109.759 136.03 106.167 136.658 102.88C136.658 102.88 136.658 102.88 136.658 102.888C141.098 89.4508 141.067 75.145 136.846 61.6609C126.333 30.8109 94.8184 11.8643 62.5584 17.2564C30.9496 22.5545 7.41358 51.5575 8.07259 83.3779C8.48054 102.982 17.9263 121.756 33.3973 133.832C35.7117 136.281 39.4461 138.113 41.6349 139.803C45.7537 142.988 49.7392 146.361 53.5285 149.938C57.9297 154.085 62.1583 158.491 65.7436 163.359C68.5444 167.163 70.4273 171.647 73.181 175.403C73.0712 176.084 73.0163 176.773 73.0241 177.469C71.0157 181.312 71.8787 185.906 74.9462 188.684C73.9891 192.691 75.7386 196.972 79.5436 199.006C82.1012 203.084 86.4239 204.837 91.3351 204.195C102.491 214.197 124.395 207.67 127.934 193.082C132.241 190.899 134.822 187.142 134.712 182.415C136.799 178.588 135.936 173.846 132.868 171.013C133.818 166.865 131.888 162.373 127.847 160.456C127.51 159.994 127.157 159.564 126.757 159.172C126.702 157.591 126.467 156.011 126.325 154.328C126.043 151.072 126.035 147.801 126.215 144.538C126.537 138.629 127.588 132.783 128.938 127.023H128.93ZM85.9846 178.244C85.9846 178.495 85.9924 178.745 86.0003 178.995C85.9375 178.714 85.9375 178.471 85.9846 178.244ZM122.975 180.975C122.913 180.975 122.85 180.999 122.764 181.038C122.811 180.983 122.866 180.952 122.92 180.944C122.936 180.952 122.952 180.968 122.968 180.975H122.975ZM88.5579 191.415C88.5814 191.376 88.6206 191.353 88.6677 191.345C88.6206 191.368 88.5736 191.384 88.5579 191.415ZM123.878 99.3741C120.355 107.873 117.57 116.756 115.601 125.732C114.322 131.547 113.428 137.463 113.012 143.403C112.816 146.212 112.745 149.03 112.855 151.847C112.973 154.594 114.118 158.139 113.2 160.698C112.055 163.923 114.338 167.006 117.099 168.368C117.389 169.166 117.837 169.886 118.402 170.512C118.252 171.443 118.3 172.414 118.582 173.353C118.959 174.589 119.335 175.826 119.712 177.062C119.994 177.994 120.504 178.823 121.14 179.535C121.045 180.146 121.03 180.772 121.116 181.39C120.222 181.664 119.217 182.141 118.59 182.337C114.322 183.628 110.054 184.92 105.786 186.211C101.62 187.471 97.4466 188.731 93.2808 189.999C92.4492 190.249 91.2645 190.429 90.2995 190.758C90.0249 190.194 89.6641 189.693 89.2561 189.24C89.4052 188.324 89.3581 187.369 89.0678 186.414C88.6912 185.17 88.3147 183.926 87.9302 182.681C87.64 181.734 87.1379 180.913 86.5102 180.216C86.6515 179.355 86.6122 178.463 86.369 177.563C86.4475 177.493 86.5259 177.415 86.6279 177.36C88.9109 174.229 86.6671 170.23 84.0546 168.344C83.3956 167.867 82.9014 165.793 82.462 164.948C81.756 163.61 80.9244 162.412 80.132 161.144C78.6257 158.718 77.088 156.402 75.3228 154.148C71.6198 149.413 67.5716 144.984 63.2174 140.844C56.7058 134.646 49.5979 128.878 42.1056 123.877C40.9367 122.789 39.5794 121.842 38.5046 120.856C35.594 118.188 32.9658 115.261 30.7299 112.013C26.6425 106.065 23.8574 99.4446 22.3589 92.3934C19.7151 79.9266 22.1157 66.6225 28.494 55.6427C41.784 32.7518 71.455 23.0163 95.6579 34.1683C109.081 40.3508 119.335 51.4871 124.097 65.4721C126.208 72.2102 127.18 79.0579 126.671 86.117C126.451 89.1769 125.886 92.2056 125.117 95.1716C124.772 96.4864 124.215 97.9342 123.87 99.3898L123.878 99.3741Z" fill="white"/>
<path d="M130.201 102.223C130.201 102.223 130.201 102.215 130.193 102.207C134.249 90.4449 134.657 77.3051 130.452 64.5097C120.347 33.7772 86.8475 16.7479 55.9604 26.6008C25.1517 36.4223 7.83709 69.127 17.228 100.126C20.978 112.491 28.4232 122.727 37.9789 130.013C37.9789 130.013 37.9789 130.021 37.9789 130.029C37.9789 130.029 38.0338 130.068 38.1201 130.123C39.3753 131.069 40.662 131.969 41.9878 132.815C50.4765 138.95 70.1604 154.524 78.1313 172.14C79.4728 175.098 82.7836 176.617 85.8982 175.677L100.773 171.193L115.648 166.709C118.762 165.77 120.677 162.671 120.151 159.47C117.013 140.39 124.756 116.552 128.412 106.754C129.04 105.322 129.62 103.859 130.138 102.38C130.177 102.286 130.201 102.223 130.201 102.223Z" fill="#E6AA45"/>
<path d="M117.388 163.347L82.7941 173.818C80.3686 174.552 78.999 177.109 79.735 179.528L84.6487 195.682C85.3847 198.101 87.9476 199.467 90.3731 198.733L124.967 188.262C127.392 187.528 128.762 184.971 128.026 182.552L123.112 166.398C122.376 163.979 119.813 162.613 117.388 163.347Z" fill="#28333F"/>
<path d="M124.709 172.492L81.8971 185.452C80.4222 185.898 78.8452 185.06 78.3981 183.589C77.9509 182.118 78.7903 180.545 80.2653 180.099L123.077 167.139C124.552 166.693 126.129 167.53 126.576 169.002C127.023 170.473 126.184 172.046 124.709 172.492Z" fill="#6C7B89"/>
<path d="M127.447 181.515L84.6349 194.475C83.16 194.921 81.583 194.084 81.1359 192.613C80.6887 191.141 81.5281 189.568 83.0031 189.122L125.815 176.162C127.29 175.716 128.867 176.554 129.314 178.025C129.761 179.496 128.922 181.069 127.447 181.515Z" fill="#6C7B89"/>
<path d="M123.823 169.064L80.3751 182.212C80.0221 182.321 79.6533 182.118 79.5435 181.774C79.4337 181.421 79.6376 181.054 79.9828 180.944L123.43 167.796C123.783 167.687 124.152 167.89 124.262 168.235C124.372 168.587 124.168 168.955 123.823 169.064Z" fill="#B1BBC3"/>
<path d="M126.647 178.369L83.1993 191.517C82.8463 191.627 82.4776 191.423 82.3677 191.079C82.2579 190.727 82.4619 190.359 82.8071 190.249L126.255 177.102C126.608 176.992 126.976 177.195 127.086 177.54C127.196 177.892 126.992 178.26 126.647 178.369Z" fill="#B1BBC3"/>
<path d="M93.6885 197.731L121.743 189.24C121.743 189.24 122.316 198.952 110.47 202.544C98.6232 206.128 93.6885 197.731 93.6885 197.731Z" fill="#3E4A54"/>
<path d="M98.1995 197.3C96.5442 197.598 96.2225 199.789 97.7053 200.579C99.9334 201.769 103.275 202.794 107.771 202.207C112.713 201.565 115.53 199.085 117.06 196.948C117.97 195.688 116.84 193.959 115.302 194.233C114.8 194.319 114.361 194.616 114.11 195.054C113.435 196.22 111.56 198.56 107.135 199.014C102.899 199.445 100.679 198.294 99.7529 197.598C99.3607 197.3 98.8586 197.175 98.3721 197.261L98.1917 197.292L98.1995 197.3Z" fill="#526571"/>
<path d="M119.665 191.611C119.892 192.346 119.468 193.129 118.731 193.348C117.993 193.567 117.209 193.153 116.989 192.417C116.762 191.681 117.185 190.899 117.923 190.68C118.66 190.453 119.445 190.875 119.665 191.611Z" fill="#526571"/>
<path d="M118.597 164.338L82.3519 175.302C82.1558 175.364 81.9518 175.247 81.8891 175.059C81.8263 174.863 81.944 174.66 82.1323 174.597L118.378 163.633C118.574 163.571 118.778 163.688 118.841 163.876C118.903 164.071 118.786 164.275 118.597 164.338Z" fill="#364856"/>
<path d="M121.838 174.981L85.5922 185.945C85.396 186.007 85.1921 185.89 85.1293 185.702C85.0665 185.506 85.1842 185.303 85.3725 185.24L121.618 174.276C121.814 174.214 122.018 174.331 122.081 174.519C122.144 174.714 122.026 174.918 121.838 174.981Z" fill="#364856"/>
<path d="M124.599 184.067L88.3539 195.031C88.1578 195.093 87.9538 194.976 87.891 194.788C87.8283 194.592 87.9459 194.389 88.1342 194.326L124.38 183.362C124.576 183.3 124.78 183.417 124.843 183.605C124.905 183.8 124.788 184.004 124.599 184.067Z" fill="#364856"/>
<path d="M37.2887 41.4779C37.2887 41.4779 7.83727 67.1627 23.7711 105.909C36.1589 136.023 57.9454 128.51 68.0188 149.468C78.1001 170.434 80.7597 171.475 87.334 169.792C93.9163 168.11 114.275 164.502 116.652 158.147C119.029 151.793 110.619 136.289 121.791 108.57C132.963 80.8425 121.775 53.0212 105.088 39.4354C88.401 25.8495 58.879 23.8617 37.2887 41.4779Z" fill="#F1D047"/>
<g style="mix-blend-mode:soft-light">
<path d="M59.726 27.7591C59.726 27.7591 43.745 32.3607 43.7764 41.5875C43.8078 50.8143 63.3035 70.7783 100.114 64.7132C121.586 61.1759 118.574 50.6735 112.337 42.5345C105.613 33.7694 95.6341 28.0017 84.6898 26.3973C78.037 25.4191 69.6111 25.3721 59.7338 27.7512L59.726 27.7591Z" fill="#F5DD80"/>
</g>
<g style="mix-blend-mode:soft-light">
<path d="M68.3639 27.6258C68.3639 27.6258 58.5336 30.4588 58.5493 36.1326C58.565 41.8064 70.5527 54.0854 93.1943 50.3602C106.398 48.1846 104.547 41.7282 100.71 36.7196C96.5757 31.3275 90.4406 27.7823 83.7093 26.7962C79.6141 26.1936 74.4361 26.1702 68.356 27.6336L68.3639 27.6258Z" fill="#FCF7E5"/>
</g>
<g style="mix-blend-mode:soft-light">
<path d="M131.872 71.232C133.535 76.7023 130.436 82.4779 124.96 84.137C119.476 85.7961 113.686 82.7049 112.023 77.2423C110.36 71.772 113.459 65.9964 118.935 64.3373C124.419 62.6782 130.209 65.7695 131.872 71.232Z" fill="#F5DD80"/>
</g>
<g style="mix-blend-mode:soft-light">
<path d="M115.318 52.4498C115.985 54.6411 114.745 56.9575 112.541 57.6228C110.336 58.288 108.022 57.0515 107.355 54.8524C106.688 52.6533 107.928 50.3446 110.132 49.6794C112.329 49.0142 114.651 50.2507 115.318 52.4498Z" fill="#FCF7E5"/>
</g>
<g style="mix-blend-mode:soft-light">
<path d="M129.769 71.0916C130.444 73.3063 129.189 75.6463 126.969 76.3193C124.748 76.9923 122.403 75.7402 121.728 73.5254C121.053 71.3107 122.308 68.9707 124.529 68.2977C126.749 67.6247 129.095 68.8768 129.769 71.0916Z" fill="#FCF7E5"/>
</g>
<g style="mix-blend-mode:soft-light">
<path d="M22.2176 72.1481C19.9347 72.1324 17.9812 73.7993 17.6595 76.061C16.8201 81.9853 16.2944 93.8025 22.2569 106.058C30.722 123.463 39.8618 131.977 49.2997 133.59C49.2997 133.59 54.6346 133.363 54.3521 129.904C54.0697 126.445 34.5584 116.576 29.4275 102.231C26.0619 92.8399 26.2345 82.854 26.7444 77.0862C26.9798 74.4411 24.8772 72.1637 22.2176 72.1481Z" fill="#FCF7E5"/>
</g>
<g style="mix-blend-mode:soft-light">
<path d="M27.7488 65.2609C28.3215 67.147 27.2545 69.1426 25.3638 69.7139C23.4731 70.2852 21.4725 69.2209 20.8998 67.3348C20.3271 65.4488 21.3941 63.4531 23.2848 62.8818C25.1755 62.3105 27.1761 63.3749 27.7488 65.2609Z" fill="#FCF7E5"/>
</g>
<g style="mix-blend-mode:darken" opacity="0.29">
<path d="M68.5836 140.484C64.4648 140.343 62.0014 144.992 64.4334 148.31C65.5553 149.844 66.7556 151.566 68.0031 153.475C73.7851 162.35 73.7615 172.931 88.5421 170.27C103.315 167.609 116.472 161.129 116.472 161.129C116.472 161.129 119.767 159.673 118.339 150.713C117.695 146.674 117.821 142.034 118.158 138.144C118.433 134.99 115.177 132.768 112.298 134.082C105.057 137.393 91.4998 141.282 68.5915 140.476L68.5836 140.484Z" fill="#D0943A"/>
</g>
<path d="M91.7113 164.47C91.7113 164.47 80.2964 121.749 55.0972 118.595C55.0972 118.595 74.6634 121.6 89.4519 165.151C89.4519 165.151 90.6287 165.723 91.7113 164.47Z" fill="#FAF08E"/>
<path d="M106.359 160.033C106.359 160.033 92.0569 118.18 111.254 101.597C111.254 101.597 96.6543 114.94 108.618 159.344C108.618 159.344 107.959 160.471 106.359 160.025V160.033Z" fill="#FAF08E"/>
<path d="M61.3343 121.232C62.5033 122.649 64.496 123.502 66.2377 123.87C68.2069 124.285 70.2545 124.206 72.2237 123.807C73.8869 123.471 75.6992 122.954 76.8838 121.655C78.6725 119.691 78.1234 116.772 76.8446 114.698C75.3853 112.334 72.9298 110.636 70.0741 110.753C68.1598 110.832 65.7199 111.614 65.4532 113.798C65.2178 115.707 66.3397 117.585 67.5557 118.963C71.902 123.87 79.159 123.345 84.5173 120.497C87.6947 118.814 91.7742 116.044 92.4882 112.225C92.9589 109.713 91.586 107.435 89.4756 106.128C87.2004 104.72 84.329 104.422 81.8107 105.346C79.5512 106.175 78.1783 107.897 78.6255 110.354C79.0727 112.812 80.9477 115.175 83.0267 116.599C85.5294 118.313 88.5655 118.728 91.4526 117.836C95.2497 116.662 98.4428 113.226 99.8785 109.587C100.843 107.146 100.851 103.961 98.6075 102.192C96.8737 100.822 93.6728 100.955 92.1116 102.583C90.8642 103.89 91.3898 106.238 91.9155 107.74C92.6372 109.791 93.9866 111.927 95.9637 112.968C98.38 114.244 101.393 113.539 103.534 112.006C105.056 110.918 106.225 109.439 107.245 107.889C107.52 107.474 106.319 107.576 106.202 107.592C105.692 107.67 105.009 107.866 104.703 108.32C103.84 109.626 102.836 110.949 101.55 111.873C100.843 112.381 100.404 112.608 99.6274 112.491C97.8465 112.225 96.4108 110.691 95.5165 109.235C94.6221 107.78 93.9474 105.987 93.9396 104.25C93.9396 103.655 94.0259 102.998 94.3789 102.497C94.4887 102.341 94.6378 102.333 94.473 102.364C94.222 102.411 94.426 102.364 94.5044 102.38C94.6849 102.427 94.881 102.427 95.0614 102.481C97.0071 103.053 97.925 105.228 97.9328 107.083C97.9485 110.409 95.5243 113.735 93.0844 115.786C91.2015 117.359 89.1304 117.546 86.9023 116.552C84.8782 115.645 83.1208 113.97 82.0539 112.029C81.2537 110.566 80.5711 108.476 81.5596 106.934C81.7636 106.621 82.0303 106.355 82.352 106.167C82.6737 105.98 82.7443 105.972 82.9796 105.948C83.8112 105.87 84.7056 106.027 85.5215 106.308C87.3809 106.942 89.1225 108.359 89.7502 110.268C90.5975 112.859 89.0598 115.324 87.2396 117.061C84.941 119.26 81.7714 121.24 78.5313 121.553C76.2797 121.772 73.9889 121.17 72.106 119.933C70.5448 118.916 69.1954 117.476 68.4579 115.754C67.995 114.666 67.6263 113.14 68.4265 112.115C68.4579 112.076 68.654 111.88 68.5913 111.935C68.7403 111.786 68.756 111.857 68.7247 111.841C68.7168 111.841 68.3245 111.896 68.7247 111.873C68.9522 111.857 69.1875 111.865 69.415 111.888C70.5055 112.021 71.5097 112.553 72.3492 113.234C74.0516 114.596 75.3226 116.732 75.4403 118.932C75.7305 124.645 67.54 123.502 64.5352 121.099C64.2528 120.872 63.9704 120.63 63.735 120.348C63.3192 119.839 60.8872 120.716 61.3187 121.24L61.3343 121.232Z" fill="#FAF08E"/>
<path d="M75.5268 28.4084C75.5268 28.4084 84.4077 27.1015 92.9669 32.4779C101.526 37.8543 67.0695 31.4214 75.5268 28.4084Z" fill="white"/>
<path d="M99.8942 37.3692C100.098 38.0422 99.7216 38.7466 99.0469 38.9501C98.3722 39.1535 97.6661 38.7779 97.4621 38.1048C97.2581 37.4318 97.6347 36.7275 98.3094 36.524C98.9841 36.3205 99.6902 36.6962 99.8942 37.3692Z" fill="white"/>
<path d="M115.781 51.2993C116.095 52.3402 115.506 53.4358 114.463 53.7567C113.419 54.0697 112.321 53.4828 111.999 52.4419C111.686 51.4011 112.274 50.3054 113.317 49.9846C114.361 49.6715 115.459 50.2585 115.781 51.2993Z" fill="white"/>
<path d="M128.899 70.2463C129.189 71.201 128.648 72.2106 127.69 72.4923C126.733 72.774 125.721 72.2419 125.439 71.2871C125.156 70.3323 125.69 69.3228 126.647 69.0411C127.604 68.7515 128.616 69.2915 128.899 70.2463Z" fill="white"/>
<path d="M23.2609 78.1583C23.5982 79.2696 22.9706 80.4435 21.8566 80.78C20.7425 81.1165 19.5657 80.4904 19.2284 79.3792C18.891 78.2679 19.5187 77.094 20.6327 76.7575C21.7467 76.421 22.9235 77.047 23.2609 78.1583Z" fill="white"/>
<path d="M24.6183 64.7133C24.8458 65.4724 24.4222 66.2707 23.6612 66.4976C22.9002 66.7246 22.1 66.302 21.8724 65.5428C21.6449 64.7837 22.0686 63.9855 22.8296 63.7585C23.5906 63.5316 24.3908 63.9542 24.6183 64.7133Z" fill="white"/>
<path d="M50.806 7.34848C77.4801 -0.759209 109.356 5.37634 127.588 27.156C129.204 29.089 131.974 26.3108 130.366 24.3856C111.278 1.58858 77.6762 -4.91479 49.7625 3.57637C47.354 4.31201 48.3818 8.08412 50.806 7.34848Z" fill="white"/>
<path d="M41.9252 10.9325C41.9252 12.6308 40.5444 14.0081 38.842 14.0081C37.1396 14.0081 35.7588 12.6308 35.7588 10.9325C35.7588 9.2343 37.1396 7.85693 38.842 7.85693C40.5444 7.85693 41.9252 9.2343 41.9252 10.9325Z" fill="white"/>
<path d="M0.0704677 109.845C4.47955 126.514 18.2089 140.844 32.9267 148.967C35.1391 150.188 37.1161 146.807 34.9038 145.586C21.0489 137.933 8.0021 124.519 3.84407 108.796C3.20076 106.363 -0.580695 107.396 0.0626224 109.837H0.0704677V109.845Z" fill="white"/>
</g>
<defs>
<clipPath id="clip0_84_35176">
<rect width="140" height="209" fill="white"/>
</clipPath>
</defs>
</svg>
