<svg width="30" height="30" viewBox="0 0 30 30" fill="none" xmlns="http://www.w3.org/2000/svg">
<path d="M27.2179 16.6832C28.3498 9.73313 23.6332 3.18141 16.6831 2.04952C9.73308 0.917628 3.18136 5.63419 2.04947 12.5843C0.917578 19.5343 5.63414 26.086 12.5842 27.2179C19.5343 28.3498 26.086 23.6333 27.2179 16.6832Z" fill="#29DFE2"/>
<path d="M12.3815 7.14705C12.1915 7.03705 11.9415 7.04704 11.7315 7.05704C11.7015 7.05704 11.6815 7.05704 11.6515 7.05704C11.6415 7.05704 11.6215 7.06705 11.6115 7.07705C11.2715 7.20705 10.9415 7.36705 10.6515 7.58705C10.4715 7.72705 10.2115 7.94704 10.2715 8.20704C10.3315 8.49704 10.6915 8.51704 10.9315 8.49704C11.2615 8.46704 11.5815 8.35705 11.8715 8.21705C12.1315 8.08705 12.3215 7.93704 12.4515 7.66704C12.5315 7.48704 12.5915 7.26705 12.3915 7.14705H12.3815Z" fill="#29ABE2"/>
<path d="M24.5213 11.897C24.2313 11.927 24.0613 12.157 23.9313 12.347C23.9113 12.367 23.9013 12.397 23.8813 12.417C23.8813 12.437 23.8813 12.457 23.8813 12.477C23.8413 12.927 23.8413 13.407 23.9613 13.917C24.0413 14.237 24.1913 14.737 24.6213 15.007C25.0913 15.297 25.3713 15.017 25.5113 14.797C25.7013 14.487 25.7613 14.077 25.7513 13.647C25.7413 13.267 25.6513 12.917 25.3413 12.487C25.1413 12.197 24.8413 11.877 24.5313 11.907L24.5213 11.897Z" fill="#29ABE2"/>
<path d="M19.7213 17.067C19.5313 16.957 19.2813 16.967 19.0713 16.977C19.0413 16.977 19.0213 16.977 18.9913 16.977C18.9813 16.977 18.9613 16.987 18.9513 16.997C18.6113 17.127 18.2813 17.287 17.9913 17.507C17.8113 17.647 17.5513 17.867 17.6113 18.127C17.6813 18.417 18.0313 18.437 18.2713 18.417C18.6013 18.387 18.9213 18.277 19.2113 18.137C19.4713 18.007 19.6613 17.857 19.7913 17.587C19.8713 17.407 19.9313 17.187 19.7313 17.067H19.7213Z" fill="#29ABE2"/>
<path d="M11.9515 15.7772C11.0715 15.6772 10.2915 16.1972 9.39146 16.1172C8.08146 15.9872 7.61146 15.2872 6.68146 14.5972C5.93146 14.0372 4.69146 13.0672 3.71146 13.9272C2.93146 14.6272 3.13146 15.9172 3.92146 16.4372C4.66146 16.9172 5.63146 16.4172 6.43146 16.5672C7.91146 16.8372 7.98146 18.0972 9.07146 18.7072C11.8215 20.2372 12.7315 15.8672 11.9515 15.7772Z" fill="#29ABE2"/>
<path d="M20.4814 14.787C20.2314 15.637 20.8314 16.507 20.6014 17.387C20.2614 18.667 19.2614 18.997 18.1914 19.807C17.3414 20.447 15.8614 21.507 16.9014 22.627C17.7314 23.527 19.5114 23.557 20.3114 22.867C21.0614 22.217 20.5114 21.167 20.8114 20.397C21.3714 18.977 23.0814 19.137 24.0414 18.157C26.4714 15.707 20.7014 14.017 20.4814 14.787Z" fill="#29ABE2"/>
<path d="M18.1012 26.4672C17.7712 26.2772 17.5412 25.9772 17.3312 25.6672C16.9112 25.0372 16.4712 24.0872 15.5812 24.1472C15.0612 24.1772 14.6212 24.6372 14.2312 24.9372C13.7712 25.3072 13.2312 25.6072 12.7112 25.8672C12.1612 26.1372 11.5712 26.3572 10.9612 26.4372C10.6312 26.4772 10.2912 26.4972 9.95117 26.5072C11.4012 27.0872 12.9812 27.3972 14.6412 27.3972C16.0712 27.3972 17.4512 27.1572 18.7412 26.7272C18.5212 26.6672 18.3112 26.5872 18.1112 26.4772L18.1012 26.4672Z" fill="#29ABE2"/>
<g style="mix-blend-mode:overlay" opacity="0.6">
<path d="M9.42119 10.6069C7.25119 13.4469 4.61119 15.0769 3.51119 14.2469C2.41119 13.4169 3.29119 10.4269 5.45119 7.58693C7.61119 4.74693 10.2612 3.11692 11.3612 3.94692C12.4512 4.77692 11.5812 7.76693 9.42119 10.6069Z" fill="white"/>
</g>
<g style="mix-blend-mode:multiply">
<path d="M18.8716 2.61719C18.8716 2.61719 18.9216 2.67718 18.9516 2.70718C19.4516 3.24718 19.9416 3.81719 20.3416 4.42719C20.7416 5.03719 21.0416 5.71718 21.3416 6.37718C21.8316 7.43718 22.0516 8.54718 22.2316 9.69718C22.4116 10.8072 22.3516 11.9572 22.1916 13.0572C22.1316 13.4772 22.0316 13.8872 21.8916 14.2872C21.6216 15.0672 21.3816 15.8372 20.9616 16.5572C20.6716 17.0572 20.3316 17.5372 19.9916 17.9972C19.8416 18.1972 19.6816 18.3972 19.5116 18.5772C19.3516 18.7472 19.1816 18.9072 19.0116 19.0672C18.5716 19.4472 18.1416 19.8472 17.6516 20.1772C17.4516 20.3072 17.2416 20.4372 17.0316 20.5372C16.5316 20.7872 16.0216 21.0472 15.4816 21.2372C15.2516 21.3172 15.0116 21.3872 14.7716 21.4372C14.2216 21.5472 13.6516 21.6772 13.0816 21.7072C12.6616 21.7372 12.2316 21.7272 11.8116 21.7072C11.0516 21.6672 10.2816 21.6172 9.53156 21.4872C9.08156 21.4072 8.63156 21.2972 8.20156 21.1572C7.48156 20.9172 6.73156 20.6872 6.07156 20.2972C5.83156 20.1572 5.60156 19.9872 5.37156 19.8372C5.15156 19.6872 4.92156 19.5372 4.70156 19.3672C4.53156 19.2372 4.37156 19.0972 4.23156 18.9372C3.86156 18.5372 3.48156 18.1272 3.18156 17.6672C2.88156 17.2172 2.67156 16.6972 2.46156 16.2172C2.36156 15.9972 2.30156 15.7672 2.24156 15.5272C2.12156 14.9672 2.01156 14.4072 1.95156 13.8372C1.93156 13.6572 1.92156 13.4872 1.92156 13.3072C1.87156 13.7472 1.85156 14.1872 1.85156 14.6372C1.85156 21.6772 7.56156 27.3872 14.6016 27.3872C21.6416 27.3872 27.3516 21.6772 27.3516 14.6372C27.3516 9.08718 23.8016 4.36719 18.8516 2.61719H18.8716Z" fill="#29DFE2"/>
</g>
<g style="mix-blend-mode:multiply">
<path d="M27.3216 13.4473C27.3016 13.8373 27.2616 14.2273 27.2216 14.6173C27.2016 14.7973 27.1816 14.9773 27.1416 15.1573C27.0116 15.8273 26.7716 16.4773 26.5316 17.1073C26.4116 17.4173 26.2716 17.7273 26.1216 18.0273C25.9516 18.3573 25.7616 18.6673 25.5616 18.9773C25.1716 19.5573 24.7816 20.1473 24.3516 20.6973C23.8716 21.2973 23.3316 21.8673 22.7516 22.3773C21.9416 23.0973 21.1116 23.7973 20.1816 24.3573C19.5816 24.7173 18.9416 25.0073 18.3016 25.2973C17.9816 25.4373 17.6616 25.5673 17.3316 25.6773C17.0416 25.7673 16.7416 25.8373 16.4316 25.8973C15.8216 26.0173 15.2116 26.1373 14.5916 26.1973C13.9616 26.2573 13.3216 26.2673 12.6916 26.2273C11.7016 26.1673 10.7216 26.0973 9.7616 25.8773C8.9516 25.6973 8.1616 25.4373 7.3916 25.1373C9.4516 26.5573 11.9416 27.3973 14.6316 27.3973C21.6716 27.3973 27.3816 21.6873 27.3816 14.6473C27.3816 14.2473 27.3616 13.8373 27.3216 13.4473Z" fill="#29DFE2"/>
</g>
</svg>
