<svg width="106" height="106" viewBox="0 0 106 106" fill="none" xmlns="http://www.w3.org/2000/svg">
<g clip-path="url(#clip0_114_36206)">
<path d="M53 106C82.2711 106 106 82.2711 106 53C106 23.7289 82.2711 -3.62907e-07 53 -2.33789e-07C23.7289 -1.04671e-07 1.04671e-07 23.7289 2.33789e-07 53C3.62907e-07 82.2711 23.7289 106 53 106Z" fill="#F5A404"/>
<g style="mix-blend-mode:multiply" opacity="0.5">
<path d="M70.6469 3.0071C70.7547 3.1269 70.8745 3.2467 70.9824 3.3665C73.0429 5.60678 75.1035 7.96686 76.7807 10.5306C78.446 13.0824 79.6799 15.8737 80.9498 18.6411C82.9864 23.0498 83.8969 27.6622 84.6756 32.4422C85.4184 37.0546 85.1788 41.8226 84.5199 46.423C84.2683 48.1601 83.849 49.8613 83.2859 51.5265C82.1838 54.7731 81.1535 57.9838 79.4164 60.9549C78.1944 63.0394 76.7927 65.0161 75.3791 66.9689C74.7681 67.8075 74.1092 68.6221 73.4024 69.3769C72.7434 70.0957 72.0366 70.7666 71.3058 71.4015C69.4968 72.9829 67.6759 74.6481 65.6752 76.0019C64.8486 76.565 63.986 77.0681 63.0875 77.5114C61.0029 78.5537 58.8705 79.6319 56.6542 80.4106C55.6838 80.746 54.7014 81.0216 53.6951 81.2252C51.3949 81.6925 49.0228 82.2076 46.6628 82.3633C44.9137 82.4831 43.1526 82.4352 41.4035 82.3394C38.2527 82.1597 35.054 81.968 31.9392 81.4289C30.0583 81.1054 28.2134 80.6502 26.4044 80.0512C23.3974 79.0448 20.3065 78.0984 17.5631 76.4811C16.5567 75.8941 15.6223 75.2112 14.6639 74.5523C13.7414 73.9174 12.771 73.3064 11.8845 72.6115C11.1896 72.0724 10.5307 71.4854 9.93174 70.8385C8.37432 69.1852 6.82889 67.4601 5.559 65.5672C4.31307 63.7103 3.43852 61.5419 2.54001 59.5173C2.13269 58.6068 1.85714 57.6364 1.6415 56.666C1.12636 54.3538 0.671113 52.0057 0.443491 49.6457C0.37161 48.9149 0.32369 48.1841 0.29973 47.4533C0.108048 49.2743 0.0122072 51.1192 0.0122073 52.9881C0.0122074 82.2555 23.7448 105.988 53.0122 105.988C82.2796 105.988 106.012 82.2555 106.012 52.9881C106.012 29.9024 91.2527 10.267 70.6709 2.99512L70.6469 3.0071Z" fill="#F5A404"/>
</g>
<g style="mix-blend-mode:multiply" opacity="0.5">
<path d="M105.76 48.0044C105.676 49.6337 105.533 51.263 105.365 52.8803C105.281 53.6351 105.173 54.3898 105.041 55.1326C104.514 57.912 103.508 60.6075 102.526 63.2311C102.034 64.537 101.447 65.8189 100.8 67.0528C100.094 68.4185 99.3029 69.7363 98.4524 71.0062C96.847 73.4262 95.2177 75.8702 93.4087 78.1464C91.3961 80.6622 89.1678 82.9983 86.7478 85.1188C83.3694 88.1019 79.9311 91.037 76.0615 93.3731C73.5697 94.8706 70.9101 96.0686 68.2625 97.2786C66.9567 97.8776 65.6149 98.4167 64.2372 98.848C63.0152 99.2314 61.7693 99.5309 60.5114 99.7705C57.9836 100.25 55.4318 100.765 52.8561 101.016C50.2324 101.268 47.5848 101.304 44.9492 101.136C40.852 100.885 36.7668 100.585 32.7534 99.6866C29.399 98.9438 26.0805 97.8656 22.8818 96.5957C31.4356 102.514 41.8104 105.976 52.9998 105.976C82.2672 105.976 106 82.2436 106 52.9762C106 51.287 105.916 49.6217 105.76 47.9805L105.76 48.0044Z" fill="#F5A404"/>
</g>
<g style="mix-blend-mode:multiply">
<path d="M18.3536 14.34C18.9885 15.1905 19.7073 15.9812 20.4861 16.712C21.2408 17.4308 22.0554 18.0778 22.8461 18.7486C23.6608 19.4435 24.4634 20.1503 25.3739 20.7134C26.7876 21.5999 28.2372 21.8515 29.7706 21.0848C31.5677 20.1863 32.9933 18.6408 34.4189 17.2631C35.6049 16.113 36.8509 14.9749 38.3604 14.2561C39.8699 13.5373 41.6309 13.2857 43.2842 13.5732C45.3568 13.9207 47.2376 14.915 49.2263 15.5619C51.4906 16.2927 53.5991 16.2089 55.8873 15.6338C57.7921 15.1546 59.637 14.5796 61.6138 14.7712C63.5545 14.9509 65.4115 15.5619 67.2444 16.2089C69.1373 16.8797 71.0062 17.6345 72.9709 18.0418C74.8877 18.4372 77.14 18.5929 78.937 17.6704C81.5966 16.3167 82.3513 12.9982 84.8791 11.4288C85.0828 11.309 85.2865 11.2012 85.4901 11.1053C84.376 10.2428 83.2259 9.41613 82.0399 8.63743C81.1533 9.38019 80.123 9.95524 78.9969 10.3266C74.2049 11.908 69.1972 10.3985 64.3932 9.7396C62.8238 9.52395 61.2304 9.33227 59.637 9.41613C58.1875 9.48801 56.7978 9.87138 55.3721 10.1469C54.1621 10.3865 52.9282 10.5063 51.7182 10.2547C50.5082 10.0032 49.5019 9.34425 48.4955 8.67337C47.3934 7.95456 46.2912 7.55922 44.9614 7.58318C43.6077 7.59516 42.3018 7.9306 41.02 8.33792C38.9115 9.00881 36.7191 9.88336 34.4668 9.70366C32.8855 9.58386 31.4478 8.82911 30.5374 7.5113C30.0941 6.87635 29.7946 6.16952 29.6029 5.42676C25.3021 7.54724 21.3366 10.2308 17.7905 13.3815C17.9463 13.705 18.126 14.0165 18.3656 14.328L18.3536 14.34Z" fill="#F5A404"/>
</g>
<g style="mix-blend-mode:multiply">
<path d="M43.6553 21.8159C42.8766 21.3726 41.8224 21.4085 40.9478 21.4445C40.84 21.4445 40.7322 21.4445 40.6244 21.4565C40.5645 21.4804 40.5046 21.5044 40.4447 21.5284C39.043 22.0675 37.6533 22.7264 36.4433 23.6368C35.6886 24.1999 34.6103 25.1463 34.8499 26.2246C35.1255 27.4106 36.611 27.4944 37.5814 27.4106C38.9352 27.2908 40.2889 26.8475 41.5109 26.2365C42.5891 25.6974 43.3798 25.0625 43.9069 23.9603C44.2543 23.2295 44.47 22.2951 43.6433 21.8159L43.6553 21.8159Z" fill="#F5A404"/>
</g>
<g style="mix-blend-mode:multiply">
<path d="M65.1241 47.3696C64.3454 46.9263 63.2911 46.9623 62.4166 46.9982C62.3087 46.9982 62.2009 46.9982 62.0931 47.0102C62.0332 47.0341 61.9733 47.0581 61.9134 47.0821C60.5117 47.6212 59.122 48.2801 57.912 49.1906C57.1573 49.7536 56.0791 50.7001 56.3187 51.7783C56.5942 52.9643 58.0798 53.0482 59.0502 52.9643C60.4039 52.8445 61.7577 52.4012 62.9796 51.7902C64.0578 51.2511 64.8485 50.6162 65.3757 49.514C65.7231 48.7832 65.9387 47.8488 65.1121 47.3696L65.1241 47.3696Z" fill="#F5A404"/>
</g>
<g style="mix-blend-mode:multiply">
<path d="M41.8584 57.7083C38.2165 57.3009 34.9579 59.4693 31.2201 59.1099C25.7572 58.5828 23.8284 55.6836 19.9348 52.7725C16.832 50.4603 11.6446 46.3991 7.59532 50.0051C4.34871 52.9043 5.18732 58.2953 8.48185 60.4517C11.5607 62.4644 15.598 60.3798 18.9165 60.9788C25.0743 62.105 25.3738 67.3642 29.9023 69.8801C41.3433 76.2535 45.129 58.0677 41.8584 57.6963L41.8584 57.7083Z" fill="#F5A404"/>
</g>
<g style="mix-blend-mode:multiply">
<path d="M67.4362 102.143C66.0585 101.364 65.1121 100.094 64.2495 98.8001C62.5124 96.1884 60.6675 92.2469 56.9536 92.4626C54.7733 92.5944 52.9643 94.4872 51.3469 95.7571C49.4181 97.2786 47.2138 98.5485 45.0095 99.6267C42.7093 100.753 40.2653 101.651 37.7136 101.987C36.3239 102.166 34.9102 102.25 33.4966 102.274C39.5346 104.67 46.1116 105.988 53.0002 105.988C58.9663 105.988 64.6928 105.006 70.0359 103.185C69.1254 102.933 68.2509 102.598 67.4362 102.131L67.4362 102.143Z" fill="#F5A404"/>
</g>
<g style="mix-blend-mode:multiply">
<path d="M7.60739 77.6312C9.32055 78.985 10.9019 80.4825 12.4833 81.968C15.658 84.963 18.8687 88.1258 22.8221 90.0785C27.0751 92.1751 32.2625 92.5584 36.8988 91.8755C41.8705 91.1448 46.3151 88.9404 50.1727 85.7657C53 83.4415 55.8992 79.5959 59.9006 79.536C64.0457 79.4761 66.6693 83.3577 69.8081 85.4183C71.701 86.6522 73.7975 87.1194 76.0258 86.6882C78.4098 86.2209 80.5543 84.951 82.4831 83.5134C86.1969 80.746 89.3237 77.3077 92.8339 74.3127C94.4871 72.911 96.2482 71.5932 98.2609 70.7426C99.8662 70.0717 101.555 69.8202 103.281 69.7962C104.622 65.7829 105.497 61.5539 105.832 57.1812C103.089 57.888 100.214 57.9838 97.3863 57.864C94.595 57.7442 91.7197 58.0198 89.3596 59.673C87.922 60.6793 86.7001 62.0211 85.4901 63.279C82.5789 66.298 79.6797 69.7243 75.9659 71.7729C74.5762 72.5397 72.9589 73.1147 71.3536 72.8152C69.5685 72.4797 68.1549 71.0661 67.3043 69.5207C66.2021 67.5439 65.9146 64.9203 64.2733 63.279C62.033 61.0387 58.0796 61.7576 55.5638 63.0754C49.5258 66.2501 47.6449 73.3423 42.6612 77.6072C40.1573 79.7517 37.1264 81.2492 33.8199 81.6086C30.6212 81.956 27.3746 81.2372 24.5113 79.8116C21.7439 78.4339 19.4677 76.3493 17.1436 74.3486C14.8554 72.3719 12.5552 70.3952 10.0633 68.6821C7.63135 67.0048 4.95979 65.5672 2.04862 64.9443C1.80902 64.8963 1.5814 64.8484 1.3418 64.8125C2.1804 68.5024 3.40238 72.0365 4.97177 75.3909C5.93018 76.0618 6.80473 76.9723 7.63135 77.6312L7.60739 77.6312Z" fill="#F5A404"/>
</g>
<g style="mix-blend-mode:multiply">
<path d="M9.21254 35.2098C10.2548 36.8151 11.5487 38.061 13.0102 39.283C14.4239 40.469 15.8735 41.6071 17.395 42.6494C20.3421 44.674 23.6007 46.3393 26.8353 47.8607C30.1178 49.4062 33.5801 50.712 37.2101 51.1313C38.9591 51.335 40.7681 51.323 42.5053 50.9756C44.0148 50.6761 45.3086 49.8135 46.3988 48.7712C48.4953 46.7586 50.0647 44.2428 51.9576 42.0384C53.4072 40.3612 55.0604 39.0793 57.3486 38.9116C60.152 38.696 63.0032 39.5346 65.4951 40.7805C68.0948 42.0744 70.4668 43.7995 73.1025 45.0454C75.9777 46.3992 79.0686 46.8664 82.2193 46.3632C84.7471 45.9679 86.9155 44.7819 88.8204 43.1046C90.7252 41.4274 92.4144 39.5106 94.3552 37.8693C96.7033 35.8806 99.3748 34.3352 102.022 32.7658C101.28 30.9688 100.441 29.2317 99.5186 27.5425C98.7878 28.0097 98.0211 28.429 97.2304 28.7764C93.7562 30.3099 90.0663 30.2859 86.3884 29.5432C84.3757 29.1358 82.3751 28.5967 80.3265 28.5368C79.2602 28.5009 78.194 28.6087 77.1637 28.8723C76.0975 29.1478 75.0912 29.6031 74.0489 29.9625C72.2399 30.5735 70.4069 30.9089 68.538 30.2979C66.6572 29.6869 65.0039 28.465 63.2428 27.6024C61.35 26.6799 59.3733 26.2846 57.2767 26.6799C55.2761 27.0633 53.503 28.1175 51.8378 29.2437C50.1965 30.3698 48.6271 31.6157 46.9139 32.634C45.1529 33.6763 43.2241 34.467 41.2354 34.9222C37.3059 35.8327 32.8852 35.665 29.0636 34.3711C25.4815 33.1612 22.4985 30.849 20.1983 27.8899C18.9643 26.3085 17.8382 24.5115 16.1131 23.4093C14.3041 22.2593 12.0279 22.3311 9.96729 22.1035C8.23017 24.5115 6.69672 27.0753 5.37891 29.7708C6.92434 31.3641 7.99057 33.3049 9.2365 35.2098L9.21254 35.2098Z" fill="#F5A404"/>
</g>
<g style="mix-blend-mode:overlay" opacity="0.3">
<path d="M31.3521 36.2159C22.3431 48.0402 11.3454 54.821 6.79292 51.3587C2.24048 47.8965 5.85847 35.4971 14.8675 23.6607C23.8766 11.8363 34.8743 5.05561 39.4267 8.51786C43.9792 11.9801 40.3612 24.3795 31.3521 36.2159Z" fill="white"/>
</g>
</g>
<defs>
<clipPath id="clip0_114_36206">
<rect width="106" height="106" fill="white"/>
</clipPath>
</defs>
</svg>
