<svg width="75" height="75" viewBox="0 0 75 75" fill="none" xmlns="http://www.w3.org/2000/svg">
<g clip-path="url(#clip0_156_59668)">
<path d="M74.9999 37.5V37.7376C74.9973 38.0849 74.9922 38.4298 74.9795 38.7746C74.9079 40.9228 74.6551 43.025 74.2336 45.0659C74.1646 45.4005 74.0931 45.7326 74.0139 46.0646C73.6742 47.5232 73.2476 48.9536 72.7393 50.3406C72.1901 51.8553 71.5439 53.3215 70.8108 54.7366C70.6448 55.0584 70.4736 55.3777 70.2974 55.6944C68.5783 58.7903 66.4301 61.6179 63.9346 64.0956C63.3982 64.6294 62.8464 65.1454 62.2794 65.6435C62.0239 65.8683 61.7659 66.0905 61.5054 66.3076C55.0047 71.7356 46.6316 75 37.4999 75C36.9303 75 36.3607 74.9872 35.7962 74.9617C35.1244 74.931 34.4602 74.8851 33.7987 74.8186C22.3783 73.7024 12.4624 67.4596 6.38058 58.4225C6.1839 58.1313 5.99233 57.8401 5.80586 57.5438C4.38566 55.3062 3.1979 52.9051 2.27323 50.3814C2.15573 50.0596 2.04334 49.7378 1.93606 49.4134C1.65764 48.5781 1.40732 47.7301 1.18509 46.8693C1.09314 46.5091 1.00374 46.1438 0.921997 45.7786C0.321732 43.117 0.00244141 40.343 0.00244141 37.5C0.00244141 34.8997 0.268091 32.3607 0.771292 29.9137C0.830042 29.625 0.8939 29.3364 0.962866 29.0503C0.973084 28.9992 0.985855 28.9481 0.998627 28.897C2.62318 21.9595 6.17368 15.7704 11.0575 10.9146C11.2977 10.672 11.5429 10.4344 11.7906 10.202C15.4714 6.73575 19.8495 4.00518 24.6925 2.24269C28.6849 0.79184 33.0017 0 37.4999 0C40.3224 0 43.0734 0.314182 45.7197 0.90423C46.0518 0.978305 46.3813 1.05749 46.7108 1.14178C54.1924 3.02943 60.7774 7.16743 65.7098 12.7946C65.9346 13.05 66.1568 13.308 66.3739 13.5711C71.7585 20.0642 74.9999 28.4041 74.9999 37.5Z" fill="#E7799C"/>
<path d="M54.3356 12.2863C53.8682 14.0386 52.0469 15.0066 50.7187 15.5839C48.7289 16.4498 47.0456 17.1165 45.4236 17.681C37.3111 20.5138 29.0172 21.9595 20.7718 21.9774H20.4065C19.2469 21.9774 18.3043 21.9621 17.441 21.9237C17.2545 21.9161 17.0553 21.9135 16.8535 21.9135H16.5981C15.8573 21.9135 15.1344 21.8982 14.4575 21.699C12.8534 21.2315 12.1076 19.8394 12.5597 18.1561C13.1778 15.8649 14.3477 13.8368 15.9876 12.1994C15.6555 12.1407 15.3158 12.0896 14.9684 12.0385C13.7679 11.8572 12.5265 11.6707 11.3566 11.1292C11.2416 11.0755 11.142 11.004 11.0552 10.9146C11.2953 10.672 11.5405 10.4344 11.7883 10.202C18.5036 3.87491 27.5459 0 37.5001 0C40.3226 0 43.0736 0.314182 45.7199 0.90423C46.0519 0.978305 46.3815 1.05749 46.711 1.14178C46.6522 1.39977 46.4938 1.62455 46.2614 1.77015C45.7659 2.08177 45.4236 2.40106 45.2192 2.751C45.0583 3.02176 44.3048 4.4011 45.1426 5.10354C45.9472 5.77532 47.0609 5.95412 48.2436 6.14314C48.5526 6.19423 48.8617 6.24276 49.1657 6.30151C51.2832 6.70254 53.0482 7.7396 53.8861 9.07295C54.4863 10.0257 54.6396 11.1368 54.3356 12.2863Z" fill="#C76886"/>
<path d="M53.3469 12.0232C52.9944 13.3412 51.4465 14.1535 50.3098 14.6465C48.5933 15.3949 46.8564 16.0999 45.0888 16.7155C37.2904 19.4384 29.04 20.9378 20.7691 20.9557C19.6758 20.9557 18.58 20.9505 17.4842 20.902C16.626 20.8663 15.5736 20.9633 14.746 20.7181C13.6349 20.3937 13.2466 19.5355 13.548 18.4218C14.2837 15.6861 15.875 13.3668 18.1203 11.709C16.1049 10.9172 13.7473 11.1113 11.7881 10.202C18.5034 3.87491 27.5457 0 37.4999 0C40.3224 0 43.0734 0.314182 45.7197 0.90423C45.1577 1.25673 44.6622 1.6833 44.3378 2.23248C43.6762 3.34872 43.3365 4.92473 44.4885 5.88771C45.7452 6.94009 47.4311 7.00906 48.9739 7.30536C51.283 7.74215 54.0826 9.26197 53.3469 12.0232Z" fill="#AB4968"/>
<path d="M75 37.5V37.7376C74.9975 38.085 74.9924 38.4298 74.9796 38.7746C74.06 38.9253 73.1405 39.0352 72.249 39.1424C71.7765 39.2012 71.3116 39.2574 70.8544 39.3187C64.4251 40.1718 58.0189 40.6035 51.8119 40.6035C48.4223 40.6035 45.0276 40.4732 41.7249 40.2178C39.1757 40.0211 36.6367 39.7555 34.1743 39.4311L33.7273 39.3749C32.1002 39.168 30.256 38.933 28.7642 37.9266C27.1014 36.8027 26.0413 34.841 26.1307 33.0504C26.1997 31.6302 26.9788 30.4501 28.3172 29.7272C29.8319 28.9098 31.505 28.5369 33.1245 28.1767C33.6072 28.0695 34.0645 27.9673 34.5166 27.8549L41.4567 26.1231C42.9969 25.7399 44.5678 25.3695 46.0902 25.0094C49.1196 24.2967 52.2538 23.556 55.2653 22.6747C57.1862 22.1128 59.3599 21.3899 60.8261 19.9518C61.8223 18.9761 62.4762 17.7755 63.171 16.506C63.4596 15.9773 63.7559 15.4332 64.0854 14.8968C64.5324 14.1637 65.0663 13.4613 65.6359 12.8661C65.6589 12.8406 65.6844 12.8176 65.7099 12.7946C65.9347 13.05 66.157 13.308 66.3741 13.5711C71.7586 20.0642 75 28.4041 75 37.5Z" fill="#C76886"/>
<path d="M74.9998 37.5V37.7375C73.5566 37.9777 72.0955 38.1207 70.7188 38.3046C61.1452 39.5741 51.4362 39.9445 41.8038 39.1986C39.2981 39.0045 36.7999 38.7465 34.3069 38.4195C32.6645 38.2024 30.7538 38.0364 29.3362 37.0785C27.1906 35.6302 25.9722 32.1538 28.8023 30.6263C30.6159 29.648 32.782 29.3415 34.7641 28.846C37.0758 28.2687 39.3875 27.6914 41.7042 27.1167C46.3071 25.9647 50.9994 24.9889 55.5512 23.6556C57.6611 23.0374 59.9344 22.2558 61.5411 20.6798C63.0865 19.1676 63.8528 17.2417 64.9562 15.4281C65.347 14.787 65.8272 14.1458 66.3739 13.5711C71.7584 20.0642 74.9998 28.4041 74.9998 37.5Z" fill="#AB4968"/>
<path d="M22.312 41.4234C21.6862 43.2498 19.6351 44.4733 17.9339 44.7364C17.3081 44.8334 16.621 44.8769 15.7678 44.8769C15.3668 44.8769 14.9658 44.8692 14.5647 44.859C14.179 44.8488 13.7933 44.8411 13.4076 44.8411C12.7844 44.8411 12.2837 44.8667 11.8316 44.9203C9.8699 45.1553 7.91584 45.6278 5.85195 46.366C4.66419 46.7901 3.62714 46.9893 2.59519 46.9893C2.13286 46.9893 1.66797 46.951 1.18265 46.8692C1.0907 46.5091 1.00129 46.1438 0.919556 45.7785C0.31929 43.1169 0 40.3429 0 37.5C0 34.8997 0.265649 32.3607 0.768851 29.9137C0.837818 29.5739 0.914447 29.2342 0.996186 28.897C2.03579 28.92 3.09328 28.9967 4.14311 29.1244C4.41642 29.1576 4.70762 29.1882 5.00647 29.2189C6.57993 29.3772 8.3654 29.5586 9.73707 30.3888C10.8635 31.0657 11.1726 32.0491 11.4229 32.8384C11.589 33.3543 11.7167 33.763 12.0411 34.067C13.0935 35.0504 14.5469 35.3084 16.0871 35.5791C17.8675 35.8933 19.8905 36.2509 21.4103 37.8627C22.4142 38.9279 22.736 40.1922 22.312 41.4234Z" fill="#C76886"/>
<path d="M17.7781 43.7249C15.7908 44.0339 13.7193 43.6661 11.709 43.9062C9.5736 44.1616 7.53014 44.6802 5.50712 45.403C3.85958 45.9931 2.52367 46.1208 0.919556 45.7785C0.31929 43.1169 0 40.3429 0 37.5C0 34.8997 0.265649 32.3607 0.768851 29.9136C1.86721 29.9315 2.95535 30.0107 4.01795 30.1384C5.63483 30.3351 7.78557 30.4015 9.20833 31.2623C10.6643 32.1384 10.1969 33.74 11.3437 34.8128C13.9594 37.2624 18.1561 35.9061 20.667 38.5626C22.874 40.9049 20.0872 43.3672 17.7781 43.7249Z" fill="#AB4968"/>
<path d="M74.2337 45.0659C74.1647 45.4005 74.0932 45.7326 74.014 46.0647C73.3013 49.1171 72.2183 52.0239 70.8109 54.7366C70.6449 55.0584 70.4737 55.3777 70.2975 55.6944C70.0216 55.6536 69.7457 55.6076 69.4699 55.5642C68.2234 55.3624 67.0433 55.1734 65.8836 55.1734C65.2501 55.1734 64.6831 55.2321 64.1492 55.3471C62.987 55.6025 61.5208 56.1696 61.1402 57.4416C60.8976 58.2411 60.7928 59.3165 61.646 59.9167C62.1262 60.2539 62.374 60.8388 62.2794 61.411C62.1875 61.9679 61.789 62.4149 61.2373 62.5758C52.6956 65.0765 44.3379 67.3217 36.0031 67.3217C30.9354 67.3217 26.4295 66.4967 22.2302 64.8006C21.4333 64.4813 21.0348 63.6409 21.3235 62.8925C21.9722 61.1913 21.3439 59.2143 19.7193 57.8554C18.4422 56.7877 16.8049 56.2462 14.8508 56.2462C14.0768 56.2462 13.2646 56.3356 12.437 56.5067C10.5519 56.9026 8.66423 57.5898 6.83789 58.2539L6.37811 58.4225C6.18143 58.1313 5.98986 57.8401 5.80339 57.5438C4.38319 55.3062 3.19543 52.9051 2.27076 50.3815C2.15327 50.0596 2.04088 49.7378 1.93359 49.4134C2.62837 49.1477 3.32059 48.8693 4.01281 48.5934C6.60034 47.5615 9.27472 46.4912 12.0896 45.9063C13.5379 45.6049 15.0322 45.4516 16.5315 45.4516C18.3834 45.4516 20.2685 45.6738 22.2941 46.1311C23.2213 46.3405 24.1536 46.5781 25.0579 46.808C27.745 47.49 30.5241 48.195 33.2802 48.195C33.3594 48.195 33.4386 48.195 33.5178 48.195C36.394 48.1541 39.3084 47.6509 42.1284 47.163C43.283 46.9638 44.4784 46.7569 45.6636 46.5832C49.8195 45.9701 53.6663 45.5487 57.4288 45.2907C60.9665 45.0506 64.5375 44.928 68.0394 44.928C70.042 44.928 72.0676 44.9663 74.0549 45.0455C74.1162 45.048 74.1749 45.0557 74.2337 45.0685V45.0659Z" fill="#C76886"/>
<path d="M74.0142 46.0646C73.3016 49.1171 72.2185 52.0239 70.8111 54.7366C68.5097 54.4045 66.1827 53.8553 63.9298 54.3509C62.3589 54.6931 60.6628 55.4773 60.1621 57.1504C59.7637 58.4633 59.8429 59.8989 61.0587 60.752C61.3806 60.9793 61.3525 61.4774 60.9514 61.5949C48.6856 65.1863 35.0251 68.8696 22.6136 63.8529C22.3888 63.761 22.1743 63.5234 22.2764 63.2603C23.1398 61.0023 22.1845 58.5859 20.3735 57.0712C18.1001 55.1708 15.0579 54.9179 12.2303 55.5054C10.0336 55.9652 7.9186 56.7775 5.80362 57.5438C4.38342 55.3062 3.19566 52.9051 2.271 50.3815C5.57373 49.1094 8.82794 47.6305 12.2993 46.905C15.5867 46.2205 18.8 46.389 22.0695 47.1272C25.8474 47.9804 29.615 49.2729 33.5333 49.2141C37.6765 49.1554 41.7251 48.1898 45.812 47.5896C49.6894 47.02 53.5873 46.5755 57.498 46.3073C62.9949 45.9318 68.5097 45.845 74.0142 46.0646Z" fill="#AB4968"/>
<path d="M62.2796 65.6435C62.0242 65.8683 61.7662 66.0905 61.5056 66.3076C55.0049 71.7356 46.6318 75 37.5001 75C36.9305 75 36.3609 74.9872 35.7964 74.9617C35.1246 74.931 34.4605 74.885 33.7989 74.8186C33.3851 74.5198 32.9534 74.1979 32.486 73.8403C32.3251 73.7177 32.1667 73.5977 32.0083 73.4776C30.7439 72.5223 29.4387 71.5338 28.5344 70.0599C28.2509 69.6001 28.2381 69.0459 28.5012 68.5759C28.7694 68.0956 29.2778 67.7968 29.8269 67.7968C29.9444 67.7968 30.0619 67.8096 30.1743 67.8377L30.6341 67.9475C33.6329 68.6729 36.7313 69.4213 39.7888 69.498C39.9369 69.498 40.0825 69.5031 40.2281 69.5031C43.0175 69.5031 45.5386 68.839 48.3049 68.0394C51.9039 66.9973 56.6473 65.7431 61.4137 65.291C61.4443 65.2884 61.4775 65.2859 61.5107 65.2859C61.8122 65.2859 62.0931 65.4187 62.2822 65.6435H62.2796Z" fill="#C76886"/>
<path d="M61.5055 66.3076C55.0048 71.7356 46.6317 75 37.5 75C36.9304 75 36.3608 74.9872 35.7963 74.9617C34.8742 74.3537 33.9827 73.7024 33.104 73.0306C31.7451 71.9884 30.3147 71.0076 29.4002 69.5261C29.1755 69.1582 29.5458 68.7368 29.9341 68.8313C33.1526 69.6052 36.4374 70.4354 39.7606 70.5197C42.8743 70.5963 45.6304 69.876 48.5883 69.0203C52.6931 67.83 57.1223 66.724 61.5055 66.3076Z" fill="#AB4968"/>
<g style="mix-blend-mode:multiply">
<path d="M72.7393 50.3406C72.1901 51.8553 71.5439 53.3215 70.8108 54.7365C70.6448 55.0584 70.4736 55.3777 70.2974 55.6944C68.5783 58.7903 66.4301 61.6179 63.9346 64.0956C63.3982 64.6294 62.8464 65.1454 62.2794 65.6435C62.0239 65.8683 61.7659 66.0905 61.5054 66.3076C55.0047 71.7356 46.6316 75 37.4999 75C36.9303 75 36.3607 74.9872 35.7962 74.9617C35.1244 74.931 34.4602 74.885 33.7987 74.8186C22.3783 73.7024 12.4624 67.4596 6.38058 58.4224C6.1839 58.1312 5.99233 57.8401 5.80586 57.5438C4.38566 55.3062 3.1979 52.9051 2.27323 50.3814C2.15573 50.0596 2.04334 49.7377 1.93606 49.4133C1.65764 48.5781 1.40732 47.73 1.18509 46.8692C1.09314 46.5091 1.00374 46.1438 0.921997 45.7785C0.321732 43.1169 0.00244141 40.3429 0.00244141 37.5C0.00244141 34.8997 0.268091 32.3607 0.771292 29.9136C0.830042 29.625 0.8939 29.3364 0.962866 29.0503C0.973084 28.9992 0.985855 28.9481 0.998627 28.897C2.62318 21.9595 6.17368 15.7704 11.0575 10.9146C11.2977 10.6719 11.5429 10.4344 11.7906 10.2019C15.4714 6.73573 19.8495 4.00516 24.6925 2.24268C22.5545 5.93623 21.2084 10.1049 20.8048 14.3553C20.0104 22.759 22.7819 31.3543 27.9493 38.0262C30.9302 41.8755 34.9634 45.2549 39.7809 45.9573C43.5128 46.5014 47.4541 45.4082 51.0225 46.6189C53.8246 47.5717 55.983 49.8118 58.5935 51.2039C62.9818 53.5411 68.6396 53.0992 72.7419 50.3406H72.7393Z" fill="#C76886"/>
</g>
<g style="mix-blend-mode:multiply">
<path d="M63.9346 64.0956C63.3982 64.6294 62.8464 65.1454 62.2794 65.6435C62.0239 65.8683 61.7659 66.0905 61.5054 66.3076C55.0047 71.7356 46.6316 75 37.4999 75C36.9303 75 36.3607 74.9872 35.7962 74.9617C35.1244 74.931 34.4602 74.885 33.7987 74.8186C22.3783 73.7024 12.4624 67.4596 6.38058 58.4224C6.1839 58.1312 5.99233 57.8401 5.80586 57.5438C4.38566 55.3062 3.1979 52.9051 2.27323 50.3814C2.15573 50.0596 2.04334 49.7377 1.93606 49.4133C1.65764 48.5781 1.40732 47.73 1.18509 46.8692C1.09314 46.5091 1.00374 46.1438 0.921997 45.7785C0.321732 43.1169 0.00244141 40.3429 0.00244141 37.5C0.00244141 34.8997 0.268091 32.3607 0.771292 29.9137C0.830042 29.625 0.8939 29.3364 0.962866 29.0503C2.34475 32.9124 4.3831 36.5217 7.53003 39.0862C11.1929 42.0722 16.0947 43.426 19.285 46.9101C21.4639 49.2907 22.621 52.4428 24.6568 54.946C28.2022 59.3088 34.1946 61.2399 39.7937 60.7009C42.2177 60.4659 44.7363 59.8299 47.0275 60.6524C48.4452 61.1632 49.6099 62.1824 50.8845 62.9896C54.7186 65.4162 59.7455 65.8095 63.9371 64.0956H63.9346Z" fill="#C76886"/>
</g>
</g>
<defs>
<clipPath id="clip0_156_59668">
<rect width="75" height="75" fill="white"/>
</clipPath>
</defs>
</svg>
