<svg width="80" height="80" viewBox="0 0 80 80" fill="none" xmlns="http://www.w3.org/2000/svg">
<path d="M71.5476 47.2602C75.7767 29.6174 64.9028 11.8867 47.2601 7.65761C29.6173 3.42847 11.8867 14.3024 7.65753 31.9451C3.42839 49.5879 14.3023 67.3185 31.945 71.5477C49.5878 75.7768 67.3184 64.9029 71.5476 47.2602Z" fill="#F1375A"/>
<g style="mix-blend-mode:multiply" opacity="0.3">
<path d="M64.2719 17.918C64.6319 18.708 64.9819 19.498 65.3319 20.278C65.5119 20.678 65.6719 21.078 65.8019 21.488C66.3519 23.218 66.5619 25.088 66.8519 26.878C66.9019 27.208 66.9619 27.548 66.9819 27.878C67.0519 28.938 66.8819 30.088 66.8019 31.108C66.7319 32.078 66.7219 33.188 66.5219 34.188C66.3119 35.268 65.8419 36.368 65.4919 37.368C65.1619 38.308 64.8719 39.358 64.4219 40.288C63.4719 42.228 62.1219 44.008 60.8019 45.698C60.3519 46.268 59.8419 46.768 59.3019 47.248C57.6919 48.668 56.0819 50.198 54.2619 51.378C53.6119 51.798 52.9319 52.158 52.2419 52.488C50.3219 53.408 48.4019 54.418 46.3919 55.128C43.6619 56.078 40.6819 56.528 37.8419 56.888C34.9419 57.248 31.9819 56.938 29.1019 56.638C26.2019 56.338 23.3319 55.298 20.7019 54.118C20.3619 53.968 20.0419 53.798 19.7219 53.608C18.1319 52.668 16.5319 51.558 15.0719 50.448C14.5419 50.048 14.0819 49.598 13.6319 49.108C12.1719 47.468 10.4619 45.748 9.42193 43.728C8.45193 41.838 7.46193 39.888 6.81193 37.848C6.81193 37.818 6.79193 37.788 6.78193 37.758C6.75193 38.378 6.73193 38.988 6.73193 39.618C6.73193 57.758 21.4419 72.468 39.5819 72.468C57.7219 72.468 72.4319 57.758 72.4319 39.618C72.4319 31.308 69.3419 23.728 64.2619 17.938L64.2719 17.918Z" fill="#F1375A"/>
</g>
<g style="mix-blend-mode:multiply" opacity="0.3">
<path d="M70.6017 48.7378C69.3117 50.5978 67.8117 52.2478 66.1017 53.7278C63.2817 56.1578 60.5917 58.5978 57.2317 60.2378C53.9517 61.8478 50.7317 63.4678 47.1417 64.1978C44.6617 64.6978 42.0117 65.2878 39.4317 65.3978C36.9317 65.5078 34.3517 65.2278 31.9017 64.9678C30.9217 64.8578 29.9517 64.6378 29.0117 64.3378C26.6217 63.5778 24.1417 62.8078 21.8617 61.7078C19.4017 60.5278 17.1517 58.8478 14.9417 57.2978C14.0817 56.6978 13.2617 56.0678 12.5017 55.3478C11.2517 54.1678 10.0717 52.8878 8.9917 51.5178C13.7617 63.7578 25.6717 72.4378 39.6017 72.4378C55.0317 72.4378 67.9717 61.7978 71.5017 47.4678C71.2017 47.8978 70.9017 48.3178 70.6117 48.7378H70.6017Z" fill="#F1375A"/>
</g>
<g style="mix-blend-mode:multiply">
<path d="M58.7917 56.5679C59.9417 58.3979 57.6717 61.8779 53.7417 64.3479C49.8017 66.8179 45.6817 67.3279 44.5417 65.5079C43.3917 63.6779 45.6617 60.1979 49.5917 57.7279C53.5317 55.2579 57.6517 54.7479 58.7917 56.5679Z" fill="#F1375A"/>
</g>
<g style="mix-blend-mode:multiply">
<path d="M61.9417 49.4781C62.4717 50.3281 61.4217 51.9481 59.5917 53.0881C57.7617 54.2281 55.8517 54.4781 55.3117 53.6281C54.7817 52.7781 55.8317 51.1581 57.6617 50.0181C59.4917 48.8681 61.4017 48.6281 61.9417 49.4781Z" fill="#F1375A"/>
</g>
<g style="mix-blend-mode:multiply">
<path d="M23.0718 21.5379C24.2918 22.8879 22.9318 26.0979 20.0318 28.7279C17.1318 31.3479 13.7918 32.3879 12.5818 31.0379C11.3618 29.6879 12.7218 26.4779 15.6218 23.8479C18.5218 21.2279 21.8618 20.1879 23.0718 21.5379Z" fill="#F1375A"/>
</g>
<g style="mix-blend-mode:multiply">
<path d="M24.6416 15.1982C25.2116 15.8282 24.5716 17.3182 23.2316 18.5382C21.8816 19.7582 20.3316 20.2382 19.7716 19.6082C19.2016 18.9782 19.8416 17.4882 21.1816 16.2682C22.5316 15.0482 24.0816 14.5682 24.6416 15.1982Z" fill="#F1375A"/>
</g>
<g style="mix-blend-mode:multiply">
<path d="M36.8019 12.338C37.3719 12.968 37.2219 14.018 36.4719 14.688C35.7219 15.358 34.6619 15.408 34.0919 14.778C33.5219 14.148 33.6719 13.098 34.4219 12.428C35.1719 11.758 36.2319 11.708 36.8019 12.338Z" fill="#F1375A"/>
</g>
<g style="mix-blend-mode:multiply">
<path d="M53.2518 53.3879C53.5018 53.7779 53.0117 54.5379 52.1617 55.0679C51.3117 55.5979 50.4218 55.7079 50.1718 55.3179C49.9218 54.9279 50.4118 54.1679 51.2618 53.6379C52.1118 53.1079 53.0018 52.9979 53.2518 53.3879Z" fill="#F1375A"/>
</g>
<g style="mix-blend-mode:overlay" opacity="0.3">
<path d="M25.8816 26.2382C21.8216 31.5682 16.4516 34.3182 13.8916 32.3682C11.3316 30.4182 12.5516 24.5182 16.6216 19.1782C20.6916 13.8382 26.0516 11.0982 28.6116 13.0482C31.1716 14.9982 29.9516 20.8982 25.8816 26.2382Z" fill="white"/>
</g>
</svg>
