<svg width="912" height="492" viewBox="0 0 912 492" fill="none" xmlns="http://www.w3.org/2000/svg">
<g clip-path="url(#clip0_992_240)">
<g clip-path="url(#clip1_992_240)">
<path d="M803.706 136.195C806.511 136.199 808.789 133.863 808.793 130.976C808.798 128.089 806.528 125.746 803.723 125.741C800.918 125.736 798.64 128.073 798.636 130.959C798.631 133.846 800.901 136.19 803.706 136.195Z" fill="#170A64"/>
<path d="M812.92 80.978C811.47 80.9756 810.298 82.1778 810.295 83.6709C810.293 85.164 811.461 86.3701 812.912 86.3725C814.363 86.3749 815.535 85.1727 815.537 83.6796C815.539 82.1865 814.371 80.9804 812.92 80.978Z" fill="#170A64"/>
<path d="M838.548 96.5569C833.914 96.5492 830.139 100.421 830.132 105.19C830.124 109.959 833.886 113.844 838.52 113.851C843.155 113.859 846.929 109.987 846.936 105.218C846.944 100.449 843.182 96.5646 838.548 96.5569Z" fill="#170A64"/>
<path d="M853.798 87.622C852.206 87.6193 850.917 88.9417 850.915 90.5794C850.912 92.217 852.197 93.5437 853.788 93.5463C855.379 93.5489 856.669 92.2265 856.671 90.5889C856.674 88.9513 855.389 87.6246 853.798 87.622Z" fill="#170A64"/>
<path d="M772.795 132.265C767.966 137.219 767.953 145.264 772.767 150.234C777.58 155.204 785.397 155.217 790.226 150.263C795.056 145.309 795.068 137.264 790.255 132.294C785.441 127.324 777.624 127.311 772.795 132.265Z" fill="#170A64"/>
<path d="M702.615 492.573C714.754 481.742 722.46 465.771 722.488 447.925C722.518 428.823 713.749 411.828 700.129 400.977C715.519 396.649 726.843 382.2 726.87 364.982C726.872 363.358 726.749 361.776 726.541 360.217C737.363 356.791 745.229 346.43 745.248 334.171C745.251 331.876 744.939 329.644 744.438 327.499C759.718 326.377 771.796 313.315 771.822 297.31C771.834 289.773 769.151 282.903 764.761 277.59C774.549 275.96 782.054 267.266 782.071 256.718C782.077 253.08 781.177 249.635 779.625 246.643C783.965 243.358 786.772 238.1 786.782 232.144C786.785 229.805 786.347 227.574 785.55 225.515C790.392 224.332 793.977 219.854 793.985 214.527C793.995 208.267 789.079 203.17 782.976 203.159C776.873 203.149 772.046 208.123 771.952 214.295C771.069 214.142 770.164 214.054 769.238 214.052C763.998 214.044 759.301 216.418 756.097 220.138C753.091 217.924 749.431 216.597 745.454 216.59C735.332 216.573 727.111 225.006 727.095 235.424C727.093 236.485 727.197 237.503 727.364 238.521C722.443 236.304 716.994 235.061 711.291 235.051C690.794 235.017 673.871 250.734 671.229 271.089C660.729 270.573 650.054 274.389 642.023 282.649C629.629 295.363 627.347 314.548 635.172 329.657C630.545 328.198 625.643 327.41 620.55 327.402C592.835 327.356 570.323 350.449 570.278 378.973C570.276 380.251 570.338 381.507 570.42 382.763C569.136 382.631 567.832 382.564 566.506 382.562C554.89 382.543 544.402 387.442 536.834 395.313C526.394 383.383 511.296 375.865 494.461 375.837C469.902 375.796 448.938 391.723 440.822 414.104C437.458 412.084 433.546 410.887 429.358 410.88C421.235 410.866 414.115 415.229 410.064 421.807C399.15 416.612 387.013 413.69 374.197 413.669C339.284 413.611 309.22 435.002 295.725 465.756C292.17 464.386 288.321 463.578 284.301 463.571C277.756 463.56 271.672 465.543 266.573 468.956C264.116 465.66 260.248 463.531 255.913 463.524C248.715 463.512 242.856 469.285 242.424 476.583C227.009 469.974 210.137 466.285 192.397 466.256C166.26 466.213 141.941 474.099 121.507 487.666C116.798 484.54 111.203 482.711 105.184 482.701C96.9352 482.687 89.4802 486.075 84 491.546L702.615 492.573Z" fill="#170A64"/>
</g>
<g clip-path="url(#clip2_992_240)">
<path d="M732.932 235C716.904 260.614 707.039 295.562 717.678 302.219C728.316 308.875 755.433 284.717 771.453 259.091C787.481 233.477 786.354 216.097 775.715 209.441C765.076 202.784 748.952 209.374 732.924 234.988L732.932 235Z" fill="#F1375A"/>
<path d="M743.403 228.743C731.297 248.087 723.847 274.494 731.885 279.515C739.922 284.537 760.401 266.29 772.508 246.946C784.614 227.602 783.76 214.474 775.722 209.452C767.685 204.431 755.51 209.399 743.403 228.743Z" fill="#F5A404"/>
<path d="M752.741 223.166C744.141 236.919 738.839 255.68 744.555 259.255C750.27 262.83 764.831 249.858 773.431 236.105C782.031 222.352 781.438 213.028 775.722 209.453C770.007 205.878 761.361 209.417 752.761 223.17L752.741 223.166Z" fill="#EAF2DF"/>
<g style="mix-blend-mode:multiply" opacity="0.3">
<path d="M764.477 242.948C758.472 238.768 751.818 236.323 744.532 235.587C740.805 235.735 737.098 235.887 733.371 236.035C732.963 236.089 732.563 236.155 732.163 236.221C732.415 235.806 732.673 235.403 732.924 234.988C748.952 209.374 765.076 202.784 775.715 209.441C785.581 215.608 787.26 230.987 774.681 253.605C772.179 249.284 768.775 245.728 764.458 242.943L764.477 242.948Z" fill="#F1375A"/>
</g>
<path d="M763.787 160.125C715.972 130.216 682.721 208.925 692.949 215.311C703.165 221.705 717.359 179.128 742.192 194.648L763.799 160.118L763.787 160.125Z" fill="#93278F"/>
<g style="mix-blend-mode:multiply" opacity="0.3">
<path d="M700.927 186.706C704.997 193.132 713.108 190.395 718.366 187.236C723.94 183.901 728.925 179.686 733.657 175.269C737.487 171.698 740.544 167.557 742.715 162.768C744.056 159.793 744.658 156.651 745.28 153.514C751.131 154.037 757.333 156.09 763.787 160.125L742.18 194.655C717.347 179.135 703.146 221.7 692.937 215.319C688.832 212.747 691.755 198.461 699.836 184.26C700.051 185.09 700.409 185.914 700.915 186.713L700.927 186.706Z" fill="#93278F"/>
</g>
<g style="mix-blend-mode:multiply" opacity="0.3">
<path d="M695.648 193.954C697.315 202.262 705.549 200.019 710.718 196.769C719.091 191.506 728.123 185.936 735.293 179.11C742.579 172.181 745.398 163.26 747.355 153.759C752.598 154.54 758.079 156.562 763.787 160.125L742.18 194.655C717.347 179.135 703.146 221.7 692.937 215.319C689.676 213.273 690.854 203.858 695.519 192.973C695.561 193.307 695.583 193.635 695.643 193.973L695.648 193.954Z" fill="#93278F"/>
</g>
<path d="M825.301 198.598C873.116 228.507 816.883 292.827 806.666 286.434C796.45 280.04 828.535 248.66 803.695 233.128L825.301 198.598Z" fill="#93278F"/>
<g style="mix-blend-mode:multiply" opacity="0.3">
<path d="M840.594 214.601C839.55 214.735 838.508 215.032 837.494 215.507C832.65 217.824 830.51 222.822 829.498 227.797C827.795 236.115 829.423 244.626 827.142 252.907C826.143 256.52 823.951 259.756 823.296 263.452C822.666 266.921 824.28 271.151 827.747 271.83C819.365 282.319 810.225 288.672 806.674 286.446C796.457 280.052 828.543 248.672 803.702 233.14L825.309 198.61C832.72 203.249 837.63 208.703 840.601 214.613L840.594 214.601Z" fill="#93278F"/>
</g>
<g style="mix-blend-mode:multiply" opacity="0.3">
<path d="M837.51 209.625C829.165 209.717 820.148 216.616 816.435 223.279C812.804 229.811 815.237 236.148 816.836 242.801C818.087 248.036 818.482 254.774 817.096 260.044C816.082 263.846 813.624 267.18 812.813 271.02C811.781 275.91 813.786 280.617 818.257 281.709C813.249 285.888 808.891 287.826 806.674 286.445C796.457 280.052 828.543 248.672 803.702 233.14L825.309 198.61C830.583 201.917 834.575 205.635 837.518 209.637L837.51 209.625Z" fill="#93278F"/>
</g>
<path d="M743.024 197.841L799.577 233.222L779.44 246.546L739.844 221.792L743.024 197.841Z" fill="#666666"/>
<path d="M747.525 200.659L795.075 230.404L776.292 244.577L742.991 223.76L747.525 200.659Z" fill="#808080"/>
<path d="M752.482 203.769L790.106 227.301L772.82 242.4L746.475 225.931L752.482 203.769Z" fill="#666666"/>
<path d="M758.646 207.623L783.942 223.447L768.492 239.704L750.792 228.634L758.646 207.623Z" fill="#808080"/>
<path d="M766.401 212.476L776.195 218.606L763.067 236.31L756.217 232.028L766.401 212.476Z" fill="#666666"/>
<g style="mix-blend-mode:multiply" opacity="0.3">
<path d="M747.525 200.66L746.346 206.667L742.188 204.062L743.024 197.841L747.525 200.66Z" fill="#666666"/>
<path d="M799.577 233.222L794.357 236.683L790.206 234.09L795.075 230.404L799.577 233.222Z" fill="#666666"/>
<path d="M795.075 230.404L790.206 234.09L785.626 231.222L790.106 227.301L795.075 230.404Z" fill="#808080"/>
<path d="M752.482 203.769L750.919 209.522L746.346 206.666L747.525 200.659L752.482 203.769Z" fill="#808080"/>
<path d="M790.107 227.301L785.626 231.222L779.937 227.664L783.943 223.447L790.107 227.301Z" fill="#666666"/>
<path d="M758.646 207.624L756.608 213.081L750.919 209.523L752.482 203.769L758.646 207.624Z" fill="#666666"/>
<path d="M783.943 223.447L779.937 227.664L772.789 223.19L776.195 218.607L783.943 223.447Z" fill="#808080"/>
<path d="M766.401 212.476L763.756 217.555L756.608 213.081L758.646 207.624L766.401 212.476Z" fill="#808080"/>
<path d="M776.195 218.606L772.789 223.189L763.756 217.555L766.401 212.476L776.195 218.606Z" fill="#666666"/>
</g>
<path d="M843.75 31.2355C843.889 31.3295 844.025 31.3926 844.193 31.453C844.341 31.5088 844.502 31.5573 844.659 31.5749C844.824 31.6043 844.994 31.6146 845.156 31.613C845.318 31.6115 845.485 31.5908 845.644 31.5582C845.804 31.5257 845.96 31.4622 846.105 31.4059C846.255 31.3305 846.397 31.2433 846.52 31.1515C846.663 31.0643 846.771 30.9487 846.88 30.8332C846.989 30.7177 847.102 30.583 847.184 30.4511C847.266 30.3191 847.341 30.1753 847.402 30.0078C847.458 29.8594 847.506 29.6991 847.524 29.5415C847.553 29.3767 847.571 29.2191 847.562 29.0451C847.56 28.8829 847.54 28.7162 847.507 28.5567C847.475 28.3972 847.411 28.2404 847.355 28.0955C847.28 27.946 847.212 27.8083 847.101 27.6806C847.014 27.5383 846.898 27.4297 846.782 27.3211C846.544 27.0921 846.261 26.9231 845.957 26.7996C845.809 26.7438 845.648 26.6953 845.491 26.6777C845.326 26.6483 845.168 26.6308 844.994 26.6396C844.832 26.6412 844.673 26.6737 844.513 26.7062C844.354 26.7388 844.197 26.8023 844.04 26.8658C843.89 26.9412 843.748 27.0284 843.625 27.1202C843.483 27.2075 843.374 27.323 843.265 27.4385C843.145 27.5613 843.044 27.6887 842.961 27.8207C842.867 27.9599 842.8 28.1156 842.744 28.264C842.688 28.4124 842.639 28.5726 842.622 28.7302C842.592 28.895 842.575 29.0526 842.583 29.2266C842.585 29.3888 842.606 29.5555 842.65 29.7078C842.682 29.8672 842.739 30.0122 842.802 30.169C842.878 30.3185 842.965 30.4608 843.057 30.5839C843.144 30.7261 843.259 30.8347 843.375 30.9433C843.49 31.0519 843.625 31.1651 843.757 31.2473L843.75 31.2355Z" fill="white"/>
<path d="M905.363 69.7618C905.502 69.8558 905.657 69.9235 905.806 69.9793C905.954 70.0351 906.115 70.0837 906.272 70.1012C906.437 70.1306 906.606 70.1409 906.769 70.1394C906.931 70.1378 907.098 70.1171 907.257 70.0846C907.417 70.052 907.573 69.9885 907.718 69.9323C907.868 69.8569 908.01 69.7697 908.133 69.6778C908.276 69.5906 908.384 69.4751 908.493 69.3596C908.602 69.244 908.715 69.1094 908.797 68.9774C908.879 68.8455 908.954 68.7016 909.015 68.5341C909.071 68.3857 909.119 68.2255 909.137 68.0679C909.166 67.903 909.184 67.7455 909.175 67.5714C909.173 67.4093 909.153 67.2425 909.12 67.0831C909.088 66.9236 909.024 66.7668 908.968 66.6218C908.893 66.4723 908.805 66.3301 908.714 66.2069C908.626 66.0647 908.511 65.9561 908.395 65.8475C908.157 65.6184 907.874 65.4495 907.57 65.326C907.422 65.2702 907.261 65.2216 907.104 65.2041C906.939 65.1747 906.789 65.169 906.615 65.1778C906.452 65.1794 906.286 65.2 906.126 65.2326C905.967 65.2651 905.81 65.3286 905.665 65.3849C905.515 65.4603 905.373 65.5475 905.25 65.6393C905.107 65.7265 904.999 65.8421 904.89 65.9576C904.77 66.0804 904.668 66.2078 904.586 66.3397C904.241 66.894 904.126 67.5843 904.263 68.2341C904.295 68.3936 904.359 68.5504 904.422 68.7072C904.498 68.8567 904.566 68.9944 904.665 69.1293C904.752 69.2716 904.868 69.3802 904.983 69.4888C905.106 69.6092 905.233 69.7106 905.365 69.7928L905.363 69.7618Z" fill="white"/>
<path d="M741.606 196.965C741.606 196.965 738.603 161.277 759.182 128.371C777.689 98.7913 817.303 48.2637 840.649 31.4728C862.371 15.84 882.786 8.98446 895.536 16.956C908.294 24.9395 911.057 46.2915 906.499 72.6532C901.6 100.986 873.484 158.72 854.988 188.292C834.402 221.186 800.983 234.105 800.983 234.105L741.587 196.96L741.606 196.965Z" fill="#F2F2F2"/>
<g style="mix-blend-mode:multiply">
<path d="M895.536 16.9561C902.149 21.0898 906.076 28.8269 907.684 38.9808C897.415 34.577 885.967 36.1803 875.57 39.5527C852.604 47.01 835.699 62.8372 823.249 83.11C812.21 101.082 804.216 121.2 807.65 142.581C809.165 152.025 813.737 162.809 820.592 169.68C830.352 179.453 843.535 180.733 855.896 175.536C859.16 174.155 862.284 172.517 865.291 170.69C861.677 177.195 858.191 183.165 854.988 188.292C834.402 221.186 800.983 234.105 800.983 234.105L741.587 196.96C741.587 196.96 738.584 161.272 759.163 128.367C777.67 98.7868 817.284 48.2591 840.63 31.4683C862.352 15.8354 882.767 8.9799 895.517 16.9515L895.536 16.9561Z" fill="#F2F2F2"/>
</g>
<g style="mix-blend-mode:multiply">
<path d="M784.986 113.727C782.158 124.708 779.411 136.488 780.015 147.877C781.178 169.786 791.625 192.283 814.433 198.965C826.653 202.532 838.314 201.222 849.074 196.795C828.591 223.443 800.99 234.117 800.99 234.117L741.594 196.972C741.594 196.972 738.591 161.284 759.17 128.379C770.344 110.52 789.216 85.0218 807.557 63.9267C797.165 79.1211 789.476 96.1975 784.974 113.734L784.986 113.727Z" fill="#F2F2F2"/>
</g>
<path d="M840.649 31.4729C845.321 43.7771 854.271 55.0241 866.817 62.876C879.363 70.7279 893.399 73.8505 906.506 72.6652C911.068 46.2843 908.305 24.9323 895.536 16.9562C882.779 8.97272 862.364 15.8283 840.649 31.4729Z" fill="#93278F"/>
<g style="mix-blend-mode:multiply" opacity="0.3">
<path d="M884.915 13.6816C881.044 14.9781 877.534 17.8477 875.037 22.477C868.073 35.4396 874.37 47.0412 882.448 57.5835C886.922 63.4192 893.828 67.047 901.274 65.1412C903.851 64.4748 906.145 63.1338 908.019 61.3485C907.672 64.9865 907.168 68.7691 906.487 72.6607C893.38 73.846 879.344 70.7234 866.798 62.8715C854.252 55.0196 845.301 43.7726 840.63 31.4684C857.05 19.6406 872.714 12.8595 884.896 13.677L884.915 13.6816Z" fill="#93278F"/>
</g>
<g style="mix-blend-mode:multiply" opacity="0.3">
<path d="M864.258 17.8799C864.138 18.0027 864.029 18.1182 863.909 18.241C855.95 27.2136 856.888 37.9248 862.014 48.0424C866.211 56.2992 872.425 64.7058 880.613 69.4397C875.892 67.8324 871.258 65.6496 866.791 62.8593C854.245 55.0074 845.294 43.7605 840.622 31.4563C848.791 25.5678 856.769 20.9381 864.232 17.8635L864.258 17.8799Z" fill="#93278F"/>
</g>
<path d="M871.723 59.7548C872.458 58.5862 872.1 57.0442 870.932 56.309C869.763 55.5738 868.221 55.9321 867.485 57.1006C866.75 58.2692 867.108 59.8112 868.276 60.5464C869.445 61.2816 870.987 60.9233 871.723 59.7548Z" fill="white"/>
<path d="M877.896 65.593C879.172 66.1316 880.638 65.5427 881.185 64.2782C881.723 63.0018 881.135 61.536 879.87 60.9901C878.606 60.4442 877.128 61.0404 876.582 62.3049C876.094 63.452 876.526 64.7691 877.555 65.4102C877.661 65.476 877.778 65.5345 877.896 65.593Z" fill="white"/>
<path d="M863.059 53.8447C863.967 52.7985 863.85 51.2231 862.804 50.315C861.758 49.4069 860.182 49.5246 859.274 50.5708C858.365 51.6171 858.483 53.1924 859.529 54.1005C859.63 54.1854 859.731 54.2703 859.848 54.3287C860.877 54.9699 862.247 54.7826 863.059 53.8447Z" fill="white"/>
<path d="M888.403 69.2145C889.738 69.5546 891.108 68.7305 891.43 67.3918C891.763 66.0459 890.954 64.6991 889.619 64.3589C888.273 64.0261 886.914 64.8429 886.593 66.1816C886.324 67.2598 886.8 68.3547 887.69 68.9018C887.908 69.0452 888.148 69.143 888.415 69.2072L888.403 69.2145Z" fill="white"/>
<path d="M855.193 46.5487C856.246 45.6585 856.391 44.0854 855.493 43.0209C854.603 41.9681 853.03 41.8235 851.965 42.721C850.912 43.6112 850.767 45.1843 851.657 46.237C851.831 46.4404 852.021 46.6174 852.251 46.7535C853.149 47.3125 854.336 47.2534 855.193 46.5487Z" fill="white"/>
<path d="M900.314 70.5737C901.691 70.6916 902.888 69.664 903.006 68.2868C903.125 66.9095 902.09 65.7008 900.72 65.5948C899.343 65.4769 898.133 66.5117 898.027 67.8816C897.948 68.8435 898.424 69.7262 899.189 70.2029C899.525 70.4048 899.898 70.5347 900.314 70.5737Z" fill="white"/>
<path d="M848.656 37.0027C849.844 36.3068 850.235 34.7624 849.539 33.5742C848.824 32.3815 847.299 31.9955 846.111 32.6915C844.922 33.3874 844.524 34.92 845.227 36.12C845.445 36.4756 845.72 36.7639 846.055 36.9658C846.821 37.4426 847.83 37.4924 848.656 37.0027Z" fill="white"/>
<g filter="url(#filter0_d_992_240)">
<path d="M818.27 86.1344C827.196 72.9487 845.121 69.4922 858.306 78.4143C871.491 87.3363 874.944 105.258 866.019 118.444C857.093 131.63 839.168 135.086 825.983 126.164C812.798 117.242 809.345 99.3202 818.27 86.1344Z" fill="#93278F"/>
</g>
<g style="mix-blend-mode:multiply" opacity="0.3">
<path d="M826.396 78.1309C825.399 79.166 824.481 80.2505 823.617 81.3678C819.156 87.1848 817.5 96.1919 818.75 103.287C819.98 110.296 824.636 118.37 830.8 122.224C837.65 126.506 844.763 128.131 852.72 127.086C855.331 126.741 857.809 125.94 860.126 124.796C856.861 127.401 852.966 129.349 848.62 130.35C833.097 133.929 817.633 124.245 814.057 108.725C811.262 96.6074 816.56 84.5196 826.393 78.0999L826.396 78.1309Z" fill="#93278F"/>
</g>
<path d="M830.406 126.771C831.52 127.311 832.87 126.826 833.411 125.712C833.944 124.586 833.474 123.26 832.352 122.708C831.226 122.175 829.88 122.641 829.347 123.767C828.844 124.809 829.226 126.043 830.183 126.647C830.255 126.684 830.334 126.734 830.406 126.771ZM824.106 119.608C825.081 118.831 825.228 117.42 824.451 116.445C823.681 115.481 822.262 115.323 821.287 116.101C820.312 116.878 820.165 118.289 820.942 119.264C821.116 119.467 821.299 119.633 821.51 119.764C822.302 120.257 823.341 120.223 824.113 119.62L824.106 119.608ZM842.193 129.446C843.428 129.438 844.439 128.427 844.444 127.184C844.438 125.949 843.438 124.931 842.191 124.945C840.948 124.94 839.937 125.952 839.951 127.199C839.951 127.998 840.368 128.705 841.009 129.111C841.352 129.325 841.768 129.445 842.212 129.45L842.193 129.446ZM818.387 110.066C819.598 109.78 820.362 108.578 820.076 107.367C820.076 107.367 820.055 107.331 820.059 107.312C819.773 106.101 818.571 105.337 817.372 105.616C816.153 105.89 815.408 107.097 815.675 108.303C815.675 108.303 815.69 108.327 815.697 108.339C815.697 108.339 815.711 108.363 815.719 108.375C815.858 108.974 816.232 109.479 816.715 109.786C817.197 110.094 817.806 110.21 818.406 110.071L818.387 110.066ZM853.976 126.74C855.097 126.199 855.561 124.854 855.021 123.734C854.481 122.613 853.136 122.149 852.016 122.69C850.895 123.23 850.431 124.575 850.963 125.683C851.16 126.085 851.45 126.397 851.793 126.61C852.426 127.005 853.238 127.078 853.969 126.728L853.976 126.74ZM817.38 98.9238C818.59 99.1935 819.792 98.4402 820.081 97.2354C820.351 96.026 819.598 94.8241 818.393 94.5352C817.184 94.2655 815.981 95.0188 815.692 96.2236C815.482 97.1844 815.908 98.1462 816.7 98.6394C816.904 98.759 817.132 98.8642 817.392 98.9165L817.38 98.9238ZM863.413 119.193C864.183 118.215 864.025 116.812 863.058 116.034C862.08 115.264 860.665 115.43 859.887 116.396C859.109 117.363 859.275 118.778 860.253 119.548C860.32 119.605 860.381 119.649 860.46 119.699C861.417 120.302 862.691 120.092 863.413 119.193ZM824.458 88.1424C825.236 87.1761 825.07 85.7611 824.104 84.9834C823.126 84.2129 821.722 84.3719 820.944 85.3382C820.174 86.3163 820.332 87.7195 821.299 88.4972C821.366 88.5538 821.445 88.6031 821.505 88.6478C822.455 89.2397 823.737 89.0413 824.458 88.1424ZM865.957 109.984C867.173 110.266 868.368 109.501 868.657 108.296C868.928 107.087 868.174 105.885 866.958 105.603C865.741 105.321 864.546 106.087 864.264 107.303C864.035 108.259 864.473 109.214 865.265 109.707C865.476 109.839 865.696 109.932 865.957 109.984ZM832.329 81.849C833.45 81.3087 833.934 79.9685 833.394 78.848C832.854 77.7275 831.509 77.2635 830.381 77.7919C829.26 78.3321 828.776 79.6724 829.317 80.7929C829.514 81.194 829.803 81.506 830.153 81.7316C830.786 82.1262 831.598 82.1994 832.329 81.849ZM866.947 98.9063C868.166 98.6322 868.91 97.4254 868.637 96.2069C868.363 94.9885 867.156 94.2441 865.937 94.5182C864.719 94.7922 863.974 95.9991 864.248 97.2175C864.387 97.8172 864.761 98.3215 865.244 98.6293C865.726 98.9371 866.335 99.0529 866.935 98.9135L866.947 98.9063ZM842.169 79.6172C843.412 79.6219 844.423 78.6105 844.421 77.356C844.426 76.1134 843.414 75.1024 842.167 75.1168C840.932 75.124 839.913 76.1235 839.927 77.3707C839.927 78.1697 840.352 78.8882 840.985 79.2828C841.328 79.4965 841.732 79.6238 842.176 79.6291L842.169 79.6172ZM863.044 88.4954C864.02 87.7181 864.178 86.2999 863.401 85.3248C862.631 84.3616 861.205 84.1917 860.237 84.9809C859.262 85.7582 859.104 87.1764 859.885 88.1324C860.047 88.3431 860.242 88.501 860.441 88.6398C861.233 89.133 862.273 89.0991 863.044 88.4954ZM851.996 81.8621C853.11 82.4023 854.455 81.9362 854.996 80.822C855.548 79.7005 855.071 78.3624 853.949 77.8103C852.823 77.2774 851.477 77.7435 850.944 78.8696C850.441 79.9119 850.811 81.1533 851.768 81.757C851.84 81.7944 851.912 81.8319 851.991 81.8812L851.996 81.8621Z" fill="white"/>
<path d="M821.821 106.966C824.415 118.196 835.608 125.197 846.827 122.609C858.058 120.013 865.063 108.82 862.477 97.6019C859.883 86.3724 848.69 79.3708 837.471 81.9593C826.251 84.5478 819.234 95.7483 821.821 106.966Z" fill="#662D91"/>
<path d="M826.938 114.088C833.457 122.487 845.55 124.012 853.951 117.491C862.352 110.971 863.879 98.8789 857.36 90.4799C850.841 82.081 838.748 80.5567 830.347 87.0771C821.945 93.5974 820.418 105.689 826.938 114.088Z" fill="#29DFE2"/>
<g style="mix-blend-mode:multiply">
<path d="M826.844 91.9811C825.788 97.8964 827.118 105.627 830.877 110.483C835.057 115.863 840.209 119.212 846.819 120.706C847.01 120.752 847.187 120.774 847.378 120.82C840.058 122.877 831.897 120.475 826.945 114.1C821.324 106.847 821.697 96.865 827.291 90.076C827.116 90.7216 826.959 91.3718 826.839 92.0002L826.844 91.9811Z" fill="#29DFE2"/>
</g>
<g style="mix-blend-mode:overlay" opacity="0.5">
<path d="M847.819 83.8847C850.398 84.6851 852.829 86.0163 854.931 87.8754L850.956 119.393C848.464 120.676 845.77 121.365 843.079 121.498L847.819 83.8847Z" fill="white"/>
</g>
<g style="mix-blend-mode:overlay" opacity="0.5">
<path d="M842.266 83.0485C843.315 83.0574 844.366 83.1475 845.405 83.3259L840.598 121.469C839.548 121.379 838.516 121.213 837.495 120.958L842.277 83.0412L842.266 83.0485Z" fill="white"/>
</g>
<path d="M765.73 205.792C752.604 226.773 737.271 260.067 742.141 263.115C747.012 266.164 770.251 237.81 783.377 216.829C796.503 195.849 794.546 190.182 789.675 187.133C784.805 184.085 778.856 184.812 765.73 205.792Z" fill="#93278F"/>
<g style="mix-blend-mode:multiply" opacity="0.3">
<path d="M789.675 187.134C790.184 187.458 790.664 187.816 791.097 188.203C783.619 189.443 777.195 196.367 773.151 202.385C769.374 208.011 766.544 214.28 763.853 220.481C762.286 224.099 760.199 228.625 762.084 232.525C764.106 236.701 766.887 237.458 770.011 236.114C758.253 251.689 745.582 265.296 742.137 263.135C737.266 260.086 752.599 226.792 765.725 205.812C778.851 184.831 784.8 184.104 789.671 187.153L789.675 187.134Z" fill="#93278F"/>
</g>
<g style="mix-blend-mode:multiply" opacity="0.3">
<path d="M779.216 188.62C778.364 189.892 777.49 191.26 776.574 192.718C763.448 213.699 748.115 246.993 752.985 250.041C755.176 251.406 761.035 246.46 768.032 238.713C756.869 253.157 745.402 265.161 742.141 263.115C737.271 260.067 752.604 226.773 765.73 205.792C771.402 196.737 775.727 191.444 779.216 188.62Z" fill="#93278F"/>
</g>
<g style="mix-blend-mode:overlay" opacity="0.5">
<path d="M893.348 45.1599C893.923 52.0325 897.019 57.3759 900.268 57.1133C903.528 56.8433 905.706 51.0556 905.131 44.1829C904.556 37.3103 901.46 31.9669 898.211 32.2295C894.962 32.4922 892.773 38.2872 893.348 45.1599Z" fill="white"/>
</g>
<g style="mix-blend-mode:overlay" opacity="0.5">
<path d="M881.353 100.318C879.043 106.822 879.681 112.971 882.746 114.06C885.831 115.154 890.191 110.769 892.507 104.276C894.817 97.7718 894.179 91.6224 891.114 90.5335C888.029 89.4399 883.669 93.8249 881.353 100.318Z" fill="white"/>
</g>
<g style="mix-blend-mode:overlay" opacity="0.5">
<path d="M889.573 80.143C888.69 82.6414 889.994 85.381 892.493 86.2632C894.991 87.1454 897.731 85.8407 898.614 83.3423C899.497 80.8439 898.193 78.1042 895.694 77.222C893.196 76.3398 890.455 77.6446 889.573 80.143Z" fill="white"/>
</g>
</g>
</g>
<defs>
<filter id="filter0_d_992_240" x="813.312" y="73.4595" width="58.6656" height="60.6597" filterUnits="userSpaceOnUse" color-interpolation-filters="sRGB">
<feFlood flood-opacity="0" result="BackgroundImageFix"/>
<feColorMatrix in="SourceAlpha" type="matrix" values="0 0 0 0 0 0 0 0 0 0 0 0 0 0 0 0 0 0 127 0" result="hardAlpha"/>
<feOffset dx="1" dy="3"/>
<feColorMatrix type="matrix" values="0 0 0 0 0 0 0 0 0 0 0 0 0 0 0 0 0 0 0.8 0"/>
<feBlend mode="normal" in2="BackgroundImageFix" result="effect1_dropShadow_992_240"/>
<feBlend mode="normal" in="SourceGraphic" in2="effect1_dropShadow_992_240" result="shape"/>
</filter>
<clipPath id="clip0_992_240">
<rect width="912" height="492" fill="white"/>
</clipPath>
<clipPath id="clip1_992_240">
<rect width="856.041" height="410.95" fill="white" transform="matrix(0.999999 0.00165983 -0.00157497 0.999999 0.647217 79.6299)"/>
</clipPath>
<clipPath id="clip2_992_240">
<rect width="204.25" height="303.729" fill="white" transform="matrix(-0.522647 -0.852549 -0.852549 0.522647 994.535 174.133)"/>
</clipPath>
</defs>
</svg>
