<svg width="1598" height="333" viewBox="0 0 1598 333" fill="none" xmlns="http://www.w3.org/2000/svg">
<g clip-path="url(#clip0_839_521)">
<path d="M959.146 210.532C962.533 210.532 965.856 210.751 969.148 211.107C968.956 209.493 968.86 207.879 968.86 206.21C968.86 177.979 995.605 155.082 1028.55 155.082C1052.71 155.082 1073.51 167.364 1082.9 185.036C1092.3 180.659 1103.1 178.17 1114.57 178.17C1129.84 178.17 1143.9 182.602 1155.12 190.015C1165.98 171.331 1188.54 158.474 1214.59 158.474C1217.91 158.474 1221.17 158.693 1224.36 159.103C1218.2 151.06 1214.59 141.431 1214.59 131.09C1214.59 102.859 1241.33 79.9892 1274.31 79.9892C1274.95 79.9892 1275.62 79.9893 1276.26 80.0166C1275.81 77.5272 1275.59 74.9831 1275.59 72.3843C1275.59 44.1528 1302.33 21.2832 1335.31 21.2832C1363.81 21.2832 1387.65 38.3807 1393.56 61.2777C1403.85 54.0557 1417.01 49.7335 1431.36 49.7335C1450.88 49.7335 1468.2 57.7488 1479.1 70.1684C1482.87 45.0282 1507.92 25.6055 1538.28 25.6055C1571.25 25.6055 1598 48.4751 1598 76.7065V336.042H987.937C979.053 339.16 883 311.695 883 275.694C883 239.694 917.095 210.505 959.146 210.505V210.532Z" fill="white"/>
<path d="M638.822 210.532C635.435 210.532 632.112 210.751 628.82 211.107C629.012 209.493 629.108 207.879 629.108 206.21C629.108 177.979 602.363 155.082 569.418 155.082C545.261 155.082 524.459 167.364 515.065 185.036C505.638 180.659 494.87 178.17 483.398 178.17C468.124 178.17 454.065 182.602 442.849 190.015C431.985 171.331 409.425 158.474 383.383 158.474C380.059 158.474 376.8 158.693 373.605 159.103C379.772 151.06 383.383 141.431 383.383 131.09C383.383 102.859 356.637 79.9892 323.693 79.9892C323.022 79.9892 322.383 79.9893 321.744 80.0166C322.191 77.5272 322.415 74.9831 322.415 72.3843C322.415 44.1528 295.669 21.2832 262.693 21.2832C234.19 21.2832 210.352 38.3807 204.441 61.2777C194.152 54.0557 180.987 49.7335 166.671 49.7335C147.148 49.7335 129.797 57.7488 118.932 70.1684C115.162 45.0282 90.1099 25.6055 59.7218 25.6055C26.7454 25.6055 0 48.5025 0 76.7339V336.042H610.063C618.947 339.16 715 311.695 715 275.694C715 239.694 680.905 210.505 638.854 210.505L638.822 210.532Z" fill="white"/>
<path d="M1264.39 222.842C1261.1 223.637 1257.92 224.629 1254.81 225.748C1254.61 224.134 1254.33 222.542 1253.94 220.92C1247.31 193.477 1215.94 177.497 1183.92 185.229C1160.43 190.898 1143.09 207.72 1138.11 227.103C1127.92 225.061 1116.87 225.168 1105.72 227.861C1090.87 231.445 1078.24 239.053 1069.08 248.892C1054.13 233.279 1029.19 226.076 1003.87 232.188C1000.64 232.968 997.525 233.945 994.515 235.094C998.622 225.829 999.872 215.621 997.446 205.569C990.82 178.126 959.454 162.172 927.43 169.904C926.777 170.062 926.156 170.212 925.541 170.388C925.392 167.863 925.012 165.338 924.402 162.812C917.777 135.369 886.411 119.415 854.355 127.154C826.649 133.844 807.49 156.058 807.117 179.703C795.42 175.098 781.609 173.986 767.693 177.346C748.715 181.928 733.73 193.792 726.083 208.414C716.518 184.861 687.607 171.86 658.068 178.992C626.013 186.732 605.388 215.266 612.014 242.709L672.872 494.774L1265.9 351.595C1275.26 352.542 1362.19 303.3 1353.74 268.305C1345.29 233.31 1305.3 212.938 1264.42 222.808L1264.39 222.842Z" fill="white"/>
<path d="M70.8553 111.414C87.4106 111.414 102.624 116.306 114.672 124.45C128.863 102.287 156.284 87.2832 187.797 87.2832C233.851 87.2832 271.149 119.34 271.149 158.912C271.149 167.11 269.519 174.954 266.578 182.278C277.732 175.965 291.092 172.276 305.474 172.276C344.625 172.276 376.329 199.522 376.329 233.137C376.329 234.722 376.233 236.252 376.105 237.81C384.479 234.804 393.683 233.137 403.335 233.137C424.876 233.137 444.18 241.417 457.156 254.453C462.142 220.647 495.7 194.521 536.417 194.521C573.139 194.521 604.044 215.81 613.408 244.779C625.106 237.482 639.488 233.164 655.052 233.164C694.203 233.164 725.907 260.411 725.907 294.025C725.907 296.84 725.652 299.627 725.236 302.333L798.904 284.569H799.096L872.764 302.333C872.316 299.6 872.092 296.84 872.092 294.025C872.092 260.411 903.829 233.164 942.948 233.164C958.512 233.164 972.894 237.482 984.592 244.779C993.956 215.81 1024.86 194.521 1061.58 194.521C1102.27 194.521 1135.86 220.647 1140.84 254.453C1153.85 241.417 1173.12 233.137 1194.7 233.137C1204.35 233.137 1213.55 234.804 1221.93 237.81C1221.8 236.279 1221.7 234.722 1221.7 233.137C1221.7 199.522 1253.44 172.276 1292.56 172.276C1306.91 172.276 1320.27 175.965 1331.45 182.278C1328.51 174.954 1326.88 167.083 1326.88 158.912C1326.88 119.367 1364.21 87.2832 1410.27 87.2832C1441.78 87.2832 1469.2 102.314 1483.36 124.45C1495.41 116.279 1510.62 111.414 1527.18 111.414C1566.26 111.414 1598 138.661 1598 172.276V442.283H0V172.276C0 138.661 31.7363 111.414 70.8553 111.414Z" fill="#1D0E78"/>
</g>
<defs>
<clipPath id="clip0_839_521">
<rect width="1598" height="333" fill="white"/>
</clipPath>
</defs>
</svg>
