<svg width="705" height="142" viewBox="0 0 705 142" fill="none" xmlns="http://www.w3.org/2000/svg">
<g clip-path="url(#clip0_1777_66)">
<path d="M423.153 91.9917C424.647 91.9917 426.113 92.088 427.565 92.2443C427.481 91.5347 427.438 90.8252 427.438 90.0916C427.438 77.6802 439.238 67.614 453.772 67.614C464.43 67.614 473.607 73.0139 477.752 80.7831C481.896 78.8588 486.661 77.7644 491.722 77.7644C498.46 77.7644 504.663 79.7127 509.611 82.9719C514.404 74.7578 524.357 69.1053 535.846 69.1053C537.313 69.1053 538.751 69.2015 540.16 69.3819C537.439 65.8462 535.846 61.6128 535.846 57.0668C535.846 44.6555 547.646 34.6013 562.194 34.6013C562.476 34.6013 562.772 34.6013 563.054 34.6134C562.857 33.5189 562.758 32.4005 562.758 31.258C562.758 18.8466 574.558 8.79248 589.106 8.79248C601.681 8.79248 612.197 16.309 614.805 26.3752C619.345 23.2002 625.153 21.3 631.483 21.3C640.096 21.3 647.737 24.8238 652.544 30.2838C654.207 19.2315 665.26 10.6927 678.652 10.6927C693.201 10.6927 705 20.7468 705 33.1582V147.169H435.854C431.935 148.54 389.559 136.466 389.559 120.639C389.559 104.812 404.601 91.9797 423.153 91.9797V91.9917Z" fill="white"/>
<g clip-path="url(#clip1_1777_66)">
<path d="M432.237 40.8896C433.084 40.9322 433.805 40.2807 433.848 39.4346C433.891 38.5884 433.239 37.868 432.392 37.8254C431.545 37.7828 430.823 38.4342 430.781 39.2804C430.738 40.1265 431.39 40.847 432.237 40.8896Z" fill="white"/>
<path d="M435.812 24.8386C435.374 24.8166 435.003 25.1518 434.981 25.5894C434.959 26.0271 435.294 26.3978 435.732 26.4198C436.17 26.4419 436.542 26.1067 436.564 25.669C436.586 25.2313 436.251 24.8606 435.812 24.8386Z" fill="white"/>
<path d="M443.328 29.7818C441.929 29.7115 440.733 30.791 440.662 32.189C440.592 33.5869 441.672 34.7808 443.071 34.8512C444.471 34.9215 445.666 33.842 445.737 32.4441C445.808 31.0461 444.727 29.8522 443.328 29.7818Z" fill="white"/>
<path d="M448.062 27.3867C447.581 27.3626 447.173 27.7313 447.148 28.2113C447.124 28.6913 447.493 29.0991 447.974 29.1232C448.454 29.1474 448.862 28.7787 448.887 28.2987C448.911 27.8187 448.542 27.4109 448.062 27.3867Z" fill="white"/>
<path d="M422.958 39.2834C421.429 40.6647 421.309 43.0228 422.691 44.5504C424.074 46.078 426.434 46.1967 427.964 44.8155C429.493 43.4342 429.613 41.0761 428.23 39.5485C426.848 38.0208 424.488 37.9022 422.958 39.2834Z" fill="white"/>
<path d="M392.201 143.409C396.45 140.077 399.294 134.996 399.588 129.178C399.904 122.951 397.23 117.267 392.829 113.507C398.067 112.347 402.101 107.822 402.385 102.209C402.412 101.679 402.395 101.162 402.351 100.65C406.04 99.7097 408.847 96.4604 409.05 92.4642C409.088 91.7158 409.018 90.9833 408.884 90.2758C414.034 90.1595 418.3 86.0986 418.564 80.881C418.688 78.424 417.897 76.1404 416.507 74.3364C419.821 73.965 422.48 71.2532 422.655 67.8149C422.715 66.6287 422.468 65.4908 421.994 64.4902C423.504 63.4902 424.531 61.8218 424.629 59.8802C424.668 59.1177 424.556 58.383 424.322 57.6988C425.967 57.3922 427.242 55.9911 427.33 54.2543C427.433 52.2138 425.864 50.4715 423.814 50.3685C421.765 50.2655 420.064 51.808 419.934 53.8187C419.639 53.7544 419.337 53.7109 419.026 53.6952C417.266 53.6068 415.651 54.3042 414.515 55.4646C413.541 54.6936 412.333 54.2011 410.997 54.134C407.598 53.9631 404.702 56.578 404.53 59.9741C404.513 60.32 404.531 60.6536 404.571 60.9883C402.954 60.185 401.144 59.6906 399.228 59.5943C392.345 59.2482 386.41 64.0958 385.197 70.6885C381.679 70.3488 378.032 71.4183 375.203 73.98C370.837 77.9226 369.764 84.1401 372.151 89.1936C370.621 88.6424 368.987 88.3055 367.276 88.2195C357.969 87.7516 350.039 94.9126 349.568 104.211C349.547 104.628 349.547 105.038 349.555 105.449C349.126 105.385 348.689 105.342 348.244 105.319C344.342 105.123 340.742 106.549 338.074 108.992C334.758 104.932 329.808 102.234 324.154 101.95C315.906 101.535 308.61 106.385 305.527 113.549C304.429 112.835 303.135 112.381 301.728 112.31C299 112.173 296.539 113.479 295.074 115.557C291.491 113.686 287.461 112.534 283.157 112.318C271.432 111.729 260.993 118.211 255.969 128.017C254.797 127.512 253.517 127.186 252.167 127.118C249.969 127.008 247.894 127.555 246.127 128.584C245.354 127.469 244.089 126.712 242.633 126.639C240.216 126.517 238.156 128.304 237.894 130.676C232.822 128.269 227.215 126.791 221.257 126.492C212.479 126.05 204.185 128.224 197.105 132.313C195.574 131.217 193.724 130.529 191.702 130.428C188.932 130.289 186.374 131.271 184.446 132.965L392.201 143.409Z" fill="white"/>
</g>
<path d="M281.833 91.9917C280.339 91.9917 278.873 92.088 277.421 92.2443C277.505 91.5347 277.548 90.8252 277.548 90.0916C277.548 77.6802 265.748 67.614 251.214 67.614C240.556 67.614 231.379 73.0139 227.234 80.7831C223.076 78.8588 218.325 77.7644 213.264 77.7644C206.525 77.7644 200.323 79.7127 195.374 82.9719C190.581 74.7578 180.629 69.1053 169.139 69.1053C167.673 69.1053 166.235 69.2015 164.826 69.3819C167.546 65.8462 169.139 61.6128 169.139 57.0668C169.139 44.6555 157.34 34.6013 142.806 34.6013C142.51 34.6013 142.228 34.6013 141.946 34.6134C142.143 33.5189 142.242 32.4005 142.242 31.258C142.242 18.8466 130.442 8.79248 115.894 8.79248C103.319 8.79248 92.8025 16.309 90.1945 26.3752C85.6551 23.2002 79.8471 21.3 73.5315 21.3C64.918 21.3 57.2632 24.8238 52.4701 30.2838C50.8066 19.2315 39.7544 10.6927 26.3478 10.6927C11.7994 10.6927 -3.72927e-05 20.7588 -3.72927e-05 33.1702V147.169H269.146C273.065 148.54 315.441 136.466 315.441 120.639C315.441 104.812 300.399 91.9797 281.847 91.9797L281.833 91.9917Z" fill="white"/>
<path d="M31.2597 48.4169C38.5635 48.4169 45.2751 50.5675 50.5908 54.1478C56.8512 44.4041 68.949 37.8081 82.8516 37.8081C103.17 37.8081 119.624 51.9011 119.624 69.2981C119.624 72.9024 118.905 76.3506 117.608 79.5704C122.529 76.7951 128.423 75.1731 134.768 75.1731C152.04 75.1731 166.028 87.1516 166.028 101.929C166.028 102.626 165.985 103.299 165.929 103.984C169.623 102.662 173.684 101.929 177.942 101.929C187.445 101.929 195.962 105.57 201.686 111.301C203.886 96.4388 218.691 84.9529 236.654 84.9529C252.855 84.9529 266.49 94.3122 270.621 107.048C275.782 103.84 282.127 101.941 288.994 101.941C306.266 101.941 320.253 113.92 320.253 128.698C320.253 129.935 320.141 131.161 319.957 132.35L352.458 124.541H352.542L385.043 132.35C384.845 131.149 384.747 129.935 384.747 128.698C384.747 113.92 398.748 101.941 416.006 101.941C422.873 101.941 429.218 103.84 434.379 107.048C438.51 94.3122 452.145 84.9529 468.346 84.9529C486.295 84.9529 501.114 96.4388 503.314 111.301C509.052 105.57 517.555 101.929 527.072 101.929C531.33 101.929 535.391 102.662 539.085 103.984C539.029 103.311 538.987 102.626 538.987 101.929C538.987 87.1516 552.988 75.1731 570.246 75.1731C576.577 75.1731 582.471 76.7951 587.406 79.5704C586.109 76.3506 585.39 72.8904 585.39 69.2981C585.39 51.9131 601.859 37.8081 622.177 37.8081C636.079 37.8081 648.177 44.4161 654.423 54.1478C659.739 50.5555 666.451 48.4169 673.754 48.4169C690.999 48.4169 705 60.3953 705 75.1731V193.876H1.66893e-05V75.1731C1.66893e-05 60.3953 14.0013 48.4169 31.2597 48.4169Z" fill="#1D0E78"/>
</g>
<defs>
<clipPath id="clip0_1777_66">
<rect width="705" height="142" fill="white" transform="matrix(-1 0 0 1 705 0)"/>
</clipPath>
<clipPath id="clip1_1777_66">
<rect width="258.825" height="120.611" fill="white" transform="matrix(0.998739 0.0502076 -0.0505609 0.998721 190.53 12.5081)"/>
</clipPath>
</defs>
</svg>
