<svg width="190" height="197" viewBox="0 0 190 197" fill="none" xmlns="http://www.w3.org/2000/svg">
<g clip-path="url(#clip0_659_182)">
<g clip-path="url(#clip1_659_182)">
<g clip-path="url(#clip2_659_182)">
<path d="M99.691 71.5577C101.611 71.6545 103.246 70.1728 103.343 68.2481C103.44 66.3234 101.963 64.6846 100.043 64.5877C98.1228 64.4909 96.4877 65.9726 96.3906 67.8973C96.2935 69.822 97.7712 71.4608 99.691 71.5577Z" fill="#E8F3FF"/>
<path d="M78.6599 67.9044C75.193 71.0463 74.9224 76.4103 78.0555 79.885C81.1886 83.3598 86.5391 83.6298 90.0061 80.4879C93.473 77.3461 93.7436 71.9821 90.6105 68.5073C87.4773 65.0325 82.1268 64.7626 78.6599 67.9044Z" fill="#E8F3FF"/>
<path d="M8.94249 304.754C18.5756 297.174 25.0207 285.617 25.6883 272.383C26.4029 258.219 20.3419 245.29 10.3663 236.736C22.2394 234.099 31.3831 223.805 32.0272 211.038C32.088 209.833 32.051 208.656 31.9491 207.492C40.312 205.353 46.6754 197.962 47.1339 188.872C47.2198 187.17 47.063 185.504 46.7587 183.894C58.4318 183.63 68.1004 174.393 68.6991 162.525C68.981 156.936 67.1874 151.742 64.0378 147.638C71.5484 146.793 77.5771 140.625 77.9716 132.804C78.1077 130.106 77.5477 127.518 76.4741 125.241C79.8973 122.967 82.2247 119.172 82.4475 114.755C82.535 113.021 82.2821 111.35 81.7503 109.793C85.4793 109.096 88.3704 105.909 88.5697 101.958C88.8038 97.317 85.2457 93.3538 80.6 93.1195C75.9543 92.8851 72.0995 96.3938 71.8045 100.968C71.1374 100.821 70.4518 100.722 69.7469 100.687C65.758 100.485 62.0966 102.072 59.5223 104.711C57.3141 102.958 54.5761 101.837 51.5484 101.685C43.8431 101.296 37.2795 107.244 36.8898 114.969C36.8501 115.756 36.8921 116.515 36.9821 117.276C33.3162 115.449 29.2134 114.324 24.8721 114.105C9.26904 113.318 -4.18366 124.344 -6.93166 139.34C-14.9068 138.568 -23.1721 141 -29.585 146.827C-39.4809 155.795 -41.9128 169.938 -36.5022 181.433C-39.9722 180.179 -43.6756 179.413 -47.5523 179.217C-68.6501 178.153 -86.6242 194.442 -87.6912 215.592C-87.739 216.54 -87.7379 217.474 -87.7208 218.408C-88.6932 218.263 -89.684 218.165 -90.6932 218.114C-99.536 217.668 -107.698 220.911 -113.744 226.466C-121.26 217.232 -132.481 211.095 -145.297 210.448C-163.992 209.505 -180.528 220.537 -187.517 236.833C-190.005 235.21 -192.94 234.176 -196.128 234.015C-202.312 233.703 -207.89 236.674 -211.212 241.401C-219.333 237.144 -228.467 234.525 -238.223 234.033C-264.8 232.692 -288.462 247.438 -299.849 269.743C-302.506 268.595 -305.407 267.852 -308.467 267.698C-313.449 267.447 -318.153 268.691 -322.158 271.033C-323.909 268.497 -326.777 266.774 -330.077 266.608C-335.556 266.331 -340.226 270.395 -340.819 275.791C-352.315 270.316 -365.026 266.954 -378.53 266.273C-398.427 265.269 -417.226 270.213 -433.273 279.515C-436.745 277.021 -440.938 275.457 -445.52 275.226C-451.799 274.91 -457.598 277.145 -461.968 280.998L8.94249 304.754Z" fill="#E8F3FF"/>
</g>
</g>
<g clip-path="url(#clip3_659_182)">
<path d="M78.6878 88.3283C70.6057 98.004 64.54 111.889 68.5589 115.245C72.5778 118.602 85.1604 110.159 93.2403 100.478C101.322 90.8019 101.845 83.5537 97.8262 80.1972C93.8073 76.8406 86.7676 78.6474 78.6855 88.323L78.6878 88.3283Z" fill="#F1375A"/>
<path d="M83.3725 86.3379C77.2681 93.6451 72.6863 104.136 75.7231 106.669C78.7598 109.202 88.2628 102.825 94.3672 95.5175C100.472 88.2103 100.866 82.7353 97.8288 80.2024C94.7921 77.6696 89.477 79.0307 83.3725 86.3379Z" fill="#F5A404"/>
<path d="M87.5495 84.5636C83.2122 89.7594 79.9535 97.2126 82.1125 99.0153C84.2716 100.818 91.0282 96.2847 95.3654 91.0889C99.7027 85.8932 99.9877 82.0053 97.8287 80.2026C95.6696 78.3998 91.8943 79.3709 87.5571 84.5666L87.5495 84.5636Z" fill="#EAF2DF"/>
<g style="mix-blend-mode:multiply" opacity="0.3">
<path d="M91.2751 93.408C89.0308 91.3385 86.4195 89.9495 83.4494 89.2308C81.9006 89.08 80.3594 88.9322 78.8106 88.7814C78.6391 88.7805 78.47 88.785 78.3009 88.7894C78.4284 88.6322 78.5582 88.4803 78.6857 88.323C86.7678 78.6473 93.8075 76.8406 97.8263 80.1971C101.554 83.3078 101.373 89.76 94.8867 98.3938C94.0982 96.4652 92.8936 94.8015 91.2674 93.405L91.2751 93.408Z" fill="#F1375A"/>
</g>
<path d="M95.7016 59.1341C77.639 44.0515 59.4171 74.6941 63.2817 77.9156C67.141 81.1394 75.4298 64.3477 84.8117 72.1756L95.7069 59.1318L95.7016 59.1341Z" fill="#93278F"/>
<g style="mix-blend-mode:multiply" opacity="0.3">
<path d="M68.2067 66.5455C69.5235 69.4333 73.0315 68.7632 75.3846 67.7568C77.8783 66.6952 80.1789 65.2367 82.3858 63.68C84.1722 62.4217 85.6714 60.8838 86.841 59.028C87.5646 57.8746 87.9923 56.6101 88.4277 55.3486C90.8165 55.8977 93.2632 57.0992 95.7015 59.1342L84.8064 72.1781C75.4245 64.3502 67.1333 81.1366 63.2763 77.918C61.7257 76.6214 63.7466 70.8829 67.8946 65.4723C67.9364 65.8278 68.0376 66.1888 68.2013 66.5478L68.2067 66.5455Z" fill="#93278F"/>
</g>
<g style="mix-blend-mode:multiply" opacity="0.3">
<path d="M65.6121 69.2414C65.8286 72.77 69.3597 72.3115 71.6812 71.262C75.4414 69.5627 79.4919 67.7742 82.8439 65.3606C86.2496 62.9109 87.9222 59.3839 89.2715 55.5678C91.3942 56.1892 93.5448 57.3368 95.7015 59.1342L84.8064 72.1781C75.4245 64.3502 67.1333 81.1366 63.2763 77.918C62.0448 76.8869 63.0673 73.0622 65.6148 68.8284C65.613 68.9686 65.6034 69.1059 65.6092 69.249L65.6121 69.2414Z" fill="#93278F"/>
</g>
<path d="M118.94 78.5359C137.003 93.6185 110.1 117.006 106.241 113.783C102.381 110.559 117.429 99.4129 108.045 91.5797L118.94 78.5359Z" fill="#93278F"/>
<g style="mix-blend-mode:multiply" opacity="0.3">
<path d="M124.35 86.0207C123.911 86.0168 123.464 86.0799 123.018 86.2185C120.884 86.9008 119.715 88.845 119.013 90.8439C117.836 94.1854 118.025 97.7958 116.611 101.089C115.993 102.526 114.902 103.739 114.422 105.229C113.964 106.627 114.39 108.467 115.785 108.945C111.723 112.804 107.584 114.91 106.243 113.788C102.383 110.564 117.431 99.4182 108.047 91.585L118.942 78.5411C121.742 80.8802 123.461 83.4142 124.353 86.026L124.35 86.0207Z" fill="#93278F"/>
</g>
<g style="mix-blend-mode:multiply" opacity="0.3">
<path d="M123.359 83.7885C119.905 83.352 115.785 85.6904 113.871 88.2336C111.999 90.7269 112.644 93.4848 112.926 96.3257C113.146 98.5607 112.926 101.368 112.053 103.468C111.418 104.982 110.212 106.22 109.658 107.761C108.954 109.724 109.515 111.784 111.301 112.489C108.993 113.932 107.081 114.485 106.243 113.788C102.384 110.564 117.432 99.4184 108.047 91.5851L118.942 78.5413C120.934 80.2083 122.373 81.9721 123.362 83.7938L123.359 83.7885Z" fill="#93278F"/>
</g>
<path d="M84.9734 73.5427L106.337 91.3846L97.2554 95.7462L82.2964 83.2621L84.9734 73.5427Z" fill="#666666"/>
<path d="M86.6735 74.9638L104.636 89.9635L96.066 94.7536L83.4855 84.2548L86.6735 74.9638Z" fill="#808080"/>
<path d="M88.5455 76.5313L102.759 88.3985L94.7547 93.6562L84.802 85.3501L88.5455 76.5313Z" fill="#666666"/>
<path d="M90.8742 78.475L100.43 86.4546L93.119 92.2955L86.4324 86.713L90.8742 78.475Z" fill="#808080"/>
<path d="M93.804 80.9218L97.5037 84.0129L91.0701 90.5838L88.4822 88.4243L93.804 80.9218Z" fill="#666666"/>
<g style="mix-blend-mode:multiply" opacity="0.3">
<path d="M86.6739 74.9637L85.8449 77.3797L84.2743 76.0665L84.9737 73.5426L86.6739 74.9637Z" fill="#666666"/>
<path d="M106.337 91.3845L103.983 92.5181L102.415 91.2101L104.637 89.9634L106.337 91.3845Z" fill="#666666"/>
<path d="M104.637 89.9634L102.415 91.2102L100.685 89.7642L102.76 88.3983L104.637 89.9634Z" fill="#808080"/>
<path d="M88.546 76.5311L87.5727 78.8203L85.8449 77.3796L86.6739 74.9637L88.546 76.5311Z" fill="#808080"/>
<path d="M102.76 88.3982L100.684 89.7641L98.5353 87.9697L100.431 86.4544L102.76 88.3982Z" fill="#666666"/>
<path d="M90.875 78.4748L89.7222 80.6147L87.5731 78.8202L88.5464 76.531L90.875 78.4748Z" fill="#666666"/>
<path d="M100.431 86.4545L98.5354 87.9697L95.8355 85.7136L97.504 84.0129L100.431 86.4545Z" fill="#808080"/>
<path d="M93.804 80.9219L92.4217 82.8709L89.7218 80.6148L90.8746 78.475L93.804 80.9219Z" fill="#808080"/>
<path d="M97.5039 84.013L95.8354 85.7137L92.422 82.8709L93.8042 80.9219L97.5039 84.013Z" fill="#666666"/>
</g>
<path d="M136.086 10.4064C136.138 10.4532 136.191 10.487 136.257 10.5215C136.315 10.553 136.378 10.5822 136.442 10.5984C136.509 10.62 136.578 10.6339 136.645 10.6425C136.713 10.651 136.783 10.652 136.85 10.6476C136.918 10.6432 136.987 10.6259 137.05 10.6109C137.116 10.5882 137.18 10.5603 137.236 10.5293C137.3 10.5014 137.351 10.4598 137.403 10.4182C137.454 10.3766 137.508 10.3274 137.55 10.2776C137.591 10.2277 137.631 10.1725 137.665 10.1067C137.697 10.0485 137.726 9.98504 137.742 9.92091C137.764 9.85445 137.78 9.79032 137.786 9.71789C137.795 9.65077 137.796 9.58067 137.791 9.5129C137.787 9.44513 137.77 9.37671 137.755 9.3136C137.732 9.24751 137.712 9.18673 137.673 9.12762C137.645 9.06386 137.604 9.01241 137.562 8.96095C137.477 8.85272 137.369 8.76677 137.251 8.69844C137.192 8.66693 137.129 8.63775 137.065 8.62153C136.998 8.59999 136.934 8.58376 136.862 8.57751C136.795 8.56894 136.727 8.57331 136.659 8.57769C136.591 8.58207 136.523 8.5994 136.454 8.61674C136.388 8.63939 136.324 8.66735 136.268 8.69829C136.205 8.72626 136.153 8.76783 136.102 8.8094C136.045 8.8533 135.996 8.90019 135.954 8.95006C135.907 9.00226 135.87 9.06275 135.839 9.12092C135.807 9.17909 135.778 9.24257 135.762 9.3067C135.74 9.37316 135.724 9.43729 135.718 9.50972C135.709 9.57684 135.708 9.64694 135.718 9.71238C135.722 9.78015 135.737 9.84326 135.755 9.91168C135.777 9.97777 135.805 10.0415 135.836 10.0977C135.864 10.1614 135.906 10.2129 135.947 10.2643C135.989 10.3158 136.038 10.3702 136.088 10.4117L136.086 10.4064Z" fill="white"/>
<path d="M159.362 29.8359C159.414 29.8827 159.475 29.9195 159.533 29.951C159.591 29.9825 159.654 30.0117 159.718 30.0279C159.785 30.0495 159.854 30.0633 159.922 30.0719C159.989 30.0805 160.059 30.0814 160.127 30.0771C160.194 30.0727 160.263 30.0554 160.326 30.0403C160.392 30.0177 160.456 29.9897 160.512 29.9588C160.576 29.9308 160.627 29.8893 160.679 29.8477C160.73 29.8061 160.785 29.7569 160.826 29.707C160.868 29.6572 160.907 29.602 160.941 29.5362C160.973 29.478 161.002 29.4145 161.018 29.3504C161.04 29.2839 161.056 29.2198 161.062 29.1474C161.071 29.0802 161.072 29.0101 161.067 28.9424C161.063 28.8746 161.046 28.8062 161.031 28.7431C161.008 28.677 160.98 28.6132 160.949 28.5571C160.921 28.4933 160.88 28.4419 160.838 28.3904C160.753 28.2822 160.645 28.1962 160.527 28.1279C160.468 28.0964 160.405 28.0672 160.341 28.051C160.274 28.0295 160.213 28.0186 160.14 28.0123C160.073 28.0037 160.003 28.0028 159.935 28.0072C159.867 28.0115 159.799 28.0289 159.736 28.0439C159.67 28.0665 159.606 28.0945 159.55 28.1254C159.486 28.1534 159.434 28.195 159.383 28.2365C159.326 28.2804 159.277 28.3273 159.236 28.3772C159.061 28.5867 158.974 28.8655 158.994 29.1419C158.999 29.2096 159.016 29.278 159.033 29.3465C159.056 29.4126 159.076 29.4733 159.109 29.5348C159.137 29.5985 159.179 29.65 159.221 29.7014C159.264 29.7582 159.311 29.8073 159.361 29.8488L159.362 29.8359Z" fill="white"/>
<path d="M84.4374 73.0999C84.4374 73.0999 85.2262 58.1775 95.6044 45.7468C104.937 34.5727 124.186 15.9406 134.79 10.3281C144.659 5.10196 153.487 3.4295 158.304 7.44982C163.123 11.4754 163.051 20.4584 159.667 31.0958C156.03 42.5283 141.124 64.7931 131.797 75.9649C121.417 88.3903 106.868 91.8296 106.868 91.8296L84.4298 73.0969L84.4374 73.0999Z" fill="#F2F2F2"/>
<g style="mix-blend-mode:multiply">
<path d="M158.304 7.44982C160.802 9.53465 161.985 12.9562 162.072 17.2447C158.078 14.8403 153.255 14.8518 148.766 15.6544C138.849 17.4304 130.961 23.011 124.661 30.6824C119.076 37.4832 114.627 45.3441 114.83 54.3774C114.919 58.3673 116.196 63.0847 118.638 66.315C122.117 70.9096 127.493 72.1886 132.898 70.7437C134.326 70.3584 135.71 69.8592 137.057 69.275C135.193 71.7583 133.413 74.0276 131.797 75.9649C121.417 88.3903 106.868 91.8296 106.868 91.8296L84.4298 73.0969C84.4298 73.0969 85.2185 58.1746 95.5968 45.7438C104.929 34.5697 124.178 15.9376 134.783 10.3251C144.651 5.09897 153.479 3.42652 158.296 7.44684L158.304 7.44982Z" fill="#F2F2F2"/>
</g>
<g style="mix-blend-mode:multiply">
<path d="M107.103 41.1615C105.31 45.5397 103.504 50.2525 103.106 54.9947C102.34 64.1168 105.379 74.01 114.427 78.0695C119.275 80.239 124.169 80.3609 128.869 79.1429C118.886 88.993 106.87 91.835 106.87 91.835L84.4321 73.1024C84.4321 73.1024 85.2209 58.18 95.5991 45.7492C101.233 39.0029 110.485 29.5368 119.266 21.8605C114.106 27.5499 109.957 34.1711 107.098 41.1638L107.103 41.1615Z" fill="#F2F2F2"/>
</g>
<path d="M134.79 10.328C136.022 15.6797 139.081 20.8377 143.821 24.797C148.56 28.7563 154.184 30.8453 159.669 31.101C163.056 20.456 163.128 11.4731 158.304 7.44976C153.485 3.42412 144.656 5.09658 134.79 10.328Z" fill="#93278F"/>
<g style="mix-blend-mode:multiply" opacity="0.3">
<path d="M154.1 5.49203C152.426 5.80777 150.812 6.79422 149.517 8.56575C145.901 13.5276 147.843 18.6813 150.583 23.4985C152.1 26.1652 154.749 28.0576 157.934 27.6933C159.038 27.5645 160.062 27.1406 160.938 26.5093C160.588 27.9933 160.165 29.5282 159.662 31.0981C154.176 30.8424 148.552 28.7533 143.813 24.7941C139.074 20.8348 136.014 15.6767 134.783 10.3251C142.243 6.37013 149.103 4.4582 154.092 5.48905L154.1 5.49203Z" fill="#93278F"/>
</g>
<g style="mix-blend-mode:multiply" opacity="0.3">
<path d="M145.322 6.05268C145.266 6.09659 145.214 6.13816 145.157 6.18207C141.357 9.43815 141.136 13.919 142.679 18.3927C143.944 22.0443 146.035 25.8727 149.15 28.2952C147.29 27.3623 145.499 26.1964 143.811 24.7889C139.071 20.8297 136.012 15.6716 134.78 10.32C138.492 8.35063 142.053 6.89074 145.313 6.04439L145.322 6.05268Z" fill="#93278F"/>
</g>
<path d="M146.026 23.7859C146.397 23.3447 146.336 22.6869 145.895 22.3166C145.454 21.9462 144.796 22.0066 144.426 22.4478C144.055 22.8889 144.115 23.5467 144.557 23.9171C144.998 24.2874 145.656 24.227 146.026 23.7859Z" fill="white"/>
<path d="M148.245 26.5505C148.742 26.8458 149.382 26.6857 149.68 26.1941C149.975 25.6972 149.815 25.0578 149.323 24.7602C148.832 24.4627 148.187 24.625 147.889 25.1166C147.622 25.563 147.726 26.132 148.115 26.4556C148.155 26.4888 148.2 26.5197 148.245 26.5505Z" fill="white"/>
<path d="M142.781 20.8502C143.216 20.4695 143.257 19.8116 142.876 19.3768C142.495 18.9419 141.837 18.9009 141.402 19.2817C140.967 19.6625 140.926 20.3203 141.307 20.7552C141.344 20.796 141.381 20.8368 141.426 20.8677C141.815 21.1913 142.392 21.1918 142.781 20.8502Z" fill="white"/>
<path d="M152.383 28.645C152.915 28.8615 153.529 28.5989 153.738 28.0638C153.952 27.5264 153.694 26.9237 153.162 26.7072C152.624 26.493 152.016 26.7534 151.807 27.2884C151.635 27.7188 151.769 28.1984 152.106 28.4752C152.188 28.5469 152.281 28.6009 152.388 28.6427L152.383 28.645Z" fill="white"/>
<path d="M139.945 17.387C140.43 17.079 140.58 16.437 140.269 15.9459C139.961 15.4602 139.319 15.3109 138.828 15.6213C138.342 15.9293 138.193 16.5713 138.501 17.0571C138.561 17.1511 138.63 17.235 138.717 17.3044C139.056 17.5865 139.55 17.6296 139.945 17.387Z" fill="white"/>
<path d="M157.229 29.8844C157.791 30.0115 158.345 29.6548 158.472 29.0923C158.599 28.5297 158.24 27.9712 157.68 27.8495C157.117 27.7224 156.558 28.0813 156.437 28.6416C156.349 29.0347 156.496 29.4266 156.785 29.6672C156.912 29.7697 157.059 29.8447 157.229 29.8844Z" fill="white"/>
<path d="M137.786 13.0693C138.316 12.8493 138.566 12.2331 138.346 11.7024C138.118 11.1687 137.51 10.9224 136.979 11.1425C136.448 11.3625 136.196 11.9734 136.419 12.5094C136.488 12.6688 136.586 12.8036 136.713 12.9061C137.002 13.1467 137.417 13.2248 137.786 13.0693Z" fill="white"/>
<g filter="url(#filter0_d_659_182)">
<path d="M122.431 31.6494C126.87 26.7069 134.476 26.2978 139.419 30.7357C144.361 35.1736 144.769 42.778 140.329 47.7206C135.89 52.6632 128.284 53.0723 123.342 48.6343C118.399 44.1964 117.991 36.592 122.431 31.6494Z" fill="#93278F"/>
</g>
<g style="mix-blend-mode:multiply" opacity="0.3">
<path d="M126.245 28.8033C125.774 29.1745 125.333 29.5706 124.912 29.9832C122.737 32.1339 121.54 35.7628 121.653 38.7666C121.763 41.7339 123.228 45.3359 125.557 47.2797C128.145 49.4392 130.993 50.5155 134.341 50.5361C135.44 50.5421 136.51 50.3518 137.533 50.0111C136.035 50.9021 134.314 51.4856 132.461 51.652C125.841 52.2485 120 47.366 119.404 40.7473C118.938 35.5797 121.816 30.8846 126.245 28.7904L126.245 28.8033Z" fill="#93278F"/>
</g>
<path d="M125.136 49.137C125.565 49.4237 126.151 49.2999 126.438 48.8701C126.722 48.435 126.603 47.86 126.171 47.5681C125.736 47.2837 125.153 47.3998 124.869 47.835C124.602 48.2372 124.689 48.769 125.051 49.073C125.078 49.0926 125.108 49.1175 125.136 49.137ZM122.939 45.8178C123.386 45.5519 123.527 44.9771 123.261 44.5298C122.998 44.0878 122.421 43.9418 121.973 44.2077C121.526 44.4735 121.385 45.0484 121.651 45.4956C121.711 45.5896 121.777 45.6683 121.857 45.7346C122.156 45.9835 122.588 46.0287 122.941 45.8231L122.939 45.8178ZM129.856 50.913C130.367 50.9803 130.842 50.6198 130.915 50.1064C130.982 49.5954 130.627 49.1176 130.111 49.0526C129.597 48.98 129.122 49.3405 129.057 49.8569C129.011 50.1871 129.143 50.503 129.385 50.7074C129.515 50.8153 129.68 50.8885 129.863 50.9159L129.856 50.913ZM121.118 41.5483C121.635 41.499 122.019 41.0455 121.97 40.5286C121.97 40.5286 121.963 40.5127 121.966 40.5051C121.917 39.9882 121.463 39.6042 120.951 39.6511C120.432 39.6951 120.056 40.1516 120.097 40.6655C120.097 40.6655 120.102 40.6761 120.104 40.6814C120.104 40.6814 120.109 40.6921 120.111 40.6974C120.135 40.9532 120.261 41.183 120.442 41.3376C120.624 41.4923 120.87 41.5748 121.125 41.5513L121.118 41.5483ZM134.88 50.4647C135.374 50.3052 135.643 49.7757 135.483 49.2818C135.324 48.788 134.794 48.5197 134.3 48.6792C133.806 48.8388 133.538 49.3683 133.695 49.8568C133.753 50.0338 133.855 50.1793 133.985 50.2871C134.224 50.4862 134.556 50.5627 134.878 50.4594L134.88 50.4647ZM121.336 36.8854C121.82 37.0657 122.36 36.8227 122.548 36.3412C122.728 35.8566 122.485 35.317 122.004 35.129C121.519 34.9487 120.979 35.1917 120.791 35.6733C120.65 36.0584 120.771 36.4803 121.071 36.7292C121.148 36.7902 121.236 36.8466 121.341 36.8831L121.336 36.8854ZM139.21 47.8823C139.584 47.5218 139.598 46.9328 139.243 46.5563C138.883 46.1822 138.288 46.1705 137.912 46.5256C137.535 46.8808 137.523 47.4751 137.884 47.8492C137.908 47.8764 137.931 47.8983 137.961 47.9232C138.322 48.2272 138.861 48.2128 139.21 47.8823ZM124.874 32.8316C125.251 32.4764 125.263 31.8821 124.908 31.5056C124.547 31.1315 123.958 31.1174 123.582 31.4726C123.207 31.833 123.193 32.4221 123.548 32.7985C123.573 32.8257 123.603 32.8506 123.625 32.8725C123.984 33.1712 124.525 33.1621 124.874 32.8316ZM140.785 44.2205C141.272 44.4061 141.81 44.1578 141.998 43.6762C142.178 43.1917 141.935 42.6521 141.448 42.4664C140.961 42.2808 140.424 42.5291 140.238 43.016C140.089 43.3982 140.216 43.8177 140.515 44.0666C140.595 44.1329 140.681 44.184 140.785 44.2205ZM128.486 30.6779C128.98 30.5184 129.256 29.9919 129.097 29.498C128.937 29.0042 128.408 28.7358 127.911 28.8901C127.417 29.0497 127.141 29.5761 127.301 30.07C127.359 30.247 127.461 30.3925 127.593 30.5056C127.833 30.7048 128.164 30.7812 128.486 30.6779ZM141.825 39.6977C142.344 39.6537 142.721 39.1973 142.677 38.6781C142.633 38.1588 142.176 37.7825 141.657 37.8265C141.138 37.8704 140.761 38.3269 140.805 38.8461C140.829 39.1019 140.955 39.3317 141.137 39.4864C141.318 39.641 141.564 39.7235 141.82 39.7001L141.825 39.6977ZM132.68 30.3152C133.194 30.3878 133.669 30.0272 133.74 29.5086C133.812 28.9952 133.452 28.5198 132.935 28.4548C132.424 28.3875 131.946 28.7427 131.881 29.2591C131.836 29.5893 131.97 29.9105 132.21 30.1096C132.339 30.2174 132.499 30.2931 132.682 30.3205L132.68 30.3152ZM140.804 35.1724C141.251 34.9066 141.397 34.3294 141.132 33.8821C140.868 33.4402 140.289 33.2889 139.844 33.56C139.396 33.8258 139.25 34.403 139.519 34.8427C139.574 34.939 139.645 35.0153 139.72 35.084C140.019 35.3329 140.451 35.3781 140.804 35.1724ZM136.614 31.8021C137.044 32.0887 137.627 31.9726 137.914 31.5428C138.206 31.1106 138.084 30.5304 137.652 30.2384C137.217 29.9541 136.634 30.0702 136.35 30.5053C136.083 30.9075 136.165 31.4417 136.526 31.7457C136.554 31.7652 136.581 31.7848 136.611 31.8097L136.614 31.8021Z" fill="white"/>
<path d="M122.714 40.4622C123.147 45.2515 127.375 48.7823 132.16 48.3505C136.95 47.9165 140.482 43.6882 140.051 38.9043C139.618 34.115 135.39 30.5842 130.605 31.016C125.82 31.4477 122.283 35.6783 122.714 40.4622Z" fill="#662D91"/>
<path d="M124.424 43.697C126.641 47.5396 131.553 48.8575 135.396 46.6403C139.24 44.423 140.559 39.5116 138.342 35.6691C136.125 31.8266 131.213 30.5086 127.369 32.7259C123.526 34.9432 122.207 39.8545 124.424 43.697Z" fill="#29DFE2"/>
<g style="mix-blend-mode:multiply">
<path d="M125.642 34.5536C124.87 36.9386 124.979 40.2099 126.257 42.4307C127.679 44.8925 129.618 46.5699 132.265 47.5632C132.342 47.5931 132.413 47.6123 132.49 47.6421C129.347 48.0761 126.11 46.6191 124.426 43.7023C122.515 40.3845 123.237 36.2796 125.936 33.7915C125.826 34.0484 125.725 34.3083 125.639 34.5612L125.642 34.5536Z" fill="#29DFE2"/>
</g>
<g style="mix-blend-mode:overlay" opacity="0.5">
<path d="M134.773 32.4002C135.794 32.8777 136.723 33.5662 137.486 34.4543L134.05 47.2557C132.947 47.6444 131.794 47.776 130.674 47.6779L134.773 32.4002Z" fill="white"/>
</g>
<g style="mix-blend-mode:overlay" opacity="0.5">
<path d="M132.525 31.7388C132.959 31.8022 133.388 31.8991 133.807 32.032L129.651 47.5251C129.222 47.4281 128.804 47.3006 128.397 47.1372L132.531 31.7364L132.525 31.7388Z" fill="white"/>
</g>
<path d="M93.9067 78.1211C87.2876 86.0467 79.0558 98.9364 80.8957 100.474C82.7356 102.011 93.9543 91.6126 100.573 83.687C107.192 75.7614 106.706 73.3077 104.866 71.7705C103.026 70.2332 100.526 70.1956 93.9067 78.1211Z" fill="#93278F"/>
<g style="mix-blend-mode:multiply" opacity="0.3">
<path d="M104.866 71.7705C105.058 71.9335 105.236 72.1087 105.393 72.2933C102.231 72.3808 99.1817 74.8771 97.168 77.1346C95.2865 79.2455 93.7604 81.6757 92.2951 84.0856C91.4418 85.4923 90.3216 87.2441 90.879 88.9635C91.4771 90.8045 92.5835 91.276 93.9512 90.898C88.2052 96.6671 82.1938 101.571 80.8925 100.481C79.0527 98.9441 87.2844 86.0544 93.9035 78.1288C100.523 70.2032 103.023 70.2409 104.863 71.7782L104.866 71.7705Z" fill="#93278F"/>
</g>
<g style="mix-blend-mode:multiply" opacity="0.3">
<path d="M100.458 71.7899C100.034 72.2673 99.5947 72.783 99.1329 73.3339C92.5139 81.2595 84.2821 94.1492 86.122 95.6864C86.9498 96.3751 89.653 94.6641 92.9858 91.8599C87.5502 97.1951 82.1275 101.505 80.896 100.474C79.0561 98.9364 87.2879 86.0467 93.9069 78.1211C96.7667 74.7007 98.8554 72.7587 100.458 71.7899Z" fill="#93278F"/>
</g>
<g style="mix-blend-mode:overlay" opacity="0.5">
<path d="M155.795 18.9835C155.641 21.857 156.617 24.2419 157.975 24.3181C159.338 24.392 160.568 22.1235 160.721 19.25C160.874 16.3765 159.898 13.9917 158.54 13.9154C157.183 13.8392 155.948 16.11 155.795 18.9835Z" fill="white"/>
</g>
<g style="mix-blend-mode:overlay" opacity="0.5">
<path d="M147.699 41.1003C146.375 43.6576 146.288 46.2357 147.494 46.8602C148.707 47.4877 150.758 45.9232 152.085 43.3712C153.41 40.814 153.496 38.2359 152.291 37.6113C151.078 36.9838 149.026 38.5484 147.699 41.1003Z" fill="white"/>
</g>
<g style="mix-blend-mode:overlay" opacity="0.5">
<path d="M152.244 33.2289C151.737 34.2114 152.121 35.418 153.103 35.9248C154.086 36.4316 155.293 36.0481 155.8 35.0657C156.307 34.0832 155.923 32.8766 154.941 32.3698C153.958 31.863 152.751 32.2464 152.244 33.2289Z" fill="white"/>
</g>
</g>
</g>
<defs>
<filter id="filter0_d_659_182" x="119.351" y="27.6575" width="25.0591" height="27.0552" filterUnits="userSpaceOnUse" color-interpolation-filters="sRGB">
<feFlood flood-opacity="0" result="BackgroundImageFix"/>
<feColorMatrix in="SourceAlpha" type="matrix" values="0 0 0 0 0 0 0 0 0 0 0 0 0 0 0 0 0 0 127 0" result="hardAlpha"/>
<feOffset dx="1" dy="3"/>
<feColorMatrix type="matrix" values="0 0 0 0 0 0 0 0 0 0 0 0 0 0 0 0 0 0 0.8 0"/>
<feBlend mode="normal" in2="BackgroundImageFix" result="effect1_dropShadow_659_182"/>
<feBlend mode="normal" in="SourceGraphic" in2="effect1_dropShadow_659_182" result="shape"/>
</filter>
<clipPath id="clip0_659_182">
<rect width="190" height="197" fill="white"/>
</clipPath>
<clipPath id="clip1_659_182">
<rect width="98" height="304" fill="white" transform="translate(0 7)"/>
</clipPath>
<clipPath id="clip2_659_182">
<rect width="586.675" height="274.345" fill="white" transform="translate(-448.177 7) rotate(2.88801)"/>
</clipPath>
<clipPath id="clip3_659_182">
<rect width="85.222" height="126.729" fill="white" transform="matrix(-0.401537 -0.915843 -0.915843 0.401537 190.284 78.05)"/>
</clipPath>
</defs>
</svg>
