<svg width="77" height="110" viewBox="0 0 77 110" fill="none" xmlns="http://www.w3.org/2000/svg">
<g clip-path="url(#clip0_156_59596)">
<path d="M46.6131 93.7611L44.5937 103.765C44.5168 104.145 44.1979 104.442 43.6855 104.66C40.6856 105.956 30.9885 104.705 23.2936 102.666C17.413 101.107 12.7028 99.0887 13.0445 97.3959L15.064 87.3922L46.6131 93.7611Z" fill="#6F6F8B"/>
<path d="M43.6856 104.66C40.6857 105.956 30.9886 104.704 23.2937 102.666C17.4131 101.107 12.7029 99.0887 13.0446 97.3958L14.2946 91.2039C15.4888 91.3563 16.6532 91.8604 17.6711 92.5211C19.2096 93.5205 20.4879 94.8604 21.8577 96.0829C27.8153 101.403 35.708 104.49 43.6856 104.66Z" fill="#606078"/>
<path d="M23.2936 102.666C17.413 101.107 12.7028 99.0887 13.0445 97.3959L13.5112 95.0839C15.0016 96.0735 16.254 97.3816 17.5888 98.5734C19.3404 100.136 21.2573 101.507 23.2936 102.666Z" fill="#545469"/>
<path d="M54.5672 84.6126L51.7966 98.337C51.5936 99.3425 50.1632 99.9228 47.9393 100.16C47.2439 100.235 46.467 100.276 45.6286 100.287C45.4332 100.292 45.2362 100.291 45.0358 100.292C43.2643 100.286 41.235 100.157 39.0622 99.9226C26.0105 98.5293 7.73354 93.4533 8.51163 89.599L11.2822 75.8745L54.5672 84.6126Z" fill="#54556A"/>
<path d="M45.6285 100.287C45.4331 100.292 45.2361 100.291 45.0357 100.292C43.2642 100.286 41.2349 100.157 39.0621 99.9226C26.0104 98.5293 7.73345 93.4533 8.51153 89.599L11.2821 75.8745L11.4151 75.9014C11.3643 75.832 11.3136 75.7626 11.2594 75.6955C11.7602 75.7818 12.2564 75.9056 12.7429 76.0334C13.2793 76.1772 13.8145 76.3266 14.3462 76.4931C16.8551 77.2656 19.2863 78.321 21.3185 79.9669C24.2513 82.3444 26.1216 85.7549 28.1919 88.919C30.2621 92.0832 32.7888 95.2182 36.3369 96.5021C38.0055 97.105 39.7975 97.2568 41.5095 97.7177C42.8107 98.0691 44.1244 98.6506 45.0562 99.5925C45.2696 99.8041 45.4609 100.038 45.6285 100.287Z" fill="#4F5063"/>
<path d="M39.0622 99.9226C26.0105 98.5293 7.73354 93.4533 8.51163 89.599L11.2822 75.8745L11.4152 75.9014C12.0324 76.7531 12.5894 77.6844 13.1805 78.5339C15.3207 81.5998 18.3548 83.9712 20.3753 87.1194C21.3401 88.6266 22.0701 90.3052 23.2783 91.6281C24.1968 92.6353 25.355 93.3894 26.5228 94.0952C30.4741 96.4891 34.6874 98.4452 39.0622 99.9226Z" fill="#414252"/>
<path d="M47.9393 100.16C47.2438 100.235 46.467 100.276 45.6285 100.287C45.4332 100.292 45.2362 100.291 45.0357 100.292C45.0329 100.058 45.0443 99.8266 45.0562 99.5925C45.1778 97.196 45.3011 94.8058 45.4221 92.4121C45.5836 89.2492 45.7491 86.0517 46.3057 82.9448L49.3839 83.5662C49.228 88.7434 48.8027 93.9134 48.1086 99.044C48.0572 99.415 48.0053 99.7888 47.9393 100.16Z" fill="#797B99"/>
<path d="M66.9855 55.389L57.2446 89.2887L57.1835 89.504C57.07 90.0664 56.6182 90.5102 55.8876 90.8475C52.7916 92.2829 44.676 91.8329 35.9225 90.3851C21.8835 88.0624 6.20418 83.1738 6.97252 79.3678L11.1726 44.1219C11.7105 34.5582 17.4078 26.0419 26.0288 21.9174C32.1529 18.9886 38.8664 18.2598 45.1813 19.5346C45.9226 19.6842 46.6609 19.8629 47.3885 20.0659C47.6838 20.1492 47.9751 20.2375 48.2659 20.3287C52.9679 21.8041 57.3409 24.4281 60.9339 28.1154C61.2659 28.4544 61.59 28.8036 61.9067 29.1602C68.2525 36.3061 70.1999 46.3656 66.9855 55.389Z" fill="#FFB90B"/>
<path d="M66.9857 55.3891L57.2448 89.2888L57.1837 89.5041C57.0702 90.0665 56.6184 90.5103 55.8878 90.8476C55.9225 90.763 55.9488 90.6767 55.9665 90.5886L56.0294 90.3648L66.0014 55.3204C69.2776 45.9903 67.3928 35.6212 61.0848 28.2878C61.0346 28.2304 60.9843 28.1729 60.9341 28.1155C61.2661 28.4545 61.5902 28.8037 61.9069 29.1603C68.2527 36.3062 70.2001 46.3657 66.9857 55.3891Z" fill="#FFDD87"/>
<path d="M57.2446 89.2887L57.1835 89.504C55.8229 96.2441 5.61187 86.1079 6.97252 79.3678L11.1726 44.1219C11.7105 34.5582 17.4078 26.0419 26.0288 21.9174C32.1529 18.9886 38.8664 18.2598 45.1813 19.5346C46.2225 19.7448 47.2527 20.0089 48.2659 20.3287C48.7462 23.1128 47.4334 26.1882 45.5351 28.4152C43.2013 31.1514 40.0786 33.0987 37.6227 35.7245C34.3676 39.203 32.4341 43.6902 30.6327 48.1065C28.3299 53.7519 26.1078 59.5524 25.6659 65.6355C25.2241 71.7187 26.7973 78.2204 31.1441 82.4766C34.7459 86.0032 39.7766 87.6011 44.685 88.725C48.7945 89.664 53.2405 90.3073 57.2446 89.2887Z" fill="#EB9C00"/>
<path d="M35.9225 90.3851C21.8835 88.0624 6.20418 83.1738 6.97252 79.3678L11.1726 44.1219C11.7105 34.5582 17.4078 26.0419 26.0288 21.9174C32.1529 18.9886 38.8664 18.2598 45.1813 19.5346C45.9226 19.6842 46.6609 19.8629 47.3885 20.0659C46.5922 21.7202 45.0119 23.1452 43.534 24.3397C37.5619 29.1704 31.5555 34.1125 26.9863 40.2935C21.7342 47.3921 18.6 55.8286 16.0749 64.2965C15.4359 66.4407 14.8274 68.6236 14.7849 70.8617C14.664 77.4264 19.517 83.2008 25.2422 86.3756C28.584 88.2297 32.2168 89.4006 35.9225 90.3851Z" fill="#D47800"/>
<path d="M53.7238 22.7135C53.5684 23.4832 49.492 23.3136 44.6172 22.3295C39.7424 21.3454 35.9189 19.9232 36.0748 19.1506C36.2308 18.378 40.3066 18.5505 45.1814 19.5346C50.0562 20.5187 53.8798 21.9409 53.7238 22.7135Z" fill="#54556A"/>
<path d="M42.8652 20.5214L53.7239 22.7134L54.2881 19.9186L36.6392 16.3557L36.0749 19.1506L42.8652 20.5214Z" fill="#54556A"/>
<path d="M54.2882 19.9185C54.1329 20.6883 50.0565 20.5187 45.1817 19.5346C40.3068 18.5505 36.4833 17.1283 36.6393 16.3557C36.7952 15.5831 40.871 15.7556 45.7459 16.7397C50.6207 17.7238 54.4442 19.146 54.2882 19.9185Z" fill="#6F6F8B"/>
<path d="M43.1656 17.0938L47.0992 6.18479C47.4003 5.34988 48.6367 5.59947 48.5902 6.48579L47.9838 18.0665C47.6937 19.5037 42.8754 18.531 43.1656 17.0938Z" fill="#54556A"/>
<path d="M36.5302 62.3895C45.6649 64.2336 54.5708 58.2944 56.4221 49.1239C58.2734 39.9535 52.369 31.0244 43.2342 29.1804C34.0995 27.3363 25.1936 33.2756 23.3423 42.446C21.4911 51.6165 27.3955 60.5455 36.5302 62.3895Z" fill="#627778"/>
<path d="M36.6728 61.6823C45.4184 63.4478 53.945 57.7616 55.7174 48.9817C57.4898 40.2019 51.8369 31.6532 43.0913 29.8877C34.3456 28.1221 25.819 33.8084 24.0466 42.5883C22.2742 51.3681 27.9271 59.9168 36.6728 61.6823Z" fill="#95AAAB"/>
<path d="M42.5988 59.7514C50.2866 58.2339 55.3026 50.7508 53.8021 43.0375C52.3017 35.3242 44.8531 30.3016 37.1652 31.8191C29.4774 33.3366 24.4615 40.8196 25.9619 48.5329C27.4623 56.2462 34.9109 61.2689 42.5988 59.7514Z" fill="#627778"/>
<path d="M53.0781 48.4488C52.7031 50.3064 51.9605 52.0011 50.9428 53.4688C47.9698 57.7668 42.6346 60.1278 37.2081 59.0323C30.93 57.7649 26.5552 52.2762 26.4203 46.1033C26.4002 45.1237 26.4871 44.1243 26.6895 43.1217C27.8191 37.5262 32.2579 33.4354 37.5441 32.4836C39.1578 32.1915 40.8562 32.1944 42.5595 32.5382C48.1897 33.6748 52.2872 38.203 53.1692 43.5779C53.4312 45.1532 53.4146 46.7963 53.0815 48.4466L53.0781 48.4488Z" fill="#62E7EE"/>
<path d="M53.0778 48.4488C52.7028 50.3064 51.9602 52.001 50.9425 53.4687C47.9695 57.7668 42.6344 60.1277 37.2078 59.0322C30.9297 57.7648 26.5549 52.2761 26.4201 46.1032C27.8326 48.9808 30.8974 51.113 34.0664 50.7891C39.4654 50.2413 42.4892 43.5621 47.8153 42.5148C49.676 42.1514 51.5551 42.6017 53.1655 43.5801C53.4276 45.1554 53.4109 46.7985 53.0778 48.4488Z" fill="#06BDD1"/>
<g style="mix-blend-mode:multiply">
<path d="M50.9424 53.4688C47.9694 57.7668 42.6343 60.1277 37.2077 59.0323C29.9309 57.5633 25.2116 50.4264 26.6863 43.1211C27.8159 37.5257 32.2547 33.4348 37.5409 32.483C35.291 34.4971 33.7247 37.2966 33.3338 40.2979C32.7011 45.0803 35.0751 50.1237 39.1483 52.6723C42.6285 54.847 47.1876 55.1052 50.9424 53.4688Z" fill="#4DD4DB"/>
</g>
<path d="M44.8523 39.5135C46.8196 39.9106 48.5584 39.5192 48.736 38.6391C48.9137 37.7591 47.4629 36.7238 45.4956 36.3266C43.5284 35.9295 41.7896 36.3209 41.6119 37.201C41.4343 38.081 42.885 39.1163 44.8523 39.5135Z" fill="#BAFCFF"/>
<path d="M31.3427 88.0861C37.6132 89.3519 43.7267 85.275 44.9975 78.9799C46.2683 72.6848 42.2152 66.5554 35.9447 65.2896C29.6741 64.0237 23.5606 68.1007 22.2898 74.3958C21.019 80.6909 25.0721 86.8202 31.3427 88.0861Z" fill="#627778"/>
<path d="M44.0205 80.6076C46.1833 74.8528 43.2909 68.4351 37.56 66.2731C31.8291 64.1112 25.43 67.0238 23.2672 72.7786C21.1044 78.5334 23.9969 84.9512 29.7277 87.1131C35.4586 89.275 41.8577 86.3624 44.0205 80.6076Z" fill="#95AAAB"/>
<path d="M34.2212 86.4432C39.5893 86.1137 43.6814 81.4796 43.3612 76.0926C43.0411 70.7056 38.4298 66.6057 33.0616 66.9352C27.6935 67.2647 23.6014 71.8989 23.9216 77.2858C24.2417 82.6728 28.853 86.7727 34.2212 86.4432Z" fill="#627778"/>
<path d="M42.7026 78.5195C42.4452 79.7948 41.9361 80.9601 41.2355 81.9657C39.1938 84.9175 35.5307 86.537 31.8074 85.7854C27.4984 84.9155 24.4955 81.1493 24.4005 76.9088C24.3892 76.2355 24.4453 75.5492 24.584 74.8618C25.3592 71.0217 28.4089 68.2112 32.0356 67.5599C33.1451 67.3582 34.3103 67.3628 35.4787 67.5987C39.3435 68.3789 42.1578 71.4893 42.7615 75.1791C42.9411 76.2589 42.9309 77.389 42.7021 78.5223L42.7026 78.5195Z" fill="#62E7EE"/>
<path d="M42.7028 78.5195C42.4454 79.7948 41.9363 80.9602 41.2356 81.9657C39.194 84.9176 35.5308 86.5371 31.8075 85.7854C27.4985 84.9156 24.4957 81.1493 24.4006 76.9088C25.3682 78.8837 27.4751 80.3496 29.6491 80.1263C33.356 79.7484 35.4324 75.1659 39.0876 74.4464C40.366 74.196 41.6549 74.5065 42.7617 75.1792C42.9413 76.259 42.931 77.3891 42.7022 78.5224L42.7028 78.5195Z" fill="#06BDD1"/>
<g style="mix-blend-mode:multiply">
<path d="M41.2353 81.9657C39.1936 84.9176 35.5305 86.5371 31.8072 85.7854C26.8107 84.7768 23.5713 79.8779 24.5839 74.8619C25.3591 71.0217 28.4087 68.2113 32.0354 67.56C30.4931 68.9424 29.4159 70.8652 29.1474 72.9246C28.7144 76.2071 30.3418 79.6691 33.1392 81.4192C35.529 82.9126 38.6588 83.0892 41.2353 81.9657Z" fill="#4DD4DB"/>
</g>
<path d="M37.0567 72.3839C38.4067 72.6564 39.6 72.3878 39.7219 71.7838C39.8438 71.1799 38.8482 70.4694 37.4982 70.1968C36.1481 69.9243 34.9549 70.193 34.833 70.7969C34.711 71.4008 35.7066 72.1114 37.0567 72.3839Z" fill="#BAFCFF"/>
</g>
<defs>
<clipPath id="clip0_156_59596">
<rect width="57.4757" height="100.087" fill="white" transform="translate(19.8052 0.00390625) rotate(11.4131)"/>
</clipPath>
</defs>
</svg>
