<svg width="245" height="223" viewBox="0 0 245 223" fill="none" xmlns="http://www.w3.org/2000/svg">
<g id="Frame" clip-path="url(#clip0_114_36031)">
<g id="Group">
<g id="background">
<g id="Group_2">
<g id="Group_3">
<path id="Flame-3" d="M69.5061 156.919C58.8036 174.022 52.2164 197.358 59.3204 201.803C66.4243 206.248 84.5309 190.116 95.2285 173.005C105.931 155.902 105.178 144.296 98.0743 139.852C90.9703 135.407 80.2038 139.807 69.5013 156.911L69.5061 156.919Z" fill="#F1375A"/>
<path id="Flame-2" d="M76.4984 152.741C68.4146 165.658 63.4396 183.29 68.8067 186.643C74.1739 189.996 87.8486 177.812 95.9324 164.896C104.016 151.979 103.446 143.213 98.079 139.86C92.7119 136.507 84.5821 139.824 76.4984 152.741Z" fill="#F5A404"/>
<path id="Flame-1" d="M82.7338 149.017C76.9911 158.2 73.4508 170.728 77.2671 173.115C81.0834 175.502 90.8064 166.84 96.5491 157.657C102.292 148.473 101.895 142.247 98.0791 139.86C94.2628 137.473 88.4892 139.836 82.7466 149.02L82.7338 149.017Z" fill="#EAF2DF"/>
<g id="Vector" style="mix-blend-mode:multiply" opacity="0.3">
<path d="M90.57 162.226C86.5604 159.435 82.1173 157.802 77.2518 157.311C74.7633 157.41 72.2876 157.511 69.7992 157.61C69.5272 157.646 69.26 157.69 68.9929 157.734C69.1607 157.457 69.3333 157.188 69.5011 156.911C80.2037 139.808 90.9702 135.407 98.0741 139.852C104.662 143.97 105.783 154.239 97.3838 169.342C95.7129 166.457 93.4401 164.082 90.5573 162.223L90.57 162.226Z" fill="#F1375A"/>
</g>
</g>
<path id="Vector_2" d="M90.109 106.922C58.1815 86.9509 35.9779 139.508 42.8077 143.772C49.6297 148.041 59.1073 119.611 75.6895 129.974L90.1169 106.917L90.109 106.922Z" fill="#93278F"/>
<g id="Vector_3" style="mix-blend-mode:multiply" opacity="0.3">
<path d="M48.1353 124.671C50.8531 128.962 56.2685 127.134 59.7796 125.025C63.5015 122.798 66.8308 119.984 69.9899 117.034C72.5476 114.65 74.5889 111.884 76.0383 108.687C76.9338 106.701 77.3361 104.602 77.7512 102.508C81.6581 102.857 85.7993 104.228 90.1091 106.922L75.6816 129.979C59.0995 119.616 49.617 148.038 42.7999 143.777C40.0586 142.06 42.0105 132.521 47.4064 123.038C47.5502 123.592 47.7895 124.142 48.1274 124.676L48.1353 124.671Z" fill="#93278F"/>
</g>
<g id="Vector_4" style="mix-blend-mode:multiply" opacity="0.3">
<path d="M44.6101 129.511C45.7231 135.058 51.2213 133.561 54.673 131.391C60.2636 127.876 66.2951 124.157 71.0828 119.599C75.9479 114.972 77.83 109.015 79.1367 102.671C82.6376 103.193 86.2976 104.543 90.1091 106.922L75.6816 129.979C59.0995 119.616 49.617 148.038 42.7999 143.777C40.6226 142.411 41.409 136.124 44.5243 128.856C44.5519 129.079 44.5667 129.298 44.607 129.524L44.6101 129.511Z" fill="#93278F"/>
</g>
<path id="Vector_5" d="M131.185 132.612C163.113 152.583 125.564 195.532 118.742 191.263C111.92 186.994 133.345 166.04 116.758 155.669L131.185 132.612Z" fill="#93278F"/>
<g id="Vector_6" style="mix-blend-mode:multiply" opacity="0.3">
<path d="M141.396 143.298C140.699 143.388 140.004 143.585 139.327 143.902C136.092 145.45 134.663 148.787 133.987 152.109C132.85 157.664 133.937 163.347 132.414 168.876C131.747 171.289 130.283 173.45 129.846 175.918C129.425 178.234 130.503 181.058 132.818 181.512C127.221 188.516 121.118 192.758 118.746 191.271C111.924 187.002 133.349 166.048 116.762 155.677L131.19 132.62C136.139 135.717 139.418 139.36 141.401 143.306L141.396 143.298Z" fill="#93278F"/>
</g>
<g id="Vector_7" style="mix-blend-mode:multiply" opacity="0.3">
<path d="M139.337 139.975C133.765 140.037 127.743 144.643 125.264 149.092C122.84 153.454 124.464 157.685 125.532 162.128C126.368 165.623 126.631 170.123 125.706 173.642C125.029 176.18 123.387 178.407 122.846 180.971C122.157 184.236 123.496 187.379 126.481 188.109C123.137 190.899 120.227 192.193 118.746 191.271C111.924 187.002 133.349 166.048 116.762 155.677L131.19 132.62C134.711 134.828 137.377 137.31 139.342 139.983L139.337 139.975Z" fill="#93278F"/>
</g>
<g id="Group_4">
<path id="Vector_8" d="M76.2451 132.106L114.008 155.732L100.562 164.629L74.1215 148.1L76.2451 132.106Z" fill="#666666"/>
<path id="Vector_9" d="M79.2507 133.988L111.002 153.85L98.4595 163.314L76.2235 149.414L79.2507 133.988Z" fill="#808080"/>
<path id="Vector_10" d="M82.5609 136.065L107.684 151.778L96.1413 161.86L78.5498 150.863L82.5609 136.065Z" fill="#666666"/>
<path id="Vector_11" d="M86.6768 138.639L103.568 149.205L93.2511 160.06L81.4321 152.668L86.6768 138.639Z" fill="#808080"/>
<path id="Vector_12" d="M91.8548 141.879L98.3948 145.973L89.6285 157.794L85.0544 154.935L91.8548 141.879Z" fill="#666666"/>
</g>
<g id="Group_5" style="mix-blend-mode:multiply" opacity="0.3">
<path id="Vector_13" d="M79.2505 133.988L78.4633 137.999L75.6867 136.26L76.2448 132.106L79.2505 133.988Z" fill="#666666"/>
<path id="Vector_14" d="M114.007 155.732L110.522 158.043L107.75 156.311L111.002 153.85L114.007 155.732Z" fill="#666666"/>
<path id="Vector_15" d="M111.002 153.85L107.75 156.311L104.692 154.396L107.684 151.778L111.002 153.85Z" fill="#808080"/>
<path id="Vector_16" d="M82.5606 136.065L81.517 139.907L78.4633 137.999L79.2505 133.988L82.5606 136.065Z" fill="#808080"/>
<path id="Vector_17" d="M107.684 151.778L104.692 154.396L100.893 152.02L103.568 149.204L107.684 151.778Z" fill="#666666"/>
<path id="Vector_18" d="M86.6762 138.638L85.3154 142.282L81.5167 139.906L82.5603 136.065L86.6762 138.638Z" fill="#666666"/>
<path id="Vector_19" d="M103.568 149.204L100.893 152.02L96.1202 149.032L98.3944 145.972L103.568 149.204Z" fill="#808080"/>
<path id="Vector_20" d="M91.8545 141.878L90.0883 145.27L85.3155 142.282L86.6764 138.638L91.8545 141.878Z" fill="#808080"/>
<path id="Vector_21" d="M98.3943 145.972L96.1201 149.032L90.0881 145.27L91.8543 141.879L98.3943 145.972Z" fill="#666666"/>
</g>
<g id="Group_6">
<path id="Vector_22" d="M143.503 20.8571C143.596 20.9199 143.688 20.962 143.799 21.0023C143.898 21.0396 144.005 21.072 144.111 21.0837C144.221 21.1034 144.334 21.1102 144.442 21.1092C144.551 21.1082 144.662 21.0943 144.768 21.0726C144.875 21.0509 144.98 21.0085 145.076 20.9709C145.176 20.9206 145.271 20.8623 145.354 20.801C145.449 20.7428 145.521 20.6656 145.594 20.5885C145.666 20.5114 145.742 20.4214 145.797 20.3333C145.852 20.2452 145.902 20.1492 145.942 20.0373C145.979 19.9382 146.012 19.8312 146.023 19.726C146.043 19.6159 146.055 19.5107 146.049 19.3945C146.048 19.2862 146.034 19.1749 146.013 19.0684C145.991 18.9619 145.948 18.8572 145.911 18.7604C145.861 18.6606 145.815 18.5686 145.741 18.4833C145.683 18.3884 145.606 18.3159 145.529 18.2433C145.369 18.0904 145.18 17.9776 144.977 17.8951C144.878 17.8579 144.771 17.8254 144.666 17.8137C144.556 17.7941 144.451 17.7823 144.334 17.7882C144.226 17.7893 144.12 17.811 144.013 17.8327C143.907 17.8545 143.802 17.8969 143.697 17.9393C143.597 17.9896 143.502 18.0479 143.42 18.1092C143.325 18.1674 143.253 18.2446 143.18 18.3217C143.1 18.4037 143.032 18.4888 142.977 18.5769C142.914 18.6699 142.869 18.7738 142.832 18.8729C142.794 18.972 142.762 19.079 142.75 19.1842C142.731 19.2943 142.719 19.3995 142.725 19.5157C142.726 19.624 142.739 19.7353 142.769 19.837C142.791 19.9435 142.828 20.0402 142.871 20.1449C142.921 20.2448 142.979 20.3398 143.041 20.422C143.099 20.517 143.176 20.5895 143.253 20.662C143.33 20.7345 143.42 20.8101 143.508 20.865L143.503 20.8571Z" fill="white"/>
<path id="Vector_23" d="M184.645 46.5826C184.738 46.6454 184.842 46.6906 184.941 46.7279C185.04 46.7652 185.147 46.7976 185.252 46.8093C185.362 46.8289 185.475 46.8358 185.584 46.8348C185.692 46.8337 185.803 46.8199 185.91 46.7982C186.016 46.7765 186.121 46.734 186.218 46.6965C186.318 46.6461 186.413 46.5879 186.495 46.5266C186.59 46.4683 186.662 46.3912 186.735 46.3141C186.808 46.2369 186.883 46.147 186.938 46.0589C186.993 45.9708 187.043 45.8747 187.083 45.7629C187.121 45.6638 187.153 45.5568 187.165 45.4516C187.185 45.3415 187.196 45.2363 187.19 45.1201C187.189 45.0118 187.176 44.9004 187.154 44.7939C187.132 44.6875 187.09 44.5828 187.052 44.486C187.002 44.3861 186.944 44.2911 186.882 44.2089C186.824 44.1139 186.747 44.0414 186.67 43.9689C186.511 43.816 186.322 43.7031 186.119 43.6207C186.02 43.5834 185.913 43.551 185.807 43.5393C185.697 43.5196 185.597 43.5158 185.481 43.5217C185.372 43.5228 185.261 43.5366 185.155 43.5583C185.048 43.58 184.943 43.6225 184.847 43.66C184.747 43.7103 184.652 43.7686 184.569 43.8299C184.474 43.8882 184.402 43.9653 184.329 44.0424C184.249 44.1244 184.181 44.2095 184.126 44.2976C183.896 44.6677 183.819 45.1287 183.91 45.5625C183.932 45.669 183.975 45.7737 184.017 45.8784C184.067 45.9783 184.113 46.0702 184.179 46.1603C184.237 46.2553 184.314 46.3278 184.391 46.4004C184.473 46.4808 184.558 46.5484 184.647 46.6033L184.645 46.5826Z" fill="white"/>
</g>
<path id="Vector_24" d="M75.298 131.521C75.298 131.521 73.2926 107.691 87.0343 85.7189C99.3922 65.9672 125.844 32.2279 141.433 21.0159C155.938 10.5773 169.57 5.99957 178.083 11.3225C186.602 16.6534 188.447 30.9109 185.404 48.5137C182.132 67.4325 163.358 105.984 151.008 125.731C137.261 147.695 114.946 156.322 114.946 156.322L75.2852 131.518L75.298 131.521Z" fill="#F2F2F2"/>
<g id="Vector_25" style="mix-blend-mode:multiply">
<path d="M178.083 11.3225C182.499 14.0828 185.121 19.2491 186.195 26.0293C179.338 23.0887 171.693 24.1593 164.751 26.4112C149.416 31.3907 138.128 41.9592 129.814 55.4961C122.443 67.4967 117.105 80.9301 119.398 95.2073C120.41 101.513 123.463 108.714 128.04 113.303C134.557 119.828 143.36 120.683 151.614 117.213C153.794 116.29 155.879 115.197 157.887 113.977C155.474 118.32 153.146 122.307 151.008 125.731C137.261 147.695 114.946 156.322 114.946 156.322L75.2852 131.518C75.2852 131.518 73.2799 107.688 87.0215 85.7158C99.3794 65.9641 125.831 32.2248 141.42 21.0129C155.925 10.5742 169.557 5.99652 178.071 11.3195L178.083 11.3225Z" fill="#F2F2F2"/>
</g>
<g id="Vector_26" style="mix-blend-mode:multiply">
<path d="M104.264 75.9403C102.376 83.2729 100.542 91.1386 100.945 98.7437C101.722 113.373 108.697 128.395 123.927 132.857C132.087 135.239 139.873 134.364 147.059 131.408C133.381 149.202 114.951 156.33 114.951 156.33L75.2899 131.526C75.2899 131.526 73.2846 107.696 87.0263 85.7237C94.4871 73.7987 107.089 56.7726 119.336 42.6865C112.397 52.8325 107.263 64.235 104.256 75.9452L104.264 75.9403Z" fill="#F2F2F2"/>
</g>
<path id="Vector_27" d="M141.433 21.0159C144.553 29.2319 150.529 36.7419 158.907 41.9849C167.284 47.228 176.656 49.313 185.409 48.5216C188.455 30.906 186.61 16.6484 178.084 11.3224C169.565 5.99158 155.933 10.5693 141.433 21.0159Z" fill="#93278F"/>
<g id="Vector_28" style="mix-blend-mode:multiply" opacity="0.3">
<path d="M170.991 9.13587C168.406 10.0016 166.062 11.9177 164.395 15.009C159.745 23.6645 163.95 31.4114 169.344 38.4509C172.332 42.3477 176.943 44.77 181.914 43.4975C183.635 43.0525 185.167 42.1571 186.419 40.9649C186.187 43.3942 185.851 45.92 185.396 48.5186C176.643 49.31 167.271 47.225 158.894 41.9819C150.516 36.7389 144.54 29.2289 141.42 21.0129C152.385 13.115 162.844 8.58695 170.978 9.13281L170.991 9.13587Z" fill="#93278F"/>
</g>
<g id="Vector_29" style="mix-blend-mode:multiply" opacity="0.3">
<path d="M157.198 11.9395C157.117 12.0214 157.045 12.0986 156.964 12.1806C151.65 18.1719 152.277 25.3242 155.699 32.0802C158.502 37.5935 162.651 43.207 168.118 46.368C164.966 45.2947 161.872 43.8372 158.889 41.974C150.511 36.731 144.535 29.2209 141.415 21.0049C146.87 17.073 152.197 13.9815 157.18 11.9285L157.198 11.9395Z" fill="#93278F"/>
</g>
<g id="Group_7">
<path id="Vector_30" d="M162.182 39.9007C162.673 39.1204 162.434 38.0907 161.654 37.5998C160.874 37.1089 159.844 37.3481 159.353 38.1284C158.862 38.9087 159.101 39.9383 159.881 40.4293C160.661 40.9202 161.691 40.681 162.182 39.9007Z" fill="white"/>
<path id="Vector_31" d="M166.304 43.7991C167.156 44.1587 168.135 43.7655 168.5 42.9211C168.86 42.0689 168.467 41.0901 167.622 40.7256C166.778 40.361 165.791 40.7591 165.426 41.6035C165.101 42.3695 165.389 43.2489 166.077 43.6771C166.147 43.721 166.225 43.76 166.304 43.7991Z" fill="white"/>
<path id="Vector_32" d="M156.397 35.9541C157.003 35.2555 156.925 34.2036 156.226 33.5972C155.528 32.9908 154.476 33.0695 153.869 33.7681C153.263 34.4667 153.341 35.5186 154.04 36.1249C154.107 36.1816 154.174 36.2383 154.253 36.2774C154.94 36.7055 155.855 36.5804 156.397 35.9541Z" fill="white"/>
<path id="Vector_33" d="M173.32 46.2175C174.211 46.4446 175.127 45.8943 175.341 45.0004C175.564 44.1017 175.023 43.2023 174.132 42.9752C173.233 42.753 172.326 43.2984 172.111 44.1923C171.932 44.9122 172.249 45.6433 172.844 46.0087C172.99 46.1044 173.149 46.1697 173.328 46.2126L173.32 46.2175Z" fill="white"/>
<path id="Vector_34" d="M151.144 31.0825C151.847 30.488 151.944 29.4376 151.345 28.7268C150.751 28.0238 149.7 27.9273 148.989 28.5265C148.286 29.121 148.189 30.1714 148.783 30.8743C148.899 31.0102 149.026 31.1284 149.18 31.2192C149.779 31.5925 150.572 31.553 151.144 31.0825Z" fill="white"/>
<path id="Vector_35" d="M181.273 47.125C182.193 47.2037 182.992 46.5176 183.071 45.5979C183.15 44.6783 182.459 43.8712 181.545 43.8003C180.625 43.7216 179.818 44.4126 179.746 45.3274C179.694 45.9697 180.011 46.559 180.522 46.8774C180.747 47.0122 180.996 47.099 181.273 47.125Z" fill="white"/>
<path id="Vector_36" d="M146.779 24.7083C147.573 24.2436 147.834 23.2124 147.369 22.419C146.892 21.6225 145.873 21.3648 145.08 21.8295C144.286 22.2942 144.02 23.3176 144.49 24.1189C144.635 24.3563 144.819 24.5489 145.043 24.6837C145.554 25.002 146.228 25.0353 146.779 24.7083Z" fill="white"/>
</g>
<g id="Vector_37" filter="url(#filter0_d_114_36031)">
<path d="M126.49 57.5157C132.45 48.711 144.419 46.403 153.223 52.3606C162.028 58.3182 164.333 70.2854 158.373 79.09C152.413 87.8946 140.444 90.2026 131.64 84.2451C122.836 78.2875 120.53 66.3203 126.49 57.5157Z" fill="#93278F"/>
</g>
<g id="Vector_38" style="mix-blend-mode:multiply" opacity="0.3">
<path d="M131.915 52.1713C131.25 52.8625 130.637 53.5866 130.06 54.3327C127.081 58.2169 125.975 64.2314 126.81 68.969C127.631 73.6495 130.74 79.0404 134.856 81.6141C139.43 84.4732 144.18 85.5581 149.493 84.8603C151.237 84.6301 152.891 84.095 154.439 83.3316C152.259 85.0709 149.657 86.3716 146.755 87.0398C136.39 89.4297 126.064 82.9633 123.676 72.5999C121.81 64.5088 125.348 56.4372 131.914 52.1506L131.915 52.1713Z" fill="#93278F"/>
</g>
<path id="Vector_39" d="M134.594 84.6503C135.338 85.011 136.239 84.6869 136.6 83.9429C136.956 83.191 136.642 82.3054 135.893 81.9368C135.141 81.581 134.243 81.8922 133.887 82.6441C133.551 83.3401 133.805 84.1642 134.445 84.5673C134.493 84.5923 134.546 84.6252 134.594 84.6503ZM130.387 79.8671C131.038 79.348 131.136 78.4059 130.617 77.7548C130.103 77.1116 129.156 77.006 128.504 77.5251C127.853 78.0442 127.755 78.9863 128.274 79.6374C128.39 79.7732 128.512 79.8835 128.653 79.9714C129.182 80.3007 129.876 80.2781 130.392 79.875L130.387 79.8671ZM142.464 86.436C143.289 86.4313 143.964 85.7559 143.968 84.9262C143.963 84.1013 143.296 83.4214 142.463 83.431C141.633 83.4278 140.958 84.1032 140.967 84.936C140.967 85.4695 141.246 85.9414 141.673 86.2128C141.903 86.3555 142.18 86.4356 142.477 86.4391L142.464 86.436ZM126.568 73.4956C127.377 73.3047 127.887 72.5019 127.696 71.6931C127.696 71.6931 127.681 71.6694 127.685 71.6566C127.494 70.8479 126.691 70.338 125.89 70.5241C125.076 70.7071 124.579 71.513 124.757 72.3187C124.757 72.3187 124.767 72.3345 124.772 72.3424C124.772 72.3424 124.781 72.3582 124.786 72.3661C124.879 72.7666 125.129 73.1034 125.451 73.3089C125.773 73.5144 126.18 73.5917 126.581 73.4986L126.568 73.4956ZM150.332 84.6291C151.081 84.2684 151.391 83.3704 151.03 82.6222C150.67 81.874 149.772 81.5642 149.023 81.9249C148.275 82.2857 147.965 83.1837 148.321 83.9239C148.452 84.1918 148.645 84.4001 148.874 84.5429C149.297 84.8063 149.839 84.8552 150.328 84.6212L150.332 84.6291ZM125.896 66.0554C126.703 66.2356 127.506 65.7326 127.699 64.9281C127.879 64.1205 127.377 63.318 126.572 63.1251C125.764 62.9449 124.962 63.4479 124.769 64.2524C124.628 64.894 124.913 65.5362 125.442 65.8655C125.578 65.9454 125.73 66.0156 125.904 66.0506L125.896 66.0554ZM156.633 79.5902C157.148 78.9371 157.042 78.0001 156.397 77.4808C155.744 76.9663 154.799 77.0773 154.279 77.7225C153.76 78.3677 153.871 79.3126 154.524 79.8271C154.569 79.8649 154.609 79.8948 154.662 79.9277C155.301 80.3308 156.152 80.1904 156.633 79.5902ZM130.622 58.8563C131.141 58.2111 131.031 57.2662 130.385 56.7469C129.732 56.2324 128.795 56.3386 128.276 56.9838C127.761 57.6369 127.867 58.5739 128.512 59.0932C128.557 59.131 128.61 59.1639 128.65 59.1938C129.285 59.589 130.14 59.4565 130.622 58.8563ZM158.332 73.441C159.145 73.6291 159.942 73.1181 160.136 72.3136C160.316 71.5061 159.813 70.7035 159.001 70.5155C158.188 70.3274 157.39 70.8384 157.202 71.6508C157.049 72.2892 157.341 72.9266 157.87 73.256C158.011 73.3438 158.158 73.4061 158.332 73.441ZM135.878 54.6539C136.626 54.2932 136.949 53.3983 136.588 52.6501C136.228 51.9019 135.33 51.592 134.577 51.9449C133.828 52.3056 133.505 53.2005 133.866 53.9487C133.998 54.2166 134.191 54.4249 134.425 54.5756C134.848 54.839 135.39 54.888 135.878 54.6539ZM158.993 66.0437C159.807 65.8607 160.304 65.0549 160.122 64.2413C159.939 63.4277 159.133 62.9306 158.319 63.1136C157.505 63.2967 157.008 64.1025 157.191 64.9161C157.284 65.3165 157.534 65.6533 157.856 65.8588C158.178 66.0644 158.585 66.1416 158.985 66.0486L158.993 66.0437ZM142.448 53.1637C143.278 53.1668 143.953 52.4915 143.952 51.6538C143.955 50.8241 143.28 50.149 142.447 50.1586C141.622 50.1634 140.942 50.8308 140.951 51.6636C140.951 52.1971 141.235 52.6769 141.658 52.9404C141.887 53.0831 142.157 53.1681 142.453 53.1716L142.448 53.1637ZM156.388 59.092C157.039 58.573 157.145 57.626 156.626 56.9749C156.111 56.3317 155.16 56.2182 154.513 56.7452C153.862 57.2643 153.756 58.2113 154.278 58.8496C154.386 58.9903 154.516 59.0958 154.649 59.1884C155.178 59.5178 155.872 59.4951 156.388 59.092ZM149.01 54.6627C149.754 55.0234 150.652 54.7122 151.013 53.9682C151.382 53.2193 151.063 52.3258 150.314 51.9572C149.562 51.6013 148.664 51.9126 148.308 52.6645C147.972 53.3605 148.219 54.1894 148.858 54.5925C148.906 54.6175 148.954 54.6425 149.007 54.6755L149.01 54.6627Z" fill="white"/>
<path id="Vector_40" d="M128.861 71.4258C130.593 78.9242 138.067 83.5995 145.559 81.871C153.058 80.1378 157.735 72.6636 156.008 65.1731C154.277 57.6747 146.803 52.9994 139.311 54.7278C131.819 56.4563 127.134 63.9353 128.861 71.4258Z" fill="#662D91"/>
<g id="Group_8">
<path id="Vector_41" d="M132.277 76.1815C136.631 81.7898 144.706 82.8076 150.315 78.4537C155.925 74.0998 156.945 66.0255 152.592 60.4172C148.239 54.8089 140.164 53.7911 134.554 58.1449C128.944 62.4988 127.924 70.5732 132.277 76.1815Z" fill="#29DFE2"/>
<g id="Vector_42" style="mix-blend-mode:multiply">
<path d="M132.215 61.4195C131.51 65.3694 132.398 70.5317 134.908 73.7738C137.699 77.3667 141.14 79.6029 145.553 80.6002C145.681 80.6309 145.799 80.6457 145.926 80.6763C141.038 82.05 135.589 80.4463 132.282 76.1895C128.529 71.3462 128.778 64.6807 132.513 60.1474C132.396 60.5785 132.292 61.0127 132.212 61.4323L132.215 61.4195Z" fill="#29DFE2"/>
</g>
<g id="Vector_43" style="mix-blend-mode:overlay" opacity="0.5">
<path d="M146.221 56.0134C147.943 56.5478 149.566 57.4367 150.97 58.6781L148.316 79.7233C146.651 80.5802 144.853 81.0403 143.055 81.1293L146.221 56.0134Z" fill="white"/>
</g>
<g id="Vector_44" style="mix-blend-mode:overlay" opacity="0.5">
<path d="M142.513 55.4551C143.214 55.4611 143.915 55.5212 144.609 55.6403L141.399 81.1102C140.698 81.05 140.009 80.9388 139.327 80.7686L142.521 55.4502L142.513 55.4551Z" fill="white"/>
</g>
</g>
<path id="Vector_45" d="M91.4065 137.416C82.6418 151.426 72.4033 173.657 75.6556 175.693C78.908 177.729 94.4255 158.795 103.19 144.786C111.955 130.776 110.648 126.992 107.396 124.957C104.144 122.921 100.171 123.407 91.4065 137.416Z" fill="#93278F"/>
<g id="Vector_46" style="mix-blend-mode:multiply" opacity="0.3">
<path d="M107.396 124.957C107.736 125.173 108.056 125.412 108.346 125.67C103.352 126.499 99.0622 131.122 96.3622 135.14C93.8398 138.898 91.9505 143.083 90.1531 147.224C89.1072 149.64 87.7134 152.662 88.9723 155.266C90.3221 158.054 92.1792 158.56 94.2652 157.663C86.4141 168.063 77.9533 177.148 75.6526 175.706C72.4002 173.67 82.6387 151.438 91.4034 137.429C100.168 123.419 104.141 122.934 107.393 124.969L107.396 124.957Z" fill="#93278F"/>
</g>
<g id="Vector_47" style="mix-blend-mode:multiply" opacity="0.3">
<path d="M100.412 125.949C99.8433 126.798 99.2594 127.712 98.6474 128.686C89.8827 142.695 79.6443 164.927 82.8966 166.963C84.3593 167.874 88.2717 164.571 92.9437 159.398C85.49 169.043 77.8331 177.059 75.6557 175.693C72.4033 173.657 82.6418 151.425 91.4065 137.416C95.1943 131.369 98.082 127.835 100.412 125.949Z" fill="#93278F"/>
</g>
<g id="Vector_48" style="mix-blend-mode:overlay" opacity="0.5">
<path d="M176.622 30.1553C177.006 34.7444 179.073 38.3124 181.243 38.1371C183.42 37.9568 184.874 34.0921 184.49 29.503C184.106 24.9138 182.038 21.3458 179.869 21.5212C177.7 21.6966 176.238 25.5662 176.622 30.1553Z" fill="white"/>
</g>
<g id="Vector_49" style="mix-blend-mode:overlay" opacity="0.5">
<path d="M168.612 66.9862C167.07 71.3296 167.496 75.4358 169.543 76.1629C171.603 76.8931 174.514 73.9651 176.061 69.6297C177.603 65.2863 177.177 61.1802 175.13 60.453C173.07 59.7228 170.159 62.6508 168.612 66.9862Z" fill="white"/>
</g>
<g id="Vector_50" style="mix-blend-mode:overlay" opacity="0.5">
<path d="M174.101 53.5149C173.512 55.1832 174.383 57.0126 176.051 57.6016C177.719 58.1907 179.549 57.3195 180.138 55.6512C180.728 53.9829 179.857 52.1536 178.189 51.5645C176.52 50.9754 174.691 51.8466 174.101 53.5149Z" fill="white"/>
</g>
</g>
</g>
</g>
</g>
<defs>
<filter id="filter0_d_114_36031" x="123.179" y="49.0522" width="39.5059" height="41.5015" filterUnits="userSpaceOnUse" color-interpolation-filters="sRGB">
<feFlood flood-opacity="0" result="BackgroundImageFix"/>
<feColorMatrix in="SourceAlpha" type="matrix" values="0 0 0 0 0 0 0 0 0 0 0 0 0 0 0 0 0 0 127 0" result="hardAlpha"/>
<feOffset dx="1" dy="3"/>
<feColorMatrix type="matrix" values="0 0 0 0 0 0 0 0 0 0 0 0 0 0 0 0 0 0 0.8 0"/>
<feBlend mode="normal" in2="BackgroundImageFix" result="effect1_dropShadow_114_36031"/>
<feBlend mode="normal" in="SourceGraphic" in2="effect1_dropShadow_114_36031" result="shape"/>
</filter>
<clipPath id="clip0_114_36031">
<rect width="136.386" height="202.812" fill="white" transform="matrix(-0.522647 -0.852549 -0.852549 0.522647 244.188 116.275)"/>
</clipPath>
</defs>
</svg>
