<svg width="88" height="88" viewBox="0 0 88 88" fill="none" xmlns="http://www.w3.org/2000/svg">
<g clip-path="url(#clip0_156_59583)">
<path d="M30.39 32.75L2 34.38L0 63.88L2.23 72.64L18.13 56.74L30.39 32.75Z" fill="url(#paint0_radial_156_59583)"/>
<path d="M54.6798 57.04L53.0498 85.43L23.5498 87.43L14.7798 85.2L30.6898 69.29L54.6798 57.04Z" fill="url(#paint1_radial_156_59583)"/>
<path d="M84.4604 3.00002C84.4604 3.00002 69.8304 -2.92998 53.4204 1.89002L85.5604 34.03C90.3804 17.62 84.4604 2.99002 84.4504 2.99002L84.4604 3.00002Z" fill="url(#paint2_radial_156_59583)"/>
<path d="M13.2002 61.72L25.7302 74.25C25.7302 74.25 30.0102 74.1 36.3902 72.77L14.6802 51.07C13.3502 57.45 13.2002 61.73 13.2002 61.73V61.72Z" fill="url(#paint3_linear_156_59583)"/>
<path d="M76.2502 50.89C81.0402 45.4 83.9202 39.62 85.5602 34.04L53.4202 1.89001C47.8402 3.53001 42.0502 6.41001 36.5702 11.2C22.5602 23.43 16.9302 40.26 14.6802 51.07L36.3902 72.78C47.2002 70.53 64.0302 64.9 76.2602 50.89H76.2502Z" fill="url(#paint4_radial_156_59583)"/>
<path d="M67.1002 47.7C59.5502 55.25 47.3102 55.25 39.7602 47.7C32.2102 40.15 32.2102 27.91 39.7602 20.36C47.3102 12.81 59.5502 12.81 67.1002 20.36C74.6502 27.91 74.6502 40.15 67.1002 47.7Z" fill="url(#paint5_radial_156_59583)"/>
<path d="M65.1899 45.79C58.6899 52.29 48.1599 52.28 41.6699 45.79C35.1699 39.29 35.1699 28.76 41.6699 22.27C48.1699 15.77 58.6999 15.77 65.1899 22.27C71.6799 28.76 71.6899 39.3 65.1899 45.79Z" fill="url(#paint6_radial_156_59583)"/>
</g>
<defs>
<radialGradient id="paint0_radial_156_59583" cx="0" cy="0" r="1" gradientUnits="userSpaceOnUse" gradientTransform="translate(25.4009 29.9379) rotate(45) scale(40.33)">
<stop stop-color="#FF615E"/>
<stop offset="0.53" stop-color="#E72D29"/>
<stop offset="1" stop-color="#B02320"/>
</radialGradient>
<radialGradient id="paint1_radial_156_59583" cx="0" cy="0" r="1" gradientUnits="userSpaceOnUse" gradientTransform="translate(57.4655 61.9926) rotate(-135) scale(40.33)">
<stop stop-color="#FF615E"/>
<stop offset="0.53" stop-color="#E72D29"/>
<stop offset="1" stop-color="#B02320"/>
</radialGradient>
<radialGradient id="paint2_radial_156_59583" cx="0" cy="0" r="1" gradientUnits="userSpaceOnUse" gradientTransform="translate(83.7235 3.23756) rotate(45) scale(25.61)">
<stop stop-color="#FF615E"/>
<stop offset="0.53" stop-color="#E72D29"/>
<stop offset="1" stop-color="#B02320"/>
</radialGradient>
<linearGradient id="paint3_linear_156_59583" x1="21.0312" y1="49.3975" x2="25.8042" y2="72.2017" gradientUnits="userSpaceOnUse">
<stop stop-color="#868FC9"/>
<stop offset="1" stop-color="#272D61"/>
</linearGradient>
<radialGradient id="paint4_radial_156_59583" cx="0" cy="0" r="1" gradientUnits="userSpaceOnUse" gradientTransform="translate(72.7889 22.7495) rotate(135) scale(56.38 37.2108)">
<stop stop-color="white"/>
<stop offset="1" stop-color="#CBDDF3"/>
</radialGradient>
<radialGradient id="paint5_radial_156_59583" cx="0" cy="0" r="1" gradientUnits="userSpaceOnUse" gradientTransform="translate(56.4953 26.6859) rotate(45) scale(27.33)">
<stop stop-color="#FFE705"/>
<stop offset="0.45" stop-color="#FFA905"/>
<stop offset="0.82" stop-color="#FF7E05"/>
<stop offset="1" stop-color="#FF6E05"/>
</radialGradient>
<radialGradient id="paint6_radial_156_59583" cx="0" cy="0" r="1" gradientUnits="userSpaceOnUse" gradientTransform="translate(56.0637 27.7112) rotate(45) scale(23.51)">
<stop stop-color="#868FC9"/>
<stop offset="0.23" stop-color="#5D67A5"/>
<stop offset="1" stop-color="#272D61"/>
</radialGradient>
<clipPath id="clip0_156_59583">
<rect width="87.45" height="87.43" fill="white"/>
</clipPath>
</defs>
</svg>
