<svg width="92" height="92" viewBox="0 0 92 92" fill="none" xmlns="http://www.w3.org/2000/svg">
<g clip-path="url(#clip0_156_59635)">
<path d="M91.8758 33.9172C91.7888 33.7332 91.6446 33.467 91.401 33.156C91.1599 32.845 90.8044 32.5117 90.3469 32.1933C89.8895 31.8748 89.3302 31.5788 88.6962 31.3276C88.0648 31.0713 87.3612 30.8524 86.6204 30.6608C85.8771 30.4693 85.0741 30.2902 84.1965 30.1907C83.319 30.0937 82.3643 30.0613 81.3351 30.2305C80.8205 30.3225 80.291 30.4569 79.7615 30.6758C79.2369 30.8947 78.7049 31.1808 78.2276 31.5564C77.7379 31.9171 77.3103 32.3699 76.9498 32.8202C76.5868 33.2729 76.2935 33.7381 76.0374 34.1809C75.5924 34.9571 75.2494 35.6885 74.9386 36.2756C74.8516 35.9646 74.7621 35.6537 74.6651 35.3427C74.7894 34.9521 74.8665 34.574 74.9088 34.2332C74.9883 33.6162 74.9759 33.1162 74.961 32.6883C74.9386 31.7977 74.9237 30.9171 75.0107 30.0961C75.053 29.6857 75.1201 29.2901 75.222 28.912C75.2717 28.7229 75.3314 28.5388 75.4035 28.3597C75.4383 28.2652 75.4731 28.1881 75.5079 28.106C75.5402 28.0214 75.585 27.9443 75.6272 27.8622C75.9778 27.2204 76.5297 26.678 77.0965 26.3571C77.6608 26.0288 78.245 25.9044 78.6676 25.9044C78.8765 25.9093 79.0455 25.9193 79.1574 25.9442C79.2717 25.9616 79.3339 25.9715 79.3339 25.9715C79.3339 25.9715 79.2842 25.9317 79.1872 25.8596C79.0927 25.78 78.9436 25.6879 78.7397 25.5735C78.6353 25.5238 78.5185 25.4715 78.3892 25.4143C78.255 25.372 78.1108 25.3123 77.9467 25.2775C77.6185 25.1904 77.2357 25.1531 76.8056 25.1556C75.9479 25.173 74.9287 25.4242 73.9318 26.0288C73.8075 26.1059 73.6807 26.183 73.5614 26.275C73.4395 26.3646 73.3128 26.4566 73.2034 26.5487C72.9722 26.7328 72.7509 26.9343 72.5396 27.1482C72.4451 27.2428 72.3532 27.3423 72.2612 27.4418C72.2761 27.4119 72.291 27.3846 72.3059 27.3547C72.6341 26.5885 72.8653 25.7949 72.91 24.9765C72.9175 24.5685 72.9274 24.163 72.8702 23.76C72.8454 23.5585 72.823 23.3595 72.7882 23.1604C72.7509 22.9639 72.6987 22.7276 72.6614 22.5932C72.4949 22.0012 72.3034 21.4713 72.117 21.021L71.5974 19.7697C71.4383 19.3891 71.3239 19.0557 71.227 18.7448L71.1723 18.5259L71.1425 18.4164C71.135 18.3816 71.1325 18.3517 71.1275 18.3169L71.0903 18.1179C71.0878 18.0557 71.0828 17.991 71.0753 17.9238C71.0505 17.4014 71.2469 16.7596 71.6521 16.1178C72.0523 15.4759 72.6291 14.8466 73.2804 14.2719C73.9417 13.6948 74.6279 13.1748 75.3786 12.834C75.5676 12.7469 75.759 12.6748 75.9529 12.6126C76.0523 12.5828 76.1493 12.5554 76.2388 12.533C76.3208 12.5056 76.4576 12.4932 76.5694 12.4733H76.5744C76.5918 12.4733 76.557 12.4733 76.562 12.4733H76.5719L76.5893 12.4708L76.6266 12.4658L76.7012 12.4559C76.7509 12.4484 76.8006 12.4434 76.8528 12.4434C76.9548 12.4385 77.0567 12.4335 77.1611 12.441C77.3674 12.4459 77.5763 12.4758 77.7851 12.5231C78.608 12.7071 79.4333 13.2271 79.8037 14.1127C79.7466 13.6475 79.5527 13.1674 79.2394 12.7743C78.9336 12.3713 78.5284 12.0429 78.0735 11.7892C77.8448 11.6648 77.6036 11.5553 77.3501 11.4757C77.2233 11.431 77.094 11.3961 76.9622 11.3663C76.8976 11.3489 76.8305 11.3364 76.7633 11.3265L76.6614 11.3091L76.6117 11.3016L76.5868 11.2966H76.5744C76.5744 11.2966 76.5396 11.2966 76.552 11.2941H76.5471C76.4228 11.2817 76.3283 11.2593 76.1742 11.2568C76.03 11.2493 75.8932 11.2469 75.7615 11.2493C75.493 11.2543 75.2245 11.2767 74.961 11.3165C73.8995 11.4708 72.9175 11.8588 72.0026 12.2867C71.0828 12.727 70.1655 13.2644 69.3103 14.0157C68.8852 14.3913 68.475 14.8267 68.112 15.3366C67.7515 15.8466 67.4383 16.4387 67.2295 17.0929C67.1822 17.2571 67.1375 17.4238 67.0927 17.593C67.0604 17.7597 67.0306 17.9263 67.0032 18.093C66.9908 18.1776 66.9734 18.2622 66.9635 18.3443L66.9436 18.5856C66.9312 18.7448 66.9187 18.9139 66.9137 19.0707C66.9038 19.6926 66.9411 20.2872 66.9983 20.817L67.1673 22.2922C67.1773 22.3694 67.1822 22.444 67.1897 22.5186C66.9635 22.2773 66.7323 22.0385 66.4961 21.8022C66.3221 21.628 66.1481 21.4589 65.9715 21.2897C65.9765 20.6976 65.9716 20.1304 65.974 19.5433C65.974 18.1527 65.974 16.7646 65.974 15.461C65.974 15.155 65.979 14.8764 65.9989 14.6177C66.0088 14.4883 66.0238 14.3639 66.0461 14.2495L66.076 14.0704L66.1232 13.8963C66.2475 13.4286 66.4787 12.9932 66.7522 12.625C67.3041 11.8812 68.02 11.416 68.5595 11.1896C68.6937 11.1299 68.818 11.0802 68.9299 11.0478C69.0393 11.0105 69.1363 10.9807 69.2133 10.9633C69.3724 10.9259 69.4569 10.906 69.4569 10.906C69.4569 10.906 69.3699 10.8961 69.2083 10.8762C69.1263 10.8638 69.0244 10.8588 68.9026 10.8563C68.7808 10.8488 68.6415 10.8513 68.4849 10.8588C67.8584 10.8861 66.9212 11.0727 65.9318 11.7046C65.4395 12.0205 64.9374 12.4509 64.5123 13.0281C64.46 13.1002 64.4054 13.1748 64.3531 13.2495C64.3059 13.3291 64.2562 13.4062 64.2065 13.4858C64.1045 13.6475 64.02 13.8117 63.9405 13.9808C63.7789 14.3142 63.6471 14.655 63.5253 14.9809C63.1375 16.0282 62.7248 17.1352 62.3096 18.2522C61.0443 17.3492 59.7292 16.5457 58.3743 15.8441L58.158 15.2023L58.0436 14.8416C58.0063 14.7247 57.9765 14.6053 57.9467 14.5281C57.8323 14.1575 57.7776 13.7296 57.8696 13.3017C57.9392 12.9783 58.0834 12.6698 58.2699 12.3613C58.4886 12.0205 58.7646 11.6747 59.0405 11.3066C59.3165 10.9384 59.5974 10.5478 59.8013 10.1075C60.0076 9.66469 60.0996 9.20197 60.03 8.73678C59.9305 9.15222 59.6645 9.53035 59.3587 9.79405C59.0505 10.0677 58.695 10.2816 58.3171 10.4981C57.9417 10.7145 57.5415 10.9259 57.1338 11.1971C56.6937 11.4981 56.2661 11.8638 55.9231 12.3141C55.4855 12.8937 55.2146 13.6027 55.0778 14.3615C53.9715 13.9361 52.8479 13.5704 51.7118 13.2694C51.6297 12.8564 51.6049 12.4136 51.6471 11.9782C51.7192 11.2095 51.9728 10.4732 52.3084 9.88609C52.644 9.29402 53.0716 8.87857 53.3898 8.59249C53.5539 8.46064 53.6956 8.3686 53.7901 8.29894C53.887 8.23177 53.9392 8.19446 53.9392 8.19446C53.9392 8.19446 53.8771 8.20192 53.7602 8.21436C53.6434 8.23177 53.4669 8.24421 53.2431 8.28401C52.8081 8.38601 52.1568 8.56264 51.4458 9.00047C50.7397 9.43333 49.9765 10.0975 49.3401 11.0155C49.0194 11.4782 48.7335 12.0056 48.5123 12.5877C48.2313 12.543 47.9479 12.5007 47.667 12.4633C47.5825 11.9608 47.4607 11.4633 47.2991 10.9732C47.053 10.2418 46.7174 9.52538 46.2574 8.86614C46.0312 8.53527 45.7752 8.22182 45.4868 7.93325C45.2059 7.64219 44.8802 7.37352 44.5868 7.1745C44.4377 7.07002 44.2985 6.98544 44.1592 6.90086C44.0871 6.85857 44.0673 6.85857 44.0275 6.84364L43.9156 6.80384C43.764 6.74911 43.6024 6.6894 43.4358 6.61477C43.1077 6.468 42.7546 6.26152 42.506 5.94807C42.25 5.63462 42.1381 5.22912 42.1505 4.8286C42.163 4.42311 42.2823 4.01264 42.4837 3.61461C42.5831 3.41559 42.7024 3.21658 42.8342 3.01756C42.8988 2.91805 42.9684 2.81606 43.043 2.71157L43.2866 2.37822C43.6173 1.92546 43.9504 1.4528 44.1891 0.947798C43.7714 1.31846 43.3115 1.60455 42.8392 1.89063L42.4787 2.10955C42.3519 2.18916 42.2177 2.27374 42.0884 2.3633C41.8249 2.53992 41.5614 2.73148 41.3103 2.94542C40.8106 3.37579 40.3631 3.90816 40.0623 4.52759C39.759 5.14454 39.6223 5.86597 39.7341 6.56004C39.8485 7.24913 40.1543 7.88847 40.5893 8.48303C40.8081 8.78155 41.0542 9.07261 41.3202 9.36368L41.5216 9.58259C41.5837 9.65225 41.6683 9.74181 41.7006 9.78658C41.7652 9.88112 41.8323 9.97316 41.8771 10.0553C41.979 10.2269 42.0238 10.3563 42.0635 10.503C42.1058 10.6473 42.1307 10.7966 42.1481 10.9508C42.1829 11.2568 42.1704 11.5877 42.1207 11.921C42.1058 12.0106 42.0909 12.1001 42.071 12.1897C41.1313 12.222 40.1916 12.2942 39.2568 12.4086C38.8591 12.1225 38.506 11.8762 38.2624 11.722C37.8696 11.4334 37.4942 10.9757 37.3973 10.4209C37.3227 9.99555 37.35 9.58508 37.3973 8.95072C37.4122 8.64971 37.4097 8.33626 37.3376 8.05017C37.2705 7.75911 37.1188 7.48049 36.8827 7.27152C36.9697 7.49542 36.9647 7.7616 36.8827 8.00539C36.8429 8.12729 36.7882 8.2467 36.7285 8.35616C36.6664 8.46313 36.5993 8.5701 36.5272 8.67458C36.2512 9.06018 35.8187 9.62986 35.5576 10.2568C35.2071 11.0926 35.2295 12.0628 35.5054 12.9957C35.5129 13.0231 35.5228 13.0504 35.5328 13.0778C34.5707 13.3092 33.616 13.5853 32.6738 13.9062C32.3531 13.4908 32.0151 13.0878 31.6571 12.7096C31.0977 12.12 30.5135 11.5877 29.8373 11.0752C29.1611 10.5677 28.3929 10.1 27.5253 9.76419C26.6279 9.42089 25.8497 9.31641 25.2431 9.22188C24.9374 9.17461 24.6689 9.13481 24.4377 9.08754C24.2363 9.05271 24.0697 9.02037 23.8858 8.95072C23.6098 8.84375 23.3463 8.66961 23.1275 8.43825L22.9684 8.25416L22.8267 8.05266C22.7894 7.98549 22.7447 7.91584 22.6999 7.83125L22.5856 7.57253C22.3022 6.85857 22.2201 5.96797 22.3793 5.11967C22.5483 4.23405 22.9386 3.34345 23.4433 2.49017C23.9479 1.6344 24.562 0.813462 25.176 -0.00250244C24.3581 0.611959 23.5402 1.22891 22.7745 1.95034C22.0113 2.66928 21.2904 3.50764 20.7633 4.52759C20.2313 5.58238 19.9579 6.78145 20.0499 8.05763C20.0648 8.21685 20.0871 8.37855 20.107 8.54025C20.1344 8.69697 20.1717 8.86614 20.2114 9.04276C20.2587 9.20695 20.3084 9.37363 20.3631 9.5403C20.4252 9.702 20.4924 9.8637 20.562 10.0254C20.8578 10.6647 21.2929 11.2493 21.8423 11.7295C22.0213 11.8812 22.2102 12.028 22.4066 12.1598C22.506 12.2245 22.6055 12.2917 22.7099 12.3514C22.8118 12.4111 22.9212 12.4758 23.0132 12.5231C23.3861 12.727 23.7416 12.8912 24.0598 13.038C24.7012 13.3291 25.1934 13.5778 25.4719 13.8266C25.7752 14.0853 26.0635 14.4112 26.342 14.8018C26.6179 15.1899 26.8988 15.6501 27.1226 16.1078C27.1574 16.18 27.1897 16.2521 27.2245 16.3243C25.708 17.1726 24.2463 18.1502 22.8516 19.2572C22.598 19.215 22.3444 19.1801 22.0958 19.1528C21.8298 19.1304 21.6732 19.1353 21.4818 19.1304H21.3525C21.3202 19.1304 21.3053 19.1378 21.2779 19.1403C21.2257 19.1478 21.1735 19.1528 21.1213 19.1602C20.9075 19.1801 20.6738 19.1776 20.4402 19.1254C20.2338 19.0781 20.03 18.9936 19.8435 18.8692C19.6596 18.7448 19.4955 18.5831 19.3513 18.394C19.2071 18.205 19.0853 17.991 18.9858 17.7547C18.9361 17.6353 18.8914 17.5159 18.8516 17.3815C18.8093 17.2422 18.7795 17.0905 18.7497 16.9387C18.695 16.6352 18.6627 16.3193 18.6527 15.9959C18.6453 15.665 18.6527 15.3317 18.6801 14.9933C18.7323 14.3192 18.8591 13.6375 19.0554 12.9634C18.6055 13.5032 18.1978 14.0978 17.8522 14.7421C17.6782 15.063 17.5216 15.3988 17.3774 15.7421C17.2357 16.0929 17.1139 16.4636 17.0194 16.8467C16.9747 17.0407 16.9324 17.2323 16.9026 17.4363C16.8727 17.6452 16.8504 17.8691 16.8429 18.0905C16.823 18.5358 16.8528 18.996 16.9448 19.4513C17.0368 19.9065 17.1909 20.3568 17.4147 20.7822C17.6384 21.2076 17.9467 21.5857 18.2997 21.929C18.4041 22.0211 18.5085 22.1131 18.6204 22.1952C18.7323 22.2798 18.8417 22.3718 18.961 22.444C19.0455 22.5012 19.1325 22.551 19.2195 22.6032C17.9541 23.9565 16.823 25.3894 15.8311 26.887C15.5402 26.7253 15.2469 26.5462 14.956 26.3522C14.4911 26.0462 14.0287 25.7054 13.5663 25.3446L13.3848 25.2004L13.1437 24.9889C12.9771 24.8471 12.8106 24.7103 12.639 24.5809C12.296 24.3247 11.9355 24.1083 11.5576 23.9441C10.6477 23.551 9.62848 23.5212 8.72357 23.7774C7.81368 24.0286 7.0107 24.5287 6.39665 25.1531C6.24252 25.3073 6.09833 25.474 5.96657 25.6407C5.83979 25.8024 5.72543 25.9666 5.61604 26.1332C5.39976 26.4666 5.2158 26.8124 5.05172 27.1582C4.72605 27.8498 4.48242 28.5513 4.24128 29.2503C4.6987 28.6682 5.1611 28.0886 5.66079 27.5761C5.91188 27.3199 6.17043 27.0835 6.4414 26.8721C6.57565 26.7676 6.71486 26.6681 6.85408 26.581C6.98833 26.4964 7.12009 26.4243 7.25682 26.3571C7.79877 26.0959 8.37055 25.9865 8.90007 26.0337C9.42711 26.0785 9.91685 26.2999 10.245 26.6631C10.3817 26.8149 10.4936 26.9815 10.5881 27.1482C10.6353 27.2328 10.6776 27.3149 10.7174 27.397C10.7397 27.4418 10.7497 27.4716 10.782 27.5264L10.9063 27.7229C11.2593 28.2702 11.6322 28.82 12.0449 29.3623C12.4774 29.932 12.9573 30.4991 13.4917 31.044C12.9722 32.151 12.5172 33.2779 12.1269 34.4247C11.9181 34.3352 11.7093 34.2481 11.4955 34.1635C10.4091 33.7356 9.24314 33.4023 8.09212 33.3127C6.95103 33.2306 5.91437 33.3973 5.10393 33.7033C4.28851 34.0043 3.71921 34.4322 3.38609 34.7606C3.22201 34.9322 3.1002 35.0666 3.03059 35.1686C2.95601 35.2656 2.91872 35.3178 2.91872 35.3178C2.91872 35.3178 2.97838 35.2904 3.08777 35.2382C3.19218 35.1835 3.36123 35.1213 3.56508 35.0516C3.98025 34.9223 4.59181 34.8327 5.28043 34.9248C5.96657 35.0069 6.73227 35.2805 7.40846 35.7134C7.7391 35.9273 8.07471 36.1935 8.39044 36.4845C8.70865 36.7781 9.01194 37.1015 9.31026 37.4498C9.82984 38.0543 10.3345 38.726 10.8541 39.4051C10.7546 39.9723 10.6701 40.542 10.603 41.1117C9.86465 41.1515 9.1437 41.3331 8.52468 41.6092C7.7217 41.9649 7.06291 42.45 6.51101 42.9725C5.40971 44.0248 4.67136 45.2064 4.07223 46.4105C3.5079 47.5797 3.04053 48.7166 2.43643 49.7713C1.8373 50.8187 1.08652 51.8038 -0.00732422 52.4531C0.60175 52.2914 1.19342 52.0127 1.74035 51.657C2.28727 51.3013 2.78944 50.8709 3.25682 50.4156C4.19156 49.5002 4.99454 48.4802 5.80995 47.5672C6.59554 46.699 7.48304 45.9378 8.38049 45.485C8.82549 45.2587 9.268 45.1218 9.65085 45.087C9.91934 45.0621 10.1505 45.0895 10.3643 45.1492C10.3693 46.5647 10.4638 47.9827 10.6502 49.3882C10.3718 49.6668 10.076 49.943 9.76769 50.2092C9.61356 50.346 9.45445 50.4753 9.29784 50.6072C9.14867 50.7291 9.00697 50.851 8.85532 50.9629C8.55452 51.1893 8.24128 51.3983 7.92555 51.5699C7.60983 51.7466 7.29162 51.8958 6.98087 52.0028C6.66763 52.1172 6.36682 52.1869 6.07844 52.2242C5.50915 52.2988 4.97962 52.1943 4.64153 52.0501C4.46502 51.9854 4.34072 51.9083 4.25619 51.856C4.16918 51.8038 4.12195 51.7764 4.12195 51.7764C4.12195 51.7764 4.1493 51.8262 4.19902 51.9232C4.24874 52.0202 4.32332 52.1645 4.4501 52.3287C4.69125 52.662 5.12879 53.0999 5.83233 53.4332C6.52593 53.7666 7.42089 53.973 8.37801 54.0278C8.8603 54.0601 9.35501 54.0527 9.86216 54.0129C10.1157 53.9954 10.3718 53.9631 10.6254 53.9308C10.864 53.8984 11.1077 53.8686 11.3463 53.8288C11.4109 53.8188 11.4756 53.8064 11.5427 53.7964C11.8087 54.7617 12.117 55.7194 12.47 56.6623C11.9305 56.9011 11.3911 57.1772 10.8715 57.5305L10.5607 57.732C10.4588 57.8041 10.3618 57.8887 10.2624 57.9658C10.066 58.125 9.8721 58.2817 9.68565 58.4434C9.31026 58.7917 8.97962 59.1698 8.68876 59.5629C8.10952 60.3515 7.70678 61.2123 7.4731 62.0755C7.23693 62.9362 7.1698 63.7995 7.25184 64.5905C7.32642 65.3866 7.56508 66.0906 7.846 66.6852C8.4327 67.8743 9.23817 68.5982 9.82487 68.9987C10.1257 69.1953 10.3718 69.3246 10.5408 69.4018C10.7124 69.4764 10.8044 69.5162 10.8044 69.5162C10.8044 69.5162 10.7298 69.4515 10.5906 69.3271C10.4538 69.2027 10.2649 69.0087 10.0536 68.7475C9.6409 68.2201 9.16856 67.3668 9.01691 66.3021C8.94979 65.7722 8.94731 65.2025 9.07907 64.6478C9.20088 64.0905 9.43954 63.5358 9.77266 63.0407C10.1058 62.5432 10.5359 62.1028 11.0206 61.767C11.2618 61.6003 11.5154 61.4585 11.7739 61.3466L12.1916 61.1973C12.2612 61.1724 12.3258 61.1451 12.3954 61.1227L12.6167 61.0704C13.1561 60.9162 13.7727 60.8714 14.3867 60.8416C14.6403 61.3068 14.9088 61.7695 15.1872 62.2247C14.8914 62.4337 14.593 62.6626 14.2972 62.9138C14.0063 63.1651 13.7205 63.4338 13.4147 63.7696C13.1288 64.1005 12.8678 64.4413 12.6714 64.8095C12.5645 64.9861 12.4874 65.1826 12.4029 65.3642C12.3357 65.5583 12.2587 65.7423 12.2164 65.9389C12.1095 66.322 12.0697 66.7101 12.0648 67.0857C12.0623 67.2723 12.0722 67.4589 12.0871 67.6405C12.1045 67.8171 12.1269 68.0111 12.1543 68.1554C12.209 68.4639 12.2786 68.7425 12.3482 69.0037C12.4849 69.5187 12.6241 70.0237 12.7857 70.4839C13.0965 71.4093 13.5464 72.1407 13.9517 72.5263C14.153 72.7228 14.327 72.8497 14.4513 72.9268C14.5781 73.0014 14.6453 73.0412 14.6453 73.0412C14.6453 73.0412 14.6005 72.9815 14.5185 72.8671C14.4389 72.7527 14.332 72.5761 14.2351 72.3397C14.0362 71.8646 13.9367 71.163 14.0063 70.3048C14.0362 69.8744 14.1008 69.4067 14.1754 68.8943C14.2127 68.6405 14.255 68.3917 14.3121 68.1579C14.3395 68.031 14.3718 67.9514 14.4041 67.8519C14.4414 67.7574 14.4762 67.6653 14.521 67.5758C14.608 67.3967 14.7099 67.23 14.8441 67.0857C14.9013 67.0086 14.9809 66.9464 15.0455 66.8817C15.1251 66.8245 15.1922 66.7598 15.2742 66.7126C15.4284 66.6081 15.5999 66.5334 15.764 66.4737C15.9156 66.429 16.1244 66.3543 16.3457 66.2921C16.7857 66.1702 17.2829 66.0757 17.8124 65.9886C17.8298 65.9861 17.8472 65.9837 17.8646 65.9812C18.5309 66.7897 19.2394 67.5733 19.9952 68.3296C20.7136 69.0485 21.4569 69.7227 22.2201 70.3595C21.8995 70.8197 21.5464 71.3148 21.1959 71.8546C20.7658 72.5213 20.3382 73.2627 20.0399 74.0911C19.7316 74.9095 19.5924 75.825 19.6571 76.6658C19.7192 77.5067 19.9678 78.2555 20.2885 78.8799C20.6117 79.5043 21.007 80.0143 21.4022 80.4297C22.2127 81.2507 23.0132 81.7158 23.5875 81.9746C23.8783 82.0989 24.1021 82.1885 24.2637 82.2358C24.4203 82.288 24.5048 82.3129 24.5048 82.3129C24.5048 82.3129 24.4352 82.2582 24.3059 82.1562C24.2438 82.1039 24.1617 82.0467 24.0747 81.9671C23.9877 81.8875 23.8907 81.7955 23.7789 81.6935C23.3513 81.278 22.8093 80.6038 22.4165 79.7282C22.2301 79.2879 22.0809 78.7978 22.0238 78.2953C21.9641 77.7928 22.0014 77.2828 22.1481 76.8275C22.429 75.922 23.1499 75.218 24.1344 74.4891C24.6266 74.1234 25.1785 73.7552 25.7652 73.3398C25.8646 73.2676 25.9616 73.193 26.061 73.1209C26.7248 73.5288 27.3985 73.9119 28.0847 74.2677C27.8559 74.4767 27.6297 74.6931 27.4159 74.9269C26.9137 75.4618 26.4886 76.0539 26.1679 76.6459C25.8423 77.238 25.6111 77.84 25.452 78.4147C25.2953 78.9943 25.2108 79.5292 25.186 80.0715C25.1735 80.6536 25.3053 81.1238 25.4868 81.5144C25.6683 81.9024 25.9119 82.2059 26.1829 82.3701C26.4538 82.5368 26.7074 82.5418 26.8566 82.5119C26.9287 82.4995 26.9784 82.4721 27.0157 82.4622C27.0505 82.4497 27.0704 82.4447 27.0704 82.4447C27.0704 82.4447 27.0505 82.4447 27.0132 82.4398C26.9759 82.4348 26.9187 82.4398 26.8491 82.4224C26.7198 82.3925 26.5359 82.3054 26.4091 82.1164C26.2773 81.9323 26.1978 81.6487 26.1903 81.3253C26.1779 81.0044 26.2425 80.6237 26.3967 80.3103C26.5682 79.9645 26.8143 79.5665 27.1052 79.2058C27.396 78.8426 27.7391 78.4993 28.122 78.2032C28.8951 77.5962 29.7627 77.2828 30.8566 76.9793C31.5203 76.7902 32.2612 76.6111 33.0492 76.3524C34.24 76.7405 35.4507 77.0564 36.6714 77.3052C36.3407 77.7704 36.0001 78.2629 35.6794 78.7754C34.8566 80.0715 34.1257 81.5716 33.8646 83.099C33.8274 83.2856 33.81 83.4796 33.7851 83.6637C33.7652 83.8528 33.7578 84.0518 33.7478 84.2384C33.7528 84.4274 33.7503 84.614 33.7652 84.7931C33.7851 84.9747 33.795 85.1514 33.8274 85.323C33.9367 86.0121 34.1481 86.6241 34.4141 87.1465C34.6801 87.6664 34.9908 88.1018 35.3239 88.4277C35.3985 88.5122 35.4905 88.5819 35.5701 88.654C35.6496 88.7262 35.7267 88.7909 35.8112 88.8456C35.8908 88.9028 35.9678 88.9551 36.0399 89.0073C36.117 89.0496 36.1916 89.0919 36.2612 89.1317C36.3954 89.2138 36.5321 89.261 36.644 89.3083C36.7534 89.3581 36.8553 89.3879 36.9349 89.4078C37.094 89.4526 37.1785 89.475 37.1785 89.475C37.1785 89.475 37.1089 89.4252 36.9771 89.3307C36.91 89.2859 36.833 89.2287 36.7484 89.1466C36.6639 89.067 36.5645 88.9849 36.4725 88.868C36.0822 88.4351 35.6844 87.6988 35.5899 86.7708C35.5402 86.3106 35.5576 85.8106 35.6596 85.3156C35.6794 85.1912 35.7242 85.0693 35.7515 84.9474C35.7863 84.8255 35.8361 84.7086 35.8758 84.5891C35.9305 84.4722 35.9753 84.3628 36.0374 84.2458C36.1021 84.1264 36.1568 84.007 36.2338 83.8926C36.7882 82.9597 37.6434 82.1412 38.6403 81.385C39.14 81.0044 39.667 80.6437 40.2214 80.2705C40.7832 79.8874 41.4022 79.457 42.0238 78.8998C42.3295 78.6261 42.6378 78.3127 42.9287 77.9644C43.4557 77.9694 43.9827 77.9644 44.5098 77.942C44.6962 78.2256 44.8901 78.4968 45.0816 78.7406C45.4942 79.2779 45.8995 79.7431 46.255 80.1785C46.6154 80.6163 46.9162 81.0193 47.1524 81.4198C47.3861 81.8178 47.5427 82.2084 47.6198 82.6512C47.7814 83.5319 47.5551 84.5369 47.2518 85.3703C46.9386 86.2086 46.5757 86.9052 46.3196 87.3853C46.0536 87.8654 45.9044 88.1416 45.9044 88.1416C45.9044 88.1416 46.1505 87.945 46.5806 87.6017C47.0082 87.251 47.6198 86.7485 48.2985 86.0245C48.6341 85.6588 48.9846 85.2335 49.3078 84.716C49.631 84.2011 49.9268 83.5891 50.1058 82.8751C50.2898 82.1661 50.337 81.3502 50.25 80.579C50.1655 79.8103 49.9765 79.0714 49.7826 78.4122C49.6757 78.049 49.5688 77.7057 49.4694 77.3798C50.9958 77.0862 52.5023 76.6857 53.9815 76.1757C54.2425 76.4917 54.5334 76.7877 54.8541 77.0539C54.9784 77.1609 55.1077 77.2604 55.2369 77.3599L55.4308 77.5017L55.58 77.6012C55.7739 77.7281 55.9504 77.835 56.112 77.9296C56.3556 78.0714 56.6018 78.2157 56.8504 78.3624C57.007 78.447 57.1536 78.5615 57.2854 78.7082C57.4196 78.865 57.5464 79.0764 57.6484 79.3302C57.8547 79.8401 57.9492 80.4969 57.9417 81.1785C57.9318 81.8825 57.8274 82.6413 57.7105 83.4149C57.5937 84.1886 57.4719 84.9772 57.4246 85.7484C57.3749 86.5146 57.3973 87.2336 57.4594 87.8853C57.5837 89.1914 57.8771 90.2238 58.1157 90.9228C58.2376 91.2711 58.3444 91.5398 58.4215 91.7214C58.4986 91.9005 58.5408 91.9975 58.5408 91.9975C58.5408 91.9975 58.5284 91.893 58.5085 91.699C58.4886 91.5049 58.4638 91.2213 58.4513 90.8606C58.4265 90.1417 58.4514 89.1143 58.695 87.9426C58.8143 87.3579 58.9834 86.741 59.222 86.1166C59.4532 85.4947 59.764 84.8528 60.1021 84.1463C60.4377 83.4398 60.8031 82.6711 61.099 81.7756C61.3923 80.8651 61.5986 79.8501 61.5514 78.7256C61.5266 78.1634 61.4346 77.5738 61.2431 76.9768C61.0467 76.3698 60.7509 75.7852 60.3681 75.2628C59.9977 74.7553 59.6322 74.3672 59.3438 74.0513C59.2842 73.9866 59.2295 73.9244 59.1773 73.8647C60.7907 72.9716 62.3445 71.9292 63.8211 70.7426C63.8236 70.7675 63.8261 70.7924 63.8286 70.8173L63.8982 71.3223C63.928 71.4964 63.9653 71.668 64.0026 71.8372C64.0822 72.1755 64.1891 72.5039 64.3159 72.8198C64.5719 73.4492 64.9398 74.0189 65.3898 74.499C65.887 75.019 66.4762 75.427 67.1101 75.7105C67.2693 75.7777 67.4284 75.8474 67.5899 75.9046C67.7515 75.9593 67.9156 76.0165 68.0722 76.0613C68.3681 76.1409 68.6341 76.1932 68.9001 76.2404C69.9517 76.4146 70.8591 76.4419 71.667 76.6111C73.2431 76.9146 74.8317 78.0689 75.667 79.7978C75.498 77.8898 74.3768 75.9195 72.4924 74.7229C71.5701 74.1358 70.6279 73.7502 69.8995 73.3149C69.723 73.2079 69.5464 73.096 69.4072 72.989C69.2929 72.892 69.2009 72.7975 69.1139 72.698C68.9423 72.4964 68.8156 72.2725 68.7534 72.0387C68.6937 71.8272 68.6863 71.6108 68.7186 71.4118C68.736 71.3123 68.7584 71.2178 68.7882 71.1282C68.8056 71.0834 68.818 71.0387 68.8379 70.9988C68.8479 70.9839 68.8578 70.974 68.8678 70.9566L68.8951 70.857C69.0542 70.3098 69.3277 69.6132 69.6335 68.7873C69.7851 68.3718 69.9442 67.9191 70.0884 67.4091C70.2326 66.8966 70.3668 66.3245 70.434 65.6453C70.4886 65.0756 70.4961 64.4164 70.3743 63.69C70.5458 63.4387 70.7149 63.1875 70.8789 62.9312L71.0579 62.9238L71.5551 62.9288C71.7242 62.9238 71.8883 62.9511 72.0573 62.9611L72.3109 62.981L72.562 63.0183C73.2357 63.1079 73.897 63.287 74.5284 63.5159C75.7988 63.9686 76.915 64.6726 77.7901 65.4015C78.6676 66.1304 79.2916 66.8917 79.6869 67.4539C79.8957 67.73 80.0275 67.9688 80.1269 68.1256C80.2239 68.2848 80.2761 68.3718 80.2761 68.3718C80.2761 68.3718 80.2512 68.2748 80.209 68.0932C80.1617 67.9116 80.107 67.638 79.9902 67.3021C79.7789 66.6255 79.4035 65.6603 78.7248 64.5955C78.0486 63.5333 77.084 62.3591 75.7714 61.3491C75.1201 60.8416 74.3892 60.3639 73.5812 59.9734L73.278 59.8216L72.9647 59.6873C72.8976 59.6599 72.833 59.6326 72.7658 59.6027C73.8448 57.411 74.6652 55.1224 75.227 52.7839C75.6372 52.9208 76.0548 53.0352 76.4725 53.1223C77.2233 53.2665 77.8522 53.3039 78.3768 53.3586C78.9038 53.4108 79.314 53.4705 79.6446 53.5775C80.1468 53.7367 80.6763 54.1646 81.1114 54.8039C81.5464 55.4408 81.887 56.2269 82.158 57.0727C82.7074 58.7544 82.9834 60.5754 82.9461 62.4362C83.5427 60.6724 83.8584 58.7668 83.841 56.8115C83.8336 55.8413 83.7515 54.8189 83.4458 53.7691C83.2916 53.2442 83.0729 52.7093 82.7621 52.1869C82.4513 51.667 82.0362 51.1595 81.5241 50.7341C80.8404 50.1694 80.0996 49.8186 79.4656 49.54C78.8292 49.2638 78.2724 49.0449 77.8746 48.8136L77.5962 48.632L77.4594 48.5449L77.3277 48.4429L77.0691 48.2439L76.828 48.0225L76.7086 47.9155L76.5968 47.7936L76.3755 47.5598L76.1742 47.306L76.0747 47.1816C76.1418 46.1468 76.1592 45.1119 76.1294 44.077C76.1443 44.0695 76.1617 44.0621 76.1767 44.0521C76.2736 43.9999 76.3706 43.9451 76.4675 43.8904L76.562 43.8158C77.6384 43.1043 78.4091 42.1241 78.9187 41.1465C79.4308 40.1663 79.7043 39.2061 79.9032 38.3155C80.0921 37.4299 80.2015 36.6711 80.3531 36.0094C80.5048 35.3452 80.6714 34.8327 80.9423 34.4173C81.2083 33.9819 81.6583 33.6038 82.2425 33.3003C82.8267 33.0043 83.5303 32.8052 84.2487 32.6759C84.9697 32.5465 85.708 32.4918 86.419 32.4669C87.1325 32.442 87.7988 32.452 88.4054 32.5092C89.6235 32.6112 90.5906 32.9669 91.1797 33.3899C91.4731 33.5988 91.6819 33.8028 91.8137 33.9521C91.9405 34.1063 92.0101 34.1884 92.0101 34.1884C92.0101 34.1884 91.9678 34.0889 91.8883 33.9023L91.8758 33.9172Z" fill="#FFCB05"/>
<path d="M38.4985 78.6087C38.9361 77.9918 39.033 77.1932 38.7571 76.4892C38.4787 75.7852 37.8646 75.2677 37.1213 75.1185C35.9752 74.8846 34.8416 74.5861 33.7478 74.2304C33.524 74.1582 33.2903 74.1209 33.0567 74.1209C32.823 74.1209 32.5843 74.1582 32.3556 74.2329C31.8783 74.3896 31.401 74.519 30.941 74.6433C30.7074 74.7055 30.4811 74.7677 30.2624 74.8299C30.332 74.5588 30.3494 74.2727 30.3121 73.9866C30.2176 73.2602 29.7751 72.6283 29.1238 72.29C28.4923 71.9616 27.8584 71.6034 27.2394 71.2227C26.8789 71.0013 26.4737 70.8919 26.0685 70.8919C25.6036 70.8919 25.1387 71.0362 24.7459 71.3247C24.7459 71.3247 24.5147 71.4964 24.4675 71.5312C24.2586 71.6805 24.0473 71.8273 23.841 71.9715C23.846 71.9666 24.0672 71.6481 24.0672 71.6481C24.731 70.6954 24.5545 69.3918 23.6645 68.6505C22.9336 68.041 22.235 67.4041 21.5887 66.7548C20.9 66.0658 20.2313 65.3294 19.5998 64.5657C19.1722 64.0457 18.5358 63.7522 17.8745 63.7522C17.7602 63.7522 17.6458 63.7597 17.534 63.7796L17.4544 63.792C17.1635 63.8393 16.9025 63.8865 16.6614 63.9338C17.4842 63.2248 17.6831 62.0133 17.1064 61.0705C16.8478 60.6451 16.5967 60.2122 16.3606 59.7818C15.9678 59.0604 15.212 58.6176 14.3991 58.6176C14.3618 58.6176 14.3245 58.6176 14.2872 58.6201C14.0337 58.6325 13.7677 58.6474 13.4917 58.6723C14.5035 58.1599 14.9783 56.9608 14.5731 55.8861C14.2475 55.0229 13.9566 54.1248 13.708 53.2168C13.4445 52.2565 12.5893 51.6048 11.6297 51.5724C11.836 51.3834 12.0399 51.1893 12.2412 50.9878C12.7335 50.4953 12.9696 49.8012 12.8777 49.1096C12.7036 47.7986 12.6141 46.4677 12.6117 45.1567C12.6117 44.3283 12.1542 43.5844 11.4507 43.1988C12.189 42.9003 12.731 42.2187 12.8304 41.3903C12.8926 40.8778 12.9696 40.343 13.0641 39.8007C13.171 39.1837 13.0144 38.5493 12.634 38.0543L12.3829 37.7284C12.0946 37.3503 11.7962 36.9622 11.4929 36.5841C11.7018 36.6463 11.9181 36.6786 12.1319 36.6786C12.4426 36.6786 12.7534 36.6139 13.0442 36.4846C13.6135 36.2308 14.0486 35.7507 14.2499 35.1611C14.6154 34.0889 15.043 33.0291 15.5228 32.0117C15.923 31.1634 15.749 30.1559 15.0927 29.4867C14.8118 29.2031 14.5408 28.9021 14.2723 28.5787C14.4289 28.6732 14.588 28.7652 14.7496 28.8548C15.0927 29.0463 15.4681 29.1384 15.8385 29.1384C16.5644 29.1384 17.2754 28.7826 17.703 28.1383C18.6353 26.7353 19.6968 25.3919 20.8627 24.1456C21.3251 23.6505 21.5389 22.9689 21.4445 22.2972C21.3997 21.9788 21.2854 21.6803 21.1188 21.4166C21.1909 21.4141 21.263 21.4066 21.3351 21.4016C21.345 21.4016 21.4743 21.3867 21.5116 21.3817H21.6085C21.7154 21.3842 21.79 21.3867 21.892 21.3942C22.0859 21.4141 22.2847 21.4439 22.4836 21.4763C22.6079 21.4962 22.7322 21.5086 22.8565 21.5086C23.3587 21.5086 23.8484 21.3395 24.2462 21.0235C25.5365 20.0011 26.9062 19.0806 28.3208 18.292C29.3425 17.7199 29.7527 16.4561 29.258 15.3939L29.2381 15.3491C29.2033 15.2769 29.171 15.2023 29.1362 15.1302C28.8677 14.5804 28.5321 14.0207 28.1691 13.5132C27.7764 12.9659 27.3786 12.5231 26.9485 12.1524C26.7894 12.0106 26.6154 11.8812 26.424 11.7568C26.5259 11.7892 26.6278 11.824 26.7322 11.8638C27.3164 12.0902 27.8982 12.4235 28.5023 12.8763C29.0492 13.2918 29.5414 13.7321 30.0386 14.2595C30.3295 14.5679 30.6228 14.9137 30.9087 15.2844C31.3413 15.8441 32.0001 16.1576 32.6813 16.1576C32.9199 16.1576 33.1636 16.1178 33.3997 16.0382C34.2798 15.7397 35.1772 15.4809 36.0647 15.267C36.6663 15.1227 37.1834 14.7346 37.4892 14.1948C37.529 14.1251 37.5663 14.0505 37.5961 13.9784C37.708 14.058 37.8298 14.145 37.9616 14.2371C38.3444 14.5107 38.7993 14.6575 39.2667 14.6575C39.3562 14.6575 39.4457 14.6525 39.5352 14.6401C40.3904 14.5356 41.2729 14.4684 42.1604 14.4361C43.1897 14.3988 44.0598 13.6674 44.2711 12.6599C44.2984 12.5305 44.3208 12.4036 44.3407 12.2768C44.3407 12.2668 44.3432 12.2569 44.3456 12.2469C44.4227 11.7096 44.4351 11.1971 44.3805 10.722C44.3506 10.4433 44.3009 10.1722 44.2288 9.91595C44.2238 9.89605 44.2189 9.87615 44.2114 9.85376C44.286 9.9458 44.3581 10.0428 44.4252 10.1423C44.736 10.5901 44.992 11.1125 45.1909 11.6996C45.3053 12.0504 45.4022 12.4435 45.4718 12.8489C45.6359 13.8142 46.409 14.563 47.3786 14.6923C47.6421 14.7272 47.9031 14.767 48.1667 14.8093C48.286 14.8292 48.4078 14.8391 48.5246 14.8391C48.9895 14.8391 49.4345 14.6948 49.8049 14.4361C50.1008 14.9262 50.5756 15.2944 51.1474 15.4461C52.2039 15.7272 53.2605 16.0705 54.2847 16.4636C54.5433 16.5631 54.8167 16.6128 55.0877 16.6128C55.4656 16.6128 55.841 16.5183 56.1791 16.3292L56.2611 16.5705C56.4451 17.1203 56.8379 17.5781 57.3525 17.8467C58.6179 18.5035 59.8509 19.2573 61.0169 20.0906C61.3997 20.3643 61.8547 20.5061 62.3171 20.5061C62.5358 20.5061 62.7571 20.4737 62.9734 20.4066C63.2593 20.3195 63.5203 20.1752 63.744 19.9911V20.2349C63.744 20.5807 63.744 20.929 63.7415 21.2822C63.7366 21.8992 63.9852 22.4913 64.4327 22.9191C64.5967 23.0759 64.7608 23.2351 64.9224 23.3968C65.1437 23.6182 65.3575 23.8421 65.5688 24.066C66.0013 24.5262 66.5955 24.77 67.1971 24.77C67.5079 24.77 67.8236 24.7053 68.1194 24.571C68.9895 24.1754 69.5141 23.2724 69.4246 22.3196V22.2922C69.4146 22.2126 69.4072 22.1305 69.3972 22.046L69.2282 20.5732C69.1934 20.2548 69.171 19.9389 69.1611 19.6329C69.2705 19.9687 69.3948 20.2996 69.534 20.6354L70.0535 21.8892C70.235 22.332 70.3842 22.7574 70.506 23.1878C70.5259 23.2674 70.5632 23.4291 70.5905 23.5709C70.6154 23.7227 70.6328 23.8769 70.6527 24.0311C70.6527 24.0461 70.6576 24.0635 70.6576 24.0784C70.6875 24.2948 70.6825 24.5859 70.6775 24.8993C70.6502 25.3496 70.5209 25.8472 70.2823 26.4168L70.2698 26.4392C69.7627 27.4368 70.0709 28.6583 70.9908 29.2951C71.3761 29.5638 71.8211 29.6931 72.2636 29.6931C72.4501 29.6931 72.6365 29.6708 72.818 29.6235C72.808 29.7081 72.7981 29.7926 72.7882 29.8772C72.6912 30.8201 72.7036 31.7753 72.7285 32.753C72.7384 33.1112 72.7509 33.4993 72.6937 33.9571C72.6639 34.1984 72.6092 34.4397 72.5346 34.6735C72.3979 35.1089 72.3954 35.5741 72.5296 36.0119C72.6191 36.3005 72.7036 36.5915 72.7832 36.8801C73.0268 37.7632 73.7851 38.41 74.6974 38.5095C74.7795 38.5195 74.8615 38.522 74.9411 38.522C75.7614 38.522 76.5271 38.0692 76.9174 37.3329C77.0318 37.1189 77.1486 36.8851 77.2729 36.6388C77.4917 36.2059 77.7154 35.7606 77.979 35.3029C78.1256 35.0492 78.2673 34.8228 78.409 34.6188C78.3071 34.9347 78.23 35.2432 78.1629 35.5318C78.0734 35.9198 78.0013 36.3104 77.9268 36.7259C77.8596 37.0916 77.7925 37.4697 77.7055 37.8677C77.5588 38.5245 77.3475 39.323 76.9249 40.1315C76.6415 40.6713 76.1343 41.4301 75.3189 41.9674C75.2816 41.9923 75.2468 42.0172 75.212 42.0421C75.1872 42.057 75.1598 42.0694 75.135 42.0844C75.1225 42.0893 75.1076 42.0968 75.1026 42.0993C74.3295 42.4923 73.8522 43.2959 73.8795 44.1616C73.9069 45.1194 73.892 46.092 73.8298 47.0523C73.795 47.5996 73.9616 48.1394 74.2972 48.5723C74.3046 48.5822 74.6129 48.9678 74.6129 48.9678C74.6527 49.0176 74.6925 49.0648 74.7372 49.1121L74.9585 49.3459L75.0529 49.4504C75.1002 49.5027 75.1499 49.5524 75.2021 49.5972L75.3214 49.7042L75.5476 49.9107C75.5974 49.9554 75.6471 49.9977 75.7018 50.04L75.9603 50.239L76.0747 50.3286C76.1319 50.3734 76.1915 50.4157 76.2537 50.453L76.3904 50.54L76.6514 50.7092C76.6813 50.7291 76.7136 50.749 76.7459 50.7664C76.8801 50.8435 77.0169 50.9157 77.1611 50.9878C77.0765 50.9754 76.992 50.9605 76.905 50.943C76.5893 50.8759 76.2586 50.7863 75.9205 50.6744C75.6918 50.5997 75.4557 50.5599 75.2195 50.5599C74.8416 50.5599 74.4687 50.6545 74.1306 50.8435C73.5837 51.147 73.1884 51.667 73.0442 52.2765C72.5172 54.4731 71.744 56.61 70.7521 58.6275C70.4811 59.1773 70.4488 59.8167 70.6601 60.3913C70.6999 60.4983 70.7471 60.6028 70.8018 60.7023H70.7919C70.061 60.7272 69.3898 61.1078 68.992 61.7222C68.8379 61.9586 68.6813 62.1949 68.5222 62.4287C68.1915 62.9089 68.0622 63.496 68.1592 64.0706C68.2338 64.5085 68.2462 64.9562 68.199 65.4389C68.1443 65.9886 68.0299 66.4439 67.9255 66.8145C67.8012 67.2549 67.657 67.6604 67.5228 68.031C67.4557 68.2101 67.3885 68.3893 67.3239 68.5634C67.1051 69.1455 66.9137 69.6555 66.772 70.1257C66.7322 70.2177 66.7049 70.2924 66.6875 70.3396C66.6775 70.362 66.6676 70.3919 66.6601 70.4167C66.5905 70.6232 66.5358 70.8396 66.501 71.061C66.4389 71.4566 66.4389 71.8596 66.501 72.2502C66.4563 72.1656 66.4165 72.0785 66.3817 71.989C66.2997 71.785 66.2301 71.5685 66.1778 71.3521L66.1704 71.3198C66.148 71.2128 66.1231 71.1058 66.1033 70.9964L66.0436 70.5536L66.0386 70.4963C65.9442 69.6878 65.4171 68.9938 64.6639 68.6828C64.3904 68.5709 64.102 68.5161 63.8161 68.5161C63.314 68.5161 62.8192 68.6853 62.414 69.0087C61.0542 70.1008 59.5998 71.081 58.0883 71.9168C57.4942 72.2477 57.0815 72.8298 56.9672 73.5015C56.8528 74.1732 57.0517 74.8598 57.5041 75.3672C57.5613 75.4319 57.7925 75.6857 57.7925 75.6857C58.0436 75.9618 58.3046 76.2479 58.5607 76.5987C58.6924 76.7778 58.8093 76.9718 58.9087 77.1758C58.6278 76.8723 58.3096 76.621 57.9591 76.4245L57.2481 76.0066C57.1213 75.932 56.9721 75.8424 56.808 75.7354L56.7186 75.6757L56.5843 75.5762C56.4923 75.5066 56.4003 75.4344 56.3133 75.3598C56.0871 75.1707 55.8907 74.9717 55.7117 74.7553C55.2792 74.2329 54.6427 73.9443 53.9889 73.9443C53.7453 73.9443 53.4992 73.9841 53.2605 74.0662C51.8907 74.5388 50.4762 74.9145 49.0542 75.1881C48.4302 75.3075 47.8882 75.6857 47.5601 76.2305C47.2493 76.7454 47.1598 77.3624 47.309 77.942C47.1598 77.7604 47.0082 77.5738 46.859 77.3798C46.6974 77.1758 46.5408 76.9569 46.3817 76.7131C45.9665 76.0862 45.2655 75.7105 44.5172 75.7105C44.4898 75.7105 44.46 75.7105 44.4302 75.7105C44.0448 75.7255 43.6496 75.7329 43.2593 75.7329C43.1573 75.7329 42.941 75.7329 42.9336 75.7329C42.2698 75.7329 41.6409 76.0265 41.2158 76.5365C41.0119 76.7827 40.7832 77.0191 40.5371 77.2405C40.0299 77.6982 39.5054 78.0639 38.9684 78.4296C38.7571 78.5714 38.5408 78.7182 38.3195 78.8699C38.3842 78.7779 38.4463 78.6908 38.5035 78.6087H38.4985Z" fill="#F9A61B"/>
<path d="M71.3911 50.9107C70.9735 52.9457 70.3321 54.9433 69.4694 56.8638C68.122 59.8664 66.2351 62.685 63.8013 65.1727C63.7541 65.2225 63.7043 65.2747 63.6521 65.3244C63.6273 65.3518 63.5999 65.3792 63.5726 65.4065C63.0853 65.8941 62.5856 66.3618 62.071 66.8046C50.7845 76.6136 33.6658 76.1484 22.9312 65.4065C17.7628 60.2346 14.9759 53.585 14.5682 46.8185C14.3047 42.5023 15.0132 38.1389 16.6913 34.0815C17.5813 31.9172 18.7522 29.8375 20.1966 27.8995C21.017 26.795 21.9293 25.7377 22.9312 24.7352C24.1493 23.5162 25.447 22.4316 26.8094 21.4788C27.5925 20.9315 28.3979 20.4265 29.2208 19.9663C30.6354 19.1727 32.1046 18.5085 33.6061 17.9736C42.6925 14.7421 53.0816 16.2273 60.9747 22.4316C61.8746 23.1356 62.7423 23.9043 63.5726 24.7352C70.6776 31.845 73.2855 41.751 71.3911 50.9107Z" fill="url(#paint0_radial_156_59635)"/>
<path d="M63.6524 65.3244C63.6275 65.3518 63.6002 65.3792 63.5728 65.4065C63.0856 65.8941 62.5859 66.3618 62.0713 66.8046C50.7848 76.6136 33.6661 76.1484 22.9315 65.4065C17.763 60.2346 14.9762 53.585 14.5685 46.8185C14.1658 40.1987 16.0427 33.4695 20.1968 27.8995C20.3907 28.1384 20.5673 28.3921 20.7363 28.6434C26.6903 37.6215 25.1614 50.0749 31.1925 58.9982C36.3087 66.5633 46.7848 69.9864 55.374 66.8967C57.3901 66.1728 59.3441 65.1254 61.4821 65.006C62.2031 64.9637 62.9588 65.0757 63.6524 65.3244Z" fill="#FFB961"/>
<g style="mix-blend-mode:multiply">
<path d="M63.8015 65.1727C63.7269 65.2498 63.6499 65.3294 63.5728 65.4065C63.0856 65.8941 62.5859 66.3618 62.0713 66.8046C50.7847 76.6136 33.666 76.1484 22.9314 65.4065C17.763 60.2346 14.9762 53.585 14.5685 46.8185C14.0862 38.8877 16.8755 30.7952 22.9314 24.7352C24.1496 23.5162 25.4473 22.4316 26.8096 21.4788C27.5927 20.9315 28.3982 20.4265 29.221 19.9663C30.6356 19.1727 32.1048 18.5085 33.6064 17.9736C35.4585 17.491 37.3453 17.1925 39.2422 17.0756C38.4491 17.6452 37.6934 18.2721 36.9874 18.9687C29.3528 26.4815 30.3746 40.3305 37.768 48.0897C43.4734 54.08 51.712 56.717 58.6207 61.2197C60.4404 62.4039 62.1732 63.7273 63.8015 65.1727Z" fill="#F5CA26"/>
</g>
<g style="mix-blend-mode:multiply">
<path d="M71.3911 50.9107C70.9735 52.9456 70.3321 54.9432 69.4694 56.8637C68.122 59.8664 66.2351 62.685 63.8013 65.1727C63.7541 65.2224 63.7043 65.2747 63.6521 65.3244C63.6273 65.3518 63.5999 65.3791 63.5726 65.4065C63.0853 65.8941 62.5856 66.3618 62.071 66.8046C50.7845 76.6136 33.6658 76.1484 22.9312 65.4065C17.7628 60.2346 14.9759 53.585 14.5682 46.8184C14.3047 42.5023 15.0132 38.1389 16.6913 34.0814C17.9716 36.4945 18.7199 39.3379 19.0903 42.0371C19.846 47.5025 19.7963 53.366 22.7522 58.023C25.5465 62.4262 30.6478 64.9513 35.7914 65.7821C45.5316 67.3519 55.9853 63.1452 61.9268 55.2642C63.7218 52.8834 65.6559 49.9007 68.6366 49.8932C69.6559 49.8907 70.6006 50.2813 71.3911 50.9107Z" fill="#F5CA26"/>
</g>
</g>
<defs>
<radialGradient id="paint0_radial_156_59635" cx="0" cy="0" r="1" gradientUnits="userSpaceOnUse" gradientTransform="translate(39.5229 40.5943) scale(30.3567 30.3773)">
<stop offset="0.05" stop-color="#F7EBE4"/>
<stop offset="0.33" stop-color="#F7EB35"/>
<stop offset="0.61" stop-color="#F6E934"/>
<stop offset="0.72" stop-color="#F6E231"/>
<stop offset="0.79" stop-color="#F6D62C"/>
<stop offset="0.85" stop-color="#F6C525"/>
<stop offset="0.9" stop-color="#F5AF1C"/>
<stop offset="0.95" stop-color="#F49411"/>
<stop offset="0.99" stop-color="#F46D01"/>
</radialGradient>
<clipPath id="clip0_156_59635">
<rect width="92" height="92" fill="white"/>
</clipPath>
</defs>
</svg>
