<svg width="950" height="306" viewBox="0 0 950 306" fill="none" xmlns="http://www.w3.org/2000/svg">
<g opacity="0.1">
<path d="M89.2334 277.988L150.122 0H186.445L206.182 23.7256L141.304 305.703H101.201L89.2334 277.988ZM73.0664 0L124.507 280.088L111.279 305.703H64.8779L0 0H73.0664ZM239.565 278.618L290.586 0H363.442L298.564 305.703H252.373L239.565 278.618ZM212.69 0L275.049 279.668L262.451 305.703H222.349L156.001 23.3057L176.577 0H212.69Z" fill="white"/>
<path d="M604.839 121.357V178.047H447.998V121.357H604.839ZM472.563 0V305.703H398.867V0H472.563ZM654.389 0V305.703H580.903V0H654.389Z" fill="white"/>
<path d="M757.212 0L813.481 132.695L869.961 0H949.326L851.064 195.894V305.703H776.108V195.894L677.636 0H757.212Z" fill="white"/>
</g>
</svg>
