<svg width="1598" height="582" viewBox="0 0 1598 582" fill="none" xmlns="http://www.w3.org/2000/svg">
<g clip-path="url(#clip0_1146_595)">
<g clip-path="url(#clip1_1146_595)">
<mask id="mask0_1146_595" style="mask-type:alpha" maskUnits="userSpaceOnUse" x="0" y="-124" width="1600" height="608">
<rect y="-124" width="1600" height="608" fill="#D9D9D9"/>
</mask>
<g mask="url(#mask0_1146_595)">
<g opacity="0.3">
<path style="mix-blend-mode:screen" d="M1828 447.917C1639.69 191.726 1274.51 18 854.842 18C403.391 18 14.9887 219.045 -158 507.512V684H1828V447.917Z" fill="url(#paint0_radial_1146_595)"/>
<path style="mix-blend-mode:screen" d="M1699.69 435.405C1535.71 212.322 1217.71 61.0405 852.285 61.0405C459.173 61.0405 120.97 236.107 -29.6694 487.302V640.98H1699.69V435.405Z" fill="url(#paint1_radial_1146_595)"/>
<path style="mix-blend-mode:screen" d="M1603.8 439.549C1458.01 253.676 1175.28 127.622 850.356 127.622C500.826 127.622 200.136 273.48 66.2031 482.792V610.837H1603.8V439.549Z" fill="url(#paint2_radial_1146_595)"/>
<path style="mix-blend-mode:screen" d="M313.507 282.681C306.28 360.374 531.64 370.083 788.769 346.338C1045.9 322.594 1226.48 411.072 1344.92 345.262C1391.83 319.202 1389.58 282.641 1364.9 247.197C1221.52 172.105 1043.38 127.622 850.356 127.622C657.332 127.622 466.379 175.395 320.449 255.464C316.815 264.279 314.379 273.379 313.507 282.681Z" fill="url(#paint3_radial_1146_595)"/>
<path opacity="0.5" d="M1197.29 242.972C1194.93 260.075 1160.06 268.666 1119.38 262.146C1078.72 255.626 1047.66 236.452 1050.02 219.35C1052.37 202.247 1087.25 193.655 1127.93 200.175C1168.58 206.696 1199.64 225.87 1197.29 242.972ZM446.547 219.857C408.161 235.721 381.671 261.7 387.416 277.847C393.14 293.995 428.927 294.239 467.313 278.355C505.698 262.471 532.189 236.513 526.444 220.365C520.72 204.217 484.932 203.974 446.547 219.857ZM576.441 247.806C548.773 258.47 529.489 276.568 533.346 288.206C537.202 299.845 562.739 300.637 590.406 289.953C618.074 279.289 637.358 261.192 633.501 249.553C629.644 237.915 604.108 237.122 576.441 247.806ZM638.576 162.985C617.668 170.094 602.789 182.971 605.367 191.766C607.924 200.561 626.965 201.943 647.873 194.833C668.781 187.724 683.66 174.847 681.082 166.052C678.525 157.257 659.484 155.876 638.576 162.985ZM1309.7 263.629C1289.67 254.042 1270.61 253.108 1267.16 261.557C1263.71 269.987 1277.14 284.591 1297.18 294.178C1317.21 303.765 1336.28 304.699 1339.73 296.25C1343.18 287.8 1329.74 273.216 1309.7 263.629ZM1214.46 299.845C1189.72 296.758 1168.77 302.689 1167.65 313.108C1166.53 323.528 1185.7 334.456 1210.42 337.543C1235.17 340.631 1256.11 334.7 1257.23 324.28C1258.35 313.88 1239.18 302.932 1214.46 299.845Z" fill="url(#paint4_radial_1146_595)"/>
<path style="mix-blend-mode:screen" d="M479.106 277.218C461.527 284.489 444.517 288.369 430.673 288.897C441.919 287.191 454.463 283.697 467.313 278.376C505.698 262.512 532.188 236.533 526.444 220.386C523.338 211.631 511.382 207.549 494.98 208.199C517.309 204.807 534.421 208.483 538.238 219.228C543.962 235.376 517.492 261.354 479.106 277.218ZM610.949 240.332C622.804 240.108 631.39 243.216 633.501 249.574C637.358 261.212 618.054 279.29 590.406 289.973C582.51 293.02 574.796 295.112 567.692 296.29C577.537 296.108 589.635 293.65 602.2 288.816C629.868 278.152 649.152 260.054 645.295 248.416C642.534 240.108 628.711 237.366 610.949 240.332ZM1127.93 200.176C1168.58 206.696 1199.64 225.87 1197.29 242.972C1195.91 253.047 1183.22 260.176 1164.71 262.979C1189.47 261.74 1207.42 253.92 1209.08 241.814C1211.44 224.712 1180.38 205.538 1139.72 199.018C1123.01 196.337 1107.3 196.215 1094.39 198.165C1104.62 197.657 1116.03 198.266 1127.93 200.176ZM1321.5 262.471C1306.21 255.159 1291.54 252.905 1283.88 255.972C1291.31 256.622 1300.39 259.181 1309.7 263.629C1329.74 273.216 1343.2 287.82 1339.73 296.25C1338.89 298.261 1337.17 299.723 1334.79 300.678C1343.34 301.409 1349.67 299.622 1351.52 295.092C1354.97 286.663 1341.53 272.059 1321.5 262.471ZM1226.25 298.687C1216.27 297.448 1206.93 297.692 1199.24 299.073C1204.05 298.951 1209.16 299.175 1214.46 299.825C1239.2 302.912 1258.35 313.84 1257.23 324.26C1256.56 330.475 1248.81 335.065 1237.44 337.117C1255.02 336.67 1268.15 331.267 1269.02 323.102C1270.14 312.702 1250.98 301.754 1226.25 298.667V298.687ZM663.341 158.455C672.8 158.455 679.621 161.055 681.082 166.052C683.64 174.847 668.781 187.745 647.873 194.834C643.407 196.357 639.043 197.454 634.902 198.205C642.047 198.205 650.674 196.723 659.667 193.676C680.575 186.567 695.454 173.689 692.876 164.894C690.866 157.968 678.646 155.673 663.341 158.455Z" fill="url(#paint5_radial_1146_595)"/>
<path opacity="0.5" d="M1248.4 333.887C1240.75 329.784 1230.31 326.555 1218.6 325.092C1203.17 323.163 1189.23 324.747 1180.64 328.749C1188.3 332.852 1198.73 336.081 1210.44 337.544C1225.87 339.473 1239.81 337.889 1248.4 333.887Z" fill="url(#paint6_radial_1146_595)"/>
<path opacity="0.5" d="M1193.41 250.894C1181.86 239.702 1159.08 229.77 1132.05 225.423C1098.25 220 1068.49 225.017 1058.02 236.676C1069.57 247.867 1092.34 257.8 1119.38 262.146C1153.18 267.57 1182.94 262.553 1193.41 250.894Z" fill="url(#paint7_radial_1146_595)"/>
<path opacity="0.5" d="M1277.92 281.828C1283.03 286.256 1289.63 290.562 1297.18 294.178C1311.39 300.982 1325.09 303.399 1333.09 301.226C1327.97 296.798 1321.38 292.492 1313.82 288.877C1299.62 282.072 1285.91 279.655 1277.92 281.828Z" fill="url(#paint8_radial_1146_595)"/>
<path opacity="0.5" d="M394.825 285.952C408.405 293.365 437.026 290.887 467.313 278.355C493.884 267.366 514.731 251.564 523.155 237.508C509.575 230.094 480.954 232.572 450.667 245.105C424.096 256.093 403.249 271.896 394.825 285.952Z" fill="url(#paint9_radial_1146_595)"/>
<path opacity="0.5" d="M642.697 188.232C634.049 191.157 626.478 195.098 620.713 199.302C628.264 199.688 637.845 198.246 647.873 194.833C656.52 191.909 664.092 187.968 669.857 183.764C662.306 183.378 652.725 184.82 642.697 188.232Z" fill="url(#paint10_radial_1146_595)"/>
<path opacity="0.5" d="M543.962 296.229C554.741 299.032 572.076 297.022 590.406 289.953C606.341 283.799 619.454 275.207 627.026 266.777C616.247 263.974 598.912 265.985 580.581 273.054C564.647 279.208 551.533 287.8 543.962 296.229Z" fill="url(#paint11_radial_1146_595)"/>
<path opacity="0.25" d="M503.851 296.209C505.719 302.648 494.676 312.113 479.188 317.374C463.7 322.635 449.612 321.68 447.745 315.241C445.877 308.802 456.92 299.337 472.408 294.076C487.896 288.816 501.984 289.77 503.851 296.209Z" fill="url(#paint12_radial_1146_595)"/>
<path opacity="0.25" d="M1083.33 177.02C1082.48 183.703 1068.73 187.176 1052.66 184.779C1036.56 182.382 1024.22 175.03 1025.07 168.347C1025.92 161.664 1039.67 158.191 1055.74 160.588C1071.84 162.985 1084.18 170.338 1083.33 177.02Z" fill="url(#paint13_radial_1146_595)"/>
<path opacity="0.25" d="M1420.33 312.58C1417.09 318.329 1403.2 315.607 1389.34 306.487C1375.47 297.367 1366.87 285.302 1370.11 279.533C1373.36 273.785 1387.25 276.507 1401.11 285.627C1414.98 294.747 1423.58 306.812 1420.33 312.58Z" fill="url(#paint14_radial_1146_595)"/>
<path opacity="0.25" d="M1121.65 184.048C1121.29 186.892 1115.46 188.354 1108.62 187.339C1101.8 186.323 1096.54 183.195 1096.91 180.372C1097.27 177.528 1103.1 176.066 1109.94 177.081C1116.76 178.097 1122.02 181.225 1121.65 184.048Z" fill="url(#paint15_radial_1146_595)"/>
<path opacity="0.25" d="M1188.13 280.407C1187.77 283.25 1181.94 284.713 1175.1 283.697C1168.28 282.682 1163.02 279.554 1163.39 276.73C1163.75 273.887 1169.58 272.424 1176.42 273.44C1183.26 274.455 1188.5 277.583 1188.13 280.407Z" fill="url(#paint16_radial_1146_595)"/>
<path opacity="0.25" d="M1252.77 216.486C1252.4 219.329 1246.57 220.792 1239.73 219.776C1232.89 218.761 1227.66 215.633 1228.02 212.809C1228.39 209.966 1234.21 208.503 1241.05 209.519C1247.87 210.534 1253.13 213.662 1252.77 216.486Z" fill="url(#paint17_radial_1146_595)"/>
<path opacity="0.25" d="M1307.17 316.155C1306.19 318.816 1300.2 318.735 1293.79 315.973C1287.37 313.21 1282.99 308.823 1283.96 306.162C1284.94 303.501 1290.93 303.582 1297.34 306.345C1303.74 309.107 1308.14 313.495 1307.17 316.155Z" fill="url(#paint18_radial_1146_595)"/>
<path opacity="0.25" d="M1292.92 239.682C1291.8 244.11 1282.24 245.186 1271.56 242.058C1260.88 238.93 1253.13 232.816 1254.25 228.388C1255.36 223.96 1264.92 222.884 1275.6 226.012C1286.28 229.14 1294.03 235.254 1292.92 239.682Z" fill="url(#paint19_radial_1146_595)"/>
<path opacity="0.25" d="M1093.24 269.685C1094.05 265.169 1085.85 259.928 1074.93 257.981C1064.02 256.033 1054.52 258.116 1053.71 262.633C1052.91 267.15 1061.1 272.39 1072.02 274.338C1082.94 276.285 1092.44 274.202 1093.24 269.685Z" fill="url(#paint20_radial_1146_595)"/>
<path opacity="0.25" d="M652.989 213.256C653.943 217.258 646.879 222.681 637.237 225.342C627.574 228.023 618.988 226.926 618.034 222.925C617.08 218.923 624.144 213.5 633.786 210.839C643.448 208.158 652.035 209.255 652.989 213.256Z" fill="url(#paint21_radial_1146_595)"/>
<path opacity="0.25" d="M643.042 289.364C643.996 293.365 636.932 298.789 627.29 301.45C617.627 304.131 609.041 303.034 608.087 299.032C607.133 295.031 614.197 289.608 623.839 286.947C633.501 284.266 642.088 285.363 643.042 289.364Z" fill="url(#paint22_radial_1146_595)"/>
<path opacity="0.25" d="M662.894 270.779C663.483 273.277 659.098 276.649 653.07 278.314C647.061 279.98 641.702 279.31 641.114 276.811C640.525 274.313 644.909 270.941 650.938 269.276C656.967 267.61 662.306 268.28 662.894 270.779Z" fill="url(#paint23_radial_1146_595)"/>
<path opacity="0.25" d="M603.58 170.459C604.169 172.958 599.784 176.33 593.756 177.995C587.747 179.661 582.388 178.99 581.8 176.492C581.211 173.994 585.595 170.622 591.624 168.956C597.633 167.291 602.992 167.961 603.58 170.459Z" fill="url(#paint24_radial_1146_595)"/>
<path opacity="0.25" d="M527.459 270.779C528.048 273.277 523.663 276.649 517.634 278.314C511.605 279.98 506.267 279.31 505.678 276.811C505.089 274.313 509.474 270.941 515.503 269.276C521.511 267.61 526.87 268.28 527.459 270.779Z" fill="url(#paint25_radial_1146_595)"/>
<path opacity="0.25" d="M736.681 202.775C738.549 209.214 727.506 218.68 712.018 223.94C696.53 229.201 682.442 228.246 680.575 221.808C678.707 215.369 689.75 205.903 705.238 200.643C720.726 195.382 734.814 196.337 736.681 202.775Z" fill="url(#paint26_radial_1146_595)"/>
<path opacity="0.25" d="M760.289 177.345C760.878 179.844 756.494 183.215 750.465 184.881C744.456 186.546 739.097 185.876 738.509 183.378C737.92 180.879 742.304 177.508 748.333 175.842C754.362 174.177 759.701 174.847 760.289 177.345Z" fill="url(#paint27_radial_1146_595)"/>
<path opacity="0.25" d="M531.661 189.979C532.25 192.477 527.865 195.849 521.836 197.515C515.828 199.18 510.469 198.51 509.88 196.012C509.291 193.513 513.676 190.142 519.705 188.476C525.713 186.81 531.072 187.481 531.661 189.979Z" fill="url(#paint28_radial_1146_595)"/>
</g>
</g>
<g clip-path="url(#clip2_1146_595)">
<path d="M959.146 448.249C962.533 448.249 965.856 448.468 969.148 448.824C968.956 447.21 968.86 445.595 968.86 443.927C968.86 415.695 995.605 392.798 1028.55 392.798C1052.71 392.798 1073.51 405.081 1082.9 422.753C1092.3 418.376 1103.1 415.887 1114.57 415.887C1129.84 415.887 1143.9 420.319 1155.12 427.732C1165.98 409.048 1188.54 396.191 1214.59 396.191C1217.91 396.191 1221.17 396.409 1224.36 396.82C1218.2 388.777 1214.59 379.148 1214.59 368.807C1214.59 340.576 1241.33 317.706 1274.31 317.706C1274.95 317.706 1275.62 317.706 1276.26 317.733C1275.81 315.244 1275.59 312.7 1275.59 310.101C1275.59 281.87 1302.33 259 1335.31 259C1363.81 259 1387.65 276.098 1393.56 298.995C1403.85 291.773 1417.01 287.45 1431.36 287.45C1450.88 287.45 1468.2 295.466 1479.1 307.885C1482.87 282.745 1507.92 263.322 1538.28 263.322C1571.25 263.322 1598 286.192 1598 314.423V573.759H987.937C979.053 576.877 883 549.412 883 513.411C883 477.411 917.095 448.222 959.146 448.222V448.249Z" fill="#2F1B8E"/>
<g clip-path="url(#clip3_1146_595)">
<path d="M969.736 332.009C971.656 332.106 973.291 330.624 973.388 328.699C973.486 326.775 972.008 325.136 970.088 325.039C968.168 324.942 966.533 326.424 966.436 328.349C966.339 330.273 967.817 331.912 969.736 332.009Z" fill="#2F1B8E"/>
<path d="M977.842 295.499C976.849 295.449 976.007 296.211 975.957 297.207C975.907 298.202 976.667 299.046 977.66 299.096C978.653 299.146 979.495 298.383 979.545 297.388C979.595 296.392 978.835 295.549 977.842 295.499Z" fill="#2F1B8E"/>
<path d="M994.876 306.743C991.705 306.583 988.995 309.039 988.835 312.219C988.674 315.398 991.123 318.114 994.295 318.274C997.467 318.434 1000.18 315.979 1000.34 312.799C1000.5 309.619 998.048 306.903 994.876 306.743Z" fill="#2F1B8E"/>
<path d="M1005.61 301.295C1004.52 301.24 1003.59 302.079 1003.54 303.171C1003.48 304.263 1004.32 305.19 1005.41 305.245C1006.5 305.3 1007.42 304.461 1007.48 303.37C1007.53 302.278 1006.7 301.35 1005.61 301.295Z" fill="#2F1B8E"/>
<path d="M948.705 328.356C945.238 331.497 944.968 336.861 948.101 340.336C951.234 343.811 956.585 344.081 960.051 340.939C963.518 337.797 963.789 332.433 960.656 328.958C957.523 325.484 952.172 325.214 948.705 328.356Z" fill="#2F1B8E"/>
<path d="M878.988 565.205C888.621 557.625 895.066 546.068 895.734 532.835C896.448 518.67 890.387 505.741 880.412 497.188C892.285 494.55 901.429 484.256 902.073 471.489C902.133 470.284 902.096 469.107 901.995 467.943C910.357 465.805 916.721 458.413 917.179 449.324C917.265 447.621 917.108 445.955 916.804 444.346C928.477 444.081 938.146 434.844 938.744 422.976C939.026 417.387 937.233 412.193 934.083 408.089C941.594 407.244 947.622 401.076 948.017 393.255C948.153 390.557 947.593 387.969 946.52 385.693C949.943 383.418 952.27 379.623 952.493 375.207C952.58 373.472 952.327 371.801 951.796 370.245C955.525 369.547 958.416 366.36 958.615 362.409C958.849 357.768 955.291 353.805 950.645 353.571C946 353.336 942.145 356.845 941.85 361.419C941.183 361.272 940.497 361.173 939.792 361.138C935.803 360.937 932.142 362.523 929.568 365.162C927.36 363.409 924.622 362.288 921.594 362.136C913.888 361.747 907.325 367.695 906.935 375.42C906.895 376.207 906.937 376.966 907.028 377.727C903.362 375.9 899.259 374.775 894.917 374.556C879.314 373.769 865.862 384.795 863.114 399.791C855.139 399.019 846.873 401.452 840.46 407.279C830.565 416.247 828.133 430.389 833.543 441.884C830.073 440.63 826.37 439.864 822.493 439.668C801.395 438.604 783.421 454.893 782.354 476.044C782.306 476.991 782.307 477.925 782.325 478.86C781.352 478.714 780.361 478.616 779.352 478.565C770.509 478.119 762.348 481.362 756.302 486.917C748.786 477.683 737.564 471.546 724.748 470.899C706.054 469.956 689.517 480.988 682.528 497.284C680.04 495.661 677.105 494.627 673.917 494.466C667.734 494.155 662.155 497.125 658.833 501.852C650.713 497.595 641.578 494.976 631.822 494.484C605.246 493.144 581.584 507.889 570.196 530.194C567.54 529.046 564.638 528.304 561.579 528.149C556.596 527.898 551.892 529.142 547.888 531.484C546.136 528.948 543.268 527.226 539.968 527.059C534.49 526.783 529.82 530.846 529.226 536.242C517.73 530.767 505.02 527.405 491.515 526.724C471.619 525.72 452.82 530.665 436.772 539.966C433.3 537.473 429.107 535.909 424.526 535.677C418.246 535.361 412.448 537.596 408.078 541.449L878.988 565.205Z" fill="#2F1B8E"/>
</g>
<path d="M638.822 448.249C635.435 448.249 632.112 448.468 628.82 448.824C629.012 447.21 629.108 445.595 629.108 443.927C629.108 415.695 602.363 392.798 569.418 392.798C545.261 392.798 524.459 405.081 515.065 422.753C505.638 418.376 494.87 415.887 483.398 415.887C468.124 415.887 454.065 420.319 442.849 427.732C431.985 409.048 409.425 396.191 383.383 396.191C380.059 396.191 376.8 396.409 373.605 396.82C379.772 388.777 383.383 379.148 383.383 368.807C383.383 340.576 356.637 317.706 323.693 317.706C323.022 317.706 322.383 317.706 321.744 317.733C322.191 315.244 322.415 312.7 322.415 310.101C322.415 281.87 295.669 259 262.693 259C234.19 259 210.352 276.098 204.441 298.995C194.152 291.773 180.987 287.45 166.671 287.45C147.148 287.45 129.797 295.466 118.932 307.885C115.162 282.745 90.1099 263.322 59.7218 263.322C26.7454 263.322 -2.35256e-05 286.219 -2.35256e-05 314.451V573.759H610.063C618.947 576.877 715 549.412 715 513.411C715 477.411 680.905 448.222 638.854 448.222L638.822 448.249Z" fill="#2F1B8E"/>
<path d="M70.8553 369.131C87.4106 369.131 102.624 374.023 114.672 382.167C128.863 360.003 156.284 345 187.797 345C233.851 345 271.149 377.057 271.149 416.629C271.149 424.827 269.519 432.671 266.578 439.995C277.732 433.682 291.092 429.992 305.474 429.992C344.625 429.992 376.329 457.239 376.329 490.853C376.329 492.438 376.233 493.969 376.105 495.527C384.479 492.52 393.683 490.853 403.335 490.853C424.876 490.853 444.18 499.134 457.156 512.17C462.142 478.364 495.7 452.238 536.417 452.238C573.139 452.238 604.044 473.527 613.408 502.495C625.106 495.199 639.488 490.881 655.052 490.881C694.203 490.881 725.907 518.127 725.907 551.742C725.907 554.557 725.652 557.344 725.236 560.05L798.904 542.286H799.096L872.764 560.05C872.316 557.317 872.092 554.557 872.092 551.742C872.092 518.127 903.829 490.881 942.948 490.881C958.512 490.881 972.894 495.199 984.592 502.495C993.956 473.527 1024.86 452.238 1061.58 452.238C1102.27 452.238 1135.86 478.364 1140.84 512.17C1153.85 499.134 1173.12 490.853 1194.7 490.853C1204.35 490.853 1213.55 492.52 1221.93 495.527C1221.8 493.996 1221.7 492.438 1221.7 490.853C1221.7 457.239 1253.44 429.992 1292.56 429.992C1306.91 429.992 1320.27 433.682 1331.45 439.995C1328.51 432.671 1326.88 424.8 1326.88 416.629C1326.88 377.084 1364.21 345 1410.27 345C1441.78 345 1469.2 360.031 1483.36 382.167C1495.41 373.996 1510.62 369.131 1527.18 369.131C1566.26 369.131 1598 396.378 1598 429.992V700H-4.95911e-05V429.992C-4.95911e-05 396.378 31.7363 369.131 70.8553 369.131Z" fill="#1D0E78"/>
</g>
</g>
</g>
<defs>
<radialGradient id="paint0_radial_1146_595" cx="0" cy="0" r="1" gradientUnits="userSpaceOnUse" gradientTransform="translate(818.35 12.9915) scale(1022.37 1150.88)">
<stop stop-color="#4A289C" stop-opacity="0"/>
<stop offset="0.96" stop-color="#00092B"/>
</radialGradient>
<radialGradient id="paint1_radial_1146_595" cx="0" cy="0" r="1" gradientUnits="userSpaceOnUse" gradientTransform="translate(819.987 56.8064) scale(890.255 1002.16)">
<stop stop-color="#4A289C" stop-opacity="0"/>
<stop offset="0.96" stop-color="#00092B"/>
</radialGradient>
<radialGradient id="paint2_radial_1146_595" cx="0" cy="0" r="1" gradientUnits="userSpaceOnUse" gradientTransform="translate(797.275 20.6831) scale(791.517 834.439)">
<stop stop-color="#4A289C"/>
<stop offset="0.96" stop-color="#00092B"/>
</radialGradient>
<radialGradient id="paint3_radial_1146_595" cx="0" cy="0" r="1" gradientUnits="userSpaceOnUse" gradientTransform="translate(824.251 73.8774) scale(511.902 512.22)">
<stop stop-color="#4A289C"/>
<stop offset="0.96" stop-color="#00092B"/>
</radialGradient>
<radialGradient id="paint4_radial_1146_595" cx="0" cy="0" r="1" gradientUnits="userSpaceOnUse" gradientTransform="translate(869.12 113.128) rotate(9.11557) scale(443.673 475.364)">
<stop stop-color="#4A289C"/>
<stop offset="0.96" stop-color="#00092B"/>
</radialGradient>
<radialGradient id="paint5_radial_1146_595" cx="0" cy="0" r="1" gradientUnits="userSpaceOnUse" gradientTransform="translate(887.101 246.43) scale(329.748 356.467)">
<stop stop-color="#4A289C"/>
<stop offset="0.96" stop-color="#00092B"/>
</radialGradient>
<radialGradient id="paint6_radial_1146_595" cx="0" cy="0" r="1" gradientUnits="userSpaceOnUse" gradientTransform="translate(999.207 18.0588) scale(407.365 440.374)">
<stop stop-color="#4A289C"/>
<stop offset="0.96" stop-color="#00092B"/>
</radialGradient>
<radialGradient id="paint7_radial_1146_595" cx="0" cy="0" r="1" gradientUnits="userSpaceOnUse" gradientTransform="translate(999.207 18.0589) scale(407.365 440.373)">
<stop stop-color="#4A289C"/>
<stop offset="0.96" stop-color="#00092B"/>
</radialGradient>
<radialGradient id="paint8_radial_1146_595" cx="0" cy="0" r="1" gradientUnits="userSpaceOnUse" gradientTransform="translate(999.207 18.0587) scale(407.365 440.373)">
<stop stop-color="#4A289C"/>
<stop offset="0.96" stop-color="#00092B"/>
</radialGradient>
<radialGradient id="paint9_radial_1146_595" cx="0" cy="0" r="1" gradientUnits="userSpaceOnUse" gradientTransform="translate(999.207 18.0587) scale(407.365 440.373)">
<stop stop-color="#4A289C"/>
<stop offset="0.96" stop-color="#00092B"/>
</radialGradient>
<radialGradient id="paint10_radial_1146_595" cx="0" cy="0" r="1" gradientUnits="userSpaceOnUse" gradientTransform="translate(999.207 18.0588) scale(407.365 440.373)">
<stop stop-color="#4A289C"/>
<stop offset="0.96" stop-color="#00092B"/>
</radialGradient>
<radialGradient id="paint11_radial_1146_595" cx="0" cy="0" r="1" gradientUnits="userSpaceOnUse" gradientTransform="translate(999.207 18.0589) scale(407.365 440.373)">
<stop stop-color="#4A289C"/>
<stop offset="0.96" stop-color="#00092B"/>
</radialGradient>
<radialGradient id="paint12_radial_1146_595" cx="0" cy="0" r="1" gradientUnits="userSpaceOnUse" gradientTransform="translate(462.73 231.069) scale(124.292 134.363)">
<stop stop-color="#4A289C"/>
<stop offset="0.96" stop-color="#00092B"/>
</radialGradient>
<radialGradient id="paint13_radial_1146_595" cx="0" cy="0" r="1" gradientUnits="userSpaceOnUse" gradientTransform="translate(1100.07 112.137) rotate(27.0344) scale(126.528 133.236)">
<stop stop-color="#4A289C"/>
<stop offset="0.96" stop-color="#00092B"/>
</radialGradient>
<radialGradient id="paint14_radial_1146_595" cx="0" cy="0" r="1" gradientUnits="userSpaceOnUse" gradientTransform="translate(1493.37 305.504) rotate(50.9774) scale(131 128.763)">
<stop stop-color="#4A289C"/>
<stop offset="0.96" stop-color="#00092B"/>
</radialGradient>
<radialGradient id="paint15_radial_1146_595" cx="0" cy="0" r="1" gradientUnits="userSpaceOnUse" gradientTransform="translate(1142.34 162.273) rotate(27.0344) scale(53.717 56.5649)">
<stop stop-color="#4A289C"/>
<stop offset="0.96" stop-color="#00092B"/>
</radialGradient>
<radialGradient id="paint16_radial_1146_595" cx="0" cy="0" r="1" gradientUnits="userSpaceOnUse" gradientTransform="translate(1205.73 257.326) rotate(27.0344) scale(53.717 56.5648)">
<stop stop-color="#4A289C"/>
<stop offset="0.96" stop-color="#00092B"/>
</radialGradient>
<radialGradient id="paint17_radial_1146_595" cx="0" cy="0" r="1" gradientUnits="userSpaceOnUse" gradientTransform="translate(1274.99 195.377) rotate(27.0344) scale(53.717 56.5648)">
<stop stop-color="#4A289C"/>
<stop offset="0.96" stop-color="#00092B"/>
</radialGradient>
<radialGradient id="paint18_radial_1146_595" cx="0" cy="0" r="1" gradientUnits="userSpaceOnUse" gradientTransform="translate(1355.6 319.44) rotate(41.3477) scale(54.6672 55.6141)">
<stop stop-color="#4A289C"/>
<stop offset="0.96" stop-color="#00092B"/>
</radialGradient>
<radialGradient id="paint19_radial_1146_595" cx="0" cy="0" r="1" gradientUnits="userSpaceOnUse" gradientTransform="translate(1333.5 212.235) rotate(34.6166) scale(86.9504 89.9945)">
<stop stop-color="#4A289C"/>
<stop offset="0.96" stop-color="#00092B"/>
</radialGradient>
<radialGradient id="paint20_radial_1146_595" cx="0" cy="0" r="1" gradientUnits="userSpaceOnUse" gradientTransform="translate(1107.37 229.587) rotate(28.3649) scale(86.1889 89.9998)">
<stop stop-color="#4A289C"/>
<stop offset="0.96" stop-color="#00092B"/>
</radialGradient>
<radialGradient id="paint21_radial_1146_595" cx="0" cy="0" r="1" gradientUnits="userSpaceOnUse" gradientTransform="translate(626.468 171.706) rotate(3.31205) scale(76.2759 82.4562)">
<stop stop-color="#4A289C"/>
<stop offset="0.96" stop-color="#00092B"/>
</radialGradient>
<radialGradient id="paint22_radial_1146_595" cx="0" cy="0" r="1" gradientUnits="userSpaceOnUse" gradientTransform="translate(615.931 247.634) rotate(3.31205) scale(76.2759 82.4561)">
<stop stop-color="#4A289C"/>
<stop offset="0.96" stop-color="#00092B"/>
</radialGradient>
<radialGradient id="paint23_radial_1146_595" cx="0" cy="0" r="1" gradientUnits="userSpaceOnUse" gradientTransform="translate(643.852 244.449) rotate(3.31206) scale(47.5161 51.3662)">
<stop stop-color="#4A289C"/>
<stop offset="0.96" stop-color="#00092B"/>
</radialGradient>
<radialGradient id="paint24_radial_1146_595" cx="0" cy="0" r="1" gradientUnits="userSpaceOnUse" gradientTransform="translate(585.599 144.378) rotate(3.31206) scale(47.5161 51.3661)">
<stop stop-color="#4A289C"/>
<stop offset="0.96" stop-color="#00092B"/>
</radialGradient>
<radialGradient id="paint25_radial_1146_595" cx="0" cy="0" r="1" gradientUnits="userSpaceOnUse" gradientTransform="translate(508.921 244.47) rotate(3.31206) scale(47.5161 51.3662)">
<stop stop-color="#4A289C"/>
<stop offset="0.96" stop-color="#00092B"/>
</radialGradient>
<radialGradient id="paint26_radial_1146_595" cx="0" cy="0" r="1" gradientUnits="userSpaceOnUse" gradientTransform="translate(694.649 137.848) scale(124.292 134.363)">
<stop stop-color="#4A289C"/>
<stop offset="0.96" stop-color="#00092B"/>
</radialGradient>
<radialGradient id="paint27_radial_1146_595" cx="0" cy="0" r="1" gradientUnits="userSpaceOnUse" gradientTransform="translate(741.652 151.243) rotate(3.31205) scale(47.5162 51.3662)">
<stop stop-color="#4A289C"/>
<stop offset="0.96" stop-color="#00092B"/>
</radialGradient>
<radialGradient id="paint28_radial_1146_595" cx="0" cy="0" r="1" gradientUnits="userSpaceOnUse" gradientTransform="translate(513.763 163.854) rotate(3.31205) scale(47.5162 51.3661)">
<stop stop-color="#4A289C"/>
<stop offset="0.96" stop-color="#00092B"/>
</radialGradient>
<clipPath id="clip0_1146_595">
<rect width="1598" height="582" fill="white"/>
</clipPath>
<clipPath id="clip1_1146_595">
<rect width="1986" height="666" fill="white" transform="translate(-158 18)"/>
</clipPath>
<clipPath id="clip2_1146_595">
<rect width="1598" height="323" fill="white" transform="matrix(-1 0 0 1 1598 259)"/>
</clipPath>
<clipPath id="clip3_1146_595">
<rect width="586.675" height="274.345" fill="white" transform="translate(421.868 267.451) rotate(2.88801)"/>
</clipPath>
</defs>
</svg>
