<svg width="390" height="313" viewBox="0 0 390 313" fill="none" xmlns="http://www.w3.org/2000/svg">
<g clip-path="url(#clip0_1072_402)">
<g clip-path="url(#clip1_1072_402)">
<path d="M472.674 305.038V277.083C457.433 270.227 465.888 182.073 443 168.5C400 143 306.797 117.394 350.5 57.9995L340.5 53.9995C340.5 53.9995 301.975 136.773 264 158C226.025 179.226 182.767 202.11 134.34 187.972C87.3545 174.245 80.9182 210.266 38.4381 204.477C6.12756 200.077 0.283333 138.624 -57.6826 138.534V305.038C-57.6826 311.316 -52.5979 316.397 -46.316 316.397H461.308C467.59 316.397 472.674 311.316 472.674 305.038Z" fill="#170A64"/>
</g>
<g clip-path="url(#clip2_1072_402)">
<path d="M339.519 57.626C336.989 63.874 336.175 71.9343 338.77 72.9847C341.366 74.0352 346.388 67.6775 348.915 61.4272C351.445 55.1792 350.524 51.4044 347.929 50.3539C345.334 49.3035 342.046 51.3757 339.517 57.6237L339.519 57.626Z" fill="#F1375A"/>
<path d="M341.577 55.8458C339.667 60.5645 339.052 66.6546 341.013 67.4465C342.973 68.2385 346.766 63.4367 348.676 58.718C350.587 53.9993 349.891 51.1481 347.931 50.3561C345.971 49.5641 343.488 51.1271 341.577 55.8458Z" fill="#F5A404"/>
<path d="M343.413 54.2586C342.056 57.6132 341.618 61.9403 343.012 62.5044C344.406 63.0685 347.103 59.6548 348.46 56.3002C349.816 52.9455 349.325 50.9199 347.931 50.3559C346.537 49.7918 344.774 50.9042 343.417 54.2588L343.413 54.2586Z" fill="#EAF2DF"/>
<g style="mix-blend-mode:multiply" opacity="0.3">
<path d="M346.757 58.1504C345.276 57.4646 343.72 57.1851 342.09 57.3056C341.277 57.4824 340.469 57.6595 339.656 57.8363C339.568 57.864 339.483 57.8939 339.398 57.9239C339.437 57.823 339.478 57.7244 339.517 57.6235C342.047 51.3754 345.334 49.3033 347.929 50.3537C350.335 51.3267 351.3 54.6404 349.412 60.0968C348.695 59.2443 347.809 58.5947 346.753 58.1501L346.757 58.1504Z" fill="#F1375A"/>
</g>
<path d="M343.398 39.9807C331.735 35.2612 327.478 53.8412 329.972 54.8482C332.464 55.8572 333.934 45.9534 339.991 48.4016L343.401 39.9786L343.398 39.9807Z" fill="#93278F"/>
<g style="mix-blend-mode:multiply" opacity="0.3">
<path d="M330.618 48.2549C331.761 49.5092 333.436 48.5937 334.469 47.6962C335.565 46.7476 336.497 45.6286 337.365 44.4749C338.069 43.542 338.58 42.5138 338.871 41.3777C339.051 40.6722 339.061 39.9585 339.077 39.2452C340.382 39.1335 341.824 39.3445 343.399 39.9811L339.989 48.404C333.932 45.9558 332.46 55.8573 329.97 54.8506C328.969 54.4445 329.058 51.1928 330.283 47.7598C330.362 47.9339 330.473 48.1011 330.615 48.257L330.618 48.2549Z" fill="#93278F"/>
</g>
<g style="mix-blend-mode:multiply" opacity="0.3">
<path d="M329.738 50.0519C330.426 51.8125 332.148 51.0009 333.158 50.0867C334.794 48.6061 336.563 47.0326 337.874 45.2554C339.206 43.4509 339.48 41.3818 339.542 39.2186C340.724 39.1873 342.007 39.4193 343.399 39.9811L339.989 48.404C333.932 45.9558 332.46 55.8573 329.97 54.8506C329.174 54.5274 329.069 52.4133 329.672 49.8413C329.694 49.9129 329.712 49.9843 329.738 50.0563L329.738 50.0519Z" fill="#93278F"/>
</g>
<path d="M358.403 46.0513C370.066 50.7708 360.202 67.0795 357.71 66.0705C355.218 65.0615 361.052 56.9248 354.993 54.4742L358.403 46.0513Z" fill="#93278F"/>
<g style="mix-blend-mode:multiply" opacity="0.3">
<path d="M362.383 48.975C362.159 49.0449 361.941 49.1503 361.737 49.2939C360.762 49.9906 360.486 51.1715 360.456 52.3038C360.404 54.1973 361.091 56.004 360.911 57.9117C360.831 58.7442 360.475 59.54 360.474 60.3774C360.47 61.1639 360.988 62.0307 361.776 62.0457C360.341 64.6747 358.579 66.4245 357.712 66.0728C355.22 65.0638 361.054 56.927 354.995 54.4765L358.405 46.0535C360.213 46.7857 361.503 47.794 362.385 48.9773L362.383 48.975Z" fill="#93278F"/>
</g>
<g style="mix-blend-mode:multiply" opacity="0.3">
<path d="M361.512 48.0015C359.683 48.3449 357.969 50.2097 357.411 51.8174C356.866 53.393 357.646 54.6911 358.255 56.0908C358.733 57.1925 359.08 58.6576 358.98 59.8691C358.904 60.7436 358.493 61.5713 358.464 62.4464C358.426 63.5606 359.049 64.5172 360.074 64.5841C359.135 65.6961 358.253 66.2907 357.712 66.0731C355.22 65.0641 361.054 56.9274 354.995 54.4768L358.405 46.0539C359.692 46.5762 360.713 47.2385 361.515 48.0038L361.512 48.0015Z" fill="#93278F"/>
</g>
<path d="M340.297 49.0711L354.092 54.6546L350.184 58.3614L340.526 54.4564L340.297 49.0711Z" fill="#666666"/>
<path d="M341.396 49.5161L352.994 54.2097L349.416 58.051L341.294 54.767L341.396 49.5161Z" fill="#808080"/>
<path d="M342.605 50.0071L351.782 53.7202L348.569 57.7068L342.143 55.1086L342.605 50.0071Z" fill="#666666"/>
<path d="M344.108 50.6153L350.279 53.1122L347.514 57.2822L343.196 55.5355L344.108 50.6153Z" fill="#808080"/>
<path d="M346 51.3813L348.389 52.3489L346.19 56.7467L344.52 56.0713L346 51.3813Z" fill="#666666"/>
<g style="mix-blend-mode:multiply" opacity="0.3">
<path d="M341.395 49.5164L341.369 50.8818L340.355 50.4705L340.297 49.0714L341.395 49.5164Z" fill="#666666"/>
<path d="M354.092 54.6547L353.079 55.6172L352.067 55.2082L352.994 54.2098L354.092 54.6547Z" fill="#666666"/>
<path d="M352.994 54.2097L352.067 55.2081L350.95 54.7554L351.782 53.7204L352.994 54.2097Z" fill="#808080"/>
<path d="M342.605 50.0074L342.484 51.332L341.369 50.8816L341.395 49.5162L342.605 50.0074Z" fill="#808080"/>
<path d="M351.782 53.7204L350.95 54.7554L349.562 54.1939L350.279 53.1123L351.782 53.7204Z" fill="#666666"/>
<path d="M344.108 50.6155L343.872 51.8934L342.484 51.3319L342.605 50.0074L344.108 50.6155Z" fill="#666666"/>
<path d="M350.279 53.1124L349.562 54.194L347.818 53.4877L348.389 52.3489L350.279 53.1124Z" fill="#808080"/>
<path d="M346 51.3815L345.616 52.5999L343.872 51.8936L344.108 50.6157L346 51.3815Z" fill="#808080"/>
<path d="M348.389 52.3492L347.818 53.488L345.615 52.5999L346 51.3816L348.389 52.3492Z" fill="#666666"/>
</g>
<path d="M355.976 8.56731C356.01 8.58258 356.042 8.59115 356.081 8.59793C356.116 8.60444 356.153 8.6089 356.188 8.60666C356.226 8.60674 356.263 8.60244 356.299 8.59581C356.335 8.58919 356.37 8.57819 356.404 8.56486C356.438 8.55154 356.47 8.53151 356.5 8.51354C356.53 8.49118 356.557 8.46651 356.581 8.44157C356.609 8.41689 356.628 8.38731 356.648 8.35772C356.667 8.32813 356.687 8.29417 356.7 8.26199C356.713 8.22981 356.724 8.19531 356.73 8.15617C356.737 8.1214 356.741 8.08431 356.739 8.04901C356.739 8.01165 356.737 7.97635 356.728 7.93846C356.722 7.90289 356.711 7.86705 356.697 7.83328C356.684 7.7995 356.664 7.76751 356.646 7.73784C356.624 7.70791 356.603 7.6803 356.574 7.65653C356.549 7.62866 356.52 7.60927 356.49 7.58989C356.429 7.54879 356.36 7.52263 356.289 7.50728C356.254 7.50076 356.217 7.49631 356.182 7.49855C356.144 7.49847 356.109 7.50071 356.071 7.50939C356.035 7.51602 356.002 7.52934 355.968 7.54267C355.934 7.556 355.902 7.57602 355.87 7.59605C355.84 7.6184 355.812 7.64308 355.789 7.66802C355.761 7.69269 355.741 7.72228 355.722 7.75187C355.7 7.78351 355.683 7.81542 355.67 7.8476C355.655 7.88183 355.646 7.91865 355.639 7.95342C355.633 7.98819 355.628 8.02528 355.631 8.06058C355.631 8.09794 355.633 8.13324 355.641 8.17113C355.648 8.2067 355.659 8.24253 355.675 8.27425C355.688 8.30803 355.706 8.3377 355.726 8.36969C355.748 8.39962 355.773 8.4275 355.798 8.451C355.823 8.47887 355.852 8.49826 355.882 8.51764C355.911 8.53703 355.945 8.55668 355.978 8.56963L355.976 8.56731Z" fill="white"/>
<path d="M371.004 14.6456C371.038 14.6608 371.075 14.6697 371.11 14.6762C371.144 14.6827 371.181 14.6872 371.217 14.6849C371.254 14.685 371.292 14.6807 371.327 14.6741C371.363 14.6675 371.399 14.6565 371.433 14.6431C371.466 14.6298 371.498 14.6098 371.528 14.5918C371.558 14.5695 371.586 14.5448 371.609 14.5198C371.637 14.4952 371.657 14.4656 371.676 14.436C371.695 14.4064 371.715 14.3724 371.728 14.3403C371.741 14.3081 371.752 14.2736 371.759 14.2344C371.765 14.1997 371.77 14.1626 371.767 14.1273C371.767 14.0899 371.765 14.0546 371.757 14.0167C371.75 13.9812 371.739 13.9453 371.726 13.9115C371.712 13.8778 371.692 13.8458 371.674 13.8161C371.652 13.7862 371.627 13.7583 371.602 13.7348C371.578 13.7069 371.548 13.6875 371.519 13.6682C371.457 13.6271 371.389 13.6009 371.317 13.5855C371.282 13.579 371.245 13.5746 371.21 13.5768C371.172 13.5767 371.139 13.5813 371.101 13.59C371.066 13.5966 371.03 13.6076 370.996 13.6209C370.962 13.6343 370.93 13.6543 370.901 13.6723C370.871 13.6946 370.843 13.7193 370.819 13.7442C370.791 13.7689 370.772 13.7985 370.753 13.8281C370.731 13.8597 370.714 13.8916 370.701 13.9238C370.646 14.059 370.648 14.2151 370.703 14.3525C370.716 14.3863 370.736 14.4183 370.756 14.4503C370.779 14.4802 370.799 14.5078 370.826 14.5336C370.851 14.5615 370.88 14.5809 370.91 14.6003C370.941 14.622 370.973 14.6393 371.006 14.6523L371.004 14.6456Z" fill="white"/>
<path d="M339.952 48.9335C339.952 48.9335 337.91 41.2091 341.157 33.1829C344.078 25.9675 350.825 13.3325 355.304 8.73954C359.471 4.46383 363.69 2.16714 366.8 3.42479C369.912 4.68476 371.346 9.26883 371.366 15.237C371.386 21.6515 367.445 35.4244 364.526 42.6377C361.277 50.6617 354.435 54.7942 354.435 54.7942L339.948 48.9333L339.952 48.9335Z" fill="#F2F2F2"/>
<g style="mix-blend-mode:multiply">
<path d="M366.8 3.42479C368.413 4.07692 369.576 5.62468 370.322 7.79324C367.895 7.22338 365.442 8.01894 363.289 9.16242C358.532 11.6901 355.431 15.822 353.48 20.7581C351.751 25.134 350.774 29.8634 352.356 34.428C353.055 36.4442 354.477 38.6363 356.249 39.8806C358.771 41.6497 361.717 41.4204 364.232 39.8C364.896 39.3701 365.518 38.8894 366.108 38.3715C365.566 39.9407 365.032 41.3872 364.526 42.6377C361.277 50.6617 354.435 54.7942 354.435 54.7942L339.948 48.9333C339.948 48.9333 337.906 41.2089 341.153 33.1826C344.074 25.9672 350.82 13.3322 355.299 8.73927C359.466 4.46356 363.686 2.16688 366.796 3.42453L366.8 3.42479Z" fill="#F2F2F2"/>
</g>
<g style="mix-blend-mode:multiply">
<path d="M346.259 28.9665C346.063 31.4886 345.916 34.1829 346.49 36.6618C347.593 41.4302 350.76 45.9682 356.03 46.553C358.852 46.8635 361.364 46.1243 363.556 44.7348C360.088 51.3828 354.437 54.7966 354.437 54.7966L339.95 48.9357C339.95 48.9357 337.908 41.2113 341.155 33.1851C342.918 28.8288 346.077 22.4961 349.29 17.1512C347.595 20.8919 346.567 24.9413 346.257 28.9685L346.259 28.9665Z" fill="#F2F2F2"/>
</g>
<path d="M355.304 8.73951C356.806 11.2619 359.208 13.3862 362.269 14.6255C365.329 15.8647 368.534 16.0073 371.368 15.2393C371.348 9.26674 369.915 4.68267 366.8 3.42476C363.688 2.16479 359.469 4.46148 355.304 8.73951Z" fill="#93278F"/>
<g style="mix-blend-mode:multiply" opacity="0.3">
<path d="M364.34 3.11665C363.54 3.5514 362.88 4.31776 362.51 5.43152C361.482 8.54908 363.315 10.8542 365.498 12.8575C366.707 13.9664 368.365 14.4959 369.927 13.7889C370.467 13.5427 370.919 13.1593 371.262 12.6945C371.326 13.5072 371.362 14.3577 371.363 15.2391C368.529 16.0071 365.325 15.8645 362.264 14.6253C359.204 13.386 356.802 11.2616 355.299 8.7393C358.449 5.50487 361.627 3.4085 364.335 3.11638L364.34 3.11665Z" fill="#93278F"/>
</g>
<g style="mix-blend-mode:multiply" opacity="0.3">
<path d="M359.964 4.83893C359.942 4.87057 359.923 4.90016 359.901 4.9318C358.5 7.21125 359.121 9.5282 360.639 11.5526C361.881 13.2041 363.572 14.8104 365.554 15.5334C364.454 15.3631 363.352 15.0629 362.262 14.6229C359.202 13.3837 356.8 11.2593 355.297 8.73691C356.864 7.1269 358.437 5.80081 359.958 4.83634L359.964 4.83893Z" fill="#93278F"/>
</g>
<path d="M363.226 13.7494C363.342 13.4642 363.203 13.1393 362.918 13.023C362.633 12.9067 362.308 13.0452 362.192 13.3304C362.075 13.6156 362.214 13.9405 362.499 14.0568C362.784 14.1731 363.109 14.0347 363.226 13.7494Z" fill="white"/>
<path d="M364.808 14.7932C365.109 14.8621 365.409 14.676 365.48 14.377C365.549 14.0757 365.363 13.7765 365.064 13.7055C364.765 13.6345 364.463 13.8228 364.392 14.1217C364.329 14.3926 364.475 14.6653 364.726 14.7663C364.752 14.7766 364.78 14.7849 364.808 14.7932Z" fill="white"/>
<path d="M361.093 12.7868C361.252 12.5218 361.165 12.1802 360.9 12.0212C360.635 11.8622 360.294 11.9491 360.135 12.2141C359.976 12.4792 360.063 12.8207 360.328 12.9797C360.353 12.9945 360.379 13.0092 360.407 13.0175C360.658 13.1185 360.951 13.0243 361.093 12.7868Z" fill="white"/>
<path d="M367.257 15.182C367.563 15.205 367.832 14.9709 367.851 14.6644C367.872 14.3558 367.642 14.0912 367.336 14.0681C367.027 14.0471 366.76 14.2792 366.742 14.5858C366.724 14.8331 366.871 15.0552 367.088 15.1409C367.141 15.164 367.198 15.1762 367.259 15.1799L367.257 15.182Z" fill="white"/>
<path d="M359.083 11.4884C359.279 11.252 359.25 10.9008 359.012 10.7016C358.776 10.5048 358.424 10.534 358.225 10.7724C358.028 11.0087 358.057 11.36 358.294 11.5568C358.34 11.5947 358.388 11.6263 358.444 11.6473C358.663 11.7353 358.922 11.6764 359.083 11.4884Z" fill="white"/>
<path d="M369.926 15.0195C370.233 14.9921 370.456 14.72 370.429 14.4128C370.402 14.1056 370.128 13.8802 369.822 13.9099C369.515 13.9373 369.29 14.2115 369.319 14.5166C369.339 14.731 369.478 14.9065 369.665 14.9816C369.746 15.013 369.833 15.027 369.926 15.0195Z" fill="white"/>
<path d="M357.277 9.64428C357.511 9.44537 357.537 9.09092 357.338 8.85682C357.135 8.62246 356.785 8.59673 356.55 8.79564C356.316 8.99456 356.288 9.34669 356.489 9.58311C356.551 9.6528 356.622 9.70551 356.704 9.73685C356.89 9.81196 357.114 9.78384 357.277 9.64428Z" fill="white"/>
<g filter="url(#filter0_d_1072_402)">
<path d="M352.503 21.6152C353.954 18.3726 357.758 16.9191 361 18.3687C364.243 19.8184 365.695 23.6221 364.245 26.8647C362.794 30.1072 358.99 31.5607 355.748 30.1111C352.506 28.6615 351.053 24.8577 352.503 21.6152Z" fill="#93278F"/>
</g>
<g style="mix-blend-mode:multiply" opacity="0.3">
<path d="M353.979 19.5424C353.8 19.8084 353.64 20.0822 353.493 20.3612C352.739 21.8119 352.724 23.8549 353.273 25.3653C353.815 26.8577 355.15 28.4511 356.654 29.0592C358.324 29.7347 359.95 29.8162 361.658 29.2785C362.218 29.1016 362.731 28.8296 363.196 28.4887C362.58 29.1874 361.799 29.7662 360.883 30.1544C357.612 31.5418 353.839 30.013 352.453 26.7417C351.369 24.1878 352.065 21.3269 353.977 19.5357L353.979 19.5424Z" fill="#93278F"/>
</g>
<path d="M356.743 30.0733C357.009 30.1489 357.287 29.99 357.363 29.7243C357.436 29.4562 357.281 29.183 357.014 29.1052C356.746 29.0317 356.468 29.1862 356.394 29.4543C356.324 29.7027 356.456 29.9591 356.69 30.0547C356.707 30.0601 356.726 30.0679 356.743 30.0733ZM355.082 28.7435C355.266 28.535 355.244 28.2193 355.035 28.0352C354.829 27.8534 354.511 27.8736 354.327 28.0821C354.143 28.2907 354.165 28.6063 354.373 28.7905C354.42 28.8284 354.466 28.8576 354.518 28.8784C354.711 28.9561 354.938 28.9084 355.084 28.7458L355.082 28.7435ZM359.436 30.2045C359.708 30.1551 359.891 29.8937 359.844 29.6205C359.794 29.3494 359.535 29.1644 359.262 29.2158C358.989 29.2629 358.806 29.5243 358.857 29.7977C358.888 29.9733 359.007 30.1124 359.163 30.1769C359.247 30.2105 359.343 30.2208 359.441 30.2048L359.436 30.2045ZM353.456 26.8686C353.711 26.7589 353.832 26.4652 353.723 26.2101C353.723 26.2101 353.716 26.2032 353.717 26.1988C353.607 25.9438 353.313 25.8226 353.061 25.9302C352.803 26.0376 352.687 26.3316 352.792 26.5864C352.792 26.5864 352.796 26.591 352.798 26.5934C352.798 26.5934 352.802 26.598 352.804 26.6003C352.858 26.7267 352.96 26.823 353.078 26.8719C353.196 26.9209 353.334 26.9227 353.46 26.8689L353.456 26.8686ZM361.921 29.1537C362.146 28.9916 362.196 28.6781 362.034 28.4529C361.872 28.2276 361.558 28.1778 361.333 28.3399C361.108 28.5019 361.058 28.8154 361.218 29.0383C361.277 29.1188 361.352 29.1762 361.436 29.2099C361.59 29.272 361.771 29.2567 361.919 29.1514L361.921 29.1537ZM352.803 24.4596C353.079 24.4721 353.314 24.26 353.331 23.9841C353.344 23.7079 353.132 23.473 352.856 23.4562C352.58 23.4438 352.345 23.6559 352.328 23.9317C352.319 24.151 352.45 24.3458 352.643 24.4235C352.692 24.4419 352.746 24.4561 352.806 24.4576L352.803 24.4596ZM363.702 27.1303C363.833 26.8856 363.744 26.5835 363.501 26.45C363.257 26.3186 362.952 26.41 362.819 26.6524C362.685 26.8948 362.776 27.1992 363.021 27.3306C363.038 27.3405 363.053 27.348 363.072 27.3557C363.306 27.4513 363.578 27.3558 363.702 27.1303ZM353.941 21.8169C354.074 21.5744 353.983 21.27 353.741 21.1365C353.496 21.0051 353.194 21.0944 353.06 21.3368C352.929 21.5816 353.018 21.8837 353.26 22.0172C353.277 22.027 353.297 22.0348 353.312 22.0423C353.543 22.1355 353.817 22.0423 353.941 21.8169ZM363.904 25.0086C364.182 25.0234 364.415 24.809 364.432 24.5331C364.444 24.2569 364.232 24.0221 363.954 24.0073C363.676 23.9925 363.443 24.2069 363.428 24.4851C363.415 24.7041 363.548 24.8968 363.741 24.9745C363.793 24.9952 363.845 25.0072 363.904 25.0086ZM355.426 20.1294C355.652 19.9673 355.706 19.6541 355.544 19.4289C355.382 19.2036 355.069 19.1537 354.841 19.3135C354.616 19.4756 354.562 19.7888 354.724 20.014C354.782 20.0945 354.858 20.1519 354.944 20.1879C355.098 20.25 355.279 20.2347 355.426 20.1294ZM363.692 22.5364C363.95 22.429 364.066 22.135 363.959 21.8779C363.852 21.6208 363.558 21.504 363.301 21.6114C363.044 21.7188 362.927 22.0128 363.034 22.2699C363.088 22.3963 363.19 22.4926 363.308 22.5415C363.425 22.5905 363.564 22.5923 363.69 22.5385L363.692 22.5364ZM357.502 19.2581C357.775 19.211 357.958 18.9496 357.909 18.6741C357.862 18.4009 357.601 18.2179 357.327 18.2694C357.056 18.3188 356.871 18.5779 356.922 18.8513C356.953 19.0268 357.074 19.1683 357.229 19.2304C357.312 19.2641 357.406 19.2764 357.504 19.2604L357.502 19.2581ZM362.432 20.4003C362.616 20.1917 362.596 19.874 362.387 19.6899C362.181 19.508 361.861 19.5259 361.679 19.7368C361.495 19.9454 361.515 20.2631 361.724 20.4428C361.768 20.4828 361.816 20.51 361.866 20.5328C362.059 20.6105 362.286 20.5628 362.432 20.4003ZM359.748 19.3707C360.013 19.4463 360.291 19.2918 360.367 19.026C360.444 18.7583 360.288 18.4828 360.02 18.4049C359.752 18.3314 359.474 18.486 359.401 18.754C359.331 19.0025 359.46 19.2609 359.694 19.3565C359.711 19.3619 359.728 19.3674 359.747 19.3751L359.748 19.3707Z" fill="white"/>
<path d="M354.09 26.0546C355.095 28.4213 357.825 29.5262 360.19 28.523C362.557 27.5178 363.662 24.7874 362.66 22.423C361.655 20.0563 358.925 18.9515 356.56 19.9546C354.195 20.9578 353.088 23.6902 354.09 26.0546Z" fill="#662D91"/>
<path d="M355.49 27.4213C357.248 29.0141 359.964 28.8808 361.557 27.1229C363.15 25.3651 363.017 22.6493 361.26 21.0565C359.502 19.4637 356.786 19.5971 355.193 21.3549C353.6 23.1127 353.733 25.8285 355.49 27.4213Z" fill="#29DFE2"/>
<g style="mix-blend-mode:multiply">
<path d="M354.614 22.5681C354.611 23.9086 355.202 25.5556 356.216 26.4768C357.343 27.4971 358.605 28.0333 360.114 28.1055C360.158 28.1082 360.198 28.1062 360.242 28.1089C358.713 28.8443 356.827 28.6327 355.492 27.4239C353.977 26.048 353.672 23.8404 354.638 22.1323C354.625 22.2809 354.615 22.4298 354.613 22.5725L354.614 22.5681Z" fill="#29DFE2"/>
</g>
<g style="mix-blend-mode:overlay" opacity="0.5">
<path d="M358.908 19.9768C359.506 20.0528 360.092 20.2511 360.625 20.5782L360.973 27.6565C360.475 28.0349 359.91 28.2906 359.323 28.4241L358.908 19.9768Z" fill="white"/>
</g>
<g style="mix-blend-mode:overlay" opacity="0.5">
<path d="M357.656 20.0084C357.887 19.9697 358.121 19.9488 358.356 19.9478L358.777 28.514C358.543 28.5349 358.31 28.5383 358.076 28.5218L357.658 20.0063L357.656 20.0084Z" fill="white"/>
</g>
<path d="M345.594 49.9387C343.522 55.0565 341.443 62.9649 342.631 63.4461C343.819 63.9273 347.827 56.7979 349.898 51.6802C351.97 46.5625 351.32 45.3932 350.132 44.912C348.944 44.4308 347.665 44.821 345.594 49.9387Z" fill="#93278F"/>
<g style="mix-blend-mode:multiply" opacity="0.3">
<path d="M350.132 44.9123C350.256 44.9638 350.376 45.0238 350.486 45.0921C348.891 45.6542 347.748 47.4241 347.092 48.9028C346.48 50.2853 346.101 51.7721 345.75 53.2386C345.546 54.0943 345.263 55.1693 345.828 55.9532C346.434 56.7923 347.074 56.8511 347.708 56.4348C345.728 60.312 343.472 63.792 342.631 63.4507C341.443 62.9695 343.522 55.0611 345.594 49.9433C347.665 44.8256 348.944 44.4354 350.132 44.9166L350.132 44.9123Z" fill="#93278F"/>
</g>
<g style="mix-blend-mode:multiply" opacity="0.3">
<path d="M347.892 45.6437C347.754 45.9562 347.615 46.2906 347.47 46.6466C345.399 51.7643 343.319 59.6727 344.507 60.1539C345.041 60.3689 346.137 59.0554 347.374 57.0825C345.481 60.688 343.427 63.7694 342.631 63.4462C341.443 62.965 343.522 55.0565 345.594 49.9388C346.489 47.7297 347.235 46.3993 347.892 45.6437Z" fill="#93278F"/>
</g>
<g style="mix-blend-mode:overlay" opacity="0.5">
<path d="M367.411 9.70616C367.804 11.1938 368.691 12.2479 369.395 12.0644C370.1 11.8788 370.355 10.5229 369.962 9.03524C369.57 7.54759 368.683 6.49353 367.979 6.67703C367.276 6.86053 367.019 8.21851 367.411 9.70616Z" fill="white"/>
</g>
<g style="mix-blend-mode:overlay" opacity="0.5">
<path d="M366.912 22.2888C366.656 23.8073 367.035 25.1336 367.75 25.2542C368.47 25.375 369.258 24.2428 369.516 22.7266C369.772 21.2081 369.393 19.8818 368.678 19.7612C367.958 19.6404 367.17 20.7726 366.912 22.2888Z" fill="white"/>
</g>
<g style="mix-blend-mode:overlay" opacity="0.5">
<path d="M367.937 17.5377C367.84 18.1208 368.232 18.6722 368.815 18.7693C369.398 18.8663 369.95 18.4736 370.047 17.8905C370.144 17.3074 369.752 16.756 369.169 16.6589C368.586 16.5619 368.034 16.9546 367.937 17.5377Z" fill="white"/>
</g>
</g>
</g>
<defs>
<filter id="filter0_d_1072_402" x="351.941" y="17.8071" width="13.866" height="15.8657" filterUnits="userSpaceOnUse" color-interpolation-filters="sRGB">
<feFlood flood-opacity="0" result="BackgroundImageFix"/>
<feColorMatrix in="SourceAlpha" type="matrix" values="0 0 0 0 0 0 0 0 0 0 0 0 0 0 0 0 0 0 127 0" result="hardAlpha"/>
<feOffset dx="1" dy="3"/>
<feColorMatrix type="matrix" values="0 0 0 0 0 0 0 0 0 0 0 0 0 0 0 0 0 0 0.8 0"/>
<feBlend mode="normal" in2="BackgroundImageFix" result="effect1_dropShadow_1072_402"/>
<feBlend mode="normal" in="SourceGraphic" in2="effect1_dropShadow_1072_402" result="shape"/>
</filter>
<clipPath id="clip0_1072_402">
<rect width="390" height="313" fill="white"/>
</clipPath>
<clipPath id="clip1_1072_402">
<rect width="530.357" height="281.538" fill="white" transform="translate(-53.2422 33.4614)"/>
</clipPath>
<clipPath id="clip2_1072_402">
<rect width="51.6438" height="74.9286" fill="white" transform="matrix(-0.5847 -0.811249 -0.677223 0.735778 394.637 41.896)"/>
</clipPath>
</defs>
</svg>
