<svg width="1600" height="843" viewBox="0 0 1600 843" fill="none" xmlns="http://www.w3.org/2000/svg">
<g clip-path="url(#clip0_633_64)">
<g clip-path="url(#clip1_633_64)">
<path d="M1977.14 863.325L1969.49 760.141C1911.35 739.007 1843 774.064 1715.14 733.992C1536.6 678.01 1393.66 358.169 1538.71 126.963L1490.05 90.5629C1490.05 90.5629 1330.06 373.393 1195.7 462.144C1061.35 550.895 878.864 562.814 696.24 523.894C519.05 486.098 505.159 620.817 346.774 611.085C226.306 603.696 187.901 378.464 -26.0841 394.01L19.5243 1008.6C21.2439 1031.77 41.4043 1049.13 64.5916 1047.41L1938.3 908.367C1961.49 906.646 1978.86 886.497 1977.14 863.325Z" fill="#170A64"/>
</g>
<g clip-path="url(#clip2_633_64)">
<path d="M1417.19 250.956C1406.18 278.166 1402.63 313.267 1413.93 317.842C1425.24 322.417 1447.11 294.73 1458.11 267.51C1469.13 240.301 1465.12 223.862 1453.82 219.287C1442.52 214.713 1428.2 223.737 1417.18 250.946L1417.19 250.956Z" fill="#F1375A"/>
<path d="M1425.24 243.993C1416.92 264.543 1414.25 291.064 1422.78 294.513C1431.32 297.962 1447.84 277.051 1456.16 256.501C1464.48 235.952 1461.45 223.535 1452.91 220.086C1444.38 216.637 1433.56 223.444 1425.24 243.993Z" fill="#F5A404"/>
<path d="M1434.15 236.293C1428.24 250.902 1426.33 269.746 1432.4 272.203C1438.48 274.659 1450.22 259.793 1456.13 245.184C1462.04 230.575 1459.9 221.754 1453.83 219.297C1447.76 216.841 1440.08 221.685 1434.17 236.294L1434.15 236.293Z" fill="#EAF2DF"/>
<g style="mix-blend-mode:multiply" opacity="0.3">
<path d="M1448.72 253.241C1442.27 250.254 1435.49 249.037 1428.39 249.561C1424.85 250.332 1421.33 251.103 1417.79 251.873C1417.41 251.993 1417.04 252.124 1416.66 252.254C1416.83 251.815 1417.01 251.385 1417.18 250.946C1428.2 223.736 1442.52 214.712 1453.82 219.287C1464.3 223.524 1468.5 237.955 1460.28 261.717C1457.15 258.004 1453.3 255.176 1448.7 253.24L1448.72 253.241Z" fill="#F1375A"/>
</g>
<path d="M1434.09 174.115C1383.3 153.562 1364.76 234.476 1375.62 238.861C1386.47 243.255 1392.87 200.125 1419.25 210.787L1434.1 174.106L1434.09 174.115Z" fill="#93278F"/>
<g style="mix-blend-mode:multiply" opacity="0.3">
<path d="M1378.43 210.146C1383.41 215.608 1390.7 211.622 1395.2 207.713C1399.97 203.582 1404.03 198.709 1407.81 193.685C1410.88 189.622 1413.1 185.144 1414.37 180.197C1415.15 177.124 1415.2 174.016 1415.27 170.91C1420.95 170.424 1427.23 171.342 1434.09 174.115L1419.24 210.796C1392.86 200.134 1386.45 243.254 1375.61 238.87C1371.25 237.101 1371.63 222.94 1376.97 207.99C1377.32 208.748 1377.8 209.476 1378.42 210.155L1378.43 210.146Z" fill="#93278F"/>
</g>
<g style="mix-blend-mode:multiply" opacity="0.3">
<path d="M1374.6 217.972C1377.6 225.639 1385.1 222.105 1389.49 218.123C1396.62 211.676 1404.32 204.823 1410.03 197.083C1415.83 189.225 1417.02 180.215 1417.29 170.794C1422.44 170.658 1428.03 171.668 1434.09 174.115L1419.24 210.796C1392.86 200.134 1386.45 243.254 1375.61 238.87C1372.14 237.462 1371.68 228.255 1374.31 217.055C1374.41 217.367 1374.48 217.678 1374.6 217.991L1374.6 217.972Z" fill="#93278F"/>
</g>
<path d="M1499.43 200.551C1550.22 221.104 1507.27 292.126 1496.41 287.732C1485.56 283.338 1510.97 247.903 1484.58 237.232L1499.43 200.551Z" fill="#93278F"/>
<g style="mix-blend-mode:multiply" opacity="0.3">
<path d="M1516.76 213.284C1515.79 213.588 1514.84 214.047 1513.95 214.672C1509.71 217.706 1508.5 222.849 1508.37 227.78C1508.14 236.026 1511.14 243.894 1510.35 252.202C1510.01 255.827 1508.45 259.293 1508.45 262.939C1508.43 266.365 1510.69 270.139 1514.12 270.205C1507.87 281.654 1500.2 289.274 1496.42 287.742C1485.57 283.348 1510.98 247.914 1484.59 237.242L1499.44 200.561C1507.31 203.749 1512.93 208.14 1516.77 213.294L1516.76 213.284Z" fill="#93278F"/>
</g>
<g style="mix-blend-mode:multiply" opacity="0.3">
<path d="M1512.97 209.042C1505 210.538 1497.54 218.659 1495.11 225.661C1492.74 232.522 1496.13 238.175 1498.79 244.271C1500.87 249.068 1502.38 255.449 1501.94 260.725C1501.61 264.533 1499.82 268.138 1499.7 271.949C1499.53 276.801 1502.25 280.967 1506.71 281.258C1502.62 286.101 1498.78 288.69 1496.42 287.743C1485.57 283.348 1510.98 247.914 1484.59 237.242L1499.44 200.561C1505.04 202.836 1509.49 205.72 1512.98 209.053L1512.97 209.042Z" fill="#93278F"/>
</g>
<path d="M1420.58 213.701L1480.66 238.017L1463.64 254.16L1421.58 237.154L1420.58 213.701Z" fill="#666666"/>
<path d="M1425.36 215.639L1475.88 236.079L1460.29 252.807L1424.92 238.506L1425.36 215.639Z" fill="#808080"/>
<path d="M1430.63 217.778L1470.6 233.949L1456.61 251.31L1428.62 239.995L1430.63 217.778Z" fill="#666666"/>
<path d="M1437.18 220.426L1464.05 231.3L1452.01 249.46L1433.21 241.854L1437.18 220.426Z" fill="#808080"/>
<path d="M1445.42 223.762L1455.82 227.975L1446.25 247.127L1438.97 244.186L1445.42 223.762Z" fill="#666666"/>
<g style="mix-blend-mode:multiply" opacity="0.3">
<path d="M1425.37 215.638L1425.25 221.584L1420.83 219.793L1420.58 213.701L1425.37 215.638Z" fill="#666666"/>
<path d="M1480.66 238.016L1476.25 242.208L1471.84 240.427L1475.88 236.079L1480.66 238.016Z" fill="#666666"/>
<path d="M1475.88 236.079L1471.84 240.427L1466.97 238.455L1470.6 233.948L1475.88 236.079Z" fill="#808080"/>
<path d="M1430.63 217.778L1430.11 223.546L1425.25 221.585L1425.37 215.639L1430.63 217.778Z" fill="#808080"/>
<path d="M1470.6 233.948L1466.97 238.456L1460.93 236.01L1464.05 231.3L1470.6 233.948Z" fill="#666666"/>
<path d="M1437.18 220.426L1436.15 225.991L1430.11 223.546L1430.63 217.778L1437.18 220.426Z" fill="#666666"/>
<path d="M1464.05 231.3L1460.93 236.01L1453.34 232.935L1455.82 227.975L1464.05 231.3Z" fill="#808080"/>
<path d="M1445.42 223.761L1443.74 229.067L1436.15 225.991L1437.18 220.426L1445.42 223.761Z" fill="#808080"/>
<path d="M1455.82 227.975L1453.34 232.935L1443.74 229.067L1445.42 223.761L1455.82 227.975Z" fill="#666666"/>
</g>
<path d="M1488.86 37.3112C1489.01 37.3777 1489.15 37.415 1489.32 37.4445C1489.47 37.4729 1489.63 37.4923 1489.79 37.4826C1489.95 37.4829 1490.11 37.4642 1490.27 37.4353C1490.42 37.4065 1490.58 37.3586 1490.73 37.3005C1490.87 37.2425 1491.01 37.1553 1491.14 37.077C1491.27 36.9797 1491.39 36.8722 1491.5 36.7636C1491.62 36.6562 1491.7 36.5273 1491.79 36.3985C1491.87 36.2696 1491.96 36.1217 1492.01 35.9816C1492.07 35.8414 1492.12 35.6912 1492.15 35.5207C1492.18 35.3693 1492.2 35.2078 1492.19 35.054C1492.19 34.8914 1492.18 34.7376 1492.14 34.5726C1492.11 34.4177 1492.06 34.2617 1492 34.1146C1491.95 33.9675 1491.86 33.8282 1491.78 33.699C1491.68 33.5686 1491.59 33.4484 1491.47 33.3449C1491.36 33.2235 1491.23 33.1391 1491.1 33.0546C1490.84 32.8757 1490.54 32.7617 1490.22 32.6949C1490.07 32.6665 1489.91 32.6471 1489.76 32.6569C1489.59 32.6565 1489.44 32.6663 1489.28 32.7041C1489.12 32.7329 1488.97 32.791 1488.83 32.849C1488.68 32.907 1488.54 32.9942 1488.4 33.0815C1488.27 33.1788 1488.15 33.2863 1488.05 33.3949C1487.93 33.5023 1487.84 33.6312 1487.76 33.76C1487.66 33.8978 1487.59 34.0368 1487.53 34.1769C1487.46 34.326 1487.42 34.4864 1487.4 34.6378C1487.37 34.7892 1487.35 34.9507 1487.36 35.1044C1487.36 35.2671 1487.37 35.4209 1487.41 35.5859C1487.43 35.7408 1487.48 35.8968 1487.55 36.035C1487.61 36.1821 1487.69 36.3113 1487.77 36.4506C1487.87 36.5809 1487.98 36.7023 1488.09 36.8047C1488.19 36.9261 1488.32 37.0105 1488.45 37.0949C1488.58 37.1793 1488.73 37.2649 1488.87 37.3213L1488.86 37.3112Z" fill="white"/>
<path d="M1554.31 63.7822C1554.46 63.8487 1554.62 63.8872 1554.77 63.9155C1554.92 63.9439 1555.08 63.9633 1555.23 63.9535C1555.4 63.9539 1555.56 63.9352 1555.72 63.9063C1555.87 63.8775 1556.03 63.8296 1556.17 63.7715C1556.32 63.7135 1556.46 63.6263 1556.59 63.548C1556.72 63.4507 1556.84 63.3432 1556.94 63.2346C1557.07 63.1271 1557.15 62.9983 1557.23 62.8694C1557.32 62.7406 1557.4 62.5927 1557.46 62.4525C1557.52 62.3124 1557.56 62.1622 1557.59 61.9917C1557.62 61.8403 1557.64 61.6788 1557.63 61.525C1557.63 61.3623 1557.62 61.2086 1557.58 61.0436C1557.56 60.8887 1557.51 60.7326 1557.45 60.5855C1557.39 60.4384 1557.31 60.2991 1557.23 60.1699C1557.13 60.0396 1557.02 59.9182 1556.91 59.8159C1556.81 59.6945 1556.68 59.61 1556.55 59.5256C1556.28 59.3467 1555.98 59.2327 1555.67 59.1658C1555.52 59.1375 1555.36 59.1181 1555.2 59.1278C1555.04 59.1275 1554.9 59.1474 1554.73 59.1852C1554.58 59.214 1554.42 59.2619 1554.27 59.32C1554.13 59.378 1553.99 59.4652 1553.86 59.5435C1553.73 59.6408 1553.61 59.7483 1553.5 59.8569C1553.38 59.9644 1553.3 60.0932 1553.21 60.2221C1553.12 60.3599 1553.04 60.4988 1552.99 60.639C1552.75 61.2275 1552.76 61.9074 1553 62.506C1553.05 62.6531 1553.14 62.7924 1553.23 62.9317C1553.33 63.062 1553.41 63.1823 1553.53 63.2947C1553.64 63.4161 1553.77 63.5005 1553.9 63.585C1554.04 63.6795 1554.17 63.755 1554.31 63.8114L1554.31 63.7822Z" fill="white"/>
<path d="M1419.08 213.102C1419.08 213.102 1410.19 179.463 1424.33 144.51C1437.05 113.087 1466.43 58.0634 1485.93 38.0615C1504.08 19.4412 1522.46 9.43938 1536 14.9163C1549.55 20.4033 1555.8 40.3665 1555.88 66.3574C1555.97 94.2915 1538.81 154.271 1526.1 185.685C1511.95 220.628 1482.15 238.625 1482.15 238.625L1419.06 213.101L1419.08 213.102Z" fill="#F2F2F2"/>
<g style="mix-blend-mode:multiply">
<path d="M1536 14.9163C1543.02 17.7563 1548.09 24.4966 1551.34 33.9405C1540.77 31.4588 1530.09 34.9234 1520.71 39.9031C1499.99 50.9109 1486.49 68.9048 1477.99 90.4009C1470.46 109.458 1466.21 130.054 1473.1 149.932C1476.14 158.712 1482.33 168.259 1490.05 173.677C1501.04 181.382 1513.86 180.383 1524.82 173.327C1527.71 171.455 1530.42 169.361 1532.99 167.106C1530.63 173.939 1528.3 180.239 1526.1 185.685C1511.95 220.628 1482.15 238.625 1482.15 238.625L1419.06 213.101C1419.06 213.101 1410.17 179.462 1424.31 144.508C1437.03 113.086 1466.41 58.0622 1485.91 38.0603C1504.06 19.4401 1522.44 9.43825 1535.98 14.9152L1536 14.9163Z" fill="#F2F2F2"/>
</g>
<g style="mix-blend-mode:multiply">
<path d="M1446.55 126.147C1445.69 137.131 1445.05 148.864 1447.55 159.659C1452.36 180.425 1466.15 200.188 1489.1 202.735C1501.39 204.087 1512.32 200.867 1521.87 194.816C1506.77 223.768 1482.16 238.635 1482.16 238.635L1419.07 213.111C1419.07 213.111 1410.18 179.472 1424.32 144.519C1432 125.547 1445.75 97.969 1459.74 74.6928C1452.36 90.9829 1447.89 108.618 1446.54 126.156L1446.55 126.147Z" fill="#F2F2F2"/>
</g>
<path d="M1485.93 38.0613C1492.48 49.0459 1502.94 58.2974 1516.27 63.6942C1529.59 69.091 1543.55 69.7117 1555.89 66.3673C1555.81 40.3574 1549.56 20.3942 1536 14.9161C1522.45 9.42911 1504.07 19.4309 1485.93 38.0613Z" fill="#93278F"/>
<g style="mix-blend-mode:multiply" opacity="0.3">
<path d="M1525.29 13.5741C1521.8 15.4674 1518.93 18.8048 1517.32 23.6551C1512.84 37.2317 1520.82 47.2701 1530.33 55.9945C1535.59 60.8234 1542.81 63.1297 1549.62 60.0508C1551.97 58.9787 1553.94 57.3088 1555.43 55.2845C1555.71 58.8239 1555.87 62.5279 1555.87 66.3662C1543.53 69.7105 1529.58 69.0898 1516.25 63.693C1502.92 58.2962 1492.46 49.0447 1485.91 38.0601C1499.63 23.9746 1513.47 14.8451 1525.27 13.5729L1525.29 13.5741Z" fill="#93278F"/>
</g>
<g style="mix-blend-mode:multiply" opacity="0.3">
<path d="M1506.23 21.0746C1506.14 21.2124 1506.05 21.3413 1505.96 21.4791C1499.85 31.4059 1502.56 41.4959 1509.17 50.3118C1514.58 57.5039 1521.94 64.4993 1530.57 67.6478C1525.78 66.9062 1520.98 65.5991 1516.24 63.6828C1502.91 58.286 1492.45 49.0345 1485.91 38.05C1492.73 31.0385 1499.58 25.2636 1506.2 21.0634L1506.23 21.0746Z" fill="#93278F"/>
</g>
<path d="M1520.43 59.8808C1520.94 58.6387 1520.34 57.2237 1519.1 56.7173C1517.85 56.2109 1516.44 56.8138 1515.93 58.0559C1515.42 59.298 1516.03 60.713 1517.27 61.2193C1518.51 61.7257 1519.93 61.1228 1520.43 59.8808Z" fill="white"/>
<path d="M1527.32 64.4255C1528.64 64.7256 1529.94 63.915 1530.25 62.613C1530.55 61.3009 1529.74 59.9977 1528.44 59.6886C1527.13 59.3796 1525.82 60.1992 1525.51 61.5012C1525.24 62.681 1525.87 63.8682 1526.97 64.3081C1527.08 64.3532 1527.2 64.3894 1527.32 64.4255Z" fill="white"/>
<path d="M1511.15 55.6875C1511.84 54.5333 1511.46 53.0459 1510.31 52.3534C1509.15 51.661 1507.67 52.0393 1506.97 53.1935C1506.28 54.3477 1506.66 55.8351 1507.81 56.5275C1507.92 56.5917 1508.03 56.6559 1508.16 56.6921C1509.25 57.1319 1510.53 56.7218 1511.15 55.6875Z" fill="white"/>
<path d="M1537.99 66.1187C1539.32 66.2192 1540.49 65.1995 1540.58 63.8645C1540.67 62.5206 1539.67 61.3685 1538.33 61.268C1536.99 61.1766 1535.83 62.1872 1535.74 63.5222C1535.67 64.5992 1536.31 65.5666 1537.25 65.9399C1537.49 66.0403 1537.73 66.0935 1538 66.1098L1537.99 66.1187Z" fill="white"/>
<path d="M1502.39 50.0329C1503.25 49.0036 1503.12 47.4741 1502.08 46.6069C1501.05 45.7497 1499.52 45.8767 1498.66 46.9149C1497.8 47.9442 1497.93 49.4737 1498.96 50.3309C1499.16 50.4962 1499.37 50.6335 1499.61 50.7249C1500.56 51.1084 1501.69 50.8516 1502.39 50.0329Z" fill="white"/>
<path d="M1549.61 65.4107C1550.95 65.2913 1551.92 64.1063 1551.8 62.7686C1551.68 61.431 1550.49 60.449 1549.16 60.5785C1547.82 60.698 1546.84 61.892 1546.97 63.2207C1547.06 64.1543 1547.66 64.9186 1548.47 65.2457C1548.83 65.3822 1549.21 65.4436 1549.61 65.4107Z" fill="white"/>
<path d="M1494.53 42.0022C1495.55 41.1359 1495.66 39.5923 1494.79 38.5728C1493.91 37.5522 1492.38 37.4402 1491.36 38.3064C1490.34 39.1727 1490.22 40.7062 1491.1 41.7357C1491.37 42.0392 1491.68 42.2688 1492.03 42.4053C1492.85 42.7324 1493.82 42.6099 1494.53 42.0022Z" fill="white"/>
<g filter="url(#filter0_d_633_64)">
<path d="M1473.74 94.1341C1480.06 80.0131 1496.62 73.6834 1510.74 79.9963C1524.86 86.3092 1531.19 102.874 1524.87 116.995C1518.56 131.116 1501.99 137.446 1487.87 131.133C1473.75 124.82 1467.42 108.255 1473.74 94.1341Z" fill="#93278F"/>
</g>
<g style="mix-blend-mode:multiply" opacity="0.3">
<path d="M1480.16 85.1061C1479.39 86.2646 1478.69 87.4569 1478.05 88.6718C1474.76 94.9895 1474.7 103.887 1477.09 110.464C1479.45 116.963 1485.27 123.903 1491.81 126.551C1499.09 129.492 1506.17 129.847 1513.61 127.506C1516.05 126.736 1518.28 125.551 1520.31 124.066C1517.62 127.109 1514.22 129.63 1510.23 131.32C1495.99 137.362 1479.56 130.704 1473.52 116.458C1468.8 105.336 1471.83 92.8773 1480.16 85.0769L1480.16 85.1061Z" fill="#93278F"/>
</g>
<path d="M1492.2 130.968C1493.36 131.297 1494.57 130.605 1494.9 129.448C1495.22 128.281 1494.55 127.091 1493.38 126.752C1492.21 126.432 1491 127.105 1490.68 128.272C1490.38 129.354 1490.95 130.471 1491.97 130.887C1492.04 130.911 1492.13 130.944 1492.2 130.968ZM1484.97 125.177C1485.77 124.269 1485.67 122.894 1484.76 122.092C1483.86 121.3 1482.48 121.388 1481.68 122.297C1480.88 123.205 1480.97 124.58 1481.88 125.381C1482.08 125.547 1482.29 125.674 1482.51 125.764C1483.35 126.103 1484.34 125.895 1484.98 125.187L1484.97 125.177ZM1503.93 131.539C1505.11 131.324 1505.91 130.186 1505.7 128.996C1505.49 127.815 1504.36 127.01 1503.17 127.234C1501.98 127.439 1501.18 128.577 1501.41 129.768C1501.54 130.532 1502.06 131.138 1502.74 131.419C1503.11 131.566 1503.53 131.61 1503.95 131.541L1503.93 131.539ZM1477.89 117.012C1479 116.534 1479.53 115.255 1479.05 114.144C1479.05 114.144 1479.02 114.114 1479.02 114.095C1478.54 112.984 1477.27 112.457 1476.17 112.925C1475.05 113.393 1474.54 114.673 1474.99 115.783C1474.99 115.783 1475.01 115.803 1475.02 115.813C1475.02 115.813 1475.04 115.833 1475.05 115.844C1475.28 116.394 1475.73 116.813 1476.24 117.026C1476.75 117.24 1477.36 117.248 1477.91 117.013L1477.89 117.012ZM1514.75 126.963C1515.73 126.257 1515.95 124.892 1515.24 123.911C1514.54 122.93 1513.17 122.713 1512.19 123.419C1511.21 124.125 1510.99 125.49 1511.69 126.461C1511.95 126.811 1512.27 127.061 1512.64 127.208C1513.31 127.479 1514.1 127.412 1514.74 126.953L1514.75 126.963ZM1475.04 106.521C1476.25 106.575 1477.27 105.652 1477.34 104.45C1477.4 103.248 1476.48 102.225 1475.27 102.151C1474.07 102.097 1473.05 103.021 1472.97 104.222C1472.94 105.177 1473.51 106.025 1474.35 106.364C1474.56 106.444 1474.8 106.506 1475.05 106.512L1475.04 106.521ZM1522.51 118.152C1523.08 117.086 1522.69 115.77 1521.63 115.189C1520.57 114.617 1519.24 115.015 1518.66 116.07C1518.08 117.126 1518.48 118.452 1519.54 119.024C1519.62 119.067 1519.68 119.1 1519.77 119.133C1520.78 119.55 1521.97 119.134 1522.51 118.152ZM1480 95.0121C1480.58 93.9564 1480.18 92.6305 1479.13 92.0494C1478.06 91.4772 1476.75 91.866 1476.16 92.9216C1475.59 93.9874 1475.98 95.3032 1477.04 95.8844C1477.11 95.9272 1477.19 95.961 1477.26 95.9937C1478.27 96.3997 1479.46 95.9938 1480 95.0121ZM1523.39 108.912C1524.6 108.976 1525.61 108.043 1525.69 106.841C1525.74 105.638 1524.82 104.616 1523.61 104.551C1522.39 104.487 1521.38 105.421 1521.32 106.632C1521.26 107.586 1521.84 108.425 1522.68 108.763C1522.9 108.854 1523.13 108.906 1523.39 108.912ZM1486.47 87.6633C1487.45 86.9574 1487.69 85.5936 1486.98 84.6126C1486.27 83.6317 1484.91 83.4145 1483.92 84.1103C1482.94 84.8162 1482.7 86.18 1483.41 87.161C1483.66 87.5116 1483.99 87.7613 1484.37 87.9181C1485.04 88.1888 1485.83 88.122 1486.47 87.6633ZM1522.47 98.1457C1523.59 97.6779 1524.09 96.3977 1523.63 95.2781C1523.16 94.1585 1521.88 93.6498 1520.76 94.1175C1519.64 94.5853 1519.13 95.8655 1519.6 96.9851C1519.83 97.5354 1520.28 97.9548 1520.79 98.168C1521.3 98.3811 1521.91 98.3891 1522.46 98.1546L1522.47 98.1457ZM1495.51 83.8688C1496.7 83.6637 1497.49 82.5255 1497.28 81.3256C1497.07 80.1359 1495.94 79.3391 1494.75 79.5633C1493.56 79.7784 1492.76 80.9066 1492.98 82.0975C1493.12 82.8618 1493.64 83.4778 1494.32 83.7485C1494.68 83.8951 1495.09 83.9487 1495.52 83.8789L1495.51 83.8688ZM1516.98 88.843C1517.78 87.9347 1517.69 86.5511 1516.78 85.7493C1515.88 84.9575 1514.49 85.0353 1513.7 85.9537C1512.9 86.8619 1512.98 88.2455 1513.89 89.0283C1514.08 89.2026 1514.3 89.3209 1514.51 89.4201C1515.35 89.7584 1516.34 89.5507 1516.98 88.843ZM1505.29 84.3595C1506.44 84.6885 1507.65 84.0156 1507.98 82.8584C1508.32 81.6923 1507.64 80.4925 1506.47 80.1535C1505.31 79.8335 1504.1 80.5064 1503.78 81.6737C1503.47 82.7558 1504.03 83.8812 1505.05 84.2973C1505.13 84.3211 1505.2 84.3448 1505.29 84.3786L1505.29 84.3595Z" fill="white"/>
<path d="M1480.65 113.466C1485.03 123.773 1496.91 128.585 1507.21 124.216C1517.52 119.839 1522.34 107.948 1517.97 97.6512C1513.59 87.3444 1501.7 82.5329 1491.41 86.9015C1481.11 91.2701 1476.28 103.17 1480.65 113.466Z" fill="#662D91"/>
<path d="M1486.75 119.418C1494.4 126.355 1506.23 125.774 1513.17 118.118C1520.1 110.463 1519.53 98.6363 1511.87 91.6997C1504.22 84.7632 1492.39 85.3441 1485.45 92.9993C1478.51 100.655 1479.09 112.481 1486.75 119.418Z" fill="#29DFE2"/>
<g style="mix-blend-mode:multiply">
<path d="M1482.93 98.2817C1482.92 104.119 1485.49 111.292 1489.91 115.303C1494.81 119.747 1500.31 122.082 1506.88 122.397C1507.07 122.408 1507.25 122.4 1507.44 122.411C1500.78 125.614 1492.57 124.692 1486.76 119.428C1480.15 113.436 1478.83 103.822 1483.03 96.3835C1482.98 97.0308 1482.94 97.6792 1482.93 98.3008L1482.93 98.2817Z" fill="#29DFE2"/>
</g>
<g style="mix-blend-mode:overlay" opacity="0.5">
<path d="M1501.63 86.9984C1504.23 87.3292 1506.78 88.1929 1509.11 89.6171L1510.62 120.442C1508.45 122.09 1505.99 123.204 1503.44 123.785L1501.63 86.9984Z" fill="white"/>
</g>
<g style="mix-blend-mode:overlay" opacity="0.5">
<path d="M1496.18 87.1347C1497.18 86.9663 1498.2 86.8753 1499.23 86.8707L1501.06 124.176C1500.04 124.267 1499.03 124.282 1498.01 124.21L1496.19 87.1257L1496.18 87.1347Z" fill="white"/>
</g>
<path d="M1443.65 217.48C1434.63 239.767 1425.57 274.208 1430.75 276.303C1435.92 278.399 1453.37 247.351 1462.39 225.064C1471.41 202.777 1468.59 197.685 1463.41 195.589C1458.24 193.494 1452.67 195.193 1443.65 217.48Z" fill="#93278F"/>
<g style="mix-blend-mode:multiply" opacity="0.3">
<path d="M1463.41 195.589C1463.95 195.814 1464.47 196.075 1464.95 196.372C1458.01 198.82 1453.03 206.528 1450.17 212.968C1447.51 218.988 1445.86 225.463 1444.33 231.85C1443.44 235.576 1442.21 240.258 1444.67 243.671C1447.31 247.326 1450.1 247.582 1452.86 245.769C1444.23 262.653 1434.41 277.809 1430.75 276.322C1425.57 274.227 1434.63 239.786 1443.65 217.499C1452.67 195.212 1458.24 193.513 1463.41 195.608L1463.41 195.589Z" fill="#93278F"/>
</g>
<g style="mix-blend-mode:multiply" opacity="0.3">
<path d="M1453.66 198.775C1453.06 200.136 1452.45 201.592 1451.82 203.143C1442.8 225.43 1433.74 259.87 1438.92 261.966C1441.24 262.902 1446.01 257.182 1451.4 248.59C1443.16 264.291 1434.21 277.711 1430.75 276.303C1425.57 274.207 1434.63 239.767 1443.65 217.48C1447.55 207.859 1450.79 202.066 1453.66 198.775Z" fill="#93278F"/>
</g>
<g style="mix-blend-mode:overlay" opacity="0.5">
<path d="M1538.66 42.2701C1540.37 48.7487 1544.24 53.339 1547.3 52.5399C1550.37 51.7318 1551.48 45.8269 1549.77 39.3483C1548.06 32.8698 1544.2 28.2794 1541.13 29.0786C1538.07 29.8777 1536.95 35.7915 1538.66 42.2701Z" fill="white"/>
</g>
<g style="mix-blend-mode:overlay" opacity="0.5">
<path d="M1536.49 97.0665C1535.37 103.679 1537.02 109.455 1540.14 109.98C1543.27 110.506 1546.71 105.576 1547.83 98.9731C1548.94 92.3603 1547.29 86.5842 1544.18 86.0592C1541.04 85.5332 1537.61 90.4637 1536.49 97.0665Z" fill="white"/>
</g>
<g style="mix-blend-mode:overlay" opacity="0.5">
<path d="M1540.95 76.3779C1540.53 78.9171 1542.24 81.3184 1544.78 81.7411C1547.31 82.1639 1549.72 80.4534 1550.14 77.9142C1550.56 75.3749 1548.85 72.9736 1546.31 72.5509C1543.77 72.1281 1541.37 73.8386 1540.95 76.3779Z" fill="white"/>
</g>
</g>
</g>
<defs>
<filter id="filter0_d_633_64" x="1471.29" y="77.5508" width="57.0298" height="59.0278" filterUnits="userSpaceOnUse" color-interpolation-filters="sRGB">
<feFlood flood-opacity="0" result="BackgroundImageFix"/>
<feColorMatrix in="SourceAlpha" type="matrix" values="0 0 0 0 0 0 0 0 0 0 0 0 0 0 0 0 0 0 127 0" result="hardAlpha"/>
<feOffset dx="1" dy="3"/>
<feColorMatrix type="matrix" values="0 0 0 0 0 0 0 0 0 0 0 0 0 0 0 0 0 0 0.8 0"/>
<feBlend mode="normal" in2="BackgroundImageFix" result="effect1_dropShadow_633_64"/>
<feBlend mode="normal" in="SourceGraphic" in2="effect1_dropShadow_633_64" result="shape"/>
</filter>
<clipPath id="clip0_633_64">
<rect width="1600" height="843" fill="white"/>
</clipPath>
<clipPath id="clip1_633_64">
<rect width="1963" height="848.735" fill="white" transform="translate(-40.1758 204.12) rotate(-4.24412)"/>
</clipPath>
<clipPath id="clip2_633_64">
<rect width="198.434" height="295.08" fill="white" transform="matrix(-0.662696 -0.748888 -0.748888 0.662696 1657.23 148.605)"/>
</clipPath>
</defs>
</svg>
