<svg width="1598" height="564" viewBox="0 0 1598 564" fill="none" xmlns="http://www.w3.org/2000/svg">
<g clip-path="url(#clip0_1848_146)">
<g clip-path="url(#clip1_1848_146)">
<mask id="mask0_1848_146" style="mask-type:alpha" maskUnits="userSpaceOnUse" x="0" y="-142" width="1600" height="608">
<rect y="-142" width="1600" height="608" fill="#D9D9D9"/>
</mask>
<g mask="url(#mask0_1848_146)">
<g opacity="0.3">
<path style="mix-blend-mode:screen" d="M1828 429.917C1639.69 173.726 1274.51 0 854.842 0C403.391 0 14.9887 201.045 -158 489.512V666H1828V429.917Z" fill="url(#paint0_radial_1848_146)"/>
<path style="mix-blend-mode:screen" d="M1699.69 417.405C1535.71 194.322 1217.71 43.0405 852.285 43.0405C459.173 43.0405 120.97 218.107 -29.6694 469.302V622.98H1699.69V417.405Z" fill="url(#paint1_radial_1848_146)"/>
<path style="mix-blend-mode:screen" d="M1603.8 421.549C1458.01 235.677 1175.28 109.622 850.356 109.622C500.826 109.622 200.136 255.48 66.2031 464.792V592.837H1603.8V421.549Z" fill="url(#paint2_radial_1848_146)"/>
<path style="mix-blend-mode:screen" d="M313.507 264.682C306.28 342.374 531.64 352.083 788.769 328.338C1045.9 304.594 1226.48 393.072 1344.92 327.262C1391.83 301.202 1389.58 264.641 1364.9 229.197C1221.52 154.105 1043.38 109.622 850.356 109.622C657.332 109.622 466.379 157.395 320.449 237.464C316.815 246.279 314.379 255.379 313.507 264.682Z" fill="url(#paint3_radial_1848_146)"/>
<path opacity="0.5" d="M1197.29 224.972C1194.93 242.075 1160.06 250.667 1119.38 244.146C1078.72 237.626 1047.66 218.452 1050.02 201.35C1052.37 184.247 1087.25 175.655 1127.93 182.176C1168.58 188.696 1199.64 207.87 1197.29 224.972ZM446.547 201.858C408.161 217.721 381.671 243.7 387.416 259.847C393.14 275.995 428.927 276.239 467.313 260.355C505.698 244.471 532.189 218.513 526.444 202.365C520.72 186.218 484.932 185.974 446.547 201.858ZM576.441 229.806C548.773 240.47 529.489 258.568 533.346 270.206C537.202 281.845 562.739 282.637 590.406 271.953C618.074 261.29 637.358 243.192 633.501 231.553C629.644 219.915 604.108 219.122 576.441 229.806ZM638.576 144.985C617.668 152.094 602.789 164.972 605.367 173.766C607.924 182.561 626.965 183.943 647.873 176.834C668.781 169.724 683.66 156.847 681.082 148.052C678.525 139.257 659.484 137.876 638.576 144.985ZM1309.7 245.629C1289.67 236.042 1270.61 235.108 1267.16 243.557C1263.71 251.987 1277.14 266.591 1297.18 276.178C1317.21 285.765 1336.28 286.699 1339.73 278.25C1343.18 269.8 1329.74 255.216 1309.7 245.629ZM1214.46 281.845C1189.72 278.758 1168.77 284.689 1167.65 295.108C1166.53 305.528 1185.7 316.456 1210.42 319.543C1235.17 322.631 1256.11 316.7 1257.23 306.28C1258.35 295.88 1239.18 284.932 1214.46 281.845Z" fill="url(#paint4_radial_1848_146)"/>
<path style="mix-blend-mode:screen" d="M479.106 259.218C461.527 266.489 444.517 270.369 430.673 270.897C441.919 269.191 454.463 265.697 467.313 260.376C505.698 244.512 532.188 218.533 526.444 202.386C523.338 193.631 511.382 189.549 494.98 190.199C517.309 186.807 534.421 190.483 538.238 201.228C543.962 217.376 517.492 243.354 479.106 259.218ZM610.949 222.332C622.804 222.108 631.39 225.216 633.501 231.574C637.358 243.212 618.054 261.29 590.406 271.974C582.51 275.02 574.796 277.112 567.692 278.29C577.537 278.108 589.635 275.65 602.2 270.816C629.868 260.152 649.152 242.054 645.295 230.416C642.534 222.108 628.711 219.366 610.949 222.332ZM1127.93 182.176C1168.58 188.696 1199.64 207.87 1197.29 224.972C1195.91 235.047 1183.22 242.176 1164.71 244.979C1189.47 243.74 1207.42 235.92 1209.08 223.815C1211.44 206.712 1180.38 187.538 1139.72 181.018C1123.01 178.337 1107.3 178.215 1094.39 180.165C1104.62 179.657 1116.03 180.266 1127.93 182.176ZM1321.5 244.471C1306.21 237.159 1291.54 234.905 1283.88 237.972C1291.31 238.622 1300.39 241.181 1309.7 245.629C1329.74 255.216 1343.2 269.82 1339.73 278.25C1338.89 280.261 1337.17 281.723 1334.79 282.678C1343.34 283.409 1349.67 281.622 1351.52 277.092C1354.97 268.663 1341.53 254.059 1321.5 244.471ZM1226.25 280.687C1216.27 279.448 1206.93 279.692 1199.24 281.073C1204.05 280.951 1209.16 281.175 1214.46 281.825C1239.21 284.912 1258.35 295.84 1257.23 306.26C1256.56 312.475 1248.81 317.065 1237.44 319.117C1255.02 318.67 1268.15 313.267 1269.02 305.102C1270.14 294.702 1250.98 283.754 1226.25 280.667V280.687ZM663.341 140.455C672.8 140.455 679.621 143.055 681.082 148.052C683.64 156.847 668.781 169.745 647.873 176.834C643.407 178.357 639.043 179.454 634.902 180.205C642.047 180.205 650.674 178.723 659.667 175.676C680.575 168.567 695.454 155.689 692.876 146.894C690.866 139.968 678.646 137.673 663.341 140.455Z" fill="url(#paint5_radial_1848_146)"/>
<path opacity="0.5" d="M1248.4 315.887C1240.75 311.784 1230.31 308.555 1218.6 307.092C1203.17 305.163 1189.23 306.747 1180.64 310.749C1188.3 314.852 1198.73 318.081 1210.44 319.544C1225.87 321.473 1239.81 319.889 1248.4 315.887Z" fill="url(#paint6_radial_1848_146)"/>
<path opacity="0.5" d="M1193.41 232.894C1181.86 221.702 1159.08 211.77 1132.05 207.423C1098.25 202 1068.49 207.017 1058.02 218.676C1069.57 229.867 1092.34 239.8 1119.38 244.147C1153.18 249.57 1182.94 244.553 1193.41 232.894Z" fill="url(#paint7_radial_1848_146)"/>
<path opacity="0.5" d="M1277.92 263.829C1283.03 268.256 1289.63 272.563 1297.18 276.178C1311.39 282.982 1325.09 285.4 1333.09 283.226C1327.97 278.798 1321.38 274.492 1313.82 270.877C1299.62 264.072 1285.91 261.655 1277.92 263.829Z" fill="url(#paint8_radial_1848_146)"/>
<path opacity="0.5" d="M394.825 267.952C408.405 275.366 437.026 272.888 467.313 260.355C493.884 249.367 514.731 233.564 523.155 219.508C509.575 212.095 480.954 214.573 450.667 227.105C424.096 238.094 403.249 253.896 394.825 267.952Z" fill="url(#paint9_radial_1848_146)"/>
<path opacity="0.5" d="M642.697 170.232C634.049 173.157 626.478 177.098 620.713 181.302C628.264 181.688 637.845 180.246 647.873 176.834C656.52 173.909 664.092 169.968 669.857 165.764C662.306 165.378 652.725 166.82 642.697 170.232Z" fill="url(#paint10_radial_1848_146)"/>
<path opacity="0.5" d="M543.962 278.229C554.741 281.033 572.076 279.022 590.406 271.953C606.341 265.799 619.454 257.207 627.026 248.778C616.247 245.975 598.912 247.985 580.581 255.054C564.647 261.208 551.533 269.8 543.962 278.229Z" fill="url(#paint11_radial_1848_146)"/>
<path opacity="0.25" d="M503.851 278.209C505.719 284.648 494.676 294.113 479.188 299.374C463.7 304.635 449.612 303.68 447.745 297.241C445.877 290.802 456.92 281.337 472.408 276.076C487.896 270.816 501.984 271.77 503.851 278.209Z" fill="url(#paint12_radial_1848_146)"/>
<path opacity="0.25" d="M1083.33 159.02C1082.48 165.703 1068.73 169.176 1052.66 166.779C1036.56 164.382 1024.22 157.03 1025.07 150.347C1025.92 143.665 1039.67 140.191 1055.74 142.588C1071.84 144.985 1084.18 152.338 1083.33 159.02Z" fill="url(#paint13_radial_1848_146)"/>
<path opacity="0.25" d="M1420.33 294.58C1417.09 300.329 1403.2 297.607 1389.34 288.487C1375.47 279.367 1366.87 267.302 1370.11 261.533C1373.36 255.785 1387.25 258.507 1401.11 267.627C1414.98 276.747 1423.58 288.812 1420.33 294.58Z" fill="url(#paint14_radial_1848_146)"/>
<path opacity="0.25" d="M1121.65 166.048C1121.29 168.892 1115.46 170.354 1108.62 169.339C1101.8 168.323 1096.54 165.195 1096.91 162.372C1097.27 159.528 1103.1 158.066 1109.94 159.081C1116.76 160.097 1122.02 163.225 1121.65 166.048Z" fill="url(#paint15_radial_1848_146)"/>
<path opacity="0.25" d="M1188.13 262.407C1187.77 265.25 1181.94 266.713 1175.1 265.697C1168.28 264.682 1163.02 261.554 1163.39 258.73C1163.75 255.887 1169.58 254.424 1176.42 255.44C1183.26 256.455 1188.5 259.583 1188.13 262.407Z" fill="url(#paint16_radial_1848_146)"/>
<path opacity="0.25" d="M1252.77 198.486C1252.4 201.329 1246.57 202.792 1239.73 201.776C1232.89 200.761 1227.66 197.633 1228.02 194.809C1228.39 191.966 1234.21 190.503 1241.05 191.519C1247.87 192.535 1253.13 195.663 1252.77 198.486Z" fill="url(#paint17_radial_1848_146)"/>
<path opacity="0.25" d="M1307.17 298.155C1306.19 300.816 1300.2 300.735 1293.79 297.972C1287.37 295.21 1282.99 290.823 1283.96 288.162C1284.94 285.501 1290.93 285.582 1297.34 288.345C1303.74 291.107 1308.14 295.494 1307.17 298.155Z" fill="url(#paint18_radial_1848_146)"/>
<path opacity="0.25" d="M1292.92 221.682C1291.8 226.11 1282.24 227.186 1271.56 224.058C1260.88 220.93 1253.13 214.816 1254.25 210.388C1255.36 205.961 1264.92 204.884 1275.6 208.012C1286.28 211.14 1294.03 217.254 1292.92 221.682Z" fill="url(#paint19_radial_1848_146)"/>
<path opacity="0.25" d="M1093.24 251.686C1094.05 247.169 1085.85 241.928 1074.93 239.981C1064.02 238.033 1054.52 240.116 1053.71 244.633C1052.91 249.15 1061.1 254.39 1072.02 256.338C1082.94 258.285 1092.44 256.202 1093.24 251.686Z" fill="url(#paint20_radial_1848_146)"/>
<path opacity="0.25" d="M652.989 195.256C653.943 199.258 646.879 204.681 637.237 207.342C627.574 210.023 618.988 208.926 618.034 204.925C617.08 200.923 624.144 195.5 633.786 192.839C643.448 190.158 652.035 191.255 652.989 195.256Z" fill="url(#paint21_radial_1848_146)"/>
<path opacity="0.25" d="M643.042 271.364C643.996 275.366 636.932 280.789 627.29 283.45C617.627 286.131 609.041 285.034 608.087 281.033C607.133 277.031 614.197 271.608 623.839 268.947C633.501 266.266 642.088 267.363 643.042 271.364Z" fill="url(#paint22_radial_1848_146)"/>
<path opacity="0.25" d="M662.894 252.779C663.483 255.277 659.098 258.649 653.07 260.315C647.061 261.98 641.702 261.31 641.114 258.812C640.525 256.313 644.909 252.941 650.938 251.276C656.967 249.61 662.306 250.281 662.894 252.779Z" fill="url(#paint23_radial_1848_146)"/>
<path opacity="0.25" d="M603.58 152.46C604.169 154.958 599.784 158.33 593.756 159.995C587.747 161.661 582.388 160.99 581.8 158.492C581.211 155.994 585.595 152.622 591.624 150.956C597.633 149.291 602.992 149.961 603.58 152.46Z" fill="url(#paint24_radial_1848_146)"/>
<path opacity="0.25" d="M527.459 252.779C528.048 255.277 523.663 258.649 517.634 260.315C511.605 261.98 506.267 261.31 505.678 258.812C505.089 256.313 509.474 252.941 515.503 251.276C521.511 249.61 526.87 250.281 527.459 252.779Z" fill="url(#paint25_radial_1848_146)"/>
<path opacity="0.25" d="M736.681 184.775C738.549 191.214 727.506 200.679 712.018 205.94C696.53 211.201 682.442 210.246 680.575 203.807C678.707 197.369 689.75 187.903 705.238 182.643C720.726 177.382 734.814 178.337 736.681 184.775Z" fill="url(#paint26_radial_1848_146)"/>
<path opacity="0.25" d="M760.289 159.345C760.878 161.844 756.494 165.215 750.465 166.881C744.456 168.546 739.097 167.876 738.509 165.378C737.92 162.879 742.304 159.508 748.333 157.842C754.362 156.177 759.701 156.847 760.289 159.345Z" fill="url(#paint27_radial_1848_146)"/>
<path opacity="0.25" d="M531.661 171.979C532.25 174.477 527.865 177.849 521.836 179.515C515.828 181.18 510.469 180.51 509.88 178.012C509.291 175.513 513.676 172.142 519.705 170.476C525.713 168.81 531.072 169.481 531.661 171.979Z" fill="url(#paint28_radial_1848_146)"/>
</g>
</g>
<g clip-path="url(#clip2_1848_146)">
<path d="M959.146 430.249C962.533 430.249 965.856 430.468 969.148 430.824C968.956 429.21 968.86 427.596 968.86 425.927C968.86 397.695 995.605 374.798 1028.55 374.798C1052.71 374.798 1073.51 387.081 1082.9 404.753C1092.3 400.376 1103.1 397.887 1114.57 397.887C1129.84 397.887 1143.9 402.319 1155.12 409.732C1165.98 391.048 1188.54 378.191 1214.59 378.191C1217.91 378.191 1221.17 378.409 1224.36 378.82C1218.2 370.777 1214.59 361.148 1214.59 350.807C1214.59 322.576 1241.33 299.706 1274.31 299.706C1274.95 299.706 1275.62 299.706 1276.26 299.733C1275.81 297.244 1275.59 294.7 1275.59 292.101C1275.59 263.87 1302.33 241 1335.31 241C1363.81 241 1387.65 258.098 1393.56 280.995C1403.85 273.773 1417.01 269.45 1431.36 269.45C1450.88 269.45 1468.2 277.466 1479.1 289.885C1482.87 264.745 1507.92 245.322 1538.28 245.322C1571.25 245.322 1598 268.192 1598 296.423V555.759H987.937C979.053 558.877 883 531.412 883 495.411C883 459.411 917.095 430.222 959.146 430.222V430.249Z" fill="#2F1B8E"/>
<g clip-path="url(#clip3_1848_146)">
<path d="M969.736 314.009C971.656 314.106 973.291 312.624 973.388 310.699C973.486 308.775 972.008 307.136 970.088 307.039C968.168 306.942 966.533 308.424 966.436 310.349C966.339 312.273 967.817 313.912 969.736 314.009Z" fill="#2F1B8E"/>
<path d="M977.842 277.499C976.849 277.449 976.007 278.211 975.957 279.207C975.907 280.202 976.667 281.046 977.66 281.096C978.653 281.146 979.495 280.383 979.545 279.388C979.595 278.392 978.835 277.549 977.842 277.499Z" fill="#2F1B8E"/>
<path d="M994.876 288.743C991.705 288.583 988.995 291.039 988.835 294.219C988.674 297.398 991.123 300.114 994.295 300.274C997.467 300.434 1000.18 297.979 1000.34 294.799C1000.5 291.619 998.048 288.903 994.876 288.743Z" fill="#2F1B8E"/>
<path d="M1005.61 283.295C1004.52 283.24 1003.59 284.079 1003.54 285.171C1003.48 286.263 1004.32 287.19 1005.41 287.245C1006.5 287.3 1007.42 286.461 1007.48 285.369C1007.53 284.278 1006.7 283.35 1005.61 283.295Z" fill="#2F1B8E"/>
<path d="M948.705 310.356C945.238 313.497 944.968 318.861 948.101 322.336C951.234 325.811 956.585 326.081 960.051 322.939C963.518 319.797 963.789 314.433 960.656 310.959C957.523 307.484 952.172 307.214 948.705 310.356Z" fill="#2F1B8E"/>
<path d="M878.988 547.205C888.621 539.625 895.066 528.068 895.734 514.835C896.448 500.67 890.387 487.741 880.412 479.188C892.285 476.55 901.429 466.256 902.073 453.489C902.133 452.284 902.096 451.107 901.995 449.943C910.357 447.805 916.721 440.413 917.179 431.324C917.265 429.621 917.108 427.955 916.804 426.346C928.477 426.081 938.146 416.844 938.745 404.976C939.026 399.387 937.233 394.193 934.083 390.089C941.594 389.244 947.622 383.076 948.017 375.255C948.153 372.557 947.593 369.969 946.52 367.693C949.943 365.418 952.27 361.623 952.493 357.206C952.58 355.472 952.327 353.801 951.796 352.245C955.525 351.547 958.416 348.36 958.615 344.409C958.849 339.768 955.291 335.805 950.645 335.571C946 335.336 942.145 338.845 941.85 343.419C941.183 343.272 940.497 343.173 939.792 343.138C935.803 342.937 932.142 344.523 929.568 347.162C927.36 345.409 924.622 344.288 921.594 344.136C913.888 343.747 907.325 349.695 906.935 357.42C906.895 358.207 906.937 358.966 907.028 359.727C903.362 357.9 899.259 356.775 894.917 356.556C879.314 355.769 865.862 366.795 863.114 381.791C855.139 381.019 846.873 383.452 840.46 389.279C830.565 398.246 828.133 412.389 833.543 423.884C830.073 422.63 826.37 421.864 822.493 421.668C801.395 420.604 783.421 436.893 782.354 458.043C782.306 458.991 782.307 459.925 782.325 460.86C781.352 460.714 780.361 460.616 779.352 460.565C770.509 460.119 762.348 463.362 756.302 468.917C748.786 459.683 737.564 453.546 724.748 452.899C706.054 451.956 689.517 462.988 682.528 479.284C680.04 477.661 677.105 476.627 673.917 476.466C667.734 476.154 662.155 479.125 658.833 483.852C650.713 479.595 641.578 476.976 631.822 476.484C605.246 475.143 581.584 489.889 570.196 512.194C567.54 511.046 564.638 510.304 561.579 510.149C556.596 509.898 551.892 511.142 547.888 513.484C546.136 510.948 543.268 509.225 539.968 509.059C534.49 508.783 529.82 512.846 529.226 518.242C517.73 512.767 505.02 509.405 491.515 508.724C471.619 507.72 452.82 512.665 436.772 521.966C433.3 519.473 429.107 517.909 424.526 517.677C418.246 517.361 412.448 519.596 408.078 523.449L878.988 547.205Z" fill="#2F1B8E"/>
</g>
<path d="M638.822 430.249C635.435 430.249 632.112 430.468 628.82 430.824C629.012 429.21 629.108 427.596 629.108 425.927C629.108 397.695 602.363 374.798 569.418 374.798C545.261 374.798 524.459 387.081 515.065 404.753C505.638 400.376 494.87 397.887 483.398 397.887C468.124 397.887 454.065 402.319 442.849 409.732C431.984 391.048 409.425 378.191 383.383 378.191C380.059 378.191 376.8 378.409 373.605 378.82C379.772 370.777 383.383 361.148 383.383 350.807C383.383 322.576 356.637 299.706 323.693 299.706C323.022 299.706 322.383 299.706 321.744 299.733C322.191 297.244 322.415 294.7 322.415 292.101C322.415 263.87 295.669 241 262.693 241C234.19 241 210.352 258.098 204.441 280.995C194.152 273.773 180.987 269.45 166.671 269.45C147.148 269.45 129.797 277.466 118.932 289.885C115.162 264.745 90.1099 245.322 59.7218 245.322C26.7454 245.322 0 268.219 0 296.451V555.759H610.063C618.947 558.877 715 531.412 715 495.411C715 459.411 680.905 430.222 638.854 430.222L638.822 430.249Z" fill="#2F1B8E"/>
<path d="M70.8553 351.131C87.4106 351.131 102.624 356.023 114.672 364.167C128.863 342.003 156.284 327 187.797 327C233.851 327 271.149 359.057 271.149 398.629C271.149 406.827 269.519 414.671 266.578 421.995C277.732 415.682 291.092 411.992 305.474 411.992C344.625 411.992 376.329 439.239 376.329 472.853C376.329 474.438 376.233 475.969 376.105 477.527C384.479 474.52 393.683 472.853 403.335 472.853C424.876 472.853 444.18 481.134 457.156 494.17C462.142 460.364 495.7 434.238 536.417 434.238C573.139 434.238 604.044 455.527 613.408 484.495C625.106 477.199 639.488 472.881 655.052 472.881C694.203 472.881 725.907 500.127 725.907 533.742C725.907 536.557 725.652 539.344 725.236 542.05L798.904 524.286H799.096L872.764 542.05C872.316 539.317 872.092 536.557 872.092 533.742C872.092 500.127 903.829 472.881 942.948 472.881C958.512 472.881 972.894 477.199 984.592 484.495C993.956 455.527 1024.86 434.238 1061.58 434.238C1102.27 434.238 1135.86 460.364 1140.84 494.17C1153.85 481.134 1173.12 472.853 1194.7 472.853C1204.35 472.853 1213.55 474.52 1221.93 477.527C1221.8 475.996 1221.7 474.438 1221.7 472.853C1221.7 439.239 1253.44 411.992 1292.56 411.992C1306.91 411.992 1320.27 415.682 1331.45 421.995C1328.51 414.671 1326.88 406.8 1326.88 398.629C1326.88 359.084 1364.21 327 1410.27 327C1441.78 327 1469.2 342.031 1483.36 364.167C1495.41 355.996 1510.62 351.131 1527.18 351.131C1566.26 351.131 1598 378.378 1598 411.992V682H0V411.992C0 378.378 31.7363 351.131 70.8553 351.131Z" fill="#1D0E78"/>
</g>
</g>
</g>
<defs>
<radialGradient id="paint0_radial_1848_146" cx="0" cy="0" r="1" gradientUnits="userSpaceOnUse" gradientTransform="translate(818.35 -5.00846) scale(1022.37 1150.88)">
<stop stop-color="#4A289C" stop-opacity="0"/>
<stop offset="0.96" stop-color="#00092B"/>
</radialGradient>
<radialGradient id="paint1_radial_1848_146" cx="0" cy="0" r="1" gradientUnits="userSpaceOnUse" gradientTransform="translate(819.987 38.8063) scale(890.255 1002.16)">
<stop stop-color="#4A289C" stop-opacity="0"/>
<stop offset="0.96" stop-color="#00092B"/>
</radialGradient>
<radialGradient id="paint2_radial_1848_146" cx="0" cy="0" r="1" gradientUnits="userSpaceOnUse" gradientTransform="translate(797.275 2.68321) scale(791.517 834.439)">
<stop stop-color="#4A289C"/>
<stop offset="0.96" stop-color="#00092B"/>
</radialGradient>
<radialGradient id="paint3_radial_1848_146" cx="0" cy="0" r="1" gradientUnits="userSpaceOnUse" gradientTransform="translate(824.251 55.8775) scale(511.902 512.22)">
<stop stop-color="#4A289C"/>
<stop offset="0.96" stop-color="#00092B"/>
</radialGradient>
<radialGradient id="paint4_radial_1848_146" cx="0" cy="0" r="1" gradientUnits="userSpaceOnUse" gradientTransform="translate(869.12 95.1281) rotate(9.11557) scale(443.673 475.364)">
<stop stop-color="#4A289C"/>
<stop offset="0.96" stop-color="#00092B"/>
</radialGradient>
<radialGradient id="paint5_radial_1848_146" cx="0" cy="0" r="1" gradientUnits="userSpaceOnUse" gradientTransform="translate(887.101 228.43) scale(329.748 356.467)">
<stop stop-color="#4A289C"/>
<stop offset="0.96" stop-color="#00092B"/>
</radialGradient>
<radialGradient id="paint6_radial_1848_146" cx="0" cy="0" r="1" gradientUnits="userSpaceOnUse" gradientTransform="translate(999.207 0.0587519) scale(407.365 440.374)">
<stop stop-color="#4A289C"/>
<stop offset="0.96" stop-color="#00092B"/>
</radialGradient>
<radialGradient id="paint7_radial_1848_146" cx="0" cy="0" r="1" gradientUnits="userSpaceOnUse" gradientTransform="translate(999.207 0.0589823) scale(407.365 440.373)">
<stop stop-color="#4A289C"/>
<stop offset="0.96" stop-color="#00092B"/>
</radialGradient>
<radialGradient id="paint8_radial_1848_146" cx="0" cy="0" r="1" gradientUnits="userSpaceOnUse" gradientTransform="translate(999.207 0.0588163) scale(407.365 440.373)">
<stop stop-color="#4A289C"/>
<stop offset="0.96" stop-color="#00092B"/>
</radialGradient>
<radialGradient id="paint9_radial_1848_146" cx="0" cy="0" r="1" gradientUnits="userSpaceOnUse" gradientTransform="translate(999.207 0.0589103) scale(407.365 440.373)">
<stop stop-color="#4A289C"/>
<stop offset="0.96" stop-color="#00092B"/>
</radialGradient>
<radialGradient id="paint10_radial_1848_146" cx="0" cy="0" r="1" gradientUnits="userSpaceOnUse" gradientTransform="translate(999.207 0.0588915) scale(407.365 440.373)">
<stop stop-color="#4A289C"/>
<stop offset="0.96" stop-color="#00092B"/>
</radialGradient>
<radialGradient id="paint11_radial_1848_146" cx="0" cy="0" r="1" gradientUnits="userSpaceOnUse" gradientTransform="translate(999.207 0.0590169) scale(407.365 440.373)">
<stop stop-color="#4A289C"/>
<stop offset="0.96" stop-color="#00092B"/>
</radialGradient>
<radialGradient id="paint12_radial_1848_146" cx="0" cy="0" r="1" gradientUnits="userSpaceOnUse" gradientTransform="translate(462.73 213.069) scale(124.292 134.363)">
<stop stop-color="#4A289C"/>
<stop offset="0.96" stop-color="#00092B"/>
</radialGradient>
<radialGradient id="paint13_radial_1848_146" cx="0" cy="0" r="1" gradientUnits="userSpaceOnUse" gradientTransform="translate(1100.07 94.1372) rotate(27.0344) scale(126.528 133.236)">
<stop stop-color="#4A289C"/>
<stop offset="0.96" stop-color="#00092B"/>
</radialGradient>
<radialGradient id="paint14_radial_1848_146" cx="0" cy="0" r="1" gradientUnits="userSpaceOnUse" gradientTransform="translate(1493.37 287.505) rotate(50.9774) scale(131 128.763)">
<stop stop-color="#4A289C"/>
<stop offset="0.96" stop-color="#00092B"/>
</radialGradient>
<radialGradient id="paint15_radial_1848_146" cx="0" cy="0" r="1" gradientUnits="userSpaceOnUse" gradientTransform="translate(1142.34 144.273) rotate(27.0344) scale(53.717 56.5649)">
<stop stop-color="#4A289C"/>
<stop offset="0.96" stop-color="#00092B"/>
</radialGradient>
<radialGradient id="paint16_radial_1848_146" cx="0" cy="0" r="1" gradientUnits="userSpaceOnUse" gradientTransform="translate(1205.73 239.327) rotate(27.0344) scale(53.717 56.5648)">
<stop stop-color="#4A289C"/>
<stop offset="0.96" stop-color="#00092B"/>
</radialGradient>
<radialGradient id="paint17_radial_1848_146" cx="0" cy="0" r="1" gradientUnits="userSpaceOnUse" gradientTransform="translate(1274.99 177.377) rotate(27.0344) scale(53.717 56.5648)">
<stop stop-color="#4A289C"/>
<stop offset="0.96" stop-color="#00092B"/>
</radialGradient>
<radialGradient id="paint18_radial_1848_146" cx="0" cy="0" r="1" gradientUnits="userSpaceOnUse" gradientTransform="translate(1355.6 301.44) rotate(41.3477) scale(54.6672 55.6141)">
<stop stop-color="#4A289C"/>
<stop offset="0.96" stop-color="#00092B"/>
</radialGradient>
<radialGradient id="paint19_radial_1848_146" cx="0" cy="0" r="1" gradientUnits="userSpaceOnUse" gradientTransform="translate(1333.5 194.235) rotate(34.6166) scale(86.9504 89.9945)">
<stop stop-color="#4A289C"/>
<stop offset="0.96" stop-color="#00092B"/>
</radialGradient>
<radialGradient id="paint20_radial_1848_146" cx="0" cy="0" r="1" gradientUnits="userSpaceOnUse" gradientTransform="translate(1107.37 211.587) rotate(28.3649) scale(86.1889 89.9998)">
<stop stop-color="#4A289C"/>
<stop offset="0.96" stop-color="#00092B"/>
</radialGradient>
<radialGradient id="paint21_radial_1848_146" cx="0" cy="0" r="1" gradientUnits="userSpaceOnUse" gradientTransform="translate(626.468 153.706) rotate(3.31205) scale(76.2759 82.4562)">
<stop stop-color="#4A289C"/>
<stop offset="0.96" stop-color="#00092B"/>
</radialGradient>
<radialGradient id="paint22_radial_1848_146" cx="0" cy="0" r="1" gradientUnits="userSpaceOnUse" gradientTransform="translate(615.931 229.634) rotate(3.31205) scale(76.2759 82.4561)">
<stop stop-color="#4A289C"/>
<stop offset="0.96" stop-color="#00092B"/>
</radialGradient>
<radialGradient id="paint23_radial_1848_146" cx="0" cy="0" r="1" gradientUnits="userSpaceOnUse" gradientTransform="translate(643.852 226.45) rotate(3.31206) scale(47.5161 51.3662)">
<stop stop-color="#4A289C"/>
<stop offset="0.96" stop-color="#00092B"/>
</radialGradient>
<radialGradient id="paint24_radial_1848_146" cx="0" cy="0" r="1" gradientUnits="userSpaceOnUse" gradientTransform="translate(585.599 126.378) rotate(3.31206) scale(47.5161 51.3661)">
<stop stop-color="#4A289C"/>
<stop offset="0.96" stop-color="#00092B"/>
</radialGradient>
<radialGradient id="paint25_radial_1848_146" cx="0" cy="0" r="1" gradientUnits="userSpaceOnUse" gradientTransform="translate(508.921 226.47) rotate(3.31206) scale(47.5161 51.3662)">
<stop stop-color="#4A289C"/>
<stop offset="0.96" stop-color="#00092B"/>
</radialGradient>
<radialGradient id="paint26_radial_1848_146" cx="0" cy="0" r="1" gradientUnits="userSpaceOnUse" gradientTransform="translate(694.649 119.848) scale(124.292 134.363)">
<stop stop-color="#4A289C"/>
<stop offset="0.96" stop-color="#00092B"/>
</radialGradient>
<radialGradient id="paint27_radial_1848_146" cx="0" cy="0" r="1" gradientUnits="userSpaceOnUse" gradientTransform="translate(741.652 133.243) rotate(3.31205) scale(47.5162 51.3662)">
<stop stop-color="#4A289C"/>
<stop offset="0.96" stop-color="#00092B"/>
</radialGradient>
<radialGradient id="paint28_radial_1848_146" cx="0" cy="0" r="1" gradientUnits="userSpaceOnUse" gradientTransform="translate(513.763 145.854) rotate(3.31205) scale(47.5162 51.3661)">
<stop stop-color="#4A289C"/>
<stop offset="0.96" stop-color="#00092B"/>
</radialGradient>
<clipPath id="clip0_1848_146">
<rect width="1598" height="564" fill="white"/>
</clipPath>
<clipPath id="clip1_1848_146">
<rect width="1986" height="666" fill="white" transform="translate(-158)"/>
</clipPath>
<clipPath id="clip2_1848_146">
<rect width="1598" height="323" fill="white" transform="matrix(-1 0 0 1 1598 241)"/>
</clipPath>
<clipPath id="clip3_1848_146">
<rect width="586.675" height="274.345" fill="white" transform="translate(421.868 249.451) rotate(2.88801)"/>
</clipPath>
</defs>
</svg>
