<svg width="390" height="175" viewBox="0 0 390 175" fill="none" xmlns="http://www.w3.org/2000/svg">
<g clip-path="url(#clip0_1809_38)">
<mask id="mask0_1809_38" style="mask-type:alpha" maskUnits="userSpaceOnUse" x="0" y="-138" width="390" height="418">
<rect y="-138" width="390" height="418" fill="#D9D9D9"/>
</mask>
<g mask="url(#mask0_1809_38)">
<g opacity="0.3">
<path style="mix-blend-mode:screen" d="M451 113.145C400.722 47.5086 303.222 3 191.176 3C70.6426 3 -33.0573 54.5078 -79.2437 128.413V173.629H451V113.145Z" fill="url(#paint0_radial_1809_38)"/>
<path style="mix-blend-mode:screen" d="M416.742 109.939C372.962 52.7852 288.057 14.0269 190.492 14.0269C85.5351 14.0269 -4.76188 58.8789 -44.9812 123.235V162.608H416.742V109.939Z" fill="url(#paint1_radial_1809_38)"/>
<path style="mix-blend-mode:screen" d="M391.139 111.001C352.215 63.3801 276.73 31.085 189.978 31.085C96.6564 31.085 16.3749 68.4539 -19.384 122.08V154.885H391.139V111.001Z" fill="url(#paint2_radial_1809_38)"/>
<path style="mix-blend-mode:screen" d="M46.6433 70.8112C44.7139 90.716 104.883 93.2035 173.534 87.1201C242.185 81.0368 290.398 103.705 322.022 86.8443C334.547 80.1678 333.945 70.8008 327.355 61.7201C289.076 42.4814 241.513 31.085 189.977 31.085C138.442 31.085 87.4588 43.3244 48.4968 63.8381C47.5267 66.0965 46.8764 68.4279 46.6433 70.8112Z" fill="url(#paint3_radial_1809_38)"/>
<path opacity="0.5" d="M282.606 60.6386C281.977 65.0203 272.666 67.2215 261.805 65.5511C250.949 63.8807 242.657 58.9682 243.286 54.5866C243.915 50.2049 253.226 48.0037 264.087 49.6741C274.942 51.3446 283.234 56.257 282.606 60.6386ZM82.1647 54.7167C71.9161 58.7809 64.8435 65.4366 66.3772 69.5737C67.9056 73.7107 77.4604 73.7732 87.709 69.7038C97.9576 65.6344 105.03 58.9838 103.496 54.8467C101.968 50.7097 92.4133 50.6472 82.1647 54.7167ZM116.845 61.8772C109.458 64.6092 104.309 69.2458 105.339 72.2276C106.369 75.2095 113.187 75.4124 120.574 72.6752C127.961 69.9432 133.11 65.3065 132.08 62.3247C131.05 59.3429 124.232 59.1399 116.845 61.8772ZM133.435 40.1458C127.852 41.9672 123.88 45.2664 124.568 47.5197C125.251 49.773 130.335 50.1268 135.917 48.3055C141.499 46.4841 145.472 43.1849 144.783 40.9316C144.101 38.6784 139.017 38.3245 133.435 40.1458ZM312.62 65.931C307.27 63.4748 302.181 63.2354 301.26 65.4002C300.339 67.5598 303.927 71.3014 309.276 73.7576C314.625 76.2138 319.714 76.4532 320.635 74.2884C321.557 72.1236 317.969 68.3872 312.62 65.931ZM287.191 75.2095C280.584 74.4185 274.991 75.938 274.693 78.6076C274.395 81.2772 279.511 84.0768 286.112 84.8678C292.719 85.6588 298.312 84.1393 298.61 81.4697C298.908 78.8053 293.792 76.0004 287.191 75.2095Z" fill="url(#paint4_radial_1809_38)"/>
<path style="mix-blend-mode:screen" d="M90.8571 69.4114C86.1637 71.2743 81.622 72.2683 77.9258 72.4036C80.9283 71.9665 84.2776 71.0714 87.7083 69.708C97.9569 65.6438 105.03 58.988 103.496 54.851C102.667 52.6081 99.4744 51.5621 95.0953 51.7286C101.057 50.8596 105.626 51.8015 106.645 54.5543C108.173 58.6914 101.106 65.3471 90.8571 69.4114ZM126.058 59.9611C129.223 59.9039 131.515 60.7001 132.079 62.3289C133.109 65.3107 127.955 69.9422 120.573 72.6794C118.465 73.46 116.405 73.996 114.509 74.2978C117.137 74.251 120.367 73.6213 123.722 72.3828C131.109 69.6507 136.258 65.0141 135.228 62.0323C134.491 59.9039 130.8 59.2014 126.058 59.9611ZM264.086 49.6731C274.941 51.3436 283.233 56.256 282.605 60.6377C282.236 63.2188 278.849 65.0453 273.906 65.7635C280.518 65.446 285.309 63.4425 285.754 60.341C286.382 55.9594 278.09 51.0469 267.235 49.3765C262.774 48.6896 258.579 48.6584 255.133 49.1579C257.864 49.0278 260.91 49.1839 264.086 49.6731ZM315.768 65.6334C311.687 63.76 307.768 63.1823 305.725 63.9681C307.709 64.1346 310.131 64.7903 312.619 65.93C317.968 68.3862 321.561 72.1278 320.635 74.2874C320.412 74.8026 319.952 75.1772 319.318 75.4218C321.599 75.6092 323.29 75.1512 323.783 73.9908C324.705 71.8312 321.117 68.0896 315.768 65.6334ZM290.339 74.9118C287.672 74.5944 285.179 74.6569 283.125 75.0107C284.41 74.9795 285.775 75.0367 287.19 75.2033C293.796 75.9942 298.907 78.7939 298.609 81.4635C298.43 83.0559 296.36 84.232 293.325 84.7576C298.018 84.6431 301.525 83.2588 301.758 81.1669C302.056 78.5025 296.94 75.6976 290.339 74.9066V74.9118ZM140.046 38.9844C142.572 38.9844 144.393 39.6505 144.783 40.9306C145.466 43.1839 141.498 46.4883 135.916 48.3045C134.724 48.6948 133.559 48.9758 132.453 49.1683C134.361 49.1683 136.664 48.7885 139.065 48.0079C144.647 46.1865 148.62 42.8873 147.932 40.634C147.395 38.8595 144.132 38.2714 140.046 38.9844Z" fill="url(#paint5_radial_1809_38)"/>
<path opacity="0.5" d="M296.252 83.9311C294.209 82.8799 291.424 82.0525 288.296 81.6778C284.177 81.1835 280.454 81.5894 278.162 82.6145C280.205 83.6657 282.991 84.4931 286.118 84.8678C290.237 85.3622 293.96 84.9563 296.252 83.9311Z" fill="url(#paint6_radial_1809_38)"/>
<path opacity="0.5" d="M281.57 62.6676C278.486 59.8003 272.405 57.2556 265.186 56.142C256.162 54.7525 248.217 56.0379 245.421 59.0249C248.504 61.8922 254.585 64.4369 261.804 65.5506C270.828 66.94 278.773 65.6546 281.57 62.6676Z" fill="url(#paint7_radial_1809_38)"/>
<path opacity="0.5" d="M304.132 70.5937C305.498 71.7281 307.259 72.8313 309.275 73.7576C313.069 75.5009 316.727 76.1202 318.863 75.5634C317.497 74.4289 315.736 73.3257 313.719 72.3994C309.926 70.6561 306.267 70.0369 304.132 70.5937Z" fill="url(#paint8_radial_1809_38)"/>
<path opacity="0.5" d="M68.3552 71.6501C71.981 73.5495 79.6227 72.9146 87.7088 69.7038C94.8032 66.8885 100.369 62.8399 102.618 59.2388C98.9926 57.3394 91.3509 57.9743 83.2647 61.1851C76.1704 64.0004 70.6044 68.049 68.3552 71.6501Z" fill="url(#paint9_radial_1809_38)"/>
<path opacity="0.5" d="M134.535 46.6143C132.227 47.3637 130.205 48.3732 128.666 49.4504C130.682 49.5493 133.24 49.1798 135.917 48.3056C138.226 47.5562 140.248 46.5467 141.787 45.4695C139.771 45.3706 137.213 45.7401 134.535 46.6143Z" fill="url(#paint10_radial_1809_38)"/>
<path opacity="0.5" d="M108.174 74.2825C111.052 75.0006 115.68 74.4854 120.574 72.6745C124.828 71.0977 128.33 68.8965 130.351 66.7369C127.473 66.0188 122.845 66.5339 117.951 68.3449C113.696 69.9217 110.195 72.1229 108.174 74.2825Z" fill="url(#paint11_radial_1809_38)"/>
<path opacity="0.25" d="M97.4641 74.2771C97.9627 75.9267 95.0144 78.3517 90.8792 79.6995C86.744 81.0473 82.9828 80.8027 82.4842 79.1531C81.9856 77.5035 84.9339 75.0785 89.0691 73.7307C93.2043 72.3829 96.9655 72.6275 97.4641 74.2771Z" fill="url(#paint12_radial_1809_38)"/>
<path opacity="0.25" d="M252.18 43.7416C251.952 45.4537 248.283 46.3435 243.99 45.7295C239.693 45.1154 236.398 43.2316 236.625 41.5196C236.853 39.8075 240.522 38.9176 244.814 39.5317C249.112 40.1457 252.407 42.0295 252.18 43.7416Z" fill="url(#paint13_radial_1809_38)"/>
<path opacity="0.25" d="M342.156 78.4716C341.289 79.9443 337.582 79.247 333.88 76.9104C330.179 74.5739 327.881 71.4828 328.748 70.0049C329.615 68.5322 333.322 69.2295 337.024 71.5661C340.725 73.9026 343.023 76.9937 342.156 78.4716Z" fill="url(#paint14_radial_1809_38)"/>
<path opacity="0.25" d="M262.411 45.5411C262.314 46.2696 260.758 46.6443 258.932 46.3841C257.111 46.1239 255.707 45.3225 255.805 44.5992C255.902 43.8706 257.458 43.496 259.284 43.7562C261.105 44.0164 262.509 44.8177 262.411 45.5411Z" fill="url(#paint15_radial_1809_38)"/>
<path opacity="0.25" d="M280.161 70.2283C280.063 70.9569 278.508 71.3316 276.681 71.0714C274.86 70.8112 273.457 70.0098 273.554 69.2864C273.652 68.5579 275.207 68.1832 277.034 68.4434C278.86 68.7036 280.258 69.505 280.161 70.2283Z" fill="url(#paint16_radial_1809_38)"/>
<path opacity="0.25" d="M297.417 53.8521C297.32 54.5807 295.764 54.9553 293.938 54.6951C292.111 54.435 290.713 53.6336 290.811 52.9102C290.908 52.1817 292.464 51.807 294.29 52.0672C296.111 52.3274 297.515 53.1288 297.417 53.8521Z" fill="url(#paint17_radial_1809_38)"/>
<path opacity="0.25" d="M311.941 79.3876C311.681 80.0693 310.082 80.0485 308.37 79.3407C306.657 78.633 305.486 77.509 305.747 76.8273C306.007 76.1456 307.606 76.1664 309.318 76.8741C311.025 77.5818 312.201 78.7059 311.941 79.3876Z" fill="url(#paint18_radial_1809_38)"/>
<path opacity="0.25" d="M308.138 59.795C307.84 60.9295 305.287 61.2053 302.436 60.4039C299.585 59.6025 297.515 58.0361 297.813 56.9017C298.111 55.7672 300.664 55.4914 303.515 56.2928C306.365 57.0942 308.436 58.6606 308.138 59.795Z" fill="url(#paint19_radial_1809_38)"/>
<path opacity="0.25" d="M254.826 67.4813C255.041 66.3241 252.852 64.9815 249.938 64.4825C247.024 63.9836 244.487 64.5172 244.272 65.6745C244.057 66.8317 246.246 68.1743 249.16 68.6732C252.074 69.1722 254.611 68.6385 254.826 67.4813Z" fill="url(#paint20_radial_1809_38)"/>
<path opacity="0.25" d="M137.282 53.0243C137.536 54.0495 135.65 55.4389 133.076 56.1206C130.496 56.8076 128.204 56.5265 127.949 55.5014C127.694 54.4762 129.58 53.0868 132.155 52.4051C134.734 51.7182 137.027 51.9992 137.282 53.0243Z" fill="url(#paint21_radial_1809_38)"/>
<path opacity="0.25" d="M134.626 72.5246C134.881 73.5498 132.995 74.9392 130.421 75.6209C127.841 76.3078 125.549 76.0268 125.294 75.0016C125.039 73.9765 126.925 72.587 129.499 71.9053C132.079 71.2184 134.372 71.4994 134.626 72.5246Z" fill="url(#paint22_radial_1809_38)"/>
<path opacity="0.25" d="M139.927 67.7621C140.084 68.4022 138.914 69.2661 137.304 69.6928C135.7 70.1195 134.269 69.9478 134.112 69.3077C133.955 68.6676 135.125 67.8038 136.735 67.377C138.345 66.9503 139.77 67.1221 139.927 67.7621Z" fill="url(#paint23_radial_1809_38)"/>
<path opacity="0.25" d="M124.091 42.0607C124.248 42.7008 123.077 43.5646 121.468 43.9913C119.864 44.4181 118.433 44.2463 118.276 43.6063C118.118 42.9662 119.289 42.1023 120.899 41.6756C122.503 41.2489 123.934 41.4206 124.091 42.0607Z" fill="url(#paint24_radial_1809_38)"/>
<path opacity="0.25" d="M103.767 67.7621C103.924 68.4022 102.753 69.2661 101.144 69.6928C99.5339 70.1195 98.1086 69.9478 97.9514 69.3077C97.7942 68.6676 98.9649 67.8038 100.575 67.377C102.179 66.9503 103.61 67.1221 103.767 67.7621Z" fill="url(#paint25_radial_1809_38)"/>
<path opacity="0.25" d="M159.628 50.3396C160.127 51.9892 157.179 54.4142 153.043 55.762C148.908 57.1098 145.147 56.8652 144.648 55.2156C144.15 53.566 147.098 51.141 151.233 49.7932C155.368 48.4454 159.13 48.69 159.628 50.3396Z" fill="url(#paint26_radial_1809_38)"/>
<path opacity="0.25" d="M165.93 43.8246C166.087 44.4647 164.917 45.3286 163.307 45.7553C161.703 46.182 160.272 46.0103 160.115 45.3702C159.958 44.7301 161.128 43.8663 162.738 43.4395C164.348 43.0128 165.773 43.1846 165.93 43.8246Z" fill="url(#paint27_radial_1809_38)"/>
<path opacity="0.25" d="M104.889 47.0612C105.046 47.7013 103.875 48.5651 102.266 48.9918C100.661 49.4186 99.2306 49.2468 99.0735 48.6068C98.9163 47.9667 100.087 47.1028 101.697 46.6761C103.301 46.2494 104.732 46.4211 104.889 47.0612Z" fill="url(#paint28_radial_1809_38)"/>
</g>
</g>
<g clip-path="url(#clip1_1809_38)">
<path d="M234.685 142.287C235.513 142.287 236.327 142.34 237.132 142.427C237.085 142.033 237.061 141.638 237.061 141.23C237.061 134.325 243.606 128.725 251.666 128.725C257.577 128.725 262.667 131.729 264.966 136.051C267.264 134.981 269.907 134.372 272.714 134.372C276.451 134.372 279.891 135.456 282.636 137.269C285.294 132.699 290.814 129.554 297.186 129.554C297.999 129.554 298.796 129.608 299.578 129.708C298.069 127.741 297.186 125.386 297.186 122.857C297.186 115.952 303.73 110.358 311.799 110.358C311.955 110.358 312.119 110.358 312.275 110.365C312.166 109.756 312.111 109.134 312.111 108.498C312.111 101.594 318.655 96 326.724 96C333.698 96 339.531 100.182 340.977 105.782C343.495 104.016 346.716 102.958 350.227 102.958C355.004 102.958 359.241 104.919 361.907 107.956C362.83 101.808 368.96 97.0571 376.387 97.0571C384.456 97.0571 391 102.651 391 109.556V172.984H241.729C239.556 173.747 216.053 167.029 216.053 158.224C216.053 149.419 224.396 142.28 234.685 142.28V142.287Z" fill="#2F1B8E"/>
<g clip-path="url(#clip2_1809_38)">
<path d="M237.276 113.857C237.746 113.88 238.146 113.518 238.169 113.047C238.193 112.576 237.832 112.175 237.362 112.152C236.892 112.128 236.492 112.491 236.468 112.961C236.444 113.432 236.806 113.833 237.276 113.857Z" fill="#2F1B8E"/>
<path d="M239.259 104.927C239.016 104.915 238.81 105.101 238.798 105.345C238.786 105.588 238.972 105.794 239.215 105.807C239.458 105.819 239.663 105.632 239.676 105.389C239.688 105.145 239.502 104.939 239.259 104.927Z" fill="#2F1B8E"/>
<path d="M243.427 107.677C242.651 107.638 241.988 108.238 241.949 109.016C241.91 109.794 242.509 110.458 243.285 110.497C244.061 110.536 244.724 109.936 244.763 109.158C244.802 108.38 244.203 107.716 243.427 107.677Z" fill="#2F1B8E"/>
<path d="M246.053 106.345C245.786 106.331 245.56 106.536 245.546 106.803C245.533 107.07 245.737 107.297 246.004 107.311C246.27 107.324 246.497 107.119 246.51 106.852C246.524 106.585 246.319 106.358 246.053 106.345Z" fill="#2F1B8E"/>
<path d="M232.13 112.963C231.282 113.732 231.215 115.043 231.982 115.893C232.749 116.743 234.058 116.809 234.906 116.041C235.754 115.272 235.821 113.96 235.054 113.111C234.287 112.261 232.978 112.195 232.13 112.963Z" fill="#2F1B8E"/>
<path d="M215.071 170.892C217.428 169.038 219.005 166.212 219.169 162.975C219.343 159.511 217.86 156.348 215.42 154.256C218.325 153.611 220.562 151.094 220.72 147.971C220.734 147.676 220.725 147.388 220.701 147.104C222.747 146.581 224.304 144.773 224.416 142.55C224.437 142.133 224.399 141.726 224.324 141.332C227.18 141.268 229.546 139.008 229.693 136.106C229.762 134.739 229.323 133.468 228.552 132.465C230.39 132.258 231.865 130.749 231.961 128.836C231.995 128.176 231.858 127.543 231.595 126.987C232.433 126.43 233.002 125.502 233.057 124.422C233.078 123.998 233.016 123.589 232.886 123.208C233.798 123.038 234.506 122.258 234.554 121.292C234.612 120.157 233.741 119.188 232.604 119.13C231.468 119.073 230.525 119.931 230.452 121.05C230.289 121.014 230.121 120.99 229.949 120.981C228.973 120.932 228.077 121.32 227.447 121.965C226.907 121.536 226.237 121.262 225.496 121.225C223.611 121.13 222.005 122.585 221.909 124.474C221.9 124.667 221.91 124.852 221.932 125.038C221.035 124.592 220.031 124.316 218.969 124.263C215.151 124.07 211.86 126.767 211.187 130.435C209.236 130.246 207.213 130.841 205.644 132.266C203.223 134.46 202.628 137.919 203.952 140.73C203.103 140.424 202.197 140.236 201.248 140.188C196.086 139.928 191.688 143.912 191.427 149.085C191.415 149.317 191.415 149.545 191.42 149.774C191.182 149.738 190.939 149.714 190.692 149.702C188.529 149.592 186.532 150.386 185.052 151.744C183.213 149.486 180.468 147.985 177.332 147.827C172.758 147.596 168.711 150.294 167.001 154.28C166.393 153.883 165.674 153.63 164.894 153.591C163.381 153.515 162.016 154.241 161.204 155.397C159.217 154.356 156.982 153.716 154.595 153.595C148.092 153.267 142.302 156.874 139.516 162.329C138.866 162.048 138.156 161.867 137.407 161.829C136.188 161.768 135.037 162.072 134.057 162.645C133.629 162.024 132.927 161.603 132.12 161.562C130.779 161.495 129.636 162.489 129.491 163.808C126.678 162.469 123.568 161.647 120.264 161.48C115.396 161.235 110.796 162.444 106.869 164.719C106.02 164.109 104.994 163.727 103.873 163.67C102.337 163.593 100.918 164.14 99.8486 165.082L215.071 170.892Z" fill="#2F1B8E"/>
</g>
<path d="M156.307 142.287C155.479 142.287 154.666 142.34 153.86 142.427C153.907 142.033 153.931 141.638 153.931 141.23C153.931 134.325 147.387 128.725 139.326 128.725C133.415 128.725 128.325 131.729 126.026 136.051C123.72 134.981 121.085 134.372 118.278 134.372C114.541 134.372 111.101 135.456 108.357 137.269C105.698 132.699 100.178 129.554 93.8063 129.554C92.9932 129.554 92.1957 129.608 91.4139 129.708C92.9229 127.741 93.8063 125.386 93.8063 122.857C93.8063 115.952 87.2623 110.358 79.2014 110.358C79.0372 110.358 78.8808 110.358 78.7245 110.365C78.8339 109.756 78.8886 109.134 78.8886 108.498C78.8886 101.594 72.3446 96 64.2759 96C57.3018 96 51.4691 100.182 50.0227 105.782C47.5052 104.016 44.284 102.958 40.7813 102.958C36.0042 102.958 31.7587 104.919 29.1004 107.956C28.1778 101.808 22.0481 97.0571 14.6127 97.0571C6.54404 97.0571 -5.13954e-05 102.657 -5.13954e-05 109.562V172.984H149.271C151.444 173.747 174.947 167.029 174.947 158.224C174.947 149.419 166.604 142.28 156.315 142.28L156.307 142.287Z" fill="#2F1B8E"/>
<path d="M17.3369 122.936C21.3877 122.936 25.11 124.132 28.0582 126.124C31.5302 120.704 38.2398 117.034 45.9503 117.034C57.2189 117.034 66.3449 124.874 66.3449 134.553C66.3449 136.558 65.9461 138.477 65.2266 140.268C67.9558 138.724 71.2245 137.822 74.7435 137.822C84.323 137.822 92.0805 144.486 92.0805 152.707C92.0805 153.095 92.057 153.469 92.0258 153.85C94.0746 153.115 96.3268 152.707 98.6884 152.707C103.959 152.707 108.682 154.732 111.857 157.921C113.077 149.652 121.288 143.262 131.251 143.262C140.236 143.262 147.798 148.469 150.089 155.554C152.951 153.77 156.47 152.714 160.279 152.714C169.858 152.714 177.616 159.378 177.616 167.599C177.616 168.288 177.553 168.969 177.451 169.631L195.477 165.287H195.523L213.549 169.631C213.439 168.963 213.384 168.288 213.384 167.599C213.384 159.378 221.15 152.714 230.721 152.714C234.53 152.714 238.049 153.77 240.911 155.554C243.202 148.469 250.764 143.262 259.749 143.262C269.704 143.262 277.923 149.652 279.143 157.921C282.325 154.732 287.041 152.707 292.319 152.707C294.681 152.707 296.933 153.115 298.982 153.85C298.951 153.476 298.927 153.095 298.927 152.707C298.927 144.486 306.693 137.822 316.264 137.822C319.775 137.822 323.044 138.724 325.781 140.268C325.062 138.477 324.663 136.552 324.663 134.553C324.663 124.881 333.797 117.034 345.065 117.034C352.776 117.034 359.485 120.71 362.95 126.124C365.898 124.126 369.62 122.936 373.671 122.936C383.235 122.936 391 129.6 391 137.822V203.861H-2.6226e-06V137.822C-2.6226e-06 129.6 7.76527 122.936 17.3369 122.936Z" fill="#1D0E78"/>
</g>
</g>
<defs>
<radialGradient id="paint0_radial_1809_38" cx="0" cy="0" r="1" gradientUnits="userSpaceOnUse" gradientTransform="translate(181.433 1.71683) scale(272.963 294.856)">
<stop stop-color="#4A289C" stop-opacity="0"/>
<stop offset="0.96" stop-color="#00092B"/>
</radialGradient>
<radialGradient id="paint1_radial_1809_38" cx="0" cy="0" r="1" gradientUnits="userSpaceOnUse" gradientTransform="translate(181.869 12.9421) scale(237.69 256.754)">
<stop stop-color="#4A289C" stop-opacity="0"/>
<stop offset="0.96" stop-color="#00092B"/>
</radialGradient>
<radialGradient id="paint2_radial_1809_38" cx="0" cy="0" r="1" gradientUnits="userSpaceOnUse" gradientTransform="translate(175.805 3.68716) scale(211.328 213.783)">
<stop stop-color="#4A289C"/>
<stop offset="0.96" stop-color="#00092B"/>
</radialGradient>
<radialGradient id="paint3_radial_1809_38" cx="0" cy="0" r="1" gradientUnits="userSpaceOnUse" gradientTransform="translate(183.007 17.3155) scale(136.673 131.231)">
<stop stop-color="#4A289C"/>
<stop offset="0.96" stop-color="#00092B"/>
</radialGradient>
<radialGradient id="paint4_radial_1809_38" cx="0" cy="0" r="1" gradientUnits="userSpaceOnUse" gradientTransform="translate(194.988 27.3725) rotate(8.75299) scale(118.339 121.91)">
<stop stop-color="#4A289C"/>
<stop offset="0.96" stop-color="#00092B"/>
</radialGradient>
<radialGradient id="paint5_radial_1809_38" cx="0" cy="0" r="1" gradientUnits="userSpaceOnUse" gradientTransform="translate(199.788 61.5235) scale(88.0396 91.327)">
<stop stop-color="#4A289C"/>
<stop offset="0.96" stop-color="#00092B"/>
</radialGradient>
<radialGradient id="paint6_radial_1809_38" cx="0" cy="0" r="1" gradientUnits="userSpaceOnUse" gradientTransform="translate(229.72 3.01571) scale(108.763 112.824)">
<stop stop-color="#4A289C"/>
<stop offset="0.96" stop-color="#00092B"/>
</radialGradient>
<radialGradient id="paint7_radial_1809_38" cx="0" cy="0" r="1" gradientUnits="userSpaceOnUse" gradientTransform="translate(229.719 3.01524) scale(108.763 112.824)">
<stop stop-color="#4A289C"/>
<stop offset="0.96" stop-color="#00092B"/>
</radialGradient>
<radialGradient id="paint8_radial_1809_38" cx="0" cy="0" r="1" gradientUnits="userSpaceOnUse" gradientTransform="translate(229.719 3.01579) scale(108.763 112.824)">
<stop stop-color="#4A289C"/>
<stop offset="0.96" stop-color="#00092B"/>
</radialGradient>
<radialGradient id="paint9_radial_1809_38" cx="0" cy="0" r="1" gradientUnits="userSpaceOnUse" gradientTransform="translate(229.72 3.0158) scale(108.763 112.824)">
<stop stop-color="#4A289C"/>
<stop offset="0.96" stop-color="#00092B"/>
</radialGradient>
<radialGradient id="paint10_radial_1809_38" cx="0" cy="0" r="1" gradientUnits="userSpaceOnUse" gradientTransform="translate(229.72 3.01583) scale(108.763 112.824)">
<stop stop-color="#4A289C"/>
<stop offset="0.96" stop-color="#00092B"/>
</radialGradient>
<radialGradient id="paint11_radial_1809_38" cx="0" cy="0" r="1" gradientUnits="userSpaceOnUse" gradientTransform="translate(229.72 3.01511) scale(108.763 112.824)">
<stop stop-color="#4A289C"/>
<stop offset="0.96" stop-color="#00092B"/>
</radialGradient>
<radialGradient id="paint12_radial_1809_38" cx="0" cy="0" r="1" gradientUnits="userSpaceOnUse" gradientTransform="translate(86.4852 57.5882) scale(33.1848 34.4239)">
<stop stop-color="#4A289C"/>
<stop offset="0.96" stop-color="#00092B"/>
</radialGradient>
<radialGradient id="paint13_radial_1809_38" cx="0" cy="0" r="1" gradientUnits="userSpaceOnUse" gradientTransform="translate(256.65 27.1186) rotate(26.0891) scale(33.5043 34.4178)">
<stop stop-color="#4A289C"/>
<stop offset="0.96" stop-color="#00092B"/>
</radialGradient>
<radialGradient id="paint14_radial_1809_38" cx="0" cy="0" r="1" gradientUnits="userSpaceOnUse" gradientTransform="translate(361.656 76.6587) rotate(49.8166) scale(34.1295 33.8069)">
<stop stop-color="#4A289C"/>
<stop offset="0.96" stop-color="#00092B"/>
</radialGradient>
<radialGradient id="paint15_radial_1809_38" cx="0" cy="0" r="1" gradientUnits="userSpaceOnUse" gradientTransform="translate(267.936 39.9622) rotate(26.0891) scale(14.2241 14.612)">
<stop stop-color="#4A289C"/>
<stop offset="0.96" stop-color="#00092B"/>
</radialGradient>
<radialGradient id="paint16_radial_1809_38" cx="0" cy="0" r="1" gradientUnits="userSpaceOnUse" gradientTransform="translate(284.858 64.3152) rotate(26.0891) scale(14.2241 14.612)">
<stop stop-color="#4A289C"/>
<stop offset="0.96" stop-color="#00092B"/>
</radialGradient>
<radialGradient id="paint17_radial_1809_38" cx="0" cy="0" r="1" gradientUnits="userSpaceOnUse" gradientTransform="translate(303.352 48.444) rotate(26.0891) scale(14.2241 14.612)">
<stop stop-color="#4A289C"/>
<stop offset="0.96" stop-color="#00092B"/>
</radialGradient>
<radialGradient id="paint18_radial_1809_38" cx="0" cy="0" r="1" gradientUnits="userSpaceOnUse" gradientTransform="translate(324.873 80.2292) rotate(40.1788) scale(14.3412 14.5012)">
<stop stop-color="#4A289C"/>
<stop offset="0.96" stop-color="#00092B"/>
</radialGradient>
<radialGradient id="paint19_radial_1809_38" cx="0" cy="0" r="1" gradientUnits="userSpaceOnUse" gradientTransform="translate(318.974 52.7632) rotate(33.5198) scale(22.9164 23.357)">
<stop stop-color="#4A289C"/>
<stop offset="0.96" stop-color="#00092B"/>
</radialGradient>
<radialGradient id="paint20_radial_1809_38" cx="0" cy="0" r="1" gradientUnits="userSpaceOnUse" gradientTransform="translate(258.598 57.208) rotate(27.388) scale(22.8051 23.2669)">
<stop stop-color="#4A289C"/>
<stop offset="0.96" stop-color="#00092B"/>
</radialGradient>
<radialGradient id="paint21_radial_1809_38" cx="0" cy="0" r="1" gradientUnits="userSpaceOnUse" gradientTransform="translate(130.201 42.3792) rotate(3.17848) scale(20.3623 21.1281)">
<stop stop-color="#4A289C"/>
<stop offset="0.96" stop-color="#00092B"/>
</radialGradient>
<radialGradient id="paint22_radial_1809_38" cx="0" cy="0" r="1" gradientUnits="userSpaceOnUse" gradientTransform="translate(127.388 61.8334) rotate(3.17848) scale(20.3623 21.1281)">
<stop stop-color="#4A289C"/>
<stop offset="0.96" stop-color="#00092B"/>
</radialGradient>
<radialGradient id="paint23_radial_1809_38" cx="0" cy="0" r="1" gradientUnits="userSpaceOnUse" gradientTransform="translate(134.843 61.0165) rotate(3.17848) scale(12.6847 13.1618)">
<stop stop-color="#4A289C"/>
<stop offset="0.96" stop-color="#00092B"/>
</radialGradient>
<radialGradient id="paint24_radial_1809_38" cx="0" cy="0" r="1" gradientUnits="userSpaceOnUse" gradientTransform="translate(119.29 35.3786) rotate(3.17848) scale(12.6847 13.1618)">
<stop stop-color="#4A289C"/>
<stop offset="0.96" stop-color="#00092B"/>
</radialGradient>
<radialGradient id="paint25_radial_1809_38" cx="0" cy="0" r="1" gradientUnits="userSpaceOnUse" gradientTransform="translate(98.8174 61.0217) rotate(3.17848) scale(12.6847 13.1618)">
<stop stop-color="#4A289C"/>
<stop offset="0.96" stop-color="#00092B"/>
</radialGradient>
<radialGradient id="paint26_radial_1809_38" cx="0" cy="0" r="1" gradientUnits="userSpaceOnUse" gradientTransform="translate(148.406 33.7051) scale(33.1848 34.4239)">
<stop stop-color="#4A289C"/>
<stop offset="0.96" stop-color="#00092B"/>
</radialGradient>
<radialGradient id="paint27_radial_1809_38" cx="0" cy="0" r="1" gradientUnits="userSpaceOnUse" gradientTransform="translate(160.954 37.1371) rotate(3.17848) scale(12.6847 13.1618)">
<stop stop-color="#4A289C"/>
<stop offset="0.96" stop-color="#00092B"/>
</radialGradient>
<radialGradient id="paint28_radial_1809_38" cx="0" cy="0" r="1" gradientUnits="userSpaceOnUse" gradientTransform="translate(100.11 40.3681) rotate(3.17847) scale(12.6847 13.1618)">
<stop stop-color="#4A289C"/>
<stop offset="0.96" stop-color="#00092B"/>
</radialGradient>
<clipPath id="clip0_1809_38">
<rect width="390" height="175" fill="white"/>
</clipPath>
<clipPath id="clip1_1809_38">
<rect width="391" height="79" fill="white" transform="matrix(-1 0 0 1 391 96)"/>
</clipPath>
<clipPath id="clip2_1809_38">
<rect width="143.548" height="67.0998" fill="white" transform="matrix(0.998731 0.0503636 -0.0504042 0.998729 103.223 98.0669)"/>
</clipPath>
</defs>
</svg>
