<svg width="390" height="202" viewBox="0 0 390 202" fill="none" xmlns="http://www.w3.org/2000/svg">
<g clip-path="url(#clip0_1848_272)">
<mask id="mask0_1848_272" style="mask-type:alpha" maskUnits="userSpaceOnUse" x="0" y="-111" width="390" height="418">
<rect y="-111" width="390" height="418" fill="#D9D9D9"/>
</mask>
<g mask="url(#mask0_1848_272)">
<g opacity="0.3">
<path style="mix-blend-mode:screen" d="M451 140.145C400.722 74.5086 303.222 30 191.176 30C70.6426 30 -33.0573 81.5078 -79.2437 155.413V200.629H451V140.145Z" fill="url(#paint0_radial_1848_272)"/>
<path style="mix-blend-mode:screen" d="M416.742 136.939C372.962 79.7852 288.057 41.0269 190.492 41.0269C85.5351 41.0269 -4.76188 85.8789 -44.9812 150.235V189.608H416.742V136.939Z" fill="url(#paint1_radial_1848_272)"/>
<path style="mix-blend-mode:screen" d="M391.139 138.001C352.215 90.3801 276.73 58.085 189.978 58.085C96.6564 58.085 16.3749 95.4539 -19.384 149.08V181.885H391.139V138.001Z" fill="url(#paint2_radial_1848_272)"/>
<path style="mix-blend-mode:screen" d="M46.6433 97.8112C44.7139 117.716 104.883 120.203 173.534 114.12C242.185 108.037 290.398 130.705 322.022 113.844C334.547 107.168 333.945 97.8008 327.355 88.7201C289.076 69.4814 241.513 58.085 189.977 58.085C138.442 58.085 87.4588 70.3244 48.4968 90.8381C47.5267 93.0965 46.8764 95.4279 46.6433 97.8112Z" fill="url(#paint3_radial_1848_272)"/>
<path opacity="0.5" d="M282.606 87.6386C281.977 92.0203 272.666 94.2215 261.805 92.5511C250.949 90.8807 242.657 85.9682 243.286 81.5866C243.915 77.2049 253.226 75.0037 264.087 76.6741C274.942 78.3446 283.234 83.257 282.606 87.6386ZM82.1647 81.7167C71.9161 85.7809 64.8435 92.4366 66.3772 96.5737C67.9056 100.711 77.4604 100.773 87.709 96.7038C97.9576 92.6344 105.03 85.9838 103.496 81.8467C101.968 77.7097 92.4133 77.6472 82.1647 81.7167ZM116.845 88.8772C109.458 91.6092 104.309 96.2458 105.339 99.2276C106.369 102.209 113.187 102.412 120.574 99.6752C127.961 96.9432 133.11 92.3065 132.08 89.3247C131.05 86.3429 124.232 86.1399 116.845 88.8772ZM133.435 67.1458C127.852 68.9672 123.88 72.2664 124.568 74.5197C125.251 76.773 130.335 77.1268 135.917 75.3055C141.499 73.4841 145.472 70.1849 144.783 67.9316C144.101 65.6784 139.017 65.3245 133.435 67.1458ZM312.62 92.931C307.27 90.4748 302.181 90.2354 301.26 92.4002C300.339 94.5598 303.927 98.3014 309.276 100.758C314.625 103.214 319.714 103.453 320.635 101.288C321.557 99.1236 317.969 95.3872 312.62 92.931ZM287.191 102.209C280.584 101.418 274.991 102.938 274.693 105.608C274.395 108.277 279.511 111.077 286.112 111.868C292.719 112.659 298.312 111.139 298.61 108.47C298.908 105.805 293.792 103 287.191 102.209Z" fill="url(#paint4_radial_1848_272)"/>
<path style="mix-blend-mode:screen" d="M90.8571 96.4114C86.1637 98.2743 81.622 99.2683 77.9258 99.4036C80.9283 98.9665 84.2776 98.0714 87.7083 96.708C97.9569 92.6438 105.03 85.988 103.496 81.851C102.667 79.6081 99.4744 78.5621 95.0953 78.7286C101.057 77.8596 105.626 78.8015 106.645 81.5543C108.173 85.6914 101.106 92.3471 90.8571 96.4114ZM126.058 86.9611C129.223 86.9039 131.515 87.7001 132.079 89.3289C133.109 92.3107 127.955 96.9422 120.573 99.6794C118.465 100.46 116.405 100.996 114.509 101.298C117.137 101.251 120.367 100.621 123.722 99.3828C131.109 96.6507 136.258 92.0141 135.228 89.0323C134.491 86.9039 130.8 86.2014 126.058 86.9611ZM264.086 76.6731C274.941 78.3436 283.233 83.256 282.605 87.6377C282.236 90.2188 278.849 92.0453 273.906 92.7635C280.518 92.446 285.309 90.4425 285.754 87.341C286.382 82.9594 278.09 78.0469 267.235 76.3765C262.774 75.6896 258.579 75.6584 255.133 76.1579C257.864 76.0278 260.91 76.1839 264.086 76.6731ZM315.768 92.6334C311.687 90.76 307.768 90.1823 305.725 90.9681C307.709 91.1346 310.131 91.7903 312.619 92.93C317.968 95.3862 321.561 99.1278 320.635 101.287C320.412 101.803 319.952 102.177 319.318 102.422C321.599 102.609 323.29 102.151 323.783 100.991C324.705 98.8312 321.117 95.0896 315.768 92.6334ZM290.339 101.912C287.672 101.594 285.179 101.657 283.125 102.011C284.41 101.979 285.775 102.037 287.19 102.203C293.796 102.994 298.907 105.794 298.609 108.464C298.43 110.056 296.36 111.232 293.325 111.758C298.018 111.643 301.525 110.259 301.758 108.167C302.056 105.503 296.94 102.698 290.339 101.907V101.912ZM140.046 65.9844C142.572 65.9844 144.393 66.6505 144.783 67.9306C145.466 70.1839 141.498 73.4883 135.916 75.3045C134.724 75.6948 133.559 75.9758 132.453 76.1683C134.361 76.1683 136.664 75.7885 139.065 75.0079C144.647 73.1865 148.62 69.8873 147.932 67.634C147.395 65.8595 144.132 65.2714 140.046 65.9844Z" fill="url(#paint5_radial_1848_272)"/>
<path opacity="0.5" d="M296.252 110.931C294.209 109.88 291.424 109.053 288.296 108.678C284.177 108.183 280.454 108.589 278.162 109.615C280.205 110.666 282.991 111.493 286.118 111.868C290.237 112.362 293.96 111.956 296.252 110.931Z" fill="url(#paint6_radial_1848_272)"/>
<path opacity="0.5" d="M281.57 89.6676C278.486 86.8003 272.405 84.2556 265.186 83.142C256.162 81.7525 248.217 83.0379 245.421 86.0249C248.504 88.8922 254.585 91.4369 261.804 92.5506C270.828 93.94 278.773 92.6546 281.57 89.6676Z" fill="url(#paint7_radial_1848_272)"/>
<path opacity="0.5" d="M304.132 97.5937C305.498 98.7281 307.259 99.8313 309.275 100.758C313.069 102.501 316.727 103.12 318.863 102.563C317.497 101.429 315.736 100.326 313.719 99.3994C309.926 97.6561 306.267 97.0369 304.132 97.5937Z" fill="url(#paint8_radial_1848_272)"/>
<path opacity="0.5" d="M68.3552 98.6501C71.981 100.549 79.6227 99.9146 87.7088 96.7038C94.8032 93.8885 100.369 89.8399 102.618 86.2388C98.9926 84.3394 91.3509 84.9743 83.2647 88.1851C76.1704 91.0004 70.6044 95.049 68.3552 98.6501Z" fill="url(#paint9_radial_1848_272)"/>
<path opacity="0.5" d="M134.535 73.6143C132.227 74.3637 130.205 75.3732 128.666 76.4504C130.682 76.5493 133.24 76.1798 135.917 75.3056C138.226 74.5562 140.248 73.5467 141.787 72.4695C139.771 72.3706 137.213 72.7401 134.535 73.6143Z" fill="url(#paint10_radial_1848_272)"/>
<path opacity="0.5" d="M108.174 101.282C111.052 102.001 115.68 101.485 120.574 99.6745C124.828 98.0977 128.33 95.8965 130.351 93.7369C127.473 93.0188 122.845 93.5339 117.951 95.3449C113.696 96.9217 110.195 99.1229 108.174 101.282Z" fill="url(#paint11_radial_1848_272)"/>
<path opacity="0.25" d="M97.4641 101.277C97.9627 102.927 95.0144 105.352 90.8792 106.7C86.744 108.047 82.9828 107.803 82.4842 106.153C81.9856 104.503 84.9339 102.078 89.0691 100.731C93.2043 99.3829 96.9655 99.6275 97.4641 101.277Z" fill="url(#paint12_radial_1848_272)"/>
<path opacity="0.25" d="M252.18 70.7416C251.952 72.4537 248.283 73.3435 243.99 72.7295C239.693 72.1154 236.398 70.2316 236.625 68.5196C236.853 66.8075 240.522 65.9176 244.814 66.5317C249.112 67.1457 252.407 69.0295 252.18 70.7416Z" fill="url(#paint13_radial_1848_272)"/>
<path opacity="0.25" d="M342.156 105.472C341.289 106.944 337.582 106.247 333.88 103.91C330.179 101.574 327.881 98.4828 328.748 97.0049C329.615 95.5322 333.322 96.2295 337.024 98.5661C340.725 100.903 343.023 103.994 342.156 105.472Z" fill="url(#paint14_radial_1848_272)"/>
<path opacity="0.25" d="M262.411 72.5411C262.314 73.2696 260.758 73.6443 258.932 73.3841C257.111 73.1239 255.707 72.3225 255.805 71.5992C255.902 70.8706 257.458 70.496 259.284 70.7562C261.105 71.0164 262.509 71.8177 262.411 72.5411Z" fill="url(#paint15_radial_1848_272)"/>
<path opacity="0.25" d="M280.161 97.2283C280.063 97.9569 278.508 98.3316 276.681 98.0714C274.86 97.8112 273.457 97.0098 273.554 96.2864C273.652 95.5579 275.207 95.1832 277.034 95.4434C278.86 95.7036 280.258 96.505 280.161 97.2283Z" fill="url(#paint16_radial_1848_272)"/>
<path opacity="0.25" d="M297.417 80.8521C297.32 81.5807 295.764 81.9553 293.938 81.6951C292.111 81.435 290.713 80.6336 290.811 79.9102C290.908 79.1817 292.464 78.807 294.29 79.0672C296.111 79.3274 297.515 80.1288 297.417 80.8521Z" fill="url(#paint17_radial_1848_272)"/>
<path opacity="0.25" d="M311.941 106.388C311.681 107.069 310.082 107.048 308.37 106.341C306.657 105.633 305.486 104.509 305.747 103.827C306.007 103.146 307.606 103.166 309.318 103.874C311.025 104.582 312.201 105.706 311.941 106.388Z" fill="url(#paint18_radial_1848_272)"/>
<path opacity="0.25" d="M308.138 86.795C307.84 87.9295 305.287 88.2053 302.436 87.4039C299.585 86.6025 297.515 85.0361 297.813 83.9017C298.111 82.7672 300.664 82.4914 303.515 83.2928C306.365 84.0942 308.436 85.6606 308.138 86.795Z" fill="url(#paint19_radial_1848_272)"/>
<path opacity="0.25" d="M254.826 94.4813C255.041 93.3241 252.852 91.9815 249.938 91.4825C247.024 90.9836 244.487 91.5172 244.272 92.6745C244.057 93.8317 246.246 95.1743 249.16 95.6732C252.074 96.1722 254.611 95.6385 254.826 94.4813Z" fill="url(#paint20_radial_1848_272)"/>
<path opacity="0.25" d="M137.282 80.0243C137.536 81.0495 135.65 82.4389 133.076 83.1206C130.496 83.8076 128.204 83.5265 127.949 82.5014C127.694 81.4762 129.58 80.0868 132.155 79.4051C134.734 78.7182 137.027 78.9992 137.282 80.0243Z" fill="url(#paint21_radial_1848_272)"/>
<path opacity="0.25" d="M134.626 99.5246C134.881 100.55 132.995 101.939 130.421 102.621C127.841 103.308 125.549 103.027 125.294 102.002C125.039 100.976 126.925 99.587 129.499 98.9053C132.079 98.2184 134.372 98.4994 134.626 99.5246Z" fill="url(#paint22_radial_1848_272)"/>
<path opacity="0.25" d="M139.927 94.7621C140.084 95.4022 138.914 96.2661 137.304 96.6928C135.7 97.1195 134.269 96.9478 134.112 96.3077C133.955 95.6676 135.125 94.8038 136.735 94.377C138.345 93.9503 139.77 94.1221 139.927 94.7621Z" fill="url(#paint23_radial_1848_272)"/>
<path opacity="0.25" d="M124.091 69.0607C124.248 69.7008 123.077 70.5646 121.468 70.9913C119.864 71.4181 118.433 71.2463 118.276 70.6063C118.118 69.9662 119.289 69.1023 120.899 68.6756C122.503 68.2489 123.934 68.4206 124.091 69.0607Z" fill="url(#paint24_radial_1848_272)"/>
<path opacity="0.25" d="M103.767 94.7621C103.924 95.4022 102.753 96.2661 101.144 96.6928C99.5339 97.1195 98.1086 96.9478 97.9514 96.3077C97.7942 95.6676 98.9649 94.8038 100.575 94.377C102.179 93.9503 103.61 94.1221 103.767 94.7621Z" fill="url(#paint25_radial_1848_272)"/>
<path opacity="0.25" d="M159.628 77.3396C160.127 78.9892 157.179 81.4142 153.043 82.762C148.908 84.1098 145.147 83.8652 144.648 82.2156C144.15 80.566 147.098 78.141 151.233 76.7932C155.368 75.4454 159.13 75.69 159.628 77.3396Z" fill="url(#paint26_radial_1848_272)"/>
<path opacity="0.25" d="M165.93 70.8246C166.087 71.4647 164.917 72.3286 163.307 72.7553C161.703 73.182 160.272 73.0103 160.115 72.3702C159.958 71.7301 161.128 70.8663 162.738 70.4395C164.348 70.0128 165.773 70.1846 165.93 70.8246Z" fill="url(#paint27_radial_1848_272)"/>
<path opacity="0.25" d="M104.889 74.0612C105.046 74.7013 103.875 75.5651 102.266 75.9918C100.661 76.4186 99.2306 76.2468 99.0735 75.6068C98.9163 74.9667 100.087 74.1028 101.697 73.6761C103.301 73.2494 104.732 73.4211 104.889 74.0612Z" fill="url(#paint28_radial_1848_272)"/>
</g>
</g>
<g clip-path="url(#clip1_1848_272)">
<path d="M234.685 169.287C235.513 169.287 236.327 169.34 237.132 169.427C237.085 169.033 237.061 168.638 237.061 168.23C237.061 161.325 243.606 155.725 251.666 155.725C257.577 155.725 262.667 158.729 264.966 163.051C267.264 161.981 269.907 161.372 272.714 161.372C276.451 161.372 279.891 162.456 282.636 164.269C285.294 159.699 290.814 156.554 297.186 156.554C297.999 156.554 298.796 156.608 299.578 156.708C298.069 154.741 297.186 152.386 297.186 149.857C297.186 142.952 303.73 137.358 311.799 137.358C311.955 137.358 312.119 137.358 312.275 137.365C312.166 136.756 312.111 136.134 312.111 135.498C312.111 128.594 318.655 123 326.724 123C333.698 123 339.531 127.182 340.977 132.782C343.495 131.016 346.716 129.958 350.227 129.958C355.004 129.958 359.241 131.919 361.907 134.956C362.83 128.808 368.96 124.057 376.387 124.057C384.456 124.057 391 129.651 391 136.556V199.984H241.729C239.556 200.747 216.053 194.029 216.053 185.224C216.053 176.419 224.396 169.28 234.685 169.28V169.287Z" fill="#2F1B8E"/>
<g clip-path="url(#clip2_1848_272)">
<path d="M237.276 140.857C237.746 140.88 238.146 140.518 238.169 140.047C238.193 139.576 237.832 139.175 237.362 139.152C236.892 139.128 236.492 139.491 236.468 139.961C236.444 140.432 236.806 140.833 237.276 140.857Z" fill="#2F1B8E"/>
<path d="M239.259 131.927C239.016 131.915 238.81 132.101 238.798 132.345C238.786 132.588 238.972 132.794 239.215 132.807C239.458 132.819 239.663 132.632 239.676 132.389C239.688 132.145 239.502 131.939 239.259 131.927Z" fill="#2F1B8E"/>
<path d="M243.427 134.677C242.651 134.638 241.988 135.238 241.949 136.016C241.91 136.794 242.509 137.458 243.285 137.497C244.061 137.536 244.724 136.936 244.763 136.158C244.802 135.38 244.203 134.716 243.427 134.677Z" fill="#2F1B8E"/>
<path d="M246.053 133.345C245.786 133.331 245.56 133.536 245.546 133.803C245.533 134.07 245.737 134.297 246.004 134.311C246.27 134.324 246.497 134.119 246.51 133.852C246.524 133.585 246.319 133.358 246.053 133.345Z" fill="#2F1B8E"/>
<path d="M232.13 139.963C231.282 140.732 231.215 142.043 231.982 142.893C232.749 143.743 234.058 143.809 234.906 143.041C235.754 142.272 235.821 140.96 235.054 140.111C234.287 139.261 232.978 139.195 232.13 139.963Z" fill="#2F1B8E"/>
<path d="M215.071 197.892C217.428 196.038 219.005 193.212 219.169 189.975C219.343 186.511 217.86 183.348 215.42 181.256C218.325 180.611 220.562 178.094 220.72 174.971C220.734 174.676 220.725 174.388 220.701 174.104C222.747 173.581 224.304 171.773 224.416 169.55C224.437 169.133 224.399 168.726 224.324 168.332C227.18 168.268 229.546 166.008 229.693 163.106C229.762 161.739 229.323 160.468 228.552 159.465C230.39 159.258 231.865 157.749 231.961 155.836C231.995 155.176 231.858 154.543 231.595 153.987C232.433 153.43 233.002 152.502 233.057 151.422C233.078 150.998 233.016 150.589 232.886 150.208C233.798 150.038 234.506 149.258 234.554 148.292C234.612 147.157 233.741 146.188 232.604 146.13C231.468 146.073 230.525 146.931 230.452 148.05C230.289 148.014 230.121 147.99 229.949 147.981C228.973 147.932 228.077 148.32 227.447 148.965C226.907 148.536 226.237 148.262 225.496 148.225C223.611 148.13 222.005 149.585 221.909 151.474C221.9 151.667 221.91 151.852 221.932 152.038C221.035 151.592 220.031 151.316 218.969 151.263C215.151 151.07 211.86 153.767 211.187 157.435C209.236 157.246 207.213 157.841 205.644 159.266C203.223 161.46 202.628 164.919 203.952 167.73C203.103 167.424 202.197 167.236 201.248 167.188C196.086 166.928 191.688 170.912 191.427 176.085C191.415 176.317 191.415 176.545 191.42 176.774C191.182 176.738 190.939 176.714 190.692 176.702C188.529 176.592 186.532 177.386 185.052 178.744C183.213 176.486 180.468 174.985 177.332 174.827C172.758 174.596 168.711 177.294 167.001 181.28C166.393 180.883 165.674 180.63 164.894 180.591C163.381 180.515 162.016 181.241 161.204 182.397C159.217 181.356 156.982 180.716 154.595 180.595C148.092 180.267 142.302 183.874 139.516 189.329C138.866 189.048 138.156 188.867 137.407 188.829C136.188 188.768 135.037 189.072 134.057 189.645C133.629 189.024 132.927 188.603 132.12 188.562C130.779 188.495 129.636 189.489 129.491 190.808C126.678 189.469 123.568 188.647 120.264 188.48C115.396 188.235 110.796 189.444 106.869 191.719C106.02 191.109 104.994 190.727 103.873 190.67C102.337 190.593 100.918 191.14 99.8486 192.082L215.071 197.892Z" fill="#2F1B8E"/>
</g>
<path d="M156.307 169.287C155.479 169.287 154.666 169.34 153.86 169.427C153.907 169.033 153.931 168.638 153.931 168.23C153.931 161.325 147.387 155.725 139.326 155.725C133.415 155.725 128.325 158.729 126.026 163.051C123.72 161.981 121.085 161.372 118.278 161.372C114.541 161.372 111.101 162.456 108.357 164.269C105.698 159.699 100.178 156.554 93.8063 156.554C92.9932 156.554 92.1957 156.608 91.4139 156.708C92.9229 154.741 93.8063 152.386 93.8063 149.857C93.8063 142.952 87.2623 137.358 79.2014 137.358C79.0372 137.358 78.8808 137.358 78.7245 137.365C78.8339 136.756 78.8886 136.134 78.8886 135.498C78.8886 128.594 72.3446 123 64.2759 123C57.3018 123 51.4691 127.182 50.0227 132.782C47.5052 131.016 44.284 129.958 40.7813 129.958C36.0042 129.958 31.7587 131.919 29.1004 134.956C28.1778 128.808 22.0481 124.057 14.6127 124.057C6.54404 124.057 -5.13954e-05 129.657 -5.13954e-05 136.562V199.984H149.271C151.444 200.747 174.947 194.029 174.947 185.224C174.947 176.419 166.604 169.28 156.315 169.28L156.307 169.287Z" fill="#2F1B8E"/>
<path d="M17.3369 149.936C21.3877 149.936 25.11 151.132 28.0582 153.124C31.5302 147.704 38.2398 144.034 45.9503 144.034C57.2189 144.034 66.3449 151.874 66.3449 161.553C66.3449 163.558 65.9461 165.477 65.2266 167.268C67.9558 165.724 71.2245 164.822 74.7435 164.822C84.323 164.822 92.0805 171.486 92.0805 179.707C92.0805 180.095 92.057 180.469 92.0258 180.85C94.0746 180.115 96.3268 179.707 98.6884 179.707C103.959 179.707 108.682 181.732 111.857 184.921C113.077 176.652 121.288 170.262 131.251 170.262C140.236 170.262 147.798 175.469 150.089 182.554C152.951 180.77 156.47 179.714 160.279 179.714C169.858 179.714 177.616 186.378 177.616 194.599C177.616 195.288 177.553 195.969 177.451 196.631L195.477 192.287H195.523L213.549 196.631C213.439 195.963 213.384 195.288 213.384 194.599C213.384 186.378 221.15 179.714 230.721 179.714C234.53 179.714 238.049 180.77 240.911 182.554C243.202 175.469 250.764 170.262 259.749 170.262C269.704 170.262 277.923 176.652 279.143 184.921C282.325 181.732 287.041 179.707 292.319 179.707C294.681 179.707 296.933 180.115 298.982 180.85C298.951 180.476 298.927 180.095 298.927 179.707C298.927 171.486 306.693 164.822 316.264 164.822C319.775 164.822 323.044 165.724 325.781 167.268C325.062 165.477 324.663 163.552 324.663 161.553C324.663 151.881 333.797 144.034 345.065 144.034C352.776 144.034 359.485 147.71 362.95 153.124C365.898 151.126 369.62 149.936 373.671 149.936C383.235 149.936 391 156.6 391 164.822V230.861H-2.6226e-06V164.822C-2.6226e-06 156.6 7.76527 149.936 17.3369 149.936Z" fill="#1D0E78"/>
</g>
</g>
<defs>
<radialGradient id="paint0_radial_1848_272" cx="0" cy="0" r="1" gradientUnits="userSpaceOnUse" gradientTransform="translate(181.433 28.7168) scale(272.963 294.856)">
<stop stop-color="#4A289C" stop-opacity="0"/>
<stop offset="0.96" stop-color="#00092B"/>
</radialGradient>
<radialGradient id="paint1_radial_1848_272" cx="0" cy="0" r="1" gradientUnits="userSpaceOnUse" gradientTransform="translate(181.869 39.9421) scale(237.69 256.754)">
<stop stop-color="#4A289C" stop-opacity="0"/>
<stop offset="0.96" stop-color="#00092B"/>
</radialGradient>
<radialGradient id="paint2_radial_1848_272" cx="0" cy="0" r="1" gradientUnits="userSpaceOnUse" gradientTransform="translate(175.805 30.6872) scale(211.328 213.783)">
<stop stop-color="#4A289C"/>
<stop offset="0.96" stop-color="#00092B"/>
</radialGradient>
<radialGradient id="paint3_radial_1848_272" cx="0" cy="0" r="1" gradientUnits="userSpaceOnUse" gradientTransform="translate(183.007 44.3155) scale(136.673 131.231)">
<stop stop-color="#4A289C"/>
<stop offset="0.96" stop-color="#00092B"/>
</radialGradient>
<radialGradient id="paint4_radial_1848_272" cx="0" cy="0" r="1" gradientUnits="userSpaceOnUse" gradientTransform="translate(194.988 54.3725) rotate(8.75299) scale(118.339 121.91)">
<stop stop-color="#4A289C"/>
<stop offset="0.96" stop-color="#00092B"/>
</radialGradient>
<radialGradient id="paint5_radial_1848_272" cx="0" cy="0" r="1" gradientUnits="userSpaceOnUse" gradientTransform="translate(199.788 88.5235) scale(88.0396 91.327)">
<stop stop-color="#4A289C"/>
<stop offset="0.96" stop-color="#00092B"/>
</radialGradient>
<radialGradient id="paint6_radial_1848_272" cx="0" cy="0" r="1" gradientUnits="userSpaceOnUse" gradientTransform="translate(229.72 30.0157) scale(108.763 112.824)">
<stop stop-color="#4A289C"/>
<stop offset="0.96" stop-color="#00092B"/>
</radialGradient>
<radialGradient id="paint7_radial_1848_272" cx="0" cy="0" r="1" gradientUnits="userSpaceOnUse" gradientTransform="translate(229.719 30.0152) scale(108.763 112.824)">
<stop stop-color="#4A289C"/>
<stop offset="0.96" stop-color="#00092B"/>
</radialGradient>
<radialGradient id="paint8_radial_1848_272" cx="0" cy="0" r="1" gradientUnits="userSpaceOnUse" gradientTransform="translate(229.719 30.0158) scale(108.763 112.824)">
<stop stop-color="#4A289C"/>
<stop offset="0.96" stop-color="#00092B"/>
</radialGradient>
<radialGradient id="paint9_radial_1848_272" cx="0" cy="0" r="1" gradientUnits="userSpaceOnUse" gradientTransform="translate(229.72 30.0158) scale(108.763 112.824)">
<stop stop-color="#4A289C"/>
<stop offset="0.96" stop-color="#00092B"/>
</radialGradient>
<radialGradient id="paint10_radial_1848_272" cx="0" cy="0" r="1" gradientUnits="userSpaceOnUse" gradientTransform="translate(229.72 30.0158) scale(108.763 112.824)">
<stop stop-color="#4A289C"/>
<stop offset="0.96" stop-color="#00092B"/>
</radialGradient>
<radialGradient id="paint11_radial_1848_272" cx="0" cy="0" r="1" gradientUnits="userSpaceOnUse" gradientTransform="translate(229.72 30.0151) scale(108.763 112.824)">
<stop stop-color="#4A289C"/>
<stop offset="0.96" stop-color="#00092B"/>
</radialGradient>
<radialGradient id="paint12_radial_1848_272" cx="0" cy="0" r="1" gradientUnits="userSpaceOnUse" gradientTransform="translate(86.4852 84.5882) scale(33.1848 34.4239)">
<stop stop-color="#4A289C"/>
<stop offset="0.96" stop-color="#00092B"/>
</radialGradient>
<radialGradient id="paint13_radial_1848_272" cx="0" cy="0" r="1" gradientUnits="userSpaceOnUse" gradientTransform="translate(256.65 54.1186) rotate(26.0891) scale(33.5043 34.4178)">
<stop stop-color="#4A289C"/>
<stop offset="0.96" stop-color="#00092B"/>
</radialGradient>
<radialGradient id="paint14_radial_1848_272" cx="0" cy="0" r="1" gradientUnits="userSpaceOnUse" gradientTransform="translate(361.656 103.659) rotate(49.8166) scale(34.1295 33.8069)">
<stop stop-color="#4A289C"/>
<stop offset="0.96" stop-color="#00092B"/>
</radialGradient>
<radialGradient id="paint15_radial_1848_272" cx="0" cy="0" r="1" gradientUnits="userSpaceOnUse" gradientTransform="translate(267.936 66.9622) rotate(26.0891) scale(14.2241 14.612)">
<stop stop-color="#4A289C"/>
<stop offset="0.96" stop-color="#00092B"/>
</radialGradient>
<radialGradient id="paint16_radial_1848_272" cx="0" cy="0" r="1" gradientUnits="userSpaceOnUse" gradientTransform="translate(284.858 91.3152) rotate(26.0891) scale(14.2241 14.612)">
<stop stop-color="#4A289C"/>
<stop offset="0.96" stop-color="#00092B"/>
</radialGradient>
<radialGradient id="paint17_radial_1848_272" cx="0" cy="0" r="1" gradientUnits="userSpaceOnUse" gradientTransform="translate(303.352 75.444) rotate(26.0891) scale(14.2241 14.612)">
<stop stop-color="#4A289C"/>
<stop offset="0.96" stop-color="#00092B"/>
</radialGradient>
<radialGradient id="paint18_radial_1848_272" cx="0" cy="0" r="1" gradientUnits="userSpaceOnUse" gradientTransform="translate(324.873 107.229) rotate(40.1788) scale(14.3412 14.5012)">
<stop stop-color="#4A289C"/>
<stop offset="0.96" stop-color="#00092B"/>
</radialGradient>
<radialGradient id="paint19_radial_1848_272" cx="0" cy="0" r="1" gradientUnits="userSpaceOnUse" gradientTransform="translate(318.974 79.7632) rotate(33.5198) scale(22.9164 23.357)">
<stop stop-color="#4A289C"/>
<stop offset="0.96" stop-color="#00092B"/>
</radialGradient>
<radialGradient id="paint20_radial_1848_272" cx="0" cy="0" r="1" gradientUnits="userSpaceOnUse" gradientTransform="translate(258.598 84.208) rotate(27.388) scale(22.8051 23.2669)">
<stop stop-color="#4A289C"/>
<stop offset="0.96" stop-color="#00092B"/>
</radialGradient>
<radialGradient id="paint21_radial_1848_272" cx="0" cy="0" r="1" gradientUnits="userSpaceOnUse" gradientTransform="translate(130.201 69.3792) rotate(3.17848) scale(20.3623 21.1281)">
<stop stop-color="#4A289C"/>
<stop offset="0.96" stop-color="#00092B"/>
</radialGradient>
<radialGradient id="paint22_radial_1848_272" cx="0" cy="0" r="1" gradientUnits="userSpaceOnUse" gradientTransform="translate(127.388 88.8334) rotate(3.17848) scale(20.3623 21.1281)">
<stop stop-color="#4A289C"/>
<stop offset="0.96" stop-color="#00092B"/>
</radialGradient>
<radialGradient id="paint23_radial_1848_272" cx="0" cy="0" r="1" gradientUnits="userSpaceOnUse" gradientTransform="translate(134.843 88.0165) rotate(3.17848) scale(12.6847 13.1618)">
<stop stop-color="#4A289C"/>
<stop offset="0.96" stop-color="#00092B"/>
</radialGradient>
<radialGradient id="paint24_radial_1848_272" cx="0" cy="0" r="1" gradientUnits="userSpaceOnUse" gradientTransform="translate(119.29 62.3786) rotate(3.17848) scale(12.6847 13.1618)">
<stop stop-color="#4A289C"/>
<stop offset="0.96" stop-color="#00092B"/>
</radialGradient>
<radialGradient id="paint25_radial_1848_272" cx="0" cy="0" r="1" gradientUnits="userSpaceOnUse" gradientTransform="translate(98.8174 88.0217) rotate(3.17848) scale(12.6847 13.1618)">
<stop stop-color="#4A289C"/>
<stop offset="0.96" stop-color="#00092B"/>
</radialGradient>
<radialGradient id="paint26_radial_1848_272" cx="0" cy="0" r="1" gradientUnits="userSpaceOnUse" gradientTransform="translate(148.406 60.7051) scale(33.1848 34.4239)">
<stop stop-color="#4A289C"/>
<stop offset="0.96" stop-color="#00092B"/>
</radialGradient>
<radialGradient id="paint27_radial_1848_272" cx="0" cy="0" r="1" gradientUnits="userSpaceOnUse" gradientTransform="translate(160.954 64.1371) rotate(3.17848) scale(12.6847 13.1618)">
<stop stop-color="#4A289C"/>
<stop offset="0.96" stop-color="#00092B"/>
</radialGradient>
<radialGradient id="paint28_radial_1848_272" cx="0" cy="0" r="1" gradientUnits="userSpaceOnUse" gradientTransform="translate(100.11 67.3681) rotate(3.17847) scale(12.6847 13.1618)">
<stop stop-color="#4A289C"/>
<stop offset="0.96" stop-color="#00092B"/>
</radialGradient>
<clipPath id="clip0_1848_272">
<rect width="390" height="202" fill="white"/>
</clipPath>
<clipPath id="clip1_1848_272">
<rect width="391" height="79" fill="white" transform="matrix(-1 0 0 1 391 123)"/>
</clipPath>
<clipPath id="clip2_1848_272">
<rect width="143.548" height="67.0998" fill="white" transform="matrix(0.998731 0.0503636 -0.0504042 0.998729 103.223 125.067)"/>
</clipPath>
</defs>
</svg>
