<svg width="1600" height="556" viewBox="0 0 1600 556" fill="none" xmlns="http://www.w3.org/2000/svg">
<g clip-path="url(#clip0_114_36094)">
<mask id="mask0_114_36094" style="mask-type:alpha" maskUnits="userSpaceOnUse" x="0" y="-142" width="1600" height="608">
<rect y="-142" width="1600" height="608" fill="#D9D9D9"/>
</mask>
<g mask="url(#mask0_114_36094)">
<g opacity="0.3">
<path style="mix-blend-mode:screen" d="M1828 372.466C1639.69 150.51 1274.51 0 854.842 0C403.391 0 14.9887 174.179 -158 424.096V577H1828V372.466Z" fill="url(#paint0_radial_114_36094)"/>
<path style="mix-blend-mode:screen" d="M1699.69 361.626C1535.71 168.354 1217.71 37.2886 852.285 37.2886C459.173 37.2886 120.97 188.96 -29.6694 406.587V539.729H1699.69V361.626Z" fill="url(#paint1_radial_114_36094)"/>
<path style="mix-blend-mode:screen" d="M1603.8 365.216C1458.01 204.182 1175.28 94.9731 850.356 94.9731C500.826 94.9731 200.136 221.34 66.2031 402.681V513.614H1603.8V365.216Z" fill="url(#paint2_radial_114_36094)"/>
<path style="mix-blend-mode:screen" d="M313.507 229.311C306.28 296.621 531.64 305.033 788.769 284.462C1045.9 263.89 1226.48 340.544 1344.92 283.529C1391.83 260.951 1389.58 229.276 1364.9 198.569C1221.52 133.511 1043.38 94.9731 850.356 94.9731C657.332 94.9731 466.379 136.362 320.449 205.731C316.815 213.368 314.379 221.252 313.507 229.311Z" fill="url(#paint3_radial_114_36094)"/>
<path opacity="0.5" d="M1197.29 194.908C1194.93 209.725 1160.06 217.169 1119.38 211.52C1078.72 205.872 1047.66 189.26 1050.02 174.443C1052.37 159.626 1087.25 152.182 1127.93 157.831C1168.58 163.48 1199.64 180.092 1197.29 194.908ZM446.547 174.883C408.161 188.626 381.671 211.133 387.416 225.123C393.14 239.113 428.927 239.324 467.313 225.563C505.698 211.802 532.189 189.313 526.444 175.323C520.72 161.333 484.932 161.122 446.547 174.883ZM576.441 199.097C548.773 208.335 529.489 224.015 533.346 234.098C537.202 244.181 562.739 244.867 590.406 235.611C618.074 226.373 637.358 210.693 633.501 200.61C629.644 190.527 604.108 189.84 576.441 199.097ZM638.576 125.61C617.668 131.769 602.789 142.926 605.367 150.546C607.924 158.165 626.965 159.362 647.873 153.203C668.781 147.044 683.66 135.887 681.082 128.267C678.525 120.648 659.484 119.451 638.576 125.61ZM1309.7 212.805C1289.67 204.499 1270.61 203.69 1267.16 211.01C1263.71 218.313 1277.14 230.965 1297.18 239.271C1317.21 247.577 1336.28 248.387 1339.73 241.066C1343.18 233.746 1329.74 221.111 1309.7 212.805ZM1214.46 244.181C1189.72 241.506 1168.77 246.645 1167.65 255.672C1166.53 264.7 1185.7 274.167 1210.42 276.842C1235.17 279.517 1256.11 274.378 1257.23 265.351C1258.35 256.341 1239.18 246.856 1214.46 244.181Z" fill="url(#paint4_radial_114_36094)"/>
<path style="mix-blend-mode:screen" d="M479.106 224.578C461.527 230.878 444.517 234.239 430.673 234.696C441.919 233.218 454.463 230.191 467.313 225.581C505.698 211.837 532.188 189.33 526.444 175.34C523.338 167.756 511.382 164.219 494.98 164.782C517.309 161.843 534.421 165.028 538.238 174.337C543.962 188.327 517.492 210.834 479.106 224.578ZM610.949 192.621C622.804 192.427 631.39 195.12 633.501 200.628C637.358 210.711 618.054 226.373 590.406 235.629C582.51 238.269 574.796 240.081 567.692 241.102C577.537 240.943 589.635 238.814 602.2 234.626C629.868 225.387 649.152 209.708 645.295 199.625C642.534 192.427 628.711 190.052 610.949 192.621ZM1127.93 157.831C1168.58 163.48 1199.64 180.092 1197.29 194.909C1195.91 203.637 1183.22 209.814 1164.71 212.242C1189.47 211.169 1207.42 204.394 1209.08 193.906C1211.44 179.089 1180.38 162.477 1139.72 156.828C1123.01 154.505 1107.3 154.399 1094.39 156.089C1104.62 155.649 1116.03 156.177 1127.93 157.831ZM1321.5 211.802C1306.21 205.467 1291.54 203.514 1283.88 206.171C1291.31 206.734 1300.39 208.951 1309.7 212.805C1329.74 221.111 1343.2 233.764 1339.73 241.067C1338.89 242.809 1337.17 244.076 1334.79 244.903C1343.34 245.536 1349.67 243.988 1351.52 240.063C1354.97 232.761 1341.53 220.108 1321.5 211.802ZM1226.25 243.178C1216.27 242.105 1206.93 242.316 1199.24 243.513C1204.05 243.407 1209.16 243.601 1214.46 244.164C1239.21 246.838 1258.35 256.306 1257.23 265.333C1256.56 270.718 1248.81 274.695 1237.44 276.472C1255.02 276.085 1268.15 271.404 1269.02 264.33C1270.14 255.32 1250.98 245.835 1226.25 243.161V243.178ZM663.341 121.686C672.8 121.686 679.621 123.938 681.082 128.267C683.64 135.887 668.781 147.061 647.873 153.203C643.407 154.523 639.043 155.473 634.902 156.124C642.047 156.124 650.674 154.839 659.667 152.2C680.575 146.041 695.454 134.884 692.876 127.264C690.866 121.264 678.646 119.275 663.341 121.686Z" fill="url(#paint5_radial_114_36094)"/>
<path opacity="0.5" d="M1248.4 273.674C1240.75 270.12 1230.31 267.322 1218.6 266.055C1203.17 264.383 1189.23 265.756 1180.64 269.222C1188.3 272.777 1198.73 275.575 1210.44 276.842C1225.87 278.514 1239.81 277.141 1248.4 273.674Z" fill="url(#paint6_radial_114_36094)"/>
<path opacity="0.5" d="M1193.41 201.772C1181.86 192.076 1159.08 183.471 1132.05 179.705C1098.25 175.006 1068.49 179.353 1058.02 189.454C1069.57 199.15 1092.34 207.755 1119.38 211.521C1153.18 216.219 1182.94 211.873 1193.41 201.772Z" fill="url(#paint7_radial_114_36094)"/>
<path opacity="0.5" d="M1277.92 228.572C1283.03 232.409 1289.63 236.139 1297.18 239.272C1311.39 245.167 1325.09 247.261 1333.09 245.378C1327.97 241.542 1321.38 237.811 1313.82 234.679C1299.62 228.783 1285.91 226.689 1277.92 228.572Z" fill="url(#paint8_radial_114_36094)"/>
<path opacity="0.5" d="M394.825 232.145C408.405 238.568 437.026 236.421 467.313 225.563C493.884 216.043 514.731 202.352 523.155 190.175C509.575 183.752 480.954 185.899 450.667 196.756C424.096 206.276 403.249 219.967 394.825 232.145Z" fill="url(#paint9_radial_114_36094)"/>
<path opacity="0.5" d="M642.697 147.484C634.049 150.018 626.478 153.432 620.713 157.074C628.264 157.409 637.845 156.159 647.873 153.203C656.52 150.669 664.092 147.255 669.857 143.612C662.306 143.278 652.725 144.527 642.697 147.484Z" fill="url(#paint10_radial_114_36094)"/>
<path opacity="0.5" d="M543.962 241.049C554.741 243.478 572.076 241.735 590.406 235.611C606.341 230.279 619.454 222.836 627.026 215.533C616.247 213.104 598.912 214.847 580.581 220.97C564.647 226.302 551.533 233.746 543.962 241.049Z" fill="url(#paint11_radial_114_36094)"/>
<path opacity="0.25" d="M503.851 241.031C505.719 246.609 494.676 254.81 479.188 259.368C463.7 263.925 449.612 263.098 447.745 257.52C445.877 251.941 456.92 243.741 472.408 239.183C487.896 234.626 501.984 235.453 503.851 241.031Z" fill="url(#paint12_radial_114_36094)"/>
<path opacity="0.25" d="M1083.33 137.77C1082.48 143.559 1068.73 146.568 1052.66 144.492C1036.56 142.415 1024.22 136.045 1025.07 130.256C1025.92 124.466 1039.67 121.457 1055.74 123.533C1071.84 125.61 1084.18 131.98 1083.33 137.77Z" fill="url(#paint13_radial_114_36094)"/>
<path opacity="0.25" d="M1420.33 255.215C1417.09 260.195 1403.2 257.837 1389.34 249.936C1375.47 242.034 1366.87 231.581 1370.11 226.584C1373.36 221.604 1387.25 223.962 1401.11 231.863C1414.97 239.764 1423.58 250.217 1420.33 255.215Z" fill="url(#paint14_radial_114_36094)"/>
<path opacity="0.25" d="M1121.65 143.859C1121.29 146.322 1115.46 147.589 1108.62 146.709C1101.8 145.83 1096.54 143.12 1096.91 140.673C1097.27 138.21 1103.1 136.943 1109.94 137.823C1116.76 138.703 1122.02 141.413 1121.65 143.859Z" fill="url(#paint15_radial_114_36094)"/>
<path opacity="0.25" d="M1188.13 227.341C1187.77 229.804 1181.94 231.071 1175.1 230.191C1168.28 229.311 1163.02 226.601 1163.39 224.155C1163.75 221.692 1169.58 220.425 1176.42 221.305C1183.26 222.185 1188.5 224.894 1188.13 227.341Z" fill="url(#paint16_radial_114_36094)"/>
<path opacity="0.25" d="M1252.77 171.962C1252.4 174.425 1246.57 175.692 1239.73 174.812C1232.89 173.933 1227.66 171.223 1228.02 168.777C1228.39 166.313 1234.21 165.046 1241.05 165.926C1247.87 166.806 1253.13 169.516 1252.77 171.962Z" fill="url(#paint17_radial_114_36094)"/>
<path opacity="0.25" d="M1307.17 258.312C1306.19 260.617 1300.2 260.547 1293.79 258.154C1287.37 255.76 1282.99 251.959 1283.96 249.654C1284.94 247.349 1290.93 247.419 1297.34 249.812C1303.74 252.206 1308.14 256.007 1307.17 258.312Z" fill="url(#paint18_radial_114_36094)"/>
<path opacity="0.25" d="M1292.92 192.058C1291.8 195.894 1282.24 196.826 1271.56 194.116C1260.88 191.406 1253.13 186.11 1254.25 182.273C1255.36 178.437 1264.92 177.505 1275.6 180.215C1286.28 182.925 1294.03 188.221 1292.92 192.058Z" fill="url(#paint19_radial_114_36094)"/>
<path opacity="0.25" d="M1093.24 218.052C1094.05 214.139 1085.85 209.599 1074.93 207.911C1064.02 206.224 1054.52 208.029 1053.71 211.942C1052.91 215.855 1061.1 220.395 1072.02 222.082C1082.94 223.77 1092.44 221.965 1093.24 218.052Z" fill="url(#paint20_radial_114_36094)"/>
<path opacity="0.25" d="M652.989 169.164C653.943 172.631 646.879 177.329 637.237 179.634C627.574 181.957 618.988 181.007 618.034 177.54C617.08 174.074 624.144 169.375 633.786 167.07C643.448 164.747 652.035 165.697 652.989 169.164Z" fill="url(#paint21_radial_114_36094)"/>
<path opacity="0.25" d="M643.042 235.101C643.996 238.568 636.932 243.266 627.29 245.571C617.627 247.894 609.041 246.944 608.087 243.477C607.133 240.011 614.197 235.312 623.839 233.007C633.501 230.684 642.088 231.634 643.042 235.101Z" fill="url(#paint22_radial_114_36094)"/>
<path opacity="0.25" d="M662.894 218.999C663.483 221.164 659.098 224.085 653.07 225.528C647.061 226.971 641.702 226.39 641.114 224.226C640.525 222.061 644.909 219.14 650.938 217.697C656.967 216.254 662.306 216.835 662.894 218.999Z" fill="url(#paint23_radial_114_36094)"/>
<path opacity="0.25" d="M603.58 132.086C604.169 134.25 599.784 137.171 593.756 138.614C587.747 140.057 582.388 139.477 581.8 137.312C581.211 135.148 585.595 132.227 591.624 130.784C597.633 129.341 602.992 129.921 603.58 132.086Z" fill="url(#paint24_radial_114_36094)"/>
<path opacity="0.25" d="M527.459 218.999C528.048 221.164 523.663 224.085 517.634 225.528C511.605 226.971 506.267 226.39 505.678 224.226C505.089 222.061 509.474 219.14 515.503 217.697C521.511 216.254 526.87 216.835 527.459 218.999Z" fill="url(#paint25_radial_114_36094)"/>
<path opacity="0.25" d="M736.681 160.083C738.549 165.662 727.506 173.862 712.018 178.42C696.53 182.978 682.442 182.15 680.575 176.572C678.707 170.994 689.75 162.793 705.238 158.236C720.726 153.678 734.814 154.505 736.681 160.083Z" fill="url(#paint26_radial_114_36094)"/>
<path opacity="0.25" d="M760.289 138.052C760.878 140.216 756.494 143.137 750.465 144.58C744.456 146.023 739.097 145.443 738.509 143.278C737.92 141.114 742.304 138.192 748.333 136.749C754.362 135.306 759.701 135.887 760.289 138.052Z" fill="url(#paint27_radial_114_36094)"/>
<path opacity="0.25" d="M531.661 148.997C532.25 151.161 527.865 154.083 521.836 155.526C515.828 156.969 510.469 156.388 509.88 154.223C509.291 152.059 513.676 149.138 519.705 147.695C525.713 146.252 531.072 146.832 531.661 148.997Z" fill="url(#paint28_radial_114_36094)"/>
</g>
</g>
<g clip-path="url(#clip1_114_36094)">
<path d="M959.146 430.249C962.533 430.249 965.856 430.468 969.148 430.824C968.956 429.21 968.86 427.595 968.86 425.927C968.86 397.695 995.605 374.798 1028.55 374.798C1052.71 374.798 1073.51 387.081 1082.9 404.753C1092.3 400.376 1103.1 397.887 1114.57 397.887C1129.84 397.887 1143.9 402.319 1155.12 409.732C1165.98 391.048 1188.54 378.191 1214.59 378.191C1217.91 378.191 1221.17 378.409 1224.36 378.82C1218.2 370.777 1214.59 361.148 1214.59 350.807C1214.59 322.576 1241.33 299.706 1274.31 299.706C1274.95 299.706 1275.62 299.706 1276.26 299.733C1275.81 297.244 1275.59 294.7 1275.59 292.101C1275.59 263.87 1302.33 241 1335.31 241C1363.81 241 1387.65 258.098 1393.56 280.995C1403.85 273.773 1417.01 269.45 1431.36 269.45C1450.88 269.45 1468.2 277.466 1479.1 289.885C1482.87 264.745 1507.92 245.322 1538.28 245.322C1571.25 245.322 1598 268.192 1598 296.423V555.759H987.937C979.053 558.877 883 531.412 883 495.411C883 459.411 917.095 430.222 959.146 430.222V430.249Z" fill="#2F1B8E"/>
<path d="M416.767 369.71C419.971 370.807 423.044 372.09 426.043 373.493C426.384 371.903 426.816 370.345 427.357 368.767C436.499 342.057 469.219 329.055 500.388 339.724C523.243 347.547 538.946 365.905 542.111 385.667C552.417 384.568 563.441 385.71 574.295 389.425C588.746 394.372 600.612 403.118 608.823 413.764C625.153 399.605 650.66 394.746 675.299 403.18C678.443 404.256 681.456 405.519 684.346 406.942C681.116 397.335 680.818 387.056 684.167 377.272C693.31 350.562 726.02 337.587 757.219 348.266C757.824 348.473 758.459 348.69 759.055 348.923C759.438 346.423 760.05 343.943 760.891 341.485C770.034 314.775 802.744 301.799 833.944 312.478C860.911 321.709 877.927 345.605 876.104 369.182C888.178 365.681 902.033 365.855 915.607 370.502C934.079 376.824 947.869 390.017 954.156 405.296C965.865 382.731 995.857 372.468 1024.58 382.299C1055.78 392.978 1073.67 423.277 1064.53 449.987L980.547 695.346L403.36 497.779C393.945 497.853 311.963 440.761 323.621 406.701C335.28 372.64 376.99 356.066 416.775 369.684L416.767 369.71Z" fill="#2F1B8E"/>
<path d="M638.822 430.249C635.435 430.249 632.112 430.468 628.82 430.824C629.012 429.21 629.108 427.595 629.108 425.927C629.108 397.695 602.363 374.798 569.418 374.798C545.261 374.798 524.459 387.081 515.065 404.753C505.638 400.376 494.87 397.887 483.398 397.887C468.124 397.887 454.065 402.319 442.849 409.732C431.985 391.048 409.425 378.191 383.383 378.191C380.059 378.191 376.8 378.409 373.605 378.82C379.772 370.777 383.383 361.148 383.383 350.807C383.383 322.576 356.637 299.706 323.693 299.706C323.022 299.706 322.383 299.706 321.744 299.733C322.191 297.244 322.415 294.7 322.415 292.101C322.415 263.87 295.669 241 262.693 241C234.19 241 210.352 258.098 204.441 280.995C194.152 273.773 180.987 269.45 166.671 269.45C147.148 269.45 129.797 277.466 118.932 289.885C115.162 264.745 90.1099 245.322 59.7218 245.322C26.7454 245.322 -2.35256e-05 268.219 -2.35256e-05 296.451V555.759H610.063C618.947 558.877 715 531.412 715 495.411C715 459.411 680.905 430.222 638.854 430.222L638.822 430.249Z" fill="#2F1B8E"/>
<path d="M70.8553 351.131C87.4106 351.131 102.624 356.023 114.672 364.167C128.863 342.003 156.284 327 187.797 327C233.851 327 271.149 359.057 271.149 398.629C271.149 406.827 269.519 414.671 266.578 421.995C277.732 415.682 291.092 411.992 305.474 411.992C344.625 411.992 376.329 439.239 376.329 472.853C376.329 474.438 376.233 475.969 376.105 477.527C384.479 474.52 393.683 472.853 403.335 472.853C424.876 472.853 444.18 481.134 457.156 494.17C462.142 460.364 495.7 434.238 536.417 434.238C573.139 434.238 604.044 455.527 613.408 484.495C625.106 477.199 639.488 472.881 655.052 472.881C694.203 472.881 725.907 500.127 725.907 533.742C725.907 536.557 725.652 539.344 725.236 542.05L798.904 524.286H799.096L872.764 542.05C872.316 539.317 872.092 536.557 872.092 533.742C872.092 500.127 903.829 472.881 942.948 472.881C958.512 472.881 972.894 477.199 984.592 484.495C993.956 455.527 1024.86 434.238 1061.58 434.238C1102.27 434.238 1135.86 460.364 1140.84 494.17C1153.85 481.134 1173.12 472.853 1194.7 472.853C1204.35 472.853 1213.55 474.52 1221.93 477.527C1221.8 475.996 1221.7 474.438 1221.7 472.853C1221.7 439.239 1253.44 411.992 1292.56 411.992C1306.91 411.992 1320.27 415.682 1331.45 421.995C1328.51 414.671 1326.88 406.8 1326.88 398.629C1326.88 359.084 1364.21 327 1410.27 327C1441.78 327 1469.2 342.031 1483.36 364.167C1495.41 355.996 1510.62 351.131 1527.18 351.131C1566.26 351.131 1598 378.378 1598 411.992V682H0V411.992C0 378.378 31.7363 351.131 70.8553 351.131Z" fill="#1D0E78"/>
</g>
</g>
<defs>
<radialGradient id="paint0_radial_114_36094" cx="0" cy="0" r="1" gradientUnits="userSpaceOnUse" gradientTransform="translate(818.35 -4.33916) scale(1022.37 997.083)">
<stop stop-color="#4A289C" stop-opacity="0"/>
<stop offset="0.96" stop-color="#00092B"/>
</radialGradient>
<radialGradient id="paint1_radial_114_36094" cx="0" cy="0" r="1" gradientUnits="userSpaceOnUse" gradientTransform="translate(819.987 33.6203) scale(890.255 868.238)">
<stop stop-color="#4A289C" stop-opacity="0"/>
<stop offset="0.96" stop-color="#00092B"/>
</radialGradient>
<radialGradient id="paint2_radial_114_36094" cx="0" cy="0" r="1" gradientUnits="userSpaceOnUse" gradientTransform="translate(797.275 2.32481) scale(791.517 722.93)">
<stop stop-color="#4A289C"/>
<stop offset="0.96" stop-color="#00092B"/>
</radialGradient>
<radialGradient id="paint3_radial_114_36094" cx="0" cy="0" r="1" gradientUnits="userSpaceOnUse" gradientTransform="translate(824.251 48.4105) scale(511.902 443.77)">
<stop stop-color="#4A289C"/>
<stop offset="0.96" stop-color="#00092B"/>
</radialGradient>
<radialGradient id="paint4_radial_114_36094" cx="0" cy="0" r="1" gradientUnits="userSpaceOnUse" gradientTransform="translate(869.12 82.4159) rotate(7.91402) scale(442.282 413.134)">
<stop stop-color="#4A289C"/>
<stop offset="0.96" stop-color="#00092B"/>
</radialGradient>
<radialGradient id="paint5_radial_114_36094" cx="0" cy="0" r="1" gradientUnits="userSpaceOnUse" gradientTransform="translate(887.101 197.904) scale(329.748 308.831)">
<stop stop-color="#4A289C"/>
<stop offset="0.96" stop-color="#00092B"/>
</radialGradient>
<radialGradient id="paint6_radial_114_36094" cx="0" cy="0" r="1" gradientUnits="userSpaceOnUse" gradientTransform="translate(999.207 0.0511155) scale(407.365 381.525)">
<stop stop-color="#4A289C"/>
<stop offset="0.96" stop-color="#00092B"/>
</radialGradient>
<radialGradient id="paint7_radial_114_36094" cx="0" cy="0" r="1" gradientUnits="userSpaceOnUse" gradientTransform="translate(999.207 0.0514843) scale(407.365 381.525)">
<stop stop-color="#4A289C"/>
<stop offset="0.96" stop-color="#00092B"/>
</radialGradient>
<radialGradient id="paint8_radial_114_36094" cx="0" cy="0" r="1" gradientUnits="userSpaceOnUse" gradientTransform="translate(999.207 0.0511357) scale(407.365 381.525)">
<stop stop-color="#4A289C"/>
<stop offset="0.96" stop-color="#00092B"/>
</radialGradient>
<radialGradient id="paint9_radial_114_36094" cx="0" cy="0" r="1" gradientUnits="userSpaceOnUse" gradientTransform="translate(999.207 0.0512227) scale(407.365 381.525)">
<stop stop-color="#4A289C"/>
<stop offset="0.96" stop-color="#00092B"/>
</radialGradient>
<radialGradient id="paint10_radial_114_36094" cx="0" cy="0" r="1" gradientUnits="userSpaceOnUse" gradientTransform="translate(999.207 0.0512965) scale(407.365 381.525)">
<stop stop-color="#4A289C"/>
<stop offset="0.96" stop-color="#00092B"/>
</radialGradient>
<radialGradient id="paint11_radial_114_36094" cx="0" cy="0" r="1" gradientUnits="userSpaceOnUse" gradientTransform="translate(999.207 0.0515217) scale(407.365 381.524)">
<stop stop-color="#4A289C"/>
<stop offset="0.96" stop-color="#00092B"/>
</radialGradient>
<radialGradient id="paint12_radial_114_36094" cx="0" cy="0" r="1" gradientUnits="userSpaceOnUse" gradientTransform="translate(462.73 184.596) scale(124.292 116.408)">
<stop stop-color="#4A289C"/>
<stop offset="0.96" stop-color="#00092B"/>
</radialGradient>
<radialGradient id="paint13_radial_114_36094" cx="0" cy="0" r="1" gradientUnits="userSpaceOnUse" gradientTransform="translate(1100.07 81.5573) rotate(23.8498) scale(123.225 118.525)">
<stop stop-color="#4A289C"/>
<stop offset="0.96" stop-color="#00092B"/>
</radialGradient>
<radialGradient id="paint14_radial_114_36094" cx="0" cy="0" r="1" gradientUnits="userSpaceOnUse" gradientTransform="translate(1493.37 249.084) rotate(46.9104) scale(120.738 121.037)">
<stop stop-color="#4A289C"/>
<stop offset="0.96" stop-color="#00092B"/>
</radialGradient>
<radialGradient id="paint15_radial_114_36094" cx="0" cy="0" r="1" gradientUnits="userSpaceOnUse" gradientTransform="translate(1142.34 124.993) rotate(23.8498) scale(52.3148 50.3194)">
<stop stop-color="#4A289C"/>
<stop offset="0.96" stop-color="#00092B"/>
</radialGradient>
<radialGradient id="paint16_radial_114_36094" cx="0" cy="0" r="1" gradientUnits="userSpaceOnUse" gradientTransform="translate(1205.73 207.345) rotate(23.8498) scale(52.3148 50.3194)">
<stop stop-color="#4A289C"/>
<stop offset="0.96" stop-color="#00092B"/>
</radialGradient>
<radialGradient id="paint17_radial_114_36094" cx="0" cy="0" r="1" gradientUnits="userSpaceOnUse" gradientTransform="translate(1274.99 153.674) rotate(23.8498) scale(52.3148 50.3194)">
<stop stop-color="#4A289C"/>
<stop offset="0.96" stop-color="#00092B"/>
</radialGradient>
<radialGradient id="paint18_radial_114_36094" cx="0" cy="0" r="1" gradientUnits="userSpaceOnUse" gradientTransform="translate(1355.6 261.158) rotate(37.3219) scale(51.6063 51.04)">
<stop stop-color="#4A289C"/>
<stop offset="0.96" stop-color="#00092B"/>
</radialGradient>
<radialGradient id="paint19_radial_114_36094" cx="0" cy="0" r="1" gradientUnits="userSpaceOnUse" gradientTransform="translate(1333.5 168.279) rotate(30.8809) scale(83.3777 81.309)">
<stop stop-color="#4A289C"/>
<stop offset="0.96" stop-color="#00092B"/>
</radialGradient>
<radialGradient id="paint20_radial_114_36094" cx="0" cy="0" r="1" gradientUnits="userSpaceOnUse" gradientTransform="translate(1107.37 183.312) rotate(25.0681) scale(83.7279 80.2647)">
<stop stop-color="#4A289C"/>
<stop offset="0.96" stop-color="#00092B"/>
</radialGradient>
<radialGradient id="paint21_radial_114_36094" cx="0" cy="0" r="1" gradientUnits="userSpaceOnUse" gradientTransform="translate(626.468 133.166) rotate(2.87025) scale(76.2442 71.467)">
<stop stop-color="#4A289C"/>
<stop offset="0.96" stop-color="#00092B"/>
</radialGradient>
<radialGradient id="paint22_radial_114_36094" cx="0" cy="0" r="1" gradientUnits="userSpaceOnUse" gradientTransform="translate(615.931 198.948) rotate(2.87025) scale(76.2442 71.467)">
<stop stop-color="#4A289C"/>
<stop offset="0.96" stop-color="#00092B"/>
</radialGradient>
<radialGradient id="paint23_radial_114_36094" cx="0" cy="0" r="1" gradientUnits="userSpaceOnUse" gradientTransform="translate(643.852 196.188) rotate(2.87026) scale(47.4963 44.5204)">
<stop stop-color="#4A289C"/>
<stop offset="0.96" stop-color="#00092B"/>
</radialGradient>
<radialGradient id="paint24_radial_114_36094" cx="0" cy="0" r="1" gradientUnits="userSpaceOnUse" gradientTransform="translate(585.599 109.49) rotate(2.87025) scale(47.4963 44.5204)">
<stop stop-color="#4A289C"/>
<stop offset="0.96" stop-color="#00092B"/>
</radialGradient>
<radialGradient id="paint25_radial_114_36094" cx="0" cy="0" r="1" gradientUnits="userSpaceOnUse" gradientTransform="translate(508.921 196.206) rotate(2.87026) scale(47.4963 44.5204)">
<stop stop-color="#4A289C"/>
<stop offset="0.96" stop-color="#00092B"/>
</radialGradient>
<radialGradient id="paint26_radial_114_36094" cx="0" cy="0" r="1" gradientUnits="userSpaceOnUse" gradientTransform="translate(694.649 103.832) scale(124.292 116.408)">
<stop stop-color="#4A289C"/>
<stop offset="0.96" stop-color="#00092B"/>
</radialGradient>
<radialGradient id="paint27_radial_114_36094" cx="0" cy="0" r="1" gradientUnits="userSpaceOnUse" gradientTransform="translate(741.652 115.437) rotate(2.87025) scale(47.4964 44.5204)">
<stop stop-color="#4A289C"/>
<stop offset="0.96" stop-color="#00092B"/>
</radialGradient>
<radialGradient id="paint28_radial_114_36094" cx="0" cy="0" r="1" gradientUnits="userSpaceOnUse" gradientTransform="translate(513.763 126.363) rotate(2.87024) scale(47.4964 44.5204)">
<stop stop-color="#4A289C"/>
<stop offset="0.96" stop-color="#00092B"/>
</radialGradient>
<clipPath id="clip0_114_36094">
<rect width="1600" height="556" fill="white"/>
</clipPath>
<clipPath id="clip1_114_36094">
<rect width="1598" height="323" fill="white" transform="matrix(-1 0 0 1 1598 241)"/>
</clipPath>
</defs>
</svg>
