<svg width="1600" height="667" viewBox="0 0 1600 667" fill="none" xmlns="http://www.w3.org/2000/svg">
<g clip-path="url(#clip0_441_70986)">
<mask id="mask0_441_70986" style="mask-type:alpha" maskUnits="userSpaceOnUse" x="0" y="-142" width="1600" height="609">
<rect y="-141.5" width="1600" height="608" fill="#D9D9D9"/>
</mask>
<g mask="url(#mask0_441_70986)">
<g opacity="0.3">
<path style="mix-blend-mode:screen" d="M1828 430.417C1639.69 174.226 1274.51 0.5 854.842 0.5C403.391 0.5 14.9887 201.545 -158 490.012V666.5H1828V430.417Z" fill="url(#paint0_radial_441_70986)"/>
<path style="mix-blend-mode:screen" d="M1699.69 417.905C1535.71 194.822 1217.71 43.5405 852.285 43.5405C459.173 43.5405 120.97 218.607 -29.6694 469.802V623.48H1699.69V417.905Z" fill="url(#paint1_radial_441_70986)"/>
<path style="mix-blend-mode:screen" d="M1603.8 422.049C1458.01 236.177 1175.28 110.122 850.356 110.122C500.826 110.122 200.136 255.98 66.2031 465.292V593.337H1603.8V422.049Z" fill="url(#paint2_radial_441_70986)"/>
<path style="mix-blend-mode:screen" d="M313.507 265.182C306.28 342.874 531.64 352.583 788.769 328.838C1045.9 305.094 1226.48 393.572 1344.92 327.762C1391.83 301.702 1389.58 265.141 1364.9 229.697C1221.52 154.605 1043.38 110.122 850.356 110.122C657.332 110.122 466.379 157.895 320.449 237.964C316.815 246.779 314.379 255.879 313.507 265.182Z" fill="url(#paint3_radial_441_70986)"/>
<path opacity="0.5" d="M1197.29 225.472C1194.93 242.575 1160.06 251.167 1119.38 244.646C1078.72 238.126 1047.66 218.952 1050.02 201.85C1052.37 184.747 1087.25 176.155 1127.93 182.676C1168.58 189.196 1199.64 208.37 1197.29 225.472ZM446.547 202.358C408.161 218.221 381.671 244.2 387.416 260.347C393.14 276.495 428.927 276.739 467.313 260.855C505.698 244.971 532.189 219.013 526.444 202.865C520.72 186.718 484.932 186.474 446.547 202.358ZM576.441 230.306C548.773 240.97 529.489 259.068 533.346 270.706C537.202 282.345 562.739 283.137 590.406 272.453C618.074 261.79 637.358 243.692 633.501 232.053C629.644 220.415 604.108 219.622 576.441 230.306ZM638.576 145.485C617.668 152.594 602.789 165.472 605.367 174.267C607.924 183.061 626.965 184.443 647.873 177.334C668.781 170.224 683.66 157.347 681.082 148.552C678.525 139.757 659.484 138.376 638.576 145.485ZM1309.7 246.129C1289.67 236.542 1270.61 235.608 1267.16 244.057C1263.71 252.487 1277.14 267.091 1297.18 276.678C1317.21 286.265 1336.28 287.199 1339.73 278.75C1343.18 270.3 1329.74 255.716 1309.7 246.129ZM1214.46 282.345C1189.72 279.258 1168.77 285.189 1167.65 295.608C1166.53 306.028 1185.7 316.956 1210.42 320.043C1235.17 323.131 1256.11 317.2 1257.23 306.78C1258.35 296.38 1239.18 285.432 1214.46 282.345Z" fill="url(#paint4_radial_441_70986)"/>
<path style="mix-blend-mode:screen" d="M479.106 259.718C461.527 266.989 444.517 270.869 430.673 271.397C441.919 269.691 454.463 266.197 467.313 260.876C505.698 245.012 532.188 219.033 526.444 202.886C523.338 194.131 511.382 190.049 494.98 190.699C517.309 187.307 534.421 190.983 538.238 201.728C543.962 217.876 517.492 243.854 479.106 259.718ZM610.949 222.832C622.804 222.608 631.39 225.716 633.501 232.074C637.358 243.712 618.054 261.79 590.406 272.474C582.51 275.52 574.796 277.612 567.692 278.79C577.537 278.608 589.635 276.15 602.2 271.316C629.868 260.652 649.152 242.554 645.295 230.916C642.534 222.608 628.711 219.866 610.949 222.832ZM1127.93 182.676C1168.58 189.196 1199.64 208.37 1197.29 225.472C1195.91 235.547 1183.22 242.676 1164.71 245.479C1189.47 244.24 1207.42 236.42 1209.08 224.315C1211.44 207.212 1180.38 188.038 1139.72 181.518C1123.01 178.837 1107.3 178.715 1094.39 180.665C1104.62 180.157 1116.03 180.766 1127.93 182.676ZM1321.5 244.971C1306.21 237.659 1291.54 235.405 1283.88 238.472C1291.31 239.122 1300.39 241.681 1309.7 246.129C1329.74 255.716 1343.2 270.32 1339.73 278.75C1338.89 280.761 1337.17 282.223 1334.79 283.178C1343.34 283.909 1349.67 282.122 1351.52 277.592C1354.97 269.163 1341.53 254.559 1321.5 244.971ZM1226.25 281.187C1216.27 279.948 1206.93 280.192 1199.24 281.573C1204.05 281.451 1209.16 281.675 1214.46 282.325C1239.21 285.412 1258.35 296.34 1257.23 306.76C1256.56 312.975 1248.81 317.565 1237.44 319.617C1255.02 319.17 1268.15 313.767 1269.02 305.602C1270.14 295.202 1250.98 284.254 1226.25 281.167V281.187ZM663.341 140.955C672.8 140.955 679.621 143.555 681.082 148.552C683.64 157.347 668.781 170.245 647.873 177.334C643.407 178.857 639.043 179.954 634.902 180.705C642.047 180.705 650.674 179.223 659.667 176.176C680.575 169.067 695.454 156.189 692.876 147.394C690.866 140.468 678.646 138.173 663.341 140.955Z" fill="url(#paint5_radial_441_70986)"/>
<path opacity="0.5" d="M1248.4 316.387C1240.75 312.284 1230.31 309.055 1218.6 307.592C1203.17 305.663 1189.23 307.247 1180.64 311.249C1188.3 315.352 1198.73 318.581 1210.44 320.044C1225.87 321.973 1239.81 320.389 1248.4 316.387Z" fill="url(#paint6_radial_441_70986)"/>
<path opacity="0.5" d="M1193.41 233.394C1181.86 222.202 1159.08 212.27 1132.05 207.923C1098.25 202.5 1068.49 207.517 1058.02 219.176C1069.57 230.367 1092.34 240.3 1119.38 244.647C1153.18 250.07 1182.94 245.053 1193.41 233.394Z" fill="url(#paint7_radial_441_70986)"/>
<path opacity="0.5" d="M1277.92 264.329C1283.03 268.756 1289.63 273.063 1297.18 276.678C1311.39 283.482 1325.09 285.9 1333.09 283.726C1327.97 279.298 1321.38 274.992 1313.82 271.377C1299.62 264.572 1285.91 262.155 1277.92 264.329Z" fill="url(#paint8_radial_441_70986)"/>
<path opacity="0.5" d="M394.825 268.452C408.405 275.866 437.026 273.388 467.313 260.855C493.884 249.867 514.731 234.064 523.155 220.008C509.575 212.595 480.954 215.073 450.667 227.605C424.096 238.594 403.249 254.396 394.825 268.452Z" fill="url(#paint9_radial_441_70986)"/>
<path opacity="0.5" d="M642.697 170.732C634.049 173.657 626.478 177.598 620.713 181.802C628.264 182.188 637.845 180.746 647.873 177.334C656.52 174.409 664.092 170.468 669.857 166.264C662.306 165.878 652.725 167.32 642.697 170.732Z" fill="url(#paint10_radial_441_70986)"/>
<path opacity="0.5" d="M543.962 278.73C554.741 281.533 572.076 279.522 590.406 272.453C606.341 266.299 619.454 257.707 627.026 249.278C616.247 246.475 598.912 248.485 580.581 255.554C564.647 261.708 551.533 270.3 543.962 278.73Z" fill="url(#paint11_radial_441_70986)"/>
<path opacity="0.25" d="M503.851 278.709C505.719 285.148 494.676 294.613 479.188 299.874C463.7 305.135 449.612 304.18 447.745 297.741C445.877 291.302 456.92 281.837 472.408 276.576C487.896 271.316 501.984 272.27 503.851 278.709Z" fill="url(#paint12_radial_441_70986)"/>
<path opacity="0.25" d="M1083.33 159.52C1082.48 166.203 1068.73 169.676 1052.66 167.279C1036.56 164.882 1024.22 157.53 1025.07 150.847C1025.92 144.165 1039.67 140.691 1055.74 143.088C1071.84 145.485 1084.18 152.838 1083.33 159.52Z" fill="url(#paint13_radial_441_70986)"/>
<path opacity="0.25" d="M1420.33 295.08C1417.09 300.829 1403.2 298.107 1389.34 288.987C1375.47 279.867 1366.87 267.802 1370.11 262.033C1373.36 256.285 1387.25 259.007 1401.11 268.127C1414.98 277.247 1423.58 289.312 1420.33 295.08Z" fill="url(#paint14_radial_441_70986)"/>
<path opacity="0.25" d="M1121.65 166.548C1121.29 169.392 1115.46 170.854 1108.62 169.839C1101.8 168.823 1096.54 165.695 1096.91 162.872C1097.27 160.028 1103.1 158.566 1109.94 159.581C1116.76 160.597 1122.02 163.725 1121.65 166.548Z" fill="url(#paint15_radial_441_70986)"/>
<path opacity="0.25" d="M1188.13 262.907C1187.77 265.75 1181.94 267.213 1175.1 266.197C1168.28 265.182 1163.02 262.054 1163.39 259.23C1163.75 256.387 1169.58 254.924 1176.42 255.94C1183.26 256.955 1188.5 260.083 1188.13 262.907Z" fill="url(#paint16_radial_441_70986)"/>
<path opacity="0.25" d="M1252.77 198.986C1252.4 201.829 1246.57 203.292 1239.73 202.276C1232.89 201.261 1227.66 198.133 1228.02 195.309C1228.39 192.466 1234.21 191.003 1241.05 192.019C1247.87 193.035 1253.13 196.163 1252.77 198.986Z" fill="url(#paint17_radial_441_70986)"/>
<path opacity="0.25" d="M1307.17 298.655C1306.19 301.316 1300.2 301.235 1293.79 298.472C1287.37 295.71 1282.99 291.323 1283.96 288.662C1284.94 286.001 1290.93 286.082 1297.34 288.845C1303.74 291.607 1308.14 295.994 1307.17 298.655Z" fill="url(#paint18_radial_441_70986)"/>
<path opacity="0.25" d="M1292.92 222.182C1291.8 226.61 1282.24 227.686 1271.56 224.558C1260.88 221.43 1253.13 215.316 1254.25 210.888C1255.36 206.461 1264.92 205.384 1275.6 208.512C1286.28 211.64 1294.03 217.754 1292.92 222.182Z" fill="url(#paint19_radial_441_70986)"/>
<path opacity="0.25" d="M1093.24 252.186C1094.05 247.669 1085.85 242.428 1074.93 240.481C1064.02 238.533 1054.52 240.616 1053.71 245.133C1052.91 249.65 1061.1 254.89 1072.02 256.838C1082.94 258.785 1092.44 256.702 1093.24 252.186Z" fill="url(#paint20_radial_441_70986)"/>
<path opacity="0.25" d="M652.989 195.756C653.943 199.758 646.879 205.181 637.237 207.842C627.574 210.523 618.988 209.426 618.034 205.425C617.08 201.423 624.144 196 633.786 193.339C643.448 190.658 652.035 191.755 652.989 195.756Z" fill="url(#paint21_radial_441_70986)"/>
<path opacity="0.25" d="M643.042 271.864C643.996 275.866 636.932 281.289 627.29 283.95C617.627 286.631 609.041 285.534 608.087 281.533C607.133 277.531 614.197 272.108 623.839 269.447C633.501 266.766 642.088 267.863 643.042 271.864Z" fill="url(#paint22_radial_441_70986)"/>
<path opacity="0.25" d="M662.894 253.279C663.483 255.777 659.098 259.149 653.07 260.815C647.061 262.48 641.702 261.81 641.114 259.312C640.525 256.813 644.909 253.441 650.938 251.776C656.967 250.11 662.306 250.781 662.894 253.279Z" fill="url(#paint23_radial_441_70986)"/>
<path opacity="0.25" d="M603.58 152.96C604.169 155.458 599.784 158.83 593.756 160.495C587.747 162.161 582.388 161.49 581.8 158.992C581.211 156.494 585.595 153.122 591.624 151.456C597.633 149.791 602.992 150.461 603.58 152.96Z" fill="url(#paint24_radial_441_70986)"/>
<path opacity="0.25" d="M527.459 253.279C528.048 255.777 523.663 259.149 517.634 260.815C511.605 262.48 506.267 261.81 505.678 259.312C505.089 256.813 509.474 253.441 515.503 251.776C521.511 250.11 526.87 250.781 527.459 253.279Z" fill="url(#paint25_radial_441_70986)"/>
<path opacity="0.25" d="M736.681 185.275C738.549 191.714 727.506 201.179 712.018 206.44C696.53 211.701 682.442 210.746 680.575 204.307C678.707 197.869 689.75 188.403 705.238 183.143C720.726 177.882 734.814 178.837 736.681 185.275Z" fill="url(#paint26_radial_441_70986)"/>
<path opacity="0.25" d="M760.289 159.845C760.878 162.344 756.494 165.715 750.465 167.381C744.456 169.046 739.097 168.376 738.509 165.878C737.92 163.379 742.304 160.008 748.333 158.342C754.362 156.677 759.701 157.347 760.289 159.845Z" fill="url(#paint27_radial_441_70986)"/>
<path opacity="0.25" d="M531.661 172.479C532.25 174.977 527.865 178.349 521.836 180.015C515.828 181.68 510.469 181.01 509.88 178.512C509.291 176.013 513.676 172.642 519.705 170.976C525.713 169.31 531.072 169.981 531.661 172.479Z" fill="url(#paint28_radial_441_70986)"/>
</g>
</g>
<g clip-path="url(#clip1_441_70986)">
<path d="M959.146 430.749C962.533 430.749 965.856 430.968 969.148 431.324C968.956 429.71 968.86 428.096 968.86 426.427C968.86 398.195 995.605 375.298 1028.55 375.298C1052.71 375.298 1073.51 387.581 1082.9 405.253C1092.3 400.876 1103.1 398.387 1114.57 398.387C1129.84 398.387 1143.9 402.819 1155.12 410.232C1165.98 391.548 1188.54 378.691 1214.59 378.691C1217.91 378.691 1221.17 378.909 1224.36 379.32C1218.2 371.277 1214.59 361.648 1214.59 351.307C1214.59 323.076 1241.33 300.206 1274.31 300.206C1274.95 300.206 1275.62 300.206 1276.26 300.233C1275.81 297.744 1275.59 295.2 1275.59 292.601C1275.59 264.37 1302.33 241.5 1335.31 241.5C1363.81 241.5 1387.65 258.598 1393.56 281.495C1403.85 274.273 1417.01 269.95 1431.36 269.95C1450.88 269.95 1468.2 277.966 1479.1 290.385C1482.87 265.245 1507.92 245.822 1538.28 245.822C1571.25 245.822 1598 268.692 1598 296.923V556.259H987.937C979.053 559.377 883 531.912 883 495.911C883 459.911 917.095 430.722 959.146 430.722V430.749Z" fill="#2F1B8E"/>
<g clip-path="url(#clip2_441_70986)">
<path d="M969.736 314.509C971.656 314.606 973.291 313.124 973.388 311.199C973.486 309.275 972.008 307.636 970.088 307.539C968.168 307.442 966.533 308.924 966.436 310.849C966.339 312.773 967.817 314.412 969.736 314.509Z" fill="#2F1B8E"/>
<path d="M977.842 277.999C976.849 277.949 976.007 278.711 975.957 279.707C975.907 280.702 976.667 281.546 977.66 281.596C978.653 281.646 979.495 280.883 979.545 279.888C979.595 278.892 978.835 278.049 977.842 277.999Z" fill="#2F1B8E"/>
<path d="M994.876 289.243C991.705 289.083 988.995 291.539 988.835 294.719C988.674 297.898 991.123 300.614 994.295 300.774C997.467 300.934 1000.18 298.479 1000.34 295.299C1000.5 292.119 998.048 289.403 994.876 289.243Z" fill="#2F1B8E"/>
<path d="M1005.61 283.795C1004.52 283.74 1003.59 284.579 1003.54 285.671C1003.48 286.763 1004.32 287.69 1005.41 287.745C1006.5 287.8 1007.42 286.961 1007.48 285.869C1007.53 284.778 1006.7 283.85 1005.61 283.795Z" fill="#2F1B8E"/>
<path d="M948.705 310.856C945.238 313.998 944.968 319.361 948.101 322.836C951.234 326.311 956.585 326.581 960.051 323.439C963.518 320.297 963.789 314.933 960.656 311.459C957.523 307.984 952.172 307.714 948.705 310.856Z" fill="#2F1B8E"/>
<path d="M878.988 547.705C888.621 540.125 895.066 528.568 895.734 515.335C896.448 501.17 890.387 488.241 880.412 479.688C892.285 477.05 901.429 466.756 902.073 453.989C902.133 452.784 902.096 451.607 901.995 450.443C910.357 448.305 916.721 440.913 917.179 431.824C917.265 430.121 917.108 428.455 916.804 426.846C928.477 426.581 938.146 417.344 938.745 405.476C939.026 399.887 937.233 394.693 934.083 390.589C941.594 389.744 947.622 383.576 948.017 375.755C948.153 373.057 947.593 370.469 946.52 368.193C949.943 365.918 952.27 362.123 952.493 357.706C952.58 355.972 952.327 354.301 951.796 352.744C955.525 352.047 958.416 348.86 958.615 344.909C958.849 340.268 955.291 336.305 950.645 336.071C946 335.836 942.145 339.345 941.85 343.919C941.183 343.772 940.497 343.673 939.792 343.638C935.803 343.437 932.142 345.023 929.568 347.662C927.36 345.909 924.622 344.788 921.594 344.636C913.888 344.247 907.325 350.195 906.935 357.92C906.895 358.707 906.937 359.466 907.028 360.227C903.362 358.4 899.259 357.275 894.917 357.056C879.314 356.269 865.862 367.295 863.114 382.291C855.139 381.519 846.873 383.952 840.46 389.779C830.565 398.746 828.133 412.889 833.543 424.384C830.073 423.13 826.37 422.364 822.493 422.168C801.395 421.104 783.421 437.393 782.354 458.543C782.306 459.491 782.307 460.425 782.325 461.36C781.352 461.214 780.361 461.116 779.352 461.065C770.509 460.619 762.348 463.862 756.302 469.417C748.786 460.183 737.564 454.046 724.748 453.399C706.054 452.456 689.517 463.488 682.528 479.784C680.04 478.161 677.105 477.127 673.917 476.966C667.734 476.654 662.155 479.625 658.833 484.352C650.713 480.095 641.578 477.476 631.822 476.984C605.246 475.643 581.584 490.389 570.196 512.694C567.54 511.546 564.638 510.804 561.579 510.649C556.596 510.398 551.892 511.642 547.888 513.984C546.136 511.448 543.268 509.725 539.968 509.559C534.49 509.283 529.82 513.346 529.226 518.742C517.73 513.267 505.02 509.905 491.515 509.224C471.619 508.22 452.82 513.165 436.772 522.466C433.3 519.973 429.107 518.409 424.526 518.177C418.246 517.861 412.448 520.096 408.078 523.949L878.988 547.705Z" fill="#2F1B8E"/>
</g>
<path d="M638.822 430.749C635.435 430.749 632.112 430.968 628.82 431.324C629.012 429.71 629.108 428.096 629.108 426.427C629.108 398.195 602.363 375.298 569.418 375.298C545.261 375.298 524.459 387.581 515.065 405.253C505.638 400.876 494.87 398.387 483.398 398.387C468.124 398.387 454.065 402.819 442.849 410.232C431.984 391.548 409.425 378.691 383.383 378.691C380.059 378.691 376.8 378.909 373.605 379.32C379.772 371.277 383.383 361.648 383.383 351.307C383.383 323.076 356.637 300.206 323.693 300.206C323.022 300.206 322.383 300.206 321.744 300.233C322.191 297.744 322.415 295.2 322.415 292.601C322.415 264.37 295.669 241.5 262.693 241.5C234.19 241.5 210.352 258.598 204.441 281.495C194.152 274.273 180.987 269.95 166.671 269.95C147.148 269.95 129.797 277.966 118.932 290.385C115.162 265.245 90.1099 245.822 59.7218 245.822C26.7454 245.822 0 268.719 0 296.951V556.259H610.063C618.947 559.377 715 531.912 715 495.911C715 459.911 680.905 430.722 638.854 430.722L638.822 430.749Z" fill="#2F1B8E"/>
<path d="M70.8553 351.631C87.4106 351.631 102.624 356.523 114.672 364.667C128.863 342.503 156.284 327.5 187.797 327.5C233.851 327.5 271.149 359.557 271.149 399.129C271.149 407.327 269.519 415.171 266.578 422.495C277.732 416.182 291.092 412.492 305.474 412.492C344.625 412.492 376.329 439.739 376.329 473.353C376.329 474.938 376.233 476.469 376.105 478.027C384.479 475.02 393.683 473.353 403.335 473.353C424.876 473.353 444.18 481.634 457.156 494.67C462.142 460.864 495.7 434.738 536.417 434.738C573.139 434.738 604.044 456.027 613.408 484.995C625.106 477.699 639.488 473.381 655.052 473.381C694.203 473.381 725.907 500.627 725.907 534.242C725.907 537.057 725.652 539.844 725.236 542.55L798.904 524.786H799.096L872.764 542.55C872.316 539.817 872.092 537.057 872.092 534.242C872.092 500.627 903.829 473.381 942.948 473.381C958.512 473.381 972.894 477.699 984.592 484.995C993.956 456.027 1024.86 434.738 1061.58 434.738C1102.27 434.738 1135.86 460.864 1140.84 494.67C1153.85 481.634 1173.12 473.353 1194.7 473.353C1204.35 473.353 1213.55 475.02 1221.93 478.027C1221.8 476.496 1221.7 474.938 1221.7 473.353C1221.7 439.739 1253.44 412.492 1292.56 412.492C1306.91 412.492 1320.27 416.182 1331.45 422.495C1328.51 415.171 1326.88 407.3 1326.88 399.129C1326.88 359.584 1364.21 327.5 1410.27 327.5C1441.78 327.5 1469.2 342.531 1483.36 364.667C1495.41 356.496 1510.62 351.631 1527.18 351.631C1566.26 351.631 1598 378.878 1598 412.492V682.5H0V412.492C0 378.878 31.7363 351.631 70.8553 351.631Z" fill="#1D0E78"/>
</g>
</g>
<defs>
<radialGradient id="paint0_radial_441_70986" cx="0" cy="0" r="1" gradientUnits="userSpaceOnUse" gradientTransform="translate(818.35 -4.50846) scale(1022.37 1150.88)">
<stop stop-color="#4A289C" stop-opacity="0"/>
<stop offset="0.96" stop-color="#00092B"/>
</radialGradient>
<radialGradient id="paint1_radial_441_70986" cx="0" cy="0" r="1" gradientUnits="userSpaceOnUse" gradientTransform="translate(819.987 39.3063) scale(890.255 1002.16)">
<stop stop-color="#4A289C" stop-opacity="0"/>
<stop offset="0.96" stop-color="#00092B"/>
</radialGradient>
<radialGradient id="paint2_radial_441_70986" cx="0" cy="0" r="1" gradientUnits="userSpaceOnUse" gradientTransform="translate(797.275 3.18321) scale(791.517 834.439)">
<stop stop-color="#4A289C"/>
<stop offset="0.96" stop-color="#00092B"/>
</radialGradient>
<radialGradient id="paint3_radial_441_70986" cx="0" cy="0" r="1" gradientUnits="userSpaceOnUse" gradientTransform="translate(824.251 56.3775) scale(511.902 512.22)">
<stop stop-color="#4A289C"/>
<stop offset="0.96" stop-color="#00092B"/>
</radialGradient>
<radialGradient id="paint4_radial_441_70986" cx="0" cy="0" r="1" gradientUnits="userSpaceOnUse" gradientTransform="translate(869.12 95.6282) rotate(9.11557) scale(443.673 475.364)">
<stop stop-color="#4A289C"/>
<stop offset="0.96" stop-color="#00092B"/>
</radialGradient>
<radialGradient id="paint5_radial_441_70986" cx="0" cy="0" r="1" gradientUnits="userSpaceOnUse" gradientTransform="translate(887.101 228.93) scale(329.748 356.467)">
<stop stop-color="#4A289C"/>
<stop offset="0.96" stop-color="#00092B"/>
</radialGradient>
<radialGradient id="paint6_radial_441_70986" cx="0" cy="0" r="1" gradientUnits="userSpaceOnUse" gradientTransform="translate(999.207 0.558752) scale(407.365 440.374)">
<stop stop-color="#4A289C"/>
<stop offset="0.96" stop-color="#00092B"/>
</radialGradient>
<radialGradient id="paint7_radial_441_70986" cx="0" cy="0" r="1" gradientUnits="userSpaceOnUse" gradientTransform="translate(999.207 0.558982) scale(407.365 440.373)">
<stop stop-color="#4A289C"/>
<stop offset="0.96" stop-color="#00092B"/>
</radialGradient>
<radialGradient id="paint8_radial_441_70986" cx="0" cy="0" r="1" gradientUnits="userSpaceOnUse" gradientTransform="translate(999.207 0.558816) scale(407.365 440.373)">
<stop stop-color="#4A289C"/>
<stop offset="0.96" stop-color="#00092B"/>
</radialGradient>
<radialGradient id="paint9_radial_441_70986" cx="0" cy="0" r="1" gradientUnits="userSpaceOnUse" gradientTransform="translate(999.207 0.558918) scale(407.365 440.373)">
<stop stop-color="#4A289C"/>
<stop offset="0.96" stop-color="#00092B"/>
</radialGradient>
<radialGradient id="paint10_radial_441_70986" cx="0" cy="0" r="1" gradientUnits="userSpaceOnUse" gradientTransform="translate(999.207 0.558891) scale(407.365 440.373)">
<stop stop-color="#4A289C"/>
<stop offset="0.96" stop-color="#00092B"/>
</radialGradient>
<radialGradient id="paint11_radial_441_70986" cx="0" cy="0" r="1" gradientUnits="userSpaceOnUse" gradientTransform="translate(999.207 0.559025) scale(407.365 440.373)">
<stop stop-color="#4A289C"/>
<stop offset="0.96" stop-color="#00092B"/>
</radialGradient>
<radialGradient id="paint12_radial_441_70986" cx="0" cy="0" r="1" gradientUnits="userSpaceOnUse" gradientTransform="translate(462.73 213.569) scale(124.292 134.363)">
<stop stop-color="#4A289C"/>
<stop offset="0.96" stop-color="#00092B"/>
</radialGradient>
<radialGradient id="paint13_radial_441_70986" cx="0" cy="0" r="1" gradientUnits="userSpaceOnUse" gradientTransform="translate(1100.07 94.6372) rotate(27.0344) scale(126.528 133.236)">
<stop stop-color="#4A289C"/>
<stop offset="0.96" stop-color="#00092B"/>
</radialGradient>
<radialGradient id="paint14_radial_441_70986" cx="0" cy="0" r="1" gradientUnits="userSpaceOnUse" gradientTransform="translate(1493.37 288.005) rotate(50.9774) scale(131 128.763)">
<stop stop-color="#4A289C"/>
<stop offset="0.96" stop-color="#00092B"/>
</radialGradient>
<radialGradient id="paint15_radial_441_70986" cx="0" cy="0" r="1" gradientUnits="userSpaceOnUse" gradientTransform="translate(1142.34 144.773) rotate(27.0344) scale(53.717 56.5649)">
<stop stop-color="#4A289C"/>
<stop offset="0.96" stop-color="#00092B"/>
</radialGradient>
<radialGradient id="paint16_radial_441_70986" cx="0" cy="0" r="1" gradientUnits="userSpaceOnUse" gradientTransform="translate(1205.73 239.827) rotate(27.0344) scale(53.717 56.5648)">
<stop stop-color="#4A289C"/>
<stop offset="0.96" stop-color="#00092B"/>
</radialGradient>
<radialGradient id="paint17_radial_441_70986" cx="0" cy="0" r="1" gradientUnits="userSpaceOnUse" gradientTransform="translate(1274.99 177.877) rotate(27.0344) scale(53.717 56.5648)">
<stop stop-color="#4A289C"/>
<stop offset="0.96" stop-color="#00092B"/>
</radialGradient>
<radialGradient id="paint18_radial_441_70986" cx="0" cy="0" r="1" gradientUnits="userSpaceOnUse" gradientTransform="translate(1355.6 301.94) rotate(41.3477) scale(54.6672 55.6141)">
<stop stop-color="#4A289C"/>
<stop offset="0.96" stop-color="#00092B"/>
</radialGradient>
<radialGradient id="paint19_radial_441_70986" cx="0" cy="0" r="1" gradientUnits="userSpaceOnUse" gradientTransform="translate(1333.5 194.735) rotate(34.6166) scale(86.9504 89.9945)">
<stop stop-color="#4A289C"/>
<stop offset="0.96" stop-color="#00092B"/>
</radialGradient>
<radialGradient id="paint20_radial_441_70986" cx="0" cy="0" r="1" gradientUnits="userSpaceOnUse" gradientTransform="translate(1107.37 212.087) rotate(28.3649) scale(86.1889 89.9998)">
<stop stop-color="#4A289C"/>
<stop offset="0.96" stop-color="#00092B"/>
</radialGradient>
<radialGradient id="paint21_radial_441_70986" cx="0" cy="0" r="1" gradientUnits="userSpaceOnUse" gradientTransform="translate(626.468 154.206) rotate(3.31205) scale(76.2759 82.4562)">
<stop stop-color="#4A289C"/>
<stop offset="0.96" stop-color="#00092B"/>
</radialGradient>
<radialGradient id="paint22_radial_441_70986" cx="0" cy="0" r="1" gradientUnits="userSpaceOnUse" gradientTransform="translate(615.931 230.134) rotate(3.31205) scale(76.2759 82.4561)">
<stop stop-color="#4A289C"/>
<stop offset="0.96" stop-color="#00092B"/>
</radialGradient>
<radialGradient id="paint23_radial_441_70986" cx="0" cy="0" r="1" gradientUnits="userSpaceOnUse" gradientTransform="translate(643.852 226.95) rotate(3.31206) scale(47.5161 51.3662)">
<stop stop-color="#4A289C"/>
<stop offset="0.96" stop-color="#00092B"/>
</radialGradient>
<radialGradient id="paint24_radial_441_70986" cx="0" cy="0" r="1" gradientUnits="userSpaceOnUse" gradientTransform="translate(585.599 126.878) rotate(3.31206) scale(47.5161 51.3661)">
<stop stop-color="#4A289C"/>
<stop offset="0.96" stop-color="#00092B"/>
</radialGradient>
<radialGradient id="paint25_radial_441_70986" cx="0" cy="0" r="1" gradientUnits="userSpaceOnUse" gradientTransform="translate(508.921 226.97) rotate(3.31206) scale(47.5161 51.3662)">
<stop stop-color="#4A289C"/>
<stop offset="0.96" stop-color="#00092B"/>
</radialGradient>
<radialGradient id="paint26_radial_441_70986" cx="0" cy="0" r="1" gradientUnits="userSpaceOnUse" gradientTransform="translate(694.649 120.348) scale(124.292 134.363)">
<stop stop-color="#4A289C"/>
<stop offset="0.96" stop-color="#00092B"/>
</radialGradient>
<radialGradient id="paint27_radial_441_70986" cx="0" cy="0" r="1" gradientUnits="userSpaceOnUse" gradientTransform="translate(741.652 133.743) rotate(3.31205) scale(47.5162 51.3662)">
<stop stop-color="#4A289C"/>
<stop offset="0.96" stop-color="#00092B"/>
</radialGradient>
<radialGradient id="paint28_radial_441_70986" cx="0" cy="0" r="1" gradientUnits="userSpaceOnUse" gradientTransform="translate(513.763 146.354) rotate(3.31205) scale(47.5162 51.3661)">
<stop stop-color="#4A289C"/>
<stop offset="0.96" stop-color="#00092B"/>
</radialGradient>
<clipPath id="clip0_441_70986">
<rect width="1986" height="666" fill="white" transform="translate(-158 0.5)"/>
</clipPath>
<clipPath id="clip1_441_70986">
<rect width="1598" height="323" fill="white" transform="matrix(-1 0 0 1 1598 241.5)"/>
</clipPath>
<clipPath id="clip2_441_70986">
<rect width="586.675" height="274.345" fill="white" transform="translate(421.868 249.951) rotate(2.88801)"/>
</clipPath>
</defs>
</svg>
