<svg width="1600" height="619" viewBox="0 0 1600 619" fill="none" xmlns="http://www.w3.org/2000/svg">
<g clip-path="url(#clip0_1053_486)">
<mask id="mask0_1053_486" style="mask-type:alpha" maskUnits="userSpaceOnUse" x="-15" y="-82" width="1615" height="608">
<rect x="-15" y="-82" width="1615" height="608" fill="#D9D9D9"/>
</mask>
<g mask="url(#mask0_1053_486)">
<g opacity="0.3">
<path style="mix-blend-mode:screen" d="M1830.13 489.917C1640.05 233.726 1271.45 60 847.853 60C392.17 60 0.126066 261.045 -174.484 549.512V726H1830.13V489.917Z" fill="url(#paint0_radial_1053_486)"/>
<path style="mix-blend-mode:screen" d="M1700.62 477.405C1535.11 254.322 1214.12 103.041 845.271 103.041C448.474 103.041 107.1 278.107 -44.9512 529.302V682.98H1700.62V477.405Z" fill="url(#paint1_radial_1053_486)"/>
<path style="mix-blend-mode:screen" d="M1603.83 481.549C1456.67 295.676 1171.3 169.622 843.325 169.622C490.518 169.622 187.009 315.48 51.8203 524.792V652.837H1603.83V481.549Z" fill="url(#paint2_radial_1053_486)"/>
<path style="mix-blend-mode:screen" d="M301.442 324.681C294.148 402.374 521.621 412.083 781.16 388.338C1040.7 364.594 1222.97 453.072 1342.53 387.262C1389.88 361.202 1387.6 324.641 1362.69 289.197C1217.97 214.105 1038.16 169.622 843.325 169.622C648.491 169.622 455.748 217.395 308.45 297.464C304.782 306.279 302.323 315.379 301.442 324.681Z" fill="url(#paint3_radial_1053_486)"/>
<path opacity="0.5" d="M1193.51 284.972C1191.13 302.075 1155.93 310.666 1114.87 304.146C1073.83 297.626 1042.48 278.452 1044.86 261.35C1047.23 244.247 1082.44 235.655 1123.5 242.175C1164.54 248.696 1195.89 267.87 1193.51 284.972ZM435.73 261.857C396.984 277.721 370.246 303.7 376.044 319.847C381.822 335.995 417.945 336.239 456.69 320.355C495.436 304.471 522.174 278.513 516.376 262.365C510.598 246.217 474.475 245.974 435.73 261.857ZM566.841 289.806C538.914 300.47 519.449 318.568 523.342 330.206C527.235 341.845 553.011 342.637 580.938 331.953C608.865 321.289 628.33 303.192 624.437 291.553C620.544 279.915 594.768 279.122 566.841 289.806ZM629.559 204.985C608.455 212.094 593.436 224.971 596.038 233.766C598.62 242.561 617.839 243.943 638.943 236.833C660.047 229.724 675.066 216.847 672.464 208.052C669.882 199.257 650.663 197.876 629.559 204.985ZM1306.98 305.629C1286.76 296.042 1267.52 295.108 1264.03 303.557C1260.55 311.987 1274.11 326.591 1294.34 336.178C1314.56 345.765 1333.8 346.699 1337.28 338.25C1340.77 329.8 1327.2 315.216 1306.98 305.629ZM1210.84 341.845C1185.87 338.758 1164.72 344.689 1163.59 355.108C1162.47 365.528 1181.81 376.456 1206.77 379.543C1231.74 382.631 1252.89 376.7 1254.01 366.28C1255.14 355.88 1235.8 344.932 1210.84 341.845Z" fill="url(#paint4_radial_1053_486)"/>
<path style="mix-blend-mode:screen" d="M468.595 319.218C450.851 326.489 433.681 330.369 419.707 330.897C431.058 329.191 443.721 325.697 456.69 320.376C495.436 304.512 522.174 278.533 516.376 262.386C513.241 253.631 501.173 249.549 484.617 250.199C507.156 246.807 524.428 250.483 528.28 261.228C534.058 277.376 507.34 303.354 468.595 319.218ZM601.673 282.332C613.639 282.108 622.306 285.216 624.437 291.574C628.33 303.212 608.844 321.29 580.938 331.973C572.968 335.02 565.182 337.112 558.01 338.29C567.948 338.108 580.159 335.65 592.842 330.816C620.769 320.152 640.234 302.054 636.341 290.416C633.555 282.108 619.601 279.366 601.673 282.332ZM1123.5 242.176C1164.54 248.696 1195.89 267.87 1193.51 284.972C1192.12 295.047 1179.31 302.176 1160.62 304.979C1185.62 303.74 1203.73 295.92 1205.41 283.814C1207.79 266.712 1176.44 247.538 1135.4 241.018C1118.54 238.337 1102.68 238.215 1089.65 240.165C1099.97 239.657 1111.49 240.266 1123.5 242.176ZM1318.88 304.471C1303.45 297.159 1288.64 294.905 1280.92 297.972C1288.42 298.622 1297.57 301.181 1306.98 305.629C1327.2 315.216 1340.79 329.82 1337.28 338.25C1336.44 340.261 1334.7 341.723 1332.3 342.678C1340.93 343.409 1347.32 341.622 1349.19 337.092C1352.67 328.663 1339.11 314.059 1318.88 304.471ZM1222.75 340.687C1212.67 339.448 1203.24 339.692 1195.48 341.073C1200.33 340.951 1205.49 341.175 1210.84 341.825C1235.82 344.912 1255.14 355.84 1254.01 366.26C1253.34 372.475 1245.51 377.065 1234.04 379.117C1251.78 378.67 1265.04 373.267 1265.92 365.102C1267.04 354.702 1247.7 343.754 1222.75 340.667V340.687ZM654.556 200.455C664.104 200.455 670.989 203.055 672.464 208.052C675.046 216.847 660.047 229.745 638.943 236.834C634.436 238.357 630.03 239.454 625.851 240.205C633.063 240.205 641.771 238.723 650.848 235.676C671.952 228.567 686.97 215.689 684.368 206.894C682.34 199.968 670.005 197.673 654.556 200.455Z" fill="url(#paint5_radial_1053_486)"/>
<path opacity="0.5" d="M1245.1 375.887C1237.38 371.784 1226.84 368.555 1215.02 367.092C1199.45 365.163 1185.37 366.747 1176.71 370.749C1184.43 374.852 1194.96 378.081 1206.79 379.544C1222.36 381.473 1236.43 379.889 1245.1 375.887Z" fill="url(#paint6_radial_1053_486)"/>
<path opacity="0.5" d="M1189.59 292.894C1177.94 281.702 1154.95 271.77 1127.65 267.423C1093.54 262 1063.5 267.017 1052.93 278.676C1064.59 289.867 1087.58 299.8 1114.87 304.146C1148.98 309.57 1179.02 304.553 1189.59 292.894Z" fill="url(#paint7_radial_1053_486)"/>
<path opacity="0.5" d="M1274.89 323.828C1280.05 328.256 1286.71 332.562 1294.34 336.178C1308.68 342.982 1322.51 345.399 1330.58 343.226C1325.42 338.798 1318.76 334.492 1311.14 330.876C1296.79 324.072 1282.96 321.655 1274.89 323.828Z" fill="url(#paint8_radial_1053_486)"/>
<path opacity="0.5" d="M383.521 327.952C397.229 335.366 426.119 332.888 456.689 320.355C483.51 309.367 504.552 293.564 513.055 279.508C499.348 272.095 470.458 274.573 439.888 287.105C413.067 298.094 392.025 313.896 383.521 327.952Z" fill="url(#paint9_radial_1053_486)"/>
<path opacity="0.5" d="M633.717 230.232C624.989 233.157 617.346 237.098 611.527 241.302C619.149 241.688 628.82 240.246 638.942 236.833C647.671 233.909 655.313 229.968 661.132 225.764C653.51 225.378 643.839 226.82 633.717 230.232Z" fill="url(#paint10_radial_1053_486)"/>
<path opacity="0.5" d="M534.057 338.229C544.936 341.032 562.434 339.021 580.936 331.953C597.02 325.798 610.257 317.207 617.899 308.777C607.019 305.974 589.521 307.985 571.019 315.054C554.935 321.208 541.699 329.8 534.057 338.229Z" fill="url(#paint11_radial_1053_486)"/>
<path opacity="0.25" d="M493.571 338.209C495.456 344.648 484.31 354.113 468.676 359.374C453.043 364.635 438.823 363.68 436.938 357.241C435.053 350.802 446.2 341.337 461.833 336.076C477.466 330.816 491.686 331.77 493.571 338.209Z" fill="url(#paint12_radial_1053_486)"/>
<path opacity="0.25" d="M1078.48 219.02C1077.62 225.703 1063.75 229.176 1047.52 226.779C1031.27 224.382 1018.82 217.03 1019.68 210.347C1020.54 203.664 1034.41 200.191 1050.64 202.588C1066.88 204.985 1079.34 212.338 1078.48 219.02Z" fill="url(#paint13_radial_1053_486)"/>
<path opacity="0.25" d="M1418.64 354.58C1415.37 360.329 1401.35 357.607 1387.36 348.487C1373.36 339.367 1364.68 327.302 1367.95 321.533C1371.23 315.785 1385.25 318.507 1399.24 327.627C1413.24 336.747 1421.92 348.812 1418.64 354.58Z" fill="url(#paint14_radial_1053_486)"/>
<path opacity="0.25" d="M1117.16 226.048C1116.8 228.892 1110.92 230.354 1104.01 229.339C1097.13 228.323 1091.82 225.195 1092.19 222.372C1092.56 219.528 1098.44 218.066 1105.34 219.081C1112.23 220.097 1117.53 223.225 1117.16 226.048Z" fill="url(#paint15_radial_1053_486)"/>
<path opacity="0.25" d="M1184.27 322.407C1183.9 325.251 1178.02 326.713 1171.11 325.697C1164.23 324.682 1158.92 321.554 1159.29 318.73C1159.66 315.887 1165.54 314.424 1172.45 315.44C1179.35 316.456 1184.64 319.584 1184.27 322.407Z" fill="url(#paint16_radial_1053_486)"/>
<path opacity="0.25" d="M1249.51 258.486C1249.14 261.33 1243.26 262.792 1236.35 261.776C1229.45 260.761 1224.16 257.633 1224.53 254.81C1224.9 251.966 1230.78 250.504 1237.68 251.519C1244.57 252.535 1249.88 255.663 1249.51 258.486Z" fill="url(#paint17_radial_1053_486)"/>
<path opacity="0.25" d="M1304.42 358.155C1303.44 360.816 1297.39 360.735 1290.92 357.972C1284.44 355.21 1280.02 350.823 1281 348.162C1281.98 345.501 1288.03 345.582 1294.5 348.345C1300.96 351.107 1305.4 355.494 1304.42 358.155Z" fill="url(#paint18_radial_1053_486)"/>
<path opacity="0.25" d="M1290.03 281.682C1288.91 286.11 1279.26 287.186 1268.48 284.058C1257.7 280.93 1249.88 274.817 1251 270.389C1252.13 265.961 1261.78 264.884 1272.56 268.012C1283.33 271.14 1291.16 277.254 1290.03 281.682Z" fill="url(#paint19_radial_1053_486)"/>
<path opacity="0.25" d="M1088.49 311.686C1089.3 307.169 1081.03 301.928 1070.01 299.981C1058.99 298.033 1049.4 300.116 1048.59 304.633C1047.78 309.15 1056.05 314.39 1067.07 316.338C1078.08 318.285 1087.67 316.202 1088.49 311.686Z" fill="url(#paint20_radial_1053_486)"/>
<path opacity="0.25" d="M644.106 255.256C645.069 259.258 637.939 264.681 628.206 267.342C618.454 270.023 609.786 268.926 608.823 264.925C607.86 260.923 614.991 255.5 624.723 252.839C634.476 250.158 643.143 251.255 644.106 255.256Z" fill="url(#paint21_radial_1053_486)"/>
<path opacity="0.25" d="M634.067 331.364C635.03 335.366 627.9 340.789 618.167 343.45C608.414 346.131 599.747 345.034 598.784 341.033C597.821 337.031 604.952 331.608 614.684 328.947C624.437 326.266 633.104 327.363 634.067 331.364Z" fill="url(#paint22_radial_1053_486)"/>
<path opacity="0.25" d="M654.105 312.779C654.699 315.277 650.273 318.649 644.188 320.315C638.123 321.98 632.714 321.31 632.12 318.812C631.526 316.313 635.951 312.942 642.037 311.276C648.122 309.61 653.511 310.281 654.105 312.779Z" fill="url(#paint23_radial_1053_486)"/>
<path opacity="0.25" d="M594.236 212.459C594.83 214.958 590.404 218.329 584.319 219.995C578.254 221.66 572.845 220.99 572.251 218.492C571.657 215.993 576.082 212.622 582.168 210.956C588.232 209.291 593.642 209.961 594.236 212.459Z" fill="url(#paint24_radial_1053_486)"/>
<path opacity="0.25" d="M517.4 312.779C517.994 315.277 513.568 318.649 507.483 320.315C501.398 321.98 496.009 321.31 495.415 318.812C494.821 316.313 499.246 312.942 505.332 311.276C511.396 309.61 516.806 310.281 517.4 312.779Z" fill="url(#paint25_radial_1053_486)"/>
<path opacity="0.25" d="M728.585 244.775C730.47 251.214 719.323 260.68 703.69 265.94C688.057 271.201 673.837 270.246 671.952 263.808C670.067 257.369 681.213 247.903 696.847 242.643C712.48 237.382 726.7 238.337 728.585 244.775Z" fill="url(#paint26_radial_1053_486)"/>
<path opacity="0.25" d="M752.414 219.345C753.008 221.843 748.582 225.215 742.497 226.881C736.432 228.546 731.023 227.876 730.428 225.378C729.834 222.879 734.26 219.507 740.345 217.842C746.431 216.176 751.819 216.847 752.414 219.345Z" fill="url(#paint27_radial_1053_486)"/>
<path opacity="0.25" d="M521.64 231.979C522.234 234.478 517.809 237.849 511.723 239.515C505.658 241.18 500.249 240.51 499.655 238.012C499.061 235.514 503.487 232.142 509.572 230.476C515.637 228.811 521.046 229.481 521.64 231.979Z" fill="url(#paint28_radial_1053_486)"/>
</g>
</g>
<g clip-path="url(#clip1_1053_486)">
<path d="M954.35 490.249C957.773 490.249 961.131 490.468 964.458 490.824C964.264 489.21 964.167 487.595 964.167 485.927C964.167 457.695 991.197 434.798 1024.49 434.798C1048.91 434.798 1069.93 447.081 1079.42 464.753C1088.92 460.376 1099.83 457.887 1111.43 457.887C1126.86 457.887 1141.07 462.319 1152.41 469.732C1163.39 451.048 1186.19 438.191 1212.51 438.191C1215.87 438.191 1219.16 438.409 1222.39 438.82C1216.16 430.777 1212.51 421.148 1212.51 410.807C1212.51 382.576 1239.54 359.706 1272.86 359.706C1273.51 359.706 1274.19 359.706 1274.83 359.733C1274.38 357.244 1274.16 354.7 1274.16 352.101C1274.16 323.87 1301.19 301 1334.51 301C1363.32 301 1387.41 318.098 1393.38 340.995C1403.78 333.773 1417.09 329.45 1431.59 329.45C1451.32 329.45 1468.82 337.466 1479.83 349.885C1483.65 324.745 1508.96 305.322 1539.64 305.322C1572.97 305.322 1600 328.192 1600 356.423V615.759H983.446C974.469 618.877 877.394 591.412 877.394 555.411C877.394 519.411 911.851 490.222 954.35 490.222V490.249Z" fill="white"/>
<g clip-path="url(#clip2_1053_486)">
<path d="M834.02 644.436C845.72 640.405 855.682 631.576 860.674 619.281C866.018 606.121 864.481 591.923 857.763 580.588C869.977 581.96 882.101 575.204 886.918 563.342C887.373 562.223 887.725 561.098 888.01 559.964C896.705 560.665 905.218 555.749 908.647 547.304C909.29 545.722 909.688 544.095 909.927 542.475C921.168 546.026 933.447 540.44 937.924 529.413C940.033 524.221 940.028 518.726 938.369 513.82C945.824 515.467 953.614 511.598 956.565 504.331C957.583 501.824 957.9 499.195 957.623 496.693C961.642 495.657 965.115 492.827 966.781 488.724C967.436 487.112 967.744 485.45 967.748 483.805C971.541 484.36 975.352 482.288 976.842 478.617C978.593 474.305 976.497 469.399 972.135 467.665C967.773 465.931 962.935 467.993 961.148 472.222C960.559 471.866 959.936 471.549 959.274 471.286C955.529 469.797 951.508 470.105 948.18 471.762C946.647 469.385 944.399 467.435 941.556 466.304C934.321 463.428 926.092 466.915 923.177 474.092C922.881 474.823 922.671 475.554 922.507 476.303C919.605 473.382 916.054 470.983 911.978 469.362C897.327 463.537 880.844 469.583 873.283 482.867C865.917 479.54 857.218 479.149 849.173 482.57C836.766 487.827 829.788 500.407 831.176 513.038C828.272 510.722 824.986 508.792 821.346 507.345C801.536 499.469 779 509.018 771.02 528.668C770.663 529.549 770.357 530.432 770.065 531.321C769.184 530.867 768.27 530.451 767.322 530.075C759.019 526.774 750.153 527.183 742.548 530.467C738.404 519.288 729.701 509.832 717.667 505.048C700.113 498.069 680.681 503.116 668.64 516.248C666.797 513.903 664.333 511.97 661.339 510.78C655.533 508.472 649.225 509.465 644.495 512.852C638.137 506.183 630.27 500.733 621.109 497.091C596.155 487.17 568.692 493.408 550.47 510.789C548.31 508.838 545.782 507.192 542.909 506.05C538.231 504.19 533.326 503.835 528.729 504.745C527.89 501.777 525.716 499.215 522.617 497.983C517.473 495.938 511.674 498.259 509.331 503.168C500.147 494.248 489.108 486.931 476.427 481.889C457.746 474.462 438.155 473.016 419.759 476.586C417.262 473.098 413.77 470.254 409.468 468.543C403.572 466.199 397.296 466.425 391.852 468.645L834.02 644.436Z" fill="white"/>
</g>
<path d="M630.617 490.249C627.194 490.249 623.835 490.468 620.509 490.824C620.703 489.21 620.8 487.595 620.8 485.927C620.8 457.695 593.77 434.798 560.475 434.798C536.061 434.798 515.038 447.081 505.543 464.753C496.016 460.376 485.133 457.887 473.54 457.887C458.103 457.887 443.894 462.319 432.559 469.732C421.579 451.048 398.78 438.191 372.46 438.191C369.102 438.191 365.808 438.409 362.578 438.82C368.811 430.777 372.46 421.148 372.46 410.807C372.46 382.576 345.43 359.706 312.135 359.706C311.457 359.706 310.811 359.706 310.166 359.733C310.618 357.244 310.844 354.7 310.844 352.101C310.844 323.87 283.814 301 250.487 301C221.68 301 197.589 318.098 191.615 340.995C181.216 333.773 167.911 329.45 153.444 329.45C133.712 329.45 116.177 337.466 105.197 349.885C101.386 324.745 76.0676 305.322 45.3562 305.322C12.029 305.322 -15.0009 328.219 -15.0009 356.451V615.759H601.553C610.53 618.877 707.605 591.412 707.605 555.411C707.605 519.411 673.148 490.222 630.649 490.222L630.617 490.249Z" fill="white"/>
<path d="M56.6091 411.131C73.3405 411.131 88.7153 416.023 100.892 424.167C115.234 402.003 142.947 387 174.795 387C221.339 387 259.033 419.057 259.033 458.629C259.033 466.827 257.386 474.671 254.414 481.995C265.687 475.682 279.188 471.992 293.723 471.992C333.291 471.992 365.332 499.239 365.332 532.853C365.332 534.438 365.236 535.969 365.106 537.527C373.569 534.52 382.871 532.853 392.626 532.853C414.396 532.853 433.905 541.134 447.019 554.17C452.058 520.364 485.973 494.238 527.123 494.238C564.236 494.238 595.47 515.527 604.934 544.495C616.756 537.199 631.291 532.881 647.021 532.881C686.588 532.881 718.63 560.127 718.63 593.742C718.63 596.557 718.372 599.344 717.952 602.05L792.403 584.286H792.597L867.048 602.05C866.596 599.317 866.37 596.557 866.37 593.742C866.37 560.127 898.444 532.881 937.979 532.881C953.709 532.881 968.244 537.199 980.066 544.495C989.53 515.527 1020.76 494.238 1057.88 494.238C1098.99 494.238 1132.94 520.364 1137.98 554.17C1151.13 541.134 1170.6 532.853 1192.41 532.853C1202.16 532.853 1211.46 534.52 1219.93 537.527C1219.8 535.996 1219.7 534.438 1219.7 532.853C1219.7 499.239 1251.77 471.992 1291.31 471.992C1305.81 471.992 1319.31 475.682 1330.62 481.995C1327.65 474.671 1326 466.8 1326 458.629C1326 419.084 1363.73 387 1410.27 387C1442.12 387 1469.83 402.031 1484.14 424.167C1496.32 415.996 1511.69 411.131 1528.42 411.131C1567.93 411.131 1600 438.378 1600 471.992V742H-15V471.992C-15 438.378 17.0739 411.131 56.6091 411.131Z" fill="#1D0E78"/>
</g>
</g>
<g clip-path="url(#clip3_1053_486)">
<path d="M371.693 148.292C373.613 148.389 375.248 146.907 375.345 144.983C375.442 143.058 373.964 141.419 372.045 141.322C370.125 141.225 368.49 142.707 368.393 144.632C368.295 146.557 369.773 148.195 371.693 148.292Z" fill="white"/>
<path d="M379.798 111.782C378.805 111.732 377.963 112.494 377.913 113.49C377.863 114.485 378.623 115.329 379.616 115.379C380.609 115.429 381.451 114.666 381.501 113.671C381.551 112.675 380.791 111.832 379.798 111.782Z" fill="white"/>
<path d="M396.833 123.026C393.661 122.866 390.952 125.322 390.791 128.502C390.631 131.682 393.079 134.397 396.251 134.557C399.423 134.717 402.133 132.262 402.293 129.082C402.454 125.902 400.005 123.186 396.833 123.026Z" fill="white"/>
<path d="M407.562 117.578C406.473 117.523 405.547 118.362 405.492 119.454C405.437 120.546 406.273 121.473 407.363 121.528C408.452 121.583 409.377 120.745 409.432 119.653C409.487 118.561 408.651 117.633 407.562 117.578Z" fill="white"/>
<path d="M350.66 144.639C347.193 147.781 346.923 153.145 350.056 156.619C353.189 160.094 358.54 160.364 362.007 157.222C365.473 154.08 365.744 148.716 362.611 145.242C359.478 141.767 354.127 141.497 350.66 144.639Z" fill="white"/>
<path d="M280.944 381.489C290.577 373.908 297.022 362.351 297.69 349.118C298.404 334.953 292.343 322.024 282.368 313.471C294.241 310.834 303.385 300.54 304.029 287.772C304.089 286.568 304.052 285.39 303.951 284.226C312.313 282.088 318.677 274.697 319.135 265.607C319.221 263.904 319.064 262.238 318.76 260.629C330.433 260.364 340.102 251.127 340.701 239.259C340.982 233.67 339.189 228.476 336.039 224.372C343.55 223.528 349.579 217.359 349.973 209.538C350.109 206.84 349.549 204.252 348.476 201.976C351.899 199.701 354.226 195.906 354.449 191.49C354.536 189.755 354.284 188.084 353.752 186.528C357.481 185.83 360.372 182.643 360.571 178.693C360.805 174.051 357.247 170.088 352.601 169.854C347.956 169.619 344.101 173.128 343.806 177.702C343.139 177.556 342.453 177.457 341.748 177.421C337.76 177.22 334.098 178.806 331.524 181.446C329.316 179.692 326.578 178.572 323.55 178.419C315.845 178.03 309.281 183.978 308.891 191.703C308.852 192.49 308.894 193.249 308.984 194.01C305.318 192.183 301.215 191.058 296.874 190.839C281.271 190.052 267.818 201.079 265.07 216.075C257.095 215.302 248.829 217.735 242.416 223.562C232.521 232.53 230.089 246.672 235.499 258.167C232.029 256.914 228.326 256.147 224.449 255.952C203.351 254.887 185.377 271.176 184.31 292.327C184.262 293.274 184.264 294.208 184.281 295.143C183.308 294.997 182.318 294.899 181.308 294.848C172.466 294.402 164.304 297.645 158.258 303.201C150.742 293.966 139.52 287.829 126.705 287.183C108.01 286.24 91.4732 297.271 84.484 313.567C81.9962 311.944 79.0611 310.911 75.8732 310.75C69.6897 310.438 64.1114 313.409 60.7894 318.136C52.6689 313.878 43.5342 311.26 33.7783 310.767C7.2019 309.427 -16.46 324.173 -27.8478 346.477C-30.504 345.329 -33.4056 344.587 -36.4654 344.432C-41.4474 344.181 -46.1516 345.425 -50.1564 347.767C-51.9075 345.231 -54.7757 343.509 -58.0757 343.342C-63.5544 343.066 -68.2241 347.129 -68.8176 352.525C-80.3136 347.051 -93.0243 343.688 -106.529 343.007C-126.425 342.003 -145.224 346.948 -161.272 356.249C-164.744 353.756 -168.937 352.192 -173.518 351.961C-179.798 351.644 -185.596 353.879 -189.966 357.732L280.944 381.489Z" fill="white"/>
</g>
<g clip-path="url(#clip4_1053_486)">
<path d="M367.65 168.243C355.839 183.187 337.179 196.449 330.972 191.543C324.766 186.637 333.364 165.418 345.184 150.476C356.996 135.532 367.554 132.518 373.76 137.425C379.967 142.331 379.471 153.301 367.659 168.245L367.65 168.243Z" fill="#F1375A"/>
<path d="M369.146 160.699C360.226 171.986 346.126 182.005 341.442 178.297C336.757 174.589 343.252 158.563 352.172 147.276C361.092 135.989 369.067 133.714 373.752 137.422C378.437 141.131 378.067 149.412 369.146 160.699Z" fill="#F5A404"/>
<path d="M370.479 153.973C364.135 161.994 354.12 169.117 350.786 166.481C347.453 163.845 352.069 152.451 358.413 144.431C364.756 136.41 370.418 134.787 373.752 137.423C377.085 140.059 376.816 145.942 370.472 153.963L370.479 153.973Z" fill="#EAF2DF"/>
<g style="mix-blend-mode:multiply" opacity="0.3">
<path d="M356.246 151.197C360.001 153.876 362.862 157.309 364.843 161.48C365.545 163.724 366.24 165.957 366.942 168.201C366.996 168.455 367.042 168.706 367.087 168.958C367.28 168.72 367.465 168.481 367.658 168.244C379.47 153.3 379.966 142.331 373.76 137.424C368.007 132.873 358.52 135.135 347.756 147.397C350.852 147.967 353.685 149.234 356.253 151.207L356.246 151.197Z" fill="#F1375A"/>
</g>
<path d="M405.568 134.057C433.458 156.109 393.771 192.53 387.812 187.81C381.851 183.099 404.123 165.65 389.646 154.194L405.57 134.049L405.568 134.057Z" fill="#93278F"/>
<g style="mix-blend-mode:multiply" opacity="0.3">
<path d="M403.106 177.012C398.428 175.957 398.335 170.561 399.096 166.77C399.895 162.754 401.341 158.901 402.961 155.156C404.27 152.125 406.081 149.432 408.464 147.129C409.946 145.702 411.684 144.678 413.415 143.645C411.865 140.281 409.331 137.034 405.568 134.057L389.644 154.202C404.122 165.658 381.858 183.109 387.81 187.819C390.207 189.711 398.07 184.949 404.789 177.142C404.251 177.19 403.686 177.151 403.104 177.02L403.106 177.012Z" fill="#93278F"/>
</g>
<g style="mix-blend-mode:multiply" opacity="0.3">
<path d="M399.921 181.682C394.635 182.453 394.222 177.089 395.056 173.331C396.407 167.244 397.8 160.701 400.334 154.998C402.904 149.203 407.603 145.64 412.83 142.464C411.255 139.517 408.893 136.691 405.568 134.057L389.644 154.202C404.122 165.658 381.858 183.109 387.81 187.819C389.716 189.321 395.057 186.627 400.531 181.55C400.324 181.597 400.124 181.653 399.91 181.689L399.921 181.682Z" fill="#93278F"/>
</g>
<path d="M369.69 105.685C341.8 83.6336 315.526 130.651 321.487 135.362C327.448 140.073 339.281 114.373 353.767 125.831L369.69 105.685Z" fill="#93278F"/>
<g style="mix-blend-mode:multiply" opacity="0.3">
<path d="M356.948 99.9967C357.09 100.645 357.135 101.326 357.068 102.029C356.718 105.396 354.204 107.726 351.465 109.381C346.887 112.155 341.489 112.991 337.055 116.1C335.122 117.459 333.665 119.446 331.609 120.618C329.683 121.727 326.83 121.665 325.691 119.751C321.24 126.95 319.404 133.723 321.479 135.36C327.44 140.071 339.273 114.371 353.759 125.829L369.682 105.683C365.357 102.266 361.078 100.506 356.94 99.9949L356.948 99.9967Z" fill="#93278F"/>
</g>
<g style="mix-blend-mode:multiply" opacity="0.3">
<path d="M360.555 100.773C362.269 105.747 360.084 112.563 356.914 116.18C353.805 119.72 349.527 119.618 345.238 120.078C341.865 120.444 337.78 121.638 334.945 123.577C332.902 124.985 331.444 127.151 329.335 128.446C326.651 130.095 323.431 129.902 321.835 127.479C320.415 131.338 320.188 134.336 321.478 135.36C327.439 140.071 339.272 114.371 353.757 125.829L369.681 105.684C366.6 103.253 363.546 101.67 360.547 100.771L360.555 100.773Z" fill="#93278F"/>
</g>
<path d="M387.574 154.377L354.583 128.296L350.939 143.075L374.027 161.34L387.574 154.377Z" fill="#666666"/>
<path d="M384.947 152.302L357.211 130.372L352.776 144.527L372.192 159.888L384.947 152.302Z" fill="#808080"/>
<path d="M382.05 150.017L360.106 132.664L354.804 146.127L370.165 158.279L382.05 150.017Z" fill="#666666"/>
<path d="M378.455 147.174L363.7 135.507L357.321 148.126L367.644 156.29L378.455 147.174Z" fill="#808080"/>
<path d="M373.93 143.598L368.215 139.082L360.486 150.628L364.479 153.788L373.93 143.598Z" fill="#666666"/>
<g style="mix-blend-mode:multiply" opacity="0.3">
<path d="M384.945 152.301L381.629 154.274L384.056 156.191L387.573 154.377L384.945 152.301Z" fill="#666666"/>
<path d="M354.583 128.296L353.634 132.128L356.053 134.043L357.21 130.371L354.583 128.296Z" fill="#666666"/>
<path d="M357.211 130.371L356.054 134.044L358.727 136.156L360.106 132.664L357.211 130.371Z" fill="#808080"/>
<path d="M382.049 150.017L378.965 152.164L381.629 154.274L384.946 152.301L382.049 150.017Z" fill="#808080"/>
<path d="M360.104 132.664L358.725 136.155L362.043 138.779L363.699 135.507L360.104 132.664Z" fill="#666666"/>
<path d="M378.455 147.174L375.647 149.54L378.965 152.164L382.05 150.017L378.455 147.174Z" fill="#666666"/>
<path d="M363.7 135.507L362.045 138.779L366.216 142.075L368.216 139.082L363.7 135.507Z" fill="#808080"/>
<path d="M373.93 143.598L371.475 146.244L375.646 149.54L378.454 147.174L373.93 143.598Z" fill="#808080"/>
<path d="M368.215 139.082L366.215 142.075L371.475 146.244L373.93 143.598L368.215 139.082Z" fill="#666666"/>
</g>
<path d="M465.152 59.2685C465.067 59.2058 465.001 59.1381 464.929 59.0514C464.865 58.9751 464.802 58.8902 464.758 58.8004C464.706 58.7087 464.664 58.6103 464.63 58.5137C464.597 58.417 464.574 58.3136 464.559 58.212C464.545 58.1104 464.549 58.0039 464.552 57.9059C464.565 57.8011 464.587 57.6981 464.615 57.6056C464.637 57.5026 464.682 57.4136 464.728 57.3246C464.773 57.2357 464.829 57.1399 464.89 57.0631C464.951 56.9863 465.021 56.9113 465.107 56.84C465.184 56.7753 465.269 56.7125 465.358 56.6687C465.45 56.6163 465.54 56.5725 465.645 56.5408C465.742 56.5074 465.845 56.4843 465.947 56.4698C466.048 56.4553 466.155 56.4598 466.253 56.4625C466.358 56.4755 466.454 56.4868 466.553 56.5256C466.656 56.5472 466.745 56.5928 466.834 56.6383C467.02 56.7313 467.181 56.8635 467.318 57.0179C467.383 57.0942 467.446 57.1791 467.49 57.2689C467.542 57.3606 467.586 57.4504 467.617 57.5556C467.651 57.6523 467.665 57.7539 467.68 57.8555C467.694 57.9571 467.69 58.0636 467.685 58.1702C467.672 58.275 467.651 58.3779 467.622 58.4705C467.601 58.5735 467.555 58.6625 467.509 58.7514C467.462 58.849 467.408 58.9362 467.347 59.013C467.284 59.0983 467.206 59.1715 467.13 59.2361C467.054 59.3007 466.969 59.3635 466.879 59.4074C466.787 59.4598 466.697 59.5036 466.592 59.5353C466.496 59.5687 466.392 59.5918 466.292 59.5977C466.191 59.6122 466.093 59.6095 465.986 59.6051C465.882 59.592 465.779 59.5704 465.686 59.5419C465.583 59.5203 465.494 59.4747 465.405 59.4292C465.316 59.3836 465.221 59.3276 465.144 59.2667L465.152 59.2685Z" fill="white"/>
<path d="M429.222 30.85C429.136 30.7873 429.063 30.7092 428.998 30.6329C428.934 30.5566 428.871 30.4717 428.827 30.3819C428.775 30.2902 428.733 30.1918 428.699 30.0952C428.666 29.9985 428.643 29.8951 428.628 29.7935C428.614 29.6919 428.618 29.5854 428.621 29.4874C428.634 29.3826 428.656 29.2796 428.684 29.187C428.706 29.0841 428.751 28.9951 428.797 28.9061C428.843 28.8171 428.899 28.7214 428.959 28.6446C429.02 28.5678 429.09 28.4928 429.177 28.4214C429.253 28.3568 429.338 28.294 429.428 28.2502C429.519 28.1978 429.609 28.1539 429.714 28.1223C429.811 28.0888 429.914 28.0658 430.016 28.0513C430.117 28.0368 430.224 28.0413 430.322 28.0439C430.427 28.057 430.53 28.0786 430.622 28.107C430.725 28.1287 430.814 28.1743 430.903 28.2198C431.089 28.3128 431.25 28.445 431.387 28.5994C431.452 28.6757 431.515 28.7606 431.559 28.8504C431.611 28.9421 431.646 29.0301 431.678 29.1353C431.711 29.2319 431.734 29.3354 431.749 29.437C431.763 29.5385 431.759 29.6451 431.756 29.7431C431.743 29.8479 431.722 29.9509 431.693 30.0434C431.671 30.1464 431.626 30.2354 431.58 30.3244C431.533 30.4219 431.479 30.5091 431.418 30.5859C431.162 30.9084 430.776 31.123 430.362 31.1792C430.26 31.1937 430.153 31.1892 430.047 31.1847C429.942 31.1717 429.846 31.1604 429.745 31.1302C429.642 31.1086 429.553 31.063 429.464 31.0174C429.366 30.9701 429.279 30.9159 429.203 30.855L429.222 30.85Z" fill="white"/>
<path d="M388.395 155.033C388.395 155.033 410.221 149.254 425.398 130.063C439.039 112.806 460.645 78.5793 465.668 61.1601C470.347 44.95 470.091 31.3763 462.657 25.4951C455.213 19.6122 441.95 22.496 427.264 30.788C411.48 39.7004 383.159 68.6278 369.519 85.8755C354.351 105.069 353.761 127.648 353.761 127.648L388.402 155.043L388.395 155.033Z" fill="#F2F2F2"/>
<g style="mix-blend-mode:multiply">
<path d="M462.657 25.4951C458.801 22.4449 453.375 21.7524 447.006 22.9493C451.796 28.1134 453.27 35.2504 453.471 42.1378C453.909 57.3538 448.094 70.7448 438.696 82.4328C430.364 92.7951 420.113 101.804 406.691 104.296C400.762 105.398 393.391 104.968 387.858 102.354C379.988 98.6302 376.434 91.074 376.901 82.6335C377.029 80.4027 377.339 78.2011 377.787 76.0284C374.691 79.5528 371.885 82.8874 369.519 85.8755C354.351 105.069 353.761 127.648 353.761 127.648L388.402 155.043C388.402 155.043 410.228 149.264 425.404 130.073C439.046 112.817 460.652 78.5896 465.675 61.1705C470.354 44.9604 470.098 31.3867 462.663 25.5055L462.657 25.4951Z" fill="#F2F2F2"/>
</g>
<g style="mix-blend-mode:multiply">
<path d="M428.625 111.639C422.704 115.645 416.292 119.771 409.402 121.826C396.147 125.778 380.576 124.342 371.776 112.216C367.069 105.717 365.375 98.5155 365.724 91.1881C354.242 108.997 353.753 127.646 353.753 127.646L388.393 155.041C388.393 155.041 410.219 149.262 425.396 130.071C433.632 119.653 444.772 103.045 453.411 87.6847C446.591 97.0746 438.082 105.258 428.623 111.647L428.625 111.639Z" fill="#F2F2F2"/>
</g>
<path d="M465.667 61.1601C457.372 60.9935 448.797 58.0624 441.477 52.277C434.156 46.4915 429.328 38.8198 427.255 30.7862C441.951 22.4874 455.214 19.6035 462.656 25.4951C470.099 31.378 470.355 44.9518 465.667 61.1601Z" fill="#93278F"/>
<g style="mix-blend-mode:multiply" opacity="0.3">
<path d="M466.85 31.1074C466.901 33.6805 465.941 36.3727 463.721 38.8359C457.5 45.7176 449.278 44.4374 441.307 41.875C436.893 40.4547 433.276 37.123 432.83 32.2986C432.68 30.6274 432.99 28.9813 433.653 27.4899C431.566 28.467 429.427 29.5674 427.261 30.7965C429.334 38.8301 434.162 46.5019 441.483 52.2873C448.803 58.0728 457.378 61.0039 465.673 61.1705C469.217 48.9148 469.924 38.1774 466.857 31.1178L466.85 31.1074Z" fill="#93278F"/>
</g>
<g style="mix-blend-mode:multiply" opacity="0.3">
<path d="M468.734 44.2618C468.687 44.3593 468.641 44.4483 468.594 44.5459C464.953 51.1723 458.394 52.8849 451.301 51.9854C445.509 51.243 439.201 49.3348 434.656 45.4765C436.61 47.939 438.888 50.2277 441.491 52.289C448.812 58.0745 457.386 61.0055 465.682 61.1721C467.447 55.0743 468.506 49.3565 468.75 44.274L468.734 44.2618Z" fill="#93278F"/>
</g>
<path d="M442.292 48.7032C442.829 48.0189 443.821 47.9047 444.505 48.4427C445.189 48.9808 445.303 49.9724 444.765 50.6567C444.227 51.3411 443.236 51.4552 442.552 50.9172C441.868 50.3792 441.754 49.3876 442.292 48.7032Z" fill="white"/>
<path d="M437.516 46.2747C436.926 45.631 436.965 44.6357 437.6 44.0435C438.244 43.453 439.239 43.4919 439.831 44.1271C440.423 44.7622 440.382 45.7661 439.747 46.3583C439.169 46.891 438.296 46.9134 437.697 46.4381C437.635 46.3894 437.576 46.3321 437.516 46.2747Z" fill="white"/>
<path d="M447.635 52.5949C448.064 51.8338 449.024 51.5697 449.785 51.9984C450.546 52.4271 450.809 53.3875 450.381 54.1486C449.952 54.9096 448.992 55.1737 448.231 54.745C448.159 54.7031 448.087 54.6611 448.028 54.6038C447.429 54.1285 447.25 53.2755 447.635 52.5949Z" fill="white"/>
<path d="M433.139 40.8035C432.655 40.0835 432.853 39.0949 433.58 38.6205C434.309 38.1375 435.28 38.3326 435.764 39.0527C436.247 39.7813 436.05 40.7613 435.324 41.2358C434.74 41.6239 433.99 41.5736 433.476 41.1611C433.345 41.0618 433.236 40.9403 433.141 40.795L433.139 40.8035Z" fill="white"/>
<path d="M453.634 55.7195C453.939 54.9056 454.842 54.4862 455.665 54.7934C456.478 55.0988 456.897 56.0023 456.59 56.8247C456.285 57.6386 455.382 58.058 454.568 57.7526C454.41 57.6926 454.265 57.6172 454.135 57.5093C453.613 57.095 453.397 56.3775 453.634 55.7195Z" fill="white"/>
<path d="M429.809 34.02C429.447 33.2271 429.803 32.2986 430.596 31.9366C431.388 31.5745 432.325 31.9327 432.679 32.7238C433.04 33.5166 432.682 34.4537 431.891 34.8072C431.337 35.058 430.712 34.9625 430.267 34.6091C430.076 34.4525 429.92 34.2584 429.809 34.02Z" fill="white"/>
<path d="M460.688 57.5782C460.849 56.7251 461.683 56.1658 462.536 56.3271C463.396 56.4988 463.948 57.3227 463.787 58.1758C463.626 59.0289 462.8 59.5901 461.939 59.4269C461.681 59.3728 461.452 59.2709 461.261 59.1142C460.816 58.7608 460.572 58.1721 460.688 57.5782Z" fill="white"/>
<g filter="url(#filter0_d_1053_486)">
<path d="M437.954 86.0297C443.892 77.9361 442.146 66.5611 434.055 60.623C425.964 54.6849 414.591 56.4322 408.653 64.5259C402.716 72.6195 404.462 83.9945 412.553 89.9326C420.644 95.8707 432.017 94.1233 437.954 86.0297Z" fill="#93278F"/>
</g>
<g style="mix-blend-mode:multiply" opacity="0.3">
<path d="M440.984 79.5092C440.581 80.3204 440.131 81.095 439.651 81.8452C437.142 85.7261 432.145 88.6181 427.668 89.3794C423.246 90.1343 417.465 89.0807 413.871 86.2376C409.877 83.0777 407.405 79.1983 406.34 74.2526C405.991 72.6293 405.942 70.9883 406.13 69.3703C405.275 71.8606 404.944 74.5864 405.27 77.3788C406.435 87.3536 415.461 94.4832 425.434 93.3179C433.221 92.41 439.275 86.703 441.003 79.5042L440.984 79.5092Z" fill="#93278F"/>
</g>
<path d="M411.255 87.4349C410.698 86.8878 410.7 85.9833 411.247 85.4263C411.803 84.8711 412.69 84.8694 413.255 85.4183C413.81 85.974 413.819 86.8717 413.263 87.4269C412.751 87.9464 411.937 87.9815 411.376 87.541C411.339 87.5062 411.293 87.4697 411.255 87.4349ZM416.843 89.6577C417.098 88.9138 417.905 88.5279 418.648 88.7827C419.383 89.0358 419.778 89.8444 419.523 90.5882C419.268 91.3321 418.461 91.718 417.718 91.4632C417.56 91.4032 417.423 91.3296 417.3 91.2321C416.84 90.8665 416.64 90.2421 416.835 89.6559L416.843 89.6577ZM407.17 81.0034C406.912 80.2683 407.298 79.4535 408.035 79.1873C408.77 78.9296 409.586 79.3072 409.842 80.0509C410.108 80.7877 409.722 81.6025 408.978 81.8584C408.504 82.0275 407.996 81.9297 407.619 81.6354C407.419 81.477 407.26 81.2553 407.163 80.993L407.17 81.0034ZM423.72 91.0314C423.633 90.2516 424.185 89.5433 424.965 89.4563C424.965 89.4563 424.991 89.4617 425.001 89.455C425.781 89.368 426.489 89.92 426.578 90.6912C426.673 91.4729 426.114 92.1707 425.342 92.2681C425.342 92.2681 425.324 92.2645 425.316 92.2627C425.316 92.2627 425.299 92.2591 425.29 92.2573C424.905 92.3017 424.526 92.1863 424.241 91.9651C423.956 91.7439 423.758 91.4067 423.714 91.0211L423.72 91.0314ZM406.279 73.4335C406.363 72.6536 407.063 72.093 407.842 72.1762C408.622 72.2594 409.183 72.9596 409.099 73.7395C409.016 74.5194 408.316 75.0801 407.545 74.9986C407.265 74.9667 407.018 74.8611 406.819 74.7027C406.45 74.4102 406.235 73.9438 406.288 73.4353L406.279 73.4335ZM430.549 89.2681C430.133 88.6072 430.325 87.7338 430.979 87.3068C431.64 86.8902 432.514 87.0827 432.94 87.7368C433.357 88.3978 433.164 89.2712 432.51 89.6982C431.984 90.0267 431.323 89.9773 430.862 89.6117C430.748 89.516 430.637 89.4031 430.551 89.2596L430.549 89.2681ZM408.76 66.2318C409.178 65.5669 410.045 65.3638 410.711 65.7727C411.376 66.1901 411.577 67.0657 411.168 67.7323C410.759 68.399 409.884 68.6003 409.219 68.1829C409.171 68.1549 409.132 68.1287 409.086 68.0921C408.525 67.6516 408.38 66.8506 408.76 66.2318ZM435.451 82.7812C435.86 82.1145 436.735 81.9133 437.402 82.3221C438.066 82.7396 438.269 83.6065 437.86 84.2732C437.443 84.9381 436.576 85.1412 435.91 84.7323C435.862 84.7043 435.816 84.6678 435.777 84.6416C435.224 84.2029 435.07 83.4 435.451 82.7812ZM413.689 62.7699C413.264 62.1072 413.465 61.2356 414.119 60.8086C414.78 60.392 415.653 60.5845 416.078 61.2472C416.503 61.91 416.302 62.7816 415.64 63.2068C415.121 63.5457 414.461 63.4876 414 63.122C413.877 63.0246 413.775 62.9135 413.689 62.7699ZM437.52 76.774C437.603 75.9941 438.296 75.4231 439.076 75.5063C439.856 75.5896 440.416 76.2898 440.341 77.0715C440.258 77.8514 439.565 78.4224 438.785 78.3392C438.505 78.3072 438.259 78.2016 438.051 78.0414C437.682 77.7489 437.467 77.2825 437.52 76.774ZM420.057 59.8345C419.961 59.0529 420.52 58.355 421.301 58.2594C422.083 58.1638 422.781 58.7226 422.876 59.5043C422.972 60.2859 422.413 60.9838 421.631 61.0794C421.246 61.1238 420.867 61.0083 420.582 60.7872C420.297 60.566 420.099 60.2287 420.055 59.8431L420.057 59.8345ZM436.76 70.4591C436.494 69.7222 436.88 68.9074 437.625 68.643C438.362 68.3767 439.177 68.763 439.432 69.5066C439.69 70.2417 439.312 71.0582 438.569 71.3141C438.094 71.4832 437.578 71.3836 437.209 71.0911C437.01 70.9327 436.848 70.7196 436.751 70.4573L436.76 70.4591ZM427.065 59.9456C427.32 59.2018 428.128 58.8073 428.872 59.0621C429.607 59.3152 430.01 60.1256 429.747 60.8676C429.492 61.6115 428.683 62.006 427.95 61.7444C427.791 61.693 427.656 61.6108 427.531 61.5219C427.07 61.1563 426.87 60.5319 427.065 59.9456ZM433.345 65.1002C432.788 64.5531 432.78 63.6554 433.327 63.0984C433.875 62.5328 434.771 62.5329 435.336 63.0818C435.892 63.6375 435.9 64.5352 435.344 65.0904C434.832 65.6099 434.017 65.6536 433.455 65.2131C433.418 65.1783 433.38 65.1435 433.334 65.107L433.345 65.1002Z" fill="white"/>
<path d="M424.833 88.3356C417.616 89.1751 411.087 84.0129 410.247 76.803C409.408 69.5845 414.57 63.0536 421.778 62.2123C428.995 61.3728 435.524 66.5349 436.365 73.7449C437.205 80.9548 432.042 87.4942 424.833 88.3356Z" fill="#662D91"/>
<path d="M419.52 86.8069C413.152 84.7158 409.685 77.8587 411.776 71.4889C413.867 65.1191 420.723 61.6502 427.091 63.7412C433.46 65.8323 436.927 72.6894 434.836 79.0592C432.745 85.429 425.889 88.8979 419.52 86.8069Z" fill="#29DFE2"/>
<g style="mix-blend-mode:multiply">
<path d="M432.667 82.1784C429.379 84.0587 424.507 84.9072 420.827 83.7039C416.747 82.3624 413.667 80.0127 411.379 76.4051C411.312 76.3012 411.261 76.201 411.193 76.0972C411.523 80.8792 414.678 85.2158 419.513 86.8053C425.01 88.6059 430.858 86.269 433.704 81.5092C433.357 81.7501 433.004 81.9805 432.657 82.1852L432.667 82.1784Z" fill="#29DFE2"/>
</g>
<g style="mix-blend-mode:overlay" opacity="0.5">
<path d="M433.029 68.0085C432.008 66.6469 430.702 65.4855 429.153 64.6313L411.282 73.6696C411.048 75.4213 411.21 77.1666 411.701 78.793L433.029 68.0085Z" fill="white"/>
</g>
<g style="mix-blend-mode:overlay" opacity="0.5">
<path d="M434.702 71.1286C434.474 70.5073 434.198 69.9028 433.872 69.3235L412.243 80.2599C412.519 80.8644 412.837 81.4419 413.204 81.994L434.704 71.12L434.702 71.1286Z" fill="white"/>
</g>
<path d="M378.041 142.58C368.366 154.819 351.847 170.978 349.005 168.732C346.162 166.486 358.073 146.68 367.749 134.441C377.425 122.202 381.204 122.163 384.046 124.409C386.888 126.655 387.717 130.341 378.041 142.58Z" fill="#93278F"/>
<g style="mix-blend-mode:multiply" opacity="0.3">
<path d="M384.045 124.409C383.745 124.176 383.431 123.966 383.109 123.791C383.957 128.494 381.208 133.776 378.491 137.452C375.951 140.887 372.828 143.895 369.717 146.807C367.901 148.504 365.656 150.702 362.941 150.409C360.033 150.094 358.994 148.603 359.13 146.464C352.374 156.745 346.98 167.151 348.993 168.739C351.835 170.985 368.354 154.826 378.03 142.587C387.706 130.348 386.877 126.662 384.035 124.416L384.045 124.409Z" fill="#93278F"/>
</g>
<g style="mix-blend-mode:multiply" opacity="0.3">
<path d="M385.38 130.934C384.805 131.709 384.178 132.518 383.506 133.371C373.83 145.611 357.311 161.769 354.469 159.523C353.195 158.512 354.89 153.985 358.007 148.189C351.796 157.877 347.099 167.229 349.004 168.732C351.847 170.978 368.366 154.819 378.041 142.58C382.216 137.293 384.442 133.604 385.38 130.934Z" fill="#93278F"/>
</g>
<g style="mix-blend-mode:overlay" opacity="0.5">
<path d="M446.374 32.7707C442.172 33.8855 438.343 33.1793 437.811 31.1948C437.28 29.2018 440.255 26.6822 444.457 25.5675C448.66 24.4528 452.489 25.1589 453.021 27.1434C453.553 29.1278 450.577 31.656 446.374 32.7707Z" fill="white"/>
</g>
<g style="mix-blend-mode:overlay" opacity="0.5">
<path d="M416.166 51.5805C412.793 54.3301 409.007 55.2546 407.711 53.6651C406.408 52.0652 408.088 48.5477 411.452 45.7963C414.824 43.0468 418.611 42.1223 419.907 43.7118C421.21 45.3117 419.53 48.8292 416.166 51.5805Z" fill="white"/>
</g>
<g style="mix-blend-mode:overlay" opacity="0.5">
<path d="M426.403 42.4246C425.106 43.4782 423.203 43.2843 422.15 41.9878C421.097 40.6913 421.291 38.7878 422.587 37.7343C423.884 36.6807 425.787 36.8746 426.84 38.1711C427.893 39.4676 427.699 41.3711 426.403 42.4246Z" fill="white"/>
</g>
</g>
<defs>
<filter id="filter0_d_1053_486" x="405.131" y="57.1006" width="37.3457" height="39.3545" filterUnits="userSpaceOnUse" color-interpolation-filters="sRGB">
<feFlood flood-opacity="0" result="BackgroundImageFix"/>
<feColorMatrix in="SourceAlpha" type="matrix" values="0 0 0 0 0 0 0 0 0 0 0 0 0 0 0 0 0 0 127 0" result="hardAlpha"/>
<feOffset dx="1" dy="3"/>
<feColorMatrix type="matrix" values="0 0 0 0 0 0 0 0 0 0 0 0 0 0 0 0 0 0 0.8 0"/>
<feBlend mode="normal" in2="BackgroundImageFix" result="effect1_dropShadow_1053_486"/>
<feBlend mode="normal" in="SourceGraphic" in2="effect1_dropShadow_1053_486" result="shape"/>
</filter>
<radialGradient id="paint0_radial_1053_486" cx="0" cy="0" r="1" gradientUnits="userSpaceOnUse" gradientTransform="translate(811.019 54.9915) scale(1031.95 1150.88)">
<stop stop-color="#4A289C" stop-opacity="0"/>
<stop offset="0.96" stop-color="#00092B"/>
</radialGradient>
<radialGradient id="paint1_radial_1053_486" cx="0" cy="0" r="1" gradientUnits="userSpaceOnUse" gradientTransform="translate(812.671 98.8064) scale(898.602 1002.16)">
<stop stop-color="#4A289C" stop-opacity="0"/>
<stop offset="0.96" stop-color="#00092B"/>
</radialGradient>
<radialGradient id="paint2_radial_1053_486" cx="0" cy="0" r="1" gradientUnits="userSpaceOnUse" gradientTransform="translate(789.746 62.6831) scale(798.938 834.439)">
<stop stop-color="#4A289C"/>
<stop offset="0.96" stop-color="#00092B"/>
</radialGradient>
<radialGradient id="paint3_radial_1053_486" cx="0" cy="0" r="1" gradientUnits="userSpaceOnUse" gradientTransform="translate(816.975 115.877) scale(516.701 512.22)">
<stop stop-color="#4A289C"/>
<stop offset="0.96" stop-color="#00092B"/>
</radialGradient>
<radialGradient id="paint4_radial_1053_486" cx="0" cy="0" r="1" gradientUnits="userSpaceOnUse" gradientTransform="translate(862.264 155.128) rotate(9.03231) scale(447.728 475.474)">
<stop stop-color="#4A289C"/>
<stop offset="0.96" stop-color="#00092B"/>
</radialGradient>
<radialGradient id="paint5_radial_1053_486" cx="0" cy="0" r="1" gradientUnits="userSpaceOnUse" gradientTransform="translate(880.414 288.43) scale(332.839 356.467)">
<stop stop-color="#4A289C"/>
<stop offset="0.96" stop-color="#00092B"/>
</radialGradient>
<radialGradient id="paint6_radial_1053_486" cx="0" cy="0" r="1" gradientUnits="userSpaceOnUse" gradientTransform="translate(993.571 60.0588) scale(411.184 440.374)">
<stop stop-color="#4A289C"/>
<stop offset="0.96" stop-color="#00092B"/>
</radialGradient>
<radialGradient id="paint7_radial_1053_486" cx="0" cy="0" r="1" gradientUnits="userSpaceOnUse" gradientTransform="translate(993.57 60.0589) scale(411.184 440.373)">
<stop stop-color="#4A289C"/>
<stop offset="0.96" stop-color="#00092B"/>
</radialGradient>
<radialGradient id="paint8_radial_1053_486" cx="0" cy="0" r="1" gradientUnits="userSpaceOnUse" gradientTransform="translate(993.569 60.0585) scale(411.184 440.373)">
<stop stop-color="#4A289C"/>
<stop offset="0.96" stop-color="#00092B"/>
</radialGradient>
<radialGradient id="paint9_radial_1053_486" cx="0" cy="0" r="1" gradientUnits="userSpaceOnUse" gradientTransform="translate(993.57 60.059) scale(411.184 440.373)">
<stop stop-color="#4A289C"/>
<stop offset="0.96" stop-color="#00092B"/>
</radialGradient>
<radialGradient id="paint10_radial_1053_486" cx="0" cy="0" r="1" gradientUnits="userSpaceOnUse" gradientTransform="translate(993.57 60.0588) scale(411.184 440.373)">
<stop stop-color="#4A289C"/>
<stop offset="0.96" stop-color="#00092B"/>
</radialGradient>
<radialGradient id="paint11_radial_1053_486" cx="0" cy="0" r="1" gradientUnits="userSpaceOnUse" gradientTransform="translate(993.57 60.0587) scale(411.184 440.373)">
<stop stop-color="#4A289C"/>
<stop offset="0.96" stop-color="#00092B"/>
</radialGradient>
<radialGradient id="paint12_radial_1053_486" cx="0" cy="0" r="1" gradientUnits="userSpaceOnUse" gradientTransform="translate(452.064 273.069) scale(125.457 134.363)">
<stop stop-color="#4A289C"/>
<stop offset="0.96" stop-color="#00092B"/>
</radialGradient>
<radialGradient id="paint13_radial_1053_486" cx="0" cy="0" r="1" gradientUnits="userSpaceOnUse" gradientTransform="translate(1095.38 154.137) rotate(26.8185) scale(127.47 133.491)">
<stop stop-color="#4A289C"/>
<stop offset="0.96" stop-color="#00092B"/>
</radialGradient>
<radialGradient id="paint14_radial_1053_486" cx="0" cy="0" r="1" gradientUnits="userSpaceOnUse" gradientTransform="translate(1492.36 347.504) rotate(50.7157) scale(131.488 129.487)">
<stop stop-color="#4A289C"/>
<stop offset="0.96" stop-color="#00092B"/>
</radialGradient>
<radialGradient id="paint15_radial_1053_486" cx="0" cy="0" r="1" gradientUnits="userSpaceOnUse" gradientTransform="translate(1138.05 204.273) rotate(26.8186) scale(54.117 56.6732)">
<stop stop-color="#4A289C"/>
<stop offset="0.96" stop-color="#00092B"/>
</radialGradient>
<radialGradient id="paint16_radial_1053_486" cx="0" cy="0" r="1" gradientUnits="userSpaceOnUse" gradientTransform="translate(1202.03 299.327) rotate(26.8185) scale(54.117 56.6732)">
<stop stop-color="#4A289C"/>
<stop offset="0.96" stop-color="#00092B"/>
</radialGradient>
<radialGradient id="paint17_radial_1053_486" cx="0" cy="0" r="1" gradientUnits="userSpaceOnUse" gradientTransform="translate(1271.94 237.377) rotate(26.8185) scale(54.117 56.6732)">
<stop stop-color="#4A289C"/>
<stop offset="0.96" stop-color="#00092B"/>
</radialGradient>
<radialGradient id="paint18_radial_1053_486" cx="0" cy="0" r="1" gradientUnits="userSpaceOnUse" gradientTransform="translate(1353.31 361.44) rotate(41.0827) scale(54.9566 55.8399)">
<stop stop-color="#4A289C"/>
<stop offset="0.96" stop-color="#00092B"/>
</radialGradient>
<radialGradient id="paint19_radial_1053_486" cx="0" cy="0" r="1" gradientUnits="userSpaceOnUse" gradientTransform="translate(1331 254.235) rotate(34.367) scale(87.5033 90.2642)">
<stop stop-color="#4A289C"/>
<stop offset="0.96" stop-color="#00092B"/>
</radialGradient>
<radialGradient id="paint20_radial_1053_486" cx="0" cy="0" r="1" gradientUnits="userSpaceOnUse" gradientTransform="translate(1102.75 271.587) rotate(28.1419) scale(86.8152 90.1882)">
<stop stop-color="#4A289C"/>
<stop offset="0.96" stop-color="#00092B"/>
</radialGradient>
<radialGradient id="paint21_radial_1053_486" cx="0" cy="0" r="1" gradientUnits="userSpaceOnUse" gradientTransform="translate(617.337 213.706) rotate(3.28136) scale(76.9887 82.4587)">
<stop stop-color="#4A289C"/>
<stop offset="0.96" stop-color="#00092B"/>
</radialGradient>
<radialGradient id="paint22_radial_1053_486" cx="0" cy="0" r="1" gradientUnits="userSpaceOnUse" gradientTransform="translate(606.702 289.634) rotate(3.28136) scale(76.9887 82.4587)">
<stop stop-color="#4A289C"/>
<stop offset="0.96" stop-color="#00092B"/>
</radialGradient>
<radialGradient id="paint23_radial_1053_486" cx="0" cy="0" r="1" gradientUnits="userSpaceOnUse" gradientTransform="translate(634.884 286.45) rotate(3.28137) scale(47.9601 51.3677)">
<stop stop-color="#4A289C"/>
<stop offset="0.96" stop-color="#00092B"/>
</radialGradient>
<radialGradient id="paint24_radial_1053_486" cx="0" cy="0" r="1" gradientUnits="userSpaceOnUse" gradientTransform="translate(576.086 186.378) rotate(3.28136) scale(47.9601 51.3677)">
<stop stop-color="#4A289C"/>
<stop offset="0.96" stop-color="#00092B"/>
</radialGradient>
<radialGradient id="paint25_radial_1053_486" cx="0" cy="0" r="1" gradientUnits="userSpaceOnUse" gradientTransform="translate(498.689 286.47) rotate(3.28137) scale(47.9601 51.3677)">
<stop stop-color="#4A289C"/>
<stop offset="0.96" stop-color="#00092B"/>
</radialGradient>
<radialGradient id="paint26_radial_1053_486" cx="0" cy="0" r="1" gradientUnits="userSpaceOnUse" gradientTransform="translate(686.159 179.848) scale(125.457 134.363)">
<stop stop-color="#4A289C"/>
<stop offset="0.96" stop-color="#00092B"/>
</radialGradient>
<radialGradient id="paint27_radial_1053_486" cx="0" cy="0" r="1" gradientUnits="userSpaceOnUse" gradientTransform="translate(733.602 193.242) rotate(3.28136) scale(47.9602 51.3677)">
<stop stop-color="#4A289C"/>
<stop offset="0.96" stop-color="#00092B"/>
</radialGradient>
<radialGradient id="paint28_radial_1053_486" cx="0" cy="0" r="1" gradientUnits="userSpaceOnUse" gradientTransform="translate(503.575 205.855) rotate(3.28135) scale(47.9602 51.3677)">
<stop stop-color="#4A289C"/>
<stop offset="0.96" stop-color="#00092B"/>
</radialGradient>
<clipPath id="clip0_1053_486">
<rect width="1600" height="559" fill="white" transform="translate(0 60)"/>
</clipPath>
<clipPath id="clip1_1053_486">
<rect width="1615" height="323" fill="white" transform="matrix(-1 0 0 1 1600 301)"/>
</clipPath>
<clipPath id="clip2_1053_486">
<rect width="592.901" height="274.352" fill="white" transform="matrix(0.998756 0.0498549 -0.0509185 0.998703 421.461 309.451)"/>
</clipPath>
<clipPath id="clip3_1053_486">
<rect width="586.675" height="274.345" fill="white" transform="translate(-176.176 83.7344) rotate(2.88801)"/>
</clipPath>
<clipPath id="clip4_1053_486">
<rect width="128.763" height="191.477" fill="white" transform="translate(348.355 0.0205078) rotate(11.8695)"/>
</clipPath>
</defs>
</svg>
