<svg width="1598" height="625" viewBox="0 0 1598 625" fill="none" xmlns="http://www.w3.org/2000/svg">
<g clip-path="url(#clip0_1019_399)">
<path d="M2217.73 771.111L2209.04 653.994C2143.05 630.006 2065.47 669.796 1920.35 624.314C1717.7 560.772 1555.46 197.742 1720.09 -64.6851L1664.85 -106C1664.85 -106 1483.26 215.022 1330.76 315.757C1178.27 416.493 971.141 430.021 763.857 385.845C562.74 342.946 546.974 495.856 367.201 484.81C230.466 476.423 186.875 220.778 -56.0055 238.422L-4.23837 936.002C-2.28656 962.303 20.5961 982.012 46.9145 980.059L2173.64 822.235C2199.96 820.282 2219.68 797.412 2217.73 771.111Z" fill="#170A64"/>
</g>
<defs>
<clipPath id="clip0_1019_399">
<rect width="1598" height="625" fill="white"/>
</clipPath>
</defs>
</svg>
