<svg width="225" height="79" viewBox="0 0 225 79" fill="none" xmlns="http://www.w3.org/2000/svg">
<path d="M76.8769 49.3896C79.2416 49.3896 81.1013 50.1243 82.4559 51.5937C83.8105 53.0401 84.4877 55.0605 84.4877 57.6548V68.8128H78.6332V58.3436C78.6332 57.1268 78.3003 56.1855 77.6345 55.5197C76.9917 54.8309 76.1078 54.4865 74.9828 54.4865C73.8119 54.4865 72.882 54.8539 72.1933 55.5885C71.5275 56.3003 71.1946 57.3104 71.1946 58.6191V68.8128H65.3056V58.3436C65.3056 57.1268 64.9842 56.1855 64.3414 55.5197C63.6985 54.8309 62.8146 54.4865 61.6896 54.4865C60.5187 54.4865 59.5889 54.8424 58.9001 55.5541C58.2114 56.2658 57.867 57.2875 57.867 58.6191V68.8128H51.978V49.5963H57.867V52.8679C58.3721 51.7888 59.1412 50.9394 60.1743 50.3195C61.2304 49.6996 62.4587 49.3896 63.8592 49.3896C65.3286 49.3896 66.6258 49.734 67.7507 50.4228C68.8757 51.0886 69.7252 52.0529 70.2992 53.3156C70.965 52.1217 71.8719 51.169 73.0198 50.4572C74.1907 49.7455 75.4764 49.3896 76.8769 49.3896Z" fill="white"/>
<path d="M40.8962 49.3893C43.1003 49.3893 44.8451 50.1239 46.1308 51.5933C47.4395 53.0627 48.0938 55.083 48.0938 57.6544V68.8124H42.2049V58.3432C42.2049 57.0575 41.8605 56.0588 41.1717 55.3471C40.5059 54.6124 39.6105 54.2451 38.4855 54.2451C37.2917 54.2451 36.3389 54.6239 35.6272 55.3815C34.9384 56.1392 34.594 57.2182 34.594 58.6187V68.8124H28.7051V43.3281H34.594V53.1086C35.145 51.9606 35.9601 51.0538 37.0391 50.388C38.1412 49.7222 39.4269 49.3893 40.8962 49.3893Z" fill="white"/>
<path d="M25.4621 46.9789C24.4979 46.9789 23.7976 47.1856 23.3614 47.5988C22.9252 48.0121 22.6841 48.6779 22.6382 49.5962H26.1165V54.5553H22.6382V68.8128H16.7493V54.5553H14.4419V49.5962H16.7493V49.3896C16.7493 47.0019 17.438 45.1652 18.8156 43.8795C20.216 42.5708 22.2364 41.9165 24.8767 41.9165C25.4277 41.9165 25.841 41.928 26.1165 41.9509V47.0134L25.4621 46.9789Z" fill="white"/>
<path d="M208.941 49.9053L215.071 64.7826L220.754 49.9053H224.232L213.005 77.7658H209.458L213.384 68.5019L205.429 49.9053H208.941Z" fill="white"/>
<path d="M194.612 49.6646C197.023 49.6646 199.02 50.3074 200.605 51.5931C202.189 52.8788 203.164 54.6007 203.532 56.7588H200.226C199.996 55.4043 199.365 54.3482 198.332 53.5905C197.321 52.8099 196.059 52.4196 194.543 52.4196C193.441 52.4196 192.431 52.6722 191.513 53.1773C190.617 53.6823 189.894 54.4629 189.343 55.5191C188.792 56.5522 188.517 57.8379 188.517 59.3761C188.517 60.9144 188.792 62.2116 189.343 63.2677C189.894 64.3008 190.617 65.0699 191.513 65.575C192.431 66.0801 193.441 66.3327 194.543 66.3327C196.059 66.3327 197.321 65.9424 198.332 65.1618C199.365 64.3812 199.996 63.3136 200.226 61.959H203.532C203.164 64.1401 202.189 65.8735 200.605 67.1592C199.02 68.4219 197.023 69.0533 194.612 69.0533C192.799 69.0533 191.191 68.663 189.791 67.8824C188.39 67.1018 187.288 65.9883 186.485 64.5419C185.704 63.0725 185.314 61.3506 185.314 59.3761C185.314 57.4017 185.704 55.6798 186.485 54.2104C187.288 52.741 188.39 51.6161 189.791 50.8355C191.191 50.0549 192.799 49.6646 194.612 49.6646Z" fill="white"/>
<path d="M174.067 49.5957C176.271 49.5957 178.05 50.3074 179.405 51.7309C180.759 53.1314 181.437 55.1632 181.437 57.8264V68.8122H178.303V58.102C178.303 56.2193 177.821 54.7729 176.856 53.7627C175.892 52.7525 174.583 52.2474 172.93 52.2474C171.209 52.2474 169.831 52.8099 168.798 53.9349C167.765 55.0369 167.248 56.6555 167.248 58.7907V68.8122H164.114V49.9056H167.248V54.3826C167.73 52.8444 168.58 51.662 169.797 50.8355C171.036 50.009 172.46 49.5957 174.067 49.5957Z" fill="white"/>
<path d="M160.015 58.3086C160.015 58.9744 159.969 59.5483 159.877 60.0305H144.759C144.828 62.1886 145.436 63.8072 146.584 64.8863C147.755 65.9653 149.178 66.5049 150.854 66.5049C152.37 66.5049 153.632 66.126 154.643 65.3684C155.676 64.5878 156.307 63.5546 156.537 62.269H159.877C159.648 63.5776 159.131 64.7485 158.328 65.7817C157.547 66.8148 156.525 67.6184 155.263 68.1923C154 68.7663 152.576 69.0533 150.992 69.0533C149.178 69.0533 147.571 68.663 146.171 67.8824C144.77 67.1018 143.668 65.9883 142.865 64.5419C142.084 63.0725 141.694 61.3506 141.694 59.3761C141.694 57.4017 142.084 55.6798 142.865 54.2104C143.668 52.741 144.77 51.6161 146.171 50.8355C147.571 50.0549 149.178 49.6646 150.992 49.6646C152.829 49.6646 154.425 50.0549 155.779 50.8355C157.157 51.6161 158.201 52.6607 158.913 53.9693C159.648 55.278 160.015 56.7244 160.015 58.3086ZM156.847 58.5152C156.916 57.1147 156.686 55.9438 156.158 55.0025C155.63 54.0612 154.907 53.3609 153.988 52.9017C153.07 52.4426 152.071 52.213 150.992 52.213C149.27 52.213 147.824 52.7525 146.653 53.8316C145.482 54.8877 144.851 56.4489 144.759 58.5152H156.847Z" fill="white"/>
<path d="M127.167 49.6646C129.004 49.6646 130.554 50.1237 131.816 51.0421C133.102 51.9604 133.997 53.1887 134.503 54.727V49.9056H137.636V69.1222C137.636 70.867 137.269 72.4168 136.534 73.7713C135.8 75.1259 134.767 76.182 133.435 76.9396C132.103 77.6973 130.554 78.0761 128.786 78.0761C126.237 78.0761 124.16 77.4562 122.552 76.2164C120.945 74.9996 119.924 73.3466 119.487 71.2573H122.587C122.954 72.5201 123.643 73.5073 124.653 74.219C125.686 74.9537 127.006 75.3211 128.614 75.3211C130.313 75.3211 131.713 74.77 132.815 73.668C133.94 72.5889 134.503 71.0737 134.503 69.1222V63.9909C133.997 65.5291 133.102 66.7574 131.816 67.6758C130.554 68.5941 129.004 69.0533 127.167 69.0533C125.491 69.0533 123.999 68.663 122.69 67.8824C121.382 67.1018 120.348 65.9883 119.591 64.5419C118.856 63.0725 118.489 61.3506 118.489 59.3761C118.489 57.4017 118.856 55.6798 119.591 54.2104C120.348 52.741 121.382 51.6161 122.69 50.8355C123.999 50.0549 125.491 49.6646 127.167 49.6646ZM128.063 52.4541C126.134 52.4541 124.584 53.0739 123.413 54.3137C122.265 55.5305 121.692 57.218 121.692 59.3761C121.692 61.5343 122.265 63.2332 123.413 64.473C124.584 65.6898 126.134 66.2982 128.063 66.2982C129.302 66.2982 130.404 66.0112 131.369 65.4373C132.356 64.8633 133.125 64.0597 133.676 63.0266C134.227 61.9705 134.503 60.7537 134.503 59.3761C134.503 57.9986 134.227 56.7818 133.676 55.7257C133.125 54.6696 132.356 53.866 131.369 53.315C130.404 52.741 129.302 52.4541 128.063 52.4541Z" fill="white"/>
<path d="M103.962 49.6646C105.798 49.6646 107.348 50.1237 108.611 51.0421C109.897 51.9604 110.792 53.1887 111.297 54.727V49.9056H114.431V68.8122H111.297V63.9909C110.792 65.5291 109.897 66.7574 108.611 67.6758C107.348 68.5941 105.798 69.0533 103.962 69.0533C102.286 69.0533 100.793 68.663 99.4847 67.8824C98.176 67.1018 97.1429 65.9883 96.3852 64.5419C95.6505 63.0725 95.2832 61.3506 95.2832 59.3761C95.2832 57.4017 95.6505 55.6798 96.3852 54.2104C97.1429 52.741 98.176 51.6161 99.4847 50.8355C100.793 50.0549 102.286 49.6646 103.962 49.6646ZM104.857 52.4541C102.928 52.4541 101.379 53.0739 100.208 54.3137C99.0599 55.5305 98.486 57.218 98.486 59.3761C98.486 61.5343 99.0599 63.2332 100.208 64.473C101.379 65.6898 102.928 66.2982 104.857 66.2982C106.097 66.2982 107.199 66.0112 108.163 65.4373C109.15 64.8633 109.919 64.0597 110.47 63.0266C111.021 61.9705 111.297 60.7537 111.297 59.3761C111.297 57.9986 111.021 56.7818 110.47 55.7257C109.919 54.6696 109.15 53.866 108.163 53.315C107.199 52.741 106.097 52.4541 104.857 52.4541Z" fill="white"/>
<path d="M92.6349 65.1274V68.8123H88.8467V65.1274H92.6349Z" fill="white"/>
<mask id="mask0_84_35050" style="mask-type:luminance" maskUnits="userSpaceOnUse" x="0" y="0" width="55" height="37">
<path d="M54.1173 0H0V36.6261H54.1173V0Z" fill="white"/>
</mask>
<g mask="url(#mask0_84_35050)">
<mask id="mask1_84_35050" style="mask-type:luminance" maskUnits="userSpaceOnUse" x="0" y="0" width="55" height="37">
<path d="M54.0817 0H0V36.6038H54.0817V0Z" fill="white"/>
</mask>
<g mask="url(#mask1_84_35050)">
<path d="M44.3883 4.39111C44.3883 4.39111 58.1537 10.3322 52.8761 23.4808C47.5986 36.63 31.9986 30.4719 29.4492 29.4488C40.6942 24.9188 45.2313 16.2969 44.3883 4.39111Z" fill="url(#paint0_linear_84_35050)"/>
<path d="M4.39111 14.5098C4.39111 14.5098 10.3322 0.744466 23.4814 6.02205C36.6307 11.2996 30.4726 26.8996 29.4494 29.449C24.9195 18.204 16.2976 13.6669 4.39177 14.5098H4.39111Z" fill="url(#paint1_linear_84_35050)"/>
<path d="M1.16736 36.6036C1.16736 36.6036 -4.36536 22.6692 8.66421 17.103C21.6938 11.5374 28.3706 26.9223 29.4497 29.4487C18.2955 24.7004 8.9897 27.5884 1.16736 36.6036Z" fill="url(#paint2_linear_84_35050)"/>
<path d="M49.6653 28.3917C42.9621 34.8003 31.5922 30.3098 29.4492 29.4497C38.1238 25.9554 42.8063 20.0262 44.1076 12.0322C54.3247 17.9365 49.6659 28.3917 49.6659 28.3917" fill="url(#paint3_linear_84_35050)"/>
<path d="M22.2944 1.16735C22.2944 1.16735 36.2288 -4.36536 41.7951 8.66421C47.3606 21.6938 31.9757 28.3706 29.4494 29.4497C34.1976 18.2955 31.3096 8.9897 22.2944 1.16735Z" fill="url(#paint4_linear_84_35050)"/>
<path d="M42.6778 11.3529C45.2331 22.6169 31.7951 28.4468 29.449 29.449C33.3016 20.3989 32.1272 12.5661 26.7319 5.75441C37.3515 3.43256 42.6778 11.3522 42.6778 11.3522" fill="url(#paint5_linear_84_35050)"/>
<path d="M27.6351 8.50914C35.1366 15.0821 30.341 27.2266 29.4494 29.4492C25.8532 20.5221 19.6773 15.8219 11.3276 14.6856C18.7403 4.59869 27.6351 8.50979 27.6351 8.50979" fill="url(#paint6_linear_84_35050)"/>
<path d="M10.6793 16.3909C22.3846 13.1301 28.4276 27.0566 29.4494 29.4494C20.5237 25.65 12.7816 26.7403 6.03631 31.9468C5.08482 26.4825 6.32037 21.1918 10.6793 16.3916" fill="url(#paint7_linear_84_35050)"/>
<path d="M40.3805 5.98891C39.6835 15.6498 36.3352 23.6543 29.4492 29.4487C31.9756 28.3696 47.3605 21.6928 41.7949 8.66321C41.3636 7.65386 40.8822 6.75563 40.3614 5.95801" fill="url(#paint8_linear_84_35050)"/>
<path d="M42.4356 10.4312C40.908 18.0661 36.7772 24.4977 29.4487 29.4491C31.7272 28.6698 45.964 22.2988 42.4356 10.4312Z" fill="url(#paint9_linear_84_35050)"/>
<path d="M20.5902 5.13077C26.9284 12.4553 30.2208 20.4828 29.4495 29.4493C30.4727 26.9 36.6307 11.3 23.4815 6.02242C22.4629 5.61342 21.4878 5.31883 20.5547 5.12354" fill="url(#paint10_linear_84_35050)"/>
<path d="M25.1841 6.81787C29.5029 13.2968 31.1291 20.7654 29.449 29.4485C30.5439 27.0912 36.0713 12.7142 25.1841 6.81787Z" fill="url(#paint11_linear_84_35050)"/>
<path d="M5.98891 18.5174C15.6498 19.2144 23.6543 22.5627 29.4487 29.4487C28.3696 26.9223 21.6928 11.5374 8.66321 17.103C7.65386 17.5343 6.75563 18.0157 5.95801 18.5365" fill="url(#paint12_linear_84_35050)"/>
<path d="M10.4307 16.4624C18.0656 17.9899 24.4972 22.1207 29.4486 29.4492C28.5379 26.9598 22.2983 12.9339 10.4307 16.4624Z" fill="url(#paint13_linear_84_35050)"/>
</g>
</g>
<defs>
<linearGradient id="paint0_linear_84_35050" x1="45.0426" y1="7.69345" x2="51.7497" y2="29.0642" gradientUnits="userSpaceOnUse">
<stop stop-color="#00E6F4"/>
<stop offset="1" stop-color="#00B6FF"/>
</linearGradient>
<linearGradient id="paint1_linear_84_35050" x1="20.2199" y1="5.58937" x2="6.97007" y2="13.7103" gradientUnits="userSpaceOnUse">
<stop stop-color="#FF32AA"/>
<stop offset="1" stop-color="#FF82C4"/>
</linearGradient>
<linearGradient id="paint2_linear_84_35050" x1="14.7251" y1="15.8984" x2="14.7251" y2="36.6036" gradientUnits="userSpaceOnUse">
<stop stop-color="#FF881D"/>
<stop offset="1" stop-color="#FFCE00"/>
</linearGradient>
<linearGradient id="paint3_linear_84_35050" x1="48.3633" y1="17.031" x2="30.642" y2="28.9657" gradientUnits="userSpaceOnUse">
<stop stop-color="#00B6FF"/>
<stop offset="1" stop-color="#006AFF"/>
</linearGradient>
<linearGradient id="paint4_linear_84_35050" x1="24.4611" y1="1.31537" x2="43.0043" y2="9.79791" gradientUnits="userSpaceOnUse">
<stop stop-color="#FF31FF"/>
<stop offset="1" stop-color="#B900F7"/>
</linearGradient>
<linearGradient id="paint5_linear_84_35050" x1="34.8657" y1="5.32811" x2="31.2014" y2="29.4588" gradientUnits="userSpaceOnUse">
<stop stop-color="#C300F8"/>
<stop offset="1" stop-color="#8A00DD"/>
</linearGradient>
<linearGradient id="paint6_linear_84_35050" x1="21.5537" y1="7.76366" x2="30.5107" y2="29.4584" gradientUnits="userSpaceOnUse">
<stop stop-color="#FF2CA5"/>
<stop offset="1" stop-color="#FE00AB"/>
</linearGradient>
<linearGradient id="paint7_linear_84_35050" x1="9.37014" y1="21.1405" x2="28.4394" y2="28.7354" gradientUnits="userSpaceOnUse">
<stop stop-color="#FF8609"/>
<stop offset="1" stop-color="#FF334E"/>
</linearGradient>
<linearGradient id="paint8_linear_84_35050" x1="40.637" y1="8.67972" x2="31.4969" y2="28.7353" gradientUnits="userSpaceOnUse">
<stop stop-color="#9300CA"/>
<stop offset="1" stop-color="#6E00BF"/>
</linearGradient>
<linearGradient id="paint9_linear_84_35050" x1="43.0043" y1="12.0336" x2="30.2805" y2="29.4589" gradientUnits="userSpaceOnUse">
<stop offset="0.0202395" stop-color="#6400A1"/>
<stop offset="1" stop-color="#6800A6"/>
</linearGradient>
<linearGradient id="paint10_linear_84_35050" x1="21.7653" y1="5.1288" x2="30.5766" y2="29.4585" gradientUnits="userSpaceOnUse">
<stop stop-color="#ED0085"/>
<stop offset="1" stop-color="#DF0079"/>
</linearGradient>
<linearGradient id="paint11_linear_84_35050" x1="26.0067" y1="7.26574" x2="30.5767" y2="29.4584" gradientUnits="userSpaceOnUse">
<stop stop-color="#D10059"/>
<stop offset="1" stop-color="#C30057"/>
</linearGradient>
<linearGradient id="paint12_linear_84_35050" x1="10.2907" y1="17.4581" x2="28.1434" y2="27.6831" gradientUnits="userSpaceOnUse">
<stop stop-color="#FF3D08"/>
<stop offset="1" stop-color="#FC002E"/>
</linearGradient>
<linearGradient id="paint13_linear_84_35050" x1="14.6305" y1="16.5374" x2="28.8009" y2="28.3734" gradientUnits="userSpaceOnUse">
<stop stop-color="#D10000"/>
<stop offset="1" stop-color="#D30033"/>
</linearGradient>
</defs>
</svg>
