<svg width="11" height="6" viewBox="0 0 11 6" fill="none" xmlns="http://www.w3.org/2000/svg">
<path d="M5.156 4.52258C5.21847 4.44839 5.25362 4.40153 5.29657 4.35857C6.68278 2.97237 8.06898 1.58226 9.45909 0.199959C9.545 0.114053 9.66214 0.043767 9.77929 0.0125285C9.95891 -0.0382339 10.1541 0.0710999 10.2479 0.235102C10.3416 0.399103 10.3299 0.606058 10.2088 0.758345C10.1737 0.805203 10.1307 0.844251 10.0878 0.887204C8.58051 2.39446 7.07326 3.90171 5.566 5.41287C5.27314 5.70573 5.03885 5.70573 4.7499 5.41678C3.22702 3.8939 1.70805 2.37103 0.185181 0.852061C0.0407028 0.707584 -0.041298 0.547486 0.0211789 0.340532C0.114894 0.0242427 0.489755 -0.0968065 0.751377 0.102339C0.798235 0.137482 0.837283 0.180435 0.880236 0.223388C2.26254 1.60569 3.64874 2.99189 5.03104 4.37419C5.07009 4.40934 5.10133 4.4562 5.156 4.52258Z" fill="white"/>
</svg>
