<svg width="18" height="9" viewBox="0 0 18 9" fill="none" xmlns="http://www.w3.org/2000/svg">
<g clip-path="url(#clip0_751_33580)">
<path d="M15.5398 5.19398C15.4701 5.19398 15.4004 5.19398 15.3314 5.19398C10.4751 5.19398 5.61883 5.19398 0.763252 5.19398C0.303465 5.19398 -0.0133869 4.89269 0.000695403 4.47172C0.0126654 4.12033 0.306985 3.8253 0.663972 3.80791C0.722413 3.80512 0.780855 3.80721 0.840001 3.80721C5.67305 3.80721 10.5054 3.80721 15.3384 3.80721H15.5792C15.5152 3.73902 15.475 3.6931 15.4321 3.65065C14.6688 2.89917 13.9063 2.14698 13.1416 1.39759C12.9388 1.19928 12.8754 0.96061 12.9487 0.698285C13.0205 0.440136 13.2057 0.273835 13.4732 0.21469C13.7345 0.156937 13.9549 0.241827 14.1428 0.426219C14.9983 1.26677 15.8553 2.10523 16.7115 2.94509C17.0565 3.28326 17.4015 3.62143 17.7444 3.96168C18.088 4.30194 18.088 4.70204 17.7402 5.04438C16.5446 6.21962 15.3483 7.39347 14.1506 8.56663C13.8352 8.87627 13.4099 8.88462 13.1212 8.59376C12.8402 8.31056 12.8543 7.88959 13.1592 7.589C13.9133 6.84517 14.6688 6.10203 15.425 5.36028C15.4694 5.31645 15.5278 5.28583 15.5792 5.24895C15.5666 5.23086 15.5539 5.21277 15.5412 5.19468L15.5398 5.19398Z" fill="white"/>
</g>
<defs>
<clipPath id="clip0_751_33580">
<rect width="18" height="8.6087" fill="white" transform="translate(0 0.195557)"/>
</clipPath>
</defs>
</svg>
