<svg width="18" height="9" viewBox="0 0 18 9" fill="none" xmlns="http://www.w3.org/2000/svg">
<path d="M2.46019 5.19398C2.52989 5.19398 2.5996 5.19398 2.6686 5.19398C7.52489 5.19398 12.3812 5.19398 17.2367 5.19398C17.6965 5.19398 18.0134 4.89269 17.9993 4.47172C17.9873 4.12033 17.693 3.8253 17.336 3.80791C17.2776 3.80512 17.2191 3.80721 17.16 3.80721C12.327 3.80721 7.49461 3.80721 2.66156 3.80721H2.42076C2.48483 3.73902 2.52497 3.6931 2.56792 3.65065C3.33118 2.89917 4.09373 2.14698 4.8584 1.39759C5.06119 1.19928 5.12456 0.96061 5.05133 0.698285C4.97951 0.440136 4.79433 0.273835 4.52676 0.21469C4.26554 0.156937 4.04515 0.241827 3.85715 0.426219C3.00165 1.26677 2.14474 2.10523 1.28854 2.94509C0.943521 3.28326 0.598507 3.62143 0.255602 3.96168C-0.088007 4.30194 -0.088007 4.70204 0.259827 5.04438C1.45541 6.21962 2.65171 7.39347 3.84941 8.56663C4.16485 8.87627 4.59013 8.88462 4.87882 8.59376C5.15976 8.31056 5.14568 7.88959 4.8408 7.589C4.08669 6.84517 3.33118 6.10203 2.57496 5.36028C2.5306 5.31645 2.47216 5.28583 2.42076 5.24895C2.43343 5.23086 2.4461 5.21277 2.45878 5.19468L2.46019 5.19398Z" fill="#F5A404"/>
</svg>
