<svg width="18" height="9" viewBox="0 0 18 9" fill="none" xmlns="http://www.w3.org/2000/svg">
<g clip-path="url(#clip0_513_34381)">
<path d="M2.46043 4.99818C2.53014 4.99818 2.59984 4.99818 2.66885 4.99818C7.52513 4.99818 12.3814 4.99818 17.237 4.99818C17.6968 4.99818 18.0136 4.69689 17.9995 4.27592C17.9876 3.92453 17.6933 3.6295 17.3363 3.61211C17.2778 3.60932 17.2194 3.61141 17.1602 3.61141C12.3272 3.61141 7.49485 3.61141 2.66181 3.61141H2.421C2.48507 3.54322 2.52521 3.4973 2.56816 3.45485C3.33142 2.70337 4.09398 1.95118 4.85865 1.20178C5.06143 1.00348 5.1248 0.764809 5.05157 0.502485C4.97976 0.244335 4.79457 0.078034 4.52701 0.0188892C4.26578 -0.0388639 4.04539 0.0460262 3.8574 0.230419C3.00189 1.07097 2.14499 1.90943 1.28878 2.74929C0.943766 3.08746 0.598751 3.42563 0.255846 3.76588C-0.0877628 4.10614 -0.0877628 4.50624 0.260071 4.84858C1.45566 6.02382 2.65195 7.19767 3.84965 8.37083C4.16509 8.68047 4.59038 8.68882 4.87907 8.39796C5.16001 8.11476 5.14593 7.69379 4.84104 7.3932C4.08694 6.64937 3.33142 5.90623 2.5752 5.16448C2.53084 5.12065 2.4724 5.09003 2.421 5.05315C2.43367 5.03506 2.44635 5.01697 2.45902 4.99888L2.46043 4.99818Z" fill="#6351D0"/>
</g>
<defs>
<clipPath id="clip0_513_34381">
<rect width="18" height="8.6087" fill="white" transform="matrix(-1 0 0 1 18 0)"/>
</clipPath>
</defs>
</svg>
