<svg width="12" height="12" viewBox="0 0 12 12" fill="none" xmlns="http://www.w3.org/2000/svg">
<path d="M4.23609 5.99884C4.32244 5.92612 4.37698 5.88522 4.42697 5.83522C6.0404 4.22179 7.65838 2.60836 9.26726 0.990387C9.36725 0.8904 9.44906 0.754055 9.48542 0.617708C9.5445 0.408644 9.41725 0.1814 9.22636 0.0723227C9.03548 -0.0367543 8.7946 -0.0231197 8.61735 0.117771C8.56281 0.158675 8.51736 0.208669 8.46737 0.258663C6.71305 2.01298 4.95872 3.76731 3.19986 5.52163C2.85899 5.86249 2.85899 6.13519 3.19531 6.47151C4.96781 8.24401 6.74031 10.012 8.50827 11.7845C8.67643 11.9526 8.86277 12.0481 9.10365 11.9753C9.47178 11.8663 9.61267 11.43 9.38089 11.1255C9.33998 11.0709 9.28999 11.0255 9.23999 10.9755C7.63111 9.36659 6.01768 7.75316 4.4088 6.14428C4.36789 6.09883 4.31335 6.06247 4.23609 5.99884Z" fill="white"/>
</svg>
