<svg width="8" height="12" viewBox="0 0 8 12" fill="none" xmlns="http://www.w3.org/2000/svg">
<path d="M5.76391 5.99884C5.67756 5.92612 5.62302 5.88522 5.57303 5.83522C3.9596 4.22179 2.34162 2.60836 0.732736 0.990387C0.632748 0.8904 0.550941 0.754055 0.514582 0.617708C0.455499 0.408644 0.582754 0.1814 0.773639 0.0723227C0.964524 -0.0367543 1.2054 -0.0231197 1.38265 0.117771C1.43719 0.158675 1.48264 0.208669 1.53263 0.258663C3.28695 2.01298 5.04128 3.76731 6.80014 5.52163C7.14101 5.86249 7.14101 6.13519 6.80469 6.47151C5.03219 8.24401 3.25969 10.012 1.49173 11.7845C1.32357 11.9526 1.13723 12.0481 0.896351 11.9753C0.528217 11.8663 0.387325 11.43 0.619114 11.1255C0.660018 11.0709 0.710011 11.0255 0.760005 10.9755C2.36889 9.36659 3.98232 7.75316 5.5912 6.14428C5.63211 6.09883 5.68665 6.06247 5.76391 5.99884Z" fill="white"/>
</svg>
