<svg width="86" height="94" viewBox="0 0 86 94" fill="none" xmlns="http://www.w3.org/2000/svg">
<g clip-path="url(#clip0_751_33607)">
<path d="M68.0897 94.0002H17.8754C17.7872 93.9248 17.7028 93.8439 17.6091 93.7777C16.8671 93.25 16.4998 92.5715 16.7661 91.6485C17.0141 90.7861 17.6752 90.3448 18.7202 90.3356C19.453 90.3283 20.1857 90.3356 20.9185 90.3356C22.0333 90.3356 23.1499 90.3356 24.2647 90.3356C24.2794 90.0396 24.2904 89.8888 24.2922 89.7362C24.3455 85.7793 26.5658 83.5894 30.5272 83.5876C31.8367 83.5876 33.1443 83.5876 34.5198 83.5876C35.2361 80.5629 35.9395 77.5934 36.6667 74.521H35.5005C26.4318 74.521 17.3612 74.532 8.29239 74.5154C3.76719 74.5081 0.516533 71.2977 0.511023 66.8002C0.494494 51.1676 0.492658 35.5386 0.533061 19.9097C0.536734 18.8395 0.755281 17.6903 1.18503 16.7158C2.5661 13.5808 5.12254 12.211 8.49073 12.2128C24.5218 12.2184 40.5547 12.2092 56.5857 12.2331C57.3497 12.2331 57.7905 11.9922 58.2055 11.3578C60.009 8.59795 61.8125 5.83255 63.7261 3.1462C65.5737 0.551792 69.0374 -0.560624 72.1319 0.274147C75.2614 1.11995 77.5717 3.79342 78.0106 6.95232C78.2659 8.78183 77.838 10.455 77.0208 12.1742C77.4395 12.1926 77.7664 12.2037 78.0933 12.222C81.6819 12.4243 84.3559 14.5498 85.2172 17.8852C85.3072 18.2328 85.4063 18.5784 85.5018 18.9241V67.7527C85.4559 67.8318 85.388 67.9053 85.3696 67.9899C84.4238 72.3439 81.7443 74.5173 77.3054 74.5191C68.3597 74.5191 59.4121 74.5191 50.4664 74.5191H49.2947C50.0312 77.621 50.7345 80.5758 51.449 83.5858C53.0045 83.5858 54.4976 83.5692 55.9888 83.5894C58.8355 83.6299 61.0613 85.441 61.5866 88.1825C61.717 88.8573 61.6802 89.5652 61.7243 90.3356C62.0696 90.3356 62.3671 90.3356 62.6665 90.3356C64.2551 90.3356 65.8418 90.3136 67.4304 90.343C68.9345 90.3724 69.7995 91.9188 68.9933 93.1323C68.7674 93.4725 68.3983 93.7152 68.0934 94.002L68.0897 94.0002ZM4.24468 58.4911C4.24468 61.2474 4.24285 63.8418 4.24652 66.438C4.24652 66.8352 4.25019 67.2342 4.29427 67.6295C4.46507 69.1446 5.74696 70.4832 7.2621 70.7001C7.80387 70.7774 8.35667 70.7902 8.90579 70.7902C31.6273 70.7939 54.347 70.7939 77.0685 70.7939C77.3128 70.7939 77.557 70.7994 77.8013 70.7902C80.2769 70.6983 81.6966 69.2641 81.7168 66.7947C81.7351 64.2867 81.7241 61.7788 81.7168 59.2708C81.7168 59.0372 81.669 58.8037 81.6341 58.493H80.3173C61.9025 58.493 43.4876 58.493 25.0727 58.4893C24.6173 58.4893 24.1526 58.4856 23.7064 58.3992C22.8671 58.2374 22.3106 57.5571 22.2812 56.7278C22.25 55.8232 22.6706 55.1815 23.5209 54.913C23.9745 54.7696 24.4814 54.7586 24.9644 54.7567C43.4711 54.7494 61.9778 54.7512 80.4844 54.7512H81.7204C81.7204 54.2971 81.7204 53.9661 81.7204 53.6351C81.7204 42.5312 81.7204 31.4291 81.7204 20.3252C81.7204 19.9887 81.7186 19.6522 81.6929 19.3176C81.5533 17.4605 80.0639 16.0153 78.2072 15.9638C77.1695 15.9344 76.1264 16.0134 75.0942 15.9344C74.2678 15.8719 73.7591 16.1955 73.2559 16.8133C68.3377 22.8571 63.4084 28.8936 58.4443 34.8988C57.6509 35.8586 56.9824 36.7301 57.6013 38.0429C57.7501 38.3574 57.7115 38.7637 57.7409 39.1296C58.0953 43.7613 55.3001 47.8561 51.0008 48.7166C49.3516 49.0476 47.5996 48.9814 45.9026 48.9078C43.1442 48.7883 40.5657 49.0255 38.3931 51.0334C37.3499 51.9987 35.8403 51.4416 35.4601 50.0239C34.529 46.5561 33.9762 43.0571 34.3545 39.4312C35.0028 33.2108 39.5978 28.8439 45.8549 28.6729C46.4499 28.6564 46.7787 28.4559 47.1001 27.9705C49.5739 24.2251 52.0789 20.498 54.571 16.7636C54.7161 16.5448 54.841 16.3113 55.0541 15.9509C54.6243 15.9509 54.3305 15.9509 54.0366 15.9509C38.8283 15.9509 23.62 15.9822 8.41176 15.9178C6.10692 15.9086 4.20612 17.4807 4.22081 20.134C4.28876 31.328 4.24836 42.5239 4.25203 53.7197C4.25203 54.0415 4.27958 54.3651 4.29794 54.7531C6.00775 54.7531 7.62206 54.7292 9.23453 54.7604C10.5513 54.7843 11.3796 55.654 11.2731 56.8216C11.1831 57.8127 10.4117 58.4636 9.21616 58.4838C7.60553 58.5095 5.99306 58.4911 4.25019 58.4911H4.24468ZM61.1219 25.8211C62.571 24.0522 63.9465 22.379 65.3166 20.7021C68.0236 17.3925 70.7582 14.1049 73.423 10.7621C75.1016 8.65679 74.5267 5.67074 72.2825 4.32297C70.2146 3.08001 67.7555 3.69781 66.3065 5.85829C62.8887 10.9533 59.4856 16.0594 56.0788 21.1636C55.9503 21.3567 55.8529 21.5718 55.7225 21.809C57.5223 23.1476 59.2817 24.4531 61.1219 25.8211ZM38.3949 46.3097C39.6897 45.9806 40.9054 45.5154 42.1561 45.3922C43.8769 45.2212 45.6235 45.2911 47.359 45.2893C48.887 45.2893 50.4297 45.3812 51.7759 44.4655C53.6748 43.1748 54.4443 40.8745 53.9007 38.3684C53.7354 37.609 53.4049 37.0592 52.7529 36.6069C51.2745 35.5809 49.7869 34.5512 48.4242 33.38C47.3241 32.4331 46.2148 32.2014 44.8209 32.479C41.7356 33.0932 39.4785 34.6413 38.5051 37.7414C37.6015 40.6208 37.8788 43.5149 38.3949 46.3116V46.3097ZM57.9227 90.3117C58.1964 88.0979 57.5407 87.333 55.4416 87.333C47.0743 87.333 38.709 87.3312 30.3417 87.333C28.4226 87.333 27.6016 88.4289 28.1122 90.3099H57.9245L57.9227 90.3117ZM47.629 83.5324C46.9035 80.4784 46.2002 77.5254 45.4949 74.5632H40.4702C39.7613 77.5511 39.0597 80.5059 38.3417 83.5324H47.629ZM53.6179 24.8576C52.426 26.6393 51.2965 28.3291 50.134 30.0666C51.7024 31.2287 53.2322 32.365 54.808 33.5326C56.156 31.887 57.4415 30.3149 58.7712 28.6931C57.0522 27.4134 55.392 26.1796 53.6179 24.8576Z" fill="white"/>
<path d="M18.6026 56.597C18.6191 57.6359 17.8184 58.4596 16.7881 58.4688C15.7688 58.4761 14.946 57.6451 14.9497 56.6135C14.9552 55.6427 15.7578 54.8079 16.7238 54.7693C17.7045 54.7307 18.5879 55.5894 18.6026 56.597Z" fill="white"/>
</g>
<defs>
<clipPath id="clip0_751_33607">
<rect width="85" height="94" fill="white" transform="translate(0.5)"/>
</clipPath>
</defs>
</svg>
