<svg width="90" height="99" viewBox="0 0 90 99" fill="none" xmlns="http://www.w3.org/2000/svg">
<g clip-path="url(#clip0_751_33629)">
<path d="M59.0187 84.1229C60.1962 84.7203 61.1713 85.5658 61.9604 86.6158C63.6172 88.8214 63.5181 91.4508 61.6671 93.6006C59.7562 95.8186 57.176 96.9121 54.4615 97.741C52.72 98.2723 50.9289 98.5699 49.1234 98.787C48.9085 98.8118 48.6255 98.6878 48.5016 98.9999H47.6773C47.4707 98.8449 47.2662 98.8449 47.0596 98.9999H45.8243C45.4132 98.8759 44.812 98.7601 45.3037 98.1875C46.2849 97.0465 47.1195 95.6967 48.7453 95.3142C51.2037 94.8781 53.6475 94.3902 55.9592 93.3898C56.9116 92.9763 57.7854 92.443 58.5456 91.7464C59.8863 90.5206 59.8492 89.3031 58.4981 88.0732C57.9693 87.5915 57.2648 87.329 56.8351 86.7254C57.0086 85.3921 58.1035 84.8319 59.0187 84.1208V84.1229Z" fill="white"/>
<path d="M5.65011 15.0918C6.86895 14.697 8.11877 14.9057 9.35827 14.9037C9.6227 15.3977 9.20953 15.6416 8.95543 15.9145C8.22206 16.7021 7.41019 17.4152 6.73054 18.2524C5.33404 18.7568 4.38376 19.7118 3.87763 21.1091C3.03271 21.7933 2.31999 22.6181 1.52465 23.354C1.2499 23.6083 0.99993 24.0382 0.5 23.7364V20.0239C0.557843 20.0053 0.615686 20.0012 0.67353 20.0115C2.35098 18.3909 3.94374 16.6834 5.65011 15.0897V15.0918Z" fill="white"/>
<path d="M48.7081 95.5273C47.2641 95.9655 46.541 97.2678 45.5226 98.2083C45.0474 98.6466 45.5949 98.783 45.8242 98.998H44.5888C44.1777 98.8285 43.7645 98.8285 43.3534 98.998H42.3226C42.1863 98.8677 42.0478 98.8677 41.9115 98.998H41.0872C40.5976 98.6218 39.9738 98.7417 39.4346 98.5494C39.0297 98.3468 39.1206 97.9996 39.3168 97.7742C40.265 96.6849 41.0253 95.2916 42.7977 95.4012C44.4587 95.333 46.1258 95.4942 47.7826 95.2482C48.1172 95.1986 48.4664 95.2172 48.7101 95.5273H48.7081Z" fill="white"/>
<path d="M0.906968 73.0266C0.619818 72.824 0.820203 72.3796 0.5 72.1936V69.5125C1.12595 68.4376 2.08449 67.6666 2.98726 66.8542C3.25788 66.6124 3.66072 66.2754 3.98712 66.8625C4.16271 68.0077 4.13999 69.1528 4.00571 70.298C3.04303 71.2861 2.27868 72.5036 0.906968 73.0266Z" fill="white"/>
<path d="M0.5 56.5229V52.8104C1.2499 51.9629 2.06383 51.1753 2.89016 50.4022C3.19591 50.117 3.57189 49.7097 3.97885 50.3257C4.17304 51.4172 4.12553 52.5107 4.01604 53.6042C3.20623 54.7535 2.06177 55.5679 1.05984 56.525C0.9111 56.6676 0.685925 56.6862 0.5 56.5229Z" fill="white"/>
<path d="M0.5 49.0979V45.3854C1.25196 44.5378 2.06383 43.7503 2.89016 42.9772C3.19591 42.6919 3.57189 42.2847 3.97885 42.9007C4.17304 43.9921 4.12759 45.0856 4.01191 46.1771C3.18971 47.2664 2.11548 48.1036 1.14454 49.0441C0.971009 49.2116 0.731373 49.2901 0.5 49.0958L0.5 49.0979Z" fill="white"/>
<path d="M3.76194 42.7063C2.80133 43.0928 2.31173 44.0189 1.55564 44.639C1.22097 44.914 1.01439 45.3687 0.5 45.3873V41.6748C1.24576 40.8418 2.02665 40.0397 2.87157 39.3121C3.18144 39.0454 3.6132 38.5576 4.00778 39.2832C4.05116 40.4325 4.40855 41.6045 3.76194 42.7042V42.7063Z" fill="white"/>
<path d="M0.5 49.0979C1.15074 49.0194 1.40896 48.4282 1.83659 48.0623C2.477 47.5124 2.9542 46.7724 3.76194 46.4189C4.31972 47.6571 4.31972 48.8933 3.76194 50.1315C2.80133 50.518 2.31173 51.4441 1.55564 52.0642C1.22097 52.3371 1.01439 52.7918 0.5 52.8104V49.0979Z" fill="white"/>
<path d="M0.5 66.0067V62.5009C1.22717 61.6844 1.99773 60.9072 2.81579 60.1858C3.12567 59.9108 3.52231 59.4251 3.98505 60.0514C4.15858 61.1408 4.14619 62.2301 3.99538 63.3216C3.07196 64.2249 2.08242 65.06 1.14867 65.9551C0.973075 66.1225 0.733439 66.2052 0.5 66.0088L0.5 66.0067Z" fill="white"/>
<path d="M0.5 66.0068C1.35112 65.7774 1.7333 64.9836 2.34065 64.4606C2.77654 64.0844 3.136 63.611 3.76194 63.5325C4.31145 64.564 4.31145 65.5954 3.76194 66.6249C2.43775 67.3215 1.69818 68.6775 0.5 69.5126V66.0068Z" fill="white"/>
<path d="M3.76194 59.8219C2.8096 60.2725 2.23943 61.1614 1.47714 61.8311C1.17966 62.0916 0.97514 62.4947 0.5 62.5009V59.4085C1.23337 58.5134 2.10928 57.7569 2.93974 56.959C3.24755 56.6634 3.65658 56.3182 3.99951 56.9755C4.08421 57.9388 4.3569 58.9165 3.76194 59.8219Z" fill="white"/>
<path d="M0.5 23.7365C1.27882 23.5794 1.58043 22.8331 2.14027 22.4032C2.70011 21.9732 3.01205 21.2394 3.77434 21.0554C4.34451 21.8781 4.05116 22.7835 4.0243 23.662C2.94181 24.8196 2.02871 26.1653 0.5 26.8289V23.7365Z" fill="white"/>
<path d="M0.5 26.8288C1.69818 25.9937 2.43775 24.6377 3.76194 23.9431C4.3569 24.772 4.05529 25.6857 4.01191 26.5745C3.2021 27.6308 2.16919 28.468 1.22924 29.3982C1.03918 29.5884 0.780953 29.7352 0.5 29.5098V26.8288Z" fill="white"/>
<path d="M3.76194 56.7276C3.06782 56.8764 2.77654 57.5214 2.29314 57.9307C1.70438 58.433 1.26849 59.1234 0.5 59.4086V56.5209C1.08463 56.4775 1.3284 55.9669 1.68785 55.6279C2.35305 54.9995 2.95834 54.307 3.76194 53.8398C4.30525 54.801 4.30525 55.7643 3.76194 56.7255V56.7276Z" fill="white"/>
<path d="M3.76194 38.9959C2.8096 39.4465 2.23943 40.3353 1.47714 41.0051C1.17966 41.2655 0.97514 41.6686 0.5 41.6748V38.7871C1.3098 38.1029 2.07003 37.3628 2.83852 36.6332C3.15252 36.3334 3.54916 35.8456 3.99125 36.5381C4.08834 37.3732 4.32385 38.2207 3.76194 38.9917V38.9959Z" fill="white"/>
<path d="M0.5 34.4586V32.191C1.07017 31.1864 1.94815 30.4649 2.79513 29.7228C3.11121 29.4458 3.52644 29.1378 3.94993 29.636C4.15238 30.2892 4.109 30.9486 3.99538 31.608C3.30126 32.7077 2.34478 33.5511 1.32427 34.3304C1.09289 34.5061 0.818137 34.7046 0.5 34.4586Z" fill="white"/>
<path d="M3.76194 29.5099C2.76621 29.6939 2.3138 30.5827 1.62794 31.1677C1.24163 31.4964 0.873915 31.8478 0.5 32.1909C0.5 31.2979 0.5 30.4029 0.5 29.5099C1.27675 29.3528 1.58043 28.6107 2.13614 28.1807C2.69391 27.7487 3.00998 27.0273 3.76194 26.8289C4.28873 27.7218 4.28873 28.6169 3.76194 29.5099Z" fill="white"/>
<path d="M0.5 34.4585C1.5763 34.1526 2.16712 33.2286 2.93768 32.534C3.2145 32.2839 3.48719 32.0297 3.76194 31.7795C4.29493 32.3976 4.05942 33.1108 4.01604 33.8012C3.30333 35.0311 2.19811 35.8931 1.16313 36.8212C0.991667 36.9742 0.749965 37.061 0.5 36.9328V34.4585Z" fill="white"/>
<path d="M0.5 36.933C1.84485 36.2612 2.59268 34.9176 3.76194 34.0474C4.26807 34.8039 4.26807 35.5605 3.76194 36.315C2.90669 36.6044 2.49146 37.4085 1.85931 37.9563C1.44822 38.3159 1.09083 38.7335 0.5 38.7893V36.933Z" fill="white"/>
<path d="M43.3516 99C43.7627 98.6796 44.1758 98.6961 44.5869 99H43.3516Z" fill="white"/>
<path d="M47.0596 98.9998C47.2662 98.7559 47.4707 98.6877 47.6773 98.9998H47.0596Z" fill="white"/>
<path d="M41.9094 99C42.0458 98.7147 42.1842 98.7602 42.3205 99H41.9094Z" fill="white"/>
<path d="M89.4627 54.6666C89.471 60.2271 89.5433 65.7897 89.4606 71.3481C89.4111 74.6431 86.5933 77.4688 83.3003 77.5164C77.609 77.5991 71.9156 77.5267 66.2221 77.5184C66.1953 77.4192 66.1705 77.3014 66.2345 77.2249C67.2034 76.0632 68.2157 74.9449 69.4262 74.0209C70.8992 73.8493 72.3742 73.9527 73.8471 73.9423C76.7289 73.9217 79.6087 73.9589 82.4905 73.9279C84.7134 73.9051 85.8578 72.7641 85.8743 70.544C85.9033 66.7674 85.8806 62.9908 85.8847 59.2142C85.8847 58.6995 85.8558 58.1827 85.9549 57.6742C86.7771 56.4691 87.9216 55.5802 88.9979 54.6273C89.1239 54.5157 89.314 54.5301 89.4606 54.6604L89.4627 54.6666Z" fill="white"/>
<path d="M59.0187 84.123C58.6324 84.77 58.0085 85.1958 57.5169 85.7457C57.2752 86.0165 56.9364 86.2252 56.9385 86.6531C55.9014 86.68 55.0565 86.0764 54.1248 85.7684C53.3336 85.5059 52.906 85.5948 52.4845 86.3844C50.9785 89.2163 48.5409 90.684 45.376 90.9858C44.7542 91.0457 44.1386 91.0085 43.5891 90.653C43.2152 90.1341 43.6407 89.8303 43.9258 89.5285C44.6736 88.743 45.4628 87.9967 46.1528 87.1554C47.7496 86.5084 48.8652 85.3571 49.6337 83.8398C50.6273 83.3396 51.3215 82.4879 52.1127 81.7479C52.4081 81.4709 52.6519 80.9934 53.2034 81.2662C53.1353 81.8574 53.5939 81.874 53.9781 81.9877C55.7382 82.5086 57.49 83.0502 59.0187 84.123Z" fill="white"/>
<path d="M53.2054 81.2662C52.3564 81.5474 51.9329 82.3329 51.3235 82.8951C50.8483 83.3333 50.398 83.7716 49.7596 83.9473C49.4973 83.7054 49.5551 83.3933 49.5758 83.0894C49.6915 81.3262 49.6377 79.5629 49.6047 77.7997C49.5902 77.5537 49.6233 77.3057 49.7885 77.1238C50.776 76.0468 51.7346 74.9388 52.8956 74.0334C55.3022 73.8763 57.7069 73.8887 60.1115 74.021C60.8903 74.3559 60.4358 74.821 60.159 75.1435C59.4256 75.993 58.6448 76.8034 57.7709 77.5186C56.4694 77.531 55.1659 77.564 53.8644 77.5413C53.3707 77.533 53.2158 77.6819 53.2282 78.178C53.2529 79.2053 53.2158 80.2348 53.2054 81.2642V81.2662Z" fill="white"/>
<path d="M57.7729 77.5206C57.9196 76.8302 58.558 76.5388 58.9649 76.0613C59.4669 75.4763 60.1342 75.0318 60.4503 74.2897C60.7519 73.9239 61.1795 73.9383 61.5865 73.9342C63.7143 73.9135 65.84 73.9135 67.9678 73.9342C68.3748 73.9383 68.8024 73.9259 69.104 74.2897C68.7032 75.2737 67.7592 75.7781 67.1167 76.5491C66.8357 76.886 66.5238 77.1982 66.2263 77.5206C63.4085 77.5206 60.5928 77.5206 57.775 77.5206H57.7729Z" fill="white"/>
<path d="M80.4332 14.9037C81.7388 14.9099 83.0568 14.6887 84.3438 15.0918C84.414 15.2737 84.3603 15.4432 84.2426 15.5672C83.3501 16.5098 82.5011 17.4937 81.5178 18.3495C81.3876 18.3909 81.2513 18.4364 81.1149 18.4219C80.208 18.3289 79.7515 18.6741 79.8734 19.6394C79.9023 19.8751 79.8548 20.119 79.7597 20.3464C78.9479 21.2145 78.0802 22.0248 77.225 22.8455C76.9254 23.1328 76.5494 23.5235 76.1342 22.9406C75.9173 21.7231 75.9793 20.5035 76.0867 19.2839C77.4274 17.7211 78.9396 16.3217 80.4311 14.9057L80.4332 14.9037Z" fill="white"/>
<path d="M88.054 17.5496C89.1985 18.7361 89.5063 20.2099 89.4981 21.7892C89.4939 22.5065 89.4753 23.2238 89.465 23.9431C88.8143 24.7658 88.0375 25.4687 87.2752 26.1839C86.9034 26.5332 86.4572 26.8702 86.0171 26.2231C85.7775 24.9767 85.9283 23.7178 85.9097 22.4672C85.8973 21.6486 85.8519 20.8404 85.6226 20.0508C85.7506 18.8849 87.0542 17.5475 88.054 17.5516V17.5496Z" fill="white"/>
<path d="M10.4222 7.65247C10.166 2.80717 13.1697 -0.198403 18.012 0.0579184C18.2909 0.514749 17.9025 0.752467 17.667 1.00465C17.0659 1.65579 16.4255 2.26972 15.7954 2.89192C15.4752 3.20819 15.1839 3.53479 15.0992 3.99576C14.9608 4.34303 14.7191 4.58902 14.372 4.73165C13.1387 5.15747 12.5438 6.33573 11.5935 7.09022C11.2526 7.36101 11.0378 7.9398 10.4222 7.65041V7.65247Z" fill="white"/>
<path d="M89.4627 54.6666C88.7727 54.8133 88.4814 55.4521 88.0042 55.8593C87.4196 56.3616 86.9755 57.0293 86.2338 57.3456C85.924 57.1078 85.8992 56.7564 85.8992 56.4174C85.8992 54.8464 85.8062 53.2754 85.9529 51.7085C86.7668 50.491 87.9216 49.6104 88.9979 48.6534C89.1239 48.5417 89.316 48.5541 89.4627 48.6864C89.4627 50.6791 89.4627 52.6739 89.4627 54.6666Z" fill="white"/>
<path d="M89.4629 48.6864C88.7729 48.8332 88.4816 49.4719 88.0044 49.8792C87.4198 50.3815 86.9756 51.0491 86.234 51.3654C85.9551 51.1587 85.9076 50.8466 85.9055 50.5406C85.8931 49.073 85.8043 47.6033 85.9572 46.1398C86.7649 44.9966 87.8288 44.1057 88.8824 43.2045C89.0353 43.0742 89.2522 43.035 89.4608 43.1238V48.6864H89.4629Z" fill="white"/>
<path d="M89.4627 27.8605V33.0158C88.7624 33.8881 87.932 34.6385 87.1242 35.4054C86.8061 35.7072 86.395 36.1558 85.9963 35.4447C85.8269 33.8282 85.8393 32.2117 85.9818 30.5952C86.7379 29.5803 87.7212 28.7824 88.6302 27.9183C88.8616 27.6992 89.1653 27.6083 89.4607 27.8625L89.4627 27.8605Z" fill="white"/>
<path d="M6.68091 18.147C6.90815 17.3346 7.68903 16.9873 8.16004 16.3796C8.54842 15.8773 9.20948 15.6003 9.35822 14.9058C10.1701 15.0071 10.5233 14.6515 10.4221 13.8412C11.1782 12.9234 12.0583 12.1255 12.9135 11.3049C13.1531 11.0733 13.4713 10.5648 13.8721 11.1808C14.0394 12.1379 14.0332 13.097 13.8803 14.0541C12.3206 15.3853 10.9076 16.8654 9.52555 18.3806C8.56494 18.455 7.58781 18.7216 6.68091 18.1491V18.147Z" fill="white"/>
<path d="M89.4628 43.1239C88.5125 43.5642 87.9526 44.451 87.1945 45.1125C86.897 45.3729 86.6987 45.7719 86.2339 45.8008C85.924 45.5631 85.9033 45.2096 85.9013 44.8727C85.8951 43.6428 85.8186 42.4128 85.9529 41.185C86.6739 39.829 87.8824 38.9256 88.9938 37.9334C89.1219 37.8197 89.312 37.8321 89.4607 37.9644C89.4607 39.6843 89.4607 41.4041 89.4607 43.1239H89.4628Z" fill="white"/>
<path d="M89.4628 37.9645C88.4794 38.3635 87.9754 39.3123 87.2048 39.9551C86.8681 40.2363 86.5582 40.5505 86.2359 40.8502C85.9901 40.6704 85.9219 40.3996 85.9075 40.1247C85.8476 38.8906 85.8476 37.6545 85.9075 36.4204C85.9199 36.1455 85.9901 35.8747 86.2359 35.6948C87.1201 35.393 87.5271 34.5331 88.2109 33.9957C88.6282 33.667 88.8616 33.1048 89.4648 33.0159C89.4648 34.6654 89.4648 36.315 89.4648 37.9645H89.4628Z" fill="white"/>
<path d="M79.3567 4.97332C79.7761 6.32935 79.5819 7.71844 79.5736 9.0972C78.8816 9.94885 78.0842 10.7033 77.2682 11.4289C76.9645 11.6997 76.5472 12.1999 76.1113 11.5157C75.9502 10.168 75.9543 8.82021 76.103 7.47246C76.7682 6.565 77.6586 5.87665 78.4498 5.09322C78.6936 4.85136 79.0097 4.68393 79.3547 4.97332H79.3567Z" fill="white"/>
<path d="M58.3866 0.0578613C59.7624 0.0578613 61.1362 0.0578613 62.512 0.0578613C62.6794 0.245968 62.6339 0.463015 62.4976 0.609779C61.5617 1.61646 60.6982 2.69342 59.5951 3.5368C58.3783 3.66496 57.1636 3.69184 55.9489 3.5244C55.3725 3.24121 55.5915 2.84639 55.8766 2.54666C56.6905 1.69501 57.4404 0.777215 58.3866 0.0599284V0.0578613Z" fill="white"/>
<path d="M80.4332 14.9038C80.1502 15.7554 79.3899 16.2102 78.7991 16.7848C78.012 17.5497 77.3985 18.5212 76.347 18.9946C75.6983 17.8267 76.064 16.5864 76.0846 15.373C76.88 14.2568 77.9666 13.4237 78.9334 12.4708C79.1007 12.3054 79.3362 12.1979 79.5759 12.3964C79.5883 12.9628 79.6606 13.5354 79.5945 14.0914C79.5118 14.7984 79.8589 14.941 80.4353 14.9058L80.4332 14.9038Z" fill="white"/>
<path d="M59.8325 3.28875C60.2787 2.34202 61.1608 1.7777 61.8219 1.01907C62.0822 0.721403 62.4809 0.522961 62.5098 0.0578613C63.8815 0.0578613 65.2533 0.0578613 66.625 0.0578613C66.7117 0.318317 66.594 0.543632 66.4432 0.72347C65.5941 1.74462 64.7368 2.76164 63.6481 3.55127C62.6813 3.70631 61.7104 3.62776 60.7394 3.61949C60.4068 3.61742 60.0618 3.59468 59.8325 3.28875Z" fill="white"/>
<path d="M89.4628 27.8603C88.8885 27.7838 88.6447 28.2572 88.2853 28.5528C87.585 29.1274 87.1511 30.0101 86.236 30.3346C85.6658 29.0282 85.6658 27.7239 86.236 26.4174C86.8082 26.4919 87.054 26.0185 87.4135 25.725C88.1138 25.1503 88.5476 24.2677 89.4628 23.9431V27.8603Z" fill="white"/>
<path d="M69.9222 0.0578781C71.3249 0.0723478 72.7338 -0.1509 74.1241 0.19224C72.9631 1.26507 71.9674 2.50947 70.7444 3.52028C69.6557 3.67325 68.5671 3.68152 67.4784 3.52028C66.9702 3.2867 67.0817 2.90429 67.3544 2.62109C68.1911 1.74877 68.9203 0.764829 69.9222 0.0578781Z" fill="white"/>
<path d="M13.651 10.9514C12.8722 11.7079 12.0996 12.4666 11.3146 13.2169C11.0522 13.4691 10.8518 13.8205 10.4221 13.8391C10.4221 12.6009 10.4221 11.3648 10.4221 10.1266C11.1245 9.25222 11.957 8.4998 12.7668 7.73083C13.0891 7.4249 13.5064 6.98874 13.8927 7.71223C13.9464 8.80366 14.2749 9.9137 13.6489 10.9514H13.651Z" fill="white"/>
<path d="M20.4828 0.0578452C21.7182 0.0578452 22.9556 0.0578452 24.191 0.0578452C24.3624 0.248019 24.3108 0.465065 24.1745 0.61183C23.2056 1.64952 22.3317 2.79056 21.084 3.53265C20.0614 3.65048 19.0388 3.68769 18.0203 3.51198C17.3861 3.12957 17.7724 2.73888 18.0637 2.43089C18.8425 1.61024 19.6007 0.76893 20.4849 0.0537109L20.4828 0.0578452Z" fill="white"/>
<path d="M46.0287 0.0578613C47.1959 0.0578613 48.3631 0.0578613 49.5303 0.0578613C49.7576 0.349324 49.5778 0.595309 49.394 0.781349C48.4891 1.70328 47.6504 2.69342 46.6464 3.5182C45.566 3.67323 44.4856 3.67323 43.4072 3.52647C42.7461 3.16886 43.2357 2.82158 43.4733 2.57353C44.2996 1.70948 45.1033 0.820624 46.0308 0.0578613H46.0287Z" fill="white"/>
<path d="M46.0287 0.0578613C45.628 1.0418 44.6818 1.54618 44.0393 2.31928C43.7584 2.65622 43.4444 2.96628 43.1448 3.28875C42.1243 3.91508 41.0274 3.58228 39.9552 3.54714C39.2776 3.26601 39.6681 2.89187 39.9263 2.62108C40.765 1.74049 41.5851 0.839228 42.5272 0.0599284C43.6944 0.0599284 44.8615 0.0599284 46.0287 0.0599284V0.0578613Z" fill="white"/>
<path d="M58.3866 0.0578613C57.9466 1.00873 57.0603 1.56892 56.4013 2.32755C56.1431 2.62521 55.7423 2.82365 55.7134 3.28875C54.7466 3.91302 53.7054 3.58848 52.6849 3.5368C51.9742 3.16679 52.3792 2.7451 52.687 2.4185C53.4265 1.63713 54.1682 0.855765 54.8891 0.0578613C56.0543 0.0578613 57.2215 0.0578613 58.3866 0.0578613Z" fill="white"/>
<path d="M79.5759 12.3963C78.7723 12.634 78.4231 13.4092 77.8179 13.8805C77.3179 14.2691 77.0411 14.9285 76.3491 15.0773C75.8016 13.9776 75.8016 12.8779 76.3491 11.7782C77.2952 11.3296 77.8592 10.4491 78.6173 9.78552C78.9148 9.52506 79.1131 9.12404 79.5779 9.09717C79.5779 10.1969 79.5779 11.2966 79.5779 12.3963H79.5759Z" fill="white"/>
<path d="M69.9221 0.0578613C69.385 0.969456 68.5897 1.65367 67.8646 2.40196C67.6126 2.66242 67.2655 2.86293 67.249 3.28875C66.1499 3.83653 65.0509 3.83653 63.9519 3.28875C64.0593 2.65828 64.6171 2.38129 65.0013 1.9782C65.5839 1.37047 66.183 0.783416 66.623 0.0578613C67.722 0.0578613 68.8211 0.0578613 69.9201 0.0578613H69.9221Z" fill="white"/>
<path d="M79.3569 4.97348C78.7371 4.90113 78.4954 5.43857 78.1112 5.74657C77.51 6.23028 77.1526 6.99924 76.347 7.24109C75.9173 6.3605 75.8491 5.34969 75.3616 4.4877C75.7892 3.34666 76.5907 2.5715 77.7001 2.09399C78.5905 2.85882 79.1069 3.83863 79.3569 4.97141V4.97348Z" fill="white"/>
<path d="M42.5273 0.0577312C42.1265 1.04167 41.1804 1.54605 40.5379 2.31915C40.2569 2.65609 39.9429 2.96615 39.6434 3.28862C38.8232 3.87981 37.9205 3.58422 37.0425 3.53461C36.619 3.39404 36.6231 3.08191 36.8731 2.83799C37.8089 1.92433 38.4617 0.727474 39.6393 0.0556641C40.6019 0.0556641 41.5646 0.0556641 42.5293 0.0556641L42.5273 0.0577312Z" fill="white"/>
<path d="M21.3071 3.28875C22.0612 2.50945 22.8214 1.73635 23.5692 0.950852C23.8212 0.688329 24.1724 0.48782 24.191 0.0578613C25.2198 0.0578613 26.2465 0.0578613 27.2753 0.0578613C27.3166 0.196358 27.3125 0.345189 27.2154 0.446478C26.2052 1.50484 25.3169 2.68516 24.1084 3.54921C23.1643 3.57815 22.1934 3.88821 21.3092 3.28875H21.3071Z" fill="white"/>
<path d="M24.3976 3.28875C25.0958 1.9782 26.4138 1.22164 27.2753 0.0578613C28.2359 0.0578613 29.1986 0.0578613 30.1592 0.0578613C30.2005 0.196358 30.1943 0.341055 30.0993 0.444411C29.1221 1.52758 28.1532 2.62108 27.0067 3.53887C26.1246 3.57815 25.2156 3.88408 24.3955 3.28668L24.3976 3.28875Z" fill="white"/>
<path d="M54.8869 0.0578613C54.7712 0.874369 54.0771 1.26712 53.6082 1.82731C53.2053 2.30894 52.5608 2.59834 52.4141 3.28875C51.5857 3.88201 50.6768 3.58848 49.7905 3.53267C49.0778 3.14819 49.5075 2.72856 49.8133 2.4061C50.5817 1.59372 51.3316 0.760678 52.2076 0.0578613C53.1 0.0578613 53.9924 0.0578613 54.8849 0.0578613H54.8869Z" fill="white"/>
<path d="M52.2098 0.0578613C51.9082 0.944651 51.0489 1.3498 50.5117 2.03402C50.1833 2.45157 49.6234 2.68516 49.5325 3.28875C48.6401 3.81586 47.7477 3.81586 46.8552 3.28875C47.0928 2.48465 47.8675 2.1353 48.3364 1.52964C48.7248 1.0294 49.3838 0.75241 49.5325 0.0599284C50.425 0.0599284 51.3174 0.0599284 52.2119 0.0599284L52.2098 0.0578613Z" fill="white"/>
<path d="M27.2814 3.28875C27.6801 2.30481 28.6262 1.80043 29.2687 1.0294C29.5496 0.692463 29.8616 0.38033 30.1591 0.0578613C30.9833 0.0578613 31.8076 0.0578613 32.6319 0.0578613C32.7475 0.353458 32.6277 0.613913 32.4418 0.810289C31.5576 1.74669 30.7313 2.74097 29.7025 3.53474C28.8803 3.59262 28.0375 3.86341 27.2793 3.28875H27.2814Z" fill="white"/>
<path d="M20.4827 0.0578613C20.1956 0.911577 19.3713 1.30433 18.8569 1.96167C18.5078 2.4061 17.9149 2.65415 17.8054 3.28875C16.9088 3.77039 15.8718 3.67323 14.9339 3.98123C14.8327 3.45825 15.2004 3.18126 15.4937 2.84432C16.3159 1.89965 17.4397 1.22784 18.012 0.0578613C18.8362 0.0578613 19.6605 0.0578613 20.4848 0.0578613H20.4827Z" fill="white"/>
<path d="M13.6511 7.44781C12.8496 7.68553 12.4984 8.46069 11.8931 8.93199C11.3932 9.32061 11.1164 9.98002 10.4243 10.1288C10.4243 9.30407 10.4243 8.4793 10.4243 7.65452C11.5936 7.08193 12.265 5.95742 13.207 5.13471C13.5437 4.84119 13.8205 4.47324 14.3432 4.57453C13.9507 5.49439 14.1531 6.55688 13.6511 7.44781Z" fill="white"/>
<path d="M70.957 3.28872C71.8247 2.06293 72.746 0.892944 74.126 0.192194C74.7912 0.18806 75.3841 0.415442 75.9377 0.762716C76.0286 0.975628 75.9687 1.17614 75.8262 1.32497C75.1093 2.07946 74.4648 2.90631 73.6116 3.52851C72.713 3.58845 71.7937 3.88612 70.957 3.28872Z" fill="white"/>
<path d="M34.9044 0.0578613C35.7286 0.0578613 36.5529 0.0578613 37.3772 0.0578613C37.5796 0.299713 37.4639 0.531229 37.3007 0.700732C36.3504 1.67641 35.5097 2.76784 34.3383 3.512C33.6917 3.63189 33.0451 3.66496 32.4006 3.49133C31.8449 2.97455 32.351 2.60661 32.634 2.29654C33.3488 1.51104 34.0739 0.729671 34.9044 0.0578613Z" fill="white"/>
<path d="M34.9043 0.0578613C34.7577 0.748275 34.1193 1.03974 33.7103 1.51724C33.2083 2.10223 32.541 2.54666 32.225 3.28875C31.4689 3.79519 30.7148 3.79519 29.9587 3.28875C30.1054 2.59834 30.7438 2.30687 31.1507 1.82937C31.6507 1.24438 32.3241 0.806154 32.6319 0.0578613C33.3901 0.0578613 34.1462 0.0578613 34.9043 0.0578613Z" fill="white"/>
<path d="M81.6704 18.1346C82.3026 16.8902 83.5627 16.2018 84.3457 15.0918C85.0501 15.1476 85.6678 15.4205 86.2318 15.8339C86.3227 16.0055 86.2937 16.1832 86.1739 16.3073C85.455 17.0618 84.8559 17.9361 83.9676 18.5211C83.2012 18.3992 82.3645 18.6803 81.6704 18.1346Z" fill="white"/>
<path d="M84.1414 18.3578C84.5731 17.2974 85.6804 16.7971 86.2299 15.8359C86.9839 16.2514 87.7111 16.6979 88.054 17.5516C87.0562 18.056 86.3084 18.8146 85.794 19.8069C85.0359 19.5609 84.6165 18.9304 84.1414 18.3578Z" fill="white"/>
<path d="M34.4932 3.28875C35.2472 2.50945 36.0074 1.73635 36.7552 0.950852C37.0073 0.688329 37.3585 0.48782 37.3771 0.0578613C38.1311 0.0578613 38.8851 0.0578613 39.6391 0.0578613C38.6785 1.13482 37.72 2.21179 36.7594 3.28875C36.0033 3.79519 35.2493 3.79519 34.4932 3.28875Z" fill="white"/>
<path d="M73.8141 3.40033C73.9484 2.57968 74.7148 2.25928 75.1672 1.69083C75.4172 1.37663 75.7869 1.16165 75.9357 0.762695C76.5492 1.17198 77.326 1.36629 77.6978 2.09598C76.917 2.81533 76.1154 3.51815 75.4791 4.37807C74.8077 4.24991 74.2603 3.91297 73.812 3.40239L73.8141 3.40033Z" fill="white"/>
<path d="M5.65003 15.0919C5.64177 15.5239 5.29678 15.7306 5.04061 15.989C3.89614 17.1466 2.74341 18.298 1.58655 19.4452C1.32832 19.7016 1.11347 20.0447 0.671387 20.0116C1.3779 17.405 2.94999 15.679 5.64797 15.0898L5.65003 15.0919Z" fill="white"/>
<path d="M28.4857 93.7101C26.4322 91.5789 26.3062 88.7118 28.2171 86.3926C30.1259 84.0753 32.7516 82.9198 35.5446 82.1591C36.5321 81.8904 36.8895 81.5183 36.7758 80.5302C36.7015 79.8915 36.782 79.2342 36.7944 78.5851C38.2901 77.0265 39.7362 75.4203 41.3992 74.0271C43.2109 73.9134 45.0226 73.8576 46.8302 74.0561C47.3301 74.2917 47.2289 74.6741 46.9562 74.9614C46.0535 75.9144 45.2416 76.9562 44.186 77.7582C43.2398 77.9484 42.2813 77.8513 41.3269 77.8492C40.6307 77.8492 40.3518 78.1221 40.3518 78.8228C40.3518 79.8791 40.4385 80.9395 40.2836 81.9937C39.8105 82.8351 38.9697 83.3312 38.3438 84.0319C37.9843 84.435 37.6063 84.8133 37.3315 85.2825C35.8875 85.7993 34.4043 86.2189 33.0615 86.9961C32.5574 87.2876 32.0472 87.5646 31.6071 87.9512C30.6837 88.7594 30.1734 89.6917 30.7519 90.9381C30.8386 91.1242 30.8903 91.3247 30.8552 91.5376C30.1094 92.3065 29.3946 93.1148 28.4898 93.7101H28.4857Z" fill="white"/>
<path d="M21.7243 77.5206C19.5944 77.5206 17.4646 77.5206 15.3347 77.5206C15.2004 77.3718 15.1901 77.1816 15.3037 77.0535C16.2457 75.9889 17.1258 74.8623 18.3012 74.0272C20.239 73.9053 22.1767 73.8763 24.1124 74.0355C24.7053 74.2732 24.5607 74.6804 24.257 75.0029C23.4431 75.8711 22.6787 76.793 21.7243 77.5206Z" fill="white"/>
<path d="M42.5912 95.6679C41.265 95.7505 39.4409 97.4166 39.4326 98.5494C37.8047 98.3386 36.1996 98.0368 34.6626 97.4352C34.737 96.3851 36.0818 94.965 37.3337 94.6116C38.9265 94.7232 40.4779 95.1428 42.0707 95.2586C42.3062 95.2751 42.5334 95.3826 42.5912 95.6658V95.6679Z" fill="white"/>
<path d="M30.9896 77.5205C29.4113 77.5205 27.8309 77.5205 26.2526 77.5205C26.0832 77.3324 26.1307 77.1154 26.2671 76.9686C27.207 75.9619 28.0644 74.8746 29.1799 74.0395C30.5847 73.9113 31.9874 73.8886 33.388 74.0457C34.0945 74.4405 33.6194 74.8705 33.3508 75.1785C32.6195 76.0136 31.8531 76.8177 30.9896 77.5226V77.5205Z" fill="white"/>
<path d="M30.9896 77.5207C31.1363 76.8303 31.7746 76.5388 32.1816 76.0613C32.6836 75.4763 33.3509 75.0319 33.6669 74.2898C34.0264 73.8743 34.5242 73.9446 34.9829 73.9487C35.9559 73.957 36.9351 73.8536 37.9019 74.0314C38.6724 74.3993 38.2758 74.9017 37.9721 75.2758C37.3028 76.0964 36.555 76.8509 35.7266 77.5207C34.1462 77.5207 32.5679 77.5207 30.9875 77.5207H30.9896Z" fill="white"/>
<path d="M28.93 74.2897C28.4838 75.2365 27.6016 75.8008 26.9406 76.5594C26.6803 76.8571 26.2795 77.0555 26.2527 77.5206C24.7425 77.5206 23.2345 77.5206 21.7244 77.5206C22.1437 76.5966 23.001 76.055 23.6373 75.3212C23.9162 74.9987 24.3562 74.79 24.3975 74.2897C25.9077 73.713 27.4199 73.713 28.93 74.2897Z" fill="white"/>
<path d="M11.2135 77.5206C9.83762 77.5206 8.46384 77.5206 7.088 77.5206C6.64178 77.2891 6.85663 76.9853 7.06114 76.7744C7.95978 75.8484 8.79024 74.8499 9.81489 74.0479C11.0854 73.9094 12.3538 73.8929 13.6222 74.0479C14.3205 74.4717 13.8226 74.8975 13.5499 75.2055C12.8248 76.0261 12.0666 76.8261 11.2114 77.5206H11.2135Z" fill="white"/>
<path d="M11.2134 77.5205C11.3601 76.8301 11.9984 76.5386 12.4054 76.0611C12.9074 75.4761 13.5746 75.0317 13.8907 74.2896C15.2645 73.7212 16.6382 73.7212 18.012 74.2896C17.5658 75.2364 16.6837 75.8007 16.0226 76.5593C15.7623 76.857 15.3616 77.0554 15.3347 77.5205C13.9609 77.5205 12.5872 77.5205 11.2134 77.5205Z" fill="white"/>
<path d="M9.56485 74.2898C9.14962 75.3068 8.15389 75.8091 7.51348 76.6257C7.30897 76.8861 6.80491 77.0205 7.08792 77.5186C5.80711 77.5621 4.63992 77.2251 3.59254 76.481C3.50578 76.3693 3.43967 76.2267 3.52437 76.113C4.17924 75.2324 4.82171 74.3332 5.9104 73.9219C6.75533 73.9549 7.60025 73.9467 8.44517 73.9632C8.84181 73.9715 9.26944 73.9219 9.56692 74.2898H9.56485Z" fill="white"/>
<path d="M37.2469 94.8368C36.0901 95.4093 35.2637 96.3106 34.6605 97.4351C33.5119 97.063 32.3819 96.6517 31.3738 95.9654C31.5556 94.5618 32.5637 93.9376 33.7268 93.4539C34.9311 93.8321 36.2491 93.9293 37.2469 94.8368Z" fill="white"/>
<path d="M33.7 93.6254C32.6733 94.1546 31.8945 94.9318 31.3739 95.9674C30.248 95.4259 29.2481 94.7189 28.4858 93.7102C29.1077 92.8564 29.7976 92.0771 30.75 91.5769C31.7375 92.2549 32.9501 92.6043 33.6979 93.6254H33.7Z" fill="white"/>
<path d="M35.7285 77.5207C36.0115 76.6691 36.811 76.2598 37.3543 75.6314C37.7096 75.2221 38.1269 74.8686 38.2013 74.2898C39.1619 73.7462 40.1246 73.7462 41.0852 74.2898C40.3436 75.6355 39.0524 76.4789 38.0464 77.5848C37.6911 77.9755 37.3998 78.4922 36.7924 78.5873C36.8957 77.7729 36.5445 77.4153 35.7285 77.5207Z" fill="white"/>
<path d="M0.906982 73.0268C1.95229 72.3074 2.5803 71.1064 3.76196 70.5442C4.20818 71.2615 4.24949 72.1049 4.49739 72.8821C3.80534 73.7544 2.98107 74.4965 2.15887 75.2407C1.53086 74.6226 1.08671 73.9012 0.909048 73.0268H0.906982Z" fill="white"/>
<path d="M2.15894 75.2405C2.70845 74.2731 3.42529 73.4773 4.45614 73.0039C5.04283 73.1011 5.48285 73.3843 5.67497 73.9754C5.32378 74.6431 4.68131 75.0462 4.20411 75.6002C3.97067 75.871 3.61121 76.0591 3.59262 76.4808C3.00799 76.1914 2.51632 75.7945 2.15894 75.2405Z" fill="white"/>
<path d="M41.2526 85.8076C42.6842 87.0727 44.31 87.6763 46.2312 87.2773C45.7912 88.2303 44.9029 88.7905 44.2418 89.5512C43.9816 89.8488 43.5808 90.0473 43.5581 90.5144C41.7463 90.2581 40.2527 89.4106 39.0256 88.067C39.4078 86.9569 40.1825 86.2376 41.2526 85.8076Z" fill="white"/>
<path d="M49.741 77.5207C47.9561 77.5207 46.1692 77.5207 44.3843 77.5207C44.8243 76.5698 45.7105 76.0096 46.3716 75.251C46.6298 74.9533 47.0306 74.7549 47.0595 74.2898C48.9146 74.2898 50.7677 74.2898 52.6228 74.2898C52.222 75.2737 51.2759 75.7781 50.6334 76.5491C50.3525 76.8861 50.0405 77.1982 49.741 77.5207Z" fill="white"/>
<path d="M76.3469 27.6538C76.3469 26.1407 76.3469 24.6296 76.3469 23.1165C77.2311 22.8147 77.6381 21.9548 78.3219 21.4173C78.7392 21.0886 78.9726 20.5264 79.5758 20.4375C79.5758 21.9506 79.5758 23.4617 79.5758 24.9748C78.8548 25.8409 78.0182 26.5913 77.2187 27.3788C76.9935 27.6 76.7518 27.9225 76.349 27.6538H76.3469Z" fill="white"/>
<path d="M13.6511 14.2505C13.6511 15.1435 13.6511 16.0385 13.6511 16.9315C12.8702 17.8452 11.9778 18.6493 11.1308 19.4968C10.9428 19.6849 10.7445 19.904 10.4222 19.8131C10.4098 19.4369 10.3602 19.0586 10.3974 18.6886C10.4491 18.1718 10.1227 18.1553 9.77148 18.1346C10.6763 16.452 11.9695 15.1559 13.6511 14.2505Z" fill="white"/>
<path d="M41.2526 85.8075C40.4552 86.5062 39.6826 87.2297 39.0257 88.0669C38.2468 87.2628 37.6147 86.3677 37.3441 85.2577C37.3358 85.0923 37.249 84.8463 37.3275 84.7699C38.2076 83.9265 38.881 82.8536 40.0193 82.2935C39.914 83.6453 40.5812 84.7264 41.2506 85.8055L41.2526 85.8075Z" fill="white"/>
<path d="M74.2501 52.6222C75.064 52.1861 75.6879 51.5598 76.1259 50.7453C76.9233 49.813 77.8384 48.9986 78.7061 48.1366C78.9292 47.9154 79.175 47.593 79.5758 47.8638C79.6233 48.9242 79.6688 49.9805 79.4229 51.0306C78.766 53.8336 76.2973 55.942 73.4258 56.0929C72.6759 56.1322 71.9219 56.0847 71.1699 56.0785C71.0914 55.849 71.2051 55.6671 71.3497 55.5245C72.3185 54.5612 73.1986 53.507 74.2522 52.6264L74.2501 52.6222Z" fill="white"/>
<path d="M61.4811 52.8455H68.2735C68.4016 53.1824 68.2301 53.4511 68.0235 53.6661C67.2344 54.4867 66.4948 55.357 65.6045 56.0763C63.3382 56.0763 61.0741 56.0763 58.8079 56.0763C58.6695 55.6505 58.9339 55.3632 59.1859 55.1027C59.9338 54.3338 60.6568 53.5359 61.4811 52.8455Z" fill="white"/>
<path d="M39.4366 52.8455H46.0287C46.2973 53.2485 45.975 53.4925 45.7539 53.7157C44.9669 54.5157 44.2149 55.3549 43.3514 56.0763H36.7593C36.4887 55.6733 36.813 55.4293 37.0341 55.2061C37.8212 54.4061 38.5711 53.5669 39.4387 52.8455H39.4366Z" fill="white"/>
<path d="M65.6045 56.0744C65.9454 55.2723 66.656 54.7824 67.2282 54.1788C67.6187 53.7654 68.0546 53.3913 68.2735 52.8456C69.6969 52.8332 71.1203 52.8063 72.5436 52.8187C73.1262 52.8249 73.686 52.7319 74.25 52.6223C73.4629 53.9866 72.1222 54.861 71.1678 56.0744C69.3127 56.0744 67.4596 56.0744 65.6045 56.0744Z" fill="white"/>
<path d="M61.4812 52.8455C61.3346 53.5359 60.6962 53.8273 60.2893 54.3048C59.7893 54.8898 59.1159 55.3281 58.8081 56.0763C57.0211 56.0763 55.2342 56.0763 53.4472 56.0763C53.2696 55.8841 53.3295 55.6691 53.4679 55.5224C54.3273 54.6046 55.1164 53.6165 56.1204 52.8455C57.9074 52.8455 59.6943 52.8455 61.4812 52.8455Z" fill="white"/>
<path d="M76.3469 45.594C76.3469 43.8742 76.3469 42.1543 76.3469 40.4345C77.101 39.5064 78.0078 38.7312 78.8569 37.9002C79.0428 37.7183 79.2804 37.5261 79.5737 37.7597C79.5737 39.4795 79.5737 41.1993 79.5737 42.9192C78.8197 43.8452 77.9128 44.6225 77.0638 45.4534C76.8778 45.6353 76.6403 45.8276 76.3469 45.594Z" fill="white"/>
<path d="M56.1205 52.8455C55.5833 53.7571 54.7859 54.4413 54.0629 55.1896C53.8109 55.4479 53.4638 55.6505 53.4473 56.0763C51.7306 56.0763 50.0139 56.0763 48.2972 56.0763C48.0265 55.6733 48.3509 55.4293 48.5719 55.2061C49.359 54.4061 50.1089 53.5669 50.9765 52.8455C52.6912 52.8455 54.4079 52.8455 56.1225 52.8455H56.1205Z" fill="white"/>
<path d="M76.3469 45.594C77.0369 45.4473 77.3282 44.8085 77.8033 44.4013C78.3879 43.9011 78.8259 43.2272 79.5737 42.9192C79.5737 44.5667 79.5737 46.2142 79.5737 47.8637C78.861 48.0373 78.547 48.7009 78.0429 49.1288C77.4046 49.6704 76.9398 50.4166 76.1238 50.7473C76.508 49.044 76.194 47.3097 76.3448 45.5961L76.3469 45.594Z" fill="white"/>
<path d="M50.9745 52.8455C50.6708 53.7302 49.8135 54.1374 49.2764 54.8216C48.9479 55.2392 48.386 55.4728 48.2972 56.0763C46.6486 56.0763 45.0001 56.0763 43.3516 56.0763C43.5891 55.2722 44.3638 54.9229 44.8328 54.3172C45.2191 53.817 45.8801 53.54 46.0289 52.8475C47.6774 52.8475 49.3259 52.8475 50.9745 52.8475V52.8455Z" fill="white"/>
<path d="M76.3469 37.3422C76.3469 35.6947 76.3469 34.0452 76.3469 32.3977C77.039 31.5729 77.8343 30.8494 78.6028 30.1011C78.8631 29.8489 79.1482 29.5843 79.5737 29.7208C79.5737 31.3021 79.5737 32.8834 79.5737 34.4648C78.6916 35.641 77.8694 36.8874 76.3469 37.3422Z" fill="white"/>
<path d="M79.5758 29.7208C78.6255 30.1611 78.0657 31.0479 77.3075 31.7094C77.0101 31.9678 76.8117 32.3688 76.3469 32.3977C76.3469 30.8164 76.3469 29.235 76.3469 27.6558C77.2311 27.354 77.6381 26.4941 78.3219 25.9566C78.7392 25.6279 78.9726 25.0657 79.5758 24.9768C79.5758 26.5581 79.5758 28.1415 79.5758 29.7229V29.7208Z" fill="white"/>
<path d="M21.716 52.8456C23.2282 52.8456 24.7404 52.8456 26.2525 52.8456C26.486 53.1391 26.2939 53.3768 26.1121 53.5629C25.2816 54.4124 24.5069 55.322 23.5794 56.0744C22.0011 56.0744 20.4207 56.0744 18.8424 56.0744C18.7309 55.8201 18.8218 55.5824 18.9788 55.4109C19.8278 54.4889 20.5942 53.476 21.716 52.8435V52.8456Z" fill="white"/>
<path d="M23.5793 56.0744C23.9987 55.1504 24.856 54.6088 25.4923 53.875C25.7712 53.5525 26.2112 53.3437 26.2525 52.8435C27.7626 52.8435 29.2748 52.8435 30.785 52.8435C31.0514 53.3396 30.6341 53.5835 30.378 53.8564C29.688 54.5943 28.9278 55.2662 28.3122 56.0744C26.7339 56.0744 25.1556 56.0744 23.5793 56.0744Z" fill="white"/>
<path d="M28.3122 56.0744C28.2358 55.4997 28.7088 55.2538 29.0042 54.8961C29.5806 54.1975 30.4607 53.7613 30.785 52.8435C32.293 52.8435 33.8032 52.8435 35.3112 52.8435C35.4496 53.2693 35.1852 53.5567 34.9332 53.8171C34.1853 54.5861 33.4623 55.3819 32.6401 56.0744C31.1982 56.0744 29.7562 56.0744 28.3143 56.0744H28.3122Z" fill="white"/>
<path d="M21.7162 52.8455C20.8547 54.0072 19.5305 54.7596 18.8426 56.0763C17.5184 56.1094 16.1839 56.2562 14.9051 55.7415C14.6345 55.3012 14.9609 55.0283 15.2109 54.772C15.8533 54.1147 16.4628 53.4201 17.1879 52.8475C18.698 52.8475 20.206 52.8475 21.7162 52.8475V52.8455Z" fill="white"/>
<path d="M32.6382 56.0744C32.7828 55.384 33.4232 55.0925 33.8302 54.615C34.3301 54.03 35.0036 53.5897 35.3114 52.8435C36.6872 52.8435 38.061 52.8435 39.4368 52.8435C39.1331 53.7282 38.2758 54.1355 37.7387 54.8197C37.4102 55.2372 36.8483 55.4708 36.7595 56.0744C35.3857 56.0744 34.012 56.0744 32.6382 56.0744Z" fill="white"/>
<path d="M13.6511 32.8089C13.6511 34.0471 13.6511 35.2874 13.6511 36.5256C12.8971 37.4517 11.9902 38.2268 11.1412 39.0599C10.9552 39.2418 10.7177 39.434 10.4243 39.2004C10.4243 37.9643 10.4243 36.7261 10.4243 35.49C11.1453 34.6239 11.982 33.8714 12.7814 33.0839C13.0045 32.8627 13.2483 32.5382 13.6511 32.8089Z" fill="white"/>
<path d="M10.4221 39.2005C11.1121 39.0537 11.4013 38.415 11.8785 38.0078C12.4632 37.5075 12.9011 36.8316 13.6489 36.5256C13.6489 37.7618 13.6489 38.9958 13.6489 40.232C12.928 41.0981 12.0913 41.8484 11.2918 42.636C11.0667 42.8572 10.825 43.1797 10.4221 42.9109C10.4221 41.6727 10.4221 40.4366 10.4221 39.1984V39.2005Z" fill="white"/>
<path d="M13.6511 32.809C12.8475 33.0467 12.4984 33.8218 11.8931 34.2931C11.3932 34.6818 11.1164 35.3412 10.4243 35.49V31.7775C11.1164 30.9527 11.9117 30.2292 12.6802 29.4809C12.9405 29.2287 13.2256 28.9621 13.6511 29.1026C13.6511 30.3388 13.6511 31.5728 13.6511 32.809Z" fill="white"/>
<path d="M13.651 45.8009C13.651 46.9688 13.651 48.1388 13.651 49.3067C13.116 49.9785 12.4777 50.5511 11.86 51.1423C11.5749 51.4152 11.2795 51.7542 10.794 51.5764C10.3375 50.6545 10.3581 49.6705 10.4222 48.6825C11.0564 47.5331 12.1141 46.7724 13.0189 45.8753C13.1821 45.7141 13.4135 45.5921 13.649 45.8009H13.651Z" fill="white"/>
<path d="M10.4221 42.9131C11.3063 42.6113 11.7133 41.7514 12.3971 41.2139C12.8143 40.8853 13.0478 40.323 13.651 40.2341C13.651 41.3338 13.651 42.4335 13.651 43.5332C12.959 44.358 12.1636 45.0815 11.3951 45.8298C11.1348 46.082 10.8497 46.3466 10.4242 46.2101C10.4242 45.1125 10.4242 44.0149 10.4242 42.9152L10.4221 42.9131Z" fill="white"/>
<path d="M76.3469 37.3423C77.6153 36.5981 78.4417 35.3599 79.5737 34.4648C79.5737 35.5625 79.5737 36.6601 79.5737 37.7598C78.8838 37.9045 78.5925 38.5453 78.1173 38.9525C77.5327 39.4528 77.0927 40.1267 76.3469 40.4347C76.3469 39.4032 76.3469 38.3737 76.3469 37.3423Z" fill="white"/>
<path d="M10.7939 51.5763C11.6037 51.2725 12.0644 50.549 12.6759 50.0095C12.9775 49.7449 13.1779 49.3356 13.651 49.3066C13.6179 50.4642 14.2088 51.351 14.9008 52.1944C14.1902 52.9716 13.4692 53.7365 12.6656 54.4186C11.7153 53.6868 11.0873 52.7422 10.796 51.5763H10.7939Z" fill="white"/>
<path d="M13.651 29.1027C12.7276 29.5223 12.1884 30.3801 11.453 31.0168C11.1307 31.2959 10.922 31.7361 10.4221 31.7775C10.4221 30.8142 10.4221 29.853 10.4221 28.8897C11.2608 27.9988 12.2628 27.2836 13.0994 26.3906C13.2358 26.2459 13.4217 26.1364 13.6489 26.2128C13.6489 27.1761 13.6489 28.1373 13.6489 29.1006L13.651 29.1027Z" fill="white"/>
<path d="M10.4221 19.8132C11.2009 19.0587 11.9736 18.3001 12.7586 17.5538C13.0209 17.3037 13.2213 16.9502 13.6489 16.9316C13.6489 17.8246 13.6489 18.7197 13.6489 19.6127C12.9879 20.3982 12.2442 21.1031 11.4902 21.7955C11.2009 22.0622 10.8931 22.3764 10.4221 22.2896C10.4221 21.4648 10.4221 20.64 10.4221 19.8153V19.8132Z" fill="white"/>
<path d="M12.6637 54.4185C13.1843 53.4511 13.9238 52.7028 14.8989 52.1943C15.6137 52.583 16.3739 52.8062 17.1858 52.8455C16.9172 53.6702 16.1343 54.0568 15.6282 54.6769C15.3555 55.0118 14.9196 55.2309 14.903 55.7394C14.0499 55.479 13.2814 55.0759 12.6616 54.4165L12.6637 54.4185Z" fill="white"/>
<path d="M10.4221 22.2874C11.3352 21.752 12.0169 20.952 12.7648 20.2285C13.0251 19.9764 13.2254 19.6291 13.651 19.6125C13.651 20.3712 13.651 21.1277 13.651 21.8864C13.0416 22.9613 12.1244 23.7426 11.1493 24.4599C10.9448 24.6108 10.701 24.7907 10.4242 24.5612C10.4242 23.8026 10.4242 23.046 10.4242 22.2874H10.4221Z" fill="white"/>
<path d="M10.4221 24.5613C11.8207 24.0611 12.5169 22.7092 13.6489 21.8865C13.6489 22.643 13.6489 23.3996 13.6489 24.1541C13.0168 25.2745 12.0066 26.0434 11.0853 26.8909C10.9138 27.048 10.6762 27.139 10.4221 27.0294C10.4221 26.2067 10.4221 25.384 10.4221 24.5592V24.5613Z" fill="white"/>
<path d="M10.4221 46.2082C11.3724 45.7679 11.9322 44.8811 12.6904 44.2196C12.9879 43.9612 13.1862 43.5581 13.651 43.5312C13.651 44.2878 13.651 45.0444 13.651 45.7989C12.6677 46.1978 12.1636 47.1446 11.3931 47.7874C11.0563 48.0686 10.7444 48.3807 10.4221 48.6784C10.4221 47.8536 10.4221 47.0288 10.4221 46.204V46.2082Z" fill="white"/>
<path d="M10.4221 27.0294C11.736 26.339 12.4859 25.014 13.6489 24.1541C13.6489 24.8403 13.6489 25.5287 13.6489 26.215C12.5437 27.0707 11.7711 28.3317 10.4221 28.8898C10.4221 28.2697 10.4221 27.6495 10.4221 27.0294Z" fill="white"/>
<path d="M54.2694 29.5078C53.0279 28.8154 52.8812 27.7591 53.9244 26.7028C56.0109 24.5881 58.1181 22.4921 60.2231 20.394C60.5186 20.1004 60.8574 19.842 60.4504 19.3997C60.3863 19.3191 60.3182 19.224 60.345 19.1268C60.5785 18.3041 61.9812 17.1321 62.7083 17.1424C63.3839 17.7791 64.1916 18.2958 64.5717 19.1992C61.161 22.6616 57.7318 26.1012 54.2674 29.5099L54.2694 29.5078Z" fill="white"/>
<path d="M35.9578 10.2715C36.968 11.1438 37.0176 11.9831 36.0508 12.9608C33.9767 15.063 31.8819 17.1446 29.7913 19.2303C29.5 19.5197 29.1344 19.774 29.5414 20.2308C28.8163 21.0184 28.056 21.7749 27.2772 22.5108C26.6967 21.9837 26.0956 21.4773 25.6452 20.8241C25.5419 20.4106 25.8518 20.1936 26.0832 19.9621C29.1716 16.8573 32.2703 13.7608 35.367 10.6642C35.5385 10.4927 35.7223 10.3438 35.9599 10.2715H35.9578Z" fill="white"/>
<path d="M48.7308 15.125C47.9355 17.0474 47.2352 19.0111 46.2766 20.8653C44.8822 22.2089 43.5497 23.6187 42.1532 24.9603C41.7855 25.3137 41.4529 25.8429 40.7856 25.5763C41.5831 23.5629 42.4094 21.5599 43.3576 19.6126C44.7541 18.1119 46.227 16.6856 47.7 15.2635C47.9541 15.0175 48.3011 14.4945 48.7288 15.1291L48.7308 15.125Z" fill="white"/>
<path d="M35.9578 10.2714C35.778 10.6993 35.402 10.9598 35.0922 11.2719C31.9459 14.4594 28.7935 17.6407 25.6431 20.824C24.9531 20.0633 25.0998 19.2799 25.734 18.635C28.4402 15.8795 31.1733 13.1468 33.925 10.4368C34.5013 9.87041 35.2265 9.69264 35.9557 10.2694L35.9578 10.2714Z" fill="white"/>
<path d="M40.7877 25.5743C41.2835 25.4792 41.6284 25.1588 41.9672 24.8157C43.0931 23.6787 44.2231 22.548 45.3573 21.4215C45.6155 21.1651 45.8324 20.8199 46.2766 20.8633C45.3366 22.7382 44.814 24.7929 43.8038 26.6368C42.0602 28.4083 40.1865 30.0558 38.6082 31.9906C38.2632 31.5462 38.3913 31.0873 38.5834 30.6387C39.3127 28.9478 40.0502 27.261 40.7856 25.5722L40.7877 25.5743Z" fill="white"/>
<path d="M48.7308 15.125C48.2329 14.8397 48.0098 15.2738 47.7495 15.5281C46.6546 16.5988 45.5763 17.6841 44.502 18.7755C44.1632 19.1187 43.812 19.4287 43.3596 19.6106C44.0951 17.6489 44.9173 15.7224 45.8324 13.8372C47.1607 12.4006 48.5676 11.0425 49.9723 9.6823C50.2967 9.3681 50.6685 8.96295 51.2222 9.31436C50.2719 11.1996 49.7389 13.2646 48.7308 15.125Z" fill="white"/>
<path d="M54.2694 29.5079C54.2632 29.111 54.5648 28.9084 54.8024 28.6707C57.7772 25.6879 60.7561 22.7092 63.735 19.7304C63.9726 19.4927 64.1812 19.1951 64.5737 19.1992V19.1951C64.7225 19.6126 64.7245 20.0281 64.5737 20.4457C64.4023 20.8157 64.1626 21.1319 63.8714 21.4234C61.3552 23.9308 58.8493 26.4465 56.3373 28.958C55.7588 29.5368 55.1391 29.9957 54.2714 29.5099L54.2694 29.5079Z" fill="white"/>
<path d="M51.2223 9.31427C50.6624 9.32667 50.2906 9.66981 49.927 10.0378C48.8734 11.1002 47.8075 12.1524 46.758 13.219C46.4874 13.494 46.1713 13.6759 45.8325 13.8371C46.6589 11.8589 47.4707 9.87445 48.3136 7.9045C48.8073 6.74899 49.7245 6.3397 50.6604 6.80273C51.5982 7.26576 51.7986 8.15462 51.2223 9.31427Z" fill="white"/>
<path d="M29.9567 44.5958C31.0846 44.5854 32.2126 44.5709 33.3426 44.5647C33.762 44.5627 34.1607 44.6309 34.4457 44.9844C33.4831 45.9848 32.6258 47.099 31.4069 47.8266C29.965 47.8266 28.5251 47.8266 27.0831 47.8266C26.9716 47.5724 27.0625 47.3347 27.2195 47.1631C28.0685 46.2412 28.835 45.2283 29.9567 44.5958Z" fill="white"/>
<path d="M37.999 41.2305C36.557 41.2305 35.1171 41.2305 33.6752 41.2305C33.5636 40.9762 33.6545 40.7385 33.8115 40.5669C34.6606 39.645 35.427 38.6321 36.5487 37.9996C37.6767 37.9892 38.8046 37.9748 39.9326 37.9686C40.3519 37.9665 40.7506 38.0347 41.0357 38.3882C40.073 39.3887 39.2157 40.5028 37.9969 41.2305H37.999Z" fill="white"/>
<path d="M29.9566 44.5957C29.0951 45.7574 27.7709 46.5098 27.083 47.8266C25.641 47.8266 24.1991 47.8266 22.7572 47.8266C22.6167 47.3987 22.8832 47.1134 23.1352 46.853C23.883 46.084 24.6061 45.2861 25.4303 44.5957C26.9405 44.5957 28.4485 44.5957 29.9586 44.5957H29.9566Z" fill="white"/>
<path d="M36.5486 37.9976C35.6872 39.1593 34.363 39.9117 33.675 41.2284H29.3492C29.2087 40.8006 29.4752 40.5153 29.7272 40.2548C30.4751 39.4859 31.1981 38.688 32.0224 37.9976C33.5325 37.9976 35.0405 37.9976 36.5507 37.9976H36.5486Z" fill="white"/>
<path d="M26.046 41.2284C24.6062 41.2284 23.1663 41.2284 21.7264 41.2284C21.5859 40.8006 21.8524 40.5153 22.1044 40.2548C22.8523 39.4859 23.5753 38.688 24.3996 37.9976C25.8395 37.9976 27.2793 37.9976 28.7192 37.9976C28.7998 38.5081 28.4527 38.8327 28.1594 39.1448C27.4839 39.8662 26.8104 40.5938 26.046 41.2284Z" fill="white"/>
<path d="M24.3974 37.9976C24.2507 38.688 23.6124 38.9795 23.2054 39.457C22.7055 40.042 22.03 40.4802 21.7263 41.2285C21.247 41.2388 20.7678 41.2802 20.2905 41.2512C19.332 41.1934 18.6523 40.4926 18.6523 39.61C18.6523 38.7294 19.332 37.9997 20.2926 37.977C21.6602 37.9439 23.0298 37.9852 24.3974 37.9956V37.9976Z" fill="white"/>
<path d="M38.6104 31.9925C38.6413 31.7279 38.5442 31.4406 38.7736 31.2174C40.2651 29.76 41.7545 28.3007 43.2461 26.8413C43.4031 26.6863 43.5911 26.6284 43.8059 26.6408C43.0829 28.3854 42.3619 30.1301 41.6327 31.8726C41.3455 32.5568 40.8476 33.0095 40.0833 32.9992C39.4016 32.9909 38.819 32.7429 38.6104 31.9946V31.9925Z" fill="white"/>
<path d="M25.4283 44.5978C25.2816 45.2882 24.6432 45.5796 24.2363 46.0551C23.7363 46.6401 23.0608 47.0783 22.7571 47.8266C21.7222 47.8039 20.6727 48.0602 19.6605 47.653C19.2721 47.4256 19.2349 47.101 19.5159 46.8013C20.2616 46.0075 20.9185 45.1104 21.9225 44.5957C23.0918 44.5957 24.2611 44.5957 25.4283 44.5957V44.5978Z" fill="white"/>
<path d="M26.0461 41.2284C26.1515 40.598 26.7113 40.321 27.0956 39.9179C27.6781 39.3102 28.2772 38.7231 28.7173 37.9976C29.8183 37.9976 30.9194 37.9976 32.0185 37.9976C31.8718 38.688 31.2334 38.9794 30.8265 39.4549C30.3265 40.0399 29.651 40.4781 29.3473 41.2264C28.2462 41.2264 27.1452 41.2264 26.0461 41.2264V41.2284Z" fill="white"/>
<path d="M33.6192 24.3567C34.3939 24.9686 35.1025 25.6486 35.7243 26.4197C35.1521 27.354 34.4001 28.1106 33.4643 28.679C32.7743 27.9989 32.0864 27.3168 31.3964 26.6367C31.2787 26.492 31.2291 26.2936 31.3448 26.1757C32.0265 25.4771 32.388 24.367 33.6192 24.3588V24.3567Z" fill="white"/>
<path d="M55.8519 10.35C56.5315 11.059 57.4178 11.5551 57.9714 12.3964C57.2484 13.1778 56.4964 13.9323 55.7134 14.6537C54.9801 14.0129 54.2446 13.3762 53.6538 12.5928C54.1682 11.6316 54.9697 10.9494 55.8519 10.3479V10.35Z" fill="white"/>
<path d="M55.7134 14.6538C56.2236 13.6595 56.9756 12.905 57.9713 12.3965C58.651 12.9525 59.2749 13.5665 59.8264 14.2527C59.1034 15.0362 58.3514 15.7886 57.5664 16.5121C56.8847 15.9581 56.2629 15.34 55.7134 14.6558V14.6538Z" fill="white"/>
<path d="M33.4644 28.679C34.1378 27.8439 34.8877 27.0894 35.7244 26.4197C36.4412 26.9323 36.9205 27.5607 36.6561 28.5013C36.4722 29.1545 35.9991 29.5617 35.3463 29.6671C34.5035 29.8015 33.9168 29.3467 33.4664 28.6811L33.4644 28.679Z" fill="white"/>
<path d="M57.5686 16.512C58.0789 15.5157 58.8308 14.7612 59.8286 14.2527C60.3533 14.6764 60.8677 15.1105 61.2272 15.6955C60.5434 16.512 59.7687 17.2397 59.0044 17.9776C58.5251 17.4898 58.0479 16.9999 57.5686 16.512Z" fill="white"/>
<path d="M27.2773 22.5107C27.7773 21.4978 28.5416 20.7475 29.5415 20.2307C30.0683 20.6524 30.5827 21.0886 30.9421 21.6736C30.2563 22.488 29.4837 23.2156 28.7193 23.9536C28.238 23.4719 27.7587 22.9903 27.2773 22.5107Z" fill="white"/>
<path d="M59.0042 17.9776C59.4834 16.9606 60.2767 16.2537 61.227 15.6956C61.7765 16.1214 62.3074 16.5658 62.7123 17.1405C61.7166 17.649 60.9646 18.4035 60.4544 19.3977L59.0042 17.9776Z" fill="white"/>
<path d="M28.7192 23.9556C29.1985 22.9406 29.9918 22.2316 30.9421 21.6755C31.3614 22.2192 32.101 22.4404 32.384 23.1184C31.5556 23.7923 30.7995 24.5385 30.1612 25.3984C29.6798 24.9168 29.2006 24.4351 28.7192 23.9556Z" fill="white"/>
<path d="M30.1611 25.3984C30.5041 24.2491 31.2829 23.5256 32.384 23.1184C32.8199 23.507 33.3632 23.7882 33.6193 24.3566C32.669 24.9127 31.8778 25.6217 31.3965 26.6346C30.9854 26.2232 30.5722 25.8098 30.1611 25.3984Z" fill="white"/>
<path d="M31.4067 47.8286C32.3818 46.8405 33.1978 45.6829 34.4456 44.9863C35.086 45.4556 35.2347 46.0716 34.9558 46.793C34.6769 47.5165 34.1192 47.8555 33.3589 47.8596C32.7082 47.8617 32.0575 47.841 31.4067 47.8307V47.8286Z" fill="white"/>
<path d="M37.999 41.2305C38.9741 40.2424 39.7901 39.0848 41.0379 38.3882C41.6762 38.8574 41.827 39.4734 41.5481 40.1948C41.2692 40.9163 40.7094 41.2553 39.9512 41.2615C39.3005 41.2656 38.6498 41.2429 37.999 41.2325V41.2305Z" fill="white"/>
<path d="M21.9227 44.5958C21.243 45.2986 20.5737 46.0118 19.8817 46.7022C19.5966 46.9875 19.3693 47.25 19.6606 47.6531C18.8178 47.3451 18.5409 46.6815 18.7062 45.8795C18.8735 45.065 19.4458 44.5979 20.299 44.571C20.8402 44.5524 21.3814 44.5855 21.9227 44.5958Z" fill="white"/>
<path d="M55.8518 10.35C55.2506 11.2264 54.4553 11.9127 53.6537 12.5948C53.036 11.8279 53.1249 11.059 53.7921 10.4244C54.4057 9.84145 55.139 9.67608 55.8497 10.35H55.8518Z" fill="white"/>
<path d="M64.5737 20.4437C64.5737 20.0262 64.5737 19.6107 64.5737 19.1931C64.865 19.6107 64.8629 20.0262 64.5737 20.4437Z" fill="white"/>
</g>
<defs>
<clipPath id="clip0_751_33629">
<rect width="89" height="99" fill="white" transform="translate(0.5)"/>
</clipPath>
</defs>
</svg>
