<svg width="38" height="38" viewBox="0 0 38 38" fill="none" xmlns="http://www.w3.org/2000/svg">
<g clip-path="url(#clip0_156_60158)">
<path d="M38 19.1155C38 8.62206 29.4934 0.115479 19 0.115479C8.50658 0.115479 0 8.62206 0 19.1155C0 28.5989 6.94806 36.4593 16.0312 37.8847V24.6077H11.207V19.1155H16.0312V14.9295C16.0312 10.1677 18.8678 7.53735 23.2078 7.53735C25.2866 7.53735 27.4609 7.90845 27.4609 7.90845V12.5842H25.0651C22.7049 12.5842 21.9688 14.0488 21.9688 15.5513V19.1155H27.2383L26.3959 24.6077H21.9688V37.8847C31.052 36.4593 38 28.5989 38 19.1155Z" fill="#8E86BB"/>
</g>
<defs>
<clipPath id="clip0_156_60158">
<rect width="38" height="38" fill="white"/>
</clipPath>
</defs>
</svg>
