<svg width="19" height="19" viewBox="0 0 19 19" fill="none" xmlns="http://www.w3.org/2000/svg">
<path d="M9.49532 18.9994C8.13945 18.9994 6.78316 18.9968 5.42729 18.9998C3.561 19.0041 2.04377 17.4958 2.04335 15.6297C2.04335 14.2666 2.04207 12.9039 2.0442 11.5408C2.04462 11.2025 2.28751 10.9168 2.60302 10.868C2.94231 10.8158 3.25994 11.0047 3.36355 11.3332C3.39242 11.4249 3.39582 11.5272 3.39624 11.6249C3.39837 12.9315 3.39752 14.2377 3.39752 15.5443C3.39752 16.7584 4.28161 17.6439 5.49183 17.6439C8.16875 17.6439 10.8452 17.6439 13.5222 17.6439C14.7171 17.6439 15.6046 16.7538 15.6046 15.5537C15.6046 14.219 15.6037 12.8844 15.6054 11.5493C15.6059 11.1991 15.853 10.9096 16.1774 10.8671C16.5197 10.8221 16.8314 11.0161 16.9307 11.3451C16.9545 11.4241 16.9579 11.5115 16.9583 11.5952C16.96 12.9723 16.9622 14.3494 16.9583 15.7265C16.9545 17.2772 15.6904 18.7315 14.1527 18.9514C13.9166 18.9854 13.675 18.9951 13.436 18.996C12.1221 19.0002 10.8087 18.9981 9.49489 18.9981V18.9994H9.49532Z" fill="#1D0E78"/>
<path d="M9.49501 1.60124C9.41476 1.70821 9.37484 1.77698 9.32049 1.83174C6.63635 4.52013 3.95009 7.20725 1.26595 9.89564C1.10162 10.0603 0.930066 10.1928 0.680378 10.1869C0.397145 10.1801 0.191195 10.0485 0.0722968 9.80098C-0.0466018 9.55349 -0.019425 9.30643 0.150855 9.08484C0.193743 9.02923 0.246823 8.98126 0.296506 8.93159C3.173 6.05472 6.0495 3.1787 8.92557 0.302674C9.32813 -0.0997566 9.67379 -0.10103 10.0751 0.299703C12.9567 3.18039 15.837 6.06278 18.7211 8.94093C18.939 9.15827 19.0574 9.39685 18.9717 9.69994C18.8324 10.1894 18.2264 10.3524 17.8481 10.0005C17.6001 9.76999 17.367 9.52335 17.127 9.2835C14.6514 6.80567 12.1758 4.32826 9.70096 1.84957C9.64151 1.78972 9.59268 1.71925 9.49544 1.60124H9.49501Z" fill="#1D0E78"/>
</svg>
