<svg width="38" height="38" viewBox="0 0 38 38" fill="none" xmlns="http://www.w3.org/2000/svg">
<path d="M18.8453 22.5525C20.7222 22.5525 22.2437 21.031 22.2437 19.1542C22.2437 17.2773 20.7222 15.7559 18.8453 15.7559C16.9685 15.7559 15.447 17.2773 15.447 19.1542C15.447 21.031 16.9685 22.5525 18.8453 22.5525Z" fill="#8E86BB"/>
<path d="M23.0932 10.8127H14.5973C13.3616 10.8127 12.2803 11.1989 11.5852 11.894C10.8901 12.5891 10.5039 13.6704 10.5039 14.9062V23.402C10.5039 24.6378 10.8901 25.719 11.6624 26.4914C12.4348 27.1865 13.4388 27.5727 14.6746 27.5727H23.0932C24.3289 27.5727 25.4102 27.1865 26.1053 26.4914C26.8777 25.7963 27.2638 24.715 27.2638 23.4792V14.9834C27.2638 13.7477 26.8777 12.7436 26.1826 11.9713C25.4102 11.1989 24.4062 10.8127 23.0932 10.8127ZM18.8453 24.4061C15.9103 24.4061 13.5933 22.0118 13.5933 19.1541C13.5933 16.2192 15.9876 13.9021 18.8453 13.9021C21.7029 13.9021 24.1745 16.2192 24.1745 19.1541C24.1745 22.089 21.7802 24.4061 18.8453 24.4061ZM24.3289 14.9062C23.6338 14.9062 23.0932 14.3655 23.0932 13.6704C23.0932 12.9753 23.6338 12.4347 24.3289 12.4347C25.024 12.4347 25.5647 12.9753 25.5647 13.6704C25.5647 14.3655 25.024 14.9062 24.3289 14.9062Z" fill="#8E86BB"/>
<path d="M18.9997 0C8.49582 0 0 8.49582 0 18.9997C0 29.5037 8.49582 37.9995 18.9997 37.9995C29.5037 37.9995 37.9995 29.5037 37.9995 18.9997C38.0767 8.49582 29.5037 0 18.9997 0ZM29.1175 23.4794C29.1175 25.2558 28.4996 26.8004 27.4183 27.8817C26.337 28.963 24.7923 29.5037 23.0932 29.5037H14.6746C12.9754 29.5037 11.4307 28.963 10.3495 27.8817C9.19093 26.8004 8.65029 25.2558 8.65029 23.4794V14.9835C8.65029 11.4307 11.0446 8.95923 14.6746 8.95923H23.1704C24.9468 8.95923 26.4143 9.5771 27.4956 10.6584C28.5768 11.7397 29.1175 13.2071 29.1175 14.9835V23.4794Z" fill="#8E86BB"/>
</svg>
