<svg width="106" height="105" viewBox="0 0 106 105" fill="none" xmlns="http://www.w3.org/2000/svg">
<g clip-path="url(#clip0_751_33615)">
<path d="M53.729 0C54.7037 0.633411 54.9978 1.52749 54.9613 2.67738C54.8908 4.93573 54.9516 7.19896 54.937 9.45975C54.9273 10.8703 54.1617 11.6937 52.9391 11.6596C51.7749 11.6255 51.0724 10.8216 51.0651 9.45975C51.053 7.19896 51.1113 4.93573 51.0408 2.67738C51.0044 1.52993 51.2936 0.633411 52.2731 0.0024362H53.7315L53.729 0Z" fill="white"/>
<path d="M0.5 51.7715C1.13194 50.7946 2.02882 50.5047 3.17604 50.5388C5.43403 50.6094 7.69687 50.551 9.95729 50.5631C11.3694 50.5704 12.191 51.333 12.1569 52.5584C12.1253 53.7229 11.3184 54.4269 9.95729 54.4367C7.69687 54.4489 5.43403 54.3904 3.17604 54.4611C2.02639 54.4976 1.13437 54.2028 0.5 53.2283V51.7691L0.5 51.7715Z" fill="white"/>
<path d="M105.5 53.2284C104.863 54.198 103.974 54.4977 102.824 54.4611C100.566 54.388 98.3007 54.449 96.0403 54.4368C94.6281 54.427 93.809 53.6645 93.8431 52.4391C93.8747 51.2746 94.6792 50.573 96.0427 50.5657C98.3031 50.5535 100.566 50.6119 102.826 50.5413C103.976 50.5048 104.868 50.7995 105.502 51.774V53.2333L105.5 53.2284Z" fill="white"/>
<path d="M52.983 93.3282C49.1767 93.3282 45.3705 93.3355 41.5642 93.3282C37.9889 93.3209 35.5243 90.8749 35.5073 87.3303C35.5 85.9124 35.9326 84.2777 35.3639 83.14C34.8097 82.0291 33.2153 81.4493 32.1142 80.5917C22.1222 72.8056 17.3267 62.5468 18.0899 49.9322C19.0549 33.9459 31.4094 20.5346 47.1618 17.9815C66.1858 14.8997 83.8583 27.2366 87.4531 46.1123C90.1195 60.1106 83.783 74.5085 71.5451 82.1655C70.7625 82.6552 70.4052 83.1473 70.4781 84.0877C70.5681 85.2546 70.5122 86.4362 70.4951 87.608C70.4514 90.775 67.9382 93.3014 64.7688 93.3233C60.841 93.3477 56.9132 93.3282 52.9854 93.3306L52.983 93.3282ZM59.8031 89.4473C61.3903 89.4473 62.8413 89.4644 64.2899 89.4424C65.8455 89.4181 66.5868 88.675 66.6111 87.1159C66.633 85.6176 66.7083 84.112 66.5917 82.6235C66.4701 81.0765 67.0924 80.2068 68.4292 79.4492C79.8795 72.9713 86.0313 59.6794 83.5861 46.8504C80.2903 29.551 63.7285 18.5053 46.4788 22.1011C29.6472 25.6092 18.7122 42.7162 22.6983 59.4212C24.8177 68.2987 29.8733 75.0543 37.8188 79.588C38.9247 80.219 39.4861 80.9742 39.4083 82.2971C39.3135 83.9512 39.3622 85.6176 39.3962 87.2767C39.4229 88.5362 40.0962 89.3572 41.2653 89.4132C42.8694 89.4911 44.4809 89.4327 46.2017 89.4327V88.0197C46.2017 82.8769 46.0778 77.7292 46.2504 72.5913C46.3427 69.8457 45.8396 67.4411 44.2038 65.2218C43.6788 64.5104 43.2754 64.0987 42.3056 64.1255C39.7194 64.1986 37.5004 62.5152 36.7323 60.0765C35.9667 57.6452 36.8684 55.0092 38.9708 53.5329C41.0174 52.0955 43.7469 52.1394 45.7813 53.6425C47.8326 55.1578 48.9701 58.0082 47.75 60.1959C46.7194 62.0425 47.4365 63.1583 48.3042 64.5031C48.6542 65.0464 49.0601 65.5799 49.2788 66.1768C49.6191 67.0952 50.0347 68.0648 50.0444 69.0149C50.1125 75.3734 50.0785 81.7319 50.0785 88.0903C50.0785 88.5191 50.0785 88.9454 50.0785 89.3474H55.9215C55.9215 83.6224 56.0819 77.9899 55.8608 72.3696C55.7271 68.9857 56.291 65.977 58.4031 63.3142C59.0132 62.5444 59.0715 61.8939 58.5319 60.956C57.2365 58.6952 57.7979 55.8546 59.6913 54.0737C61.6163 52.2661 64.5184 51.9713 66.7618 53.3551C68.9299 54.6925 70.0017 57.3529 69.3479 59.7671C68.6333 62.4007 66.4288 64.1986 63.7771 64.1255C62.7781 64.0987 62.224 64.4081 61.7913 65.2656C61.3198 66.2036 60.7146 67.0733 60.2066 67.9917C60.017 68.3328 59.8177 68.7299 59.8177 69.1002C59.7934 75.8192 59.8007 82.5407 59.8007 89.4449L59.8031 89.4473ZM42.3299 56.3979C41.3333 56.3784 40.3854 57.3017 40.3684 58.3054C40.3514 59.3043 41.275 60.2519 42.2764 60.269C43.2608 60.2836 44.2257 59.3457 44.2403 58.359C44.2549 57.3577 43.3385 56.4174 42.3299 56.3979ZM63.7358 60.2665C64.7372 60.2446 65.6559 59.2848 65.6292 58.2908C65.6 57.2822 64.6545 56.3735 63.6556 56.3954C62.6517 56.4174 61.7354 57.3699 61.7597 58.3663C61.7816 59.3311 62.7781 60.286 63.7382 60.2641L63.7358 60.2665Z" fill="white"/>
<path d="M52.8784 99.163C49.2325 99.163 45.5867 99.163 41.9409 99.163C40.2419 99.163 39.4155 98.5369 39.3961 97.253C39.3766 95.9594 40.22 95.2845 41.8777 95.2845C49.3711 95.2845 56.8669 95.2577 64.3603 95.3284C65.0384 95.3357 65.9086 95.8254 66.3218 96.3711C66.6256 96.773 66.5746 97.8279 66.2416 98.2348C65.8308 98.7366 64.9753 99.1118 64.302 99.1264C60.4957 99.2092 56.6871 99.1654 52.8784 99.1654V99.163Z" fill="white"/>
<path d="M52.932 104.995C50.4601 104.995 47.9907 105.002 45.5188 104.993C44.0848 104.985 43.2657 104.245 43.2875 103.017C43.307 101.845 44.1139 101.122 45.4726 101.119C50.4966 101.109 55.5181 101.109 60.5421 101.119C61.8934 101.122 62.7028 101.857 62.715 103.029C62.7296 104.245 61.8983 104.985 60.4667 104.99C57.9559 105 55.4427 104.993 52.932 104.993V104.995Z" fill="white"/>
<path d="M24.9173 22.4739C24.4628 22.9929 24.0982 23.7456 23.5319 23.96C22.9632 24.1744 21.9642 24.0964 21.5486 23.7164C19.5215 21.8673 17.5771 19.9159 15.7055 17.9061C15.0104 17.1606 15.1028 16.1715 15.8416 15.3773C16.5295 14.6391 17.7059 14.5173 18.4666 15.2433C20.4232 17.1119 22.3288 19.0389 24.2125 20.983C24.5236 21.3046 24.6232 21.8308 24.9173 22.4739Z" fill="white"/>
<path d="M83.0661 24.3984C82.5459 23.9843 81.7998 23.67 81.5834 23.1414C81.3525 22.5688 81.3477 21.5505 81.7098 21.1485C83.5789 19.0851 85.555 17.1093 87.5893 15.2042C88.3355 14.505 89.3247 14.6049 90.1195 15.3407C90.8609 16.0277 90.9848 17.2019 90.2557 17.9669C88.3866 19.9256 86.4591 21.8282 84.5147 23.7114C84.1938 24.0233 83.6664 24.1231 83.0661 24.396V24.3984Z" fill="white"/>
</g>
<defs>
<clipPath id="clip0_751_33615">
<rect width="105" height="105" fill="white" transform="translate(0.5)"/>
</clipPath>
</defs>
</svg>
