<svg width="14" height="14" viewBox="0 0 14 14" fill="none" xmlns="http://www.w3.org/2000/svg">
<g clip-path="url(#clip0_639_80)">
<path d="M12.0354 2C8.3462 2 4.65695 2 0.967694 2C0.871552 2.03449 0.77541 2.06899 0.666805 2.10796C0.704194 2.14956 0.726067 2.17563 0.749467 2.19986C2.54971 4.06754 4.34995 5.93549 6.1507 7.80291C6.37122 8.03147 6.63116 8.03147 6.85091 7.80317C8.65166 5.93575 10.4522 4.06807 12.2521 2.20012C12.2771 2.17431 12.2992 2.14509 12.3325 2.10585C12.2237 2.06715 12.1296 2.03344 12.0354 2Z" fill="white"/>
<path d="M13 2.99748C12.9641 2.89189 12.928 2.78657 12.8975 2.69678C11.5894 4.03968 10.2828 5.38152 8.97502 6.72416C10.2793 8.06206 11.5869 9.40312 12.8978 10.7476C12.9252 10.6691 12.9626 10.5622 13 10.4551C13 7.96937 13 5.48343 13 2.99775V2.99748Z" fill="white"/>
<path d="M12.3284 11.3427C11.0157 9.9966 9.71015 8.65791 8.39799 7.31238C8.26421 7.44983 8.10906 7.60887 7.95441 7.76844C7.73568 7.99383 7.52432 8.22739 7.29694 8.44305C6.84751 8.86935 6.1501 8.87225 5.70424 8.44094C5.35528 8.10337 5.0259 7.74448 4.68865 7.39427C4.65583 7.3603 4.62938 7.32001 4.60878 7.29395C3.29128 8.64633 1.98675 9.98528 0.653232 11.3542C0.805838 11.3906 0.931993 11.4232 1.05942 11.4496C1.10418 11.4588 1.15225 11.4525 1.1988 11.4525C4.73494 11.4525 8.27107 11.4522 11.807 11.4535C11.9868 11.4535 12.1582 11.4272 12.3286 11.3427H12.3284Z" fill="white"/>
<path d="M4.03809 6.71522C2.73051 5.37364 1.42522 4.03416 0.115094 2.68994C0.0352301 2.84293 0.00242003 3.01698 0.00242003 3.20235C0.00343741 5.28964 0.00318303 7.37666 0.00318303 9.46395C0.00318303 9.73964 -0.00673652 10.0159 0.00699803 10.2908C0.015137 10.4527 0.0609189 10.6128 0.0888966 10.7692C1.41097 9.41208 2.71804 8.07023 4.03783 6.71548L4.03809 6.71522Z" fill="white"/>
</g>
<defs>
<clipPath id="clip0_639_80">
<rect width="13" height="9.45455" fill="white" transform="matrix(-1 0 0 1 13 2)"/>
</clipPath>
</defs>
</svg>
