<svg width="16" height="8" viewBox="0 0 16 8" fill="none" xmlns="http://www.w3.org/2000/svg">
<g clip-path="url(#clip0_967_21223)">
<path d="M11.937 8.00008C11.6858 7.88909 11.5797 7.75876 11.6323 7.56763C11.6617 7.46068 11.7406 7.35685 11.8217 7.27548C12.547 6.54713 13.2775 5.82408 14.0069 5.09978C14.2426 4.86594 14.4797 4.63334 14.7546 4.36208H14.5239C9.936 4.36208 5.34847 4.36208 0.760624 4.36208C0.641004 4.36208 0.52107 4.36582 0.40145 4.36114C0.16127 4.35116 -0.000624474 4.20057 1.81067e-06 3.99416C0.000628095 3.79461 0.155007 3.64745 0.387672 3.62811C0.43934 3.62375 0.491635 3.62656 0.54393 3.62656C5.19941 3.62656 9.8549 3.62656 14.5101 3.62656H14.7387C14.672 3.55609 14.6319 3.51119 14.5893 3.4691C13.6546 2.53902 12.7198 1.60925 11.7851 0.678859C11.6004 0.495213 11.5703 0.305954 11.6962 0.142574C11.8183 -0.0158168 12.0328 -0.0469962 12.1934 0.0730444C12.2432 0.110148 12.289 0.153175 12.3331 0.196826C13.4936 1.3489 14.6541 2.50098 15.8124 3.65524C15.8848 3.72727 15.938 3.818 16 3.9V4.08645C15.9264 4.17937 15.8616 4.2807 15.7783 4.36395C14.6422 5.49701 13.5046 6.62819 12.3635 7.75626C12.2667 7.85167 12.1424 7.91933 12.0309 7.99977H11.9373L11.937 8.00008Z" fill="#214336"/>
</g>
<defs>
<clipPath id="clip0_967_21223">
<rect width="16" height="8" fill="white"/>
</clipPath>
</defs>
</svg>
