<svg width="20" height="19" viewBox="0 0 20 19" fill="none" xmlns="http://www.w3.org/2000/svg">
<g clip-path="url(#clip0_1769_45)">
<path d="M-0.000338227 5.2728C0.0583465 4.89912 0.0936455 4.51972 0.180128 4.1522C0.611659 2.32077 1.67637 0.9779 3.35528 0.121384C3.71356 -0.0612753 4.08773 -0.035307 4.40189 0.182563C4.71606 0.400433 5.04301 0.649554 5.25172 0.959854C5.69075 1.61258 6.06933 2.30713 6.44218 3.00079C6.54014 3.18257 6.63147 3.23187 6.82165 3.23187C10.6807 3.22702 14.5402 3.22702 18.3993 3.23143C18.6173 3.23143 18.8427 3.24639 19.0514 3.30229C19.6555 3.4647 19.9948 3.91805 19.9975 4.54041C20.0014 5.62316 19.9988 6.70635 19.9988 7.7891C19.9988 9.52325 19.9988 11.2574 19.9988 12.9916C19.9988 13.8626 19.4649 14.4022 18.5943 14.4035C17.1563 14.4057 15.7183 14.4053 14.2803 14.4031C13.9913 14.4027 13.7919 14.2187 13.7809 13.9581C13.7689 13.6808 13.9512 13.4828 14.2481 13.4542C14.3209 13.4471 14.3946 13.4506 14.4679 13.4506C15.781 13.4506 17.0946 13.4506 18.4077 13.4506C18.4809 13.4506 18.5546 13.452 18.6279 13.4493C18.9451 13.4379 19.0431 13.3375 19.0431 13.0175C19.0435 10.8296 19.0431 8.64209 19.0431 6.45414C19.0431 6.0589 19.0431 5.66409 19.0431 5.26884C19.0431 5.19886 19.0431 5.12932 19.0431 5.0074C18.612 5.34367 18.2259 5.64384 17.8411 5.94534C16.1688 7.25608 14.4979 8.56771 12.8247 9.87757C12.0512 10.4832 11.3404 10.481 10.5656 9.87449C9.10638 8.73188 7.64808 7.58751 6.18759 6.44622C6.06625 6.35159 5.9299 6.27589 5.74502 6.15485C5.55926 6.2662 5.22613 6.42421 4.94329 6.64517C4.56912 6.93742 4.57574 7.37404 4.63928 7.79526C4.66576 7.97043 4.74032 8.14781 4.8299 8.30318C5.5072 9.48232 6.19112 10.6579 6.87812 11.8314C7.12478 12.253 7.49983 12.5175 7.98122 12.5853C8.15551 12.61 8.35892 12.5519 8.52571 12.4792C8.77236 12.3714 8.99916 12.2178 9.23389 12.0822C10.0956 11.5844 10.8334 11.6469 11.6042 12.2829C11.621 12.297 11.64 12.3094 11.655 12.3252C12.5952 13.323 13.3476 14.437 13.7067 15.7737C13.8748 16.3992 13.6961 16.9564 13.0422 17.3239C12.2149 17.7896 11.347 18.0708 10.4049 18.1439C10.3405 18.1487 10.277 18.169 10.213 18.1817H9.68484C9.6213 18.1676 9.5582 18.1448 9.49378 18.1408C8.72382 18.0902 7.99578 17.8815 7.30436 17.5488C5.82224 16.8358 4.67326 15.7385 3.81152 14.3648C2.92286 12.9476 2.10084 11.488 1.26602 10.0382C0.734323 9.1148 0.357065 8.12756 0.166009 7.07651C0.0971754 6.69754 0.0539341 6.31374 -0.0012207 5.93214V5.27368L-0.000338227 5.2728ZM9.94164 17.2218C10.7376 17.2218 11.6832 16.9942 12.2674 16.6602C12.9028 16.2966 12.9244 16.2561 12.6561 15.5704C12.3526 14.7948 11.8976 14.1042 11.3924 13.4484C11.2336 13.242 11.0364 13.0589 10.8334 12.8939C10.525 12.6425 10.1896 12.6113 9.83751 12.8318C9.56482 13.0026 9.28596 13.1667 8.99783 13.3085C8.80369 13.404 8.59233 13.4999 8.38142 13.5189C7.35996 13.6122 6.58249 13.183 6.06316 12.3208C5.36953 11.1685 4.71341 9.99377 4.0264 8.83751C3.73474 8.34631 3.6037 7.82695 3.66106 7.26533C3.73077 6.58883 4.01669 6.03733 4.63752 5.69446C4.93226 5.53161 5.22083 5.35819 5.51205 5.18874C5.75429 5.04789 5.88313 4.83926 5.87166 4.55669C5.86592 4.41145 5.86681 4.26004 5.82665 4.12271C5.52352 3.0853 5.0108 2.1566 4.32468 1.32385C4.22452 1.20193 4.08773 1.1051 3.95448 1.01795C3.89977 0.982301 3.79255 0.972618 3.73651 1.00211C3.50353 1.12403 3.26747 1.24727 3.057 1.40308C1.70108 2.40704 1.01274 3.76532 0.975239 5.4405C0.943029 6.88592 1.35294 8.23012 2.05318 9.47968C2.83197 10.8701 3.6412 12.2433 4.45749 13.6122C4.97109 14.4731 5.62412 15.2244 6.40776 15.856C7.43894 16.6874 8.59366 17.2059 9.94208 17.2218H9.94164ZM6.51366 5.50652C6.61294 5.57782 6.6981 5.6346 6.7784 5.69754C8.24243 6.84455 9.70602 7.99244 11.17 9.13945C11.5557 9.44139 11.8297 9.44315 12.218 9.13945C14.2596 7.54218 16.3003 5.94402 18.3406 4.34542C18.3944 4.30317 18.4439 4.25476 18.5158 4.19049H6.8137C6.86842 4.66805 6.7912 5.10599 6.5141 5.50608L6.51366 5.50652Z" fill="#1D0E78"/>
</g>
<defs>
<clipPath id="clip0_1769_45">
<rect width="20" height="18.1818" fill="white"/>
</clipPath>
</defs>
</svg>
