<svg width="14" height="14" viewBox="0 0 14 14" fill="none" xmlns="http://www.w3.org/2000/svg">
<g clip-path="url(#clip0_638_73)">
<path d="M9.25027 12.9999C9.04741 12.9655 8.84315 12.9374 8.64194 12.8949C8.11227 12.7836 7.61618 12.5764 7.1337 12.3385C5.85483 11.7076 4.7206 10.8786 3.74272 9.84056C2.7179 8.75259 1.87761 7.54392 1.34488 6.1379C1.13546 5.58572 0.976745 5.02204 1.00281 4.42228C1.02041 4.01447 1.14673 3.65376 1.44537 3.36197C1.74402 3.07017 2.03656 2.77251 2.3352 2.48072C2.59816 2.22361 2.90267 2.08439 3.26823 2.2297C3.40534 2.28431 3.53752 2.37618 3.64388 2.47954C4.11392 2.93634 4.5748 3.40228 5.03638 3.86751C5.18664 4.01868 5.30333 4.19048 5.33761 4.40892C5.37705 4.66204 5.30239 4.88517 5.13499 5.06564C4.85114 5.37126 4.55179 5.66236 4.2576 5.95837C4.06579 6.1515 4.06719 6.15478 4.18013 6.40111C4.48347 7.06251 4.94317 7.61165 5.43128 8.13947C5.92057 8.66822 6.46081 9.13978 7.07242 9.52369C7.28302 9.65587 7.51006 9.76158 7.72981 9.87923C7.83077 9.93337 7.90684 9.89072 7.97915 9.81806C8.25667 9.53822 8.53559 9.26001 8.81451 8.98181C8.96008 8.83673 9.12255 8.7179 9.32845 8.67454C9.57779 8.62204 9.79896 8.69236 9.99829 8.84048C10.0607 8.88689 10.1183 8.94033 10.1734 8.99517C10.6162 9.43509 11.0616 9.87267 11.4978 10.3189C11.6077 10.4312 11.7099 10.562 11.7772 10.7028C11.919 10.9991 11.8636 11.2967 11.6519 11.5311C11.3044 11.9152 10.9344 12.2802 10.5613 12.6399C10.3577 12.8361 10.0969 12.9355 9.81633 12.9774C9.79896 12.98 9.78299 12.9927 9.76632 13.0006H9.25074L9.25027 12.9999Z" fill="white"/>
<path d="M12.9998 6.63719C12.6948 6.69297 12.3898 6.74875 12.0994 6.80195C11.4612 4.10008 9.79662 2.48477 7.06445 1.92789C7.10437 1.64125 7.14663 1.33609 7.19335 1C7.58121 1.09586 7.95898 1.17156 8.32547 1.28359C9.18994 1.54797 9.9659 1.98297 10.655 2.56586C11.3781 3.17758 11.9571 3.90602 12.3802 4.75516C12.6575 5.3118 12.8544 5.89586 12.9744 6.50594C12.9786 6.52727 12.9911 6.54672 12.9998 6.56711V6.63719Z" fill="white"/>
<path d="M10.5598 6.80561C10.2576 6.8574 9.96252 6.90779 9.65683 6.96006C9.32039 5.50529 8.416 4.62826 6.93945 4.32967C6.98195 4.02779 7.02445 3.72545 7.06718 3.42334C8.88346 3.64436 10.3138 5.146 10.5598 6.80561Z" fill="white"/>
</g>
<defs>
<clipPath id="clip0_638_73">
<rect width="12" height="12" fill="white" transform="translate(1 1)"/>
</clipPath>
</defs>
</svg>
