<svg width="19" height="19" viewBox="0 0 19 19" fill="none" xmlns="http://www.w3.org/2000/svg">
<g clip-path="url(#clip0_1769_40)">
<path d="M11.505 18.9998H10.6887C10.6281 18.9901 10.5678 18.9734 10.5069 18.9715C9.67271 18.9422 8.83854 18.915 8.00437 18.8872C6.8862 18.8496 5.76766 18.814 4.64949 18.7727C4.39336 18.7634 4.19709 18.6434 4.11159 18.3918C4.02349 18.1327 4.12571 17.9276 4.31084 17.7433C5.49332 16.5648 6.67245 15.383 7.85494 14.2045C7.90252 14.1573 7.97092 14.1313 8.0159 14.1038C7.59993 13.6932 7.22819 13.326 6.82226 12.9254C6.79587 12.964 6.76502 13.0279 6.71781 13.0755C5.55168 14.2443 4.38407 15.4112 3.21646 16.5782C3.16404 16.6306 3.11274 16.6852 3.05401 16.7298C2.72874 16.9766 2.26779 16.8175 2.17077 16.4225C2.11167 16.1813 2.21352 15.994 2.38266 15.8256C3.56514 14.6472 4.74465 13.4657 5.9249 12.285C5.97546 12.2345 6.02415 12.1817 6.05947 12.1449C5.67881 11.7625 5.31266 11.3953 4.9004 10.9813C4.87067 11.0311 4.84576 11.1006 4.79855 11.1482C3.62016 12.3304 2.44102 13.5125 1.25519 14.6873C1.15148 14.7899 1.00576 14.8854 0.866734 14.9103C0.506896 14.9738 0.241479 14.7114 0.228469 14.319C0.210997 13.7939 0.194641 13.2687 0.176798 12.7436C0.118807 11.0928 0.0652779 9.4431 0.000596394 7.79377C-0.012786 7.44927 0.133677 7.23966 0.436639 7.0977C1.82171 6.44733 3.20307 5.7899 4.58592 5.13545C4.96471 4.95595 5.14984 4.98828 5.44722 5.28708C5.61971 5.46026 5.78885 5.63642 5.97174 5.82409C6.06356 5.67655 6.12749 5.55651 6.20704 5.448C6.53491 4.99943 6.83973 4.53042 7.20292 4.11233C8.46123 2.66517 10.0504 1.70002 11.8369 1.053C13.9079 0.302665 16.0539 -0.0109978 18.253 -0.000220282C18.611 0.00163791 18.8582 0.12019 18.9999 0.448347V1.85834C18.9887 1.9178 18.9731 1.97689 18.9671 2.03673C18.9277 2.46077 18.8995 2.88592 18.8504 3.30885C18.6857 4.7233 18.3597 6.09873 17.8475 7.42957C16.9449 9.77572 15.4892 11.6655 13.3004 12.9521C13.2659 12.9726 13.2369 13.0023 13.2064 13.0264C13.2194 13.048 13.2239 13.0603 13.232 13.0688C13.393 13.2312 13.5547 13.3929 13.716 13.5549C14.0131 13.853 14.0454 14.0366 13.8655 14.4167C13.232 15.7543 12.5956 17.0903 11.9667 18.4301C11.8578 18.662 11.7407 18.8764 11.5042 19.0002L11.505 18.9998ZM6.86761 11.3351C6.91445 11.2913 6.94679 11.263 6.9769 11.2329C7.57168 10.6387 8.16422 10.0418 8.76159 9.45017C9.01734 9.19708 9.35934 9.19374 9.58684 9.42898C9.80765 9.65717 9.79427 9.98904 9.55152 10.2418C9.42737 10.3711 9.29837 10.4956 9.17161 10.6227C8.67386 11.1203 8.17574 11.6183 7.67836 12.1156C7.69249 12.1412 7.69844 12.1602 7.7107 12.1724C8.10771 12.5712 8.50287 12.9714 8.9062 13.3639C8.94597 13.4025 9.04114 13.4167 9.09764 13.3999C9.73516 13.21 10.3801 13.0394 11.0035 12.8105C12.389 12.3014 13.6257 11.5429 14.6591 10.4796C15.9806 9.11978 16.7453 7.45373 17.2568 5.65648C17.5821 4.51295 17.7575 3.34192 17.8397 2.15788C17.8635 1.81635 17.8434 1.47184 17.8434 1.12287C17.7932 1.12287 17.7256 1.11767 17.6586 1.12361C16.8776 1.19237 16.0925 1.2325 15.3167 1.33916C13.5729 1.57887 11.9098 2.08467 10.3731 2.96211C9.19094 3.637 8.19656 4.52262 7.41927 5.64273C6.5167 6.94309 5.95241 8.38951 5.59666 9.92363C5.58514 9.9738 5.59369 10.0518 5.62603 10.0849C6.03159 10.5004 6.44347 10.91 6.86761 11.3355V11.3351ZM1.30687 13.0499C1.37787 12.9826 1.42693 12.9387 1.47377 12.8919C2.41351 11.9528 3.35511 11.0155 4.28853 10.0704C4.38147 9.97603 4.44801 9.84076 4.4889 9.71217C4.72197 8.97893 4.94018 8.24123 5.1714 7.50761C5.24128 7.28612 5.4331 7.05236 5.39258 6.86171C5.35132 6.66808 5.08776 6.525 4.93089 6.35108C4.85803 6.27006 4.79743 6.27266 4.7071 6.3154C3.56068 6.86133 2.41314 7.40578 1.26337 7.94577C1.16189 7.99334 1.13438 8.05169 1.13847 8.1591C1.15966 8.68385 1.17081 9.20897 1.18903 9.73373C1.22657 10.8263 1.26635 11.919 1.30687 13.0502V13.0499ZM5.94758 17.6715C5.99516 17.692 6.00557 17.7002 6.01597 17.7005C7.63375 17.7548 9.25191 17.8102 10.8701 17.8574C10.9288 17.8592 11.0191 17.7998 11.0455 17.7451C11.5975 16.5945 12.1418 15.4399 12.6904 14.2874C12.7302 14.2042 12.7343 14.1477 12.6596 14.0793C12.5094 13.9418 12.3752 13.7864 12.2213 13.6534C12.1756 13.614 12.073 13.5947 12.0187 13.6181C11.105 14.0128 10.1597 14.3075 9.1928 14.5397C9.10953 14.5598 9.02515 14.6159 8.96344 14.6773C8.11701 15.5175 7.27503 16.3623 6.43083 17.2048C6.27805 17.3575 6.12006 17.5051 5.94758 17.6712V17.6715Z" fill="#1D0E78"/>
<path d="M13.121 8.08472C11.9229 8.08843 10.9271 7.09951 10.9185 5.89688C10.91 4.69352 11.9159 3.68415 13.1192 3.68898C14.3232 3.69381 15.3116 4.68386 15.3124 5.88611C15.3135 7.0865 14.3221 8.081 13.1207 8.08472H13.121ZM14.1838 5.87979C14.1812 5.28368 13.7072 4.81542 13.1091 4.81876C12.5129 4.82211 12.0434 5.29743 12.0478 5.89354C12.0523 6.49113 12.5266 6.95977 13.1229 6.95568C13.7191 6.95159 14.1864 6.47775 14.1838 5.87979Z" fill="#1D0E78"/>
</g>
<defs>
<clipPath id="clip0_1769_40">
<rect width="19" height="19" fill="white"/>
</clipPath>
</defs>
</svg>
