<svg width="19" height="19" viewBox="0 0 19 19" fill="none" xmlns="http://www.w3.org/2000/svg">
<g clip-path="url(#clip0_1769_48)">
<path d="M18.9999 6.73001C18.8968 6.99767 18.8294 7.28674 18.6834 7.52863C18.2836 8.19243 17.6765 8.54297 16.8991 8.54654C14.9737 8.55526 13.0486 8.55011 11.1231 8.54931C10.715 8.54931 10.4525 8.28998 10.4525 7.88591C10.4513 5.95399 10.4485 4.02167 10.4537 2.08975C10.4565 0.944159 11.3992 0.00674848 12.5481 0.00317966C13.9921 -0.00157877 15.4361 -0.000389161 16.8801 0.00278312C17.916 0.00516234 18.7607 0.710599 18.9638 1.73287C18.9697 1.7638 18.988 1.79235 19.0003 1.82209V6.73001H18.9999ZM11.7168 7.28476H11.9159C13.538 7.28476 15.1605 7.28555 16.7825 7.28476C17.3869 7.28476 17.734 6.93303 17.734 6.32197C17.7348 4.96344 17.7344 3.60491 17.734 2.24638C17.734 1.60955 17.3937 1.26773 16.7591 1.26733C15.4071 1.26694 14.0556 1.26733 12.7036 1.26733C12.0539 1.26733 11.7168 1.60439 11.7164 2.25352C11.7164 3.65805 11.7164 5.06297 11.7164 6.4675C11.7164 6.7308 11.7164 6.9937 11.7164 7.28516L11.7168 7.28476Z" fill="#1D0E78"/>
<path d="M1.82296 19.0001C1.5497 18.8935 1.25384 18.8237 1.00756 18.673C0.353973 18.2729 0.0109195 17.6686 0.0057638 16.8989C-0.00335785 15.4484 -0.000581695 13.9974 0.00417743 12.5469C0.00774677 11.3981 0.945294 10.456 2.09105 10.4532C4.02286 10.448 5.95467 10.4508 7.88687 10.452C8.2906 10.452 8.54958 10.7149 8.54958 11.123C8.55037 13.0418 8.55196 14.9606 8.54918 16.8795C8.54759 17.9132 7.84047 18.7598 6.81924 18.9637C6.78831 18.97 6.75975 18.9878 6.7304 19.0001H1.82296ZM7.28524 11.7166C7.19799 11.7166 7.13969 11.7166 7.08099 11.7166C5.46527 11.7166 3.84994 11.7166 2.23422 11.7166C1.61236 11.7166 1.26852 12.0612 1.26812 12.6837C1.26772 14.0422 1.26772 15.4008 1.26812 16.7593C1.26812 17.3934 1.61038 17.7336 2.24731 17.734C3.5993 17.7344 4.95089 17.7344 6.30287 17.734C6.94893 17.734 7.28524 17.3946 7.28563 16.7427C7.28563 15.1466 7.28563 13.5509 7.28563 11.9549V11.7166H7.28524Z" fill="#1D0E78"/>
<path d="M12.2717 18.9999C11.9985 18.8932 11.703 18.8234 11.4567 18.6731C10.8035 18.2734 10.4585 17.6699 10.4549 16.9006C10.4462 14.9699 10.4514 13.0387 10.4525 11.108C10.4525 10.7158 10.7171 10.4517 11.1093 10.4517C13.0336 10.4505 14.9575 10.449 16.8817 10.4517C17.9156 10.4533 18.7608 11.1603 18.9634 12.1818C18.9694 12.2128 18.9876 12.2413 18.9999 12.2706V17.1786C18.9868 17.2147 18.969 17.2495 18.9607 17.2864C18.7826 18.0874 18.3039 18.622 17.5333 18.8968C17.4179 18.938 17.2974 18.9654 17.1792 18.9991H12.2713L12.2717 18.9999ZM11.7169 11.7163V11.9399C11.7169 13.5491 11.7169 15.1582 11.7169 16.7674C11.7169 17.3895 12.0615 17.7337 12.6838 17.7341C14.0421 17.7349 15.4004 17.7345 16.7588 17.7341C17.3921 17.7341 17.7336 17.3907 17.7336 16.7547C17.734 15.4029 17.7336 14.0507 17.7336 12.6989C17.7336 12.0518 17.3953 11.7163 16.7429 11.7163C15.147 11.7163 13.5515 11.7163 11.9556 11.7163H11.7165H11.7169Z" fill="#1D0E78"/>
<path d="M4.93006 8.55018C4.00679 8.55018 3.08352 8.55177 2.15986 8.55018C0.923675 8.54701 0.00476766 7.62388 0.00357788 6.38312C0.0023881 4.97819 0.0023881 3.57327 0.00357788 2.16834C0.00476766 0.927581 0.923278 0.00404971 2.16025 0.00246357C3.57173 0.000480893 4.98321 0.000480893 6.39429 0.00246357C7.63166 0.00444625 8.54937 0.926391 8.55017 2.16874C8.55175 4.0618 8.55096 5.95486 8.55017 7.84792C8.55017 8.30552 8.3019 8.54979 7.83828 8.55018C6.86861 8.55058 5.89934 8.55018 4.92967 8.55018H4.93006ZM7.28583 7.28524V7.08102C7.28583 5.46514 7.28583 3.84965 7.28583 2.23377C7.28583 1.6124 6.94039 1.26781 6.31814 1.26781C4.95981 1.26741 3.60108 1.26741 2.24274 1.26781C1.60859 1.26781 1.26911 1.60962 1.26871 2.24685C1.26831 3.59864 1.26871 4.95083 1.26871 6.30262C1.26871 6.94937 1.6078 7.28484 2.2598 7.28524C3.85569 7.28524 5.45158 7.28524 7.04747 7.28524H7.28583Z" fill="#1D0E78"/>
</g>
<defs>
<clipPath id="clip0_1769_48">
<rect width="19" height="19" fill="white"/>
</clipPath>
</defs>
</svg>
