<svg width="10" height="10" viewBox="0 0 10 10" fill="none" xmlns="http://www.w3.org/2000/svg">
<path d="M5 9.95902C7.76142 9.95902 10 7.72962 10 4.97951C10 2.2294 7.76142 0 5 0C2.23858 0 0 2.2294 0 4.97951C0 7.72962 2.23858 9.95902 5 9.95902Z" fill="white"/>
<path d="M5 0C2.23868 0 0 2.22951 0 4.97951C0 7.09016 1.31687 8.89344 3.17695 9.61885C3.13169 9.22541 3.09465 8.61885 3.19342 8.18852C3.28395 7.79918 3.77778 5.71312 3.77778 5.71312C3.77778 5.71312 3.62963 5.41393 3.62963 4.97541C3.62963 4.28279 4.03292 3.76639 4.53498 3.76639C4.96296 3.76639 5.16872 4.08607 5.16872 4.46721C5.16872 4.89344 4.89712 5.53279 4.75309 6.12705C4.63374 6.62295 5.00412 7.02869 5.49383 7.02869C6.38272 7.02869 7.06584 6.09426 7.06584 4.75C7.06584 3.55738 6.20576 2.72541 4.97531 2.72541C3.55144 2.72541 2.71605 3.78689 2.71605 4.88525C2.71605 5.31148 2.88066 5.77049 3.08642 6.02049C3.12757 6.06967 3.13169 6.11475 3.11934 6.16393C3.0823 6.31967 2.99588 6.65984 2.97942 6.72951C2.95885 6.81967 2.90535 6.84016 2.8107 6.79508C2.18519 6.5041 1.79424 5.59836 1.79424 4.86475C1.79424 3.29508 2.93827 1.85246 5.09877 1.85246C6.83128 1.85246 8.18107 3.08197 8.18107 4.72951C8.18107 6.44672 7.09465 7.82787 5.58848 7.82787C5.0823 7.82787 4.60494 7.56557 4.44444 7.2541C4.44444 7.2541 4.19342 8.20492 4.13169 8.43853C4.02058 8.87295 3.71605 9.41393 3.51029 9.7459C3.97942 9.88934 4.47325 9.96721 4.99177 9.96721C7.75309 9.96721 9.99177 7.73771 9.99177 4.9877C10 2.22951 7.76132 0 5 0Z" fill="#E60019"/>
</svg>
