<svg width="14" height="17" viewBox="0 0 14 17" fill="none" xmlns="http://www.w3.org/2000/svg">
<g clip-path="url(#clip0_513_34377)">
<path d="M13.9997 3.31987C13.9588 3.50669 13.9298 3.69727 13.8751 3.88002C13.3132 5.75543 10.9407 6.37129 9.53225 5.00564C9.43126 4.90769 9.36865 4.91239 9.25917 4.98029C7.9073 5.81833 6.55261 6.65167 5.19854 7.48627C5.1633 7.50786 5.12964 7.53164 5.08748 7.5595C5.32312 8.18943 5.32281 8.81968 5.08623 9.45275C5.65724 9.8048 6.22038 10.1522 6.78384 10.4992C7.61849 11.0137 8.45441 11.5262 9.28685 12.0442C9.37715 12.1002 9.42686 12.102 9.50991 12.0241C10.2735 11.3066 11.1717 11.0731 12.1699 11.3973C13.1672 11.7212 13.7527 12.4378 13.9588 13.4608C13.9742 13.5365 13.9865 13.6129 14 13.6892V14.0641C13.9896 14.1086 13.9761 14.1527 13.9695 14.1978C13.8229 15.2007 13.2776 15.9045 12.3473 16.3057C12.1356 16.3971 11.9012 16.4368 11.6772 16.5H11.0493C10.7954 16.4252 10.5299 16.3773 10.2901 16.2716C9.05121 15.7252 8.44339 14.3646 8.85584 13.0809C8.89328 12.9648 8.87346 12.911 8.76901 12.8471C7.41683 12.0191 6.0678 11.1861 4.71751 10.3543C4.67378 10.3274 4.62847 10.303 4.57751 10.2736C4.30506 10.5511 3.99989 10.7733 3.64312 10.9217C2.06002 11.5791 0.275259 10.5734 0.0279785 8.88289C-0.212696 7.23686 1.13225 5.77765 2.79652 5.88812C3.44555 5.93099 4.00901 6.18321 4.47432 6.63853C4.54762 6.71019 4.59324 6.7346 4.69454 6.6717C6.0549 5.82709 7.41841 4.9878 8.78411 4.15133C8.88038 4.09219 8.89108 4.04337 8.85836 3.94042C8.34492 2.33506 9.39948 0.718448 11.0877 0.516919C12.4722 0.351377 13.8244 1.42192 13.9682 2.79633C13.9736 2.8464 13.989 2.89553 13.9997 2.94497V3.31987ZM0.96645 8.50237C0.965507 9.42051 1.70515 10.1609 2.62474 10.1622C3.54276 10.1634 4.29467 9.42396 4.30034 8.51394C4.30632 7.5983 3.55189 6.84601 2.6282 6.84663C1.70672 6.84726 0.96708 7.58422 0.966136 8.50237H0.96645ZM9.69364 3.12084C9.69112 4.03555 10.4336 4.78377 11.3482 4.78815C12.2665 4.79285 13.0278 4.03836 13.0272 3.1246C13.0263 2.21208 12.28 1.47231 11.3595 1.47105C10.4345 1.47012 9.69616 2.20113 9.69364 3.12053V3.12084ZM11.346 15.5377C12.2681 15.5421 13.0197 14.8086 13.0272 13.8973C13.0348 12.982 12.281 12.2235 11.3617 12.2206C10.4465 12.2178 9.69679 12.9614 9.69364 13.8745C9.69081 14.7955 10.4235 15.5334 11.346 15.5377Z" fill="white"/>
</g>
<defs>
<clipPath id="clip0_513_34377">
<rect width="14" height="16" fill="white" transform="translate(0 0.5)"/>
</clipPath>
</defs>
</svg>
