<svg width="10" height="10" viewBox="0 0 10 10" fill="none" xmlns="http://www.w3.org/2000/svg">
<path d="M10 5C10 2.23829 7.76171 0 5 0C2.23829 0 0 2.23829 0 5C0 7.4961 1.82812 9.56446 4.21875 9.93946V6.44531H2.94921V5H4.21875V3.89844C4.21875 2.6455 4.96485 1.95313 6.10742 1.95313C6.65429 1.95313 7.22656 2.05078 7.22656 2.05078V3.28125H6.59571C5.9746 3.28125 5.78125 3.667 5.78125 4.0625V5H7.16796L6.94629 6.44531H5.78125V9.93946C8.17188 9.56446 10 7.4961 10 5Z" fill="#1877F2"/>
<path d="M6.9463 6.44531L7.16797 5H5.78126V4.0625C5.78126 3.667 5.97461 3.28125 6.59572 3.28125H7.22657V2.05078C7.22657 2.05078 6.6543 1.95312 6.10743 1.95312C4.96486 1.95312 4.21876 2.6455 4.21876 3.89844V5H2.94922V6.44531H4.21876V9.93946C4.47364 9.9795 4.73439 10 5.00001 10C5.26564 10 5.52639 9.9795 5.78126 9.93946V6.44531H6.9463Z" fill="white"/>
</svg>
