<svg width="10" height="10" viewBox="0 0 10 10" fill="none" xmlns="http://www.w3.org/2000/svg">
<path d="M5.00036 0C3.64243 0 3.47202 0.0059376 2.93868 0.0302084C2.40638 0.0545834 2.04304 0.138854 1.72512 0.2625C1.39626 0.390208 1.1173 0.561042 0.839384 0.839063C0.561256 1.11698 0.390421 1.39594 0.262294 1.72469C0.138335 2.04271 0.0539589 2.40615 0.0300003 2.93823C0.00625008 3.47156 0 3.64208 0 5C0 6.35792 0.00604183 6.52781 0.0302087 7.06115C0.0546882 7.59344 0.13896 7.95677 0.262503 8.27469C0.390317 8.60354 0.561152 8.8825 0.839175 9.16042C1.11699 9.43854 1.39595 9.60979 1.7246 9.7375C2.04273 9.86115 2.40617 9.94542 2.93836 9.96979C3.4717 9.99406 3.64202 10 4.99984 10C6.35788 10 6.52778 9.99406 7.06112 9.96979C7.59341 9.94542 7.95717 9.86115 8.2753 9.7375C8.60405 9.60979 8.88259 9.43854 9.16041 9.16042C9.43854 8.8825 9.60937 8.60354 9.7375 8.27479C9.86042 7.95677 9.94479 7.59333 9.96979 7.06125C9.99375 6.52792 10 6.35792 10 5C10 3.64208 9.99375 3.47167 9.96979 2.93833C9.94479 2.40604 9.86042 2.04271 9.7375 1.72479C9.60937 1.39594 9.43854 1.11698 9.16041 0.839063C8.88228 0.560938 8.60415 0.390104 8.27498 0.2625C7.95623 0.138854 7.59268 0.0545834 7.06039 0.0302084C6.52705 0.0059376 6.35725 0 4.99891 0H5.00036ZM4.55182 0.901042C4.68494 0.900833 4.83349 0.901042 5.00036 0.901042C6.33538 0.901042 6.49361 0.905833 7.0208 0.929792C7.50831 0.952083 7.77289 1.03354 7.94915 1.10198C8.18248 1.1926 8.34884 1.30094 8.52374 1.47594C8.69874 1.65094 8.80707 1.8176 8.89791 2.05094C8.96634 2.22698 9.04791 2.49156 9.07009 2.97906C9.09405 3.50615 9.09926 3.66448 9.09926 4.99885C9.09926 6.33323 9.09405 6.49156 9.07009 7.01865C9.0478 7.50615 8.96634 7.77073 8.89791 7.94677C8.80728 8.1801 8.69874 8.34625 8.52374 8.52115C8.34873 8.69615 8.18259 8.80448 7.94915 8.8951C7.7731 8.96385 7.50831 9.0451 7.0208 9.0674C6.49371 9.09135 6.33538 9.09656 5.00036 9.09656C3.66525 9.09656 3.50702 9.09135 2.97993 9.0674C2.49242 9.0449 2.22784 8.96344 2.05148 8.895C1.81814 8.80437 1.65148 8.69604 1.47647 8.52104C1.30147 8.34604 1.19314 8.17979 1.1023 7.94635C1.03387 7.77031 0.952302 7.50573 0.930114 7.01823C0.906155 6.49115 0.901364 6.33281 0.901364 4.9976C0.901364 3.6624 0.906155 3.5049 0.930114 2.97781C0.952406 2.49031 1.03387 2.22573 1.1023 2.04948C1.19293 1.81615 1.30147 1.64948 1.47647 1.47448C1.65148 1.29948 1.81814 1.19115 2.05148 1.10031C2.22773 1.03156 2.49242 0.950313 2.97993 0.927917C3.44118 0.907083 3.61993 0.900833 4.55182 0.899792V0.901042Z" fill="url(#paint0_radial_538_35839)"/>
<path d="M7.6586 1.71897C7.53992 1.71897 7.42391 1.75416 7.32523 1.8201C7.22656 1.88604 7.14965 1.97976 7.10425 2.08941C7.05884 2.19905 7.04697 2.3197 7.07014 2.4361C7.09331 2.55249 7.15047 2.6594 7.2344 2.74331C7.31834 2.82721 7.42527 2.88434 7.54167 2.90746C7.65807 2.93059 7.77872 2.91868 7.88836 2.87324C7.99799 2.82779 8.09168 2.75086 8.15759 2.65216C8.22349 2.55346 8.25865 2.43744 8.25861 2.31876C8.25861 1.98751 7.98985 1.71876 7.6586 1.71876V1.71897Z" fill="url(#paint1_radial_538_35839)"/>
<path fill-rule="evenodd" clip-rule="evenodd" d="M4.98961 2.42001C3.57158 2.42001 2.42188 3.5697 2.42188 4.98772C2.42188 6.40574 3.57158 7.55491 4.98961 7.55491C6.40765 7.55491 7.55703 6.40574 7.55703 4.98772C7.55703 3.5697 6.40765 2.42001 4.98961 2.42001ZM5 6.64064C5.90609 6.64064 6.64063 5.9061 6.64063 5.00001C6.64063 4.09392 5.90609 3.35938 5 3.35938C4.09391 3.35938 3.35938 4.09392 3.35938 5.00001C3.35938 5.9061 4.09391 6.64064 5 6.64064Z" fill="url(#paint2_radial_538_35839)"/>
<path d="M5.00036 0C3.64243 0 3.47202 0.0059376 2.93868 0.0302084C2.40638 0.0545834 2.04304 0.138854 1.72512 0.2625C1.39626 0.390208 1.1173 0.561042 0.839384 0.839063C0.561256 1.11698 0.390421 1.39594 0.262294 1.72469C0.138335 2.04271 0.0539589 2.40615 0.0300003 2.93823C0.00625008 3.47156 0 3.64208 0 5C0 6.35792 0.00604183 6.52781 0.0302087 7.06115C0.0546882 7.59344 0.13896 7.95677 0.262503 8.27469C0.390317 8.60354 0.561152 8.8825 0.839175 9.16042C1.11699 9.43854 1.39595 9.60979 1.7246 9.7375C2.04273 9.86115 2.40617 9.94542 2.93836 9.96979C3.4717 9.99406 3.64202 10 4.99984 10C6.35788 10 6.52778 9.99406 7.06112 9.96979C7.59341 9.94542 7.95717 9.86115 8.2753 9.7375C8.60405 9.60979 8.88259 9.43854 9.16041 9.16042C9.43854 8.8825 9.60937 8.60354 9.7375 8.27479C9.86042 7.95677 9.94479 7.59333 9.96979 7.06125C9.99375 6.52792 10 6.35792 10 5C10 3.64208 9.99375 3.47167 9.96979 2.93833C9.94479 2.40604 9.86042 2.04271 9.7375 1.72479C9.60937 1.39594 9.43854 1.11698 9.16041 0.839063C8.88228 0.560938 8.60415 0.390104 8.27498 0.2625C7.95623 0.138854 7.59268 0.0545834 7.06039 0.0302084C6.52705 0.0059376 6.35725 0 4.99891 0H5.00036ZM4.55182 0.901042C4.68494 0.900833 4.83349 0.901042 5.00036 0.901042C6.33538 0.901042 6.49361 0.905833 7.0208 0.929792C7.50831 0.952083 7.77289 1.03354 7.94915 1.10198C8.18248 1.1926 8.34884 1.30094 8.52374 1.47594C8.69874 1.65094 8.80707 1.8176 8.89791 2.05094C8.96634 2.22698 9.04791 2.49156 9.07009 2.97906C9.09405 3.50615 9.09926 3.66448 9.09926 4.99885C9.09926 6.33323 9.09405 6.49156 9.07009 7.01865C9.0478 7.50615 8.96634 7.77073 8.89791 7.94677C8.80728 8.1801 8.69874 8.34625 8.52374 8.52115C8.34873 8.69615 8.18259 8.80448 7.94915 8.8951C7.7731 8.96385 7.50831 9.0451 7.0208 9.0674C6.49371 9.09135 6.33538 9.09656 5.00036 9.09656C3.66525 9.09656 3.50702 9.09135 2.97993 9.0674C2.49242 9.0449 2.22784 8.96344 2.05148 8.895C1.81814 8.80437 1.65148 8.69604 1.47647 8.52104C1.30147 8.34604 1.19314 8.17979 1.1023 7.94635C1.03387 7.77031 0.952302 7.50573 0.930114 7.01823C0.906155 6.49115 0.901364 6.33281 0.901364 4.9976C0.901364 3.6624 0.906155 3.5049 0.930114 2.97781C0.952406 2.49031 1.03387 2.22573 1.1023 2.04948C1.19293 1.81615 1.30147 1.64948 1.47647 1.47448C1.65148 1.29948 1.81814 1.19115 2.05148 1.10031C2.22773 1.03156 2.49242 0.950313 2.97993 0.927917C3.44118 0.907083 3.61993 0.900833 4.55182 0.899792V0.901042Z" fill="url(#paint3_radial_538_35839)"/>
<path d="M7.6586 1.71897C7.53992 1.71897 7.42391 1.75416 7.32523 1.8201C7.22656 1.88604 7.14965 1.97976 7.10425 2.08941C7.05884 2.19905 7.04697 2.3197 7.07014 2.4361C7.09331 2.55249 7.15047 2.6594 7.2344 2.74331C7.31834 2.82721 7.42527 2.88434 7.54167 2.90746C7.65807 2.93059 7.77872 2.91868 7.88836 2.87324C7.99799 2.82779 8.09168 2.75086 8.15759 2.65216C8.22349 2.55346 8.25865 2.43744 8.25861 2.31876C8.25861 1.98751 7.98985 1.71876 7.6586 1.71876V1.71897Z" fill="url(#paint4_radial_538_35839)"/>
<path fill-rule="evenodd" clip-rule="evenodd" d="M4.98961 2.42001C3.57158 2.42001 2.42188 3.5697 2.42188 4.98772C2.42188 6.40574 3.57158 7.55491 4.98961 7.55491C6.40765 7.55491 7.55703 6.40574 7.55703 4.98772C7.55703 3.5697 6.40765 2.42001 4.98961 2.42001ZM5 6.64064C5.90609 6.64064 6.64063 5.9061 6.64063 5.00001C6.64063 4.09392 5.90609 3.35938 5 3.35938C4.09391 3.35938 3.35938 4.09392 3.35938 5.00001C3.35938 5.9061 4.09391 6.64064 5 6.64064Z" fill="url(#paint5_radial_538_35839)"/>
<defs>
<radialGradient id="paint0_radial_538_35839" cx="0" cy="0" r="1" gradientUnits="userSpaceOnUse" gradientTransform="translate(2.65626 10.7702) rotate(-90) scale(9.91074 9.21777)">
<stop stop-color="#FFDD55"/>
<stop offset="0.1" stop-color="#FFDD55"/>
<stop offset="0.5" stop-color="#FF543E"/>
<stop offset="1" stop-color="#C837AB"/>
</radialGradient>
<radialGradient id="paint1_radial_538_35839" cx="0" cy="0" r="1" gradientUnits="userSpaceOnUse" gradientTransform="translate(2.65626 10.7702) rotate(-90) scale(9.91074 9.21777)">
<stop stop-color="#FFDD55"/>
<stop offset="0.1" stop-color="#FFDD55"/>
<stop offset="0.5" stop-color="#FF543E"/>
<stop offset="1" stop-color="#C837AB"/>
</radialGradient>
<radialGradient id="paint2_radial_538_35839" cx="0" cy="0" r="1" gradientUnits="userSpaceOnUse" gradientTransform="translate(2.65626 10.7702) rotate(-90) scale(9.91074 9.21777)">
<stop stop-color="#FFDD55"/>
<stop offset="0.1" stop-color="#FFDD55"/>
<stop offset="0.5" stop-color="#FF543E"/>
<stop offset="1" stop-color="#C837AB"/>
</radialGradient>
<radialGradient id="paint3_radial_538_35839" cx="0" cy="0" r="1" gradientUnits="userSpaceOnUse" gradientTransform="translate(-1.67505 0.720383) rotate(78.6806) scale(4.43014 18.2612)">
<stop stop-color="#3771C8"/>
<stop offset="0.128" stop-color="#3771C8"/>
<stop offset="1" stop-color="#6600FF" stop-opacity="0"/>
</radialGradient>
<radialGradient id="paint4_radial_538_35839" cx="0" cy="0" r="1" gradientUnits="userSpaceOnUse" gradientTransform="translate(-1.67505 0.720383) rotate(78.6806) scale(4.43014 18.2612)">
<stop stop-color="#3771C8"/>
<stop offset="0.128" stop-color="#3771C8"/>
<stop offset="1" stop-color="#6600FF" stop-opacity="0"/>
</radialGradient>
<radialGradient id="paint5_radial_538_35839" cx="0" cy="0" r="1" gradientUnits="userSpaceOnUse" gradientTransform="translate(-1.67505 0.720383) rotate(78.6806) scale(4.43014 18.2612)">
<stop stop-color="#3771C8"/>
<stop offset="0.128" stop-color="#3771C8"/>
<stop offset="1" stop-color="#6600FF" stop-opacity="0"/>
</radialGradient>
</defs>
</svg>
