<svg width="38" height="38" viewBox="0 0 38 38" fill="none" xmlns="http://www.w3.org/2000/svg">
<path d="M19.0008 0C8.50694 0 0 8.50849 0 19.0008C0 29.4946 8.50694 38 19.0008 38C29.4946 38 38 29.4946 38 19.0008C38 8.50849 29.4938 0 19.0008 0ZM28.5718 15.1698C28.5818 15.375 28.5856 15.581 28.5856 15.7894C28.5856 22.1173 23.7693 29.4128 14.9622 29.4128C12.2585 29.4128 9.74074 28.6204 7.62191 27.2623C7.99691 27.3063 8.37731 27.3287 8.76389 27.3287C11.0077 27.3287 13.0725 26.5633 14.7106 25.2793C12.6157 25.24 10.848 23.8549 10.2384 21.9529C10.5301 22.01 10.8302 22.0386 11.1389 22.0386C11.5756 22.0386 11.9985 21.9815 12.4005 21.8711C10.2091 21.4313 8.55864 19.4946 8.55864 17.1767C8.55864 17.1559 8.55864 17.1358 8.55941 17.115C9.20448 17.4738 9.9429 17.689 10.7284 17.7145C9.4429 16.8542 8.59799 15.3904 8.59799 13.7284C8.59799 12.8511 8.8341 12.0278 9.24614 11.321C11.608 14.2176 15.1366 16.1242 19.1165 16.3233C19.0347 15.9738 18.9923 15.6073 18.9923 15.2323C18.9923 12.5887 21.1358 10.4444 23.7809 10.4444C25.1582 10.4444 26.402 11.0262 27.2755 11.956C28.3665 11.7423 29.3912 11.3426 30.3164 10.794C29.9576 11.9128 29.1991 12.8511 28.2099 13.4429C29.1798 13.3272 30.1026 13.0694 30.9606 12.689C30.3202 13.6512 29.5077 14.4946 28.5718 15.1698Z" fill="#8E86BB"/>
</svg>
