<svg width="18" height="19" viewBox="0 0 18 19" fill="none" xmlns="http://www.w3.org/2000/svg">
<g clip-path="url(#clip0_1825_505)">
<path d="M0.000976562 0.819945C0.023863 0.775216 0.0495662 0.731191 0.0696358 0.685406C0.310824 0.131051 1.00868 -0.0270852 1.46324 0.371248C1.52486 0.425134 1.5812 0.485359 1.63894 0.543119C4.03709 2.94122 6.43523 5.33932 8.83267 7.73777C8.88232 7.78742 8.92422 7.84448 8.98231 7.91316C9.04921 7.84941 9.09956 7.80363 9.14745 7.75573C11.5748 5.32875 14.0025 2.90248 16.4274 0.473032C16.688 0.212055 16.9816 0.0845607 17.3464 0.183175C17.9901 0.357512 18.214 1.12988 17.7675 1.62647C17.7207 1.6786 17.6697 1.7272 17.6197 1.77686C15.2176 4.17918 12.8153 6.58151 10.4129 8.98348C10.3632 9.03314 10.309 9.07787 10.2418 9.13845C10.3006 9.20008 10.3463 9.25009 10.3942 9.29799C12.8212 11.7253 15.2476 14.1534 17.6763 16.5786C17.9637 16.8656 18.0788 17.1896 17.9408 17.582C17.8323 17.8898 17.5869 18.0472 17.295 18.149H16.9436C16.6964 18.0712 16.5095 17.9106 16.3292 17.7299C13.9385 15.3339 11.5438 12.9415 9.15238 10.5462C9.10414 10.4979 9.08161 10.4247 9.0471 10.363C8.92387 10.4511 8.88514 10.511 8.83584 10.5603C6.45143 12.9464 4.06561 15.3307 1.68225 17.7179C1.49845 17.9021 1.31184 18.074 1.05586 18.149H0.70447C0.347442 18.0374 0.110831 17.8053 0.00132866 17.446V17.0945C0.0770299 16.8385 0.248854 16.6522 0.433002 16.4683C2.8234 14.0819 5.21098 11.6929 7.59892 9.30433C7.64751 9.25573 7.69363 9.20501 7.77215 9.12189C7.7056 9.07294 7.64258 9.03807 7.59364 8.98912C5.23739 6.63539 2.88291 4.27956 0.526308 1.92549C0.32033 1.7198 0.109775 1.52081 0.000976562 1.24187C0.000976562 1.10135 0.000976562 0.960823 0.000976562 0.819945Z" fill="white"/>
</g>
<defs>
<clipPath id="clip0_1825_505">
<rect width="18" height="18" fill="white" transform="translate(0.000976562 0.149414)"/>
</clipPath>
</defs>
</svg>
