<svg width="140" height="38" viewBox="0 0 140 38" fill="none" xmlns="http://www.w3.org/2000/svg">
<path d="M5.53442 0C5.12759 0 4.78204 0.295345 4.71842 0.697506L0.00923528 30.5618C-0.00787623 30.6709 -0.00115266 30.7824 0.0289361 30.8887C0.0590249 30.9949 0.111779 31.0934 0.18355 31.1773C0.255322 31.2612 0.344391 31.3286 0.444685 31.3748C0.544978 31.421 0.654106 31.445 0.76453 31.445H6.34924C6.75549 31.445 7.10162 31.149 7.16524 30.7475L8.54858 21.9776C8.61162 21.576 8.95775 21.2801 9.36458 21.2801H14.4421C20.3746 21.2801 25.4107 16.9514 26.3306 11.086C27.2581 5.17088 22.637 0.0128411 16.0875 0H5.53442ZM10.9633 6.66687H15.0257C18.3703 6.66687 19.4595 8.64032 19.1151 10.8227C18.7707 13.0098 17.0792 14.6208 13.8438 14.6208H9.70893L10.9633 6.66687ZM37.6891 8.69693C36.2789 8.70219 34.6563 8.99111 32.8346 9.74991C28.656 11.4916 26.6493 15.0912 25.7971 17.7155C25.7971 17.7155 23.0847 25.7219 29.2129 30.1206C29.2129 30.1206 34.8962 34.3552 41.294 29.8597L41.1837 30.5618C41.1666 30.6708 41.1733 30.7822 41.2033 30.8884C41.2333 30.9946 41.2859 31.093 41.3576 31.1769C41.4292 31.2608 41.5182 31.3282 41.6183 31.3745C41.7185 31.4207 41.8275 31.4448 41.9378 31.445H47.2394C47.6463 31.445 47.9918 31.149 48.0554 30.7475L51.2803 10.2962C51.2976 10.1872 51.291 10.0756 51.2611 9.96932C51.2312 9.86301 51.1785 9.76446 51.1069 9.68042C51.0352 9.59639 50.9462 9.52888 50.846 9.48253C50.7457 9.43619 50.6366 9.41211 50.5262 9.41195H45.2246C44.8177 9.41195 44.4716 9.70788 44.4086 10.1095L44.2352 11.2103C44.2352 11.2103 41.9203 8.68117 37.6891 8.69693ZM37.8625 15.1566C38.4713 15.1566 39.0281 15.2407 39.5278 15.4012C41.8152 16.1354 43.1122 18.333 42.7369 20.715C42.274 23.6481 39.8686 25.8077 36.7839 25.8077C36.1757 25.8077 35.6188 25.7242 35.1186 25.5637C32.8317 24.8295 31.5266 22.6319 31.9019 20.2499C32.3648 17.3168 34.7777 15.1566 37.8625 15.1566Z" fill="white"/>
<path d="M81.8806 0C81.4738 0 81.1282 0.295345 81.0646 0.697506L76.3554 30.5618C76.3383 30.6709 76.345 30.7824 76.3751 30.8887C76.4052 30.9949 76.458 31.0934 76.5297 31.1773C76.6015 31.2612 76.6906 31.3286 76.7909 31.3748C76.8912 31.421 77.0003 31.445 77.1107 31.445H82.6954C83.1017 31.445 83.4478 31.149 83.5114 30.7475L84.8948 21.9776C84.9578 21.576 85.3039 21.2801 85.7108 21.2801H90.7882C96.7208 21.2801 101.756 16.9514 102.676 11.086C103.604 5.17088 98.9832 0.0128411 92.4337 0H81.8806ZM87.3095 6.66687H91.3719C94.7165 6.66687 95.8056 8.64032 95.4613 10.8227C95.1169 13.0098 93.426 14.6208 90.19 14.6208H86.0552L87.3095 6.66687ZM114.035 8.69693C112.625 8.70219 111.002 8.99111 109.18 9.74991C105.002 11.4916 102.995 15.0912 102.143 17.7155C102.143 17.7155 99.4315 25.7219 105.56 30.1206C105.56 30.1206 111.242 34.3552 117.64 29.8597L117.53 30.5618C117.513 30.6709 117.519 30.7824 117.55 30.8887C117.58 30.9949 117.632 31.0934 117.704 31.1773C117.776 31.2612 117.865 31.3286 117.965 31.3748C118.066 31.421 118.175 31.445 118.285 31.445H123.586C123.993 31.445 124.339 31.149 124.402 30.7475L127.628 10.2962C127.646 10.1871 127.639 10.0754 127.609 9.96904C127.579 9.86265 127.526 9.76403 127.454 9.67998C127.383 9.59593 127.294 9.52844 127.193 9.48217C127.093 9.4359 126.984 9.41194 126.873 9.41195H121.571C121.164 9.41195 120.818 9.70788 120.755 10.1095L120.582 11.2103C120.582 11.2103 118.266 8.68117 114.035 8.69693ZM114.208 15.1566C114.817 15.1566 115.374 15.2407 115.873 15.4012C118.161 16.1354 119.458 18.333 119.083 20.715C118.62 23.6481 116.214 25.8077 113.129 25.8077C112.521 25.8077 111.964 25.7242 111.464 25.5637C109.177 24.8295 107.872 22.6319 108.248 20.2499C108.71 17.3168 111.123 15.1566 114.208 15.1566Z" fill="white"/>
<path d="M53.7961 9.41172C53.3758 9.41172 53.077 9.82205 53.2054 10.2219L59.0177 28.2584L53.7622 36.758C53.5071 37.1707 53.8037 37.7036 54.2887 37.7036H60.5003C60.6779 37.7034 60.8525 37.6575 61.0072 37.5702C61.1619 37.4829 61.2915 37.3571 61.3834 37.2051L77.6163 10.3515C77.8656 9.93879 77.5679 9.41113 77.0858 9.41113H70.8748C70.6954 9.41129 70.5191 9.45813 70.3634 9.54707C70.2076 9.63601 70.0777 9.76397 69.9864 9.91836L63.5967 20.7061L60.3532 9.99832C60.2476 9.64986 59.9259 9.41113 59.5623 9.41113L53.7961 9.41172Z" fill="white"/>
<path d="M133.652 0C133.246 0 132.9 0.295929 132.836 0.697506L128.126 30.5607C128.108 30.6699 128.115 30.7815 128.145 30.8879C128.175 30.9943 128.228 31.0929 128.299 31.1769C128.371 31.261 128.46 31.3285 128.561 31.3748C128.661 31.421 128.77 31.445 128.881 31.445H134.466C134.872 31.445 135.218 31.149 135.282 30.7475L139.991 0.883119C140.008 0.774126 140.001 0.662723 139.971 0.55656C139.941 0.450398 139.889 0.351989 139.817 0.26809C139.745 0.184192 139.656 0.11679 139.556 0.0705138C139.456 0.0242374 139.347 0.000183218 139.237 0H133.652Z" fill="white"/>
</svg>
