<svg width="147" height="30" viewBox="0 0 147 30" fill="none" xmlns="http://www.w3.org/2000/svg">
<path d="M4.79653 19.4517C4.79653 21.1474 5.1687 22.4492 5.65515 23.2368C6.29294 24.2684 7.24421 24.7054 8.21402 24.7054C9.46489 24.7054 10.6092 24.395 12.8144 21.345C14.5811 18.9004 16.6628 15.469 18.0634 13.3179L20.4354 9.67337C22.0832 7.14229 23.9904 4.32862 26.1771 2.42143C27.9623 0.864797 29.888 0 31.8261 0C35.0799 0 38.1792 1.88557 40.5512 5.42197C43.1472 9.29502 44.4073 14.1734 44.4073 19.2077C44.4073 22.2006 43.8174 24.3996 42.8136 26.1369C41.8438 27.8171 39.9536 29.4957 36.7739 29.4957V24.7054C39.4965 24.7054 40.176 22.2036 40.176 19.3406C40.176 15.2606 39.2247 10.7327 37.1291 7.49748C35.642 5.20268 33.7147 3.80047 31.5944 3.80047C29.3012 3.80047 27.4557 5.53006 25.3818 8.61399C24.2792 10.2525 23.1472 12.2492 21.8763 14.5023L20.4771 16.9809C17.6666 21.9643 16.9546 23.0993 15.5493 24.9725C13.0862 28.2526 10.9829 29.4957 8.21402 29.4957C4.92934 29.4957 2.85228 28.0735 1.5659 25.93C0.515789 24.1834 0 21.8917 0 19.2803L4.79653 19.4517Z" fill="white"/>
<path d="M3.78174 5.76016C5.98079 2.37047 9.15429 0 12.7942 0C14.9021 0 16.9977 0.623889 19.1859 2.41062C21.5796 4.36413 24.1307 7.58087 27.3135 12.8824L28.4547 14.7849C31.2097 19.3745 32.7771 21.7357 33.6944 22.8492C34.8743 24.2792 35.7005 24.7054 36.7737 24.7054C39.4963 24.7054 40.1758 22.2036 40.1758 19.3406L44.4071 19.2077C44.4071 22.2006 43.8172 24.3996 42.8134 26.1369C41.8436 27.8171 39.9534 29.4957 36.7737 29.4957C34.797 29.4957 33.0458 29.0664 31.1093 27.2395C29.6206 25.8373 27.8802 23.3464 26.5413 21.1072L22.5586 14.4545C20.5603 11.1157 18.7273 8.62635 17.6664 7.49902C16.5251 6.28676 15.0581 4.82278 12.7169 4.82278C10.8221 4.82278 9.21297 6.15241 7.86636 8.18622L3.78174 5.76016Z" fill="white"/>
<path d="M12.7171 4.82278C10.8223 4.82278 9.21317 6.15241 7.86656 8.18623C5.96246 11.0601 4.79653 15.3409 4.79653 19.4517C4.79653 21.1474 5.1687 22.4492 5.65515 23.2368L1.5659 25.93C0.515789 24.1834 0 21.8917 0 19.2803C0 14.5317 1.30337 9.58225 3.78194 5.76016C5.98099 2.37047 9.15449 0 12.7944 0L12.7171 4.82278Z" fill="white"/>
<path d="M53.7314 0.932922H59.28L68.714 18.0003L78.1496 0.932922H83.5777V28.977H79.0515V7.48376L70.7772 22.3675H66.5304L58.2577 7.48376V28.977H53.7314V0.932922ZM97.7604 11.3892C94.5143 11.3892 92.5593 13.8323 92.0914 16.8575H103.108C102.881 13.7412 101.084 11.3892 97.7604 11.3892ZM87.6037 18.581C87.6037 12.2154 91.7176 7.58259 97.8392 7.58259C103.86 7.58259 107.455 12.1567 107.455 18.9207V20.1638H92.0914C92.6365 23.4547 94.8201 25.6723 98.341 25.6723C101.15 25.6723 102.906 24.8152 104.571 23.2478L106.975 26.1927C104.71 28.2759 101.828 29.4774 98.1804 29.4774C91.5539 29.4774 87.6037 24.6453 87.6037 18.581ZM112.944 11.7908H108.777V8.08448H112.944V1.95524H117.311V8.08448H123.641V11.7908H117.311V21.1846C117.311 24.3921 118.336 25.5318 120.857 25.5318C122.007 25.5318 122.667 25.4329 123.641 25.2708V28.9369C122.427 29.2797 121.269 29.4372 120.015 29.4372C115.3 29.4372 112.944 26.8614 112.944 21.705V11.7908ZM142.03 15.3951C141.153 13.1806 139.197 11.5498 136.321 11.5498C132.584 11.5498 130.192 14.2014 130.192 18.5207C130.192 22.732 132.394 25.5117 136.142 25.5117C139.088 25.5117 141.192 23.7975 142.03 21.6649V15.3951ZM146.397 28.977H142.111V26.0522C140.912 27.774 138.732 29.4774 135.2 29.4774C129.52 29.4774 125.724 24.7226 125.724 18.5207C125.724 12.2602 129.611 7.58259 135.441 7.58259C138.322 7.58259 140.583 8.73462 142.111 10.7684V8.08448H146.397V28.977Z" fill="white"/>
</svg>
