<svg width="181" height="40" viewBox="0 0 181 40" fill="none" xmlns="http://www.w3.org/2000/svg">
<path d="M66.3699 13.1306H62.2163V32.9606H66.3699V24.9214H75.481V32.9606H79.5006V13.1306H75.481V21.1698H66.3699V13.1306ZM98.2587 24.5195C98.2587 27.7352 96.6508 29.477 93.7031 29.477C90.7554 29.477 89.1476 27.7352 89.1476 24.3855V13.1306H85.128V24.5195C85.128 30.1469 88.2097 33.3626 93.7031 33.3626C99.1966 33.3626 102.278 30.1469 102.278 24.3855V13.1306H98.2587V24.5195ZM137.115 13.1306L132.559 26.7972L128.138 13.1306H123.85L130.817 32.9606H134.167L138.723 19.9639L143.144 32.9606H146.628L153.461 13.1306H149.308L144.886 26.7972L140.33 13.1306H137.115ZM168.066 20.7679H160.696V16.7483H171.415V13.1306H156.677V32.9606H171.817V29.343H160.696V24.3855H168.066V20.7679ZM176.641 13.1306H180.66V32.9606H176.641V13.1306ZM119.295 28.807L121.036 32.9606H125.324L116.615 13.1306L116.481 12.9966H112.997L104.288 32.9606H108.442L110.183 29.075L110.317 28.807H119.295ZM114.739 18.0881L117.553 24.7875L117.687 25.1894H111.523L111.657 24.7875L114.739 18.0881Z" fill="white"/>
<path d="M22.5562 30.9509C22.5562 30.9509 22.6902 30.8169 22.5562 30.8169C16.3929 17.4182 7.95171 7.10128 7.95171 7.10128C7.95171 7.10128 3.39617 11.3888 3.66414 15.8104C3.79813 19.1601 6.34387 21.0359 6.34387 21.0359C10.3635 24.9215 20.0105 29.879 22.2883 30.9509H22.5562ZM20.9484 34.3005C20.9484 34.1665 20.6804 34.1665 20.6804 34.1665L4.60205 34.7025C6.34387 37.7842 9.29157 40.1959 12.3733 39.526C14.517 38.9901 19.3406 35.6404 20.8144 34.5685C21.0824 34.3005 20.9484 34.3005 20.9484 34.3005ZM21.2164 32.8267C21.3504 32.6927 21.2164 32.5587 21.2164 32.5587C14.1151 27.7352 0.448467 20.4999 0.448467 20.4999C-0.757411 24.3855 0.850426 27.4672 0.850426 27.4672C2.59225 31.2188 5.94191 32.2907 5.94191 32.2907C7.41576 32.9607 9.0236 32.9607 9.0236 32.9607H21.0824C21.2164 32.9607 21.2164 32.8267 21.2164 32.8267ZM22.2883 0.133986C21.6183 0.133986 19.7425 0.669932 19.7425 0.669932C15.4549 1.74182 14.517 5.62743 14.517 5.62743C13.7131 8.03919 14.517 10.7189 14.517 10.7189C15.9909 17.0163 22.9582 27.4672 24.432 29.611L24.566 29.745C24.7 29.745 24.7 29.611 24.7 29.611C27.1118 6.16338 22.2883 0.133986 22.2883 0.133986ZM27.6477 29.611C27.7817 29.611 27.9157 29.477 27.9157 29.477C29.5235 27.1992 36.3568 16.8823 37.8307 10.5849C37.8307 10.5849 38.6346 7.50324 37.8307 5.49344C37.8307 5.49344 36.7588 1.60784 32.4712 0.535946C32.4712 0.535946 31.2654 0.267973 29.9255 0C29.9255 0 25.102 6.16338 27.5137 29.343C27.5137 29.611 27.6477 29.611 27.6477 29.611ZM31.3993 34.1665C31.3993 34.1665 31.2654 34.1665 31.2654 34.3005V34.5685C32.8732 35.6404 37.4287 38.9901 39.7065 39.526C39.7065 39.526 43.8601 40.9999 47.4777 34.7025L31.3993 34.1665ZM51.8993 20.3659C51.8993 20.3659 38.2326 27.7352 31.1314 32.5587C31.1314 32.5587 30.9974 32.6927 30.9974 32.8267C30.9974 32.8267 30.9974 32.9607 31.1314 32.9607H43.4581C43.4581 32.9607 44.664 32.9607 46.2718 32.2907C46.2718 32.2907 49.6215 31.2188 51.4973 27.3332C51.4973 27.1992 53.1051 24.1176 51.8993 20.3659ZM29.7915 30.9509C29.7915 30.9509 29.9255 31.0849 30.0595 30.9509C32.3372 29.745 41.9843 24.9215 46.0039 21.0359C46.0039 21.0359 48.5496 19.0261 48.6836 15.8104C48.9516 11.2549 44.396 7.10128 44.396 7.10128C44.396 7.10128 35.9549 17.1503 29.7915 30.6829C29.7915 30.6829 29.6575 30.8169 29.7915 30.9509Z" fill="white"/>
</svg>
