<svg width="133" height="41" viewBox="0 0 133 41" fill="none" xmlns="http://www.w3.org/2000/svg">
<path fill-rule="evenodd" clip-rule="evenodd" d="M82.4042 31.3034C74.6854 36.9929 63.4974 40.0284 53.8647 40.0284C40.358 40.0284 28.1986 35.0327 18.9995 26.7242C18.2769 26.0706 18.9244 25.1803 19.7916 25.6892C29.7192 31.4653 41.9943 34.9403 54.6741 34.9403C63.2256 34.9403 72.6328 33.171 81.2826 29.4995C82.5892 28.9444 83.682 30.3552 82.4042 31.3034Z" fill="white"/>
<path fill-rule="evenodd" clip-rule="evenodd" d="M85.6131 27.6317C84.6302 26.3712 79.091 27.0361 76.6047 27.331C75.8473 27.4236 75.7317 26.7643 76.4139 26.2903C80.8256 23.1854 88.0646 24.0816 88.9087 25.1223C89.7528 26.1689 88.689 33.4252 84.5433 36.8885C83.9073 37.4205 83.3002 37.1372 83.5835 36.4317C84.5145 34.1075 86.6018 28.898 85.6131 27.6317Z" fill="white"/>
<path fill-rule="evenodd" clip-rule="evenodd" d="M76.7783 4.37112V1.35299C76.7783 0.896193 77.1252 0.589758 77.5415 0.589758H91.0539C91.4876 0.589758 91.8345 0.901905 91.8345 1.35299V3.93743C91.8287 4.37112 91.4645 4.93776 90.8169 5.83396L83.815 15.8309C86.4168 15.7674 89.1632 16.1547 91.5222 17.4846C92.0542 17.7852 92.1987 18.2247 92.2393 18.6583V21.8788C92.2393 22.3182 91.7535 22.8328 91.2448 22.5669C87.0875 20.3872 81.5658 20.1501 76.9692 22.59C76.5008 22.8445 76.0093 22.3356 76.0093 21.8962V18.8376C76.0093 18.3461 76.0151 17.5077 76.5065 16.7619L84.6186 5.12864H77.5588C77.1252 5.12864 76.7783 4.8222 76.7783 4.37112ZM27.4874 23.2029H23.3763C22.9832 23.174 22.671 22.8792 22.6421 22.5033V1.40506C22.6421 0.98293 22.9947 0.647539 23.4341 0.647539H27.2676C27.6666 0.664806 27.9846 0.971374 28.0135 1.35286V4.11104H28.0887C29.0889 1.44557 30.968 0.202563 33.5005 0.202563C36.0734 0.202563 37.6809 1.44557 38.8373 4.11104C39.8318 1.44557 42.0925 0.202563 44.5152 0.202563C46.2381 0.202563 48.1231 0.913727 49.2736 2.50953C50.5746 4.28451 50.3086 6.86324 50.3086 9.12398L50.3028 22.4398C50.3028 22.8619 49.9501 23.203 49.5107 23.203H45.4055C44.9951 23.1742 44.6654 22.8446 44.6654 22.4398V11.2575C44.6654 10.367 44.7464 8.14663 44.5499 7.30264C44.2434 5.88603 43.3241 5.48701 42.1329 5.48701C41.1384 5.48701 40.0977 6.15195 39.6756 7.2159C39.2536 8.27986 39.2941 10.0606 39.2941 11.2575V22.4396C39.2941 22.8618 38.9413 23.2029 38.5019 23.2029H34.3967C33.9804 23.174 33.6566 22.8445 33.6566 22.4396L33.6509 11.2575C33.6509 8.90415 34.0382 5.44092 31.1184 5.44092C28.1639 5.44092 28.2794 8.81742 28.2794 11.2575V22.4396C28.2794 22.8618 27.9268 23.2029 27.4874 23.2029ZM103.468 0.202431C109.568 0.202431 112.869 5.44078 112.869 12.1016C112.869 18.5369 109.221 23.6424 103.468 23.6424C97.4776 23.6424 94.2167 18.4039 94.2167 11.8761C94.2167 5.30782 97.5181 0.202431 103.468 0.202431ZM103.502 4.50992C100.473 4.50992 100.282 8.63823 100.282 11.2111C100.282 13.79 100.242 19.2943 103.468 19.2943C106.654 19.2943 106.804 14.8538 106.804 12.1478C106.804 10.367 106.729 8.23921 106.191 6.55096C105.729 5.08228 104.809 4.50992 103.502 4.50992ZM120.779 23.2029H116.685C116.275 23.174 115.945 22.8445 115.945 22.4396L115.939 1.33559C115.974 0.948262 116.315 0.647539 116.731 0.647539H120.542C120.9 0.664806 121.195 0.907882 121.276 1.2373V4.4637H121.351C122.502 1.57853 124.115 0.202431 126.954 0.202431C128.798 0.202431 130.597 0.867237 131.753 2.68858C132.828 4.37683 132.828 7.2159 132.828 9.25695V22.5379C132.782 22.908 132.441 23.2029 132.036 23.2029H127.914C127.538 23.174 127.226 22.8964 127.185 22.5379V11.0782C127.185 8.77119 127.451 5.39443 124.612 5.39443C123.612 5.39443 122.693 6.06521 122.236 7.08281C121.658 8.37231 121.583 9.65583 121.583 11.0783V22.4396C121.577 22.8618 121.218 23.2029 120.779 23.2029ZM66.0066 13.125C66.0066 14.7266 66.0471 16.0623 65.2375 17.4845C64.5842 18.641 63.5435 19.352 62.3928 19.352C60.8144 19.352 59.8893 18.1495 59.8893 16.3744C59.8893 12.8705 63.0289 12.2346 66.0066 12.2346V13.125ZM70.1521 23.1451C69.8805 23.3879 69.4873 23.4053 69.1809 23.2434C67.8163 22.1101 67.5677 21.584 66.8219 20.5027C64.5668 22.804 62.9653 23.492 60.0454 23.492C56.582 23.492 53.8934 21.3584 53.8934 17.0857C53.8934 13.7495 55.6973 11.4772 58.2761 10.367C60.508 9.38406 63.6244 9.21059 66.0067 8.93882V8.40698C66.0067 7.42976 66.0817 6.27335 65.5035 5.42923C65.0064 4.67184 64.0464 4.35956 63.1966 4.35956C61.6296 4.35956 60.2362 5.16317 59.8951 6.82844C59.8257 7.1985 59.5539 7.56272 59.1781 7.58012L55.1943 7.15228C54.8591 7.0771 54.4832 6.80533 54.5815 6.29075C55.4951 1.45713 59.8662 0 63.7749 0C65.7754 0 68.3888 0.531978 69.9674 2.04689C71.9678 3.91445 71.777 6.40631 71.777 9.11814V15.5245C71.777 17.4499 72.5751 18.2939 73.3266 19.3348C73.5869 19.7048 73.6446 20.1501 73.3093 20.4275C72.4709 21.1272 70.9791 22.4281 70.1581 23.1566L70.1524 23.1451M12.1132 13.125C12.1132 14.7266 12.1537 16.0623 11.3441 17.4845C10.6908 18.641 9.65583 19.352 8.49942 19.352C6.92103 19.352 6.00159 18.1495 6.00159 16.3744C6.00159 12.8705 9.14125 12.2346 12.1132 12.2346V13.125ZM16.2587 23.1451C15.9871 23.3879 15.5939 23.4053 15.2875 23.2434C13.9229 22.1101 13.68 21.584 12.9285 20.5027C10.6734 22.804 9.07776 23.492 6.15195 23.492C2.69442 23.492 0 21.3584 0 17.0857C0 13.7495 1.80979 11.4772 4.38267 10.367C6.61459 9.38406 9.73101 9.21059 12.1132 8.93882V8.40698C12.1132 7.42976 12.1883 6.27335 11.6158 5.42923C11.1128 4.67184 10.1531 4.35956 9.30888 4.35956C7.74204 4.35956 6.34282 5.16317 6.00159 6.82844C5.93225 7.1985 5.66048 7.56272 5.29042 7.58012L1.30092 7.15228C0.96553 7.0771 0.595603 6.80533 0.688051 6.29075C1.60736 1.45713 5.97276 0 9.88137 0C11.8818 0 14.4953 0.531978 16.0738 2.04689C18.0742 3.91445 17.8835 6.40631 17.8835 9.11814V15.5245C17.8835 17.4499 18.6814 18.2939 19.4331 19.3348C19.6991 19.7048 19.7569 20.1501 19.4215 20.4275C18.5831 21.1272 17.0914 22.4281 16.2704 23.1566L16.2587 23.1451Z" fill="white"/>
</svg>
