<svg width="164" height="35" viewBox="0 0 164 35" fill="none" xmlns="http://www.w3.org/2000/svg">
<path d="M33.7279 21.2642C31.441 30.4368 22.1508 36.0191 12.9771 33.7317C3.80721 31.4449 -1.77509 22.154 0.512836 12.982C2.79862 3.80836 12.0889 -1.77448 21.2599 0.512373C30.433 2.79923 36.0147 12.0911 33.7279 21.2642Z" fill="white"/>
<path d="M24.6691 14.683C25.01 12.4047 23.2753 11.18 20.9034 10.3629L21.6728 7.27668L19.7942 6.8085L19.0451 9.81341C18.5512 9.69034 18.044 9.57423 17.54 9.45919L18.2944 6.43449L16.4169 5.96631L15.6469 9.05148C15.2381 8.95838 14.8368 8.86635 14.4473 8.7695L14.4494 8.75987L11.8587 8.11298L11.3589 10.1195C11.3589 10.1195 12.7528 10.4389 12.7233 10.4587C13.4842 10.6486 13.6217 11.1521 13.5987 11.5513L12.7223 15.0672C12.7747 15.0806 12.8427 15.0998 12.9176 15.1298C12.855 15.1143 12.7881 15.0971 12.7191 15.0806L11.4906 20.0058C11.3974 20.237 11.1615 20.5837 10.6296 20.452C10.6484 20.4793 9.26416 20.1112 9.26416 20.1112L8.33154 22.2616L10.7762 22.8711C11.231 22.985 11.6768 23.1044 12.1155 23.2167L11.3381 26.3383L13.2145 26.8064L13.9845 23.7181C14.4971 23.8572 14.9947 23.9856 15.4816 24.1065L14.7143 27.1805L16.5929 27.6486L17.3703 24.533C20.5738 25.1392 22.9826 24.8947 23.9966 21.9973C24.8136 19.6644 23.9559 18.3188 22.2704 17.4413C23.4979 17.1582 24.4225 16.3508 24.6691 14.683ZM20.3769 20.7019C19.7963 23.0348 15.8684 21.7737 14.595 21.4574L15.6266 17.3219C16.9 17.6398 20.9836 18.269 20.3769 20.7019ZM20.9579 14.6493C20.4282 16.7714 17.159 15.6932 16.0985 15.4289L17.0338 11.6781C18.0943 11.9424 21.5096 12.4357 20.9579 14.6493Z" fill="#170A64"/>
<path d="M50.1756 10.3597C51.5641 10.3597 52.7637 10.6085 53.7718 11.097C54.7847 11.5904 55.6204 12.2549 56.2909 13.0907C56.9522 13.9307 57.4445 14.9126 57.7623 16.0378C58.078 17.1662 58.2364 18.3792 58.2364 19.6778C58.2364 21.6725 57.8709 23.557 57.1331 25.3334C56.3952 27.1125 55.3941 28.6556 54.1207 29.9719C52.8483 31.2865 51.3458 32.3229 49.6133 33.0886C47.8834 33.8548 46.0027 34.2379 43.9834 34.2379C43.7223 34.2379 43.2632 34.2304 42.6147 34.2171C41.9662 34.2037 41.2208 34.1368 40.3861 34.0239C39.5461 33.9067 38.6579 33.7334 37.7199 33.5012C36.7825 33.2732 35.8922 32.9538 35.0537 32.5482L42.551 1.04588L49.266 0.00518799L46.5816 11.1842C47.1563 10.9253 47.7352 10.7246 48.3131 10.5786C48.8915 10.4346 49.5122 10.3597 50.1756 10.3597ZM44.543 28.9109C45.5543 28.9109 46.5073 28.6621 47.4024 28.1735C48.3002 27.6845 49.075 27.0242 49.724 26.2018C50.3731 25.3757 50.8867 24.4452 51.2613 23.4056C51.6358 22.366 51.8252 21.2814 51.8252 20.153C51.8252 18.7666 51.5936 17.6853 51.1318 16.9035C50.67 16.125 49.8155 15.7333 48.5747 15.7333C48.1681 15.7333 47.6443 15.8109 46.9947 15.9495C46.343 16.0966 45.7598 16.4022 45.237 16.8618L42.3787 28.7337C42.551 28.7642 42.7035 28.7931 42.8335 28.8204C42.9609 28.8499 43.1016 28.8707 43.2418 28.8852C43.39 28.9018 43.5596 28.9103 43.7645 28.9103C43.9695 28.9103 44.2257 28.9109 44.543 28.9109ZM65.2002 33.6349H58.7864L64.2028 10.8429H70.6605L65.2002 33.6349ZM68.3212 8.0659C67.426 8.0659 66.6144 7.79944 65.8942 7.26545C65.1681 6.73467 64.8085 5.91763 64.8085 4.81647C64.8085 4.21078 64.9316 3.64254 65.1756 3.10641C65.4233 2.57135 65.747 2.11066 66.1526 1.71899C66.5576 1.33054 67.0269 1.0202 67.5598 0.786379C68.0959 0.556302 68.6663 0.441264 69.2742 0.441264C70.1688 0.441264 70.9762 0.707725 71.6991 1.24172C72.4192 1.77838 72.7815 2.59542 72.7815 3.6907C72.7815 4.29853 72.659 4.8689 72.4128 5.40397C72.1683 5.93903 71.8446 6.39972 71.439 6.79138C71.0372 7.18037 70.5636 7.48964 70.0318 7.72132C69.4951 7.95514 68.9269 8.0659 68.3212 8.0659ZM76.2813 5.16426L82.999 4.12356L81.3494 10.8418H88.5439L87.2447 16.1271H80.0936L78.1888 24.0996C78.0133 24.7641 77.9138 25.3848 77.886 25.9616C77.8544 26.5411 77.9277 27.0387 78.1011 27.4576C78.2734 27.8777 78.5832 28.2014 79.0326 28.4304C79.4799 28.6631 80.1204 28.7803 80.9604 28.7803C81.6523 28.7803 82.3265 28.7145 82.9782 28.5839C83.6261 28.4555 84.2826 28.2768 84.9472 28.043L85.4255 32.9848C84.5587 33.3026 83.6202 33.5761 82.609 33.8061C81.5961 34.0394 80.397 34.1518 79.0112 34.1518C77.0186 34.1518 75.4739 33.8559 74.3733 33.2668C73.2743 32.6734 72.4974 31.8628 72.0324 30.8365C71.5738 29.814 71.3689 28.6353 71.4262 27.3073C71.4856 25.976 71.6862 24.5769 72.0324 23.1033L76.2813 5.16426ZM88.2614 24.5335C88.2614 22.5704 88.5792 20.7191 89.2143 18.986C89.8484 17.2513 90.7617 15.7344 91.9469 14.4326C93.1278 13.1372 94.5665 12.111 96.26 11.3576C97.9455 10.6085 99.8326 10.2308 101.912 10.2308C103.214 10.2308 104.377 10.3538 105.4 10.6005C106.427 10.8493 107.357 11.1709 108.197 11.5743L105.985 16.6039C105.407 16.3695 104.808 16.163 104.187 15.9757C103.567 15.7847 102.809 15.6927 101.913 15.6927C99.7722 15.6927 98.0798 16.4305 96.8202 17.9014C95.5655 19.3734 94.9336 21.3547 94.9336 23.8401C94.9336 25.3131 95.2514 26.5041 95.8892 27.4154C96.5238 28.3266 97.6961 28.7798 99.3982 28.7798C100.238 28.7798 101.049 28.692 101.825 28.5208C102.607 28.3474 103.298 28.1291 103.907 27.8712L104.385 33.0271C103.574 33.3417 102.68 33.6258 101.698 33.8746C100.715 34.1149 99.5442 34.2395 98.1868 34.2395C96.3948 34.2395 94.8779 33.9774 93.6371 33.461C92.3958 32.9367 91.3701 32.2405 90.5621 31.3588C89.7499 30.4748 89.1667 29.4427 88.8061 28.2581C88.4454 27.0745 88.2614 25.831 88.2614 24.5335ZM116.753 34.2395C115.223 34.2395 113.893 34.0063 112.765 33.5445C111.64 33.0827 110.709 32.4348 109.972 31.5947C109.234 30.759 108.682 29.7686 108.304 28.6273C107.925 27.4865 107.744 26.2232 107.744 24.839C107.744 23.1028 108.022 21.367 108.586 19.6361C109.146 17.9014 109.978 16.3428 111.08 14.9575C112.172 13.5701 113.52 12.4358 115.107 11.5513C116.692 10.6727 118.516 10.2308 120.564 10.2308C122.067 10.2308 123.39 10.4646 124.533 10.9263C125.671 11.387 126.609 12.0403 127.35 12.8761C128.083 13.7162 128.64 14.7023 129.014 15.8452C129.392 16.9838 129.578 18.2503 129.578 19.6356C129.578 21.3665 129.303 23.1022 128.757 24.8385C128.211 26.5662 127.4 28.1286 126.33 29.5171C125.262 30.9024 123.926 32.0362 122.322 32.9169C120.72 33.7976 118.863 34.2395 116.753 34.2395ZM119.959 15.6932C119.008 15.6932 118.168 15.9693 117.448 16.5145C116.726 17.0662 116.119 17.7596 115.63 18.5959C115.135 19.436 114.769 20.352 114.521 21.3477C114.276 22.3456 114.155 23.289 114.155 24.1852C114.155 25.6315 114.388 26.7578 114.847 27.5684C115.312 28.3747 116.147 28.7803 117.361 28.7803C118.315 28.7803 119.152 28.5063 119.876 27.9552C120.594 27.4079 121.201 26.7139 121.694 25.876C122.185 25.0402 122.555 24.1215 122.802 23.1242C123.045 22.1295 123.168 21.1808 123.168 20.2862C123.168 18.8437 122.936 17.7147 122.473 16.9051C122.011 16.0988 121.172 15.6932 119.959 15.6932ZM136.567 33.6349H130.148L135.564 10.8429H142.025L136.567 33.6349ZM139.683 8.0659C138.788 8.0659 137.977 7.79944 137.258 7.26545C136.536 6.73467 136.173 5.91763 136.173 4.81647C136.173 4.21078 136.298 3.64254 136.542 3.10641C136.787 2.57135 137.113 2.11066 137.518 1.71899C137.921 1.33054 138.395 1.0202 138.926 0.786379C139.459 0.556302 140.03 0.441264 140.635 0.441264C141.532 0.441264 142.342 0.707725 143.064 1.24172C143.785 1.77838 144.15 2.59542 144.15 3.6907C144.15 4.29853 144.02 4.8689 143.778 5.40397C143.535 5.93903 143.21 6.39972 142.806 6.79138C142.399 7.18037 141.931 7.48964 141.398 7.72132C140.861 7.95514 140.292 8.0659 139.683 8.0659ZM146.647 11.8793C147.134 11.737 147.678 11.5657 148.269 11.3795C148.863 11.1933 149.525 11.02 150.266 10.8637C150.998 10.7027 151.825 10.5721 152.734 10.471C153.643 10.3677 154.679 10.3174 155.83 10.3174C159.213 10.3174 161.545 11.3025 162.832 13.2667C164.118 15.2309 164.341 17.9191 163.506 21.3263L160.556 33.6328H154.1L156.959 21.5853C157.134 20.833 157.27 20.1059 157.372 19.3953C157.474 18.6912 157.468 18.0705 157.349 17.5333C157.235 17.0025 156.966 16.568 156.549 16.2315C156.126 15.9003 155.487 15.7339 154.619 15.7339C153.783 15.7339 152.932 15.8238 152.064 15.9971L147.86 33.6322H141.401L146.647 11.8793Z" fill="white"/>
</svg>
