<svg width="151" height="37" viewBox="0 0 151 37" fill="none" xmlns="http://www.w3.org/2000/svg">
<path d="M148.127 34.3209C148.219 34.3218 148.311 34.3037 148.396 34.2678C148.481 34.2319 148.558 34.1789 148.621 34.112C148.685 34.0452 148.734 33.966 148.766 33.8793C148.798 33.7926 148.812 33.7003 148.807 33.6082C148.807 33.1027 148.502 32.8612 147.876 32.8612H146.865V35.5076H147.245V34.354H147.712L147.723 34.368L148.448 35.5076H148.855L148.075 34.3282L148.127 34.3209ZM147.687 34.0558H147.246V33.1611H147.805C148.094 33.1611 148.423 33.2083 148.423 33.5863C148.423 34.021 148.09 34.0558 147.685 34.0558M0 5.38449H5.61238V25.8279H16.0026V31.0072H0V5.38449ZM18.4839 13.6343H23.8755V30.9977H18.4839V13.6343ZM21.1797 5.00201C21.7983 5.00213 22.4029 5.18566 22.9172 5.5294C23.4315 5.87315 23.8323 6.36167 24.0689 6.9332C24.3056 7.50473 24.3674 8.13359 24.2467 8.74027C24.1259 9.34696 23.828 9.90421 23.3906 10.3416C22.9531 10.7789 22.3958 11.0768 21.7891 11.1974C21.1824 11.318 20.5536 11.2561 19.9821 11.0193C19.4106 10.7826 18.9221 10.3817 18.5785 9.86735C18.2348 9.35301 18.0514 8.74832 18.0514 8.12974C18.0514 7.71895 18.1323 7.31219 18.2895 6.93268C18.4468 6.55317 18.6772 6.20835 18.9677 5.91791C19.2582 5.62746 19.603 5.39709 19.9826 5.23994C20.3621 5.08279 20.7689 5.00194 21.1797 5.00201ZM46.4295 5.38055H51.8212V20.6934L57.9317 13.6264H64.5421L57.4656 21.6651L64.3933 31.005H57.6167L51.8931 22.4221H51.8223V31.0039H46.4306L46.4295 5.38055ZM26.8651 13.636H32.0428V16.0089H32.1163C32.6335 15.1228 33.3816 14.3939 34.2808 13.8999C35.1799 13.4059 36.1964 13.1654 37.2216 13.2041C42.6891 13.2041 43.6955 16.8013 43.6955 21.4747V30.9966H38.3038V22.5547C38.3038 20.5396 38.2668 17.9493 35.4957 17.9493C32.6931 17.9493 32.2607 20.1436 32.2607 22.4081V30.9943H26.869L26.8651 13.636Z" fill="white"/>
<path d="M75.8966 20.2964C75.9069 19.859 75.8283 19.424 75.6656 19.0179C75.5029 18.6117 75.2594 18.2428 74.9499 17.9335C74.6404 17.6242 74.2713 17.381 73.865 17.2185C73.4588 17.0561 73.0238 16.9778 72.5863 16.9884C71.6443 16.9298 70.7169 17.2437 70.0042 17.8625C69.2915 18.4813 68.8504 19.3555 68.7762 20.2964H75.8966ZM80.4638 27.9908C79.5678 29.0772 78.4415 29.9509 77.1663 30.5483C75.8911 31.1458 74.4989 31.4522 73.0907 31.4454C67.699 31.4454 63.3823 27.8464 63.3823 22.2734C63.3823 16.7003 67.6985 13.103 73.0907 13.103C78.1302 13.103 81.2905 16.6975 81.2905 22.2734V23.9639H68.7762C68.932 24.9226 69.4291 25.7927 70.1758 26.4139C70.9225 27.0352 71.8685 27.3656 72.8396 27.3443C73.6071 27.3396 74.3611 27.1429 75.0331 26.7724C75.7052 26.4018 76.2738 25.869 76.6874 25.2225L80.4638 27.9908ZM92.5288 17.8314C89.8329 17.8314 88.2154 19.6314 88.2154 22.2543C88.2154 24.8771 89.8324 26.6788 92.5288 26.6788C95.2252 26.6788 96.846 24.8816 96.846 22.2543C96.846 19.6269 95.228 17.8314 92.5288 17.8314ZM101.81 30.9944H96.846V28.6917H96.7724C96.1497 29.5293 95.342 30.2117 94.4123 30.686C93.4825 31.1602 92.4559 31.4133 91.4122 31.4257C86.2317 31.4257 82.8193 27.6869 82.8193 22.3997C82.8193 17.5439 85.8392 13.0851 90.8034 13.0851C93.0348 13.0851 95.119 13.6956 96.3417 15.3878H96.4124V5.37892H101.809L101.81 30.9944ZM138.209 31.0045H132.817V22.5609C132.817 20.5475 132.781 17.9555 130.013 17.9555C127.204 17.9555 126.775 20.1493 126.775 22.4143V31.0039H121.383V13.6405H126.559V16.0134H126.632C127.15 15.1277 127.898 14.3991 128.797 13.9052C129.697 13.4113 130.713 13.1706 131.739 13.2086C137.203 13.2086 138.211 16.8031 138.211 21.4792L138.209 31.0045ZM115.3 11.2671C114.681 11.2672 114.076 11.0838 113.561 10.7401C113.047 10.3964 112.645 9.90777 112.409 9.33609C112.172 8.76441 112.11 8.13531 112.23 7.52835C112.351 6.9214 112.649 6.36383 113.086 5.92618C113.524 5.48852 114.081 5.19043 114.688 5.06959C115.295 4.94876 115.924 5.0106 116.496 5.24732C117.068 5.48403 117.556 5.88497 117.9 6.39945C118.244 6.91392 118.428 7.51882 118.428 8.13765C118.428 8.54854 118.347 8.95541 118.19 9.33505C118.033 9.71469 117.802 10.0597 117.512 10.3502C117.221 10.6408 116.876 10.8714 116.497 11.0287C116.117 11.186 115.71 11.267 115.3 11.2671ZM117.995 31.0045H112.598V13.6405H117.995V31.0045ZM140.896 0.00241719H109.889C109.185 -0.00552504 108.507 0.266269 108.003 0.758073C107.5 1.24988 107.212 1.92146 107.204 2.62524V33.7615C107.212 34.4657 107.499 35.1377 108.003 35.63C108.506 36.1223 109.185 36.3946 109.889 36.3872H140.896C141.602 36.396 142.282 36.1245 142.788 35.6322C143.293 35.1399 143.583 34.467 143.592 33.7615V2.62299C143.582 1.91781 143.293 1.24547 142.787 0.753681C142.282 0.261888 141.602 -0.00912974 140.896 0.000170664M147.733 31.6824C147.077 31.6887 146.45 31.9545 145.99 32.4217C145.529 32.8889 145.273 33.5195 145.276 34.1755C145.279 34.8315 145.542 35.4595 146.007 35.9223C146.472 36.385 147.101 36.6448 147.757 36.6448C148.413 36.6448 149.042 36.385 149.507 35.9223C149.972 35.4595 150.235 34.8315 150.238 34.1755C150.241 33.5195 149.985 32.8889 149.524 32.4217C149.064 31.9545 148.437 31.6887 147.781 31.6824H147.733ZM147.733 36.3608C147.303 36.3679 146.88 36.2473 146.518 36.0142C146.157 35.7812 145.872 35.446 145.701 35.0513C145.53 34.6565 145.479 34.2198 145.556 33.7964C145.633 33.373 145.834 32.9819 146.133 32.6726C146.432 32.3633 146.816 32.1497 147.237 32.0587C147.658 31.9677 148.096 32.0035 148.496 32.1616C148.896 32.3196 149.241 32.5928 149.486 32.9465C149.731 33.3003 149.865 33.7188 149.872 34.1491V34.1856C149.884 34.75 149.672 35.2961 149.281 35.7038C148.891 36.1115 148.354 36.3474 147.79 36.3596H147.734" fill="white"/>
</svg>
