<svg width="19" height="24" viewBox="0 0 19 24" fill="none" xmlns="http://www.w3.org/2000/svg">
<g clip-path="url(#clip0_454_59)">
<path d="M2.26375 0C7.08315 0 11.9025 0 16.7224 0C16.741 0.0118156 16.7583 0.0322657 16.7783 0.0349924C17.8859 0.171781 19.0267 1.23064 18.9999 2.78758C18.9663 4.7217 18.9917 6.65719 18.9917 8.59177C18.9917 12.5823 18.9963 16.5728 18.9894 20.5633C18.9867 22.0702 17.8282 23.2204 16.3353 23.2209C11.7735 23.2222 7.21217 23.2227 2.65037 23.2209C1.17884 23.2204 0.00261232 22.047 0.00215801 20.5732C-0.00011358 14.595 -0.00193085 8.61676 0.00397528 2.63897C0.00488391 1.76098 0.38015 1.05341 1.07571 0.515797C1.42871 0.243129 1.84351 0.116338 2.26375 0ZM1.0698 11.5997C1.0698 14.5323 1.06935 17.4648 1.07162 20.3974C1.07162 20.5778 1.07117 20.7637 1.1116 20.9373C1.29333 21.7139 1.91302 22.1656 2.78712 22.1656C7.25806 22.167 11.7294 22.167 16.2004 22.1638C16.3803 22.1638 16.5652 22.152 16.7383 22.1084C17.5006 21.9161 17.9377 21.299 17.9377 20.431C17.9381 14.5509 17.9381 8.67084 17.9377 2.79076C17.9377 1.71145 17.2821 1.0575 16.1999 1.05704C11.729 1.05613 7.2576 1.05613 2.78667 1.05886C2.60721 1.05886 2.42185 1.07204 2.24921 1.11703C1.50731 1.30881 1.07117 1.90913 1.07071 2.7344C1.06889 5.68967 1.0698 8.64494 1.0698 11.5997Z" fill="#ABA1E7"/>
<path d="M9.48438 3.17155C8.9869 3.17155 8.48943 3.17291 7.99195 3.1711C7.62895 3.16973 7.38998 2.95842 7.38771 2.64212C7.38589 2.33582 7.61305 2.10769 7.96287 2.10496C8.98781 2.09724 10.0128 2.09678 11.0377 2.10496C11.3902 2.10769 11.6074 2.33264 11.6038 2.64712C11.6001 2.96114 11.3734 3.16837 11.0213 3.17064C10.5089 3.17382 9.9964 3.17155 9.48393 3.17155H9.48438Z" fill="#ABA1E7"/>
<path d="M9.50875 19.0032C10.0925 19.0059 10.5555 19.4708 10.556 20.0543C10.556 20.6401 10.068 21.1273 9.48922 21.1186C8.91496 21.11 8.43838 20.6296 8.43702 20.0575C8.4352 19.4708 8.9136 19.0009 9.50921 19.0032H9.50875Z" fill="#ABA1E7"/>
</g>
<defs>
<clipPath id="clip0_454_59">
<rect width="19" height="23.2222" fill="white"/>
</clipPath>
</defs>
</svg>
