<svg width="21" height="18" viewBox="0 0 21 18" fill="none" xmlns="http://www.w3.org/2000/svg">
<g clip-path="url(#clip0_454_37)">
<path d="M15.5766 17.9998H5.41901C5.39471 17.9833 5.37179 17.9641 5.34613 17.9509C4.98676 17.77 4.81762 17.4579 4.89875 17.1212C4.98951 16.7429 5.26133 16.5427 5.68761 16.5418C6.12995 16.5409 6.5764 16.5039 7.01324 16.5519C7.47161 16.6026 7.72188 16.4463 7.87223 16.0182C7.9827 15.7025 8.16605 15.4124 8.33106 15.0811C8.20455 15.0811 8.12204 15.0811 8.03954 15.0811C6.27067 15.0811 4.50134 15.0816 2.73247 15.0802C2.59587 15.0802 2.45653 15.0807 2.32268 15.0574C0.892094 14.8047 0.00376333 13.757 0.00192983 12.3086C-0.00219554 9.1332 -0.000362042 5.95821 0.00238821 2.78276C0.00238821 2.5936 0.0101806 2.40125 0.0454755 2.2162C0.299415 0.892567 1.38897 0.00115679 2.75356 0.000699887C7.79385 -0.00067081 12.8337 0.000242988 17.874 0.000242988C18.0188 0.000242988 18.1637 -0.00112771 18.3085 0.000242988C19.7359 0.0162345 20.8818 1.0904 20.9836 2.50679C20.99 2.59771 20.9946 2.68864 20.9946 2.78002C20.9951 5.95547 20.9836 9.13046 20.9996 12.3059C21.0079 13.9649 19.6777 15.1186 18.1971 15.0893C16.4443 15.0546 14.6896 15.0811 12.9359 15.0816C12.8566 15.0816 12.7773 15.0884 12.67 15.0934C12.8951 15.5426 13.1115 15.9584 13.3109 16.3819C13.3736 16.5158 13.4543 16.5464 13.5914 16.5446C14.1937 16.5377 14.796 16.5382 15.3983 16.5432C15.7366 16.5459 16.0011 16.7652 16.09 17.0997C16.1684 17.3944 16.0373 17.7206 15.771 17.8883C15.7077 17.9281 15.6417 17.9628 15.5766 17.9998ZM10.4859 13.6245C12.0109 13.6245 13.5359 13.6245 15.0614 13.6245C16.1289 13.6245 17.1965 13.6286 18.2641 13.6227C18.9722 13.6186 19.514 13.1123 19.515 12.4407C19.5195 9.17386 19.5186 5.90749 19.515 2.64066C19.5145 2.13944 19.1849 1.69214 18.7009 1.54548C18.5084 1.48699 18.2961 1.4742 18.0926 1.4742C13.0294 1.47054 7.9662 1.47146 2.90253 1.47146C2.82644 1.47146 2.74989 1.47009 2.6738 1.47466C1.94865 1.51623 1.4779 2.00603 1.47744 2.73113C1.47561 5.9445 1.47652 9.15787 1.4779 12.3717C1.4779 12.4768 1.48432 12.5851 1.50998 12.687C1.65666 13.2754 2.12604 13.6236 2.77602 13.6241C5.34567 13.6254 7.91578 13.6245 10.4854 13.6245H10.4859Z" fill="#ABA1E7"/>
</g>
<defs>
<clipPath id="clip0_454_37">
<rect width="21" height="18" fill="white"/>
</clipPath>
</defs>
</svg>
