<svg width="14" height="24" viewBox="0 0 14 24" fill="none" xmlns="http://www.w3.org/2000/svg">
<g clip-path="url(#clip0_454_44)">
<path d="M0 2.09635V21.237C0.0159693 21.2854 0.039237 21.3329 0.0469933 21.3826C0.215806 22.463 1.2045 23.3288 2.29493 23.3306C5.43165 23.3352 8.56881 23.3324 11.7055 23.332C12.2001 23.332 12.6427 23.1699 13.0337 22.8753C13.7066 22.3694 14 21.6813 14 20.8447C13.9968 14.763 13.9982 8.68082 13.9982 2.59863C13.9982 2.5 14.0005 2.40091 13.9959 2.30274C13.9621 1.57352 13.6697 0.975342 13.1039 0.509589C12.7804 0.242922 12.3986 0.112785 12.0062 0C8.67101 0 5.33629 0 2.00111 0C1.9824 0.0118721 1.96461 0.030137 1.94453 0.0342466C1.168 0.189041 0.59723 0.620548 0.254131 1.33288C0.1387 1.5726 0.0830374 1.8411 0 2.09635ZM1.18168 11.6667C1.18168 8.59817 1.18077 5.53014 1.18214 2.46164C1.18214 1.65616 1.65208 1.17717 2.44504 1.17671C5.48411 1.17489 8.52319 1.17489 11.5623 1.17671C12.3438 1.17717 12.8242 1.65571 12.8242 2.43881C12.8261 8.59041 12.8261 14.7425 12.8242 20.8941C12.8242 21.6772 12.3434 22.1557 11.5618 22.1562C8.52273 22.158 5.48366 22.1575 2.44458 22.1553C2.31729 22.1553 2.18543 22.1498 2.06316 22.1173C1.49011 21.9648 1.18214 21.5265 1.18168 20.8712C1.18077 17.8027 1.18168 14.7347 1.18168 11.6662V11.6667Z" fill="#ABA1E7"/>
<path d="M7.03653 21.3854C7.67391 21.363 8.18992 20.8279 8.17396 20.206C8.15707 19.5512 7.60729 19.0297 6.95896 19.0539C6.33117 19.0772 5.80648 19.6347 5.83385 20.2498C5.86305 20.9032 6.39778 21.4082 7.03653 21.3859V21.3854Z" fill="#ABA1E7"/>
<path d="M6.03896 3.11329C6.40214 3.11329 6.76577 3.11786 7.12894 3.11192C7.5204 3.10553 7.77453 2.87357 7.77636 2.53293C7.77818 2.19183 7.52588 1.94663 7.13898 1.94252C6.38982 1.93521 5.6402 1.93475 4.89104 1.9448C4.57349 1.94891 4.34673 2.14891 4.29062 2.43247C4.24408 2.66535 4.37821 2.93567 4.62094 3.04617C4.72633 3.09412 4.85363 3.10781 4.97179 3.11055C5.32721 3.11832 5.68309 3.11329 6.03896 3.11329Z" fill="#ABA1E7"/>
<path d="M8.55348 2.52288C8.5512 2.83293 8.81673 3.10325 9.1279 3.10781C9.44773 3.11238 9.72969 2.83567 9.72604 2.52105C9.72193 2.21603 9.44499 1.94571 9.13793 1.94617C8.82677 1.94708 8.55622 2.2142 8.55394 2.52242L8.55348 2.52288Z" fill="#ABA1E7"/>
</g>
<defs>
<clipPath id="clip0_454_44">
<rect width="14" height="23.3333" fill="white" transform="matrix(-1 0 0 1 14 0)"/>
</clipPath>
</defs>
</svg>
