<svg width="28" height="27" viewBox="0 0 28 27" fill="none" xmlns="http://www.w3.org/2000/svg">
<g clip-path="url(#clip0_437_70506)">
<path d="M28.0001 16.9866C27.8303 17.2719 27.5717 17.3695 27.2435 17.3679C25.567 17.362 23.8905 17.3652 22.2135 17.3652H21.8815C21.8766 17.4699 21.8684 17.5642 21.8678 17.6581C21.8667 18.3036 21.8694 18.9497 21.8662 19.5953C21.864 19.9793 21.7024 20.0958 21.3287 19.9858C20.9633 19.8785 20.594 19.7787 20.2362 19.6503C19.9744 19.5565 19.7339 19.5527 19.4709 19.6466C19.1038 19.7771 18.7263 19.8785 18.3521 19.9885C17.9927 20.0942 17.8327 19.9788 17.8316 19.6131C17.83 18.878 17.8316 18.1429 17.8316 17.3647C17.6065 17.3647 17.3895 17.3447 17.178 17.369C16.7266 17.4208 16.4313 17.2525 16.1853 16.8701C15.7519 16.1971 15.2671 15.5563 14.8036 14.9021C14.7543 14.8326 14.6989 14.7668 14.6167 14.6605V25.7997H24.4532C24.4532 25.6918 24.4532 25.5877 24.4532 25.4836C24.4532 23.4029 24.4521 21.3217 24.4543 19.241C24.4543 18.7933 24.7074 18.5285 25.1019 18.549C25.3862 18.5636 25.6158 18.7723 25.6498 19.0538C25.6607 19.1423 25.6602 19.2329 25.6602 19.3224C25.6602 21.6188 25.6607 23.9147 25.6602 26.2112C25.6602 26.8244 25.4832 27.0002 24.8696 27.0002C17.6256 27.0002 10.3817 27.0002 3.13723 27.0002C2.52197 27.0002 2.34391 26.8244 2.34336 26.2139C2.34281 23.9627 2.34336 21.7111 2.34336 19.4599C2.34336 19.3704 2.34281 19.2804 2.35158 19.1914C2.38007 18.9104 2.60141 18.6914 2.88082 18.6618C3.14873 18.6337 3.41335 18.7885 3.49882 19.049C3.53936 19.1736 3.54868 19.3127 3.54868 19.4448C3.55142 21.4538 3.55087 23.4633 3.55087 25.4723C3.55087 25.5775 3.55087 25.6832 3.55087 25.8029H13.3884V14.667C13.3046 14.7727 13.2438 14.8428 13.1906 14.9178C12.7162 15.5865 12.2308 16.2478 11.7749 16.9289C11.5613 17.2482 11.3071 17.4148 10.9164 17.3668C10.8096 17.3539 10.7 17.3647 10.5488 17.3647C10.5488 17.4747 10.5488 17.5691 10.5488 17.6629C10.5488 18.3085 10.5505 18.9546 10.5483 19.6002C10.5466 19.9761 10.3702 20.0985 10.007 19.9799C9.57579 19.8391 9.14846 19.6865 8.71399 19.5581C8.59401 19.5225 8.44444 19.5274 8.32336 19.563C7.8889 19.6924 7.46156 19.8461 7.02929 19.9842C6.67099 20.0985 6.51484 19.9842 6.51375 19.6083C6.51156 18.8737 6.5132 18.1386 6.5132 17.3636H6.18338C4.38856 17.3636 2.59319 17.3636 0.798368 17.3625C0.681124 17.3625 0.558401 17.3625 0.447183 17.3312C0.0713443 17.2272 -0.074937 16.9553 0.0373764 16.5859C0.0631263 16.5012 0.102573 16.4187 0.147498 16.3421C0.882192 15.0742 1.62236 13.8095 2.35158 12.5383C2.5132 12.2568 2.72961 12.1387 3.05888 12.1387C10.3576 12.1435 17.6563 12.1435 24.9551 12.1387C25.2871 12.1387 25.498 12.267 25.658 12.5459C26.3877 13.8165 27.1274 15.0823 27.8631 16.3497C27.9119 16.4338 27.9546 16.5217 28.0007 16.608V16.985L28.0001 16.9866ZM15.1564 13.3246C15.8325 14.2798 16.468 15.1848 17.1183 16.0795C17.1698 16.1501 17.321 16.1787 17.4257 16.1787C20.3124 16.1841 23.1991 16.183 26.0859 16.1825C26.1697 16.1825 26.2535 16.1733 26.3669 16.1663C25.8464 15.2705 25.3402 14.4124 24.8504 13.5452C24.7512 13.3699 24.6406 13.3198 24.445 13.3203C21.458 13.3268 18.471 13.3246 15.4846 13.3246H15.1569H15.1564ZM12.8351 13.3435C12.7617 13.3327 12.7348 13.3252 12.708 13.3252C9.63003 13.3246 6.5521 13.323 3.47417 13.3316C3.37664 13.3316 3.23968 13.4201 3.18873 13.5064C2.70496 14.3164 2.23488 15.1346 1.76262 15.9517C1.72427 16.018 1.69468 16.0897 1.64976 16.1825C2.50882 16.1825 3.3361 16.1825 4.16393 16.1825C6.30391 16.1825 8.44389 16.1841 10.5839 16.1782C10.6885 16.1782 10.8381 16.1469 10.8896 16.0757C11.5388 15.181 12.1738 14.2765 12.8351 13.343V13.3435Z" fill="white"/>
<path d="M5.26463 10.3107C5.22025 10.2935 5.12492 10.2649 5.03781 10.2212C4.60006 10.0028 4.16834 9.7714 3.72347 9.567C3.62047 9.51954 3.4572 9.52008 3.3542 9.567C2.89399 9.78003 2.45022 10.0276 1.98946 10.2395C1.87441 10.2924 1.68156 10.3107 1.5917 10.2498C1.50678 10.1921 1.46624 10.0028 1.48268 9.88142C1.54897 9.39442 1.65307 8.91226 1.7221 8.42526C1.73634 8.32279 1.69306 8.17717 1.62129 8.10436C1.27723 7.75866 0.905223 7.43992 0.5639 7.09206C0.462544 6.98851 0.340917 6.78141 0.383103 6.69458C0.441177 6.57485 0.637862 6.48047 0.79017 6.45188C1.28051 6.36074 1.77962 6.31274 2.27161 6.22914C2.3653 6.2135 2.47761 6.12883 2.52363 6.04578C2.75757 5.62133 2.96083 5.18017 3.20135 4.7595C3.27312 4.63437 3.42323 4.48768 3.5487 4.47689C3.6495 4.46826 3.80236 4.6306 3.8703 4.75087C4.10424 5.16507 4.31517 5.59221 4.52664 6.01827C4.59075 6.14771 4.65978 6.22375 4.82304 6.24209C5.30188 6.2944 5.78017 6.35858 6.25244 6.44865C6.41461 6.47939 6.62334 6.5673 6.68964 6.69134C6.73511 6.77656 6.60198 6.99929 6.49459 7.10932C6.15382 7.45772 5.78236 7.77699 5.43556 8.11946C5.3742 8.17987 5.3364 8.30445 5.34955 8.3902C5.42625 8.89447 5.52267 9.39549 5.60978 9.89814C5.65361 10.1522 5.53966 10.3096 5.26517 10.3102L5.26463 10.3107Z" fill="white"/>
<path d="M22.093 10.5441C22.1724 10.1035 22.2563 9.60946 22.3538 9.11814C22.3867 8.95311 22.3631 8.83554 22.2278 8.71581C21.8821 8.41109 21.5528 8.08804 21.2153 7.77362C21.0816 7.64903 20.8997 7.50234 21.0142 7.32598C21.0937 7.20301 21.2997 7.12535 21.4624 7.09515C21.9264 7.00886 22.396 6.94953 22.8655 6.8956C23.0331 6.87619 23.1148 6.79852 23.1838 6.65722C23.3931 6.23008 23.6062 5.80402 23.8412 5.3909C23.9086 5.27225 24.0582 5.1234 24.1678 5.12501C24.2795 5.12663 24.4253 5.27656 24.4932 5.39629C24.7277 5.80995 24.9414 6.23547 25.149 6.66369C25.2197 6.80985 25.3117 6.87727 25.4734 6.89668C25.9336 6.95223 26.3943 7.00724 26.8491 7.09407C27.02 7.12643 27.1734 7.24616 27.335 7.32598C27.2523 7.48346 27.2002 7.66953 27.0813 7.79357C26.7822 8.10638 26.4612 8.40031 26.133 8.68399C25.9851 8.81181 25.9374 8.93855 25.9752 9.12515C26.0656 9.57225 26.1549 10.0204 26.2152 10.4724C26.2338 10.6121 26.2009 10.8138 26.1078 10.8947C26.0311 10.9615 25.813 10.9319 25.6898 10.8758C25.2449 10.6725 24.8104 10.4465 24.3793 10.2151C24.2248 10.1326 24.1004 10.1385 23.9486 10.2184C23.4999 10.4546 23.0479 10.6843 22.591 10.9044C22.2804 11.0538 22.0826 10.9249 22.0935 10.5441H22.093Z" fill="white"/>
<path d="M11.9263 5.43449C12.0052 5.00033 12.0841 4.51441 12.1843 4.03279C12.2271 3.82623 12.1882 3.68223 12.0238 3.53824C11.6693 3.22921 11.3242 2.90885 10.9971 2.57231C10.9045 2.47739 10.8267 2.29348 10.8574 2.18077C10.8826 2.088 11.0705 2.00009 11.1982 1.97798C11.7082 1.88953 12.2249 1.8356 12.7355 1.74931C12.8308 1.73313 12.9437 1.64468 12.9908 1.55893C13.2253 1.13448 13.4291 0.69332 13.6702 0.27265C13.7403 0.149685 13.8931 0.00730454 14.017 -0.000785267C14.1189 -0.00725711 14.2684 0.151842 14.3358 0.270493C14.5698 0.684691 14.7818 1.11129 14.9927 1.5379C15.0634 1.68136 15.1516 1.74499 15.3214 1.76333C15.8271 1.8178 16.3317 1.89061 16.8325 1.97852C16.9519 1.99955 17.1228 2.08746 17.1491 2.17861C17.1798 2.28647 17.1163 2.46553 17.0302 2.55344C16.6829 2.90777 16.3164 3.24538 15.9444 3.57491C15.8101 3.69356 15.78 3.81545 15.8118 3.97724C15.8983 4.42542 15.9926 4.87251 16.0545 5.32447C16.0737 5.46631 16.0424 5.65237 15.9586 5.76131C15.8381 5.91718 15.6639 5.81686 15.5143 5.74082C15.0705 5.51377 14.6284 5.28294 14.1764 5.07314C14.0816 5.02892 13.9298 5.02892 13.8356 5.07314C13.3595 5.29588 12.8971 5.54613 12.4237 5.7748C12.1306 5.91664 11.9263 5.7899 11.9274 5.43395L11.9263 5.43449Z" fill="white"/>
<path d="M16.8651 10.3969C16.9396 9.12033 17.1188 7.86695 17.7275 6.71226C18.0715 6.05968 18.5378 5.50203 19.096 5.01826C19.3985 4.75615 19.7557 4.76154 19.9935 5.02257C20.2274 5.27983 20.2005 5.64549 19.8976 5.90166C18.7706 6.85464 18.3011 8.11018 18.1537 9.51781C18.1192 9.84733 18.1071 10.1796 18.0644 10.5075C18.0156 10.8861 17.7483 11.098 17.3965 11.063C17.0722 11.0306 16.8487 10.7523 16.8646 10.3969H16.8651Z" fill="white"/>
<path d="M11.1786 10.4342C11.1391 10.7783 10.9074 11.0398 10.5902 11.0636C10.256 11.0889 9.99408 10.8899 9.94587 10.5442C9.85602 9.90671 9.81164 9.26168 9.6944 8.6296C9.49333 7.54718 8.95916 6.63951 8.11544 5.90765C7.71275 5.55817 7.80151 5.01022 8.27213 4.85382C8.53784 4.76537 8.74604 4.87377 8.94163 5.04366C9.97436 5.94217 10.6082 7.06935 10.8751 8.39014C11.0109 9.06429 11.08 9.75193 11.1791 10.4331L11.1786 10.4342Z" fill="white"/>
<path d="M14.5477 9.07342C14.5477 9.53022 14.551 9.98648 14.5467 10.4433C14.5434 10.8143 14.2946 11.0662 13.9451 11.0646C13.5977 11.063 13.3512 10.8095 13.3496 10.4357C13.3457 9.5313 13.3457 8.6274 13.3496 7.72296C13.3512 7.34867 13.5955 7.09141 13.9396 7.08602C14.2963 7.08063 14.5445 7.34112 14.5472 7.73051C14.5505 8.17814 14.5477 8.62578 14.5477 9.07342Z" fill="white"/>
</g>
<defs>
<clipPath id="clip0_437_70506">
<rect width="28" height="27" fill="white"/>
</clipPath>
</defs>
</svg>
