<svg width="24" height="28" viewBox="0 0 24 28" fill="none" xmlns="http://www.w3.org/2000/svg">
<g clip-path="url(#clip0_437_70492)">
<path d="M11.3599 0C11.7866 0 12.2132 0 12.6399 0C12.7172 0.0153936 12.794 0.0382186 12.8724 0.04565C13.7711 0.131111 14.6442 0.337598 15.4602 0.712883C18.3146 2.02665 20.082 4.21626 20.6612 7.29604C21.0324 9.26801 20.7242 11.1636 19.7428 12.9221C19.2746 13.7608 18.7231 14.5539 18.2058 15.3655C17.6698 16.2058 17.129 17.0434 16.5743 17.907C16.6767 17.9298 16.7519 17.95 16.8282 17.9633C18.3418 18.2276 19.8324 18.5801 21.2324 19.2277C22.489 19.8089 23.6207 20.5292 24.0004 21.9863V22.7279C23.7695 23.6971 23.161 24.4021 22.3236 24.8803C21.5978 25.2949 20.8346 25.6712 20.0468 25.9483C17.7338 26.7621 15.3188 27.0354 12.881 27.115C11.3615 27.1644 9.84471 27.0981 8.33378 26.9133C6.62978 26.7053 4.95031 26.3862 3.35564 25.7397C1.87991 25.1415 0.47831 24.436 0.000976562 22.7279C0.000976562 22.4805 0.000976562 22.2331 0.000976562 21.9863C0.0900432 21.749 0.15831 21.5012 0.272443 21.2766C0.70071 20.4347 1.43991 19.9199 2.24524 19.4867C3.44844 18.8391 4.75084 18.4713 6.07724 18.1772C6.51564 18.0795 6.95884 18.0026 7.41698 17.9128C7.37378 17.8359 7.34658 17.7812 7.31351 17.7302C6.39511 16.3045 5.47191 14.8824 4.55938 13.4535C3.72951 12.154 3.27244 10.7304 3.21111 9.19423C3.12418 7.00462 3.76364 5.0353 5.13538 3.31759C6.29911 1.85997 7.78871 0.856734 9.59244 0.347152C10.1674 0.183131 10.7695 0.112533 11.3599 0ZM12.0004 22.0421C12.074 21.9354 12.1343 21.852 12.1898 21.766C14.0762 18.8301 15.9636 15.8952 17.8463 12.9572C18.0794 12.5936 18.3284 12.2315 18.4986 11.8382C19.7391 8.97076 19.3668 6.30819 17.297 3.96306C15.6836 2.13493 13.5743 1.38596 11.1498 1.65667C9.07884 1.88811 7.42871 2.89931 6.18551 4.565C4.47671 6.8544 4.34711 10.1571 5.88791 12.5575C7.86764 15.6431 9.85378 18.7245 11.8378 21.808C11.8842 21.8796 11.9348 21.9486 12.0004 22.0426V22.0421ZM12.6228 25.5422C13.2692 25.4892 14.554 25.4101 15.8324 25.271C17.3082 25.1107 18.7503 24.7811 20.1306 24.2242C20.8559 23.9312 21.5642 23.6 22.0975 23.0007C22.4836 22.5665 22.5071 22.1418 22.0975 21.7337C21.7823 21.4194 21.4191 21.1312 21.0292 20.9167C19.4282 20.0361 17.6634 19.6932 15.8767 19.4326C15.6639 19.4013 15.5647 19.4676 15.457 19.6369C14.5626 21.0462 13.6644 22.4534 12.7492 23.8495C12.6266 24.0363 12.4271 24.2141 12.2223 24.2985C11.8586 24.4488 11.514 24.2752 11.2618 23.8834C10.3444 22.4571 9.42764 21.0303 8.51778 19.5992C8.42391 19.4517 8.33698 19.397 8.15724 19.431C7.70444 19.5164 7.24524 19.5658 6.79298 19.6529C5.45751 19.9098 4.14231 20.2437 2.95404 20.9263C2.56044 21.1524 2.19031 21.4449 1.87244 21.7682C1.49591 22.1514 1.52044 22.5723 1.88044 22.9726C2.05591 23.1679 2.25751 23.3494 2.47404 23.4986C3.31511 24.0783 4.26711 24.4159 5.24204 24.6908C7.44471 25.3124 9.70284 25.5088 12.6223 25.5422H12.6228Z" fill="white"/>
<path d="M15.9989 8.80453C15.9957 10.9947 14.2047 12.7676 11.9962 12.766C9.77913 12.7649 7.99406 10.9798 8.001 8.77002C8.00793 6.5836 9.80526 4.81652 12.017 4.8213C14.2202 4.82608 16.0015 6.60802 15.9989 8.804V8.80453ZM9.60366 8.75463C9.62073 9.99461 10.4949 11.1199 11.9541 11.1645C13.185 11.2017 14.3375 10.3089 14.3855 8.84699C14.4266 7.59799 13.4991 6.45727 12.033 6.42436C10.7679 6.39569 9.6858 7.32143 9.60366 8.75516V8.75463Z" fill="white"/>
</g>
<defs>
<clipPath id="clip0_437_70492">
<rect width="24" height="27.1304" fill="white"/>
</clipPath>
</defs>
</svg>
