<svg width="27" height="23" viewBox="0 0 27 23" fill="none" xmlns="http://www.w3.org/2000/svg">
<g clip-path="url(#clip0_446_11)">
<path d="M10.3922 22.5C10.1756 22.413 9.9495 22.3474 9.86287 22.0809C9.72183 21.6474 9.95848 21.2633 10.4149 21.2235C10.6241 21.2052 10.8364 21.2251 11.0472 21.2144C11.4106 21.1956 11.6357 21.0038 11.6489 20.6368C11.6711 20.0147 11.6552 19.3909 11.6552 18.7382C11.2601 18.7382 10.885 18.7473 10.51 18.736C9.98965 18.7199 9.71285 18.3508 9.86181 17.8877C9.92626 17.6862 10.0546 17.5482 10.2654 17.5133C10.4033 17.4902 10.5433 17.4719 10.6827 17.4719C15.4185 17.4697 20.1543 17.4703 24.89 17.4697C25.0131 17.4697 25.1373 17.474 25.2588 17.459C25.5308 17.4262 25.6999 17.2559 25.7416 16.9771C25.7601 16.854 25.7701 16.7289 25.7701 16.6042C25.7717 11.7797 25.7717 6.95523 25.7712 2.13073C25.7712 1.44144 25.5963 1.26683 24.9106 1.26683C18.1189 1.26683 11.3272 1.26683 4.53545 1.26683C3.86404 1.26683 3.69395 1.43983 3.69395 2.1216C3.69395 4.07826 3.69447 6.03492 3.69342 7.99158C3.69342 8.45953 3.51804 8.69269 3.14668 8.73567C2.78483 8.77758 2.5413 8.59223 2.47844 8.22153C2.46206 8.12536 2.45097 8.02704 2.45044 7.9298C2.44886 5.97314 2.4478 4.01648 2.44991 2.05981C2.45044 1.24051 2.72513 0.560351 3.49638 0.207378C3.78111 0.0752149 4.12077 0.00913324 4.43561 0.00859599C11.2976 -0.002149 18.1601 0.0010745 25.0221 0C26.0665 0 26.7717 0.594735 26.9576 1.47153C26.9629 1.4957 26.9856 1.51558 26.9999 1.53761V17.1925C26.8853 17.4504 26.8028 17.7308 26.6486 17.9619C26.2587 18.5458 25.6687 18.7376 25.002 18.7382C22.7089 18.7387 20.4158 18.7382 18.1231 18.7382C18.0228 18.7382 17.9219 18.7382 17.8104 18.7382C17.8104 19.3829 17.802 19.9814 17.8131 20.5793C17.821 21.0027 18.0381 21.2047 18.4628 21.216C18.6472 21.2208 18.8326 21.2085 19.0159 21.2203C19.4718 21.2498 19.7105 21.5797 19.6123 22.0294C19.5441 22.3421 19.2906 22.4205 19.0381 22.5H10.3922ZM12.8618 18.7511V21.1982H16.5981V18.7511H12.8618Z" fill="white"/>
<path d="M1.7983 22.5002C1.55477 22.4352 1.29646 22.404 1.07142 22.2987C0.375713 21.9726 0.022313 21.394 0.0112197 20.6209C-0.00357131 19.6383 0.00699372 18.6557 0.00699372 17.6725C0.00699372 15.7695 0.0233695 13.8666 0.000654702 11.9637C-0.0120233 10.9322 0.700588 10.0011 1.82154 9.99842C3.54311 9.99466 5.26521 9.98821 6.98678 10.0183C7.82406 10.0328 8.52188 10.8118 8.59108 11.7187C8.59742 11.7987 8.59795 11.8793 8.59795 11.9599C8.59795 14.81 8.59953 17.6596 8.59742 20.5097C8.59636 21.488 8.09558 22.1714 7.21287 22.411C7.07975 22.447 6.94294 22.4701 6.8077 22.4997H1.7983V22.5002ZM7.35973 16.2552C7.35973 14.8621 7.36079 13.469 7.35973 12.076C7.3592 11.4339 7.17167 11.2416 6.54939 11.2411C5.04757 11.2405 3.54575 11.2405 2.04393 11.2411C1.43803 11.2411 1.23676 11.442 1.23624 12.0566C1.23465 14.8428 1.23465 17.629 1.23624 20.4157C1.23624 21.0228 1.43116 21.2167 2.02491 21.2173C3.52673 21.2173 5.02855 21.2173 6.53037 21.2173C7.19016 21.2173 7.3592 21.048 7.35973 20.3813C7.36079 19.0059 7.35973 17.6306 7.35973 16.2552Z" fill="white"/>
<path d="M17.1655 14.9909C14.9696 14.9909 12.7731 14.9914 10.5772 14.9909C10.1144 14.9909 9.88726 14.8238 9.82809 14.4488C9.7758 14.1184 9.976 13.8229 10.3019 13.7622C10.4218 13.7396 10.5455 13.7278 10.6675 13.7273C15.0155 13.7257 19.3641 13.7257 23.7121 13.7273C23.8252 13.7273 23.9398 13.7396 24.0513 13.7595C24.3672 13.8159 24.5394 14.026 24.5452 14.3526C24.5505 14.6573 24.3846 14.8872 24.0925 14.956C23.9747 14.9839 23.8495 14.9898 23.7275 14.9898C21.54 14.992 19.353 14.9914 17.1655 14.9914V14.9909Z" fill="white"/>
<path d="M14.1222 16.2467C14.1153 15.9007 14.3927 15.6089 14.7297 15.6084C15.0487 15.6079 15.3345 15.8926 15.343 16.2193C15.3514 16.5513 15.0556 16.8602 14.7297 16.8597C14.4085 16.8591 14.1285 16.5765 14.1222 16.2467Z" fill="white"/>
<path d="M4.90777 19.9759C4.90777 20.3106 4.63942 20.5905 4.3119 20.5997C3.97699 20.6083 3.69332 20.3214 3.69385 19.9738C3.69438 19.6396 3.96114 19.3586 4.2876 19.3484C4.6167 19.3382 4.90777 19.6326 4.90724 19.9759H4.90777Z" fill="white"/>
</g>
<defs>
<clipPath id="clip0_446_11">
<rect width="27" height="22.5" fill="white"/>
</clipPath>
</defs>
</svg>
