<svg width="25" height="29" viewBox="0 0 25 29" fill="none" xmlns="http://www.w3.org/2000/svg">
<g clip-path="url(#clip0_437_70526)">
<path d="M19.8793 28.5717H5.11041C5.08448 28.5488 5.05963 28.5242 5.03209 28.504C4.81386 28.3437 4.70583 28.1374 4.78416 27.8569C4.85708 27.5948 5.05153 27.4606 5.35888 27.4578C5.5744 27.4556 5.78992 27.4578 6.00545 27.4578C6.33332 27.4578 6.66173 27.4578 6.98961 27.4578C6.99393 27.3679 6.99717 27.322 6.99771 27.2756C7.01338 26.0729 7.66642 25.4073 8.83154 25.4068C9.21667 25.4068 9.60126 25.4068 10.0058 25.4068C10.2165 24.4874 10.4234 23.5848 10.6373 22.6509H10.2943C7.62699 22.6509 4.95917 22.6543 2.29188 22.6493C0.960937 22.647 0.00486255 21.6712 0.00324209 20.3042C-0.00161931 15.5527 -0.00215947 10.8022 0.00972395 6.05176C0.0108043 5.72649 0.0750827 5.37719 0.201479 5.08099C0.607676 4.12811 1.35957 3.71174 2.35022 3.7123C7.06523 3.71398 11.7808 3.71118 16.4958 3.71845C16.7205 3.71845 16.8501 3.64524 16.9722 3.45242C17.5026 2.61355 18.0331 1.773 18.5959 0.956484C19.1393 0.167909 20.1581 -0.170211 21.0682 0.0835189C21.9886 0.340602 22.6682 1.15321 22.7972 2.11336C22.8723 2.66944 22.7465 3.17802 22.5061 3.70057C22.6293 3.70615 22.7254 3.70951 22.8216 3.7151C23.877 3.77657 24.6635 4.42263 24.9168 5.43644C24.9433 5.54206 24.9725 5.64713 25.0005 5.7522V20.5937C24.987 20.6177 24.9671 20.6401 24.9617 20.6658C24.6835 21.9892 23.8954 22.6498 22.5898 22.6504C19.9587 22.6504 17.3271 22.6504 14.696 22.6504H14.3514C14.568 23.5932 14.7749 24.4913 14.985 25.4062C15.4425 25.4062 15.8816 25.4012 16.3202 25.4073C17.1575 25.4196 17.8122 25.9701 17.9666 26.8034C18.005 27.0085 17.9942 27.2237 18.0072 27.4578C18.1087 27.4578 18.1962 27.4578 18.2843 27.4578C18.7515 27.4578 19.2182 27.4511 19.6854 27.4601C20.1278 27.469 20.3822 27.939 20.1451 28.3079C20.0786 28.4113 19.9701 28.485 19.8804 28.5722L19.8793 28.5717ZM1.10138 17.7787C1.10138 18.6164 1.10084 19.405 1.10192 20.1941C1.10192 20.3148 1.103 20.4361 1.11596 20.5563C1.1662 21.0168 1.54322 21.4236 1.98885 21.4896C2.1482 21.5131 2.31078 21.517 2.47229 21.517C9.15509 21.5181 15.8374 21.5181 22.5202 21.5181C22.592 21.5181 22.6638 21.5198 22.7357 21.517C23.4638 21.489 23.8813 21.0531 23.8873 20.3025C23.8927 19.5402 23.8894 18.7779 23.8873 18.0156C23.8873 17.9446 23.8732 17.8737 23.863 17.7792H23.4757C18.0595 17.7792 12.6434 17.7792 7.22728 17.7781C7.09332 17.7781 6.95666 17.777 6.8254 17.7507C6.57855 17.7015 6.41488 17.4947 6.40624 17.2427C6.39706 16.9677 6.52075 16.7727 6.77085 16.6911C6.90426 16.6475 7.05335 16.6441 7.19541 16.6436C12.6386 16.6413 18.0817 16.6419 23.5248 16.6419H23.8884C23.8884 16.5039 23.8884 16.4033 23.8884 16.3027C23.8884 12.9276 23.8884 9.55312 23.8884 6.17806C23.8884 6.07579 23.8878 5.97352 23.8803 5.8718C23.8392 5.30733 23.4011 4.86806 22.855 4.85241C22.5499 4.84347 22.2431 4.8675 21.9395 4.84347C21.6964 4.82447 21.5468 4.92283 21.3988 5.11061C19.9523 6.94764 18.5025 8.78243 17.0424 10.6077C16.8091 10.8995 16.6125 11.1644 16.7945 11.5634C16.8383 11.659 16.8269 11.7825 16.8356 11.8937C16.9398 13.3015 16.1177 14.5461 14.8532 14.8077C14.3681 14.9083 13.8528 14.8881 13.3537 14.8658C12.5424 14.8295 11.784 14.9016 11.145 15.5119C10.8382 15.8053 10.3942 15.6359 10.2824 15.205C10.0085 14.151 9.84595 13.0875 9.95722 11.9853C10.1479 10.0947 11.4994 8.76734 13.3397 8.71536C13.5147 8.71033 13.6114 8.64941 13.7059 8.50187C14.4335 7.36344 15.1703 6.2306 15.9032 5.09552C15.9459 5.02901 15.9827 4.95804 16.0453 4.8485C15.9189 4.8485 15.8325 4.8485 15.7461 4.8485C11.273 4.8485 6.80001 4.858 2.32699 4.83844C1.64909 4.83564 1.09003 5.31348 1.09436 6.11994C1.11434 9.52238 1.10246 12.9254 1.10354 16.3284C1.10354 16.4262 1.11164 16.5245 1.11704 16.6425C1.61993 16.6425 2.09472 16.6352 2.56898 16.6447C2.95627 16.652 3.19988 16.9163 3.16855 17.2712C3.14208 17.5724 2.91522 17.7703 2.56358 17.7764C2.08986 17.7842 1.61561 17.7787 1.103 17.7787H1.10138ZM17.83 7.84854C18.2562 7.31091 18.6607 6.80233 19.0637 6.29263C19.8599 5.28666 20.6642 4.28739 21.4479 3.27135C21.9416 2.63144 21.7726 1.72382 21.1125 1.31416C20.5043 0.936364 19.781 1.12415 19.3548 1.78083C18.3496 3.32947 17.3487 4.88147 16.3467 6.43291C16.3089 6.49159 16.2803 6.55698 16.2419 6.62908C16.7713 7.03594 17.2887 7.43274 17.83 7.84854ZM11.1456 14.0761C11.5264 13.9761 11.884 13.8347 12.2518 13.7972C12.7579 13.7452 13.2716 13.7665 13.7821 13.7659C14.2315 13.7659 14.6852 13.7939 15.0811 13.5155C15.6397 13.1232 15.866 12.4241 15.7061 11.6623C15.6575 11.4315 15.5603 11.2644 15.3685 11.1269C14.9337 10.8151 14.4961 10.5021 14.0954 10.1461C13.7718 9.85826 13.4455 9.78784 13.0356 9.87224C12.1281 10.0589 11.4643 10.5295 11.178 11.4717C10.9122 12.3469 10.9938 13.2266 11.1456 14.0767V14.0761ZM16.889 27.4506C16.9695 26.7777 16.7767 26.5452 16.1593 26.5452C13.6983 26.5452 11.2379 26.5446 8.77698 26.5452C8.21252 26.5452 7.97107 26.8783 8.12123 27.45H16.8896L16.889 27.4506ZM13.8615 25.39C13.6481 24.4617 13.4412 23.5641 13.2338 22.6638H11.7559C11.5474 23.572 11.3411 24.4701 11.1299 25.39H13.8615ZM15.6229 7.55569C15.2723 8.09724 14.9402 8.61085 14.5982 9.13899C15.0595 9.4922 15.5095 9.83758 15.9729 10.1925C16.3694 9.69228 16.7475 9.21444 17.1386 8.72151C16.633 8.33253 16.1447 7.95753 15.6229 7.55569Z" fill="white"/>
<path d="M5.32437 17.2029C5.32923 17.5186 5.09373 17.769 4.7907 17.7718C4.49091 17.774 4.24892 17.5214 4.25 17.2079C4.25162 16.9128 4.48767 16.6591 4.77179 16.6474C5.06024 16.6356 5.32005 16.8966 5.32437 17.2029Z" fill="white"/>
</g>
<defs>
<clipPath id="clip0_437_70526">
<rect width="25" height="28.5714" fill="white"/>
</clipPath>
</defs>
</svg>
