<svg width="27" height="27" viewBox="0 0 27 27" fill="none" xmlns="http://www.w3.org/2000/svg">
<g clip-path="url(#clip0_446_5)">
<path d="M10.3455 26.9999C9.7285 26.6438 9.67703 26.1272 9.82599 25.4815C11.1987 19.5328 12.5527 13.5804 13.9121 7.62873C14.4335 5.34569 14.9567 3.06325 15.478 0.780207C15.5694 0.380086 15.8098 0.11877 16.2101 0.0282451C16.597 -0.0592624 16.9277 0.0572132 17.1777 0.368619C17.4048 0.651057 17.4145 0.972723 17.3364 1.31008C17.027 2.64563 16.7193 3.98238 16.413 5.31853C15.1141 10.9866 13.8158 16.6553 12.5176 22.3234C12.2293 23.5817 11.9357 24.8393 11.6626 26.1013C11.5699 26.5304 11.3204 26.8056 10.9493 26.9999H10.3449H10.3455Z" fill="white"/>
<path d="M2.55641 14.8124C3.54645 15.5885 4.51046 16.3435 5.47386 17.099C6.53354 17.9295 7.59321 18.7593 8.65168 19.5903C8.9496 19.8245 9.10704 20.1304 9.04951 20.5094C8.99078 20.8951 8.77703 21.1932 8.38949 21.2898C8.00679 21.3851 7.66951 21.2222 7.36856 20.9874C5.98129 19.9071 4.59402 18.8269 3.20675 17.7466C2.31117 17.049 1.41499 16.3519 0.519405 15.6543C-0.172716 15.1153 -0.173927 14.4491 0.512745 13.9096C2.78106 12.1292 5.05543 10.3573 7.31104 8.56133C7.9208 8.07612 8.61595 8.26139 8.8945 8.75747C9.14155 9.19803 9.03922 9.68083 8.59476 10.0381C7.78032 10.6929 6.9568 11.3356 6.13752 11.9832C4.95552 12.9168 3.77292 13.8504 2.5558 14.8112L2.55641 14.8124Z" fill="white"/>
<path d="M24.4242 13.5046C23.2416 12.5722 22.0905 11.6645 20.9387 10.7574C20.197 10.1727 19.4528 9.59088 18.7134 9.00367C18.212 8.60596 18.1236 8.02962 18.4875 7.58243C18.8412 7.14791 19.4261 7.10265 19.9105 7.48225C22.1001 9.19981 24.2891 10.918 26.4751 12.6404C27.1769 13.1932 27.1751 13.8365 26.4733 14.3833C24.2546 16.1123 22.0335 17.8383 19.8112 19.5625C19.3607 19.9119 18.9217 19.9216 18.5481 19.6078C18.1908 19.3072 18.0855 18.8099 18.3241 18.4134C18.4191 18.2553 18.5645 18.1177 18.7116 18.0019C20.5348 16.5661 22.3629 15.1364 24.1898 13.7043C24.2595 13.6494 24.3255 13.5891 24.4242 13.504V13.5046Z" fill="white"/>
</g>
<defs>
<clipPath id="clip0_446_5">
<rect width="27" height="27" fill="white"/>
</clipPath>
</defs>
</svg>
