<svg width="26" height="26" viewBox="0 0 26 26" fill="none" xmlns="http://www.w3.org/2000/svg">
<g clip-path="url(#clip0_437_70478)">
<path d="M13.9117 26H12.0834C11.7923 25.9619 11.5002 25.9283 11.2097 25.8851C8.67149 25.5082 6.39996 24.5206 4.4892 22.8047C0.932301 19.6099 -0.540329 15.611 0.175632 10.8869C0.676855 7.58378 2.32911 4.88176 4.95175 2.81495C7.94434 0.455702 11.3618 -0.411914 15.1202 0.17955C17.8467 0.608273 20.193 1.84257 22.1491 3.78885C24.0908 5.7209 25.3197 8.03793 25.7991 10.7415C25.8785 11.1885 25.9334 11.6396 25.9996 12.0892V13.917C25.9431 14.3243 25.8988 14.7342 25.8286 15.1396C25.4042 17.5949 24.3738 19.7655 22.7118 21.6223C20.7197 23.8478 18.2517 25.2489 15.308 25.7941C14.8454 25.8795 14.3773 25.9324 13.9117 26.0005V26ZM13.0013 24.4774C19.3224 24.4703 24.4928 19.2951 24.4766 12.9919C24.4603 6.67599 19.3203 1.53946 13.0054 1.52827C6.69764 1.51708 1.52206 6.68616 1.51901 13.0005C1.51545 19.3098 6.69306 24.4845 13.0019 24.4774H13.0013Z" fill="white"/>
<path d="M12.237 10.6938C12.237 9.95786 12.2355 9.22196 12.237 8.48556C12.238 8.00852 12.5474 7.67694 12.9881 7.67338C13.442 7.66931 13.757 8.00242 13.7575 8.49319C13.759 9.79614 13.7626 11.0991 13.7529 12.4015C13.7514 12.606 13.816 12.7428 13.9585 12.8842C15.3217 14.2369 16.6768 15.5984 18.038 16.9542C18.2644 17.1795 18.3865 17.4358 18.3097 17.7532C18.18 18.2923 17.5454 18.5109 17.0991 18.1758C17.032 18.1255 16.974 18.0624 16.9139 18.0029C15.4713 16.5616 14.0323 15.1168 12.5841 13.6806C12.3388 13.4375 12.2223 13.1746 12.2309 12.8257C12.2482 12.1157 12.236 11.4047 12.236 10.6938H12.237Z" fill="white"/>
<path d="M12.2366 4.61443C12.2366 4.36116 12.2326 4.1079 12.2376 3.85514C12.2463 3.42642 12.574 3.105 12.9963 3.10449C13.4187 3.10449 13.751 3.42489 13.7566 3.8531C13.7632 4.36777 13.7632 4.88244 13.7566 5.39711C13.751 5.82584 13.4197 6.14776 12.9984 6.14827C12.576 6.14827 12.2468 5.82736 12.2376 5.39915C12.232 5.13774 12.2366 4.87583 12.2366 4.61443Z" fill="white"/>
<path d="M4.63045 12.243C4.88386 12.243 5.13728 12.2384 5.39018 12.244C5.81914 12.2531 6.14023 12.5817 6.13972 13.0043C6.13972 13.4264 5.81812 13.757 5.38865 13.7626C4.87369 13.7692 4.35873 13.7692 3.84376 13.7626C3.41582 13.757 3.09422 13.4244 3.09473 13.0028C3.09473 12.5817 3.41683 12.2531 3.8458 12.2445C4.10735 12.2394 4.36941 12.2435 4.63096 12.2435L4.63045 12.243Z" fill="white"/>
<path d="M21.3693 13.7636C21.1159 13.7636 20.8625 13.7677 20.6096 13.7626C20.1801 13.7539 19.8575 13.428 19.8555 13.0069C19.8539 12.5853 20.1745 12.2501 20.6015 12.2445C21.1164 12.2379 21.6314 12.2384 22.1463 12.2445C22.5768 12.2496 22.8989 12.5776 22.9005 12.9992C22.902 13.4213 22.5814 13.7529 22.1545 13.7626C21.8929 13.7687 21.6309 13.7636 21.3693 13.7636Z" fill="white"/>
<path d="M12.2366 21.3663C12.2366 21.113 12.232 20.8598 12.2376 20.607C12.2468 20.1793 12.576 19.8579 12.9984 19.8584C13.4202 19.8584 13.7515 20.1803 13.7566 20.609C13.7632 21.1237 13.7632 21.6384 13.7566 22.1531C13.751 22.5813 13.4177 22.9022 12.9963 22.9017C12.5745 22.9017 12.2463 22.5792 12.2376 22.1505C12.2326 21.8891 12.2366 21.6272 12.2366 21.3658V21.3663Z" fill="white"/>
<path d="M20.2221 6.52988C20.2277 6.95708 19.8827 7.31104 19.4609 7.31002C19.0574 7.30901 18.7017 6.9586 18.693 6.55429C18.6844 6.13472 19.035 5.78127 19.4614 5.78076C19.8812 5.78076 20.2171 6.11031 20.2227 6.52937L20.2221 6.52988Z" fill="white"/>
<path d="M19.4709 20.2231C19.0394 20.2272 18.6913 19.8854 18.6939 19.4608C18.6959 19.0529 19.0424 18.704 19.4515 18.6969C19.8759 18.6893 20.222 19.0356 20.2204 19.4664C20.2194 19.891 19.8943 20.2196 19.4709 20.2231Z" fill="white"/>
<path d="M5.77393 6.53643C5.77545 6.11381 6.10417 5.78527 6.52754 5.78273C6.95905 5.78019 7.3066 6.12398 7.30151 6.54812C7.29642 6.95701 6.94989 7.30385 6.54077 7.30945C6.11689 7.31504 5.7724 6.9682 5.77443 6.53643H5.77393Z" fill="white"/>
<path d="M5.77297 19.4633C5.77297 19.0478 6.10881 18.7035 6.5215 18.6959C6.93367 18.6883 7.30157 19.0504 7.30208 19.4639C7.30259 19.885 6.94843 20.2308 6.5215 20.2252C6.10322 20.2196 5.77246 19.8829 5.77246 19.4633H5.77297Z" fill="white"/>
</g>
<defs>
<clipPath id="clip0_437_70478">
<rect width="26" height="26" fill="white"/>
</clipPath>
</defs>
</svg>
