<svg width="59" height="57" viewBox="0 0 59 57" fill="none" xmlns="http://www.w3.org/2000/svg">
<g clip-path="url(#clip0_885_747)">
<path d="M25.8762 56.5C25.4379 56.1906 24.9434 55.9371 24.5696 55.561C21.6587 52.638 18.7653 49.6971 15.8825 46.7456C15.5825 46.4385 15.3564 46.3552 14.938 46.5301C10.7415 48.288 6.10564 46.7551 3.75019 42.8252C2.83965 41.3066 1.96192 39.7653 1.11934 38.2062C-1.21502 33.8836 0.211147 28.5387 4.37948 25.9918C6.88024 24.4624 9.4771 23.083 11.9064 21.4466C17.3614 17.7714 22.0536 13.2512 25.8985 7.85392C26.0543 7.63493 26.1399 7.28146 26.1012 7.01368C25.7836 4.82023 26.8758 2.85292 28.8457 2.14002C30.7957 1.43426 32.8629 2.21738 33.9633 4.12043C35.3332 6.49001 36.6738 8.87626 38.0285 11.2554C38.1445 11.4577 38.2617 11.66 38.407 11.9111C40.3195 10.7614 42.2976 10.5079 44.3554 11.322C45.8097 11.8968 46.8854 12.9144 47.6425 14.2998C49.0077 16.7979 48.7229 20.9848 44.8734 23.2485C44.9612 23.4163 45.0444 23.5889 45.1394 23.7555C46.5292 26.2048 47.9448 28.6387 49.303 31.1058C50.7057 33.6539 49.4237 36.7031 46.6687 37.4065C45.2542 37.7671 43.9781 37.4136 42.8437 36.4758C42.6609 36.3246 42.362 36.2127 42.1335 36.2365C36.3422 36.8519 30.8004 38.4121 25.4766 40.7948C25.0852 40.9698 24.6961 41.1483 24.245 41.353C24.4067 41.5291 24.5415 41.685 24.6856 41.8314C26.9461 44.1272 29.2078 46.4218 31.4684 48.7176C32.5137 49.7792 32.5184 50.4255 31.4883 51.4728C30.1383 52.8451 28.8012 54.2316 27.4254 55.5776C27.0469 55.9478 26.5512 56.1965 26.1094 56.5H25.875H25.8762ZM27.6926 10.2568C23.7305 15.578 19.0161 20.0018 13.663 23.7495C16.588 28.8922 19.4755 33.9705 22.377 39.0703C28.2739 36.2163 34.3922 34.3026 40.8937 33.4718C36.4769 25.7049 32.1094 18.0237 27.6926 10.2568ZM19.8915 40.4437C16.9853 35.3332 14.1294 30.312 11.2548 25.2598C9.35992 26.3786 7.50133 27.4152 5.70486 28.553C2.958 30.2918 2.03223 33.8122 3.54863 36.7126C4.39706 38.3336 5.30643 39.926 6.26384 41.4839C7.87516 44.1046 11.14 45.1793 13.8786 43.8559C15.9271 42.8669 17.8513 41.6148 19.8903 40.4449L19.8915 40.4437ZM30.5496 4.77977C29.475 4.79048 28.8516 5.3915 28.8996 6.17581C28.9207 6.53048 29.0649 6.90656 29.2418 7.21957C34.234 16.0231 39.2378 24.8207 44.2417 33.6182C44.339 33.7896 44.4386 33.961 44.5569 34.1169C44.898 34.5668 45.3655 34.7346 45.9023 34.6394C46.4425 34.543 46.7929 34.2026 46.9804 33.6706C47.1749 33.1172 46.9417 32.6685 46.6862 32.2186C43.8351 27.2033 40.9828 22.1892 38.1304 17.174C35.9601 13.3572 33.7863 9.54274 31.6207 5.72356C31.3102 5.1749 30.9211 4.77382 30.5496 4.78096V4.77977ZM28.7696 50.0625C28.6524 49.9375 28.5106 49.778 28.3617 49.6269C26.4903 47.7262 24.62 45.8244 22.7426 43.9285C22.3606 43.5417 21.9833 42.9311 21.5497 42.8776C21.1102 42.8228 20.5993 43.3239 20.1282 43.5952C19.4274 43.9987 18.7349 44.4164 18.1032 44.7901C20.7844 47.5144 23.4212 50.1958 26.0297 52.8474C26.9098 51.9536 27.8274 51.0218 28.7696 50.0649V50.0625ZM39.8542 14.4628C41.0378 16.542 42.2249 18.6271 43.4097 20.7087C45.498 19.6007 46.173 17.2418 45.0034 15.3923C43.8913 13.6333 41.5206 13.1822 39.8542 14.4628Z" fill="white"/>
<path d="M43.3177 7.10766C43.5485 5.98654 43.8005 4.75116 44.0583 3.51817C44.1872 2.90168 44.3114 2.2828 44.4649 1.67225C44.6852 0.798685 45.3591 0.359521 46.1548 0.540423C46.9411 0.720136 47.3782 1.44494 47.2024 2.30184C46.8415 4.05731 46.4841 5.81397 46.0985 7.56467C45.9286 8.33232 45.263 8.76672 44.5294 8.65842C43.8087 8.5513 43.3083 7.9598 43.3165 7.10647L43.3177 7.10766Z" fill="white"/>
<path d="M52.5896 19.4471C52.6951 19.4733 52.906 19.509 53.1076 19.5757C54.6779 20.0886 56.2482 20.6027 57.8161 21.1252C58.736 21.4323 59.1755 22.1714 58.9352 22.9723C58.6845 23.8066 57.9005 24.1613 56.9501 23.853C55.3411 23.3318 53.7333 22.8081 52.129 22.2701C51.3931 22.0226 50.9642 21.3597 51.0708 20.6968C51.188 19.9672 51.781 19.4424 52.5908 19.4471H52.5896Z" fill="white"/>
<path d="M51.6741 13.7725C50.9159 13.7844 50.4015 13.4059 50.1941 12.7728C49.989 12.1444 50.1952 11.5088 50.8011 11.1351C51.8323 10.4996 52.8858 9.90214 53.93 9.28802C54.4186 9.00119 54.8991 8.70009 55.3971 8.43111C56.1647 8.01575 56.978 8.2395 57.3682 8.95121C57.7573 9.66054 57.5628 10.4448 56.8233 10.8911C55.3022 11.8099 53.7636 12.7014 52.2249 13.5916C52.0292 13.7047 51.7878 13.7368 51.673 13.7725H51.6741Z" fill="white"/>
</g>
<defs>
<clipPath id="clip0_885_747">
<rect width="59" height="56" fill="white" transform="translate(0 0.5)"/>
</clipPath>
</defs>
</svg>
