<svg width="53" height="55" viewBox="0 0 53 55" fill="none" xmlns="http://www.w3.org/2000/svg">
<g clip-path="url(#clip0_885_709)">
<path d="M53.0006 48.3942C52.7518 49.374 52.3774 50.2851 51.6349 50.9975C50.7224 51.8738 49.6201 52.2479 48.3892 52.2638C47.4414 52.2765 46.4926 52.2754 45.5437 52.2638C44.5814 52.2522 44.1677 51.8294 44.1614 50.8379C44.1511 49.2736 44.1583 47.7093 44.1583 46.1449C44.1583 45.9557 44.1583 45.7655 44.1583 45.5456H34.5621C34.5196 45.5953 34.4771 45.645 34.4346 45.6947C34.6098 45.8247 34.812 45.9293 34.9572 46.0878C35.4498 46.6259 35.4508 47.2209 34.9811 47.7811C34.9033 47.8741 34.8141 47.9587 34.7291 48.0454C32.8138 49.9966 30.8995 51.9477 28.9832 53.8968C28.194 54.7001 27.6641 54.7001 26.8781 53.8989C24.2805 51.2523 21.6787 48.6098 19.0925 45.9504C18.7897 45.6397 18.4941 45.5012 18.0586 45.5044C14.7309 45.5224 11.4022 45.5139 8.07353 45.5139C6.59273 45.5139 5.38983 44.9685 4.76557 43.5426C4.52292 42.9877 4.43581 42.3229 4.42959 41.7067C4.39848 38.4026 4.40055 35.0974 4.42751 31.7933C4.43166 31.2151 4.2616 30.8145 3.85717 30.4203C2.7362 29.3263 1.65256 28.1932 0.557508 27.0728C-0.187043 26.3107 -0.186006 25.7664 0.561655 25.0022C1.71789 23.8194 2.86997 22.6324 4.04072 21.4645C4.30826 21.1981 4.4244 20.9296 4.42233 20.5449C4.40677 18.0842 4.41818 15.6236 4.413 13.163C4.40988 11.6885 4.93667 10.4973 6.28371 9.86095C6.82501 9.60516 7.47727 9.49207 8.07872 9.49101C16.4077 9.46776 24.7367 9.47198 33.0658 9.48361C33.4619 9.48361 33.7325 9.361 34.0073 9.07879C36.2047 6.81897 38.4269 4.58451 40.6181 2.31941C41.3875 1.5235 42.1663 0.775161 43.2707 0.501404H44.3056C45.9741 0.930537 46.9851 2.23802 47.9879 3.4916C48.9772 4.72932 48.7397 6.55155 47.5482 7.79879C47.0391 8.33045 46.4812 8.81349 45.9461 9.31978C45.9834 9.37263 46.0207 9.42442 46.0581 9.47727C46.8628 9.47727 47.6685 9.46564 48.4732 9.47938C49.8482 9.50264 51.0138 9.99942 51.9367 11.0712C52.5122 11.7403 52.7756 12.5436 52.9996 13.3733V48.3942H53.0006ZM39.7304 27.5009C39.5697 27.5009 39.4681 27.5009 39.3664 27.5009C34.055 27.5009 28.7426 27.4924 23.4312 27.5136C22.5695 27.5167 21.828 26.8582 22.2127 25.7495C22.9334 23.6683 23.5722 21.5575 24.2867 19.4731C24.4391 19.0271 24.7056 18.581 25.0292 18.2439C26.9704 16.2219 28.9448 14.2326 30.9068 12.2307C31.0302 12.1049 31.1463 11.9717 31.3185 11.7847C31.1235 11.7709 31.0385 11.7593 30.9534 11.7593C23.2788 11.7593 15.6051 11.7561 7.93043 11.7614C7.05522 11.7614 6.64457 12.1937 6.63628 13.0985C6.62591 14.276 6.6342 15.4545 6.63317 16.632C6.63317 17.3243 6.63317 18.0177 6.63317 18.7353C7.5146 18.3527 7.81636 18.4151 8.47277 19.0842C16.2532 27.0147 24.0347 34.9431 31.8079 42.8799C32.0599 43.1378 32.3077 43.2414 32.6645 43.2403C37.0104 43.2287 41.3564 43.2108 45.7024 43.2435C47.3864 43.2562 49.1099 42.9497 50.7825 43.8122C50.7825 43.531 50.7825 43.3429 50.7825 43.1547C50.7825 41.6602 50.7825 40.1667 50.7825 38.6721C50.7825 30.656 50.7577 22.6409 50.8012 14.6248C50.8116 12.7624 49.9602 11.6261 47.9485 11.7455C46.7114 11.8185 45.466 11.773 44.2247 11.7508C43.8317 11.7434 43.5548 11.866 43.2769 12.1514C39.493 16.0263 35.6987 19.8896 31.9043 23.7539C31.4346 24.2327 30.9503 24.6957 30.4163 25.222H39.7304V27.5009ZM2.82538 26.0391C11.1865 34.5615 19.5799 43.1167 27.9358 51.6338C29.4571 50.0832 31.0136 48.4956 32.5421 46.9387C31.5891 45.9663 30.606 44.9653 29.5743 43.9126C28.8339 44.681 28.0654 45.4801 27.3852 46.1861C26.8377 45.6566 26.3181 45.1535 25.7437 44.5986C26.5017 43.8386 27.2732 43.0649 27.9949 42.3409C27.0482 41.3769 26.1139 40.4277 25.0852 39.3803C24.3572 40.1328 23.5888 40.9277 22.8526 41.6876C22.359 41.1962 21.856 40.6962 21.2909 40.1339C22.0727 39.3528 22.8546 38.5717 23.6137 37.8138C22.6576 36.8425 21.7337 35.9039 20.7485 34.9029C20.0102 35.6734 19.2449 36.4715 18.5128 37.2335C17.9674 36.6828 17.4572 36.1692 16.8796 35.5868C17.6438 34.8215 18.4267 34.0372 19.1775 33.2847C18.2473 32.3366 17.3234 31.3937 16.3652 30.4171C15.6217 31.2014 14.8585 32.0078 14.1668 32.7393C13.583 32.1791 13.0614 31.677 12.4537 31.0935C13.2325 30.3114 14.0113 29.5292 14.7372 28.7988C13.8018 27.8497 12.8758 26.9111 11.8544 25.8763C11.1409 26.6532 10.3912 27.4692 9.64663 28.2799C9.10014 27.7207 8.60239 27.2113 8.06316 26.6606C8.84193 25.8869 9.62796 25.1068 10.3756 24.3648C9.33242 23.3152 8.34418 22.3217 7.40468 21.3757C5.89173 22.9157 4.33315 24.5022 2.82331 26.0391H2.82538ZM30.0274 22.2868C34.0395 18.1942 38.0775 14.0762 42.0284 10.047C41.092 9.09253 40.111 8.09368 39.2171 7.18363C35.2393 11.2393 31.2106 15.3477 27.2151 19.4224C28.136 20.3599 29.1087 21.3514 30.0274 22.2879V22.2868ZM6.63213 33.3967C6.63213 33.5468 6.63213 33.6821 6.63213 33.8174C6.63213 36.4715 6.63006 39.1245 6.63213 41.7785C6.63317 42.826 7.04174 43.2319 8.08286 43.2319C10.6691 43.2329 13.2553 43.2319 15.8415 43.2319C15.9867 43.2319 16.1329 43.2171 16.2574 43.2097C13.0521 39.9426 9.86336 36.6913 6.63109 33.3967H6.63213ZM40.8846 5.29058C41.8998 6.32853 42.8797 7.33054 43.8763 8.34947C44.5576 7.65504 45.2886 6.93629 45.9886 6.18689C46.4957 5.64466 46.4926 5.09609 45.9959 4.55386C45.5385 4.05285 45.0636 3.56664 44.57 3.10369C44.093 2.65658 43.4988 2.64707 43.0384 3.09523C42.2928 3.82137 41.5783 4.58134 40.8846 5.29163V5.29058ZM46.3982 49.9828C46.6429 49.9828 46.8317 49.9828 47.0194 49.9828C47.5876 49.9818 48.1569 50.0018 48.7231 49.9722C49.8016 49.9162 50.6903 49.0157 50.7473 47.9555C50.8116 46.7527 50.1158 45.6999 49.0321 45.571C48.1725 45.4685 47.2921 45.5509 46.3982 45.5509V49.9828ZM25.9459 21.5416C25.6213 22.5405 25.3081 23.5066 24.9628 24.5678C26.0153 24.2084 26.9704 23.8818 27.9234 23.5562C27.2514 22.8713 26.623 22.2318 25.9448 21.5416H25.9459Z" fill="white"/>
<path d="M41.9766 25.2523H44.1625V27.4625H41.9766V25.2523Z" fill="white"/>
<path d="M46.4023 27.436V25.2565H48.5644V27.436H46.4023Z" fill="white"/>
</g>
<defs>
<clipPath id="clip0_885_709">
<rect width="53" height="54" fill="white" transform="translate(0 0.5)"/>
</clipPath>
</defs>
</svg>
