<svg width="63" height="69" viewBox="0 0 63 69" fill="none" xmlns="http://www.w3.org/2000/svg">
<path d="M30.4435 68.0784C30.1178 67.9707 29.7895 67.8708 29.4677 67.7525C27.4688 67.0218 26.1251 65.6536 25.4513 63.6362C25.4104 63.5126 25.3748 63.3865 25.3326 63.2616C25.3195 63.2209 25.2957 63.1828 25.2535 63.0908C24.3384 63.0908 23.3996 63.0789 22.4608 63.0934C20.7901 63.1197 19.519 62.4205 18.7582 60.9511C18.0092 59.5054 18.1753 58.082 19.126 56.7559C19.1748 56.6876 19.2183 56.6153 19.2777 56.5233C18.3744 55.4009 18.0936 54.1471 18.4839 52.7711C18.5775 52.4399 18.6883 52.0535 18.9243 51.8353C19.6297 51.1808 19.4161 50.5854 19.0588 49.8389C17.2088 45.9605 15.3166 42.0978 13.6183 38.1524C8.98082 27.3884 15.3061 14.8148 26.7092 11.9851C37.5467 9.29611 48.2893 16.037 50.5216 26.9863C51.3814 31.2025 50.7867 35.2754 48.9459 39.1722C47.1856 42.9008 45.4517 46.6426 43.6861 50.3699C43.4857 50.7918 43.454 51.0612 43.7916 51.4555C44.8728 52.7145 44.9625 54.565 44.0882 55.9792C43.9749 56.1632 43.8469 56.338 43.7098 56.5417C44.6012 57.6615 44.9045 58.914 44.5062 60.2913C44.0302 61.9394 42.5099 63.0737 40.7891 63.0894C39.7817 63.0986 38.7743 63.0908 37.7261 63.0908C37.6707 63.2353 37.61 63.3694 37.5665 63.5087C36.8202 65.8731 35.2352 67.3451 32.8262 67.9444C32.7273 67.9693 32.6389 68.0324 32.5453 68.0784H30.4395H30.4435ZM35.9816 49.9795C37.4993 49.9795 38.9629 49.9611 40.4252 49.9914C40.8524 50.0006 41.0331 49.8323 41.1992 49.4748C42.9938 45.6174 44.8108 41.7692 46.6068 37.9118C48.2273 34.4316 48.6914 30.8042 47.8146 27.0572C45.1207 15.535 32.0561 10.4606 22.3685 16.7651C15.2283 21.4124 12.8113 30.1852 16.4005 37.9421C18.0962 41.6063 19.8565 45.2402 21.514 48.9215C21.8964 49.7719 22.3381 50.0742 23.2638 50.0032C24.4967 49.9072 25.744 49.9795 26.9743 49.9795V38.912C26.0935 38.912 25.2443 39.0224 24.4347 38.891C22.019 38.498 20.413 36.2743 20.7295 33.8902C21.0406 31.5547 23.128 29.9013 25.5832 30.0472C27.8485 30.1813 29.6392 32.1685 29.651 34.5618C29.6537 35.1427 29.651 35.7223 29.651 36.2821H33.3431C33.3431 35.5724 33.3299 34.9179 33.3457 34.2621C33.409 31.6401 36.0449 29.5649 38.6253 30.0998C40.9948 30.5913 42.527 32.6679 42.2686 35.0402C42.0247 37.2705 40.0877 38.9449 37.7379 38.9554C37.1564 38.958 36.5749 38.9554 35.9829 38.9554V49.9782L35.9816 49.9795ZM31.4918 52.5989C28.4893 52.5989 25.4882 52.5949 22.4858 52.6015C21.5733 52.6041 20.9813 53.118 20.9655 53.8842C20.9483 54.6754 21.5536 55.2156 22.495 55.2248C23.4813 55.234 24.4676 55.2222 25.4526 55.2287C26.3176 55.2353 26.8728 55.7374 26.8873 56.5075C26.9018 57.3106 26.34 57.8363 25.4434 57.8442C24.4571 57.852 23.4708 57.8389 22.4858 57.8481C21.5747 57.8573 20.9826 58.3672 20.9655 59.1322C20.9483 59.9233 21.5536 60.4714 22.4964 60.4714C28.4999 60.4767 34.5034 60.4767 40.507 60.4714C41.4168 60.4714 42.0102 59.9509 42.0273 59.1873C42.0458 58.3962 41.4379 57.8573 40.4977 57.8481C39.5338 57.8389 38.57 57.8481 37.6061 57.8442C36.6831 57.8402 36.1213 57.3552 36.1068 56.5641C36.0923 55.7387 36.6606 55.2327 37.6153 55.2287C38.6451 55.2235 39.6763 55.2485 40.7048 55.2169C41.4722 55.1933 42.0128 54.636 42.0286 53.9408C42.0444 53.2192 41.4906 52.6607 40.6955 52.6041C40.5215 52.5923 40.3448 52.6002 40.1694 52.6002C37.2777 52.6002 34.3848 52.6002 31.4931 52.6002L31.4918 52.5989ZM29.6985 38.9856V49.9256H33.3048V38.9856H29.6985ZM34.8238 63.1486H28.1188C28.7425 64.6232 30.1732 65.5379 31.6579 65.4512C33.1374 65.3644 34.456 64.405 34.8225 63.1486H34.8238ZM27.0152 36.3281C27.0152 35.6434 27.0508 35.0336 27.0073 34.429C26.9334 33.4052 26.1159 32.6508 25.1573 32.6666C24.1894 32.6823 23.36 33.5077 23.3429 34.4724C23.3258 35.4266 24.08 36.2453 25.1058 36.3203C25.7124 36.3649 26.3242 36.3281 27.0152 36.3281ZM35.9855 36.3189C36.7068 36.3189 37.345 36.3689 37.9726 36.3071C38.9669 36.2085 39.6815 35.374 39.6472 34.4474C39.613 33.5038 38.8218 32.7099 37.8737 32.6679C36.9468 32.6258 36.0976 33.3382 35.9987 34.3239C35.9341 34.9666 35.9868 35.6197 35.9868 36.3189H35.9855Z" fill="white"/>
<path d="M62.6823 32.3998C62.3091 33.1187 61.725 33.371 60.914 33.346C59.428 33.2987 57.938 33.3355 56.4506 33.3316C55.3404 33.329 54.7879 32.8952 54.7813 32.0318C54.776 31.1709 55.3536 30.703 56.4295 30.7017C57.8958 30.7004 59.3634 30.7385 60.827 30.6873C61.6524 30.6584 62.2682 30.8949 62.6809 31.6138V32.4011L62.6823 32.3998Z" fill="white"/>
<path d="M48.774 16.1527C48.4008 15.8294 47.9604 15.5758 47.7086 15.1986C47.3657 14.6834 47.5701 14.1393 47.9828 13.7134C48.6975 12.9761 49.432 12.2585 50.1585 11.5344C50.653 11.0402 51.1356 10.5342 51.6472 10.0584C52.2326 9.51565 53.0132 9.51565 53.5354 10.0243C54.0562 10.5303 54.0879 11.3346 53.5354 11.9024C52.317 13.1536 51.0776 14.385 49.8196 15.5981C49.5849 15.8242 49.2263 15.9201 48.7727 16.1541L48.774 16.1527Z" fill="white"/>
<path d="M10.2783 9.48145C10.7477 9.73904 11.1208 9.8547 11.3714 10.0965C12.5845 11.261 13.7738 12.4504 14.9513 13.6503C15.5829 14.2943 15.5882 15.0671 15.012 15.6191C14.4569 16.1514 13.704 16.133 13.0842 15.5271C11.8817 14.3508 10.6989 13.1562 9.51084 11.9654C9.0678 11.5212 8.86737 10.9613 9.20361 10.4264C9.44359 10.0453 9.89983 9.80213 10.2769 9.48276L10.2783 9.48145Z" fill="white"/>
<path d="M4.25403 33.3277C3.4009 33.3277 2.54778 33.3421 1.69597 33.3237C0.877124 33.3066 0.337822 32.7915 0.32068 32.0502C0.303538 31.3037 0.887673 30.7123 1.70124 30.7057C3.42859 30.6912 5.15594 30.6886 6.88329 30.7057C7.67972 30.7136 8.21111 31.2708 8.20979 32.0226C8.20847 32.7809 7.69291 33.3027 6.87802 33.3224C6.00379 33.3421 5.12825 33.3264 4.25403 33.3277Z" fill="white"/>
<path d="M32.8093 4.89335C32.8093 5.72134 32.8172 6.55065 32.808 7.37864C32.7987 8.22767 32.2779 8.78098 31.5052 8.78492C30.7286 8.78886 30.1919 8.23818 30.1866 7.39573C30.1774 5.69506 30.1774 3.9957 30.1866 2.29502C30.1919 1.45783 30.7404 0.911089 31.521 0.922918C32.2687 0.934746 32.7948 1.47754 32.8066 2.27925C32.8198 3.15062 32.8093 4.0233 32.8093 4.89466V4.89335Z" fill="white"/>
<path d="M9.09773 52.8354C9.18344 52.6856 9.3087 52.3242 9.55001 52.0745C10.7196 50.868 11.9116 49.6812 13.1168 48.5075C13.751 47.8898 14.4802 47.8767 15.0406 48.4195C15.6063 48.9675 15.5905 49.7561 14.9654 50.3869C13.7827 51.5829 12.588 52.7658 11.3934 53.9486C10.9701 54.3679 10.4677 54.5322 9.89811 54.2838C9.36804 54.0524 9.09246 53.6345 9.09773 52.8354Z" fill="white"/>
<path d="M53.8925 52.8841C53.9044 53.603 53.6499 54.0104 53.158 54.2562C52.657 54.5059 52.1454 54.456 51.7537 54.0775C50.4365 52.8013 49.1337 51.5107 47.8586 50.1925C47.3839 49.7022 47.4486 48.9518 47.9035 48.4695C48.39 47.9529 49.1456 47.8412 49.6691 48.3393C51.014 49.6168 52.3155 50.9416 53.6103 52.269C53.791 52.4543 53.8411 52.7671 53.8912 52.8841H53.8925Z" fill="white"/>
<path d="M31.5233 55.2261C32.2657 55.2406 32.8287 55.8333 32.8063 56.5798C32.7839 57.3171 32.18 57.8717 31.4324 57.8415C30.7203 57.8126 30.1771 57.2396 30.1837 56.5207C30.1902 55.7794 30.777 55.2116 31.5247 55.2261H31.5233Z" fill="white"/>
</svg>
