<svg width="55" height="49" viewBox="0 0 55 49" fill="none" xmlns="http://www.w3.org/2000/svg">
<g clip-path="url(#clip0_885_797)">
<path d="M14.9396 48.7058C14.399 48.4271 13.9628 48.0763 13.8962 47.3916C13.8082 46.4794 14.34 45.8075 15.2338 45.7445C15.3582 45.7355 15.4839 45.7342 15.6097 45.7342C23.5283 45.7342 31.447 45.7317 39.3644 45.7342C40.6479 45.7342 41.3783 46.5346 41.0012 47.6305C40.8566 48.0519 40.3676 48.35 40.0357 48.7046L14.9396 48.7046L14.9396 48.7058Z" fill="white"/>
<path d="M43.2026 39.683C44.3127 40.6388 45.4139 41.5857 46.5152 42.5326C51.2495 36.7281 53.5425 26.6942 49.4305 17.4736C45.1122 7.79696 36.0332 3.34018 28.9631 3.1282C28.9631 4.53243 28.9493 5.93665 28.987 7.3383C28.9908 7.46035 29.3264 7.65564 29.5225 7.67748C33.3178 8.09245 36.702 9.5198 39.7015 11.921C40.1956 12.3167 40.5275 12.7933 40.3791 13.4588C40.2459 14.0614 39.8687 14.4686 39.2766 14.6575C38.6971 14.8412 38.2646 14.5509 37.8473 14.2155C36.0332 12.7612 34.0155 11.7296 31.7866 11.118C22.2739 8.50742 12.5865 14.8926 11.0289 24.8416C10.2244 29.9806 11.5154 34.562 14.74 38.5794C15.5697 39.6136 15.5332 40.3331 14.5313 41.2067C12.8304 42.6906 11.1232 44.168 9.40973 45.6352C8.44174 46.4651 7.70632 46.3945 6.89045 45.3937C2.2881 39.7459 0.124575 33.2284 0.553256 25.908C1.22708 14.4198 8.73591 4.73285 19.4982 1.25505C33.8332 -3.37645 49.4744 5.23518 53.4281 20.0521C55.8934 29.2869 54.0843 37.6981 48.2475 45.192C47.2682 46.4497 46.6082 46.505 45.4215 45.4862C43.7407 44.0434 42.0624 42.5994 40.3867 41.1515C39.479 40.3678 39.4086 39.5918 40.1692 38.668C42.9185 35.3264 44.2787 31.4671 44.153 27.1144C44.114 25.7435 43.8174 24.3714 43.5509 23.0173C43.3195 21.8456 43.5785 21.157 44.5214 20.8821C45.4416 20.6123 46.089 21.0581 46.3857 22.2439C47.8917 28.2642 46.9866 33.8682 43.5735 39.0303C43.4566 39.2076 43.3371 39.3811 43.2202 39.5584C43.2102 39.5738 43.2139 39.5995 43.2039 39.6856L43.2026 39.683ZM7.94518 26.0596C8.3198 21.7261 9.86607 17.8848 12.5551 14.6408C11.484 13.5577 10.4406 12.5017 9.37705 11.4276C5.86086 15.5812 3.87208 20.4491 3.48488 26.0596L7.94518 26.0596ZM26.0126 3.05626C20.4712 3.49178 15.7004 5.50626 11.6336 9.12538C12.7122 10.2277 13.7431 11.2812 14.7789 12.3385C15.2881 11.9492 15.8261 11.5099 16.3918 11.1129C19.1462 9.17806 22.1834 8.02693 25.5148 7.68005C25.6921 7.66206 25.9875 7.42952 25.9913 7.29077C26.0265 5.90839 26.0126 4.52472 26.0126 3.05626ZM8.4166 42.6058C9.59076 41.5883 10.6995 40.626 11.8335 39.6432C9.5367 36.493 8.27077 32.9843 7.93261 29.1301L3.47608 29.1301C3.81551 34.1342 5.44098 38.5807 8.4166 42.6058Z" fill="white"/>
<path d="M27.3584 36.5702C25.2603 36.5522 23.4261 35.2456 22.7385 33.2543C22.0383 31.2257 22.6228 28.9774 24.3451 27.6952C27.2139 25.5599 30.1254 23.4838 33.0495 21.4295C36.181 19.23 39.3464 17.0832 42.5018 14.9184C43.2863 14.3801 43.8696 14.3852 44.4466 14.8966C45.0814 15.4593 45.1343 16.2854 44.5522 17.0691C43.2259 18.8536 41.8959 20.6355 40.5495 22.4033C37.5739 26.3115 34.5869 30.2081 31.6075 34.1138C30.7539 35.2328 29.7734 36.1616 28.3478 36.4366C28.0209 36.4995 27.6878 36.5252 27.3584 36.5689L27.3584 36.5702ZM36.7454 22.6641C36.7065 22.6204 36.6675 22.5781 36.6285 22.5344C35.3412 23.4298 34.0439 24.3112 32.7679 25.2246C30.5478 26.8138 28.3176 28.3889 26.139 30.0373C25.1019 30.8222 25.0793 32.0839 25.9479 32.9806C26.8066 33.8671 28.0461 33.844 28.8469 32.8252C31.4994 29.454 34.1143 26.0533 36.7442 22.6641L36.7454 22.6641Z" fill="white"/>
<path d="M27.5019 43.0864C25.8526 43.0864 24.2032 43.1031 22.5551 43.08C21.5595 43.0658 21.0164 42.4209 21.0931 41.4329C21.1509 40.6891 21.6902 40.1392 22.4659 40.1353C25.8061 40.1199 29.1463 40.1199 32.4852 40.1353C33.3438 40.1392 33.8856 40.7405 33.8894 41.5987C33.8932 42.4736 33.3853 43.0581 32.5116 43.0735C30.8421 43.1005 29.1714 43.0813 27.5019 43.0813C27.5019 43.0838 27.5019 43.0851 27.5019 43.0877L27.5019 43.0864Z" fill="white"/>
</g>
<defs>
<clipPath id="clip0_885_797">
<rect width="54" height="48.7059" fill="white" transform="translate(0.5)"/>
</clipPath>
</defs>
</svg>
