<svg width="57" height="57" viewBox="0 0 57 57" fill="none" xmlns="http://www.w3.org/2000/svg">
<path d="M18.2223 56.5C17.9122 56.1898 17.4881 55.9343 17.3142 55.5599C16.8936 54.6495 17.6067 53.6665 18.6465 53.6606C20.659 53.6475 22.6704 53.6559 24.6829 53.6559C24.8968 53.6559 25.1106 53.6559 25.3103 53.6559C25.342 53.5952 25.3808 53.5525 25.3726 53.5322C24.7006 52.0228 24.925 50.5039 25.2551 48.9564C25.9518 45.682 26.5756 42.391 27.2606 39.1142C27.7435 36.8001 29.615 35.1873 31.9542 35.0042C32.1292 34.9912 32.3055 34.9817 32.4805 34.9817C38.5558 34.9817 44.6322 34.9698 50.7074 34.9852C53.9113 34.9935 56.3573 37.4978 56.0613 40.5452C55.9226 41.9702 55.5537 43.3739 55.2729 44.7835C54.7877 47.2176 54.2931 49.6493 53.7985 52.081C53.3262 54.3975 51.968 55.8546 49.6794 56.4025C49.6277 56.4144 49.5842 56.4667 49.5372 56.4988H18.2223V56.5ZM41.628 37.8591C38.5804 37.8591 35.534 37.8579 32.4864 37.8591C31.133 37.8591 30.2577 38.5413 29.9863 39.8689C29.2532 43.4583 28.5283 47.0488 27.8316 50.6453C27.4873 52.4222 28.5318 53.6463 30.3352 53.6535C31.4878 53.6582 32.6403 53.6535 33.7928 53.6535C38.6756 53.6535 43.5595 53.6547 48.4423 53.6523C49.7581 53.6523 50.7039 52.9796 50.9506 51.7875C51.7096 48.1244 52.4638 44.459 53.1687 40.7841C53.5012 39.0464 52.4591 37.8603 50.7109 37.8579C47.6833 37.8555 44.6557 37.8579 41.628 37.8579V37.8591Z" fill="white"/>
<path d="M6.49277 56.4999C6.03457 56.3538 5.56933 56.2266 5.11818 56.059C1.94134 54.8812 0.0803532 51.6163 0.580846 48.2373C0.915683 45.9743 1.15536 43.6971 1.44202 41.427C1.64175 39.8451 2.41246 38.6066 3.71304 37.7235C6.72657 35.6769 9.72953 33.61 12.7807 31.6204C17.4331 28.5849 23.5483 28.8547 28.0057 32.2266C28.6214 32.6925 28.8258 33.3486 28.5568 33.9939C28.2689 34.6809 27.6721 34.959 26.7228 34.8223C26.2399 35.6579 25.75 36.5077 25.2566 37.3563C22.74 41.6825 17.1147 41.6754 14.5982 37.3408C14.1153 36.5089 13.636 35.6721 13.139 34.8081C11.0947 36.1856 9.08335 37.5405 7.07081 38.8966C6.50217 39.2793 5.93354 39.6632 5.3649 40.0447C4.7105 40.4845 4.32984 41.0799 4.23351 41.8858C3.95036 44.2557 3.6214 46.6197 3.34766 48.9908C3.06804 51.4142 5.00892 53.5785 7.51138 53.6463C8.76144 53.6807 10.0127 53.6665 11.2627 53.6498C12.3401 53.6356 12.8817 52.8048 12.4752 51.7791C11.5682 49.4924 10.6236 47.2211 9.74363 44.9248C9.58032 44.497 9.53215 43.9491 9.64024 43.5093C9.7824 42.9281 10.3099 42.6429 10.9044 42.6417C11.5282 42.6405 11.9841 42.9697 12.2226 43.5521C12.783 44.9177 13.327 46.2893 13.8768 47.6596C14.2727 48.6461 14.6428 49.6433 15.0681 50.6167C16.2289 53.2719 14.5876 55.9532 12.2625 56.4037C12.2108 56.4132 12.1686 56.4667 12.1216 56.4999H6.49277ZM24.3366 33.3486C21.3513 32.0756 18.5034 32.0709 15.551 33.3379C16.2254 34.4586 16.7823 35.5723 17.5154 36.5528C18.6291 38.0432 21.0094 38.1478 22.196 36.7145C23.0208 35.7185 23.6059 34.5193 24.3366 33.3486Z" fill="white"/>
<path d="M10.7563 22.9062C9.65307 24.0995 8.34662 24.7568 6.74645 24.7378C4.0701 24.7057 1.83903 22.6959 1.68747 19.9789C1.58526 18.1557 1.62403 16.3039 1.82376 14.4891C1.98472 13.0307 2.95163 11.9563 4.20756 11.217C4.5377 11.0221 4.7292 10.8034 4.89251 10.4421C7.09186 5.56557 10.741 2.34346 15.8787 1.02063C23.7338 -1.00225 31.7253 3.01617 35.0137 10.5087C35.1159 10.7404 35.3063 10.9817 35.5189 11.1089C37.112 12.0573 38.0942 13.4396 38.2 15.3032C38.2928 16.9351 38.3045 18.5883 38.1483 20.213C37.9474 22.3048 36.7196 23.7465 34.7776 24.4371C32.8602 25.1193 31.085 24.7235 29.5518 23.3412C29.4084 23.2129 29.2733 23.0762 29.13 22.9395C24.7806 29.7771 15.1256 29.6939 10.7574 22.9062H10.7563ZM27.8541 17.1419C28.0526 13.3766 24.9428 9.1062 19.9402 9.05747C15.5897 9.01587 12.0815 12.6361 11.9758 17.0028C11.8806 20.9321 14.9917 25.1823 19.9508 25.168C24.9956 25.1526 28.035 20.8192 27.8553 17.1419H27.8541ZM10.4379 11.8458C12.6008 8.28493 15.7048 6.22164 19.9402 6.22164C24.1909 6.22164 27.2984 8.31583 29.4319 11.847C30.2543 11.3929 31.0298 10.9639 31.8075 10.5348C30.1122 6.9716 25.502 3.21822 19.5866 3.36679C13.6041 3.51654 9.42984 7.46009 8.067 10.5431C8.84828 10.9722 9.62722 11.4001 10.4391 11.847L10.4379 11.8458ZM9.10793 17.6244C9.10793 16.9339 9.13848 16.2433 9.10088 15.5552C9.03391 14.3013 8.00943 13.3516 6.78287 13.3623C5.52811 13.373 4.50598 14.3654 4.48483 15.6396C4.46251 16.96 4.46251 18.2828 4.48483 19.6033C4.5048 20.856 5.50227 21.8473 6.72178 21.8722C8.00238 21.8984 9.02921 20.9772 9.10088 19.6936C9.13965 19.0055 9.10793 18.3137 9.10793 17.6244ZM30.7525 17.6113C30.7525 18.2817 30.7372 18.9532 30.756 19.6223C30.7913 20.8703 31.7864 21.8532 33.0118 21.8722C34.2653 21.8912 35.318 20.982 35.365 19.734C35.4167 18.3363 35.4155 16.9339 35.3674 15.535C35.3239 14.2846 34.2606 13.3386 33.0364 13.3635C31.7746 13.3897 30.7819 14.3809 30.7537 15.6586C30.7396 16.3087 30.7513 16.96 30.7525 17.6113Z" fill="white"/>
<path d="M53.6668 15.403C53.8994 15.2259 54.091 15.0607 54.3013 14.924C54.9392 14.5045 55.7275 14.6305 56.1904 15.2152C56.6251 15.7655 56.6146 16.6105 56.0741 17.0978C55.0684 18.0023 54.0263 18.8688 52.9772 19.7233C52.5401 20.0799 52.0596 20.0097 51.6355 19.6556C50.6862 18.864 49.7369 18.0724 48.8029 17.2631C48.159 16.7044 48.038 15.9331 48.4563 15.3115C48.8839 14.6756 49.5783 14.5199 50.369 14.8824C50.4218 14.9062 50.4747 14.93 50.6016 14.9858C50.5699 14.798 50.5593 14.6554 50.5229 14.5211C49.1095 9.26543 44.551 5.81513 38.954 5.76402C38.2514 5.75808 37.5465 5.77947 36.8451 5.74976C36.0532 5.71648 35.5057 5.16262 35.4705 4.41385C35.4341 3.65081 35.971 2.9579 36.7523 2.91749C40.0889 2.74277 43.3456 3.02565 46.318 4.78229C50.2292 7.09399 52.6576 10.4765 53.5305 14.9858C53.5552 15.1154 53.6128 15.239 53.668 15.4018L53.6668 15.403Z" fill="white"/>
<path d="M43.4251 21.3563C44.224 21.348 44.8373 21.9541 44.8432 22.7564C44.8491 23.5432 44.2252 24.2004 43.4592 24.2123C42.7014 24.2242 42.0447 23.5681 42.0353 22.792C42.0259 21.9957 42.6356 21.3646 43.424 21.3563H43.4251Z" fill="white"/>
<path d="M44.8443 28.2189C44.8443 29.0045 44.2087 29.6582 43.4426 29.6582C42.6825 29.6582 42.0363 28.9985 42.0352 28.2189C42.0352 27.4297 42.6614 26.7938 43.4426 26.7938C44.2298 26.7938 44.8443 27.4178 44.8443 28.2189Z" fill="white"/>
<path d="M41.6819 49.8608C39.318 49.862 37.4523 47.9687 37.457 45.575C37.4617 43.2288 39.3486 41.3248 41.6689 41.3236C44.0187 41.3224 45.902 43.2371 45.8961 45.6213C45.8902 47.9746 44.0163 49.8596 41.6819 49.8608ZM41.656 44.182C40.9217 44.1951 40.2791 44.8476 40.2732 45.5869C40.2661 46.3475 40.9405 47.0226 41.6936 47.0119C42.4279 47 43.0706 46.3487 43.0776 45.6083C43.0847 44.85 42.4068 44.1689 41.656 44.182Z" fill="white"/>
</svg>
