<svg width="53" height="53" viewBox="0 0 53 53" fill="none" xmlns="http://www.w3.org/2000/svg">
<g clip-path="url(#clip0_885_740)">
<path d="M0 20.9097C0.333973 20.2677 0.908571 19.9389 1.54229 19.6412C5.28133 17.8873 9.01 16.1106 12.7428 14.3421C13.8702 13.808 14.3463 13.8878 15.2269 14.7767C15.6863 15.2414 16.1323 15.7195 16.6136 16.2236C16.7246 16.0867 16.7972 16.0183 16.8459 15.9353C20.4283 9.82097 25.7076 5.75825 32.2418 3.22125C35.4778 1.9652 38.8238 1.12714 42.2558 0.611649C45.2118 0.167727 48.1802 -0.0417882 51.1673 0.00592315C52.3455 0.0245928 52.9751 0.650026 52.9927 1.83036C53.0861 7.94778 52.2107 13.92 50.1726 19.6941C48.3721 24.793 45.6733 29.3453 41.5298 32.906C40.1514 34.0905 38.5842 35.0561 37.1041 36.1213C37.0222 36.1804 36.9372 36.2354 36.7691 36.3495C37.2825 36.8515 37.7742 37.3245 38.2565 37.8057C39.0904 38.6365 39.1806 39.152 38.6796 40.2089C36.9123 43.9418 35.1356 47.6706 33.3807 51.4086C33.0768 52.0558 32.7501 52.6543 32.0904 52.9997H29.8128C29.5234 52.9675 29.234 52.9157 28.9436 52.9064C23.6519 52.7248 18.3592 52.5485 13.0664 52.3722C12.3549 52.3483 11.7803 52.0828 11.5003 51.3972C11.1933 50.6453 11.4723 50.0385 12.022 49.4908C15.3223 46.2029 18.6112 42.9056 21.9105 39.6167C22.0422 39.485 22.2361 39.4144 22.3523 39.346C21.1896 38.1968 20.1535 37.172 19.0271 36.058C18.9535 36.1628 18.8653 36.3391 18.7325 36.4719C15.4789 39.7328 12.2211 42.9897 8.96333 46.2454C8.81708 46.3917 8.67395 46.5442 8.51008 46.6686C7.60254 47.3542 6.31436 46.9051 6.04884 45.8026C5.88704 45.1294 6.17434 44.6077 6.64522 44.1378C9.9445 40.8489 13.2355 37.5526 16.5285 34.2585C16.6686 34.1185 16.8023 33.9722 16.8884 33.882C15.8232 32.8116 14.8027 31.7879 13.6898 30.6698C13.5892 30.8056 13.4854 30.9903 13.3413 31.1355C10.0389 34.4452 6.73027 37.7487 3.42789 41.0584C2.91759 41.5697 2.33573 41.7813 1.64704 41.5199C0.95317 41.2565 0.657573 40.6954 0.632681 39.9818C0.454286 34.7584 0.281076 29.5351 0.101644 24.3117C0.0902348 23.9715 0.0363014 23.6324 0.00207436 23.2932C0.00207436 22.4997 0.00207436 21.7063 0.00207436 20.9118L0 20.9097ZM49.7785 3.12998C49.5856 3.12998 49.3304 3.11027 49.0784 3.13309C46.9512 3.32186 44.8135 3.43595 42.6997 3.72741C37.8167 4.40159 33.1597 5.82048 28.8658 8.28902C25.4514 10.2524 22.6126 12.8496 20.418 16.1386C18.0656 19.664 16.569 23.5442 15.6189 27.6505C15.5795 27.8206 15.6573 28.0882 15.7797 28.2147C16.8241 29.2924 17.8914 30.3472 18.9545 31.4072C19.023 31.4746 19.1101 31.5234 19.2397 31.6167C19.3756 31.456 19.4886 31.3025 19.6224 31.1676C21.2062 29.5797 22.79 27.9928 24.379 26.41C24.9805 25.8105 25.6039 25.6684 26.2511 25.9598C27.2976 26.4307 27.4884 27.7034 26.6224 28.5788C25.021 30.1978 23.404 31.8014 21.7953 33.4121C21.6647 33.5428 21.5423 33.6797 21.3794 33.853C22.5639 35.0302 23.7193 36.1877 24.8924 37.3286C24.9816 37.4147 25.2097 37.424 25.3477 37.3836C27.0601 36.8754 28.7942 36.4221 30.4724 35.8153C34.4614 34.3715 38.0148 32.2028 40.9791 29.1368C44.0201 25.9899 45.9886 22.2052 47.4106 18.1124C48.7807 14.1679 49.4798 10.0875 49.7702 5.9325C49.8345 5.01146 49.7795 4.08213 49.7795 3.1279L49.7785 3.12998ZM3.65192 36.4708C3.87906 36.2157 3.99834 36.0674 4.13213 35.9336C6.72716 33.3354 9.32012 30.7351 11.9255 28.1483C12.2439 27.832 12.4171 27.4845 12.5437 27.0572C13.1504 24.9984 13.7862 22.9478 14.4334 20.9014C14.6243 20.2988 15.1512 19.6661 15.0443 19.1454C14.9365 18.6196 14.2198 18.2275 13.7956 17.7545C13.5767 17.5108 13.3952 17.4766 13.0913 17.6218C9.91027 19.1423 6.72301 20.6504 3.53264 22.1512C3.2609 22.2788 3.15718 22.423 3.16859 22.7352C3.30031 26.439 3.41337 30.1429 3.53679 33.8457C3.56376 34.6661 3.60939 35.4865 3.65295 36.4688L3.65192 36.4708ZM16.5928 49.3674C21.2353 49.523 25.7657 49.6713 30.2961 49.8331C30.5948 49.8435 30.7213 49.7242 30.8365 49.4794C32.3476 46.2745 33.865 43.0716 35.3886 39.8729C35.509 39.6208 35.5173 39.4507 35.2901 39.2495C34.9043 38.9062 34.535 38.5401 34.1928 38.1542C33.9615 37.8928 33.7572 37.8514 33.4356 37.9945C30.9775 39.0877 28.425 39.8957 25.8051 40.5045C25.5074 40.574 25.1952 40.7503 24.9785 40.965C22.2963 43.6224 19.6307 46.2973 16.961 48.9681C16.8552 49.0739 16.7588 49.1869 16.5918 49.3695L16.5928 49.3674Z" fill="white"/>
<path d="M36.5902 22.5467C33.2453 22.5509 30.4708 19.7878 30.4532 16.4355C30.4345 13.075 33.2484 10.259 36.6006 10.2829C39.9673 10.3067 42.721 13.0709 42.7117 16.42C42.7034 19.7764 39.9393 22.5426 36.5902 22.5467ZM36.5871 13.4339C34.9214 13.4339 33.6052 14.7459 33.6021 16.4107C33.6 18.0733 34.9152 19.3926 36.5799 19.3968C38.2404 19.4009 39.5617 18.0816 39.5628 16.4179C39.5649 14.7511 38.2518 13.4349 36.5871 13.4339Z" fill="white"/>
</g>
<defs>
<clipPath id="clip0_885_740">
<rect width="53" height="53" fill="white"/>
</clipPath>
</defs>
</svg>
