<svg width="51" height="57" viewBox="0 0 51 57" fill="none" xmlns="http://www.w3.org/2000/svg">
<g clip-path="url(#clip0_885_701)">
<path d="M50.4987 52.6872C49.769 53.3982 49.033 54.1016 48.3132 54.8227C48.1224 55.0135 47.9814 55.2565 47.8579 55.4218C45.8159 53.3359 43.8737 51.3504 41.9727 49.4069C42.8009 48.5585 43.7178 47.6198 44.687 46.6265C44.7818 46.718 44.944 46.8681 45.0974 47.0258C46.7403 48.6997 48.3806 50.3761 50.0259 52.0474C50.1682 52.1911 50.339 52.3056 50.4975 52.4328V52.6872H50.4987Z" fill="white"/>
<path d="M26.773 53.0407C27.2458 54.3368 27.6911 55.5591 28.1664 56.8603C27.1522 57.2495 26.1792 57.6438 25.1888 57.9847C25.0116 58.0457 24.7522 57.9058 24.5451 57.8206C12.5937 52.8664 4.97697 43.9999 1.60896 31.3226C0.81436 28.331 0.527455 25.2581 0.512486 22.1635C0.495022 18.4825 0.513733 14.8016 0.500012 11.1219C0.498765 10.6882 0.594815 10.4541 1.03141 10.2837C8.87638 7.22854 16.7126 4.14794 24.5588 1.0966C24.8844 0.969404 25.3397 0.96686 25.664 1.09278C33.4866 4.13777 41.2991 7.20819 49.1166 10.2684C49.4647 10.4045 49.7116 10.5165 49.7067 10.996C49.6593 15.7975 49.6393 20.599 49.6094 25.4018C49.6094 25.5888 49.5857 25.7745 49.5732 25.9564H45.6451C45.6102 25.7986 45.579 25.721 45.579 25.6447C45.6064 21.7107 45.6326 17.7766 45.675 13.8425C45.6788 13.4495 45.5752 13.2422 45.196 13.0947C38.6459 10.5432 32.1019 7.97389 25.5505 5.42623C25.2936 5.32574 24.9331 5.32829 24.6761 5.4275C18.1272 7.97262 11.587 10.5406 5.03934 13.0921C4.67884 13.232 4.5304 13.4075 4.53414 13.8197C4.55784 17.077 4.47427 20.3383 4.57905 23.5918C4.80608 30.618 7.07138 36.9432 11.1729 42.5753C14.5908 47.2674 18.9318 50.8085 24.1472 53.2467C24.8507 53.5762 25.4607 53.6525 26.1343 53.2875C26.3127 53.1908 26.5135 53.1386 26.7717 53.0394L26.773 53.0407Z" fill="white"/>
<path d="M31.7418 21.7681C39.6716 21.805 45.9311 28.3108 45.8912 36.4715C45.8525 44.3053 39.4096 50.7768 31.6819 50.7412C23.7758 50.7043 17.4889 44.1717 17.5275 36.0314C17.5649 28.204 24.0141 21.7325 31.7418 21.7693V21.7681ZM31.6732 46.6176C37.3389 46.6291 41.8932 42.0273 41.9094 36.2744C41.9256 30.5558 37.3851 25.898 31.7829 25.8827C26.091 25.8675 21.5093 30.4973 21.513 36.2591C21.518 41.9751 26.0611 46.6075 31.6732 46.6189V46.6176Z" fill="white"/>
</g>
<defs>
<clipPath id="clip0_885_701">
<rect width="50" height="57" fill="white" transform="translate(0.5)"/>
</clipPath>
</defs>
</svg>
