<svg width="49" height="49" viewBox="0 0 49 49" fill="none" xmlns="http://www.w3.org/2000/svg">
<path d="M0 22.7818C0.125557 21.9179 0.220444 21.0474 0.380506 20.1903C1.66483 13.2836 5.26766 7.88685 11.0874 4.00013C15.549 1.01943 20.5176 -0.223094 25.8629 0.0357643C27.7118 0.125885 29.53 0.442268 31.3089 0.966696C32.2414 1.24185 32.7274 2.02802 32.4973 2.89567C32.2759 3.73361 31.4114 4.18709 30.4875 3.92535C27.8536 3.18042 25.1728 2.888 22.4508 3.17466C16.932 3.75566 12.2778 6.09689 8.5542 10.2166C5.64529 13.4341 3.85778 17.2153 3.28941 21.5143C2.45364 27.8353 4.08589 33.4927 8.1967 38.3718C11.3721 42.1405 15.4177 44.5527 20.2588 45.4875C27.0006 46.7885 33.0686 45.2181 38.3353 40.8137C42.1298 37.6402 44.4905 33.5608 45.4854 28.7106C46.1726 25.3588 46.0202 22.0301 45.1288 18.7282C45.0358 18.384 44.9649 18.0005 45.0205 17.6573C45.1365 16.9469 45.7355 16.4781 46.4275 16.4522C47.178 16.4234 47.8086 16.8414 47.9927 17.5931C48.2802 18.7656 48.5879 19.942 48.7508 21.1356C49.3211 25.3167 48.9463 29.4268 47.3333 33.3346C43.8809 41.7014 37.7008 46.8307 28.7996 48.6158C27.9456 48.7875 27.0744 48.8728 26.2118 48.9984H22.7681C22.2035 48.9255 21.6371 48.8603 21.0735 48.7769C16.5966 48.1202 12.5692 46.4127 9.07081 43.5365C4.39164 39.6929 1.45973 34.7947 0.379548 28.817C0.224278 27.958 0.125557 27.0903 0 26.2265C0 25.0779 0 23.9303 0 22.7818Z" fill="white"/>
<path d="M41.3908 24.4957C41.3419 32.6564 35.6708 39.5641 27.6092 41.1C18.5336 42.8286 10.0014 36.9688 8.04716 28.3009C5.99799 19.2159 11.4612 10.3505 20.4342 8.1061C23.2061 7.41294 25.9827 7.4417 28.7507 8.15021C29.759 8.40811 30.2718 9.18468 30.0351 10.0926C29.8098 10.9564 28.9798 11.3773 27.9907 11.13C20.6048 9.2796 13.2161 13.5354 11.1851 20.8084C9.0545 28.437 13.8238 36.3332 21.5709 38.0033C29.1399 39.6351 36.6417 34.6851 38.0583 27.1092C38.4407 25.0623 38.3746 23.0202 37.8599 20.9973C37.6078 20.0078 38.0324 19.1824 38.9008 18.9552C39.7998 18.7203 40.6336 19.2332 40.8282 20.2437C41.0985 21.6463 41.2892 23.0633 41.5145 24.4746C41.4732 24.4813 41.433 24.488 41.3918 24.4938L41.3908 24.4957Z" fill="white"/>
<path d="M24.4753 26.0345C23.8437 26.0201 23.3741 25.7229 23.1066 25.1601C22.8383 24.5964 22.9073 24.0432 23.2945 23.5446C23.4018 23.4066 23.5332 23.2887 23.6578 23.164C26.4191 20.4009 29.1784 17.6369 31.9465 14.8805C32.1966 14.6313 32.3222 14.3782 32.3548 14.0138C32.5637 11.6822 32.7813 9.35056 33.0564 7.02658C33.1062 6.60474 33.3477 6.13304 33.6448 5.82529C35.3634 4.04971 37.1279 2.31919 38.8694 0.566626C39.363 0.0700009 39.9265 -0.146673 40.6003 0.105474C41.2914 0.364333 41.5732 0.902183 41.6211 1.62603C41.7294 3.26355 41.878 4.89819 41.9939 6.53475C42.016 6.85305 42.1329 6.97385 42.453 6.9959C44.137 7.11287 45.8201 7.25189 47.5031 7.3794C48.152 7.42829 48.6236 7.74372 48.867 8.34197C49.1114 8.94214 49.006 9.51738 48.5498 9.97757C46.721 11.8241 44.8923 13.6706 43.0252 15.4778C42.7444 15.7492 42.2709 15.9073 41.8684 15.9515C39.5106 16.2141 37.147 16.4184 34.7883 16.6695C34.565 16.6935 34.3206 16.8555 34.1538 17.0224C31.3388 19.8209 28.5334 22.63 25.7299 25.4401C25.3791 25.7919 24.9996 26.0556 24.4763 26.0345H24.4753ZM35.4889 13.5019C37.401 13.3082 39.2508 13.1222 41.0997 12.9295C41.2013 12.919 41.3182 12.8682 41.3901 12.7972C42.2163 11.9785 43.0348 11.153 43.8524 10.3256C43.8754 10.3016 43.8639 10.2431 43.8706 10.176C42.8575 10.0993 41.8617 10.0169 40.8639 9.95168C40.2888 9.91429 39.7119 9.82034 39.4052 9.29303C39.1991 8.93926 39.0984 8.49728 39.0505 8.08311C38.9384 7.09561 38.8857 6.1014 38.8071 5.07748C38.7103 5.12349 38.6614 5.13308 38.6317 5.16184C37.8295 5.95951 37.0272 6.75718 36.2317 7.56156C36.1493 7.64497 36.0745 7.7696 36.0621 7.88273C35.8665 9.73309 35.6825 11.5835 35.488 13.5019H35.4889Z" fill="white"/>
<path d="M15.2578 24.4852C15.3096 19.8899 18.6852 16.0262 23.2561 15.4127C23.9146 15.3244 24.5912 15.3158 25.2564 15.3446C26.2685 15.3877 26.9519 16.1375 26.8666 17.0339C26.7794 17.9437 26.0011 18.5094 24.9804 18.4029C21.8731 18.0799 18.8261 20.516 18.4466 23.6271C18.0038 27.2492 20.4363 30.2663 24.0785 30.6134C27.0861 30.9001 30.134 28.4764 30.5183 25.487C30.5634 25.14 30.5921 24.79 30.6103 24.4411C30.6554 23.5897 31.3196 22.9627 32.1774 22.9752C32.9969 22.9876 33.6467 23.6386 33.6688 24.4689C33.7828 28.6691 30.5739 32.6728 26.4363 33.4915C21.2788 34.5126 16.5373 31.3804 15.4715 26.2349C15.3527 25.6615 15.3268 25.069 15.2578 24.4861V24.4852Z" fill="white"/>
</svg>
