<svg width="10" height="7" viewBox="0 0 10 7" fill="none" xmlns="http://www.w3.org/2000/svg">
<path d="M5.00097 5.10449C5.06156 5.03253 5.09565 4.98708 5.13731 4.94542C6.48184 3.60089 7.82636 2.25258 9.17468 0.911842C9.258 0.828519 9.37162 0.760346 9.48524 0.730047C9.65946 0.680811 9.84883 0.786858 9.93973 0.945928C10.0306 1.105 10.0193 1.30573 9.90186 1.45344C9.86777 1.49889 9.82611 1.53676 9.78445 1.57842C8.32251 3.04036 6.86058 4.50229 5.39864 5.96801C5.11459 6.25207 4.88735 6.25207 4.60708 5.9718C3.12999 4.49472 1.6567 3.01763 0.179613 1.54434C0.0394789 1.4042 -0.0400562 1.24892 0.0205421 1.04819C0.11144 0.741409 0.475029 0.624 0.728785 0.817157C0.774234 0.851243 0.812108 0.892905 0.853769 0.934566C2.19451 2.2753 3.53903 3.61983 4.87977 4.96057C4.91764 4.99465 4.94794 5.0401 5.00097 5.10449Z" fill="white"/>
</svg>
