<svg width="1600" height="1170" viewBox="0 0 1600 1170" fill="none" xmlns="http://www.w3.org/2000/svg">
<g opacity="0.2" clip-path="url(#clip0_921_63)">
<path d="M438.23 675.297C416.399 671.622 395.868 660.511 378.869 643.201C345.352 609.139 330.457 556.586 342.657 515.387C347.985 491.979 372.532 485.202 422.244 493.57C448.916 498.059 479.749 506.263 512.405 515.013C546.666 524.177 582.13 533.592 614.565 539.099L615.171 539.201C668.653 548.203 702.477 544.327 721.577 526.969C744.4 506.266 768.49 489.125 793.241 476.019C848.529 446.715 909.583 436.609 969.862 446.756C992.531 450.571 1015.19 457.257 1037.27 466.571C1103.68 494.638 1160.36 543.22 1192.76 599.821C1220.9 649.053 1225.5 696.524 1204.18 717.959C1184.82 737.426 1140.25 744.565 1090.63 736.213C1044.97 728.527 997.03 708.496 952.007 678.239C919.635 651.595 852.313 604.81 764.804 590.08C677.295 575.351 592.841 597.641 518.952 657.259C491.581 673.703 464.42 679.801 438.214 675.39L438.23 675.297ZM421.947 495.338C373.398 487.166 349.449 493.517 344.394 515.871C332.335 556.519 347.022 608.32 380.128 641.977C396.887 659.008 417.108 669.971 438.519 673.576C464.307 677.916 491.018 671.934 517.962 655.752C592.13 595.895 675.32 573.152 765.109 588.266C854.899 603.379 920.654 650.092 953.111 676.798C997.84 706.814 1045.56 726.76 1090.94 734.399C1140 742.657 1183.96 735.703 1202.92 716.646C1223.66 695.784 1218.97 649.158 1191.19 600.656C1159.01 544.381 1102.67 496.094 1036.57 468.175C1014.63 458.885 992.055 452.261 969.572 448.477C909.713 438.401 849.046 448.476 794.076 477.595C769.434 490.624 745.453 507.687 722.739 528.313C703.188 546.074 668.907 550.112 614.819 541.008L614.213 540.906C581.677 535.429 546.229 525.922 511.913 516.797C479.296 508.101 448.518 499.858 421.939 495.384L421.947 495.338Z" fill="#C1C1C1"/>
<path d="M432.801 683.665C408.829 679.63 386.499 667.259 368.224 647.868C330.649 608.052 315.844 547.284 334.549 509.525C343.599 487.892 371.598 482.222 425.174 491.24C450.542 495.51 478.762 502.461 508.642 509.787C539.809 517.425 572.032 525.337 602.148 530.406C607.082 531.237 611.892 531.951 616.423 532.618C669.931 540.045 705.72 534.73 725.87 516.256C751.902 492.41 776.109 475.145 799.756 463.48C804.5 461.169 809.517 458.951 815.154 456.742C819.354 455.105 822.825 453.823 825.969 452.773C827.949 452.102 829.929 451.43 831.854 450.798C834.735 449.895 837.708 449.008 840.976 448.075C843.787 447.304 846.589 446.579 849.392 445.855C853.141 444.907 856.968 444.068 860.779 443.322C862.316 443.007 863.9 442.699 865.429 442.43C869.232 441.731 873.222 441.063 877.483 440.488C880.378 440.066 883.304 439.745 886.277 439.432C901.877 437.752 917.335 437.483 932.24 438.509C942.125 439.216 952.118 440.42 961.986 442.081C990.38 446.86 1018.5 455.517 1045.49 467.81C1115.07 499.474 1173.47 549.781 1205.72 605.877C1234.07 655.288 1238.6 703.178 1217.23 728.002C1198.97 749.186 1158.76 756.914 1109.56 748.632C1084.98 744.495 1059.21 736.618 1032.9 725.156C1008.51 714.496 983.905 700.88 959.719 684.752C922.913 655.161 863.98 617.395 791.739 605.235L790.622 605.047C686.052 587.877 591.993 609.22 511.168 668.532C484.537 682.852 458.169 687.935 432.708 683.649L432.801 683.665ZM424.876 493.008C372.231 484.147 344.87 489.445 336.193 510.28C317.768 547.513 332.389 607.388 369.521 646.699C387.557 665.811 409.537 677.979 433.09 681.944C458.179 686.167 484.152 681.161 510.309 667.095C591.46 607.552 685.923 586.085 791.004 603.342L792.121 603.53C864.735 615.752 923.924 653.704 960.862 683.366C984.869 699.416 1009.4 712.923 1033.7 723.567C1059.88 734.959 1085.55 742.821 1109.94 746.926C1158.49 755.098 1198.14 747.61 1215.99 726.883C1236.82 702.64 1232.26 655.51 1204.28 606.782C1172.25 551.059 1114.14 500.992 1044.87 469.477C1017.97 457.246 990.035 448.62 961.781 443.864C952.006 442.219 942.06 441.023 932.222 440.324C917.417 439.268 902.052 439.552 886.553 441.201C883.627 441.522 880.748 441.851 877.806 442.265C873.545 442.839 869.61 443.469 865.806 444.168C864.277 444.437 862.74 444.753 861.157 445.06C857.392 445.814 853.565 446.653 849.862 447.609C847.068 448.287 844.312 449.019 841.502 449.79C838.241 450.676 835.268 451.563 832.434 452.474C830.462 453.099 828.536 453.732 826.549 454.45C823.404 455.499 820.035 456.75 815.834 458.388C810.251 460.558 805.243 462.729 800.591 465.056C777.053 476.644 753.002 493.839 727.086 517.562C706.54 536.399 670.247 541.869 616.179 534.347C611.594 533.719 606.792 532.958 601.858 532.128C571.649 527.043 539.38 519.123 508.212 511.485C478.333 504.159 450.151 497.262 424.83 493L424.876 493.008Z" fill="#C1C1C1"/>
<path d="M427.728 692.189C401.522 687.778 377.263 674.078 357.624 652.543C315.381 606.343 301.153 538.161 326.496 503.624C343.04 478.133 390.276 482.447 429.515 489.052C452.882 492.985 478.023 498.605 504.63 504.614C531.936 510.741 560.203 517.126 587.107 521.655C598.465 523.566 608.659 524.995 618.342 526.051C671.496 531.888 709.181 524.978 730.263 505.513C759.397 478.6 783.572 461.234 806.371 450.91C811.085 448.785 816.155 446.815 822.327 444.84C826.426 443.52 829.866 442.425 833.375 441.484C835.339 440.906 837.388 440.39 839.383 439.912C842.186 439.188 845.221 438.502 848.644 437.787C851.469 437.21 854.295 436.633 857.151 436.157C861.001 435.465 864.882 434.874 868.6 434.4C870.168 434.185 871.728 434.017 873.295 433.803C877.3 433.328 881.383 432.963 885.403 432.683C888.305 432.501 891.254 432.328 894.195 432.201C910.306 431.468 925.367 432.137 940.092 434.233C943.226 434.665 946.345 435.19 949.464 435.715C985.538 441.787 1020.69 453.062 1053.87 469.221C1127.84 505.212 1186.41 555.93 1218.79 612.097C1247.38 661.787 1251.84 710.096 1230.35 738.248C1212.92 761.054 1175.59 769.508 1127.93 761.485C1101.26 756.996 1072.57 747.717 1042.63 733.922C1018.42 722.766 993.112 708.459 967.5 691.421C932.514 663.81 877.108 628.696 811.709 617.688C805.239 616.599 798.683 615.734 792.267 615.181C679.167 604.899 584.743 626.133 503.53 680.069C477.818 692.343 452.336 696.427 427.713 692.282L427.728 692.189ZM429.218 490.82C371.685 481.136 340.43 485.396 327.953 504.635C303.046 538.575 317.205 605.741 358.876 651.366C378.281 672.575 402.184 686.119 427.972 690.46C452.223 694.542 477.363 690.496 502.656 678.438C584.086 624.348 678.906 603.037 792.44 613.296C798.904 613.858 805.506 614.73 812.023 615.826C877.84 626.905 933.502 662.206 968.573 689.879C994.061 706.8 1019.24 721.037 1043.4 732.186C1073.2 745.957 1101.76 755.166 1128.24 759.624C1175.25 767.537 1211.96 759.315 1228.97 737.058C1249.98 709.495 1245.49 661.947 1217.27 612.893C1185.03 557.037 1126.71 506.552 1053.09 470.716C1020.09 454.635 985.116 443.438 949.182 437.39C946.063 436.865 942.991 436.348 939.856 435.916C925.217 433.882 910.303 433.19 894.294 433.892C891.352 434.019 888.458 434.154 885.547 434.382C881.574 434.67 877.492 435.035 873.533 435.517C871.973 435.685 870.452 435.908 868.884 436.122C865.167 436.597 861.379 437.203 857.529 437.895C854.719 438.379 851.893 438.956 849.115 439.541C845.738 440.264 842.703 440.949 839.955 441.635C837.96 442.113 835.957 442.637 833.993 443.215C830.491 444.109 827.052 445.205 822.999 446.532C816.92 448.523 811.905 450.454 807.245 452.54C784.602 462.795 760.582 480.091 731.619 506.842C710.094 526.663 672.005 533.696 618.285 527.812C608.556 526.748 598.315 525.311 586.957 523.4C559.96 518.855 531.685 512.517 504.341 506.336C477.772 500.38 452.639 494.715 429.319 490.789L429.218 490.82Z" fill="#C1C1C1"/>
<path d="M422.996 700.961C394.416 696.151 368.141 681.059 347.017 657.264C300.29 604.712 286.711 528.697 318.473 497.824C340.035 474.66 390.063 479.445 436.191 487.209C456.579 490.641 477.772 494.974 500.253 499.619C522.928 504.249 546.379 509.106 569.094 512.929C588.551 516.204 605.317 518.404 620.338 519.593C673.89 523.918 712.384 515.613 734.734 494.878C757.549 473.648 784.683 450.369 813.063 438.448C817.854 436.432 823.079 434.68 829.585 433C833.397 431.967 837.146 431.019 840.903 430.312C842.89 429.881 844.97 429.465 846.996 429.089C849.713 428.589 852.616 428.121 856.388 427.607C859.229 427.224 862.069 426.841 864.949 426.513C868.853 426.069 872.741 425.719 876.466 425.485C878.065 425.371 879.609 425.296 881.154 425.221C885.111 425.026 889.201 424.901 893.314 424.924C896.138 424.921 898.955 424.964 901.818 425.015L902.144 425.07C918.61 425.354 933.608 426.969 947.99 429.964C988.336 438.526 1026.77 452.172 1062.26 470.538C1139.71 510.607 1199.96 563.043 1231.98 618.239C1260.88 668.318 1265.23 716.991 1243.58 748.369C1226.73 772.852 1191.91 782.062 1145.64 774.274C1117.43 769.526 1086.06 758.839 1052.47 742.564C1028.4 730.857 1002.44 715.866 975.389 698.012C926.304 660.038 876.677 636.661 827.802 628.434C816.491 626.53 805.093 625.425 793.935 625.174C716.587 623.446 601.539 628.434 495.915 691.466C471.238 701.857 446.72 705.05 423.027 701.062L422.996 700.961ZM435.894 488.977C390.231 481.291 340.777 476.508 319.751 499.044C288.564 529.344 302.2 604.172 348.369 656.057C369.215 679.517 395.133 694.453 423.294 699.193C446.661 703.127 470.791 699.964 495.095 689.797C601.038 626.579 716.419 621.6 793.953 623.359C805.205 623.626 816.703 624.7 828.061 626.612C877.215 634.886 927.106 658.402 976.361 696.501C1003.33 714.293 1029.19 729.268 1053.18 740.913C1086.59 757.11 1117.78 767.766 1145.84 772.491C1191.41 780.161 1225.56 771.221 1242.03 747.342C1263.3 716.522 1258.92 668.609 1230.35 619.112C1198.51 564.235 1138.52 512.032 1061.37 472.111C1026.06 453.823 987.759 440.247 947.553 431.709C933.264 428.73 918.414 427.091 902.048 426.777L901.723 426.722C898.898 426.725 896.081 426.681 893.257 426.684C889.191 426.67 885.101 426.795 881.19 426.998C879.599 427.065 878.047 427.186 876.502 427.261C872.824 427.503 868.943 427.807 865.086 428.258C862.206 428.587 859.374 428.923 856.572 429.361C852.8 429.874 849.943 430.35 847.273 430.858C845.247 431.234 843.221 431.611 841.226 432.089C837.516 432.804 833.914 433.728 830.009 434.746C823.643 436.449 818.426 438.155 813.736 440.14C785.611 451.961 758.595 475.116 735.942 496.23C713.196 517.329 674.291 525.803 620.172 521.431C605.104 520.234 588.292 518.026 568.835 514.751C546.074 510.92 522.615 506.11 499.901 501.426C477.459 496.835 456.274 492.456 435.932 489.032L435.894 488.977Z" fill="#C1C1C1"/>
<path d="M418.57 709.928C387.523 704.703 359.155 688.11 336.42 661.939C303.429 623.899 284.319 572.216 288.918 533.23C291.119 514.75 298.552 500.451 310.461 491.978C337.397 471.01 392.204 476.695 447.455 485.995C463.002 488.612 478.688 491.539 495.297 494.67C511.775 497.73 528.803 500.932 545.513 503.744C576.7 508.994 601.092 511.951 622.252 513.073C676.194 515.932 715.498 506.233 739.121 484.182C768.675 456.478 793.67 435.949 819.673 425.925C824.588 424.025 830.015 422.498 836.76 421.098C840.285 420.351 844.298 419.543 848.357 419.031C850.375 418.7 852.478 418.432 854.527 418.203C857.259 417.898 860.232 417.584 864.058 417.319C866.914 417.13 869.777 416.895 872.664 416.806C876.762 416.635 880.556 416.556 884.289 416.562C885.864 416.588 887.447 416.568 889.022 416.593C892.941 416.631 897.022 416.84 901.236 417.118C903.602 417.277 906.007 417.491 908.421 417.658L910.073 417.792C918.189 418.489 925.738 419.424 933.046 420.654C940.912 421.979 948.576 423.651 955.844 425.688C997.342 437.362 1035.99 452.909 1070.66 471.855C1152.88 516.842 1213.22 569.581 1245.11 624.373C1274.42 674.949 1278.63 723.839 1256.76 758.529C1240.18 784.781 1207.59 794.701 1162.58 787.125C1133.16 782.173 1099.44 770.086 1062.31 751.206C1038.24 738.972 1012.37 723.71 983.234 704.595C935.497 668.283 887.8 645.949 841.486 638.153C826.079 635.56 810.646 634.541 795.606 635.167C694.302 639.263 586.943 650.33 488.265 702.809C464.708 711.379 441.324 713.806 418.655 709.991L418.57 709.928ZM447.166 487.717C392.333 478.487 337.961 472.78 311.522 493.353C299.986 501.602 292.825 515.42 290.71 533.389C286.15 571.854 305.06 623.026 337.78 660.685C360.228 686.568 388.294 702.966 418.875 708.114C441.218 711.875 464.307 709.493 487.453 701.093C586.34 648.506 693.894 637.424 795.446 633.274C810.625 632.672 826.206 633.667 841.706 636.276C888.3 644.119 936.26 666.593 984.168 703.029C1013.18 722.074 1038.99 737.329 1063.03 749.508C1100.02 768.318 1133.57 780.328 1162.8 785.248C1207.06 792.699 1238.98 783.096 1255.16 757.495C1276.37 723.89 1272.01 674.449 1243.49 625.2C1211.78 570.726 1151.69 518.221 1069.74 473.327C1035.21 454.405 996.695 438.928 955.337 427.277C948.108 425.295 940.498 423.583 932.725 422.275C925.417 421.045 917.961 420.125 909.892 419.436L908.24 419.302C905.834 419.088 903.476 418.883 901.109 418.724C896.942 418.453 892.9 418.299 889.035 418.222C887.46 418.196 885.885 418.171 884.348 418.199C880.663 418.201 876.876 418.233 872.817 418.459C869.922 418.594 867.066 418.783 864.257 418.98C860.431 419.245 857.559 419.527 854.827 419.833C852.778 420.062 850.722 420.338 848.657 420.66C844.699 421.142 840.686 421.95 837.208 422.704C830.563 424.074 825.238 425.569 820.424 427.438C794.723 437.37 769.845 457.775 740.454 485.363C716.488 507.739 676.719 517.648 622.304 514.756C601.098 513.627 576.658 510.661 545.379 505.396C528.622 502.576 511.586 499.421 495.116 496.314C478.499 493.23 462.813 490.303 447.267 487.686L447.166 487.717Z" fill="#C1C1C1"/>
<path d="M414.479 719.144C380.872 713.488 350.186 695.309 325.771 666.607C289.21 623.612 269.078 565.201 276.815 524.639C280.288 506.564 289.085 493.261 302.389 486.17C337.254 466.154 399.871 474.637 478.07 487.8L501.251 491.701C544.307 498.949 586.084 505.55 624.067 506.537C677.585 507.938 718.862 496.465 743.364 473.461C770.851 447.515 797.884 423.406 826.146 413.331C831.231 411.555 836.821 410.2 843.744 409.164C847.33 408.619 851.451 408.021 855.565 407.757C857.614 407.528 859.74 407.407 861.866 407.286C865.203 407.083 868.61 407.034 871.489 406.992C874.368 406.951 877.286 406.963 880.196 407.022C884.347 407.099 888.141 407.307 891.881 407.554C893.441 407.673 895.047 407.8 896.606 407.919C900.525 408.243 904.66 408.7 908.826 409.258C910.044 409.415 911.208 409.611 912.418 409.815C914.094 410.097 915.863 410.395 917.608 410.545C931.636 411.949 946.498 415.503 963.414 421.365C1006.55 436.377 1044.29 453.303 1078.72 473.164C1165.98 523.45 1226.28 576.421 1257.91 630.499C1287.19 680.928 1291.45 731.261 1269.6 768.681C1253.13 796.818 1222.5 807.354 1178.46 799.942C1148.3 794.865 1112.37 781.401 1071.77 759.832C1048.39 747.428 1021.88 731.482 990.748 711.123C944.025 676.178 897.771 654.661 853.318 647.179C834.373 643.99 815.386 643.33 796.938 645.152C696.121 655.167 581.816 666.548 480.313 714.198C457.985 721.157 435.828 722.834 414.37 719.222L414.479 719.144ZM477.78 489.521C399.907 476.413 337.623 467.939 303.232 487.7C290.457 494.496 281.924 507.366 278.584 524.937C270.925 565.034 290.872 622.839 327.162 665.453C351.298 693.821 381.588 711.79 414.776 717.376C436.002 720.949 457.864 719.318 479.788 712.483C581.447 664.764 695.899 653.36 796.863 643.322C815.459 641.476 834.586 642.16 853.717 645.38C898.495 652.917 944.975 674.52 991.868 709.589C1022.91 729.933 1049.38 745.824 1072.72 758.173C1113.15 779.619 1148.89 793.051 1178.87 798.097C1222.11 805.376 1252.13 795.117 1268.19 767.678C1289.7 730.87 1285.43 681.158 1256.48 631.311C1225.05 577.505 1164.95 524.759 1077.95 474.613C1043.61 454.815 1005.96 437.904 962.954 422.962C946.224 417.132 931.447 413.64 917.559 412.259C915.775 412.054 913.998 411.803 912.276 411.513C911.112 411.317 909.902 411.114 908.73 410.964C904.564 410.407 900.475 409.958 896.604 409.641C895.044 409.522 893.438 409.395 891.878 409.276C888.193 408.991 884.391 408.829 880.286 408.76C877.376 408.701 874.505 408.696 871.626 408.738C868.747 408.78 865.387 408.836 862.058 408.993C859.978 409.122 857.898 409.25 855.802 409.471C851.697 409.689 847.661 410.35 844.075 410.894C837.245 411.946 831.764 413.224 826.772 415.015C798.821 424.951 771.95 448.944 744.635 474.728C719.736 498.096 678.055 509.692 624.056 508.305C585.934 507.295 544.056 500.725 500.953 493.469L477.726 489.56L477.78 489.521Z" fill="#C1C1C1"/>
<path d="M410.734 728.609C374.939 722.584 340.982 702.228 315.174 671.282C274.749 622.804 254.035 559.32 264.879 516.792C269.438 498.805 279.646 486.217 294.368 480.37C336.485 462.484 407.704 473.324 483.113 484.868C531.74 492.288 582.044 499.989 626.081 499.986C679.935 499.96 722.075 487.054 747.852 462.733C778.961 433.186 805 409.867 832.848 400.823C838.066 399.117 843.856 397.987 851.012 397.277C854.52 396.911 858.851 396.492 863.111 396.491C865.09 396.394 867.1 396.397 869.49 396.417C872.842 396.407 876.163 396.583 879.243 396.766C882.138 396.919 885.07 397.125 888.042 397.386C892.24 397.758 896.049 398.16 899.789 398.694C901.371 398.96 902.969 399.133 904.56 399.353C908.625 399.942 912.714 400.678 916.841 401.468C918.741 401.836 920.634 402.25 922.573 402.672L925.715 403.345C943.185 407.051 957.72 411.411 971.415 417.065C1017.09 436.045 1053.89 454.297 1087.26 474.458C1179.88 530.477 1240.02 583.518 1271.2 636.61C1300.9 687.637 1305.04 738.14 1282.93 778.771C1266.73 808.483 1236.9 819.921 1194.21 812.736C1163.54 807.573 1125.69 792.686 1081.72 768.443C1052.59 752.392 1022.04 732.848 998.694 717.675C952.784 683.872 907.615 663.016 864.512 655.761C842.263 652.016 820.132 651.831 798.663 655.107C781.509 657.77 763.945 660.315 746.97 662.769C654.568 676.258 559.022 690.222 472.763 725.51C451.834 730.982 430.99 731.971 410.788 728.57L410.734 728.609ZM909.165 401.851C907.536 401.577 905.907 401.302 904.317 401.083C902.734 400.816 901.136 400.643 899.592 400.431C895.899 399.905 892.089 399.503 887.939 399.139C885.013 398.886 882.081 398.679 879.186 398.527C876.106 398.344 872.777 398.214 869.479 398.185C867.136 398.173 865.126 398.17 863.147 398.267C859.221 398.276 855.581 398.573 851.196 399.031C844.187 399.717 838.498 400.817 833.428 402.499C805.929 411.459 780.052 434.662 749.069 464.039C722.942 488.731 680.398 501.76 626.063 501.801C581.878 501.827 531.528 494.118 482.815 486.636C407.686 475.139 336.708 464.292 295.002 482.008C280.847 487.615 270.996 499.785 266.578 517.222C256.03 558.555 277.085 622.862 316.518 670.12C342.047 700.732 375.609 720.879 410.985 726.833C430.953 730.194 451.511 729.205 472.137 723.825C558.497 688.507 654.144 674.512 746.639 661.039C763.614 658.585 781.14 655.985 798.332 653.377C819.956 650.031 842.32 650.255 864.755 654.031C908.138 661.334 953.532 682.275 999.659 716.211C1022.91 731.368 1053.42 750.857 1082.5 766.9C1126.25 791.058 1163.92 805.867 1194.41 810.999C1236.21 818.035 1265.46 806.93 1281.26 777.915C1303.08 737.811 1298.98 687.983 1269.57 637.484C1238.59 584.617 1178.61 531.794 1086.24 475.961C1052.97 455.815 1016.25 437.626 970.668 418.662C957.112 413.031 942.67 408.687 925.286 405.043L922.144 404.37C920.251 403.956 918.358 403.542 916.458 403.174C914.006 402.666 911.586 402.258 909.119 401.843L909.165 401.851Z" fill="#C1C1C1"/>
<path d="M407.329 738.322C368.741 731.827 332.257 709.706 304.567 676.003C261.108 623.092 239.387 553.074 252.879 509.605C258.517 491.464 270.074 479.391 286.284 474.655C332.144 460.414 401.712 469.971 475.338 480.162C527.45 487.355 581.3 494.745 627.978 493.559C682.159 492.153 725.163 477.813 752.231 452.083C781.832 423.813 809.777 397.131 839.449 388.346C844.845 386.718 850.79 385.805 858.178 385.422C862.524 385.197 866.428 385.04 870.548 385.303C872.744 385.338 874.978 385.427 877.011 385.578C880.472 385.777 883.948 386.171 886.904 386.525C889.813 386.871 892.769 387.225 895.756 387.68C899.674 388.292 903.584 388.95 907.61 389.771C909.185 390.084 910.806 390.405 912.373 390.764C916.298 391.616 920.394 392.593 924.66 393.694C926.452 394.139 928.228 394.677 930.012 395.169C931.199 395.512 932.339 395.847 933.534 396.144C951.102 400.967 965.628 406.235 979.167 412.82C1014.27 429.781 1055.53 450.553 1095.5 475.845C1195.04 538.818 1253.24 590.288 1284.18 642.814C1313.89 693.795 1318.08 745.694 1295.86 788.986C1279.6 820.745 1251.26 832.72 1209.12 825.676C1177.75 820.396 1139.26 804.538 1091.4 777.154C1064.2 761.618 1035.69 743.28 1006.44 724.289C961.139 691.402 916.822 671.168 874.743 664.085C849.468 659.831 824.372 660.2 800.177 665.17C764.478 672.51 728.098 678.778 692.897 684.862C612.538 698.751 536.626 711.81 464.994 736.977C445.542 741.071 426.172 741.542 407.321 738.369L407.329 738.322ZM899.989 390.115C898.453 389.857 896.964 389.606 895.474 389.355C892.487 388.9 889.578 388.554 886.668 388.208C883.759 387.862 880.283 387.468 876.869 387.276C874.836 387.125 872.648 387.044 870.452 387.009C866.378 386.754 862.521 386.919 858.23 387.105C851.036 387.473 845.191 388.355 839.951 389.913C810.722 398.629 782.9 425.142 753.471 453.249C726.069 479.257 682.7 493.775 628.037 495.196C581.259 496.412 527.277 488.953 475.11 481.799C401.663 471.685 332.289 462.113 286.779 476.27C271.128 480.812 259.974 492.475 254.531 510.027C241.211 553.046 262.816 622.327 305.919 674.795C333.33 708.164 369.465 730.083 407.634 736.508C426.253 739.642 445.382 739.178 464.539 735.13C536.21 710.018 612.184 696.874 692.636 683C727.79 676.908 764.171 670.64 799.823 663.292C824.22 658.261 849.557 657.884 875.018 662.17C917.376 669.3 961.91 689.666 1007.43 722.685C1036.6 741.614 1065.1 759.952 1092.26 775.48C1139.94 802.74 1178.26 818.519 1209.4 823.761C1250.64 830.703 1278.41 819.013 1294.29 788.052C1316.18 745.326 1312.04 694.009 1282.62 643.556C1251.88 591.302 1193.84 539.956 1094.56 477.17C1054.63 451.932 1013.45 431.222 978.397 414.269C964.943 407.747 950.557 402.502 933.073 397.741C931.887 397.398 930.692 397.101 929.552 396.766C927.768 396.274 926.03 395.79 924.246 395.299C920.027 394.206 915.884 393.221 912.006 392.377C910.431 392.064 908.817 391.697 907.243 391.384C904.838 390.884 902.417 390.476 900.043 390.077L899.989 390.115Z" fill="#C1C1C1"/>
<path d="M404.261 748.284C362.741 741.296 323.56 717.285 293.927 680.624C247.727 623.519 224.891 547.046 240.789 502.642C247.39 484.185 260.321 472.486 278.174 468.793C327.047 457.977 394.607 466.383 466.062 475.252C522.187 482.211 580.227 489.445 629.863 486.891C684.373 484.105 728.194 468.324 756.591 441.239L756.87 440.999C790.264 408.965 816.694 383.607 846.031 375.674C851.652 374.133 857.799 373.445 865.318 373.419C869.532 373.41 873.644 373.433 877.911 373.96C880.138 374.095 882.342 374.37 884.452 374.63C885.763 374.803 887.074 374.976 888.424 375.203L891.077 375.649C892.194 375.837 893.312 376.025 894.475 376.221C896.911 376.536 899.363 377.044 901.806 377.599L903.466 377.974C907.764 378.889 911.627 379.826 915.389 380.794L915.808 380.865C917.266 381.301 918.732 381.692 920.19 382.129C924.169 383.229 928.179 384.43 932.53 385.88C934.206 386.449 935.927 387.026 937.603 387.595C938.867 388.047 940.139 388.453 941.403 388.905C959.071 394.845 973.526 401.106 986.931 408.482C1023.42 428.594 1064.73 451.336 1103.81 477.1C1182 528.681 1259.61 585.187 1297.22 648.933C1327.48 700.628 1331.52 752.597 1308.94 799.13C1292.74 832.526 1264.92 845.402 1223.72 838.468C1192.26 833.172 1152.17 815.946 1101.15 785.78C1077.16 771.6 1052.43 755.571 1026.28 738.633L1014.24 730.818C968.831 698.295 926.399 679.096 884.506 672.044C856.345 667.304 828.501 668.359 801.75 675.148C747.045 689.049 692.089 699.032 638.904 708.74C574.952 720.415 514.61 731.405 457.292 748.312C439.425 751.237 421.624 751.207 404.308 748.292L404.261 748.284ZM888.119 377.017C886.815 376.798 885.512 376.579 884.247 376.414C882.137 376.154 879.926 375.925 877.753 375.751C873.525 375.279 869.467 375.217 865.3 375.234C857.928 375.237 851.967 375.956 846.502 377.428C817.607 385.292 791.356 410.441 758.133 442.312L757.846 442.598C729.162 469.97 684.976 485.929 629.985 488.73C580.209 491.26 522.114 484.065 465.897 477.09C394.535 468.236 327.161 459.862 278.59 470.586C261.389 474.101 248.902 485.444 242.503 503.266C226.8 547.08 249.513 622.862 295.356 679.525C324.718 715.805 363.504 739.606 404.605 746.524C421.735 749.408 439.35 749.406 456.923 746.527C514.232 729.667 574.629 718.638 638.627 706.971C691.758 697.302 746.722 687.272 801.326 673.402C828.325 666.559 856.41 665.497 884.804 670.276C926.976 677.375 969.625 696.706 1015.2 729.353L1027.2 737.115C1053.36 754.053 1078.1 770.034 1102.04 784.207C1152.84 814.241 1192.74 831.435 1224.02 836.7C1264.33 843.485 1291.57 830.942 1307.35 798.336C1329.65 752.33 1325.6 700.981 1295.68 649.822C1258.25 586.395 1180.86 530.068 1102.83 478.611C1063.8 452.855 1022.49 430.113 986.091 410.063C972.732 402.695 958.354 396.543 940.826 390.626C939.562 390.174 938.29 389.768 937.026 389.316C935.351 388.747 933.637 388.124 931.954 387.601C927.649 386.159 923.639 384.958 919.706 383.865C918.24 383.475 916.774 383.085 915.355 382.702L914.936 382.632C911.236 381.578 907.365 380.688 903.161 379.788L901.501 379.413C899.096 378.913 896.699 378.366 894.31 378.059C893.146 377.863 892.021 377.722 890.857 377.526L888.204 377.079L888.119 377.017Z" fill="#C1C1C1"/>
<path d="M401.576 758.55C357.03 751.052 315.027 725.035 283.319 685.345C233.782 623.325 210.333 541.964 228.678 496.106C236.265 477.193 250.584 465.776 270.081 463.125C321.037 455.578 386.007 462.877 454.833 470.587C515.714 477.438 578.714 484.501 631.805 480.472C686.589 476.344 731.281 459.083 760.96 430.635L764.1 427.623C797.245 395.643 823.465 370.393 852.63 363.197C858.468 361.788 864.731 361.263 872.436 361.555C876.424 361.748 880.7 361.941 885.075 362.678L885.308 362.717C887.418 362.976 889.691 363.407 891.933 363.736L892.818 363.885C895.471 364.332 898.093 364.965 900.854 365.621L902.142 365.933C905.78 366.785 908.534 367.488 911.187 368.221C915.398 369.361 919.315 370.546 923.17 371.817C924.76 372.324 926.389 372.885 927.971 373.439C931.911 374.772 936.06 376.283 940.364 378.013C942.024 378.675 943.683 379.337 945.335 380.045C946.638 380.552 947.933 381.105 949.228 381.658C966.98 388.808 981.433 395.93 994.744 404.151C1002.89 409.206 1011.14 414.231 1019.38 419.302C1050.06 438.102 1081.81 457.609 1112.15 478.409C1195.15 535.297 1272.73 591.655 1310.31 655.059C1340.66 706.77 1344.75 760.135 1322.07 809.282C1305.92 844.362 1278.38 858.099 1237.98 851.298C1206.1 845.931 1165.73 827.845 1110.9 794.407C1091.32 782.452 1071.31 769.418 1050.12 755.661C1040.84 749.649 1031.48 743.529 1021.98 737.432C976.983 705.6 935.062 686.774 893.822 679.832C862.914 674.63 832.508 676.402 803.325 685.125C729.176 707.332 656.012 720.279 585.3 732.874C537.734 741.326 492.784 749.31 449.585 759.693C433.418 761.613 417.309 761.198 401.622 758.557L401.576 758.55ZM892.512 365.7L891.675 365.559C889.44 365.183 887.253 364.815 885.049 364.539L884.77 364.492C880.488 363.772 876.313 363.547 872.363 363.409C864.852 363.101 858.69 363.595 853.047 364.99C824.34 372.023 798.282 397.158 765.316 428.928L762.176 431.94C732.155 460.713 687.152 478.114 631.888 482.256C578.657 486.262 515.564 479.183 454.582 472.363C385.895 464.677 321.073 457.354 270.311 464.886C251.451 467.453 237.629 478.475 230.291 496.761C212.133 542.076 235.522 622.66 284.702 684.238C316.131 723.594 357.747 749.354 401.873 756.782C417.42 759.399 433.343 759.782 449.215 757.908C492.368 747.517 537.318 739.534 584.93 731.089C655.588 718.533 728.659 705.571 802.754 683.402C832.193 674.578 862.886 672.807 894.026 678.049C935.546 685.037 977.692 703.949 1022.91 735.913C1032.36 742.002 1041.77 748.13 1051.05 754.142C1072.23 767.946 1092.2 780.925 1111.78 792.88C1166.39 826.186 1206.58 844.195 1238.23 849.522C1277.75 856.174 1304.61 842.754 1320.43 808.48C1342.83 759.86 1338.79 707.077 1308.78 655.902C1271.44 592.824 1193.97 536.629 1111.15 479.819C1080.86 459.027 1049.14 439.574 1018.46 420.775C1010.22 415.703 1002.02 410.687 993.826 405.623C980.6 397.464 966.24 390.358 948.62 383.278C947.318 382.771 946.022 382.218 944.727 381.666C943.068 381.003 941.416 380.295 939.756 379.633C935.491 377.958 931.388 376.454 927.448 375.121C925.82 374.56 924.23 374.053 922.648 373.499C918.839 372.236 914.969 371.059 910.757 369.919C907.74 369.076 904.753 368.334 901.806 367.647L900.518 367.334C897.803 366.686 895.181 366.053 892.621 365.623L892.512 365.7Z" fill="#C1C1C1"/>
<path d="M399.272 769.118C351.561 761.087 306.604 732.995 272.721 690.02C219.979 623.154 195.8 537.03 216.498 489.702C224.994 470.224 240.71 459.042 262.006 457.364C313.895 452.797 375.584 459.114 440.905 465.754C507.583 472.576 576.573 479.595 633.725 473.905C688.829 468.444 734.339 449.741 765.354 419.892L770.903 414.51C803.971 382.422 830.106 357.109 859.239 350.674C865.255 349.342 871.719 349.042 879.602 349.699C883.707 350.055 888.176 350.521 892.698 351.521C895.026 351.913 897.423 352.46 899.447 352.944C903.039 353.788 906.646 354.825 909.748 355.73C912.207 356.479 915.441 357.454 918.838 358.6C923.143 360.042 927.067 361.469 930.883 362.972C932.496 363.626 934.117 364.234 935.73 364.888C939.677 366.462 943.872 368.268 948.129 370.277C949.727 371.024 951.371 371.779 953.007 372.581C954.333 373.235 955.667 373.842 957 374.449C968.143 379.626 985.032 387.923 1002.45 399.898C1017.98 410.551 1033.95 421.181 1049.45 431.492C1072.91 447.115 1097.15 463.204 1120.4 479.749C1208.76 542.611 1285.11 596.896 1323.25 661.209C1354.19 713.735 1358.2 766.991 1335.04 819.504C1318.85 856.298 1291.6 870.896 1251.8 864.198C1219.63 858.784 1179.1 839.952 1120.54 803.11C1104.39 792.976 1088.07 782.19 1070.74 770.805C1057.38 762.002 1043.59 752.935 1029.68 743.991C985.013 712.789 943.518 694.274 902.743 687.41C869.229 681.769 836.292 684.359 804.801 695.134C710.585 727.36 619.935 741.813 532.235 755.806C500.706 760.834 470.947 765.585 441.832 771.067C427.536 772.106 413.236 771.469 399.272 769.118ZM888.879 352.6C885.621 352.052 882.416 351.752 879.445 351.491C871.756 350.819 865.477 351.149 859.617 352.412C830.981 358.74 805.008 383.936 772.166 415.823L766.617 421.205C735.314 451.341 689.393 470.213 633.948 475.713C576.601 481.418 507.526 474.337 440.747 467.546C375.527 460.874 313.931 454.573 262.189 459.117C241.615 460.773 226.397 471.561 218.205 490.372C197.739 537.165 221.811 622.506 274.158 688.874C307.763 731.515 352.332 759.351 399.624 767.312C413.448 769.639 427.555 770.291 441.656 769.267C470.671 763.816 500.476 759.073 532.012 753.999C619.62 739.99 710.223 725.529 804.284 693.372C836.031 682.497 869.255 679.907 903.095 685.603C944.149 692.514 985.869 711.115 1030.76 742.45C1044.67 751.393 1058.5 760.468 1071.81 769.264C1089.14 780.648 1105.47 791.388 1121.57 801.514C1179.97 838.232 1220.23 856.97 1252.2 862.352C1291.07 868.894 1317.74 854.628 1333.51 818.671C1356.37 766.732 1352.41 714.058 1321.78 662.013C1283.81 598.065 1207.64 543.858 1119.45 481.121C1096.2 464.575 1071.96 448.486 1048.55 432.871C1033.1 422.568 1017.08 411.93 1001.55 401.277C984.207 389.411 967.45 381.184 956.354 376.015C955.02 375.408 953.648 374.746 952.322 374.092C950.678 373.337 949.088 372.543 947.444 371.788C943.179 369.826 939.031 368.028 935.083 366.454C933.47 365.8 931.857 365.145 930.236 364.538C926.467 363.042 922.543 361.616 918.285 360.182C914.934 359.044 911.7 358.069 909.233 357.366C906.177 356.469 902.571 355.431 899.026 354.596C897.001 354.111 894.643 353.619 892.316 353.227C891.113 352.977 889.957 352.734 888.84 352.546L888.879 352.6Z" fill="#C1C1C1"/>
<path d="M397.354 779.943C346.292 771.349 298.258 741.063 262.075 694.687C206.213 623.038 181.343 532.204 204.255 483.383C213.668 463.294 230.834 452.308 253.882 451.595C305.131 449.695 365.208 455.357 423.305 460.83C497.138 467.804 573.515 475.014 635.637 467.385C691.014 460.582 737.387 440.446 769.74 409.195L777.465 401.692C810.564 369.417 836.684 343.911 865.847 338.15C872.087 336.904 878.707 336.822 886.768 337.844C888.738 338.08 890.701 338.362 892.749 338.707C895.449 339.162 897.892 339.716 900.181 340.341C902.492 340.826 904.819 341.504 907.014 342.113C910.621 343.151 914.29 344.39 917.446 345.543C920.921 346.798 923.852 347.866 926.636 348.956C930.902 350.631 934.833 352.298 938.742 354.104C940.339 354.851 941.983 355.606 943.627 356.362C947.62 358.23 951.815 360.323 956.088 362.526C957.716 363.374 959.336 364.269 960.965 365.117C962.283 365.817 963.64 366.572 965.004 367.28C976.123 373.171 992.932 382.507 1010.35 395.629C1032.14 412.025 1054.72 428.026 1076.53 443.514C1093.76 455.744 1111.63 468.418 1128.8 481.067C1135.06 485.661 1141.23 490.24 1147.37 494.719C1233.03 557.653 1300.68 607.316 1336.39 667.343C1367.49 719.994 1371.47 774.584 1348.23 829.618C1331.98 868.125 1304.96 883.624 1265.58 876.996C1226.2 870.368 1174.38 840.161 1130.38 811.752C1117.04 803.143 1103.66 794.193 1089.46 784.721C1072.63 773.516 1055.25 761.882 1037.53 750.574C993.15 719.9 951.934 701.719 911.531 694.918C875.457 688.846 840.082 692.269 806.415 705.166C691.618 749.047 579.317 763.588 480.235 776.383C464.285 778.435 449.213 780.395 434.171 782.456C421.801 782.862 409.503 781.988 397.447 779.959L397.354 779.943ZM892.359 340.459C890.357 340.123 888.394 339.84 886.47 339.612C878.642 338.629 872.162 338.735 866.123 339.919C837.504 345.58 811.508 370.916 778.634 402.989L770.956 410.5C738.316 442.038 691.578 462.352 635.859 469.193C573.543 476.837 497.073 469.611 423.147 462.622C365.096 457.157 305.121 451.463 253.965 453.379C231.639 454.07 215.055 464.723 205.899 484.138C183.228 532.378 207.991 622.428 263.505 693.588C299.408 739.63 347.008 769.651 397.652 778.175C409.614 780.189 421.827 781.001 433.948 780.649C448.944 778.58 464.009 776.666 479.966 774.567C578.956 761.757 691.108 747.238 805.75 703.428C839.72 690.438 875.39 686.969 911.79 693.095C952.426 699.935 993.858 718.249 1038.46 749.009C1056.18 760.317 1073.56 771.95 1090.39 783.156C1104.59 792.628 1117.97 801.578 1131.32 810.187C1175.13 838.518 1225.44 868.373 1265.84 875.174C1304.24 881.638 1330.67 866.518 1346.53 828.901C1369.54 774.403 1365.57 720.34 1334.76 668.217C1299.24 608.509 1231.72 558.915 1146.18 496.097C1140.09 491.627 1133.86 487.087 1127.61 482.445C1110.45 469.796 1092.62 457.131 1075.34 444.893C1053.53 429.405 1030.95 413.404 1009.12 396.954C991.781 383.94 975.065 374.619 963.993 368.737C962.628 368.028 961.272 367.274 959.907 366.566C958.287 365.671 956.658 364.823 955.077 363.982C950.812 361.733 946.656 359.694 942.709 357.834C941.065 357.079 939.468 356.331 937.87 355.584C934.001 353.832 930.069 352.166 925.85 350.499C923.066 349.408 920.181 348.348 916.753 347.101C913.635 346.002 909.975 344.716 906.453 343.741C904.305 343.14 901.97 342.508 899.666 341.977C897.424 341.36 895.02 340.86 892.366 340.413L892.359 340.459Z" fill="#C1C1C1"/>
<path d="M395.817 791.072C341.31 781.897 290.021 749.341 251.477 699.362C193.479 624.196 167.4 526.604 192.044 477.165C202.381 456.418 220.96 445.574 245.806 445.833C294.297 446.101 348.33 450.985 400.578 455.665C483.566 463.127 569.34 470.818 637.596 460.873C693.239 452.775 740.429 431.198 774.134 398.451C777.398 395.269 780.608 392.125 783.755 389.066C816.955 356.474 843.161 330.743 872.463 325.58C879.169 324.412 885.904 325.067 893.057 325.793L893.849 325.926C898.046 326.298 902.142 327.274 907.548 328.997C909.976 329.645 912.427 330.441 914.513 331.127C918.321 332.39 922.175 333.947 925.084 335.155C928.488 336.541 931.52 337.865 934.319 339.149C938.631 341.119 942.617 343.034 946.532 345.08C948.114 345.921 949.742 346.769 951.417 347.625C955.418 349.734 959.612 352.114 963.884 354.604C965.497 355.545 967.055 356.525 968.714 357.474C970.063 358.275 971.451 359.131 972.846 359.94C983.941 366.544 1000.72 376.927 1018.13 391.198C1045.47 413.599 1073.88 434.791 1101.3 455.292C1113.12 464.123 1125.32 473.258 1137.12 482.229C1149.86 491.884 1162.26 501.244 1174.37 510.316C1253.28 569.625 1315.57 616.424 1349.46 673.322C1380.73 726.097 1384.72 782.03 1361.34 839.622C1345.04 879.845 1318.11 896.22 1279.06 889.647C1240.01 883.073 1188.47 852.293 1140.11 820.231C1129.22 812.991 1118.3 805.604 1106.74 797.774C1086.89 784.337 1066.36 770.402 1045.26 756.948C1001.05 726.731 960.08 708.783 920.003 702.037C879.925 695.291 843.734 699.869 807.93 714.942C671.834 772.175 542.902 783.438 429.173 793.385L426.356 793.628C416.082 793.526 405.848 792.617 395.794 790.924L395.817 791.072ZM896.592 328.11C895.615 327.946 894.591 327.773 893.598 327.702L892.806 327.569C885.785 326.913 879.151 326.227 872.685 327.387C843.974 332.459 817.892 358.02 784.925 390.364C781.777 393.422 778.568 396.566 775.296 399.795C741.311 432.782 693.756 454.537 637.771 462.672C569.322 472.633 483.455 464.926 400.373 457.449C348.172 452.777 294.186 447.9 245.741 447.64C221.663 447.367 203.621 457.87 193.587 477.951C169.223 526.863 195.249 623.632 252.852 698.302C291.125 747.9 342.019 780.246 396.06 789.342C406.021 791.019 416.162 791.913 426.242 792.03L428.958 791.818C542.539 781.894 671.278 770.646 807.164 713.521C843.271 698.356 881.301 693.944 920.215 700.494C959.128 707.044 1001.76 725.321 1046.15 755.662C1067.2 769.108 1087.79 783.004 1107.63 796.488C1119.19 804.318 1130.06 811.697 1140.96 818.891C1189.14 850.828 1239.25 881.319 1279.19 888.041C1317.82 894.544 1343.32 878.981 1359.51 839.123C1382.66 782.065 1378.68 726.613 1347.75 674.374C1313.99 617.834 1251.83 571.104 1173.1 511.92C1161.03 502.855 1148.58 493.487 1135.85 483.832C1124 474.853 1111.8 465.719 1100.03 456.895C1072.57 436.34 1044.16 415.148 1016.82 392.747C999.442 378.531 982.759 368.163 971.75 361.621C970.354 360.812 968.966 359.957 967.617 359.155C966.013 358.168 964.4 357.226 962.834 356.293C958.562 353.804 954.414 351.431 950.413 349.322C948.785 348.474 947.165 347.579 945.528 346.777C941.652 344.785 937.72 342.832 933.401 340.909C930.602 339.624 927.562 338.347 924.204 336.968C921.342 335.769 917.527 334.265 913.773 332.964C911.733 332.285 909.329 331.498 906.901 330.85C902.86 329.548 899.602 328.712 896.53 328.195L896.592 328.11Z" fill="#C1C1C1"/>
<path d="M394.697 802.558C336.559 792.772 281.945 757.79 240.877 704.037C179.922 624.258 153.067 521.895 179.731 470.978C190.954 449.519 210.991 438.825 237.683 440.064C280.359 441.889 326.059 445.945 370.245 449.89C465.221 458.365 563.502 467.109 639.46 454.345C695.322 444.944 743.423 421.941 778.472 387.747C782.366 383.953 786.151 380.236 789.835 376.55C823.191 343.601 849.537 317.606 878.977 313.04C885.613 312.004 892.876 312.366 900.975 314.016C905.001 314.837 909.795 315.931 914.844 317.786C917.302 318.535 919.776 319.477 921.886 320.311C925.756 321.776 929.617 323.574 932.549 324.928C936.015 326.517 939.062 328.034 941.884 329.466C946.203 331.676 950.196 333.832 954.166 336.127C955.779 337.068 957.391 338.009 959.089 339.013C963.097 341.362 967.299 343.983 971.609 346.814C973.206 347.848 974.842 348.937 976.477 350.025C977.811 350.92 979.191 351.822 980.563 352.77C997.881 364.202 1012.28 375.047 1025.79 386.937C1057.77 415.334 1091.07 441.274 1123.28 466.359C1130.69 472.103 1138.05 477.84 1145.31 483.608C1163.33 497.74 1180.75 511.103 1197.63 523.992C1271.5 580.491 1329.77 625.082 1362.39 679.519C1394.24 733.155 1398.12 788.878 1374.3 849.891C1357.9 891.866 1331.07 909.072 1292.25 902.537C1253.43 896.003 1208 868.499 1149.75 828.935C1140.99 822.963 1132.06 816.867 1123.06 810.615C1100.46 795.041 1077.12 778.961 1052.95 763.601C1008.91 733.795 968.139 716.073 928.248 709.358C888.357 702.644 847.291 707.741 809.389 725.044C666.592 790.239 532.795 800.54 418.586 805.095C410.563 804.702 402.525 803.827 394.658 802.503L394.697 802.558ZM897.698 315.283C890.902 314.139 884.85 313.981 879.246 314.856C850.349 319.322 824.22 345.162 791.051 377.855C787.375 381.494 783.582 385.258 779.689 389.052C744.359 423.487 695.941 446.675 639.737 456.114C563.53 468.932 465.156 460.172 370.033 451.72C325.893 447.783 280.24 443.735 237.571 441.864C211.639 440.657 192.185 451.018 181.312 471.818C154.937 522.162 181.738 623.703 242.307 702.938C283.103 756.311 337.33 791.036 395.002 800.743C402.822 802.059 410.767 802.918 418.643 803.335C532.565 798.779 666.167 788.493 808.654 723.437C846.867 705.995 887.203 700.679 928.537 707.637C969.871 714.594 1009.7 732.207 1053.92 762.136C1078.05 777.442 1101.42 793.576 1124.02 809.151C1133.08 815.364 1141.95 821.499 1150.71 827.471C1208.79 866.91 1255.13 894.47 1292.55 900.769C1329.98 907.069 1356.35 890.839 1372.64 849.229C1396.26 788.805 1392.45 733.571 1360.89 680.462C1328.46 626.297 1270.28 581.769 1196.57 525.44C1179.69 512.551 1162.27 499.188 1144.26 485.056C1136.94 479.328 1129.62 473.599 1122.22 467.807C1089.98 442.668 1056.67 416.728 1024.65 388.277C1011.19 376.441 996.878 365.612 979.645 354.243C978.265 353.34 976.893 352.392 975.56 351.498C973.924 350.409 972.335 349.328 970.738 348.294C966.466 345.517 962.265 342.896 958.303 340.555C956.652 339.559 954.992 338.61 953.426 337.677C949.503 335.39 945.51 333.234 941.238 331.032C938.416 329.6 935.407 328.137 931.949 326.502C929.017 325.147 925.148 323.396 921.379 321.9C919.308 321.121 916.834 320.178 914.383 319.383C909.428 317.544 904.672 316.504 900.739 315.699C899.762 315.534 898.792 315.323 897.815 315.159L897.698 315.283Z" fill="#C1C1C1"/>
<path d="M394.003 814.354C332.095 803.934 273.93 766.441 230.268 708.759C166.402 624.375 138.764 517.286 167.439 464.938C179.556 442.72 201.051 432.176 229.589 434.396C261.967 436.832 295.617 439.96 328.126 443.04C439.713 453.497 555.117 464.31 641.401 447.925C697.521 437.277 746.4 412.778 782.887 377.151C787.356 372.783 791.669 368.486 795.874 364.265C829.44 330.922 855.942 304.57 885.568 300.61C892.421 299.706 899.66 300.207 908.084 302.199C911.854 303.12 916.904 304.401 922.232 306.59C924.264 307.314 926.505 308.218 929.397 309.518C932.522 310.858 935.833 312.515 940.191 314.78C943.626 316.554 946.688 318.266 949.619 319.907C953.813 322.288 957.938 324.8 961.961 327.343C963.605 328.386 965.24 329.474 966.884 330.517C970.853 333.098 974.969 335.944 979.457 339.14C981.077 340.322 982.697 341.503 984.364 342.693C985.681 343.68 987.046 344.675 988.41 345.67C1005.7 358.149 1020.03 369.94 1033.58 382.746C1070 417.487 1108.05 448.198 1144.84 477.882L1153.69 485.018C1176.19 503.206 1197.74 519.896 1218.58 536.034C1288.67 590.27 1343.91 633.157 1375.51 685.746C1407.58 739.515 1411.47 796.58 1387.42 860.136C1370.91 903.864 1344.08 921.931 1305.49 915.436C1263.93 908.439 1210.6 873.196 1159.53 837.662C1152.67 832.873 1145.69 828.013 1138.67 823.052C1113.58 805.48 1087.69 787.294 1060.73 770.269C1016.77 740.813 976.119 723.253 936.414 716.57C893.079 709.276 850.863 715.519 810.947 735.115C662.14 808.15 525.195 817.251 410.916 816.531C405.252 816.056 399.588 815.294 394.003 814.354ZM902.24 302.794C896.282 301.791 890.897 301.65 885.805 302.324C856.762 306.239 830.439 332.381 797.106 365.478C792.901 369.698 788.541 373.988 784.073 378.355C747.352 414.23 698.163 438.868 641.693 449.601C555.161 466.04 439.617 455.203 327.929 444.777C295.412 441.743 261.77 438.569 229.392 436.133C201.615 433.946 180.741 444.211 168.975 465.771C140.633 517.553 168.173 623.812 231.698 707.66C275.127 765.016 332.858 802.244 394.3 812.586C399.839 813.519 405.456 814.273 411.027 814.732C525.065 815.459 661.723 806.357 810.212 733.508C850.493 713.734 893.05 707.453 936.758 714.81C976.696 721.532 1017.62 739.185 1061.75 768.766C1088.7 785.79 1114.64 804.031 1139.73 821.604C1146.76 826.518 1153.73 831.424 1160.58 836.213C1211.49 871.623 1264.64 906.741 1305.84 913.675C1344.01 920.1 1369.4 902.892 1385.8 859.482C1409.62 796.46 1405.74 739.923 1374.02 686.643C1342.57 634.318 1287.45 591.548 1217.54 537.39C1196.66 521.244 1175.1 504.554 1152.6 486.366L1143.75 479.23C1106.97 449.499 1068.87 418.781 1032.41 383.985C1018.91 371.233 1004.65 359.505 987.415 347.034C986.05 346.039 984.686 345.044 983.368 344.056C981.71 342.82 980.09 341.639 978.462 340.503C974.02 337.316 969.896 334.516 965.974 331.942C964.338 330.854 962.648 329.804 961.051 328.769C957.074 326.234 952.95 323.722 948.794 321.395C945.91 319.762 942.886 318.104 939.451 316.33C935.14 314.073 931.822 312.462 928.743 311.13C925.889 309.885 923.695 308.989 921.663 308.264C916.428 306.091 911.471 304.826 907.748 303.913C905.863 303.452 904.056 303.1 902.333 302.81L902.24 302.794Z" fill="#C1C1C1"/>
<path d="M393.728 826.508C327.911 815.43 266.08 775.263 219.67 713.434C152.885 624.492 124.517 512.639 155.065 458.836C168.121 435.867 191.037 425.419 221.412 428.665C236.277 430.211 251.236 431.772 266.14 433.371C402.095 447.787 542.704 462.699 643.313 441.405C700.444 429.3 748.866 404.102 787.227 366.446C792.216 361.544 797.05 356.712 801.768 352.004C835.598 318.226 862.303 291.526 892.176 288.086C899.254 287.268 906.648 287.986 915.25 290.343C920.835 291.857 925.395 293.486 929.621 295.394C931.684 296.219 933.948 297.27 936.872 298.671C940.012 300.205 943.478 302.08 947.804 304.531C951.208 306.491 954.34 308.358 957.286 310.193C961.441 312.807 965.619 315.567 969.689 318.405C971.317 319.541 972.983 320.73 974.65 321.92C978.665 324.796 982.789 327.883 987.276 331.365C988.974 332.656 990.655 334.039 992.345 335.376C993.608 336.402 994.918 337.436 996.228 338.47C1013.3 351.918 1027.63 364.616 1041.33 378.5C1081.94 419.881 1124.44 455.214 1161.98 486.413C1188.35 508.315 1213.43 527.943 1237.75 546.964C1302.17 597.328 1357.79 640.851 1388.57 692.012C1420.8 745.998 1424.71 804.358 1400.52 870.428C1383.87 915.901 1357.08 934.836 1318.64 928.365C1277.35 921.415 1226.64 887.138 1169.3 846.436C1164.17 842.797 1159 839.104 1153.74 835.349C1126.39 815.818 1098.1 795.649 1068.56 776.945C1024.64 747.83 984.101 730.434 944.49 723.766C898.827 716.08 854.437 723.297 812.546 745.24C650.669 829.95 501.433 833.011 403.24 828.014C400.051 827.621 396.878 827.134 393.759 826.609L393.728 826.508ZM907.211 290.33C901.904 289.437 897.055 289.242 892.367 289.793C863.084 293.141 836.558 319.632 803 353.216C798.282 357.925 793.448 362.757 788.459 367.658C749.818 405.554 701.125 430.946 643.652 443.089C542.748 464.429 402.037 449.548 265.943 435.109C251.039 433.509 236.127 431.956 221.215 430.403C191.585 427.281 169.252 437.397 156.592 459.715C126.378 512.953 154.702 623.937 221.045 712.373C267.176 773.868 328.619 813.779 393.972 824.779C397.044 825.296 400.217 825.782 403.312 826.16C501.219 831.157 650.175 828.049 811.625 743.602C853.881 721.481 898.667 714.187 944.702 721.936C984.546 728.643 1025.31 746.125 1069.44 775.418C1099.04 794.084 1127.37 814.307 1154.71 833.838C1159.93 837.539 1165.15 841.24 1170.27 844.925C1227.39 885.495 1277.93 919.648 1318.85 926.535C1356.88 932.936 1382.26 914.913 1398.82 869.712C1422.83 804.185 1418.93 746.305 1387.01 692.801C1356.37 641.904 1300.92 598.505 1236.62 548.258C1212.34 529.291 1187.22 509.609 1160.8 487.698C1123.26 456.5 1080.73 421.112 1040.03 379.669C1026.41 365.894 1012.13 353.203 995.093 339.81C993.783 338.776 992.473 337.742 991.21 336.716C989.528 335.333 987.839 333.996 986.141 332.705C981.692 329.277 977.615 326.199 973.6 323.322C971.934 322.132 970.314 320.951 968.686 319.815C964.663 316.985 960.484 314.224 956.368 311.666C953.422 309.83 950.336 307.971 946.933 306.011C942.653 303.568 939.187 301.693 936.086 300.214C933.209 298.82 930.983 297.824 928.92 296.998C924.741 295.098 920.266 293.532 914.774 292.033C912.168 291.308 909.631 290.737 907.211 290.33Z" fill="#C1C1C1"/>
<path d="M393.918 839.028C324.004 827.26 258.328 784.34 209.015 718.147C139.358 624.655 110.252 508.085 142.626 452.819C156.576 429.092 180.958 418.746 213.233 422.935C377.407 444.014 533.929 460.791 645.13 434.869C702.473 421.508 751.711 394.869 791.526 355.687C797.036 350.251 802.336 344.923 807.466 339.758C841.569 305.5 868.475 278.451 898.642 275.539C905.938 274.853 913.494 275.742 922.228 278.456C927.828 280.164 932.45 281.995 936.87 284.174C938.963 285.101 941.305 286.26 944.205 287.801C947.454 289.544 950.989 291.575 955.268 294.304C958.687 296.459 961.842 298.473 964.842 300.557C969.005 303.41 973.237 306.419 977.306 309.544C978.918 310.773 980.569 312.055 982.267 313.346C986.289 316.463 990.498 319.899 994.907 323.559C996.628 324.997 998.341 326.482 1000.1 327.974C1001.36 329.046 1002.6 330.165 1003.9 331.246C1020.86 345.678 1035.13 359.323 1048.95 374.185C1089.27 417.861 1132.64 455.685 1170.14 487.691C1199.93 513.136 1228.17 535.352 1255.51 556.892C1317.69 605.825 1371.31 648.103 1401.48 698.107C1433.95 752.28 1437.84 811.974 1413.46 880.549C1396.45 928.449 1370.38 947.696 1331.47 941.146C1290.5 934.251 1240.33 899.634 1178.91 855.039L1168.29 847.318C1138.78 825.845 1108.29 803.679 1076.17 783.489C1032.3 754.622 991.749 737.319 952.277 730.675C904.333 722.605 857.807 730.85 813.942 755.14C743.042 794.448 668.328 820.865 591.842 833.636C529.537 844.057 465.329 845.881 395.407 839.279L393.825 839.012L393.918 839.028ZM912.42 277.858C907.672 277.059 903.25 276.888 898.919 277.308C869.388 280.136 842.661 306.976 808.837 340.994C803.708 346.159 798.407 351.487 792.889 356.969C752.85 396.352 703.339 423.185 645.655 436.584C534.16 462.553 377.443 445.791 213.083 424.68C181.56 420.57 157.761 430.583 144.2 453.706C112.106 508.445 141.222 624.108 210.436 717.095C259.471 782.954 324.712 825.609 394.207 837.306L395.697 837.557C548.591 852.001 685.13 824.555 813.145 753.618C857.383 729.104 904.305 720.782 952.621 728.915C992.372 735.606 1033.11 752.941 1077.19 781.986C1109.3 802.176 1139.84 824.396 1169.35 845.87L1179.96 853.59C1241.22 898.015 1291.22 932.554 1331.81 939.386C1369.75 945.771 1395.18 926.895 1411.84 879.941C1436.03 811.863 1432.16 752.696 1400.03 699.012C1370.02 649.272 1316.51 607.11 1254.46 558.294C1227.16 536.809 1198.88 514.538 1169.04 489.085C1131.55 457.033 1088.13 419.201 1047.73 375.463C1033.99 360.663 1019.72 347.065 1002.85 332.695C1001.55 331.614 1000.3 330.495 999.042 329.423C997.283 327.93 995.57 326.446 993.896 325.016C989.533 321.363 985.325 317.927 981.302 314.81C979.605 313.52 977.954 312.237 976.342 311.009C972.265 307.93 968.087 304.883 963.916 302.076C960.909 300.038 957.808 297.985 954.381 295.877C950.094 293.194 946.605 291.172 943.403 289.436C940.55 287.904 938.247 286.798 936.161 285.825C931.834 283.662 927.251 281.885 921.791 280.201C918.471 279.163 915.384 278.452 912.358 277.943L912.42 277.858Z" fill="#C1C1C1"/>
<path d="M387.756 850.622C316.169 836.563 248.945 791.182 198.425 722.776C125.943 624.741 96.0447 503.493 130.299 446.725C145.104 422.185 170.999 411.95 205.165 417.127C347.123 438.534 525.638 459.156 647.143 428.318C704.698 413.701 754.792 385.675 795.967 344.952C801.998 338.981 807.718 333.15 813.306 327.536C847.736 292.758 874.899 265.322 905.36 262.938C912.88 262.338 920.584 263.491 929.511 266.477C935.126 268.379 939.818 270.365 944.385 272.808C946.51 273.835 948.874 275.142 951.797 276.831C955.116 278.729 958.658 281 962.999 283.931C966.309 286.163 969.565 288.433 972.627 290.719C976.843 293.821 981.075 297.117 985.206 300.444C986.849 301.773 988.531 303.156 990.205 304.586C994.235 307.944 998.489 311.674 1002.9 315.622C1004.73 317.27 1006.55 318.964 1008.41 320.712L1011.89 323.929C1028.47 339.16 1043.18 354.124 1056.87 369.777C1097.23 416.09 1139.22 454.401 1178.6 488.876C1211.48 517.662 1242.52 542.218 1272.56 565.98C1332.87 613.739 1385.04 655.007 1414.73 704.118C1447.86 759.261 1451.67 818.513 1426.71 890.577C1409.54 940.269 1383.43 960.323 1344.52 953.773C1300.76 946.408 1243.85 904.294 1188.77 863.541L1182.77 859.086C1151.24 835.74 1118.59 811.585 1084.08 789.94C1040.17 761.306 999.647 744.15 960.222 737.514C910.09 729.076 861.429 738.349 815.62 765.087C681.114 843.591 541.183 871.567 387.857 850.591L387.756 850.622ZM917.826 265.371C913.498 264.642 909.463 264.442 905.435 264.769C875.657 267.076 848.711 294.358 814.522 328.841C808.934 334.455 803.167 340.279 797.183 346.257C755.737 387.173 705.37 415.393 647.521 430.057C525.713 460.987 346.965 440.325 204.868 418.895C171.454 413.797 146.18 423.753 131.772 447.643C97.8522 503.845 127.752 624.233 199.846 721.723C250.096 789.749 316.932 834.873 388.007 848.846C540.961 869.759 680.495 841.86 814.629 763.58C860.764 736.61 909.821 727.26 960.418 735.777C1000.12 742.46 1040.87 759.702 1084.95 788.507C1119.5 810.16 1152.14 834.361 1183.72 857.715L1189.72 862.17C1244.63 902.799 1301.37 944.788 1344.7 952.082C1382.59 958.46 1408.08 938.731 1424.94 890.039C1449.67 818.463 1445.92 759.7 1413.09 705.038C1383.59 656.245 1331.55 615.047 1271.36 567.406C1241.33 543.643 1210.28 519.087 1177.37 490.247C1137.95 455.718 1095.91 417.352 1055.47 370.977C1041.82 355.379 1027.15 340.469 1010.6 325.292L1007.13 322.075C1005.27 320.327 1003.44 318.679 1001.61 317.032C997.245 313.092 992.983 309.408 989 306.058C987.326 304.628 985.636 303.291 984.001 301.915C979.924 298.55 975.731 295.308 971.515 292.206C968.453 289.921 965.197 287.65 961.934 285.426C957.639 282.503 954.089 280.278 950.817 278.388C947.941 276.708 945.615 275.455 943.443 274.42C938.962 272.039 934.317 270.061 928.795 268.174C924.901 266.849 921.279 265.904 917.741 265.309L917.826 265.371Z" fill="#C1C1C1"/>
<path d="M386.135 863.076C384.087 862.732 382.086 862.395 380.038 862.05C307.415 845.329 239.155 797.572 187.807 727.544C112.624 625.084 81.8869 499.149 117.789 440.84C133.394 415.525 160.623 405.324 196.558 411.373L204.331 412.681C403.74 446.246 549.225 449.252 649.044 421.845C706.756 406.01 757.667 376.542 800.342 334.301C806.831 327.882 813.018 321.555 818.963 315.522C853.673 280.218 881.14 252.402 911.856 250.491C919.547 250.016 927.553 251.363 936.526 254.644C942.071 256.678 946.995 258.99 951.67 261.643C953.865 262.825 956.307 264.241 959.214 266.022C962.594 268.122 966.199 270.595 970.555 273.721C973.88 276.146 977.151 278.611 980.274 281.098C984.545 284.448 988.784 287.985 992.915 291.599C994.589 293.029 996.247 294.552 997.913 296.028C1001.95 299.626 1006.13 303.535 1010.61 307.878C1012.55 309.736 1014.52 311.694 1016.53 313.659L1019.66 316.721C1036 332.82 1050.69 348.738 1064.58 365.477C1106.52 416.315 1149.92 457.064 1186.85 490.216C1222.53 522.203 1257.61 550.116 1288.6 574.71C1347.5 621.512 1398.42 661.948 1427.72 710.275C1461.05 765.644 1464.88 826.191 1439.73 900.807C1422.4 952.29 1396.19 973.189 1357.27 966.686C1313.98 959.399 1260.47 919.006 1198.46 872.253L1196.8 871.016C1163.28 845.759 1128.62 819.638 1091.77 796.546C1047.79 768.091 1007.29 751.036 967.821 744.392C915.455 735.577 864.752 745.894 817.045 775.087C742.659 820.603 665.41 850.421 587.457 863.663C522.218 874.738 454.474 874.531 386.096 863.022L386.135 863.076ZM196.268 413.094C161.125 407.179 134.524 417.055 119.316 441.719C83.7022 499.454 114.441 624.528 189.244 726.398C240.368 796.054 308.279 843.608 380.39 860.243C382.344 860.572 384.393 860.917 386.441 861.262C537.58 886.702 678.155 858.021 816.148 773.597C864.227 744.179 915.326 733.785 968.111 742.67C1007.82 749.353 1048.54 766.494 1092.69 795.074C1129.59 818.174 1164.29 844.302 1197.85 869.614L1199.51 870.85C1261.31 917.471 1314.65 957.694 1357.52 964.91C1395.41 971.287 1420.99 950.713 1437.96 900.222C1462.92 826.149 1459.15 766.091 1426.12 711.203C1396.97 663.14 1346.19 622.774 1287.46 576.097C1256.47 551.503 1221.34 523.582 1185.62 491.541C1148.66 458.334 1105.17 417.523 1063.19 366.631C1049.39 349.954 1034.69 334.036 1018.39 317.991L1015.27 314.929C1013.25 312.964 1011.33 311.013 1009.39 309.156C1004.91 304.813 1000.77 300.959 996.732 297.36C995.073 295.837 993.361 294.353 991.733 292.931C987.603 289.317 983.402 285.835 979.178 282.492C976.055 280.005 972.83 277.548 969.544 275.177C965.234 272.059 961.668 269.641 958.335 267.549C955.428 265.768 953.079 264.368 950.884 263.185C946.302 260.548 941.464 258.298 936.004 256.326C927.255 253.131 919.49 251.776 912.04 252.245C881.96 254.071 854.757 281.74 820.288 316.75C814.335 322.829 808.11 329.102 801.612 335.568C758.751 378.064 707.583 407.632 649.523 423.552C549.456 451.013 403.722 448.061 204.08 414.457L196.307 413.149L196.268 413.094Z" fill="#C1C1C1"/>
<path d="M400.158 878.737C390.942 877.186 381.571 875.417 372.34 873.385C298.775 854.017 229.478 803.885 177.217 732.172C99.6346 625.768 67.9266 495.363 105.072 435.35C121.572 408.703 150.54 398.412 188.948 405.69C204.122 408.531 219.265 411.271 233.974 413.747C412.343 443.771 552.649 444.278 651.004 415.333C709.726 398.041 760.01 368.037 804.775 323.612C811.731 316.697 818.322 309.96 824.679 303.471C859.763 267.655 887.447 239.397 918.551 238.03C926.458 237.687 934.666 239.259 943.77 242.897C949.331 245.125 954.371 247.6 959.147 250.509C961.457 251.855 963.969 253.426 966.767 255.284C970.256 257.594 974.007 260.331 978.239 263.627C981.502 266.137 984.788 268.796 988.059 271.547C992.251 275.076 996.498 278.853 1000.76 282.823C1002.42 284.347 1004.11 285.971 1005.8 287.595C1009.88 291.487 1014.19 295.753 1018.55 300.267C1020.59 302.38 1022.62 304.54 1024.74 306.716L1027.59 309.683C1043.74 326.612 1058.42 343.531 1072.46 361.349C1115.83 416.734 1160.9 460.108 1195.27 491.681C1233.49 526.774 1271.06 556.685 1304.24 583.083C1361.98 629.068 1411.87 668.804 1440.88 716.557C1474.45 772.159 1478.27 833.947 1452.93 911.115C1435.44 964.389 1409.14 986.134 1370.18 979.622C1327.26 972.398 1273.93 931.462 1212.26 884.097L1208.32 881.089C1175.72 856.034 1138.71 827.699 1099.64 803.277C1055.58 775 1015.03 757.983 975.556 751.339C921.049 742.164 868.249 753.563 818.692 785.22C683.856 871.372 543.051 902.837 400.244 878.8L400.158 878.737ZM185.633 406.902C149.559 400.83 122.189 411.007 106.592 436.276C69.8272 495.731 101.498 625.22 178.685 731.128C230.722 802.468 299.669 852.397 372.823 871.648C382.016 873.626 391.333 875.434 400.502 876.977C542.89 900.944 683.253 869.548 817.717 783.621C867.654 751.693 920.851 740.217 975.823 749.47C1015.53 756.153 1056.31 773.209 1100.54 801.611C1139.66 826.04 1176.67 854.422 1209.35 879.492L1213.3 882.501C1274.8 929.742 1328 970.561 1370.45 977.707C1408.39 984.092 1434.05 962.719 1451.18 910.437C1476.38 833.82 1472.58 772.466 1439.31 717.345C1410.44 669.857 1360.68 630.237 1303.07 584.322C1269.89 557.924 1232.28 528.006 1194.01 492.858C1159.56 461.223 1114.46 417.795 1071 362.3C1057 344.537 1042.37 327.673 1026.26 310.752L1023.41 307.784C1021.3 305.562 1019.27 303.402 1017.22 301.335C1012.85 296.868 1008.59 292.61 1004.51 288.717C1002.82 287.093 1001.12 285.516 999.462 283.993C995.239 280.076 990.992 276.299 986.846 272.778C983.622 270.035 980.328 267.423 977.112 264.92C972.919 261.678 969.214 258.95 965.764 256.694C962.966 254.836 960.5 253.273 958.182 251.973C953.453 249.072 948.498 246.659 943.077 244.455C934.19 240.95 926.262 239.424 918.594 239.76C888.212 241.105 860.754 269.161 825.958 304.69C819.546 311.219 813.002 317.964 806.046 324.879C761.102 369.513 710.554 399.663 651.529 417.048C552.918 446.094 412.325 445.586 233.723 415.523C219.014 413.047 203.817 410.346 188.651 407.458C187.673 407.293 186.696 407.129 185.718 406.964L185.633 406.902Z" fill="#C1C1C1"/>
<path d="M409.377 894.212C394.529 891.713 379.464 888.507 364.641 884.72C290.079 862.744 219.746 810.237 166.619 736.847C86.6445 626.452 53.9658 491.578 92.3092 429.852C108.848 403.259 137.545 392.588 175.341 398.95C177.156 399.255 178.972 399.561 180.818 399.967C204.183 404.761 227.386 409.098 249.776 412.866C418.463 441.26 554.108 439.882 652.963 408.82C711.842 390.311 762.935 358.912 809.169 312.869C816.537 305.497 823.54 298.302 830.302 291.403C865.719 255.021 893.715 226.338 925.12 225.452C933.245 225.241 941.662 226.992 950.906 230.94C956.489 233.315 961.583 236.039 966.506 239.212C968.847 240.659 971.39 242.331 974.258 244.344C977.761 246.848 981.583 249.74 985.822 253.276C989.185 256.043 992.533 258.903 995.687 261.779C999.972 265.61 1004.27 269.682 1008.45 273.831C1010.13 275.501 1011.81 277.172 1013.53 278.897C1017.66 283.084 1021.97 287.637 1026.35 292.345C1028.57 294.777 1030.78 297.255 1033.09 299.795L1035.38 302.382C1051.23 319.977 1065.88 337.85 1080.19 356.956C1114.36 402.754 1153.57 445.955 1203.54 492.882C1244.12 531.004 1284.01 562.788 1319.16 590.81C1376.01 636.119 1425.09 675.288 1453.89 722.574C1487.67 778.402 1491.51 841.486 1465.94 921.15C1448.25 976.209 1421.84 998.845 1382.84 992.279C1340.25 985.11 1287.45 943.88 1226.37 896.136L1217.99 889.606C1181.3 860.992 1145.27 833.349 1107.36 809.743C1063.23 781.598 1022.57 764.659 983.051 758.007C926.403 748.472 871.599 760.969 820.183 795.136C686.149 884.198 547.949 917.536 409.377 894.212ZM175.005 400.663C138 394.435 109.877 404.82 93.7821 430.77C55.8198 491.938 88.4146 625.888 168.04 735.795C220.936 808.859 290.927 861.117 365.125 882.983C379.855 886.755 394.873 889.952 409.675 892.444C547.781 915.69 685.531 882.467 819.185 793.676C870.981 759.238 926.227 746.672 983.34 756.285C1023.09 762.976 1063.94 779.947 1108.29 808.225C1146.28 831.892 1182.36 859.543 1219.04 888.204L1227.42 894.734C1288.28 942.346 1340.91 983.451 1383.03 990.542C1421.02 996.935 1446.77 974.717 1464.16 920.612C1489.54 841.49 1485.77 778.848 1452.3 723.503C1423.69 676.488 1374.65 637.42 1317.97 592.189C1282.78 564.113 1242.85 532.321 1202.22 494.144C1152.17 447.108 1112.88 403.845 1078.68 357.946C1064.37 338.887 1049.75 321.068 1034 303.489L1031.7 300.902C1029.4 298.362 1027.19 295.883 1024.96 293.452C1020.63 288.752 1016.37 284.207 1012.24 280.019C1010.52 278.294 1008.84 276.624 1007.21 274.961C1003.02 270.812 998.721 266.787 994.482 262.963C991.321 260.135 988.019 257.282 984.656 254.515C980.409 251.025 976.642 248.095 973.177 245.646C970.356 243.64 967.86 241.976 965.518 240.529C960.642 237.364 955.633 234.703 950.135 232.39C941.163 228.535 933.025 226.83 925.141 227.034C894.457 227.898 866.687 256.38 831.51 292.467C824.741 299.414 817.746 306.561 810.37 313.98C763.911 360.225 712.608 391.731 653.426 410.333C554.315 441.496 418.383 442.873 249.463 414.44C227.027 410.664 203.824 406.328 180.412 401.526C178.558 401.166 176.797 400.822 174.982 400.516L175.005 400.663Z" fill="#C1C1C1"/>
<path d="M415.592 909.611C396.042 906.321 376.324 901.758 356.94 896.055C281.389 871.425 210.067 816.55 155.972 741.514C73.5674 627.073 40.0108 487.746 79.5054 424.3C97.6074 395.243 129.959 384.756 172.647 394.19C202.233 400.701 231.472 406.436 259.54 411.161C422.269 438.551 555.216 435.571 654.827 402.292C713.863 382.565 765.757 349.818 813.508 302.164C821.334 294.343 828.694 286.73 835.813 279.412C871.612 242.473 899.927 213.317 931.681 212.92C940.077 212.803 948.641 214.818 957.977 219.069C963.537 221.584 968.693 224.509 973.848 228.008C976.259 229.61 978.832 231.383 981.677 233.536C985.335 236.257 989.164 239.39 993.38 243.066C996.72 245.972 1000.04 249.018 1003.34 252.111C1007.59 256.175 1011.95 260.449 1016.17 264.939C1017.83 266.703 1019.55 268.474 1021.24 270.338C1025.38 274.767 1029.69 279.606 1034.06 284.601C1036.55 287.46 1039.11 290.474 1041.7 293.542L1043.14 295.22C1058.72 313.583 1073.36 332.41 1087.89 352.702C1122.69 401.574 1162.08 446.528 1211.78 494.268C1254.55 535.296 1296.63 568.836 1333.63 598.413C1389.76 643.17 1438.25 681.81 1466.87 728.778C1500.9 784.839 1504.75 849.218 1478.96 931.38C1461.12 988.183 1434.63 1011.62 1395.57 1005.04C1353.49 997.962 1301.51 956.725 1241.33 909.037C1236.81 905.454 1232.29 901.87 1227.69 898.224C1194.6 871.889 1155.84 841.635 1115.06 816.303C1070.82 788.235 1030.05 771.373 990.489 764.713C930.909 754.685 875.654 767.871 821.665 805.098C687.921 897.271 551.285 932.404 415.553 909.557L415.592 909.611ZM164.429 394.386C126.447 387.993 97.6099 398.641 81.0715 425.234C41.9115 488.113 75.4693 626.58 157.487 740.478C211.295 815.226 282.369 869.867 357.517 894.334C376.807 900.021 396.441 904.522 415.898 907.797C551.164 930.565 687.357 895.501 820.713 803.646C874.367 766.698 931.579 752.979 990.834 762.953C1030.63 769.652 1071.62 786.599 1116.09 814.753C1156.95 840.148 1195.71 870.402 1228.89 896.799C1233.49 900.445 1238.01 904.028 1242.53 907.612C1302.49 955.168 1354.36 996.241 1395.97 1003.25C1434 1009.65 1459.85 986.63 1477.38 930.78C1502.99 849.161 1499.2 785.224 1465.43 729.637C1437.01 682.94 1388.6 644.363 1332.64 599.73C1295.55 570.138 1253.48 536.55 1210.66 495.469C1160.84 447.658 1121.42 402.603 1086.53 353.67C1072.04 333.385 1057.44 314.612 1041.91 296.304L1040.46 294.626C1037.87 291.558 1035.35 288.598 1032.87 285.693C1028.51 280.651 1024.23 275.913 1020.09 271.484C1018.39 269.667 1016.68 267.849 1015.01 266.132C1010.78 261.688 1006.47 257.422 1002.23 253.358C998.963 250.273 995.647 247.227 992.346 244.375C988.176 240.707 984.34 237.621 980.728 234.908C977.922 232.809 975.356 230.989 972.984 229.442C967.915 226.005 962.844 223.142 957.377 220.643C948.258 216.524 939.973 214.555 931.864 214.674C900.832 215.048 872.789 244.011 837.239 280.609C830.112 287.974 822.76 295.54 814.926 303.407C766.997 351.271 714.885 384.173 655.553 403.945C555.687 437.325 422.406 440.297 259.444 412.867C231.329 408.135 202.037 402.438 172.458 395.881C169.782 395.287 167.137 394.794 164.577 394.363L164.429 394.386Z" fill="#C1C1C1"/>
<path d="M419.705 924.992C396.152 921.028 372.447 915.124 349.225 907.483C272.716 880.299 200.311 823.042 145.357 746.283C60.5611 627.851 25.9948 483.999 66.7337 418.849C85.66 388.591 119.602 378.037 164.5 388.561C199.221 396.702 233.385 403.601 266.061 409.101C424.881 435.833 556.255 431.393 656.722 395.865C716.723 374.674 767.92 341.523 817.831 291.553C826.069 283.274 833.834 275.252 841.311 267.515C877.491 230.018 906.124 200.389 938.226 200.482C946.793 200.489 955.558 202.73 965.042 207.244C970.531 209.891 975.974 213.103 981.144 216.797C983.632 218.507 986.229 220.428 989.058 222.674C992.778 225.597 996.622 228.923 1000.89 232.847C1004.21 235.894 1007.55 239.087 1010.9 242.475C1015.2 246.787 1019.56 251.347 1023.84 256.04C1025.49 257.896 1027.23 259.815 1028.96 261.734C1033.14 266.457 1037.46 271.537 1041.83 276.819C1044.82 280.431 1047.78 284.136 1050.91 288.012C1065.98 306.816 1081.04 327.148 1095.59 348.449C1130.99 400.339 1170.56 447.093 1220.07 495.617C1264.9 539.525 1309.05 574.706 1347.91 605.744C1403.45 650.019 1451.43 688.286 1479.95 734.952C1514.26 791.3 1518.1 856.966 1492.07 941.626C1474.06 1000.27 1447.39 1024.53 1408.2 1017.93C1366.21 1010.87 1314.41 969.088 1254.5 920.679C1248.89 916.147 1243.2 911.6 1237.47 906.952C1201.61 877.998 1162.9 847.752 1122.9 822.933C1078.49 794.981 1037.63 778.15 997.967 771.474C936.246 761.085 879.08 775.386 823.272 815.177C689.414 910.584 553.668 947.541 419.798 925.008L419.705 924.992ZM153.8 388.147C114.84 381.59 85.2428 392.492 68.2611 419.728C27.9033 484.32 62.4242 627.303 146.833 745.191C201.594 821.679 273.657 878.688 349.802 905.762C372.884 913.379 396.496 919.268 420.002 923.224C553.407 945.679 688.711 908.791 822.18 813.701C878.423 773.601 935.985 759.223 998.219 769.699C1038.11 776.413 1079.2 793.33 1123.83 821.414C1163.92 846.249 1202.67 876.549 1238.57 905.557C1244.3 910.159 1249.99 914.753 1255.59 919.284C1315.3 967.515 1366.97 1009.18 1408.49 1016.17C1446.61 1022.58 1472.65 998.736 1490.35 941.049C1516.57 855.8 1512.87 792.499 1478.41 735.841C1450.04 689.439 1402.19 651.243 1346.82 607.092C1307.91 576.046 1263.73 540.811 1218.86 496.848C1169.26 448.262 1129.66 401.407 1094.19 349.409C1079.67 328.162 1064.66 307.838 1049.58 289.126C1046.49 285.258 1043.48 281.546 1040.5 277.934C1036.17 272.66 1031.85 267.626 1027.66 262.903C1025.94 260.938 1024.24 259.073 1022.59 257.217C1018.35 252.532 1014.04 247.979 1009.74 243.714C1006.42 240.381 1003.03 237.179 999.764 234.141C995.534 230.271 991.69 226.945 988.008 224.076C985.179 221.83 982.629 219.917 980.133 218.253C975.002 214.614 969.699 211.425 964.248 208.833C954.989 204.404 946.495 202.257 938.177 202.196C906.835 202.136 878.435 231.517 842.55 268.681C835.073 276.417 827.309 284.44 819.063 292.765C768.927 342.936 717.52 376.196 657.263 397.487C556.547 433.068 424.777 437.586 265.725 410.814C233.002 405.306 198.792 398.4 164.025 390.251C160.526 389.423 157.051 388.742 153.699 388.178L153.8 388.147Z" fill="#C1C1C1"/>
<path d="M422.435 940.332C395.298 935.764 368.087 928.505 341.525 918.818C242.257 880.675 174.332 806.469 134.765 750.911C47.5382 628.434 12.0555 480.074 53.992 413.212C73.6963 381.745 109.33 371.093 156.384 382.745C195.588 392.406 234.01 400.452 270.596 406.611C426.716 432.889 557.269 427.066 658.687 389.306C737.689 359.878 789.853 313.302 822.27 280.817C830.912 272.128 838.98 263.726 846.806 255.618C883.422 217.524 912.374 187.423 944.887 187.919C953.756 188.121 962.684 190.532 972.26 195.35C977.773 198.144 983.277 201.558 988.633 205.57C991.23 207.49 993.943 209.573 996.671 211.851C1000.37 214.913 1004.27 218.441 1008.64 222.621C1011.97 225.862 1015.38 229.257 1018.75 232.792C1022.98 237.236 1027.34 242.083 1031.75 247.133C1033.43 249.09 1035.15 251.102 1036.87 253.16C1040.98 258.015 1045.3 263.336 1049.75 269.06C1052.7 272.858 1055.72 276.765 1058.82 280.827C1073.57 300.15 1088.55 321.475 1103.44 344.173C1138.85 398.312 1179.73 448.303 1228.45 496.98C1275.25 543.708 1321.34 580.459 1361.97 612.896C1417.05 656.759 1464.61 694.715 1493.07 741.179C1528.07 798.552 1531.82 863.582 1505.19 951.871C1486.97 1012.34 1460.15 1037.44 1420.82 1030.82C1378.88 1023.76 1327.19 981.334 1267.39 932.227C1260.8 926.763 1254.06 921.275 1247.24 915.725C1211.07 886.05 1171.86 855.097 1130.67 829.648C1086.06 801.757 1045.05 784.949 1005.3 778.258C941.481 767.517 882.459 782.892 824.776 825.286C690.502 924.02 555.126 962.762 422.466 940.433L422.435 940.332ZM143.279 381.831C103.341 375.109 73.0218 386.321 55.5501 414.192C13.9948 480.496 49.4323 627.987 136.272 749.921C175.638 805.253 243.369 879.187 342.179 917.206C368.602 926.869 395.681 934.058 422.725 938.61C554.919 960.861 689.799 922.227 823.692 823.764C881.763 781.052 941.235 765.561 1005.56 776.389C1045.55 783.12 1086.79 800.013 1131.57 828.028C1172.84 853.539 1212.09 884.547 1248.31 914.23C1255.13 919.78 1261.85 925.314 1268.45 930.778C1328.09 979.714 1379.55 1022.01 1421.03 1028.99C1459.34 1035.44 1485.51 1010.76 1503.42 951.286C1529.87 863.494 1526.19 798.952 1491.44 742.053C1463.18 695.814 1415.69 658.014 1360.74 614.22C1320.06 581.775 1273.93 545.016 1227.1 498.188C1178.31 449.402 1137.33 399.349 1101.85 345.101C1087 322.458 1072.01 301.179 1057.31 281.863C1054.21 277.802 1051.19 273.848 1048.23 270.097C1043.78 264.419 1039.46 259.099 1035.39 254.252C1033.68 252.193 1031.96 250.181 1030.27 248.27C1025.9 243.229 1021.54 238.428 1017.36 233.992C1014.02 230.465 1010.62 227.069 1007.28 223.876C1003 219.758 999.093 216.229 995.443 213.175C992.753 210.952 990.095 208.83 987.491 206.956C982.22 203.007 976.801 199.655 971.373 196.923C962.022 192.191 953.373 189.826 944.783 189.672C913.031 189.208 885.765 217.536 848.038 256.83C840.212 264.938 832.144 273.341 823.494 282.076C791.007 314.692 738.618 361.47 659.267 390.983C557.593 428.843 426.697 434.704 270.252 408.371C233.619 402.205 195.15 394.151 155.947 384.49C151.626 383.428 147.329 382.513 143.232 381.823L143.279 381.831Z" fill="#C1C1C1"/>
<path d="M423.978 955.615C393.583 950.499 363.286 941.954 333.825 930.154C233.793 888.867 164.615 812.441 124.165 755.586C34.7024 628.761 -1.68128 475.8 41.3672 407.451C61.8258 374.915 99.0818 364.297 148.214 376.968C191.473 388.125 233.65 397.186 273.634 403.917C427.985 429.897 558.183 422.77 660.559 382.732C738.803 352.123 790.391 306.407 826.577 270.011C835.631 260.866 844.103 252.053 852.241 243.519C890.691 203.342 918.5 174.34 951.37 175.279C960.464 175.566 969.547 178.195 979.254 183.37C984.744 186.303 990.356 189.927 995.859 194.203C998.487 196.224 1001.22 198.455 1003.97 200.879C1007.82 204.206 1011.78 207.936 1016.04 212.24C1019.39 215.628 1022.85 219.271 1026.19 222.992C1030.43 227.677 1034.84 232.773 1039.25 238.109C1040.97 240.167 1042.67 242.272 1044.41 244.431C1048.65 249.69 1052.97 255.297 1057.35 261.153C1060.32 265.099 1063.36 269.246 1066.46 273.548C1080.84 293.336 1095.81 315.616 1111.02 339.803C1146.9 396.844 1187.95 448.681 1236.58 498.204C1285.2 547.727 1333.15 585.939 1375.52 619.675C1430.27 663.243 1477.55 700.865 1505.93 747.22C1541.29 805.035 1545.08 871.268 1518.09 961.937C1499.75 1024.25 1472.79 1050.19 1433.27 1043.54C1391.24 1036.47 1339.58 993.324 1279.73 943.347C1272.23 937.06 1264.59 930.655 1256.82 924.227C1220.24 893.861 1180.53 862.154 1138.31 836.052C1093.5 808.223 1052.39 791.4 1012.5 784.685C946.631 773.599 885.698 790.088 826.181 835.139C691.234 937.301 555.894 977.819 423.932 955.607L423.978 955.615ZM132.626 375.445C91.8042 368.574 60.786 379.955 42.8867 408.377C0.211516 476.215 36.5576 628.26 125.633 754.541C165.928 811.179 234.905 887.38 334.487 928.495C363.77 940.218 393.974 948.747 424.23 953.839C555.726 975.973 690.624 935.524 825.182 833.68C885.08 788.357 946.463 771.752 1012.84 782.925C1052.96 789.679 1094.31 806.541 1139.29 834.494C1181.65 860.62 1221.4 892.381 1258.02 922.802C1265.79 929.23 1273.42 935.634 1280.93 941.922C1340.57 991.719 1392.06 1034.74 1433.62 1041.74C1472.12 1048.22 1498.44 1022.65 1516.46 961.376C1543.27 871.203 1539.59 805.467 1504.5 748.078C1476.26 701.987 1429.12 664.435 1374.49 620.984C1332.11 587.249 1284.08 548.974 1235.37 499.389C1186.67 449.757 1145.48 397.85 1109.58 340.708C1094.4 316.575 1079.43 294.342 1065.09 274.562C1061.98 270.306 1058.99 266.167 1056.02 262.221C1051.68 256.42 1047.31 250.805 1043.12 245.554C1041.38 243.395 1039.68 241.29 1038.01 239.239C1033.6 233.903 1029.23 228.862 1024.99 224.177C1021.64 220.456 1018.23 216.867 1014.87 213.479C1010.62 209.175 1006.69 205.499 1002.89 202.181C1000.13 199.803 997.445 197.58 994.856 195.613C989.392 191.392 983.919 187.791 978.515 184.92C969.024 179.878 960.213 177.342 951.406 177.056C919.305 176.102 891.767 204.911 853.613 244.755C845.428 253.281 837.003 262.102 827.902 271.239C791.599 307.759 739.848 353.591 661.294 384.339C558.607 424.516 428.114 431.689 273.437 405.654C233.36 398.908 191.137 389.839 147.839 378.628C142.657 377.277 137.576 376.183 132.688 375.36L132.626 375.445Z" fill="#C1C1C1"/>
<path d="M424.935 970.99C391.467 965.357 358.239 955.458 326.119 941.535C224.696 896.857 154.528 818.35 113.56 760.308C21.6355 629.623 -15.719 472.193 28.5584 401.945C49.8492 368.162 88.704 357.43 140.131 371.254C187.113 383.898 232.757 393.973 275.86 401.229C429.047 427.013 559.17 418.63 662.558 376.274C740.959 344.161 793.76 296.926 831.05 259.377C840.563 249.782 849.338 240.59 857.833 231.637C896.718 190.864 924.8 161.381 958.065 162.818C967.329 163.229 976.66 166.091 986.468 171.522C991.981 174.603 997.655 178.429 1003.34 183.022C1006.04 185.199 1008.81 187.53 1011.54 190.048C1015.53 193.639 1019.64 197.679 1023.74 202.053C1027.08 205.533 1030.55 209.371 1034 213.348C1038.21 218.172 1042.62 223.555 1047.12 229.24C1048.81 231.392 1050.55 233.598 1052.31 235.904C1056.52 241.349 1060.89 247.251 1065.26 253.394C1068.29 257.588 1071.38 261.983 1074.37 266.363C1088.02 285.98 1103 309.267 1118.88 335.527C1155.31 395.772 1196.58 449.464 1244.97 499.521C1295.45 551.987 1345.34 591.676 1389.47 626.71C1443.85 669.882 1490.75 707.201 1519.12 753.362C1554.68 811.403 1558.45 878.877 1531.31 972.105C1512.76 1036.25 1485.56 1063.06 1445.86 1056.38C1403.83 1049.3 1352.18 1005.49 1292.42 954.717C1284.01 947.559 1275.37 940.268 1266.65 932.916C1231.48 903.312 1189.65 869.43 1146.14 842.682C1101.22 814.93 1059.96 798.176 1019.98 791.446C952.063 780.015 889.22 797.618 827.789 845.218C692.34 950.931 556.795 993.233 424.973 971.045L424.935 970.99ZM122.116 369.082C80.2698 362.039 48.4361 373.713 30.0779 402.871C-13.8649 472.553 23.4521 629.068 115.028 759.263C155.888 817.096 225.8 895.416 326.828 939.884C358.808 953.784 391.951 963.621 425.232 969.222C556.542 991.325 691.645 949.092 826.697 843.743C888.516 795.825 951.857 778.114 1020.28 789.631C1060.5 796.401 1101.99 813.241 1147.08 841.116C1190.67 867.927 1232.58 901.871 1267.8 931.529C1276.52 938.835 1285.1 946.164 1293.57 953.33C1353.11 1003.93 1404.59 1047.61 1446.16 1054.61C1484.79 1061.11 1511.34 1034.77 1529.62 971.629C1556.62 878.905 1552.92 811.873 1517.62 754.306C1489.44 708.416 1442.62 671.206 1388.37 628.104C1344.26 593.024 1294.27 553.319 1243.71 500.745C1195.2 450.57 1153.89 396.825 1117.39 336.424C1101.5 310.211 1086.56 286.978 1072.96 267.369C1069.96 262.989 1066.87 258.64 1063.84 254.447C1059.46 248.304 1055.09 242.448 1050.89 236.957C1049.16 234.705 1047.43 232.499 1045.73 230.347C1041.28 224.67 1036.86 219.38 1032.64 214.556C1029.2 210.579 1025.76 206.796 1022.43 203.315C1018.32 198.988 1014.25 195.002 1010.31 191.419C1007.56 188.948 1004.85 186.577 1002.15 184.448C996.582 179.97 991 176.16 985.527 173.134C975.936 167.835 966.884 165.02 957.899 164.656C925.442 163.259 897.601 192.447 859.057 232.896C850.562 241.848 841.732 251.079 832.227 260.627C794.821 298.301 741.849 345.698 663.145 377.904C559.446 420.399 428.982 428.82 275.469 402.981C232.319 395.718 186.629 385.635 139.6 372.982C133.605 371.351 127.693 370.069 122.061 369.121L122.116 369.082Z" fill="#C1C1C1"/>
<path d="M424.716 986.217C302.948 965.72 188.704 887.163 102.959 764.983C8.53416 630.385 -29.7911 468.485 15.7461 396.44C37.8693 361.409 78.4159 350.579 131.998 365.531C182.47 379.625 231.348 390.675 277.29 398.408C636.356 458.846 772.919 314.949 863.328 219.74C902.572 178.261 930.965 148.353 964.624 150.286C974.106 150.83 983.592 153.91 993.585 159.659C999.129 162.84 1004.86 166.915 1010.68 171.819C1013.37 174.088 1016.16 176.567 1019.01 179.248C1023.01 183.032 1027.18 187.275 1031.34 191.85C1034.73 195.579 1038.23 199.564 1041.69 203.735C1045.95 208.854 1050.37 214.431 1054.88 220.357C1056.61 222.609 1058.33 224.908 1060.08 227.308C1064.33 233.047 1068.69 239.237 1073.08 245.62C1076.08 249.953 1079.1 254.48 1082.19 259.163C1095.74 279.625 1110.66 303.858 1126.64 331.235C1216.41 485.24 1319.65 567.161 1402.53 632.976C1521.11 727.047 1599.49 789.186 1544.39 982.297C1525.53 1048.26 1498.15 1075.85 1458.26 1069.14C1416.18 1062.05 1364.56 1017.53 1304.8 965.938C1295.52 957.918 1286.03 949.765 1276.36 941.488C1204.4 880.19 1119.8 813.464 1027.03 797.849C957.073 786.074 892.412 804.806 829.324 855.142C692.536 964.265 556.406 1008.34 424.762 986.224L424.716 986.217ZM111.555 362.712C68.6852 355.496 36.0829 367.472 17.2191 397.358C-27.9449 468.892 10.3351 629.923 104.381 763.93C189.854 885.73 303.711 964.031 424.967 984.441C556.137 1006.52 691.77 962.558 828.17 853.751C891.646 803.098 956.812 784.212 1027.28 796.074C1120.47 811.759 1205.32 878.671 1277.45 940.14C1287.12 948.371 1296.61 956.57 1305.88 964.59C1365.45 1015.95 1416.85 1060.35 1458.46 1067.35C1497.33 1073.89 1524.07 1046.67 1542.57 981.751C1597.37 789.834 1519.37 727.952 1401.31 634.254C1318.3 568.369 1214.93 486.331 1124.97 332.008C1109.04 304.685 1094.11 280.452 1080.61 260.045C1077.52 255.362 1074.44 250.873 1071.48 246.548C1067.1 240.165 1062.73 234.022 1058.52 228.29C1056.77 225.891 1055.05 223.592 1053.33 221.339C1048.87 215.421 1044.44 209.891 1040.18 204.772C1036.75 200.655 1033.31 196.678 1029.9 192.996C1025.74 188.467 1021.61 184.232 1017.66 180.456C1014.84 177.829 1012.1 175.358 1009.41 173.135C1003.66 168.34 998.017 164.328 992.566 161.162C982.836 155.553 973.622 152.566 964.427 152.024C931.622 150.138 903.462 179.799 864.475 220.89C819.496 268.293 763.464 327.328 672.556 368.053C564.968 416.305 435.494 426.807 276.861 400.106C230.872 392.365 181.948 381.307 131.383 367.198C124.572 365.286 117.839 363.77 111.462 362.696L111.555 362.712Z" fill="#C1C1C1"/>
</g>
<defs>
<clipPath id="clip0_921_63">
<rect width="914.282" height="1616.72" fill="white" transform="translate(1668.05 268.354) rotate(99.5546)"/>
</clipPath>
</defs>
</svg>
