<svg width="390" height="291" viewBox="0 0 390 291" fill="none" xmlns="http://www.w3.org/2000/svg">
<g opacity="0.2" clip-path="url(#clip0_1098_1087)">
<path d="M111.007 167.457C105.594 166.545 100.503 163.79 96.2875 159.498C87.9762 151.051 84.2824 138.019 87.3077 127.803C88.6289 121.998 94.7161 120.318 107.044 122.393C113.657 123.506 121.303 125.54 129.401 127.71C137.897 129.983 146.691 132.317 154.735 133.683L154.885 133.708C168.147 135.94 176.535 134.979 181.271 130.675C186.931 125.541 192.904 121.291 199.042 118.041C212.752 110.774 227.892 108.268 242.84 110.784C248.461 111.73 254.081 113.388 259.556 115.698C276.023 122.657 290.078 134.705 298.114 148.74C305.092 160.949 306.232 172.72 300.945 178.036C296.145 182.863 285.093 184.634 272.788 182.562C261.465 180.656 249.577 175.689 238.412 168.186C230.385 161.579 213.69 149.978 191.99 146.325C170.29 142.672 149.347 148.2 131.025 162.984C124.237 167.062 117.502 168.574 111.004 167.48L111.007 167.457ZM106.97 122.831C94.9308 120.805 88.9921 122.38 87.7385 127.923C84.7481 138.003 88.3902 150.848 96.5998 159.194C100.755 163.417 105.77 166.136 111.079 167.03C117.474 168.106 124.098 166.623 130.779 162.61C149.171 147.767 169.8 142.127 192.066 145.875C214.332 149.623 230.637 161.206 238.686 167.829C249.778 175.272 261.61 180.218 272.864 182.112C285.03 184.16 295.932 182.436 300.632 177.71C305.776 172.537 304.612 160.975 297.723 148.947C289.745 134.993 275.772 123.019 259.382 116.095C253.942 113.792 248.343 112.149 242.768 111.211C227.924 108.712 212.88 111.211 199.249 118.431C193.138 121.662 187.192 125.893 181.559 131.008C176.711 135.412 168.21 136.414 154.797 134.156L154.647 134.131C146.579 132.773 137.789 130.415 129.279 128.152C121.191 125.996 113.559 123.952 106.968 122.843L106.97 122.831Z" fill="#C1C1C1"/>
<path d="M109.66 169.533C103.716 168.532 98.1788 165.464 93.6468 160.656C84.3293 150.782 80.6579 135.713 85.2964 126.35C87.5406 120.985 94.4836 119.58 107.769 121.816C114.06 122.875 121.058 124.598 128.467 126.415C136.196 128.309 144.186 130.271 151.654 131.528C152.878 131.734 154.071 131.911 155.194 132.076C168.463 133.918 177.338 132.6 182.335 128.019C188.79 122.106 194.793 117.825 200.657 114.932C201.833 114.359 203.077 113.809 204.475 113.261C205.517 112.855 206.377 112.537 207.157 112.277C207.648 112.11 208.139 111.944 208.616 111.787C209.331 111.563 210.068 111.343 210.878 111.112C211.575 110.921 212.27 110.741 212.965 110.561C213.895 110.326 214.844 110.118 215.789 109.933C216.17 109.855 216.563 109.779 216.942 109.712C217.885 109.539 218.874 109.373 219.931 109.23C220.649 109.126 221.375 109.046 222.112 108.969C225.98 108.552 229.813 108.485 233.509 108.74C235.961 108.915 238.439 109.214 240.886 109.625C247.927 110.811 254.901 112.957 261.593 116.006C278.847 123.858 293.329 136.332 301.326 150.243C308.356 162.496 309.479 174.371 304.181 180.527C299.653 185.78 289.68 187.697 277.48 185.643C271.385 184.617 264.996 182.664 258.471 179.821C252.424 177.178 246.321 173.802 240.324 169.802C231.197 162.464 216.583 153.099 198.669 150.084L198.391 150.037C172.461 145.779 149.136 151.072 129.094 165.78C122.49 169.331 115.951 170.591 109.637 169.529L109.66 169.533ZM107.695 122.254C94.6407 120.057 87.8556 121.371 85.704 126.537C81.1351 135.77 84.7606 150.618 93.9686 160.366C98.441 165.105 103.892 168.123 109.732 169.106C115.954 170.153 122.394 168.912 128.881 165.424C149.004 150.658 172.429 145.335 198.486 149.614L198.763 149.661C216.77 152.692 231.447 162.103 240.607 169.458C246.56 173.438 252.644 176.788 258.668 179.427C265.16 182.252 271.527 184.202 277.575 185.22C289.614 187.246 299.446 185.389 303.872 180.25C309.038 174.238 307.907 162.551 300.968 150.467C293.026 136.649 278.617 124.234 261.44 116.419C254.769 113.386 247.841 111.247 240.835 110.068C238.411 109.66 235.945 109.363 233.505 109.19C229.834 108.928 226.024 108.998 222.18 109.407C221.455 109.487 220.741 109.568 220.011 109.671C218.955 109.814 217.979 109.97 217.036 110.143C216.656 110.21 216.275 110.288 215.883 110.364C214.949 110.551 214 110.759 213.082 110.996C212.389 111.164 211.705 111.346 211.009 111.537C210.2 111.757 209.463 111.977 208.76 112.203C208.271 112.358 207.794 112.515 207.301 112.693C206.521 112.953 205.685 113.263 204.644 113.669C203.259 114.207 202.017 114.746 200.864 115.323C195.027 118.196 189.063 122.46 182.636 128.343C177.541 133.014 168.541 134.37 155.134 132.505C153.997 132.349 152.806 132.161 151.583 131.955C144.091 130.694 136.09 128.73 128.361 126.836C120.951 125.019 113.963 123.309 107.684 122.252L107.695 122.254Z" fill="#C1C1C1"/>
<path d="M108.404 171.646C101.906 170.552 95.89 167.155 91.0202 161.815C80.5448 150.358 77.0167 133.451 83.3011 124.886C87.4037 118.565 99.117 119.635 108.847 121.273C114.642 122.248 120.876 123.642 127.474 125.132C134.245 126.651 141.255 128.234 147.927 129.357C150.743 129.831 153.271 130.186 155.672 130.448C168.853 131.895 178.198 130.181 183.426 125.355C190.65 118.681 196.645 114.375 202.299 111.814C203.468 111.287 204.725 110.799 206.255 110.309C207.272 109.982 208.125 109.71 208.995 109.477C209.482 109.334 209.99 109.206 210.485 109.087C211.18 108.908 211.932 108.738 212.781 108.56C213.482 108.417 214.183 108.274 214.891 108.156C215.846 107.984 216.808 107.838 217.73 107.72C218.119 107.667 218.506 107.625 218.894 107.572C219.887 107.455 220.9 107.364 221.897 107.294C222.616 107.249 223.348 107.206 224.077 107.175C228.072 106.993 231.807 107.159 235.458 107.679C236.236 107.786 237.009 107.916 237.782 108.046C246.728 109.552 255.444 112.348 263.672 116.355C282.016 125.28 296.54 137.857 304.57 151.785C311.659 164.107 312.764 176.086 307.435 183.067C303.112 188.723 293.857 190.819 282.037 188.83C275.423 187.716 268.309 185.415 260.885 181.995C254.881 179.228 248.606 175.68 242.255 171.455C233.579 164.609 219.84 155.901 203.622 153.171C202.018 152.901 200.392 152.687 198.801 152.55C170.755 150 147.34 155.266 127.201 168.64C120.825 171.684 114.506 172.697 108.4 171.669L108.404 171.646ZM108.774 121.711C94.507 119.31 86.7563 120.366 83.6624 125.137C77.4861 133.553 80.9972 150.209 91.3305 161.523C96.1427 166.782 102.07 170.141 108.465 171.217C114.478 172.229 120.713 171.226 126.985 168.236C147.177 154.823 170.69 149.538 198.844 152.082C200.447 152.222 202.084 152.438 203.7 152.71C220.021 155.457 233.824 164.211 242.521 171.073C248.841 175.269 255.084 178.8 261.076 181.564C268.466 184.979 275.547 187.263 282.115 188.368C293.773 190.33 302.876 188.291 307.093 182.772C312.303 175.937 311.19 164.147 304.192 151.982C296.197 138.131 281.734 125.612 263.479 116.726C255.295 112.738 246.623 109.962 237.712 108.462C236.939 108.331 236.177 108.203 235.4 108.096C231.77 107.592 228.071 107.42 224.101 107.594C223.372 107.626 222.654 107.659 221.933 107.716C220.947 107.787 219.935 107.878 218.953 107.997C218.567 108.039 218.189 108.094 217.801 108.147C216.879 108.265 215.939 108.415 214.985 108.587C214.288 108.707 213.587 108.85 212.898 108.995C212.061 109.174 211.308 109.344 210.627 109.514C210.132 109.633 209.635 109.763 209.148 109.906C208.28 110.128 207.427 110.4 206.422 110.729C204.915 111.222 203.671 111.701 202.516 112.219C196.9 114.762 190.944 119.051 183.762 125.684C178.424 130.599 168.979 132.343 155.658 130.884C153.245 130.62 150.706 130.264 147.889 129.79C141.195 128.663 134.183 127.092 127.402 125.559C120.814 124.082 114.582 122.677 108.799 121.704L108.774 121.711Z" fill="#C1C1C1"/>
<path d="M107.229 173.822C100.141 172.629 93.6257 168.886 88.3874 162.986C76.8002 149.954 73.4329 131.104 81.3092 123.448C86.6559 117.704 99.0618 118.891 110.501 120.816C115.556 121.667 120.812 122.742 126.386 123.893C132.009 125.042 137.824 126.246 143.457 127.194C148.282 128.006 152.44 128.552 156.165 128.846C169.444 129.919 178.99 127.86 184.532 122.718C190.19 117.453 196.918 111.681 203.956 108.725C205.144 108.225 206.44 107.79 208.053 107.373C208.998 107.117 209.928 106.882 210.859 106.707C211.352 106.6 211.868 106.497 212.37 106.404C213.044 106.28 213.764 106.164 214.699 106.036C215.404 105.941 216.108 105.846 216.822 105.765C217.79 105.655 218.754 105.568 219.678 105.51C220.075 105.482 220.458 105.463 220.841 105.445C221.822 105.396 222.836 105.365 223.856 105.371C224.556 105.37 225.255 105.381 225.965 105.394L226.046 105.407C230.129 105.477 233.848 105.878 237.414 106.621C247.419 108.744 256.951 112.128 265.751 116.682C284.957 126.618 299.897 139.621 307.836 153.308C315.004 165.727 316.082 177.796 310.713 185.577C306.534 191.649 297.9 193.933 286.427 192.001C279.432 190.824 271.652 188.174 263.323 184.138C257.354 181.235 250.918 177.518 244.209 173.09C232.037 163.673 219.73 157.877 207.611 155.837C204.806 155.364 201.979 155.09 199.212 155.028C180.032 154.6 151.503 155.836 125.311 171.467C119.191 174.044 113.111 174.836 107.236 173.847L107.229 173.822ZM110.427 121.255C99.1034 119.349 86.8399 118.162 81.6262 123.751C73.8925 131.264 77.2738 149.82 88.7226 162.686C93.8919 168.504 100.319 172.208 107.302 173.383C113.097 174.358 119.08 173.574 125.107 171.053C151.378 155.377 179.99 154.142 199.217 154.578C202.007 154.644 204.858 154.911 207.675 155.385C219.864 157.436 232.236 163.268 244.45 172.715C251.138 177.128 257.551 180.841 263.499 183.729C271.784 187.745 279.517 190.388 286.478 191.559C297.778 193.461 306.246 191.244 310.329 185.323C315.604 177.68 314.517 165.799 307.432 153.525C299.538 139.917 284.66 126.972 265.531 117.072C256.775 112.537 247.276 109.171 237.306 107.053C233.763 106.315 230.08 105.908 226.022 105.83L225.941 105.817C225.241 105.817 224.542 105.807 223.842 105.807C222.834 105.804 221.819 105.835 220.85 105.885C220.455 105.902 220.07 105.932 219.687 105.95C218.775 106.01 217.813 106.086 216.856 106.198C216.142 106.279 215.44 106.363 214.745 106.471C213.809 106.598 213.101 106.716 212.439 106.842C211.937 106.936 211.434 107.029 210.94 107.147C210.019 107.325 209.126 107.554 208.158 107.806C206.579 108.229 205.286 108.652 204.123 109.144C197.148 112.075 190.449 117.817 184.832 123.053C179.191 128.285 169.544 130.387 156.123 129.302C152.387 129.006 148.218 128.458 143.393 127.646C137.749 126.696 131.932 125.503 126.299 124.341C120.734 123.203 115.48 122.117 110.436 121.268L110.427 121.255Z" fill="#C1C1C1"/>
<path d="M106.13 176.045C98.4308 174.749 91.3962 170.634 85.7585 164.145C77.5775 154.712 72.8385 141.895 73.9791 132.228C74.525 127.645 76.3681 124.1 79.3212 121.998C86.0007 116.799 99.5915 118.208 113.293 120.515C117.148 121.164 121.038 121.89 125.156 122.666C129.242 123.425 133.465 124.219 137.609 124.916C145.342 126.218 151.391 126.951 156.638 127.229C170.014 127.938 179.761 125.533 185.619 120.065C192.947 113.195 199.146 108.104 205.594 105.619C206.813 105.148 208.158 104.769 209.831 104.422C210.705 104.237 211.7 104.036 212.707 103.909C213.207 103.827 213.729 103.761 214.237 103.704C214.914 103.628 215.651 103.551 216.6 103.485C217.308 103.438 218.018 103.379 218.734 103.358C219.75 103.315 220.691 103.295 221.617 103.297C222.008 103.303 222.4 103.298 222.791 103.305C223.762 103.314 224.775 103.366 225.819 103.435C226.406 103.474 227.003 103.527 227.601 103.569L228.011 103.602C230.023 103.775 231.895 104.007 233.707 104.312C235.658 104.64 237.559 105.055 239.361 105.56C249.651 108.455 259.234 112.31 267.832 117.008C288.222 128.164 303.184 141.242 311.093 154.829C318.359 167.371 319.405 179.494 313.98 188.097C309.87 194.606 301.788 197.066 290.626 195.188C283.331 193.96 274.969 190.962 265.763 186.281C259.793 183.247 253.379 179.462 246.153 174.722C234.315 165.718 222.488 160.179 211.003 158.246C207.182 157.603 203.355 157.351 199.626 157.506C174.505 158.522 147.882 161.266 123.412 174.279C117.571 176.405 111.772 177.006 106.151 176.06L106.13 176.045ZM113.221 120.942C99.6236 118.653 86.1405 117.238 79.5843 122.339C76.7237 124.385 74.9481 127.811 74.4236 132.267C73.2928 141.806 77.982 154.495 86.0957 163.834C91.6624 170.252 98.6219 174.318 106.205 175.595C111.746 176.527 117.472 175.937 123.211 173.854C147.733 160.814 174.403 158.066 199.586 157.036C203.35 156.887 207.214 157.134 211.057 157.781C222.612 159.726 234.505 165.299 246.385 174.334C253.578 179.057 259.98 182.839 265.94 185.86C275.114 190.524 283.432 193.502 290.681 194.722C301.658 196.57 309.572 194.189 313.584 187.84C318.845 179.507 317.763 167.247 310.691 155.034C302.828 141.526 287.927 128.506 267.605 117.373C259.041 112.681 249.491 108.843 239.235 105.954C237.443 105.463 235.556 105.038 233.628 104.714C231.816 104.409 229.967 104.18 227.966 104.01L227.556 103.976C226.96 103.923 226.375 103.872 225.788 103.833C224.755 103.766 223.752 103.728 222.794 103.709C222.403 103.702 222.013 103.696 221.632 103.703C220.718 103.703 219.779 103.711 218.772 103.767C218.054 103.801 217.346 103.848 216.649 103.896C215.701 103.962 214.989 104.032 214.311 104.108C213.803 104.165 213.293 104.233 212.781 104.313C211.799 104.433 210.804 104.633 209.942 104.82C208.294 105.16 206.974 105.531 205.78 105.994C199.407 108.457 193.237 113.517 185.949 120.358C180.006 125.907 170.145 128.364 156.651 127.647C151.392 127.367 145.332 126.631 137.575 125.326C133.42 124.626 129.195 123.844 125.111 123.074C120.991 122.309 117.101 121.583 113.246 120.934L113.221 120.942Z" fill="#C1C1C1"/>
<path d="M105.12 178.33C96.7865 176.928 89.1772 172.42 83.1229 165.302C74.0567 154.641 69.0644 140.156 70.983 130.098C71.8442 125.616 74.0257 122.317 77.3247 120.558C85.9703 115.595 101.498 117.698 120.889 120.962L126.638 121.93C137.315 123.727 147.674 125.364 157.093 125.609C170.364 125.956 180.6 123.111 186.676 117.407C193.492 110.973 200.196 104.994 207.204 102.496C208.465 102.056 209.851 101.719 211.568 101.463C212.457 101.328 213.479 101.179 214.499 101.114C215.007 101.057 215.535 101.027 216.062 100.997C216.889 100.947 217.734 100.934 218.448 100.924C219.162 100.914 219.885 100.917 220.607 100.932C221.636 100.951 222.577 101.002 223.505 101.063C223.892 101.093 224.29 101.124 224.677 101.154C225.648 101.234 226.674 101.348 227.707 101.486C228.009 101.525 228.297 101.574 228.597 101.624C229.013 101.694 229.452 101.768 229.885 101.805C233.363 102.153 237.049 103.035 241.243 104.488C251.94 108.211 261.299 112.408 269.835 117.333C291.476 129.803 306.428 142.938 314.272 156.349C321.532 168.854 322.589 181.335 317.169 190.614C313.087 197.592 305.49 200.204 294.57 198.366C287.091 197.107 278.181 193.769 268.113 188.42C262.316 185.344 255.742 181.39 248.021 176.341C236.435 167.676 224.965 162.34 213.942 160.485C209.244 159.694 204.536 159.53 199.961 159.982C174.961 162.466 146.616 165.288 121.446 177.104C115.909 178.829 110.414 179.245 105.093 178.35L105.12 178.33ZM120.818 121.389C101.507 118.139 86.062 116.037 77.5338 120.938C74.3658 122.623 72.25 125.814 71.4216 130.172C69.5224 140.115 74.4688 154.449 83.4677 165.016C89.4529 172.051 96.9642 176.507 105.194 177.892C110.458 178.778 115.879 178.374 121.316 176.678C146.524 164.845 174.906 162.017 199.943 159.528C204.554 159.07 209.297 159.24 214.041 160.039C225.145 161.908 236.671 167.265 248.299 175.961C255.996 181.006 262.561 184.946 268.349 188.009C278.374 193.327 287.238 196.658 294.671 197.909C305.394 199.714 312.837 197.17 316.819 190.366C322.154 181.238 321.095 168.911 313.918 156.55C306.122 143.207 291.219 130.127 269.644 117.692C261.129 112.783 251.793 108.589 241.129 104.884C236.981 103.438 233.316 102.573 229.872 102.23C229.43 102.179 228.989 102.117 228.562 102.045C228.274 101.997 227.973 101.946 227.683 101.909C226.65 101.771 225.636 101.659 224.676 101.581C224.289 101.551 223.891 101.52 223.504 101.49C222.59 101.42 221.647 101.38 220.629 101.363C219.908 101.348 219.196 101.347 218.482 101.357C217.768 101.367 216.935 101.381 216.109 101.42C215.593 101.452 215.078 101.484 214.558 101.539C213.54 101.593 212.539 101.757 211.65 101.892C209.956 102.152 208.597 102.469 207.359 102.914C200.428 105.377 193.765 111.327 186.991 117.721C180.817 123.516 170.481 126.391 157.091 126.047C147.637 125.797 137.252 124.167 126.564 122.368L120.804 121.399L120.818 121.389Z" fill="#C1C1C1"/>
<path d="M104.189 180.677C95.3123 179.183 86.8918 174.135 80.4919 166.461C70.4677 154.44 65.331 138.698 68.02 128.152C69.1507 123.691 71.6821 120.57 75.3327 119.12C85.7768 114.685 103.437 117.373 122.137 120.235C134.195 122.075 146.669 123.985 157.59 123.984C170.944 123.978 181.394 120.777 187.786 114.746C195.5 107.419 201.957 101.637 208.863 99.3941C210.157 98.9712 211.593 98.6909 213.367 98.515C214.237 98.4241 215.311 98.3201 216.367 98.32C216.858 98.2958 217.357 98.2966 217.949 98.3015C218.78 98.299 219.604 98.3427 220.368 98.3882C221.086 98.426 221.813 98.4772 222.55 98.5419C223.591 98.6341 224.535 98.7338 225.463 98.8661C225.855 98.9322 226.251 98.9752 226.646 99.0297C227.654 99.1756 228.668 99.3582 229.691 99.5541C230.162 99.6453 230.632 99.7481 231.113 99.8527L231.892 100.019C236.224 100.938 239.828 102.02 243.224 103.422C254.551 108.128 263.677 112.654 271.951 117.654C294.919 131.545 309.833 144.698 317.563 157.864C324.929 170.517 325.955 183.041 320.473 193.116C316.455 200.484 309.058 203.32 298.473 201.539C290.866 200.258 281.482 196.567 270.576 190.555C263.353 186.575 255.777 181.728 249.989 177.966C238.604 169.584 227.403 164.412 216.715 162.613C211.198 161.684 205.71 161.638 200.386 162.451C196.132 163.111 191.777 163.742 187.567 164.351C164.654 167.695 140.961 171.158 119.57 179.909C114.381 181.266 109.212 181.511 104.202 180.668L104.189 180.677ZM227.788 99.649C227.384 99.581 226.98 99.513 226.585 99.4585C226.193 99.3925 225.797 99.3495 225.414 99.2969C224.498 99.1665 223.553 99.0668 222.524 98.9766C221.799 98.9138 221.071 98.8626 220.354 98.8248C219.59 98.7793 218.764 98.7472 217.947 98.74C217.365 98.7371 216.867 98.7363 216.376 98.7605C215.403 98.7627 214.5 98.8362 213.413 98.9497C211.675 99.1199 210.264 99.3926 209.007 99.8098C202.188 102.032 195.771 107.785 188.088 115.07C181.609 121.193 171.059 124.424 157.585 124.434C146.628 124.441 134.143 122.529 122.063 120.674C103.433 117.823 85.8319 115.133 75.4899 119.526C71.9798 120.917 69.5371 123.934 68.4413 128.258C65.8258 138.508 71.0468 154.455 80.8253 166.173C87.156 173.765 95.4784 178.76 104.251 180.237C109.203 181.07 114.3 180.825 119.415 179.491C140.83 170.733 164.549 167.262 187.485 163.921C191.694 163.313 196.04 162.668 200.304 162.021C205.666 161.192 211.212 161.247 216.775 162.184C227.533 163.995 238.79 169.188 250.228 177.603C255.993 181.361 263.56 186.194 270.771 190.173C281.621 196.163 290.961 199.835 298.522 201.108C308.887 202.853 316.14 200.099 320.057 192.904C325.47 182.959 324.452 170.603 317.159 158.081C309.478 144.971 294.603 131.872 271.698 118.027C263.447 113.031 254.343 108.52 243.039 103.818C239.677 102.422 236.096 101.344 231.785 100.441L231.006 100.274C230.537 100.171 230.067 100.068 229.596 99.9771C228.988 99.8511 228.388 99.7501 227.776 99.6471L227.788 99.649Z" fill="#C1C1C1"/>
<path d="M103.345 183.086C93.7758 181.475 84.7287 175.99 77.8623 167.632C67.0854 154.511 61.6992 137.149 65.0447 126.369C66.4429 121.871 69.3089 118.877 73.3286 117.703C84.7007 114.171 101.952 116.541 120.209 119.068C133.132 120.852 146.485 122.684 158.06 122.39C171.496 122.042 182.16 118.486 188.872 112.105C196.213 105.095 203.142 98.4783 210.5 96.2998C211.838 95.8962 213.313 95.6698 215.145 95.5748C216.222 95.5189 217.19 95.4801 218.212 95.5453C218.757 95.5539 219.311 95.576 219.815 95.6134C220.673 95.6629 221.535 95.7606 222.268 95.8483C222.989 95.9342 223.722 96.022 224.463 96.1348C225.435 96.2865 226.404 96.4497 227.403 96.6533C227.793 96.7309 228.195 96.8104 228.584 96.8996C229.557 97.1109 230.573 97.353 231.631 97.626C232.075 97.7364 232.515 97.8698 232.958 97.9918C233.252 98.0769 233.535 98.1601 233.831 98.2337C238.188 99.4297 241.79 100.736 245.147 102.369C253.852 106.575 264.083 111.726 273.995 117.998C298.678 133.613 313.112 146.377 320.783 159.402C328.151 172.044 329.189 184.914 323.679 195.649C319.647 203.525 312.619 206.494 302.171 204.747C294.391 203.438 284.845 199.506 272.979 192.715C266.233 188.863 259.164 184.315 251.909 179.606C240.676 171.451 229.687 166.433 219.252 164.677C212.985 163.622 206.762 163.713 200.762 164.946C191.909 166.766 182.888 168.32 174.159 169.829C154.232 173.273 135.407 176.511 117.644 182.752C112.821 183.767 108.017 183.884 103.343 183.097L103.345 183.086ZM225.513 96.7386C225.132 96.6745 224.762 96.6123 224.393 96.5501C223.652 96.4373 222.931 96.3515 222.21 96.2656C221.488 96.1798 220.626 96.0822 219.78 96.0346C219.275 95.9972 218.733 95.977 218.188 95.9684C217.178 95.9052 216.222 95.9459 215.158 95.9922C213.374 96.0835 211.924 96.3022 210.625 96.6886C203.377 98.8499 196.478 105.424 189.18 112.394C182.385 118.844 171.63 122.444 158.075 122.796C146.475 123.098 133.089 121.248 120.153 119.474C101.94 116.966 84.7366 114.592 73.4511 118.103C69.57 119.229 66.8043 122.121 65.4545 126.474C62.1514 137.142 67.5091 154.322 78.1976 167.333C84.9948 175.607 93.9555 181.043 103.42 182.636C108.037 183.413 112.781 183.298 117.532 182.294C135.304 176.067 154.144 172.807 174.094 169.367C182.812 167.857 191.833 166.302 200.674 164.48C206.724 163.232 213.007 163.139 219.321 164.202C229.824 165.97 240.868 171.02 252.154 179.208C259.388 183.902 266.457 188.449 273.191 192.3C285.015 199.06 294.517 202.973 302.239 204.272C312.466 205.994 319.352 203.095 323.291 195.417C328.718 184.823 327.691 172.097 320.396 159.586C312.773 146.628 298.381 133.896 273.761 118.326C263.859 112.068 253.649 106.932 244.956 102.728C241.62 101.111 238.052 99.8103 233.717 98.6297C233.423 98.5446 233.126 98.471 232.844 98.3878C232.401 98.2659 231.97 98.1459 231.528 98.024C230.482 97.7529 229.454 97.5088 228.493 97.2995C228.102 97.2219 227.702 97.1308 227.311 97.0532C226.715 96.9291 226.115 96.8281 225.526 96.729L225.513 96.7386Z" fill="#C1C1C1"/>
<path d="M102.583 185.557C92.2865 183.824 82.5704 177.869 75.2222 168.778C63.7657 154.618 58.1029 135.654 62.0453 124.643C63.6822 120.066 66.8887 117.165 71.3159 116.249C83.4352 113.567 100.189 115.652 117.908 117.851C131.825 119.577 146.218 121.37 158.526 120.737C172.044 120.046 182.91 116.133 189.952 109.417L190.021 109.357C198.302 101.414 204.856 95.1251 212.131 93.1581C213.525 92.7758 215.049 92.6052 216.914 92.5987C217.958 92.5966 218.978 92.6022 220.036 92.7328C220.589 92.7665 221.135 92.8347 221.658 92.8991C221.984 92.9419 222.309 92.9848 222.643 93.0411L223.301 93.1519C223.578 93.1985 223.855 93.2451 224.144 93.2937C224.748 93.3717 225.356 93.4977 225.962 93.6353L226.373 93.7283C227.439 93.9552 228.397 94.1876 229.33 94.4277L229.434 94.4451C229.795 94.5535 230.159 94.6503 230.521 94.7586C231.507 95.0314 232.502 95.3293 233.581 95.6889C233.996 95.83 234.423 95.9731 234.838 96.1142C235.152 96.2263 235.467 96.3268 235.781 96.4389C240.162 97.912 243.747 99.4645 247.071 101.294C256.119 106.281 266.363 111.92 276.053 118.309C295.443 131.1 314.688 145.112 324.015 160.92C331.519 173.739 332.519 186.626 326.921 198.165C322.904 206.446 316.005 209.639 305.789 207.92C297.987 206.607 288.047 202.335 275.394 194.855C269.446 191.338 263.314 187.364 256.828 183.163L253.842 181.225C242.582 173.16 232.06 168.399 221.672 166.651C214.689 165.475 207.784 165.737 201.15 167.42C187.585 170.868 173.957 173.343 160.768 175.75C144.91 178.645 129.946 181.371 115.733 185.563C111.302 186.289 106.888 186.281 102.594 185.559L102.583 185.557ZM222.568 93.4911C222.244 93.4367 221.921 93.3823 221.608 93.3414C221.084 93.277 220.536 93.2203 219.997 93.1771C218.949 93.0599 217.942 93.0448 216.909 93.0488C215.081 93.0496 213.603 93.2279 212.248 93.593C205.082 95.5429 198.573 101.779 190.334 109.683L190.263 109.754C183.15 116.541 172.193 120.499 158.557 121.193C146.213 121.821 131.807 120.036 117.867 118.307C100.171 116.111 83.4634 114.035 71.4191 116.694C67.1536 117.566 64.057 120.378 62.4704 124.798C58.5762 135.663 64.2085 154.455 75.5766 168.506C82.8577 177.503 92.4757 183.405 102.668 185.12C106.916 185.835 111.284 185.835 115.641 185.121C129.853 180.94 144.83 178.205 160.7 175.312C173.875 172.914 187.505 170.427 201.045 166.987C207.74 165.291 214.705 165.027 221.746 166.212C232.203 167.973 242.779 172.766 254.082 180.862L257.057 182.787C263.543 186.987 269.678 190.95 275.614 194.465C288.213 201.912 298.106 206.176 305.863 207.482C315.859 209.164 322.614 206.054 326.527 197.968C332.056 186.56 331.054 173.827 323.634 161.14C314.352 145.412 295.16 131.444 275.812 118.684C266.133 112.297 255.889 106.658 246.862 101.686C243.55 99.8584 239.984 98.3329 235.638 96.8657C235.324 96.7536 235.009 96.653 234.695 96.541C234.28 96.3998 233.855 96.2453 233.438 96.1157C232.37 95.758 231.376 95.4602 230.401 95.1892C230.037 95.0924 229.674 94.9957 229.322 94.9008L229.218 94.8833C228.3 94.6221 227.34 94.4012 226.298 94.1783L225.886 94.0853C225.29 93.9612 224.695 93.8255 224.103 93.7495C223.814 93.7009 223.535 93.6658 223.247 93.6173L222.589 93.5065L222.568 93.4911Z" fill="#C1C1C1"/>
<path d="M101.92 188.102C90.8737 186.242 80.4579 179.791 72.5951 169.949C60.3111 154.569 54.4963 134.394 59.0454 123.022C60.9269 118.332 64.4777 115.501 69.3125 114.843C81.9482 112.972 98.0592 114.782 115.126 116.694C130.224 118.393 145.846 120.144 159.011 119.145C172.596 118.122 183.679 113.841 191.039 106.787L191.817 106.04C200.036 98.1097 206.539 91.8482 213.771 90.0638C215.218 89.7142 216.771 89.5841 218.682 89.6566C219.671 89.7044 220.731 89.7524 221.816 89.935L221.874 89.9447C222.397 90.009 222.961 90.1158 223.517 90.1975L223.736 90.2344C224.394 90.3452 225.044 90.5021 225.729 90.6648L226.048 90.7423C226.951 90.9534 227.633 91.1277 228.291 91.3096C229.336 91.5922 230.307 91.8862 231.263 92.2013C231.657 92.327 232.061 92.4662 232.453 92.6034C233.43 92.934 234.459 93.3088 235.527 93.7377C235.938 93.9018 236.35 94.066 236.759 94.2418C237.082 94.3673 237.404 94.5044 237.725 94.6415C242.127 96.4147 245.711 98.1807 249.012 100.219C251.032 101.473 253.078 102.719 255.121 103.977C262.728 108.638 270.603 113.476 278.126 118.634C298.708 132.74 317.946 146.716 327.264 162.439C334.792 175.262 335.805 188.495 330.18 200.682C326.176 209.381 319.347 212.788 309.328 211.101C301.422 209.77 291.411 205.285 277.815 196.993C272.961 194.029 267.998 190.797 262.744 187.385C260.443 185.895 258.122 184.377 255.766 182.865C244.607 174.972 234.212 170.303 223.985 168.582C216.321 167.292 208.781 167.731 201.544 169.894C183.157 175.401 165.014 178.612 147.479 181.735C135.684 183.831 124.537 185.811 113.825 188.385C109.816 188.861 105.821 188.758 101.932 188.104L101.92 188.102ZM223.661 90.6844L223.453 90.6494C222.899 90.5562 222.356 90.4648 221.81 90.3966L221.741 90.385C220.679 90.2062 219.644 90.1506 218.664 90.1163C216.802 90.04 215.273 90.1625 213.874 90.5083C206.755 92.2525 200.294 98.4852 192.119 106.363L191.34 107.11C183.896 114.245 172.736 118.56 159.032 119.588C145.832 120.581 130.186 118.825 115.064 117.134C98.0316 115.228 81.9571 113.412 69.3695 115.28C64.6925 115.917 61.2651 118.65 59.4454 123.184C54.9427 134.421 60.7424 154.405 72.938 169.674C80.7317 179.434 91.0513 185.822 101.994 187.663C105.849 188.312 109.797 188.407 113.733 187.943C124.434 185.366 135.581 183.386 147.387 181.292C164.909 178.179 183.029 174.964 201.403 169.467C208.703 167.279 216.314 166.84 224.036 168.139C234.332 169.872 244.783 174.562 255.995 182.488C258.34 183.998 260.672 185.518 262.973 187.009C268.225 190.432 273.179 193.65 278.033 196.615C291.575 204.874 301.542 209.34 309.391 210.661C319.19 212.31 325.852 208.982 329.775 200.483C335.329 188.427 334.328 175.338 326.885 162.648C317.624 147.006 298.415 133.071 277.878 118.983C270.365 113.827 262.501 109.003 254.894 104.342C252.85 103.084 250.816 101.84 248.784 100.584C245.504 98.5612 241.943 96.7991 237.574 95.0433C237.251 94.9177 236.93 94.7806 236.609 94.6435C236.197 94.4793 235.787 94.3036 235.376 94.1394C234.318 93.7241 233.301 93.3511 232.324 93.0206C231.92 92.8814 231.526 92.7557 231.133 92.6185C230.189 92.3053 229.229 92.0133 228.185 91.7307C227.437 91.5217 226.696 91.3377 225.965 91.1672L225.646 91.0897C224.973 90.929 224.322 90.7721 223.688 90.6652L223.661 90.6844Z" fill="#C1C1C1"/>
<path d="M101.348 190.723C89.5171 188.731 78.369 181.765 69.9667 171.108C56.888 154.527 50.8921 133.17 56.0249 121.434C58.1317 116.604 62.0287 113.831 67.3096 113.415C80.177 112.283 95.4744 113.849 111.672 115.496C128.207 117.187 145.315 118.928 159.487 117.517C173.152 116.163 184.437 111.525 192.128 104.123L193.504 102.788C201.704 94.8313 208.185 88.5544 215.409 86.9585C216.901 86.6282 218.504 86.554 220.459 86.7169C221.477 86.8052 222.585 86.9205 223.706 87.1686C224.284 87.2658 224.878 87.4014 225.38 87.5215C226.271 87.7308 227.165 87.9881 227.934 88.2125C228.544 88.3982 229.346 88.64 230.188 88.9241C231.256 89.2818 232.229 89.6354 233.175 90.0082C233.575 90.1705 233.977 90.3212 234.377 90.4834C235.356 90.8736 236.396 91.3216 237.452 91.8196C237.848 92.0049 238.256 92.1922 238.661 92.391C238.99 92.5531 239.321 92.7037 239.652 92.8543C242.415 94.138 246.603 96.1955 250.922 99.1649C254.774 101.807 258.734 104.443 262.577 107C268.394 110.874 274.405 114.863 280.171 118.966C302.082 134.554 321.015 148.016 330.474 163.964C338.145 176.989 339.139 190.195 333.398 203.217C329.381 212.341 322.623 215.961 312.754 214.3C304.779 212.958 294.728 208.288 280.206 199.152C276.201 196.639 272.153 193.964 267.857 191.141C264.544 188.958 261.125 186.71 257.676 184.492C246.598 176.754 236.308 172.163 226.197 170.461C217.886 169.062 209.719 169.704 201.91 172.377C178.547 180.368 156.068 183.952 134.32 187.422C126.502 188.669 119.122 189.847 111.902 191.206C108.357 191.464 104.811 191.306 101.348 190.723ZM222.759 87.4363C221.951 87.3003 221.157 87.2259 220.42 87.1612C218.513 86.9945 216.956 87.0765 215.503 87.3895C208.402 88.9587 201.961 95.2068 193.817 103.114L192.441 104.449C184.679 111.922 173.291 116.602 159.542 117.965C145.322 119.38 128.193 117.624 111.633 115.94C95.4603 114.286 80.1859 112.723 67.3551 113.85C62.2532 114.261 58.4795 116.936 56.448 121.6C51.3731 133.204 57.3423 154.366 70.3231 170.824C78.6563 181.398 89.7083 188.301 101.436 190.275C104.864 190.852 108.362 191.014 111.859 190.76C119.054 189.408 126.445 188.232 134.265 186.974C155.989 183.5 178.457 179.914 201.782 171.94C209.654 169.243 217.893 168.601 226.284 170.013C236.465 171.727 246.81 176.339 257.942 184.11C261.391 186.327 264.822 188.578 268.123 190.759C272.419 193.582 276.469 196.245 280.462 198.756C294.942 207.861 304.925 212.508 312.855 213.843C322.493 215.465 329.107 211.927 333.017 203.011C338.687 190.131 337.704 177.069 330.108 164.163C320.694 148.306 301.804 134.864 279.936 119.306C274.17 115.203 268.158 111.214 262.353 107.342C258.522 104.787 254.551 102.149 250.698 99.5069C246.398 96.5645 242.243 94.5244 239.491 93.2426C239.161 93.092 238.82 92.9279 238.492 92.7658C238.084 92.5785 237.69 92.3817 237.282 92.1944C236.224 91.7079 235.196 91.2619 234.217 90.8717C233.817 90.7094 233.417 90.5472 233.015 90.3965C232.08 90.0256 231.107 89.672 230.051 89.3163C229.22 89.0341 228.418 88.7923 227.807 88.6181C227.049 88.3957 226.154 88.1383 225.275 87.931C224.773 87.8109 224.189 87.6888 223.611 87.5916C223.313 87.5296 223.027 87.4695 222.75 87.4228L222.759 87.4363Z" fill="#C1C1C1"/>
<path d="M100.874 193.407C88.2113 191.276 76.3001 183.766 67.3276 172.265C53.4752 154.498 47.308 131.973 52.9897 119.867C55.3238 114.885 59.5807 112.161 65.296 111.984C78.0046 111.513 92.9021 112.917 107.309 114.274C125.618 116.004 144.557 117.792 159.962 115.9C173.694 114.213 185.194 109.22 193.216 101.47L195.132 99.6094C203.34 91.6062 209.817 85.2812 217.049 83.8526C218.596 83.5436 220.238 83.5233 222.237 83.7767C222.725 83.8352 223.212 83.9053 223.72 83.9908C224.389 84.1035 224.995 84.2411 225.563 84.3959C226.136 84.5161 226.713 84.6844 227.257 84.8354C228.152 85.0927 229.061 85.4001 229.844 85.6861C230.706 85.9972 231.433 86.2619 232.123 86.5324C233.181 86.9477 234.156 87.361 235.125 87.8088C235.521 87.9941 235.929 88.1814 236.336 88.3687C237.327 88.832 238.367 89.3511 239.426 89.8973C239.83 90.1076 240.232 90.3295 240.636 90.5398C240.962 90.7135 241.299 90.9006 241.637 91.0762C244.395 92.5369 248.563 94.8521 252.882 98.1062C258.286 102.172 263.886 106.14 269.293 109.98C273.566 113.013 277.998 116.156 282.254 119.293C283.807 120.432 285.337 121.567 286.859 122.678C308.102 138.284 324.878 150.6 333.732 165.485C341.445 178.541 342.431 192.078 336.668 205.725C332.639 215.274 325.939 219.117 316.174 217.474C306.409 215.83 293.556 208.34 282.647 201.295C279.339 199.16 276.021 196.94 272.499 194.592C268.326 191.813 264.016 188.928 259.622 186.124C248.617 178.518 238.396 174.009 228.377 172.323C219.432 170.817 210.66 171.666 202.311 174.864C173.844 185.745 145.996 189.351 121.426 192.524C117.471 193.033 113.733 193.519 110.003 194.03C106.936 194.131 103.886 193.914 100.897 193.411L100.874 193.407ZM223.623 84.4253C223.127 84.3418 222.64 84.2717 222.163 84.2151C220.222 83.9715 218.615 83.9976 217.117 84.2913C210.02 85.695 203.574 91.9778 195.422 99.9311L193.518 101.794C185.424 109.614 173.834 114.652 160.017 116.348C144.564 118.244 125.601 116.452 107.27 114.719C92.8744 113.364 78.002 111.952 65.3165 112.427C59.7801 112.598 55.6677 115.24 53.3974 120.054C47.7755 132.017 53.9161 154.347 67.6821 171.993C76.5855 183.41 88.389 190.855 100.947 192.968C103.914 193.468 106.942 193.669 109.948 193.582C113.667 193.069 117.402 192.594 121.359 192.074C145.906 188.897 173.718 185.297 202.146 174.433C210.57 171.212 219.415 170.351 228.441 171.871C238.518 173.567 248.793 178.108 259.853 185.736C264.248 188.54 268.557 191.425 272.731 194.204C276.252 196.552 279.57 198.772 282.879 200.907C293.744 207.932 306.219 215.335 316.238 217.022C325.761 218.625 332.315 214.875 336.247 205.547C341.952 192.033 340.968 178.627 333.327 165.701C324.52 150.895 307.776 138.597 286.564 123.02C285.053 121.911 283.51 120.785 281.959 119.634C277.703 116.498 273.282 113.357 268.998 110.322C263.591 106.482 257.991 102.514 252.577 98.4346C248.277 95.2075 244.132 92.8962 241.387 91.4374C241.048 91.2618 240.712 91.0747 240.373 90.899C239.972 90.6772 239.568 90.4668 239.176 90.2584C238.118 89.7008 237.087 89.1951 236.109 88.7337C235.701 88.5465 235.305 88.3612 234.909 88.1758C233.949 87.7415 232.974 87.3282 231.928 86.9148C231.238 86.6444 230.522 86.3816 229.672 86.0724C228.899 85.7999 227.991 85.481 227.118 85.2391C226.585 85.0901 226.006 84.9333 225.435 84.8015C224.879 84.6486 224.283 84.5245 223.625 84.4138L223.623 84.4253Z" fill="#C1C1C1"/>
<path d="M100.491 196.167C86.9749 193.892 74.2563 185.819 64.6983 173.425C50.3161 154.786 43.8494 130.585 49.9605 118.326C52.5238 113.181 57.1308 110.492 63.2922 110.556C75.3169 110.622 88.7156 111.834 101.672 112.994C122.251 114.844 143.521 116.752 160.447 114.285C174.245 112.277 185.947 106.927 194.305 98.8064C195.114 98.0172 195.91 97.2376 196.691 96.4791C204.924 88.3971 211.422 82.0163 218.688 80.7359C220.351 80.4463 222.021 80.6088 223.795 80.7887L223.991 80.8218C225.032 80.9139 226.048 81.1561 227.388 81.5834C227.99 81.7441 228.598 81.9413 229.116 82.1114C230.06 82.4246 231.016 82.8109 231.737 83.1103C232.581 83.4541 233.333 83.7823 234.027 84.1008C235.096 84.5893 236.085 85.0641 237.056 85.5716C237.448 85.78 237.852 85.9904 238.267 86.2026C239.259 86.7256 240.299 87.3159 241.358 87.9332C241.758 88.1666 242.145 88.4096 242.556 88.645C242.891 88.8436 243.235 89.0558 243.581 89.2564C246.332 90.8941 250.492 93.4689 254.811 97.0077C261.591 102.563 268.635 107.818 275.435 112.901C278.367 115.091 281.392 117.357 284.317 119.581C287.475 121.975 290.55 124.296 293.554 126.546C313.121 141.253 328.568 152.859 336.971 166.968C344.727 180.055 345.716 193.925 339.917 208.206C335.876 218.18 329.199 222.241 319.514 220.611C309.83 218.981 297.049 211.348 285.058 203.398C282.357 201.602 279.651 199.771 276.784 197.829C271.862 194.497 266.769 191.041 261.539 187.705C250.574 180.212 240.415 175.761 230.477 174.088C220.539 172.416 211.564 173.551 202.686 177.289C168.937 191.481 136.965 194.274 108.763 196.741L108.064 196.801C105.517 196.775 102.979 196.55 100.486 196.13L100.491 196.167ZM224.672 81.3634C224.429 81.3226 224.175 81.2799 223.929 81.2621L223.733 81.2291C221.992 81.0665 220.347 80.8964 218.743 81.1842C211.623 82.4417 205.156 88.7802 196.981 96.8008C196.2 97.5593 195.404 98.3389 194.593 99.1396C186.166 107.319 174.373 112.714 160.49 114.732C143.516 117.202 122.223 115.291 101.621 113.436C88.6765 112.278 75.2893 111.069 63.2762 111.004C57.3053 110.936 52.8311 113.541 50.3431 118.52C44.3015 130.649 50.7551 154.646 65.0393 173.162C74.5301 185.461 87.1506 193.482 100.552 195.738C103.022 196.154 105.536 196.375 108.036 196.405L108.71 196.352C136.875 193.891 168.799 191.102 202.496 176.936C211.449 173.176 220.88 172.082 230.529 173.706C240.179 175.33 250.752 179.862 261.759 187.386C266.978 190.721 272.083 194.166 277.004 197.51C279.87 199.452 282.565 201.282 285.268 203.065C297.217 210.985 309.642 218.546 319.546 220.213C329.126 221.826 335.449 217.966 339.463 208.082C345.204 193.933 344.219 180.183 336.547 167.229C328.177 153.208 312.762 141.62 293.238 126.944C290.246 124.696 287.159 122.373 284.001 119.979C281.064 117.752 278.039 115.487 275.119 113.299C268.309 108.202 261.265 102.947 254.485 97.3918C250.176 93.8665 246.039 91.2956 243.309 89.6734C242.963 89.4727 242.619 89.2606 242.284 89.0619C241.886 88.8169 241.486 88.5835 241.098 88.3521C240.039 87.7348 239.01 87.1464 238.018 86.6235C237.614 86.4131 237.212 86.1912 236.807 85.9924C235.845 85.4984 234.87 85.014 233.799 84.5371C233.105 84.2186 232.351 83.9018 231.519 83.56C230.809 83.2626 229.863 82.8898 228.932 82.567C228.426 82.3988 227.83 82.2035 227.228 82.0428C226.226 81.7199 225.418 81.5128 224.656 81.3845L224.672 81.3634Z" fill="#C1C1C1"/>
<path d="M100.214 199.015C85.7968 196.588 72.2537 187.914 62.0698 174.584C46.9543 154.801 40.295 129.417 46.907 116.791C49.69 111.469 54.6587 108.818 61.2776 109.125C71.8605 109.577 83.1928 110.583 94.1501 111.561C117.702 113.663 142.073 115.831 160.909 112.666C174.761 110.335 186.689 104.631 195.381 96.1515C196.346 95.2106 197.285 94.2889 198.198 93.3749C206.47 85.2044 213.003 78.7583 220.303 77.6261C221.949 77.3692 223.75 77.4588 225.758 77.868C226.757 78.0716 227.946 78.3429 229.198 78.8028C229.807 78.9885 230.421 79.2223 230.944 79.429C231.903 79.7922 232.861 80.2381 233.588 80.574C234.447 80.9678 235.203 81.3442 235.903 81.6993C236.974 82.2474 237.964 82.7818 238.948 83.3509C239.348 83.5843 239.748 83.8177 240.169 84.0666C241.163 84.6491 242.205 85.2991 243.274 86.001C243.67 86.2575 244.076 86.5275 244.481 86.7975C244.812 87.0192 245.154 87.2429 245.494 87.4781C249.789 90.3129 253.36 93.0021 256.709 95.9507C264.64 102.992 272.899 109.425 280.884 115.645C282.722 117.07 284.548 118.492 286.348 119.923C290.815 123.427 295.136 126.741 299.322 129.937C317.641 143.948 332.088 155.005 340.178 168.504C348.076 181.805 349.038 195.623 343.132 210.752C339.066 221.161 332.413 225.428 322.786 223.807C313.16 222.187 301.892 215.367 287.448 205.556C285.276 204.075 283.062 202.563 280.83 201.013C275.225 197.151 269.439 193.163 263.445 189.354C252.523 181.963 242.413 177.568 232.521 175.903C222.629 174.238 212.446 175.502 203.047 179.793C167.637 195.96 134.459 198.514 106.137 199.644C104.148 199.546 102.155 199.33 100.204 199.001L100.214 199.015ZM224.946 78.1821C223.261 77.8984 221.76 77.8593 220.37 78.0763C213.204 79.1837 206.725 85.5914 198.5 93.6985C197.588 94.601 196.648 95.5343 195.682 96.4751C186.921 105.014 174.915 110.764 160.978 113.105C142.08 116.283 117.686 114.111 94.0974 112.015C83.1517 111.039 71.8309 110.035 61.25 109.571C54.8196 109.272 49.9953 111.841 47.2992 116.999C40.7587 129.483 47.4048 154.663 62.4243 174.312C72.541 187.547 85.988 196.158 100.289 198.565C102.228 198.891 104.199 199.104 106.151 199.207C134.401 198.078 167.532 195.527 202.865 179.395C212.341 175.069 222.343 173.751 232.593 175.477C242.843 177.202 252.719 181.569 263.684 188.991C269.668 192.787 275.464 196.788 281.069 200.65C283.314 202.19 285.515 203.712 287.687 205.193C302.089 214.973 313.58 221.807 322.86 223.369C332.14 224.931 338.681 220.906 342.721 210.588C348.578 195.604 347.631 181.908 339.806 168.738C331.764 155.306 317.338 144.264 299.06 130.296C294.873 127.1 290.553 123.786 286.086 120.282C284.272 118.861 282.458 117.441 280.622 116.005C272.627 109.771 264.368 103.338 256.428 96.2829C253.088 93.3479 249.54 90.6625 245.267 87.8432C244.924 87.6195 244.584 87.3843 244.254 87.1625C243.848 86.8926 243.454 86.6245 243.058 86.3681C241.999 85.6796 240.957 85.0296 239.974 84.449C239.565 84.2021 239.153 83.9668 238.765 83.7353C237.792 83.1682 236.802 82.6337 235.743 82.0876C235.043 81.7325 234.297 81.3696 233.439 80.9642C232.712 80.6283 231.753 80.1939 230.818 79.8231C230.305 79.6298 229.691 79.3961 229.083 79.1989C227.854 78.7428 226.675 78.485 225.7 78.2853C225.458 78.2445 225.217 78.1921 224.975 78.1513L224.946 78.1821Z" fill="#C1C1C1"/>
<path d="M100.04 201.94C84.6886 199.356 70.2652 190.059 59.4381 175.755C43.6009 154.83 36.7472 128.274 43.8581 115.293C46.8626 109.784 52.193 107.169 59.2696 107.719C67.2987 108.323 75.643 109.099 83.7045 109.863C111.375 112.456 139.993 115.137 161.389 111.074C175.306 108.434 187.426 102.359 196.474 93.5239C197.583 92.4409 198.652 91.3752 199.695 90.3286C208.019 82.0601 214.59 75.5256 221.937 74.5435C223.636 74.3194 225.431 74.4436 227.52 74.9376C228.455 75.1661 229.707 75.4837 231.029 76.0264C231.532 76.2061 232.088 76.4302 232.805 76.7526C233.58 77.0848 234.402 77.4958 235.482 78.0574C236.334 78.4974 237.093 78.9218 237.82 79.3289C238.86 79.9192 239.883 80.5422 240.881 81.1729C241.288 81.4313 241.694 81.7013 242.101 81.9597C243.086 82.5999 244.106 83.3057 245.219 84.0981C245.621 84.3911 246.023 84.6842 246.436 84.9791C246.763 85.224 247.101 85.4707 247.439 85.7175C251.726 88.8119 255.281 91.7358 258.64 94.9113C267.671 103.526 277.107 111.142 286.23 118.503L288.425 120.272C294.004 124.783 299.349 128.921 304.515 132.923C321.896 146.372 335.596 157.007 343.431 170.048C351.382 183.382 352.348 197.532 346.383 213.293C342.291 224.136 335.638 228.616 326.069 227.006C315.761 225.271 302.538 216.531 289.872 207.72C288.173 206.532 286.441 205.327 284.701 204.097C278.479 199.739 272.057 195.23 265.373 191.008C254.472 183.703 244.391 179.349 234.546 177.692C223.799 175.883 213.331 177.431 203.433 182.29C166.532 200.401 132.573 202.658 104.234 202.48C102.83 202.362 101.425 202.173 100.04 201.94ZM226.071 75.0852C224.594 74.8365 223.258 74.8016 221.996 74.9687C214.794 75.9395 208.266 82.4222 200 90.6292C198.958 91.6757 197.877 92.7395 196.768 93.8225C187.663 102.719 175.465 108.828 161.462 111.49C140.004 115.566 111.352 112.879 83.6558 110.294C75.5923 109.541 67.2499 108.754 59.2209 108.15C52.3328 107.608 47.1565 110.153 44.2387 115.5C37.2108 128.34 44.0399 154.69 59.7926 175.482C70.562 189.705 84.8779 198.937 100.114 201.502C101.488 201.733 102.881 201.92 104.262 202.034C132.541 202.214 166.429 199.957 203.25 181.892C213.239 176.989 223.792 175.431 234.631 177.255C244.534 178.922 254.682 183.3 265.626 190.635C272.31 194.857 278.741 199.38 284.964 203.738C286.705 204.956 288.435 206.173 290.134 207.361C302.757 216.141 315.939 224.85 326.154 226.569C335.619 228.162 341.916 223.895 345.983 213.131C351.89 197.503 350.926 183.483 343.061 170.271C335.262 157.295 321.593 146.689 304.257 133.259C299.079 129.256 293.734 125.117 288.155 120.607L285.96 118.837C276.839 111.465 267.391 103.847 258.351 95.2186C255.001 92.0565 251.467 89.1481 247.192 86.0556C246.854 85.8089 246.516 85.5621 246.189 85.3173C245.778 85.0107 245.376 84.7177 244.972 84.4362C243.871 83.6457 242.848 82.9515 241.876 82.3132C241.47 82.0433 241.051 81.7829 240.655 81.5264C239.669 80.8977 238.646 80.2747 237.615 79.6978C236.9 79.2927 236.15 78.8818 235.299 78.4418C234.23 77.8822 233.407 77.4826 232.643 77.1524C231.936 76.8435 231.391 76.6214 230.887 76.4416C229.589 75.9028 228.36 75.5891 227.437 75.3625C226.97 75.2483 226.521 75.161 226.094 75.0891L226.071 75.0852Z" fill="#C1C1C1"/>
<path d="M99.9733 204.954C83.6521 202.207 68.3194 192.246 56.8109 176.914C40.2499 154.859 33.2152 127.122 40.7903 113.78C44.0281 108.084 49.7106 105.493 57.2428 106.298C60.9292 106.682 64.6386 107.069 68.3345 107.465C102.048 111.04 136.916 114.738 161.864 109.458C176.032 106.456 188.039 100.207 197.552 90.8695C198.789 89.654 199.988 88.4558 201.157 87.2882C209.547 78.9122 216.169 72.2911 223.576 71.438C225.332 71.2352 227.165 71.4133 229.298 71.9978C230.683 72.3732 231.814 72.7771 232.862 73.2502C233.374 73.4549 233.935 73.7155 234.66 74.063C235.439 74.4432 236.298 74.9082 237.371 75.5159C238.215 76.002 238.992 76.465 239.722 76.9201C240.753 77.5682 241.789 78.2527 242.798 78.9565C243.202 79.238 243.615 79.533 244.028 79.828C245.024 80.5413 246.046 81.3067 247.159 82.1703C247.58 82.4903 247.997 82.8333 248.416 83.1649C248.729 83.4193 249.054 83.6757 249.379 83.932C253.613 87.2668 257.166 90.4157 260.563 93.8587C270.634 104.12 281.171 112.882 290.481 120.618C297.021 126.05 303.24 130.917 309.271 135.634C325.246 148.123 339.038 158.915 346.672 171.602C354.662 184.989 355.632 199.461 349.634 215.845C345.505 227.121 338.863 231.817 329.328 230.212C319.09 228.489 306.515 219.989 292.296 209.896C291.024 208.993 289.742 208.077 288.439 207.146C281.657 202.303 274.641 197.302 267.315 192.663C256.423 185.444 246.372 181.13 236.549 179.476C225.226 177.57 214.218 179.36 203.83 184.801C163.688 205.807 126.682 206.567 102.332 205.327C101.541 205.23 100.754 205.109 99.981 204.979L99.9733 204.954ZM227.305 71.9944C225.989 71.7729 224.786 71.7247 223.624 71.8613C216.362 72.6916 209.785 79.2607 201.463 87.5888C200.293 88.7563 199.094 89.9546 197.857 91.17C188.275 100.567 176.2 106.864 161.948 109.875C136.927 115.167 102.034 111.477 68.2857 107.896C64.5898 107.499 60.8919 107.114 57.1941 106.729C49.8465 105.955 44.3084 108.464 41.1691 113.998C33.6769 127.2 40.7004 154.721 57.1519 176.651C68.5913 191.901 83.8278 201.797 100.034 204.525C100.795 204.653 101.582 204.774 102.35 204.868C126.628 206.107 163.566 205.336 203.602 184.395C214.08 178.91 225.186 177.101 236.602 179.023C246.482 180.686 256.589 185.021 267.533 192.285C274.873 196.914 281.898 201.928 288.68 206.772C289.973 207.689 291.267 208.607 292.537 209.521C306.702 219.581 319.235 228.05 329.381 229.758C338.811 231.345 345.107 226.876 349.213 215.667C355.165 199.418 354.198 185.066 346.283 171.798C338.686 159.176 324.936 148.415 308.992 135.954C302.97 131.251 296.741 126.37 290.19 120.937C280.88 113.201 270.333 104.425 260.241 94.1486C256.863 90.7326 253.322 87.5856 249.097 84.2643C248.773 84.008 248.448 83.7516 248.135 83.4972C247.718 83.1541 247.299 82.8226 246.878 82.5025C245.774 81.6524 244.763 80.889 243.768 80.1757C243.354 79.8807 242.953 79.5877 242.549 79.3062C241.551 78.6043 240.515 77.9198 239.495 77.2852C238.764 76.8301 237.999 76.3691 237.155 75.8829C236.094 75.2772 235.234 74.8122 234.465 74.4454C233.752 74.0999 233.2 73.8528 232.688 73.648C231.652 73.177 230.542 72.7885 229.18 72.4169C228.534 72.2369 227.905 72.0954 227.305 71.9944Z" fill="#C1C1C1"/>
<path d="M100.022 208.059C82.6849 205.14 66.3989 194.497 54.1704 178.083C36.8973 154.899 29.6796 125.993 37.7075 112.288C41.1668 106.404 47.213 103.839 55.2163 104.877C95.9277 110.105 134.742 114.265 162.317 107.837C176.536 104.523 188.746 97.9176 198.619 88.2014C199.986 86.8534 201.3 85.5323 202.572 84.2515C211.029 75.7562 217.701 69.0488 225.182 68.3266C226.991 68.1565 228.865 68.377 231.03 69.05C232.419 69.4736 233.565 69.9275 234.661 70.4679C235.18 70.6977 235.761 70.9853 236.48 71.3673C237.286 71.7995 238.162 72.303 239.224 72.98C240.071 73.5142 240.854 74.0137 241.598 74.5304C242.63 75.2381 243.679 75.9842 244.688 76.7592C245.088 77.0637 245.498 77.3818 245.919 77.7018C246.916 78.4748 247.96 79.3267 249.053 80.2345C249.48 80.5911 249.904 80.9592 250.341 81.3292C250.652 81.5952 250.961 81.8727 251.284 82.1406C255.489 85.7195 259.026 89.1031 262.454 92.7885C272.453 103.619 283.207 112.999 292.506 120.935C299.895 127.245 306.897 132.754 313.677 138.095C329.095 150.23 342.393 160.714 349.873 173.113C357.926 186.547 358.889 201.35 352.845 218.355C348.626 230.233 342.161 235.006 332.512 233.381C322.354 231.672 309.911 223.087 294.681 212.029L292.047 210.114C284.73 204.789 277.168 199.293 269.204 194.286C258.325 187.128 248.27 182.837 238.482 181.189C226.593 179.188 215.056 181.233 204.178 187.256C186.596 197.004 168.069 203.555 149.102 206.721C133.652 209.306 117.73 209.758 100.391 208.121L99.9988 208.055L100.022 208.059ZM228.598 68.9017C227.421 68.7035 226.324 68.6612 225.25 68.7652C217.927 69.4665 211.3 76.1222 202.912 84.5579C201.64 85.8387 200.326 87.1598 198.957 88.5194C189.029 98.2855 176.751 104.939 162.447 108.262C134.799 114.702 95.9367 110.545 55.1791 105.31C47.3623 104.291 41.4607 106.774 38.0978 112.508C30.1393 126.082 37.3593 154.763 54.5229 177.822C66.6823 194.153 82.8606 204.731 100.094 207.632L100.463 207.694C138.377 211.276 172.236 204.47 203.98 186.879C214.95 180.8 226.586 178.736 238.567 180.753C248.424 182.412 258.526 186.711 269.456 193.913C277.421 198.92 284.992 204.43 292.31 209.755L294.943 211.67C310.133 222.686 322.532 231.251 332.597 232.945C342.004 234.528 348.311 229.848 352.443 218.204C358.442 201.322 357.482 186.65 349.514 173.338C342.071 161.004 328.804 150.548 313.417 138.443C306.646 133.115 299.635 127.593 292.234 121.281C282.937 113.333 272.171 103.951 262.151 93.1053C258.745 89.4354 255.206 86.0634 251.022 82.4998C250.699 82.2319 250.39 81.9544 250.078 81.6885C249.642 81.3184 249.217 80.9503 248.802 80.5957C247.72 79.6899 246.677 78.8379 245.679 78.0649C245.258 77.7449 244.849 77.4269 244.449 77.1223C243.438 76.3589 242.402 75.6032 241.368 74.907C240.622 74.4018 239.853 73.8928 239.004 73.3701C237.94 72.7047 237.075 72.2031 236.281 71.7729C235.574 71.3927 235.003 71.1186 234.485 70.8773C233.412 70.3408 232.276 69.9003 230.922 69.4826C230.099 69.2254 229.333 69.0491 228.583 68.9228L228.598 68.9017Z" fill="#C1C1C1"/>
<path d="M98.4906 210.934C80.7389 207.448 64.069 196.194 51.5411 179.231C33.5674 154.921 26.1532 124.854 34.6475 110.777C38.3187 104.692 44.74 102.154 53.2126 103.438C88.4146 108.746 132.682 113.86 162.813 106.213C177.085 102.588 189.507 95.6381 199.717 85.5397C201.213 84.0592 202.631 82.6132 204.017 81.221C212.555 72.5971 219.291 65.7935 226.844 65.2023C228.709 65.0534 230.619 65.3394 232.833 66.0798C234.226 66.5515 235.389 67.0439 236.521 67.6498C237.048 67.9046 237.635 68.2287 238.36 68.6473C239.182 69.118 240.061 69.6812 241.137 70.4081C241.958 70.9615 242.766 71.5245 243.525 72.0913C244.57 72.8605 245.62 73.6779 246.644 74.5028C247.052 74.8324 247.469 75.1755 247.884 75.5301C248.883 76.3627 249.938 77.2878 251.031 78.2667C251.485 78.6753 251.937 79.0954 252.398 79.5289L253.26 80.3267C257.373 84.1036 261.021 87.8144 264.415 91.6959C274.423 103.18 284.836 112.681 294.602 121.23C302.754 128.368 310.453 134.457 317.9 140.35C332.857 152.193 345.793 162.426 353.156 174.604C361.371 188.279 362.316 202.972 356.127 220.842C351.869 233.164 345.394 238.137 335.744 236.513C324.894 234.687 310.782 224.243 297.124 214.138L295.636 213.033C287.815 207.244 279.72 201.254 271.163 195.886C260.275 188.786 250.225 184.532 240.449 182.886C228.017 180.793 215.95 183.093 204.591 189.723C171.236 209.19 136.537 216.128 98.5157 210.926L98.4906 210.934ZM229.936 65.8057C228.862 65.625 227.862 65.5752 226.863 65.6562C219.479 66.2286 212.797 72.9937 204.319 81.5447C202.933 82.9369 201.503 84.3809 200.019 85.8634C189.741 96.0097 177.252 103.007 162.906 106.644C132.701 114.314 88.3755 109.19 53.1388 103.876C44.8529 102.612 38.5856 105.081 35.0127 111.005C26.6015 124.942 34.0159 154.795 51.8936 178.97C64.3542 195.839 80.9281 207.029 98.5529 210.494C136.482 215.68 171.083 208.761 204.345 189.35C215.786 182.662 227.951 180.343 240.497 182.455C250.343 184.112 260.449 188.388 271.377 195.531C279.945 200.9 288.039 206.902 295.872 212.693L297.359 213.798C310.975 223.873 325.045 234.285 335.791 236.094C345.187 237.675 351.506 232.783 355.687 220.709C361.82 202.959 360.89 188.388 352.75 174.833C345.433 162.733 332.529 152.517 317.604 140.703C310.156 134.81 302.457 128.721 294.295 121.57C284.52 113.007 274.097 103.493 264.068 91.9934C260.684 88.1254 257.045 84.4281 252.942 80.6647L252.08 79.8669C251.618 79.4334 251.165 79.0248 250.711 78.6163C249.63 77.6393 248.573 76.7258 247.585 75.8951C247.17 75.5405 246.751 75.2089 246.345 74.8678C245.334 74.0332 244.295 73.2294 243.249 72.4602C242.49 71.8934 241.682 71.3304 240.873 70.7789C239.808 70.0539 238.928 69.5023 238.117 69.0335C237.403 68.6169 236.826 68.3062 236.288 68.0495C235.177 67.459 234.025 66.9685 232.655 66.5007C231.69 66.1721 230.792 65.9379 229.914 65.7902L229.936 65.8057Z" fill="#C1C1C1"/>
<path d="M98.0887 214.022C97.5808 213.936 97.0845 213.853 96.5766 213.767C78.568 209.621 61.6411 197.779 48.908 180.413C30.2644 155.005 22.6423 123.777 31.5451 109.317C35.4148 103.04 42.1671 100.51 51.078 102.01L53.0056 102.335C102.454 110.658 138.531 111.403 163.284 104.607C177.595 100.68 190.22 93.3731 200.802 82.8983C202.411 81.3065 203.945 79.7376 205.42 78.2416C214.027 69.487 220.838 62.5893 228.455 62.1155C230.362 61.9975 232.347 62.3317 234.573 63.1452C235.948 63.6496 237.169 64.2229 238.328 64.8807C238.872 65.174 239.478 65.5251 240.199 65.9668C241.037 66.4875 241.931 67.1007 243.011 67.8758C243.836 68.4773 244.647 69.0884 245.421 69.7052C246.48 70.536 247.531 71.4129 248.556 72.3091C248.971 72.6637 249.382 73.0414 249.795 73.4075C250.796 74.2998 251.832 75.269 252.944 76.3461C253.425 76.8066 253.913 77.2922 254.412 77.7796L255.187 78.5388C259.239 82.531 262.883 86.4784 266.327 90.6292C276.727 103.236 287.49 113.341 296.646 121.562C305.495 129.493 314.194 136.415 321.88 142.514C336.484 154.12 349.111 164.147 356.376 176.131C364.641 189.861 365.592 204.875 359.355 223.378C355.058 236.145 348.56 241.327 338.908 239.715C328.173 237.908 314.904 227.891 299.525 216.297L299.114 215.991C290.803 209.728 282.208 203.25 273.071 197.524C262.163 190.468 252.121 186.239 242.333 184.591C229.347 182.405 216.774 184.964 204.944 192.203C186.498 203.49 167.342 210.884 148.012 214.167C131.834 216.914 115.035 216.863 98.0791 214.008L98.0887 214.022ZM51.0061 102.437C42.2915 100.97 35.6952 103.419 31.9238 109.535C23.0925 123.852 30.7149 154.868 49.2644 180.129C61.9419 197.402 78.7822 209.194 96.6639 213.319C97.1487 213.401 97.6566 213.487 98.1644 213.572C135.643 219.881 170.503 212.768 204.722 191.833C216.644 184.538 229.315 181.961 242.405 184.164C252.251 185.821 262.348 190.072 273.298 197.159C282.447 202.887 291.054 209.366 299.374 215.643L299.786 215.95C315.11 227.511 328.339 237.485 338.97 239.274C348.366 240.856 354.708 235.754 358.917 223.233C365.107 204.865 364.171 189.972 355.981 176.361C348.753 164.443 336.159 154.433 321.596 142.858C313.91 136.759 305.2 129.835 296.342 121.89C287.176 113.656 276.392 103.535 265.982 90.9153C262.559 86.7798 258.915 82.8325 254.873 78.8537L254.098 78.0946C253.599 77.6071 253.122 77.1235 252.642 76.663C251.529 75.5859 250.503 74.6301 249.502 73.7379C249.091 73.3602 248.666 72.9921 248.263 72.6394C247.238 71.7433 246.197 70.8798 245.149 70.051C244.375 69.4341 243.575 68.825 242.76 68.2369C241.692 67.4638 240.807 66.8642 239.981 66.3453C239.26 65.9037 238.677 65.5565 238.133 65.2632C236.997 64.6092 235.797 64.0513 234.443 63.5624C232.274 62.7701 230.348 62.4341 228.501 62.5503C221.041 63.0032 214.296 69.8644 205.748 78.5461C204.272 80.0535 202.728 81.609 201.117 83.2124C190.489 93.7505 177.8 101.083 163.403 105.03C138.588 111.84 102.45 111.108 52.9434 102.775L51.0157 102.451L51.0061 102.437Z" fill="#C1C1C1"/>
<path d="M101.565 217.905C99.28 217.52 96.9561 217.082 94.667 216.578C76.4247 211.775 59.2408 199.344 46.2813 181.56C27.0427 155.175 19.1798 122.837 28.3911 107.956C32.4827 101.348 39.6661 98.7957 49.1903 100.601C52.9531 101.305 56.7082 101.985 60.3557 102.599C104.587 110.044 139.38 110.169 163.769 102.992C178.331 98.7037 190.8 91.2635 201.901 80.2472C203.626 78.5324 205.26 76.8618 206.837 75.2525C215.536 66.3711 222.401 59.3639 230.114 59.0249C232.075 58.9397 234.111 59.3297 236.368 60.2318C237.747 60.7842 238.997 61.398 240.181 62.1193C240.754 62.453 241.377 62.8426 242.071 63.3035C242.936 63.8762 243.866 64.5549 244.916 65.3722C245.725 65.9948 246.54 66.654 247.351 67.3363C248.39 68.2113 249.443 69.1479 250.5 70.1326C250.912 70.5102 251.33 70.913 251.749 71.3157C252.762 72.281 253.83 73.3388 254.912 74.4582C255.417 74.9822 255.92 75.5178 256.447 76.0572L257.154 76.7932C261.159 80.9912 264.798 85.1866 268.279 89.6049C279.036 103.339 290.211 114.095 298.733 121.924C308.212 130.627 317.528 138.044 325.755 144.59C340.074 155.993 352.445 165.847 359.639 177.688C367.965 191.476 368.911 206.798 362.628 225.934C358.292 239.145 351.77 244.537 342.107 242.922C331.464 241.131 318.241 230.98 302.948 219.234L301.969 218.488C293.887 212.275 284.708 205.249 275.021 199.193C264.094 192.181 254.039 187.961 244.25 186.313C230.734 184.038 217.641 186.865 205.352 194.715C171.916 216.079 136.999 223.881 101.587 217.92L101.565 217.905ZM48.3682 100.901C39.4227 99.3954 32.6357 101.919 28.768 108.185C19.6512 122.929 27.5047 155.039 46.6454 181.301C59.5493 198.992 76.6466 211.373 94.787 216.147C97.0665 216.638 99.3769 217.086 101.651 217.469C136.96 223.412 171.766 215.626 205.11 194.318C217.493 186.401 230.685 183.555 244.317 185.85C254.162 187.507 264.276 191.737 275.245 198.78C284.943 204.837 294.121 211.875 302.226 218.092L303.204 218.838C318.455 230.553 331.648 240.675 342.175 242.447C351.582 244.031 357.946 238.731 362.194 225.766C368.442 206.767 367.501 191.552 359.25 177.884C352.093 166.108 339.752 156.283 325.466 144.897C317.239 138.351 307.912 130.932 298.423 122.216C289.88 114.371 278.695 103.602 267.919 89.8409C264.447 85.4361 260.818 81.2541 256.824 77.0581L256.117 76.3221C255.593 75.7711 255.09 75.2355 254.582 74.723C253.499 73.6152 252.442 72.5594 251.429 71.594C251.011 71.1913 250.59 70.8001 250.179 70.4225C249.131 69.4513 248.078 68.5147 247.05 67.6416C246.251 66.9613 245.434 66.3136 244.636 65.6929C243.596 64.8891 242.678 64.2124 241.822 63.6532C241.128 63.1923 240.517 62.8046 239.942 62.4825C238.769 61.763 237.541 61.1647 236.196 60.6181C233.993 59.7488 232.027 59.3704 230.125 59.4538C222.591 59.7874 215.782 66.7447 207.154 75.5551C205.564 77.1739 203.941 78.8465 202.216 80.5613C191.071 91.6294 178.536 99.1061 163.899 103.417C139.446 110.62 104.582 110.494 60.2934 103.039C56.646 102.425 52.8774 101.755 49.1165 101.039C48.8741 100.998 48.6317 100.957 48.3894 100.917L48.3682 100.901Z" fill="#C1C1C1"/>
<path d="M103.854 221.743C100.172 221.123 96.4366 220.328 92.7608 219.389C74.2712 213.94 56.8304 200.919 43.656 182.72C23.8243 155.345 15.7207 121.899 25.229 106.593C29.3302 99.9982 36.4463 97.3519 45.8189 98.9295C46.2691 99.0053 46.7193 99.0811 47.1771 99.1819C52.9712 100.371 58.725 101.446 64.277 102.38C106.107 109.421 139.744 109.08 164.258 101.377C178.858 96.7873 191.528 89.0012 202.993 77.5835C204.82 75.7554 206.557 73.9714 208.234 72.2604C217.016 63.2387 223.959 56.1258 231.746 55.9062C233.761 55.8538 235.848 56.2881 238.141 57.2672C239.525 57.8562 240.788 58.5315 242.009 59.3183C242.59 59.6771 243.22 60.0917 243.931 60.5911C244.8 61.2119 245.748 61.929 246.799 62.806C247.633 63.4921 248.463 64.2014 249.245 64.9144C250.308 65.8644 251.372 66.8741 252.41 67.903C252.827 68.3172 253.244 68.7315 253.67 69.1592C254.694 70.1977 255.763 71.3266 256.848 72.4941C257.399 73.097 257.949 73.7116 258.519 74.3415L259.088 74.983C263.018 79.3462 266.652 83.7783 270.199 88.516C278.673 99.8729 288.395 110.586 300.787 122.222C310.852 131.676 320.742 139.558 329.46 146.506C343.557 157.742 355.727 167.455 362.869 179.181C371.245 193.025 372.196 208.668 365.856 228.423C361.469 242.076 354.922 247.689 345.249 246.061C334.688 244.283 321.595 234.059 306.448 222.22L304.371 220.601C295.274 213.505 286.339 206.65 276.938 200.797C265.994 193.817 255.911 189.617 246.112 187.967C232.064 185.603 218.474 188.702 205.725 197.174C172.487 219.26 138.217 227.527 103.854 221.743ZM45.7355 99.3545C36.5592 97.8099 29.5855 100.385 25.5943 106.82C16.1805 121.988 24.2632 155.205 44.0086 182.459C57.1254 200.577 74.4816 213.536 92.8808 218.958C96.5335 219.894 100.258 220.687 103.928 221.304C138.175 227.069 172.334 218.83 205.477 196.812C218.321 188.272 232.021 185.156 246.184 187.54C256.041 189.199 266.17 193.408 277.168 200.42C286.589 206.289 295.536 213.146 304.631 220.253L306.709 221.872C321.802 233.679 334.852 243.872 345.298 245.63C354.717 247.216 361.104 241.706 365.416 228.289C371.71 208.669 370.775 193.135 362.474 179.411C355.38 167.752 343.218 158.065 329.165 146.848C320.438 139.886 310.536 132.002 300.461 122.535C288.051 110.872 278.307 100.144 269.825 88.7615C266.276 84.0354 262.652 79.6168 258.745 75.2574L258.176 74.616C257.606 73.986 257.056 73.3715 256.505 72.7686C255.431 71.603 254.375 70.476 253.35 69.4376C252.924 69.0098 252.507 68.5956 252.102 68.1833C251.064 67.1544 249.998 66.1563 248.947 65.2081C248.163 64.5067 247.344 63.7994 246.51 63.1132C245.457 62.2478 244.523 61.5211 243.663 60.9138C242.964 60.4163 242.345 60.0037 241.764 59.6449C240.555 58.86 239.313 58.2001 237.95 57.6266C235.725 56.6707 233.707 56.248 231.752 56.2986C224.143 56.5127 217.256 63.5757 208.533 72.5244C206.855 74.247 205.12 76.0194 203.291 77.859C191.77 89.3266 179.048 97.1396 164.373 101.752C139.796 109.48 106.088 109.822 64.1994 102.771C58.6359 101.834 52.882 100.759 47.0764 99.5683C46.6167 99.479 46.18 99.3937 45.7298 99.3179L45.7355 99.3545Z" fill="#C1C1C1"/>
<path d="M105.396 225.562C100.548 224.746 95.6579 223.614 90.8513 222.2C72.1164 216.093 54.4302 202.485 41.0159 183.878C20.5815 155.499 12.2603 120.949 22.054 105.216C26.5429 98.0109 34.5653 95.4104 45.151 97.7498C52.4876 99.3644 59.738 100.786 66.6982 101.958C107.051 108.75 140.019 108.011 164.72 99.7588C179.36 94.867 192.228 86.7466 204.069 74.9294C206.01 72.99 207.835 71.1023 209.6 69.2876C218.478 60.1275 225.499 52.8974 233.373 52.7991C235.455 52.7699 237.579 53.2697 239.894 54.3239C241.273 54.9475 242.551 55.6728 243.83 56.5405C244.428 56.9378 245.066 57.3774 245.771 57.9114C246.678 58.5861 247.628 59.3629 248.673 60.2744C249.501 60.9952 250.324 61.7506 251.144 62.5175C252.197 63.5253 253.277 64.585 254.324 65.6985C254.737 66.1358 255.162 66.5751 255.582 67.0375C256.608 68.1356 257.676 69.3357 258.762 70.5743C259.378 71.2832 260.012 72.0305 260.655 72.7914L261.013 73.2075C264.875 77.761 268.505 82.4297 272.109 87.4617C280.74 99.5807 290.508 110.728 302.83 122.567C313.438 132.741 323.872 141.058 333.048 148.392C346.966 159.491 358.991 169.073 366.087 180.72C374.525 194.621 375.482 210.586 369.085 230.96C364.661 245.046 358.092 250.857 348.408 249.227C337.973 247.471 325.083 237.245 310.159 225.42C309.039 224.531 307.918 223.642 306.777 222.738C298.57 216.208 288.96 208.705 278.848 202.424C267.877 195.463 257.768 191.282 247.956 189.631C233.182 187.144 219.48 190.414 206.092 199.645C172.927 222.502 139.044 231.214 105.386 225.549L105.396 225.562ZM43.1131 97.7983C33.6943 96.2129 26.5435 98.8534 22.4424 105.448C12.7316 121.04 21.0532 155.377 41.3915 183.621C54.7348 202.157 72.3595 215.706 90.9944 221.774C95.7779 223.184 100.646 224.3 105.471 225.112C139.014 230.758 172.787 222.063 205.856 199.285C219.161 190.123 233.348 186.721 248.042 189.194C257.911 190.855 268.076 195.058 279.103 202.039C289.236 208.337 298.846 215.839 307.073 222.385C308.215 223.289 309.336 224.178 310.456 225.066C325.326 236.859 338.187 247.044 348.507 248.781C357.937 250.368 364.346 244.661 368.695 230.811C375.045 210.572 374.106 194.717 365.731 180.933C358.683 169.353 346.679 159.787 332.803 148.719C323.604 141.381 313.172 133.052 302.554 122.864C290.2 111.009 280.424 99.836 271.772 87.7016C268.18 82.6715 264.559 78.0163 260.706 73.4762L260.349 73.0602C259.706 72.2993 259.081 71.5654 258.467 70.845C257.383 69.5949 256.323 68.4198 255.297 67.3216C254.875 66.8708 254.452 66.42 254.037 65.9943C252.988 64.8923 251.92 63.8345 250.867 62.8267C250.058 62.0618 249.235 61.3064 248.417 60.5991C247.383 59.6895 246.431 58.9242 245.536 58.2515C244.84 57.7309 244.204 57.2798 243.616 56.896C242.358 56.0437 241.101 55.3338 239.745 54.7141C237.484 53.6927 235.43 53.2046 233.419 53.2339C225.723 53.3268 218.77 60.5089 209.954 69.5844C208.187 71.4106 206.363 73.2868 204.421 75.2378C192.536 87.1068 179.613 95.2656 164.9 100.169C140.136 108.446 107.085 109.183 66.6744 102.381C59.7027 101.208 52.4389 99.7951 45.1041 98.169C44.4405 98.0217 43.7845 97.8994 43.1496 97.7926L43.1131 97.7983Z" fill="#C1C1C1"/>
<path d="M106.414 229.376C100.573 228.393 94.6947 226.929 88.9364 225.034C69.9639 218.293 52.0092 204.094 38.382 185.06C17.3545 155.692 8.7829 120.02 18.8851 103.864C23.5784 96.361 31.9953 93.7438 43.129 96.3534C51.7389 98.3722 60.2108 100.083 68.3137 101.447C107.697 108.076 140.275 106.975 165.188 98.1647C180.067 92.9098 192.763 84.689 205.139 72.2977C207.182 70.2449 209.108 68.2554 210.962 66.337C219.934 57.0386 227.034 49.6913 234.995 49.7143C237.119 49.716 239.293 50.2717 241.644 51.3912C243.006 52.0475 244.355 52.8442 245.637 53.76C246.254 54.1842 246.898 54.6603 247.6 55.2174C248.522 55.9422 249.475 56.767 250.534 57.7402C251.357 58.4956 252.185 59.2875 253.017 60.1275C254.083 61.1968 255.163 62.3277 256.225 63.4913C256.634 63.9517 257.064 64.4275 257.495 64.9033C258.532 66.0746 259.602 67.3343 260.687 68.6441C261.427 69.5398 262.162 70.4585 262.938 71.4196C266.676 76.0826 270.409 81.1245 274.018 86.4067C282.796 99.2741 292.607 110.868 304.885 122.901C316.002 133.789 326.949 142.513 336.586 150.21C350.358 161.189 362.257 170.678 369.33 182.25C377.838 196.223 378.789 212.507 372.335 233.5C367.87 248.042 361.255 254.059 351.536 252.423C341.124 250.671 328.28 240.31 313.422 228.306C312.033 227.182 310.62 226.055 309.2 224.902C300.307 217.722 290.709 210.222 280.789 204.067C269.778 197.136 259.643 192.962 249.809 191.307C234.504 188.731 220.328 192.277 206.489 202.144C173.295 225.803 139.633 234.967 106.437 229.38L106.414 229.376ZM40.4756 96.2509C30.8144 94.6247 23.475 97.3283 19.2639 104.082C9.25613 120.099 17.8165 155.556 38.748 184.789C52.3272 203.756 70.1973 217.893 89.0794 224.607C94.8031 226.496 100.658 227.956 106.487 228.937C139.569 234.506 173.121 225.358 206.218 201.778C220.165 191.834 234.439 188.269 249.871 190.867C259.763 192.532 269.954 196.726 281.019 203.691C290.962 209.849 300.57 217.363 309.472 224.556C310.894 225.697 312.305 226.837 313.694 227.96C328.5 239.92 341.313 250.252 351.61 251.985C361.063 253.576 367.518 247.662 371.908 233.357C378.41 212.218 377.492 196.521 368.948 182.471C361.912 170.964 350.046 161.492 336.316 150.544C326.668 142.845 315.711 134.108 304.584 123.206C292.286 111.158 282.467 99.539 273.669 86.6446C270.07 81.3759 266.348 76.336 262.607 71.696C261.842 70.7369 261.095 69.8162 260.356 68.9205C259.282 67.6127 258.21 66.3645 257.173 65.1932C256.745 64.7059 256.324 64.2435 255.915 63.7831C254.864 62.6215 253.796 61.4926 252.728 60.4348C251.905 59.6082 251.066 58.8144 250.255 58.0609C249.205 57.1013 248.252 56.2764 247.339 55.5651C246.638 55.0081 246.006 54.5338 245.387 54.1212C244.114 53.2188 242.799 52.428 241.447 51.7852C239.151 50.6869 237.045 50.1544 234.982 50.1394C227.21 50.1244 220.168 57.4102 211.269 66.626C209.415 68.5445 207.49 70.5339 205.445 72.5982C193.012 85.0395 180.265 93.2871 165.322 98.5669C140.347 107.39 107.671 108.511 68.2303 101.872C60.1158 100.506 51.6325 98.7932 43.011 96.7726C42.1435 96.5672 41.2816 96.3984 40.4506 96.2585L40.4756 96.2509Z" fill="#C1C1C1"/>
<path d="M107.092 233.179C100.363 232.047 93.6153 230.247 87.0283 227.845C62.4123 218.386 45.5686 199.985 35.7568 186.208C14.1266 155.836 5.32781 119.046 15.7271 102.466C20.6132 94.6632 29.4496 92.0217 41.1178 94.9112C50.8394 97.3068 60.3672 99.3021 69.4397 100.829C108.154 107.346 140.528 105.902 165.677 96.5381C185.268 89.2407 198.203 77.6908 206.242 69.6353C208.385 67.4808 210.385 65.3972 212.326 63.3866C221.406 53.9403 228.585 46.4758 236.648 46.599C238.847 46.6489 241.061 47.2469 243.436 48.4415C244.803 49.1344 246.168 49.9811 247.496 50.9758C248.14 51.452 248.812 51.9686 249.489 52.5333C250.406 53.2927 251.374 54.1676 252.458 55.2043C253.284 56.0077 254.127 56.8497 254.965 57.7263C256.014 58.8283 257.094 60.0304 258.189 61.2825C258.605 61.7679 259.032 62.2668 259.456 62.7772C260.476 63.9811 261.548 65.3005 262.65 66.7199C263.382 67.6617 264.133 68.6305 264.901 69.6378C268.557 74.4295 272.273 79.7176 275.966 85.3461C284.745 98.7713 294.885 111.168 306.966 123.239C318.571 134.826 329.998 143.939 340.075 151.983C353.734 162.86 365.527 172.272 372.584 183.794C381.264 198.021 382.194 214.147 375.589 236.041C371.07 251.036 364.42 257.261 354.667 255.619C344.267 253.869 331.45 243.347 316.621 231.17C314.986 229.815 313.316 228.454 311.624 227.078C302.655 219.719 292.932 212.043 282.718 205.732C271.657 198.816 261.485 194.648 251.628 192.989C235.803 190.325 221.167 194.138 206.863 204.651C173.566 229.134 139.996 238.742 107.1 233.204L107.092 233.179ZM37.8681 94.6845C27.9645 93.0175 20.446 95.7978 16.1134 102.709C5.80868 119.151 14.5963 155.725 36.1305 185.962C45.8923 199.683 62.688 218.017 87.1906 227.445C93.7429 229.841 100.458 231.624 107.164 232.752C139.945 238.27 173.392 228.69 206.594 204.273C220.995 193.682 235.742 189.84 251.694 192.526C261.609 194.194 271.836 198.384 282.94 205.331C293.175 211.657 302.908 219.346 311.889 226.707C313.58 228.083 315.248 229.455 316.883 230.81C331.672 242.945 344.435 253.434 354.719 255.165C364.219 256.764 370.709 250.643 375.15 235.896C381.711 214.125 380.796 198.121 372.18 184.011C365.172 172.545 353.397 163.171 339.77 152.311C329.682 144.266 318.243 135.151 306.63 123.538C294.53 111.44 284.37 99.0285 275.572 85.5763C271.888 79.9612 268.17 74.6847 264.525 69.8949C263.757 68.8876 263.008 67.9073 262.275 66.977C261.17 65.5691 260.099 64.2497 259.09 63.0478C258.666 62.5374 258.239 62.0385 257.821 61.5646C256.737 60.3144 255.656 59.1239 254.618 58.0239C253.792 57.1492 252.949 56.3072 252.121 55.5153C251.058 54.4941 250.09 53.6192 249.184 52.8617C248.518 52.3105 247.858 51.7843 247.212 51.3196C245.905 50.3403 244.562 49.509 243.216 48.8316C240.897 47.6583 238.752 47.0719 236.622 47.0337C228.748 46.9185 221.987 53.9432 212.632 63.6872C210.691 65.6978 208.69 67.7814 206.545 69.9475C198.489 78.0356 185.498 89.6354 165.821 96.9538C140.608 106.342 108.149 107.796 69.3544 101.266C60.2703 99.7366 50.7309 97.7394 41.0094 95.3437C39.938 95.0804 38.8723 94.8535 37.8565 94.6826L37.8681 94.6845Z" fill="#C1C1C1"/>
<path d="M107.477 236.969C99.9395 235.701 92.4265 233.582 85.1207 230.655C60.3154 220.417 43.1608 201.465 33.1302 187.367C10.9455 155.917 1.92329 117.987 12.5983 101.038C17.6715 92.9694 26.9101 90.3363 39.0936 93.4786C49.821 96.2453 60.2798 98.4921 70.1949 100.161C108.47 106.604 140.756 104.836 166.143 94.9078C185.546 87.3177 198.338 75.981 207.312 66.9558C209.557 64.688 211.658 62.5026 213.676 60.3863C223.21 50.4233 230.106 43.2315 238.257 43.4645C240.512 43.5356 242.765 44.1876 245.172 45.4708C246.533 46.1982 247.925 47.0969 249.29 48.1571C249.941 48.6583 250.62 49.2115 251.302 49.8127C252.255 50.6376 253.239 51.5625 254.294 52.6299C255.125 53.4699 255.982 54.3735 256.812 55.2962C257.863 56.4578 258.956 57.7215 260.051 59.0447C260.475 59.5552 260.898 60.0771 261.33 60.6126C262.38 61.9165 263.452 63.3071 264.537 64.7592C265.274 65.7376 266.027 66.766 266.797 67.8329C270.363 72.7399 274.074 78.2646 277.848 84.2625C286.743 98.4073 296.924 111.262 308.982 123.542C321.04 135.823 332.929 145.298 343.438 153.664C357.014 164.468 368.738 173.797 375.776 185.292C384.544 199.629 385.483 216.053 378.79 238.537C374.243 253.99 367.558 260.423 357.758 258.773C347.335 257.019 334.524 246.32 319.684 233.927C317.822 232.368 315.929 230.78 314.001 229.186C304.93 221.656 295.084 213.793 284.613 207.32C273.501 200.42 263.307 196.248 253.415 194.583C237.082 191.833 221.972 195.922 207.213 207.094C173.75 232.428 140.189 242.475 107.465 236.967L107.477 236.969ZM35.2283 93.1009C25.1055 91.397 17.4137 94.2192 12.9751 101.267C2.39267 118.089 11.4056 155.793 33.4942 187.108C43.4865 201.152 60.5911 220.048 85.285 230.244C92.5465 233.151 100.036 235.266 107.539 236.529C140.147 242.017 173.598 231.987 206.966 206.732C221.819 195.493 237.041 191.376 253.5 194.146C263.45 195.821 273.702 200.002 284.856 206.934C295.362 213.413 305.218 221.289 314.298 228.832C316.226 230.426 318.119 232.014 319.981 233.574C334.769 245.922 347.538 256.59 357.845 258.325C367.391 259.932 373.918 253.592 378.387 238.398C385.035 216.037 384.123 199.736 375.42 185.505C368.418 174.076 356.727 164.764 343.181 153.989C332.672 145.623 320.762 136.132 308.683 123.836C296.606 111.529 286.393 98.6568 277.49 84.487C273.725 78.5025 270.012 72.9893 266.458 68.0843C265.686 67.0289 264.945 66.0025 264.208 65.0241C263.132 63.5855 262.049 62.193 261.01 60.8909C260.578 60.3555 260.155 59.8335 259.742 59.325C258.648 58.0018 257.564 56.7516 256.513 55.59C255.684 54.6673 254.836 53.7772 254.004 52.9371C252.95 51.8698 251.975 50.9583 251.034 50.1354C250.35 49.5457 249.683 48.9945 249.041 48.5067C247.686 47.46 246.329 46.5672 244.989 45.8552C242.635 44.6048 240.45 43.976 238.266 43.905C230.306 43.6685 223.477 50.8123 214.016 60.6927C211.986 62.807 209.897 64.9944 207.64 67.2603C198.638 76.3162 185.805 87.6816 166.325 95.3062C140.862 105.269 108.502 107.048 70.1462 100.592C60.208 98.919 49.7376 96.6702 39.0006 93.8901C37.7157 93.5551 36.4558 93.2837 35.2438 93.0797L35.2283 93.1009Z" fill="#C1C1C1"/>
<path d="M107.711 240.782C99.4121 239.385 91.1723 236.93 83.2073 233.478C58.0569 222.399 40.6568 202.931 30.4977 188.538C7.70264 156.131 -1.56037 117.092 9.41937 99.6724C14.699 91.2949 24.334 88.6336 37.0867 92.0616C48.7372 95.1972 60.0557 97.6955 70.7442 99.4946C108.731 105.889 140.998 103.81 166.636 93.3064C186.078 85.3432 199.171 73.6301 208.418 64.3187C210.777 61.9395 212.953 59.66 215.06 57.44C224.702 47.3291 231.666 40.0182 239.915 40.3744C242.212 40.4764 244.526 41.1862 246.958 42.5329C248.325 43.2968 249.732 44.2456 251.143 45.3847C251.812 45.9244 252.498 46.5026 253.176 47.1269C254.166 48.0173 255.184 49.0192 256.2 50.1038C257.028 50.9669 257.889 51.9185 258.744 52.9048C259.789 54.101 260.882 55.4358 261.997 56.8457C262.418 57.3792 262.848 57.9262 263.286 58.4982C264.329 59.8483 265.412 61.312 266.497 62.8353C267.248 63.8752 268.014 64.9652 268.757 66.0513C272.14 70.9156 275.856 76.6904 279.793 83.2022C288.827 98.1416 299.061 111.456 311.061 123.869C323.578 136.879 335.951 146.721 346.893 155.409C360.379 166.114 372.008 175.368 379.043 186.815C387.861 201.208 388.795 217.94 382.067 241.059C377.467 256.966 370.722 263.613 360.876 261.956C350.453 260.202 337.646 249.338 322.828 236.747C320.741 234.972 318.6 233.164 316.438 231.341C307.715 223.999 297.342 215.597 286.554 208.965C275.415 202.083 265.182 197.928 255.267 196.259C238.427 193.425 222.843 197.79 207.61 209.594C174.022 235.808 140.41 246.298 107.721 240.796L107.711 240.782ZM32.6193 91.5232C22.2426 89.7765 14.3486 92.6716 9.79616 99.9019C-1.1006 117.181 8.1531 155.993 30.8617 188.279C40.994 202.62 58.3307 222.041 83.3831 233.068C91.3134 236.515 99.5321 238.955 107.785 240.344C140.347 245.825 173.849 235.352 207.339 209.228C222.669 197.345 238.375 192.953 255.343 195.809C265.316 197.488 275.604 201.664 286.785 208.576C297.595 215.225 307.989 223.642 316.721 230.997C318.885 232.808 321.012 234.626 323.111 236.403C337.878 248.949 350.642 259.783 360.95 261.518C370.53 263.13 377.113 256.598 381.648 240.941C388.343 217.947 387.426 201.325 378.671 187.049C371.685 175.67 360.074 166.443 346.621 155.754C335.681 147.055 323.285 137.21 310.749 124.172C298.718 111.73 288.475 98.4026 279.423 83.4247C275.485 76.9244 271.778 71.1632 268.406 66.3007C267.663 65.2146 266.895 64.1362 266.144 63.0963C265.059 61.573 263.974 60.1209 262.934 58.7592C262.505 58.2007 262.075 57.6537 261.654 57.1202C260.55 55.7123 259.453 54.4005 258.408 53.2043C257.554 52.218 256.703 51.2799 255.875 50.4168C254.856 49.3437 253.848 48.3553 252.87 47.4669C252.189 46.8541 251.517 46.2663 250.846 45.7381C249.466 44.6279 248.082 43.6831 246.725 42.9325C244.346 41.6187 242.102 40.9205 239.874 40.8302C231.825 40.4839 224.921 47.7219 215.363 57.7521C213.257 59.9721 211.067 62.2612 208.71 64.6289C199.434 73.971 186.298 85.7245 166.782 93.7106C141.067 104.248 108.715 106.337 70.6473 99.9292C59.9473 98.1281 48.6172 95.6278 36.9552 92.4903C35.4683 92.0858 34.0025 91.7678 32.6059 91.5328L32.6193 91.5232Z" fill="#C1C1C1"/>
<path d="M107.659 244.558C77.4636 239.476 49.1336 219.995 27.871 189.698C4.45585 156.321 -5.04789 116.173 6.2443 98.3077C11.7303 89.6209 21.7849 86.9353 35.072 90.6431C47.5878 94.1379 59.7084 96.878 71.101 98.7957C160.141 113.783 194.005 78.0999 216.425 54.4903C226.156 44.2046 233.197 36.788 241.543 37.2675C243.895 37.4022 246.247 38.1659 248.725 39.5916C250.1 40.3806 251.52 41.3909 252.965 42.607C253.63 43.1698 254.322 43.7845 255.029 44.4493C256.023 45.3877 257.056 46.4397 258.088 47.5743C258.929 48.499 259.796 49.4872 260.654 50.5215C261.711 51.7909 262.807 53.1738 263.925 54.6433C264.353 55.2018 264.779 55.7719 265.213 56.3669C266.268 57.7902 267.351 59.325 268.437 60.9079C269.182 61.9825 269.931 63.1051 270.697 64.2663C274.057 69.3403 277.757 75.3496 281.719 82.1385C303.979 120.328 329.581 140.643 350.134 156.963C379.538 180.29 398.974 195.699 385.311 243.586C380.635 259.943 373.845 266.785 363.953 265.12C353.519 263.364 340.718 252.323 325.898 239.53C323.598 237.541 321.244 235.519 318.847 233.467C301.002 218.266 280.024 201.72 257.02 197.848C239.671 194.928 223.637 199.573 207.992 212.055C174.072 239.115 140.315 250.043 107.671 244.56L107.659 244.558ZM30.0026 89.944C19.3719 88.1546 11.2873 91.1243 6.60954 98.5353C-4.59007 116.274 4.90247 156.206 28.2235 189.437C49.419 219.64 77.6528 239.057 107.721 244.118C140.248 249.593 173.882 238.691 207.706 211.71C223.447 199.149 239.606 194.466 257.082 197.407C280.19 201.297 301.231 217.89 319.117 233.132C321.516 235.173 323.868 237.207 326.168 239.196C340.938 251.933 353.685 262.941 364.004 264.678C373.642 266.3 380.274 259.55 384.859 243.451C398.449 195.86 379.108 180.515 349.832 157.28C329.246 140.942 303.613 120.599 281.306 82.3301C277.355 75.5548 273.654 69.5454 270.304 64.4849C269.538 63.3237 268.776 62.2107 268.042 61.1381C266.956 59.5552 265.871 58.0319 264.828 56.6106C264.394 56.0155 263.968 55.4454 263.54 54.8869C262.433 53.4194 261.335 52.048 260.279 50.7787C259.43 49.7578 258.575 48.7715 257.731 47.8584C256.698 46.7353 255.676 45.6853 254.694 44.7488C253.996 44.0975 253.316 43.4847 252.649 42.9334C251.223 41.7443 249.824 40.7494 248.472 39.9643C246.06 38.5734 243.775 37.8329 241.495 37.6982C233.36 37.2306 226.377 44.5858 216.709 54.7755C205.555 66.5303 191.66 81.1696 169.117 91.2684C142.438 103.234 110.332 105.838 70.9945 99.2167C59.5904 97.2972 47.4583 94.5551 34.9194 91.0563C33.2306 90.5823 31.5609 90.2063 29.9795 89.9401L30.0026 89.944Z" fill="#C1C1C1"/>
</g>
<defs>
<clipPath id="clip0_1098_1087">
<rect width="226.72" height="400.908" fill="white" transform="translate(415.977 66.5449) rotate(99.5546)"/>
</clipPath>
</defs>
</svg>
