<svg width="15" height="14" viewBox="0 0 15 14" fill="none" xmlns="http://www.w3.org/2000/svg">
<path d="M7.99686 14.0002H7.01321C6.98337 13.9917 6.95408 13.9777 6.92369 13.9753C5.9644 13.9 5.06343 13.6277 4.21173 13.1826C4.14904 13.1498 4.05459 13.1451 3.98505 13.164C3.37208 13.3291 2.76103 13.5012 2.15025 13.6739C1.77601 13.7798 1.40314 13.8912 1.02944 14.0002H0.810974C0.509281 13.8305 0.46055 13.7059 0.556916 13.3616C0.822746 12.4133 1.08693 11.4644 1.3555 10.5166C1.38151 10.4249 1.36207 10.3546 1.32046 10.2744C0.50052 8.69625 0.287801 7.0352 0.715429 5.31257C1.73878 1.19101 6.18123 -1.09078 10.1136 0.519909C12.4681 1.48441 13.8906 3.27053 14.3905 5.77429C14.4392 6.01842 14.4641 6.26721 14.5 6.51408V7.49774C14.4912 7.5325 14.4775 7.56698 14.4745 7.60229C14.3751 8.81968 13.9864 9.93827 13.2896 10.9397C12.1727 12.5447 10.653 13.5412 8.72235 13.8937C8.48198 13.9375 8.23888 13.9651 7.99686 14.0002ZM1.51483 12.9968C2.3397 12.7655 3.13993 12.5444 3.93769 12.3156C4.12905 12.2608 4.29359 12.2778 4.47072 12.3763C5.86393 13.152 7.34392 13.372 8.89811 13.0157C12.2685 12.2433 14.3494 8.80901 13.4837 5.46419C12.6389 2.19957 9.32519 0.212551 6.04188 1.00982C4.6139 1.35659 3.45476 2.12868 2.57213 3.299C1.60792 4.57797 1.2167 6.02937 1.36317 7.62063C1.44393 8.50055 1.71441 9.32602 2.16011 10.091C2.23868 10.2259 2.25346 10.3606 2.20911 10.5092C2.14286 10.7309 2.08373 10.9548 2.02158 11.1778C1.85486 11.7759 1.6884 12.3739 1.51483 12.9965V12.9968Z" fill="white"/>
<path d="M8.81593 10.7921C7.85063 10.7417 7.00057 10.3974 6.22581 9.85494C5.177 9.12062 4.39511 8.17063 3.97104 6.95105C3.7304 6.25915 3.65347 5.55357 3.86756 4.83567C4.04797 4.2308 4.44768 3.78495 4.94238 3.43162C5.43982 3.07636 6.1152 3.15354 6.56473 3.57202C6.71777 3.71462 6.86615 3.86296 7.00906 4.01623C7.48104 4.52283 7.49226 5.28343 7.03753 5.80537C6.96279 5.89103 6.87792 5.96767 6.80072 6.05114C6.69258 6.16828 6.68711 6.30239 6.79935 6.41598C7.22807 6.85006 7.65954 7.2814 8.09373 7.71C8.20707 7.82194 8.34149 7.81565 8.45894 7.70754C8.53258 7.63966 8.59966 7.56494 8.67358 7.49734C9.20825 7.01017 9.99177 7.01865 10.5141 7.51814C10.6425 7.64076 10.7674 7.7672 10.8911 7.89447C11.4315 8.44898 11.4288 9.24543 10.8947 9.80458C10.5385 10.1776 10.1615 10.5189 9.64463 10.644C9.37251 10.71 9.09244 10.7434 8.81593 10.7915V10.7921ZM4.55499 5.69014C4.58538 5.90088 4.59168 6.11847 4.64944 6.32155C5.14196 8.04911 6.26441 9.18987 7.94097 9.79363C8.38749 9.95429 8.85372 9.98248 9.32515 9.88012C9.79192 9.77886 10.1068 9.46685 10.3887 9.11761C10.5303 8.94217 10.4903 8.67286 10.3304 8.50289C10.2026 8.36714 10.0706 8.23467 9.93483 8.10686C9.72485 7.90898 9.43383 7.91308 9.22276 8.11261C9.14665 8.18459 9.07602 8.26232 8.99854 8.33238C8.58378 8.70816 7.96561 8.72075 7.56043 8.33539C7.08572 7.88407 6.62195 7.42016 6.17078 6.9453C5.78723 6.54188 5.80201 5.91785 6.17899 5.50759C6.25291 5.42712 6.33477 5.35404 6.40814 5.2733C6.59156 5.07132 6.59841 4.79078 6.41717 4.59235C6.2822 4.44456 6.13984 4.30333 5.99283 4.16758C5.82172 4.00966 5.54056 3.99105 5.36398 4.13583C4.87558 4.53625 4.53227 5.01494 4.55499 5.69014Z" fill="white"/>
</svg>
