<svg width="1600" height="1170" viewBox="0 0 1600 1170" fill="none" xmlns="http://www.w3.org/2000/svg">
<g opacity="0.2" clip-path="url(#clip0_1172_21911)">
<path d="M461.226 675.297C439.395 671.622 418.864 660.511 401.865 643.2C368.349 609.139 353.453 556.586 365.653 515.387C370.981 491.979 395.528 485.202 445.241 493.569C471.912 498.059 502.745 506.263 535.401 515.013C569.662 524.177 605.126 533.591 637.561 539.099L638.167 539.2C691.649 548.203 725.473 544.327 744.574 526.969C767.396 506.266 791.486 489.125 816.237 476.019C871.525 446.714 932.58 436.609 992.858 446.755C1015.53 450.571 1038.19 457.256 1060.27 466.57C1126.67 494.637 1183.35 543.219 1215.76 599.82C1243.9 649.053 1248.5 696.523 1227.18 717.958C1207.82 737.426 1163.25 744.565 1113.63 736.213C1067.97 728.527 1020.03 708.496 975.003 678.239C942.631 651.595 875.309 604.809 787.8 590.08C700.291 575.35 615.837 597.64 541.949 657.258C514.577 673.703 487.416 679.801 461.21 675.39L461.226 675.297ZM444.943 495.337C396.394 487.166 372.445 493.517 367.39 515.871C355.331 556.519 370.018 608.319 403.124 641.977C419.883 659.008 440.104 669.971 461.515 673.575C487.303 677.916 514.014 671.934 540.958 655.752C615.126 595.894 698.316 573.152 788.105 588.265C877.895 603.379 943.65 650.091 976.108 676.798C1020.84 706.814 1068.55 726.759 1113.94 734.398C1163 742.656 1206.96 735.702 1225.91 716.645C1246.66 695.783 1241.97 649.158 1214.18 600.655C1182.01 544.381 1125.66 496.094 1059.57 468.175C1037.63 458.884 1015.05 452.261 992.568 448.477C932.709 438.401 872.042 448.476 817.073 477.595C792.43 490.624 768.449 507.687 745.735 528.312C726.184 546.073 691.903 550.111 637.815 541.007L637.21 540.905C604.673 535.429 569.225 525.921 534.909 516.796C502.292 508.1 471.514 499.858 444.935 495.384L444.943 495.337Z" fill="#C1C1C1"/>
<path d="M455.797 683.665C431.825 679.63 409.495 667.259 391.22 647.868C353.646 608.051 338.84 547.284 357.545 509.525C366.596 487.891 394.594 482.221 448.17 491.239C473.538 495.509 501.758 502.46 531.638 509.786C562.805 517.425 595.028 525.336 625.144 530.406C630.078 531.236 634.888 531.95 639.419 532.617C692.927 540.045 728.716 534.73 748.866 516.256C774.898 492.409 799.105 475.145 822.752 463.48C827.497 461.168 832.513 458.951 838.15 456.742C842.35 455.104 845.821 453.822 848.965 452.773C850.945 452.101 852.925 451.43 854.851 450.797C857.731 449.894 860.704 449.007 863.973 448.074C866.783 447.303 869.585 446.579 872.388 445.854C876.137 444.907 879.964 444.068 883.775 443.322C885.312 443.006 886.896 442.699 888.425 442.43C892.228 441.73 896.218 441.062 900.479 440.488C903.374 440.066 906.3 439.745 909.273 439.432C924.873 437.752 940.331 437.483 955.236 438.509C965.121 439.215 975.114 440.419 984.982 442.08C1013.38 446.859 1041.5 455.517 1068.49 467.81C1138.07 499.473 1196.47 549.78 1228.72 605.877C1257.06 655.288 1261.59 703.177 1240.23 728.002C1221.97 749.185 1181.75 756.913 1132.55 748.632C1107.98 744.495 1082.21 736.617 1055.9 725.155C1031.51 714.495 1006.9 700.88 982.715 684.752C945.909 655.16 886.976 617.395 814.735 605.235L813.618 605.047C709.049 587.876 614.989 609.22 534.164 668.531C507.533 682.852 481.165 687.935 455.704 683.649L455.797 683.665ZM447.872 493.007C395.227 484.146 367.866 489.445 359.189 510.28C340.764 547.512 355.385 607.387 392.517 646.698C410.553 665.81 432.534 677.979 456.086 681.943C481.175 686.166 507.148 681.16 533.305 667.095C614.456 607.551 708.919 586.084 814.001 603.341L815.118 603.529C887.731 615.752 946.92 653.704 983.858 683.365C1007.87 699.416 1032.4 712.922 1056.69 723.567C1082.87 734.959 1108.55 742.821 1132.94 746.926C1181.48 755.098 1221.13 747.609 1238.98 726.883C1259.82 702.639 1255.26 655.51 1227.27 606.782C1195.25 551.058 1137.14 500.992 1067.87 469.476C1040.97 457.245 1013.03 448.62 984.777 443.864C975.002 442.218 965.056 441.023 955.218 440.324C940.413 439.267 925.048 439.551 909.549 441.201C906.623 441.522 903.744 441.85 900.802 442.264C896.541 442.839 892.606 443.468 888.803 444.168C887.273 444.437 885.736 444.752 884.153 445.06C880.388 445.814 876.561 446.653 872.858 447.608C870.064 448.286 867.308 449.018 864.498 449.789C861.237 450.676 858.264 451.563 855.43 452.473C853.458 453.098 851.533 453.731 849.545 454.449C846.401 455.499 843.031 456.75 838.83 458.387C833.247 460.557 828.239 462.729 823.587 465.056C800.049 476.643 775.998 493.838 750.082 517.561C729.536 536.399 693.243 541.868 639.175 534.346C634.59 533.718 629.788 532.958 624.854 532.127C594.645 527.042 562.376 519.123 531.209 511.484C501.329 504.158 473.148 497.262 447.826 493L447.872 493.007Z" fill="#C1C1C1"/>
<path d="M450.724 692.188C424.518 687.777 400.259 674.077 380.62 652.543C338.377 606.343 324.149 538.161 349.492 503.624C366.037 478.132 413.272 482.447 452.511 489.052C475.878 492.985 501.019 498.604 527.627 504.614C554.932 510.741 583.199 517.126 610.103 521.654C621.461 523.566 631.655 524.995 641.338 526.05C694.492 531.887 732.177 524.978 753.259 505.513C782.393 478.599 806.568 461.234 829.367 450.909C834.081 448.784 839.151 446.815 845.323 444.839C849.422 443.52 852.862 442.424 856.371 441.484C858.335 440.905 860.384 440.389 862.379 439.912C865.182 439.187 868.217 438.502 871.64 437.786C874.465 437.209 877.291 436.632 880.147 436.156C883.997 435.465 887.878 434.874 891.596 434.399C893.164 434.185 894.724 434.017 896.292 433.802C900.296 433.328 904.379 432.962 908.399 432.682C911.301 432.501 914.25 432.327 917.191 432.201C933.302 431.467 948.363 432.137 963.088 434.232C966.222 434.664 969.341 435.189 972.46 435.714C1008.53 441.786 1043.68 453.061 1076.86 469.22C1150.84 505.211 1209.41 555.93 1241.79 612.096C1270.38 661.787 1274.84 710.095 1253.34 738.247C1235.91 761.053 1198.59 769.508 1150.92 761.485C1124.25 756.995 1095.56 747.716 1065.62 733.921C1041.41 722.765 1016.11 708.458 990.496 691.42C955.51 663.81 900.104 628.695 834.705 617.687C828.235 616.598 821.679 615.734 815.263 615.18C702.163 604.899 607.739 626.133 526.526 680.068C500.814 692.342 475.332 696.426 450.709 692.282L450.724 692.188ZM452.214 490.82C394.681 481.136 363.426 485.396 350.949 504.635C326.042 538.575 340.201 605.741 381.872 651.366C401.278 672.574 425.181 686.119 450.968 690.459C475.219 694.541 500.359 690.496 525.652 678.438C607.082 624.348 701.902 603.036 815.437 613.295C821.9 613.857 828.502 614.729 835.019 615.826C900.837 626.905 956.498 662.206 991.569 689.878C1017.06 706.8 1042.23 721.037 1066.39 732.185C1096.19 745.957 1124.75 755.165 1151.24 759.623C1198.25 767.537 1234.96 759.314 1251.96 737.058C1272.97 709.495 1268.48 661.947 1240.27 612.893C1208.03 557.037 1149.7 506.551 1076.09 470.716C1043.08 454.635 1008.11 443.438 972.178 437.389C969.059 436.864 965.987 436.347 962.853 435.915C948.213 433.882 933.299 433.189 917.29 433.892C914.348 434.019 911.454 434.153 908.543 434.381C904.57 434.669 900.488 435.035 896.529 435.517C894.969 435.685 893.448 435.907 891.88 436.122C888.163 436.596 884.375 437.203 880.525 437.894C877.715 438.378 874.89 438.955 872.111 439.54C868.734 440.264 865.699 440.949 862.951 441.635C860.956 442.112 858.953 442.636 856.989 443.215C853.488 444.109 850.048 445.204 845.996 446.532C839.917 448.523 834.901 450.453 830.242 452.54C807.598 462.795 783.578 480.091 754.615 506.841C733.09 526.662 695.001 533.696 641.281 527.811C631.552 526.748 621.311 525.311 609.953 523.399C582.956 518.855 554.681 512.517 527.337 506.335C500.768 500.38 475.635 494.714 452.315 490.789L452.214 490.82Z" fill="#C1C1C1"/>
<path d="M445.993 700.961C417.413 696.15 391.138 681.058 370.013 657.264C323.286 604.711 309.707 528.696 341.469 497.824C363.031 474.66 413.059 479.444 459.187 487.209C479.575 490.641 500.769 494.973 523.25 499.619C545.925 504.249 569.375 509.105 592.09 512.928C611.547 516.203 628.313 518.404 643.334 519.592C696.886 523.917 735.38 515.613 757.73 494.878C780.545 473.647 807.679 450.369 836.06 438.448C840.85 436.431 846.076 434.679 852.581 432.999C856.393 431.966 860.142 431.019 863.899 430.311C865.886 429.88 867.966 429.465 869.992 429.088C872.709 428.589 875.612 428.12 879.384 427.607C882.225 427.224 885.066 426.841 887.945 426.512C891.849 426.069 895.737 425.719 899.462 425.484C901.061 425.371 902.605 425.296 904.15 425.221C908.107 425.026 912.197 424.901 916.31 424.923C919.134 424.92 921.951 424.964 924.814 425.015L925.14 425.07C941.606 425.353 956.604 426.969 970.986 429.964C1011.33 438.525 1049.77 452.172 1085.26 470.537C1162.71 510.607 1222.95 563.042 1254.97 618.238C1283.88 668.317 1288.23 716.99 1266.57 748.368C1249.72 772.851 1214.9 782.062 1168.64 774.274C1140.43 769.526 1109.06 758.839 1075.47 742.563C1051.4 730.857 1025.44 715.866 998.385 698.011C949.3 660.037 899.673 636.66 850.798 628.434C839.487 626.53 828.089 625.425 816.931 625.173C739.583 623.445 624.535 628.434 518.911 691.465C494.234 701.856 469.716 705.05 446.023 701.062L445.993 700.961ZM458.89 488.977C413.227 481.291 363.773 476.507 342.748 499.044C311.56 529.343 325.196 604.172 371.365 656.056C392.211 679.516 418.129 694.453 446.29 699.193C469.657 703.126 493.787 699.963 518.091 689.796C624.034 626.579 739.415 621.599 816.949 623.358C828.201 623.625 839.699 624.7 851.057 626.611C900.211 634.885 950.102 658.402 999.357 696.5C1026.33 714.293 1052.19 729.268 1076.17 740.912C1109.59 757.11 1140.77 767.766 1168.84 772.49C1214.41 780.161 1248.56 771.22 1265.02 747.342C1286.29 716.521 1281.91 668.609 1253.34 619.112C1221.51 564.234 1161.51 512.032 1084.37 472.11C1049.06 453.823 1010.76 440.246 970.549 431.708C956.26 428.729 941.41 427.091 925.045 426.776L924.719 426.721C921.894 426.724 919.077 426.681 916.253 426.684C912.187 426.669 908.097 426.794 904.186 426.997C902.595 427.064 901.043 427.186 899.498 427.261C895.82 427.503 891.939 427.806 888.082 428.258C885.203 428.586 882.37 428.923 879.568 429.36C875.796 429.874 872.939 430.35 870.269 430.857C868.243 431.234 866.217 431.611 864.222 432.088C860.512 432.803 856.91 433.728 853.005 434.745C846.639 436.449 841.422 438.154 836.732 440.14C808.608 451.96 781.591 475.115 758.938 496.23C736.192 517.328 697.287 525.803 643.168 521.43C628.1 520.234 611.288 518.026 591.831 514.751C569.07 510.92 545.611 506.11 522.898 501.425C500.455 496.834 479.27 492.455 458.929 489.031L458.89 488.977Z" fill="#C1C1C1"/>
<path d="M441.566 709.928C410.519 704.702 382.151 688.109 359.416 661.939C326.425 623.899 307.315 572.215 311.914 533.23C314.115 514.75 321.548 500.451 333.457 491.977C360.393 471.01 415.2 476.694 470.452 485.995C485.998 488.611 501.684 491.539 518.293 494.669C534.771 497.73 551.799 500.931 568.509 503.744C599.696 508.993 624.089 511.951 645.248 513.072C699.19 515.932 738.494 506.232 762.118 484.181C791.671 456.477 816.666 435.949 842.67 425.924C847.584 424.024 853.011 422.497 859.756 421.097C863.281 420.351 867.294 419.543 871.353 419.03C873.371 418.7 875.474 418.432 877.523 418.203C880.255 417.897 883.228 417.584 887.054 417.319C889.91 417.13 892.774 416.894 895.66 416.806C899.758 416.634 903.553 416.555 907.285 416.562C908.86 416.588 910.443 416.567 912.019 416.593C915.937 416.631 920.019 416.839 924.232 417.118C926.598 417.277 929.004 417.49 931.417 417.657L933.069 417.792C941.185 418.488 948.734 419.424 956.042 420.654C963.908 421.978 971.573 423.651 978.84 425.688C1020.34 437.361 1058.98 452.909 1093.65 471.854C1175.88 516.842 1236.22 569.58 1268.11 624.373C1297.41 674.949 1301.63 723.839 1279.75 758.528C1263.18 784.78 1230.59 794.701 1185.57 787.124C1156.16 782.173 1122.43 770.085 1085.31 751.205C1061.23 738.971 1035.37 723.709 1006.23 704.594C958.493 668.282 910.796 645.948 864.482 638.153C849.075 635.559 833.642 634.54 818.602 635.167C717.298 639.263 609.939 650.329 511.261 702.808C487.704 711.378 464.32 713.806 441.651 709.99L441.566 709.928ZM470.162 487.716C415.329 478.487 360.957 472.779 334.518 493.352C322.982 501.601 315.822 515.419 313.707 533.388C309.147 571.854 328.056 623.025 360.776 660.685C383.224 686.568 411.29 702.966 441.872 708.113C464.214 711.874 487.304 709.493 510.449 701.093C609.336 648.506 716.89 637.424 818.442 633.274C833.621 632.671 849.202 633.667 864.702 636.276C911.296 644.119 959.256 666.593 1007.16 703.029C1036.17 722.074 1061.99 737.328 1086.03 749.508C1123.02 768.318 1156.56 780.327 1185.79 785.247C1230.06 792.698 1261.98 783.095 1278.16 757.494C1299.37 723.889 1295.01 674.448 1266.49 625.2C1234.78 570.726 1174.69 518.22 1092.74 473.327C1058.2 454.404 1019.69 438.927 978.334 427.277C971.104 425.294 963.495 423.583 955.721 422.275C948.413 421.044 940.957 420.124 932.888 419.436L931.236 419.301C928.83 419.088 926.472 418.882 924.105 418.723C919.938 418.452 915.896 418.298 912.032 418.222C910.456 418.196 908.881 418.17 907.345 418.199C903.659 418.2 899.872 418.233 895.813 418.458C892.918 418.593 890.062 418.782 887.253 418.979C883.427 419.244 880.555 419.526 877.823 419.832C875.774 420.061 873.718 420.337 871.653 420.659C867.695 421.141 863.682 421.949 860.204 422.704C853.56 424.073 848.234 425.569 843.42 427.438C817.719 437.37 792.841 457.775 763.45 485.362C739.484 507.739 699.715 517.647 645.3 514.755C624.094 513.626 599.655 510.661 568.375 505.396C551.618 502.575 534.582 499.421 518.112 496.313C501.496 493.229 485.81 490.302 470.263 487.685L470.162 487.716Z" fill="#C1C1C1"/>
<path d="M437.475 719.144C403.868 713.487 373.182 695.308 348.767 666.606C312.206 623.611 292.074 565.201 299.811 524.639C303.284 506.564 312.081 493.26 325.385 486.17C360.25 466.154 422.867 474.636 501.066 487.799L524.247 491.701C567.303 498.948 609.08 505.55 647.063 506.536C700.581 507.937 741.858 496.465 766.36 473.461C793.847 447.514 820.881 423.405 849.142 413.33C854.228 411.555 859.817 410.199 866.74 409.164C870.326 408.619 874.447 408.021 878.561 407.756C880.61 407.527 882.736 407.406 884.862 407.286C888.199 407.082 891.606 407.034 894.485 406.992C897.364 406.95 900.282 406.963 903.192 407.022C907.343 407.099 911.137 407.307 914.877 407.554C916.437 407.673 918.043 407.799 919.602 407.918C923.521 408.243 927.656 408.7 931.822 409.258C933.04 409.415 934.204 409.611 935.414 409.814C937.09 410.096 938.859 410.394 940.604 410.544C954.632 411.949 969.495 415.503 986.41 421.364C1029.55 436.376 1067.29 453.303 1101.71 473.163C1188.98 523.449 1249.28 576.42 1280.91 630.499C1310.19 680.928 1314.45 731.26 1292.59 768.68C1276.13 796.817 1245.49 807.354 1201.46 799.942C1171.3 794.865 1135.37 781.401 1094.77 759.831C1071.39 747.428 1044.88 731.482 1013.74 711.123C967.022 676.178 920.767 654.66 876.314 647.178C857.369 643.989 838.382 643.329 819.934 645.152C719.118 655.167 604.812 666.548 503.31 714.197C480.981 721.156 458.824 722.833 437.366 719.221L437.475 719.144ZM500.776 489.521C422.903 476.413 360.619 467.939 326.228 487.699C313.453 494.496 304.92 507.365 301.58 524.936C293.921 565.033 313.868 622.839 350.158 665.453C374.294 693.821 404.584 711.79 437.772 717.376C458.998 720.949 480.86 719.318 502.785 712.482C604.443 664.763 718.895 653.359 819.859 643.321C838.455 641.475 857.582 642.159 876.713 645.379C921.491 652.916 967.971 674.519 1014.86 709.589C1045.9 729.932 1072.38 745.824 1095.72 758.173C1136.14 779.618 1171.89 793.051 1201.87 798.096C1245.11 805.375 1275.12 795.117 1291.18 767.677C1312.69 730.869 1308.43 681.157 1279.48 631.311C1248.04 577.504 1187.95 524.758 1100.94 474.613C1066.6 454.814 1028.96 437.903 985.95 422.961C969.221 417.131 954.443 413.639 940.555 412.259C938.771 412.054 936.994 411.803 935.272 411.513C934.108 411.317 932.898 411.113 931.726 410.964C927.56 410.406 923.471 409.957 919.6 409.64C918.04 409.521 916.434 409.395 914.875 409.276C911.189 408.99 907.387 408.829 903.282 408.76C900.372 408.7 897.501 408.696 894.622 408.737C891.743 408.779 888.383 408.835 885.054 408.993C882.974 409.121 880.894 409.249 878.799 409.471C874.693 409.689 870.657 410.349 867.071 410.894C860.241 411.945 854.76 413.224 849.768 415.015C821.817 424.951 794.946 448.943 767.631 474.727C742.732 498.095 701.051 509.691 647.053 508.305C608.93 507.294 567.052 500.724 523.949 493.469L500.722 489.559L500.776 489.521Z" fill="#C1C1C1"/>
<path d="M433.73 728.608C397.935 722.583 363.978 702.227 338.17 671.281C297.745 622.804 277.031 559.319 287.875 516.792C292.434 498.804 302.643 486.217 317.364 480.37C359.481 462.484 430.701 473.323 506.109 484.868C554.736 492.287 605.04 499.989 649.077 499.985C702.931 499.959 745.071 487.053 770.848 462.733C801.957 433.186 827.996 409.866 855.845 400.822C861.062 399.117 866.852 397.986 874.008 397.277C877.516 396.911 881.847 396.491 886.107 396.491C888.086 396.393 890.096 396.397 892.486 396.416C895.838 396.406 899.159 396.582 902.239 396.766C905.134 396.918 908.067 397.125 911.038 397.386C915.236 397.757 919.045 398.159 922.785 398.693C924.367 398.96 925.966 399.133 927.556 399.353C931.621 399.941 935.71 400.677 939.837 401.468C941.737 401.835 943.63 402.25 945.569 402.672L948.711 403.344C966.181 407.05 980.716 411.411 994.411 417.065C1040.09 436.045 1076.89 454.296 1110.26 474.458C1202.88 530.477 1263.02 583.517 1294.19 636.61C1323.9 687.637 1328.03 738.14 1305.93 778.771C1289.72 808.483 1259.89 819.92 1217.21 812.736C1186.53 807.572 1148.69 792.686 1104.71 768.442C1075.58 752.391 1045.03 732.847 1021.69 717.675C975.78 683.871 930.611 663.015 887.508 655.76C865.259 652.015 843.128 651.831 821.659 655.107C804.505 657.769 786.941 660.315 769.966 662.769C677.564 676.257 582.018 690.222 495.759 725.509C474.83 730.981 453.986 731.97 433.784 728.57L433.73 728.608ZM932.161 401.85C930.532 401.576 928.903 401.302 927.313 401.082C925.73 400.816 924.132 400.642 922.588 400.43C918.895 399.904 915.086 399.502 910.935 399.139C908.01 398.885 905.077 398.679 902.182 398.527C899.102 398.343 895.773 398.213 892.475 398.185C890.132 398.173 888.122 398.169 886.143 398.267C882.217 398.276 878.577 398.572 874.192 399.03C867.183 399.717 861.494 400.816 856.424 402.499C828.925 411.458 803.049 434.661 772.065 464.038C745.938 488.73 703.394 501.76 649.059 501.8C604.874 501.827 554.524 494.117 505.811 486.636C430.682 475.138 359.704 464.291 317.998 482.007C303.843 487.615 293.993 499.784 289.574 517.221C279.026 558.555 300.081 622.862 339.514 670.12C365.043 700.732 398.605 720.878 433.981 726.833C453.95 730.194 474.507 729.204 495.133 723.825C581.493 688.506 677.14 674.511 769.635 661.038C786.61 658.585 804.136 655.985 821.328 653.376C842.952 650.031 865.316 650.254 887.752 654.031C931.134 661.333 976.528 682.275 1022.65 716.21C1045.9 731.367 1076.42 750.857 1105.5 766.9C1149.25 791.058 1186.92 805.867 1217.41 810.998C1259.21 818.034 1288.45 806.929 1304.25 777.915C1326.08 737.811 1321.97 687.983 1292.56 637.484C1261.59 584.616 1201.6 531.793 1109.24 475.961C1075.96 455.815 1039.25 437.626 993.664 418.662C980.108 413.031 965.666 408.686 948.282 405.042L945.14 404.37C943.247 403.956 941.354 403.541 939.454 403.173C937.002 402.665 934.582 402.258 932.115 401.843L932.161 401.85Z" fill="#C1C1C1"/>
<path d="M430.325 738.322C391.737 731.827 355.253 709.705 327.563 676.003C284.104 623.091 262.383 553.074 275.875 509.605C281.513 491.464 293.071 479.39 309.28 474.655C355.14 460.413 424.708 469.97 498.334 480.162C550.446 487.355 604.296 494.744 650.974 493.558C705.155 492.152 748.16 477.813 775.227 452.083C804.828 423.813 832.773 397.13 862.445 388.345C867.841 386.718 873.786 385.805 881.174 385.421C885.52 385.196 889.424 385.04 893.544 385.303C895.74 385.337 897.975 385.426 900.007 385.577C903.468 385.777 906.944 386.171 909.9 386.525C912.809 386.871 915.765 387.225 918.752 387.68C922.67 388.291 926.58 388.949 930.606 389.771C932.181 390.084 933.802 390.404 935.369 390.764C939.294 391.616 943.39 392.592 947.656 393.693C949.448 394.138 951.224 394.677 953.008 395.168C954.195 395.512 955.335 395.847 956.53 396.144C974.098 400.967 988.625 406.235 1002.16 412.82C1037.27 429.781 1078.52 450.552 1118.5 475.844C1218.04 538.818 1276.24 590.288 1307.18 642.814C1336.89 693.794 1341.08 745.694 1318.86 788.985C1302.6 820.745 1274.25 832.72 1232.12 825.676C1200.75 820.395 1162.25 804.538 1114.4 777.154C1087.19 761.618 1058.69 743.28 1029.43 724.289C984.135 691.402 939.818 671.168 897.74 664.085C872.464 659.831 847.368 660.2 823.173 665.17C787.474 672.51 751.094 678.778 715.893 684.862C635.534 698.751 559.622 711.81 487.991 736.976C468.538 741.07 449.169 741.542 430.317 738.368L430.325 738.322ZM922.985 390.115C921.449 389.856 919.96 389.605 918.47 389.355C915.483 388.9 912.574 388.554 909.664 388.207C906.755 387.861 903.279 387.468 899.865 387.276C897.832 387.125 895.644 387.044 893.448 387.009C889.374 386.754 885.518 386.918 881.226 387.105C874.032 387.473 868.188 388.355 862.947 389.913C833.718 398.629 805.897 425.141 776.467 453.248C749.065 479.257 705.696 493.774 651.033 495.195C604.255 496.412 550.273 488.952 498.106 481.798C424.659 471.684 355.285 462.112 309.775 476.269C294.124 480.812 282.97 492.474 277.527 510.026C264.207 553.046 285.812 622.326 328.915 674.795C356.326 708.164 392.461 730.083 430.63 736.507C449.249 739.641 468.378 739.177 487.536 735.129C559.206 710.017 635.18 696.873 715.632 683C750.786 676.908 787.167 670.64 822.819 663.292C847.216 658.26 872.553 657.884 898.014 662.169C940.372 669.299 984.906 689.666 1030.42 722.685C1059.59 741.614 1088.1 759.952 1115.26 775.48C1162.94 802.739 1201.26 818.519 1232.4 823.76C1273.64 830.702 1301.4 819.013 1317.29 788.052C1339.18 745.326 1335.03 694.008 1305.62 643.556C1274.87 591.302 1216.84 539.956 1117.55 477.169C1077.62 451.932 1036.45 431.222 1001.39 414.269C987.939 407.746 973.553 402.502 956.069 397.741C954.883 397.398 953.688 397.101 952.548 396.765C950.764 396.274 949.026 395.79 947.242 395.298C943.023 394.205 938.88 393.221 935.002 392.377C933.427 392.064 931.813 391.696 930.239 391.383C927.834 390.883 925.413 390.476 923.04 390.076L922.985 390.115Z" fill="#C1C1C1"/>
<path d="M427.257 748.284C385.737 741.295 346.556 717.284 316.923 680.623C270.723 623.518 247.887 547.046 263.785 502.642C270.386 484.184 283.317 472.486 301.17 468.793C350.043 457.977 417.603 466.382 489.058 475.252C545.183 482.211 603.223 489.444 652.859 486.891C707.369 484.104 751.19 468.323 779.587 441.238L779.866 440.998C813.26 408.965 839.69 383.606 869.027 375.674C874.648 374.132 880.795 373.444 888.314 373.418C892.528 373.41 896.64 373.432 900.907 373.959C903.134 374.095 905.338 374.37 907.448 374.629C908.759 374.802 910.07 374.975 911.42 375.202L914.073 375.649C915.191 375.837 916.308 376.025 917.471 376.221C919.907 376.535 922.359 377.043 924.802 377.598L926.462 377.973C930.76 378.888 934.623 379.825 938.385 380.794L938.804 380.864C940.262 381.301 941.728 381.691 943.186 382.128C947.165 383.228 951.175 384.43 955.527 385.88C957.202 386.449 958.924 387.026 960.599 387.595C961.863 388.047 963.135 388.452 964.399 388.904C982.067 394.845 996.522 401.105 1009.93 408.481C1046.41 428.593 1087.72 451.336 1126.8 477.099C1205 528.681 1282.6 585.187 1320.22 648.932C1350.48 700.627 1354.51 752.596 1331.94 799.129C1315.74 832.526 1287.91 845.401 1246.72 838.468C1215.25 833.171 1175.17 815.946 1124.15 785.78C1100.16 771.599 1075.43 755.571 1049.27 738.633L1037.23 730.817C991.828 698.295 949.395 679.095 907.502 672.044C879.341 667.304 851.497 668.359 824.746 675.147C770.041 689.048 715.086 699.032 661.9 708.739C597.948 720.414 537.606 731.405 480.288 748.311C462.421 751.236 444.62 751.206 427.304 748.292L427.257 748.284ZM911.115 377.017C909.811 376.797 908.508 376.578 907.244 376.413C905.133 376.154 902.922 375.925 900.75 375.751C896.521 375.278 892.463 375.217 888.296 375.233C880.924 375.236 874.963 375.955 869.498 377.428C840.603 385.291 814.352 410.441 781.129 442.311L780.842 442.598C752.158 469.969 707.972 485.928 652.981 488.729C603.205 491.259 545.11 484.064 488.893 477.09C417.531 468.236 350.157 459.862 301.587 470.585C284.385 474.101 271.898 485.444 265.499 503.265C249.796 547.08 272.509 622.862 318.352 679.524C347.714 715.805 386.5 739.606 427.602 746.524C444.731 749.407 462.346 749.406 479.919 746.526C537.228 729.667 597.625 718.637 661.623 706.97C714.754 697.302 769.718 687.271 824.322 673.401C851.322 666.559 879.406 665.497 907.8 670.276C949.972 677.374 992.622 696.706 1038.2 729.353L1050.2 737.114C1076.36 754.052 1101.09 770.034 1125.03 784.207C1175.84 814.241 1215.74 831.435 1247.02 836.7C1287.33 843.485 1314.57 830.941 1330.35 798.335C1352.64 752.329 1348.6 700.981 1318.68 649.822C1281.25 586.395 1203.85 530.067 1125.83 478.61C1086.8 452.854 1045.49 430.112 1009.09 410.062C995.728 402.694 981.351 396.542 963.822 390.625C962.558 390.173 961.286 389.768 960.022 389.316C958.347 388.747 956.633 388.123 954.95 387.601C950.645 386.159 946.635 384.957 942.703 383.865C941.237 383.474 939.77 383.084 938.351 382.702L937.932 382.631C934.232 381.578 930.361 380.687 926.157 379.788L924.497 379.413C922.092 378.912 919.695 378.365 917.306 378.059C916.142 377.863 915.017 377.721 913.853 377.526L911.2 377.079L911.115 377.017Z" fill="#C1C1C1"/>
<path d="M424.572 758.549C380.026 751.051 338.023 725.034 306.315 685.345C256.778 623.324 233.329 541.964 251.674 496.106C259.261 477.192 273.581 465.775 293.077 463.124C344.033 455.577 409.003 462.877 477.829 470.586C538.71 477.437 601.71 484.501 654.801 480.471C709.585 476.344 754.277 459.083 783.956 430.634L787.096 427.622C820.241 395.643 846.462 370.392 875.627 363.197C881.464 361.787 887.727 361.262 895.432 361.555C899.421 361.747 903.696 361.941 908.071 362.677L908.304 362.716C910.414 362.976 912.687 363.406 914.93 363.736L915.814 363.885C918.467 364.331 921.089 364.964 923.851 365.62L925.138 365.933C928.776 366.784 931.53 367.487 934.183 368.221C938.395 369.36 942.311 370.546 946.166 371.817C947.756 372.324 949.385 372.885 950.967 373.438C954.907 374.771 959.056 376.283 963.36 378.012C965.02 378.674 966.68 379.336 968.331 380.045C969.634 380.551 970.929 381.104 972.224 381.657C989.976 388.808 1004.43 395.929 1017.74 404.15C1025.89 409.206 1034.14 414.231 1042.38 419.302C1073.05 438.101 1104.81 457.609 1135.15 478.409C1218.15 535.296 1295.73 591.655 1333.31 655.059C1363.66 706.769 1367.75 760.135 1345.07 809.282C1328.92 844.361 1301.38 858.098 1260.98 851.298C1229.09 845.931 1188.72 827.844 1133.89 794.406C1114.32 782.451 1094.3 769.417 1073.12 755.66C1063.84 749.649 1054.48 743.528 1044.98 737.431C999.979 705.6 958.058 686.774 916.818 679.832C885.91 674.629 855.504 676.401 826.321 685.125C752.172 707.332 679.008 720.279 608.296 732.873C560.73 741.325 515.78 749.309 472.581 759.693C456.414 761.612 440.305 761.197 424.618 758.557L424.572 758.549ZM915.508 365.699L914.671 365.558C912.436 365.182 910.249 364.814 908.045 364.539L907.766 364.492C903.484 363.771 899.309 363.547 895.36 363.408C887.849 363.101 881.686 363.595 876.043 364.989C847.336 372.023 821.278 397.157 788.312 428.928L785.172 431.94C755.152 460.713 710.148 478.113 654.884 482.255C601.653 486.261 538.56 479.182 477.578 472.362C408.891 464.676 344.069 457.354 293.307 464.885C274.447 467.452 260.625 478.475 253.287 496.76C235.129 542.075 258.518 622.66 307.698 684.238C339.127 723.594 380.743 749.354 424.869 756.781C440.416 759.398 456.339 759.782 472.211 757.908C515.364 747.517 560.314 739.533 607.926 731.088C678.584 718.533 751.655 705.57 825.75 683.402C855.189 674.578 885.882 672.807 917.022 678.048C958.542 685.037 1000.69 703.949 1045.9 735.912C1055.36 742.002 1064.76 748.13 1074.04 754.141C1095.22 767.945 1115.2 780.925 1134.77 792.879C1189.38 826.185 1229.58 844.194 1261.23 849.522C1300.75 856.174 1327.61 842.753 1343.43 808.48C1365.83 759.86 1361.79 707.077 1331.78 655.902C1294.43 592.824 1216.97 536.628 1134.15 479.819C1103.85 459.026 1072.14 439.574 1041.46 420.774C1033.22 415.703 1025.02 410.686 1016.82 405.623C1003.6 397.464 989.236 390.358 971.617 383.277C970.314 382.771 969.019 382.218 967.724 381.665C966.064 381.003 964.412 380.294 962.753 379.632C958.487 377.957 954.385 376.453 950.445 375.12C948.816 374.559 947.226 374.052 945.644 373.499C941.836 372.236 937.965 371.058 933.753 369.919C930.736 369.076 927.75 368.334 924.802 367.646L923.514 367.334C920.799 366.686 918.177 366.053 915.617 365.622L915.508 365.699Z" fill="#C1C1C1"/>
<path d="M422.268 769.118C374.557 761.087 329.6 732.994 295.717 690.02C242.975 623.154 218.796 537.029 239.494 489.702C247.99 470.224 263.706 459.042 285.002 457.363C336.891 452.796 398.581 459.113 463.901 465.754C530.579 472.576 599.569 479.595 656.722 473.905C711.825 468.443 757.335 449.741 788.35 419.891L793.899 414.51C826.967 382.421 853.102 357.109 882.235 350.673C888.251 349.341 894.716 349.042 902.599 349.699C906.703 350.055 911.172 350.52 915.694 351.52C918.022 351.912 920.419 352.459 922.443 352.944C926.035 353.787 929.642 354.825 932.744 355.73C935.203 356.479 938.437 357.454 941.834 358.6C946.139 360.042 950.063 361.468 953.879 362.971C955.492 363.626 957.113 364.233 958.726 364.888C962.673 366.461 966.868 368.268 971.125 370.276C972.723 371.024 974.367 371.779 976.003 372.58C977.329 373.234 978.663 373.841 979.996 374.449C991.139 379.626 1008.03 387.923 1025.45 399.897C1040.98 410.55 1056.95 421.18 1072.45 431.492C1095.9 447.114 1120.14 463.204 1143.4 479.749C1231.76 542.61 1308.11 596.896 1346.25 661.208C1377.18 713.734 1381.19 766.991 1358.04 819.503C1341.84 856.297 1314.59 870.896 1274.79 864.197C1242.63 858.783 1202.1 839.952 1143.54 803.11C1127.39 792.976 1111.06 782.19 1093.74 770.805C1080.38 762.002 1066.59 752.934 1052.68 743.991C1008.01 712.788 966.514 694.273 925.739 687.41C892.225 681.769 859.288 684.358 827.797 695.134C733.581 727.359 642.931 741.813 555.231 755.806C523.702 760.833 493.943 765.585 464.828 771.066C450.532 772.105 436.232 771.468 422.268 769.118ZM911.875 352.6C908.617 352.052 905.412 351.751 902.441 351.49C894.752 350.818 888.473 351.149 882.613 352.411C853.977 358.739 828.004 383.936 795.162 415.823L789.613 421.204C758.31 451.34 712.389 470.213 656.944 475.712C599.597 481.418 530.522 474.336 463.743 467.546C398.524 460.874 336.927 454.573 285.185 459.116C264.611 460.773 249.393 471.56 241.201 490.372C220.736 537.164 244.807 622.505 297.154 688.874C330.759 731.515 375.328 759.351 422.62 767.311C436.444 769.638 450.551 770.29 464.652 769.267C493.667 763.816 523.472 759.072 555.008 753.998C642.616 739.989 733.219 725.528 827.28 693.372C859.027 682.496 892.251 679.907 926.091 685.603C967.145 692.513 1008.86 711.114 1053.75 742.449C1067.66 751.393 1081.5 760.468 1094.81 769.263C1112.14 780.648 1128.47 791.387 1144.57 801.514C1202.96 838.231 1243.22 856.969 1275.2 862.352C1314.07 868.894 1340.74 854.628 1356.51 818.671C1379.37 766.732 1375.41 714.057 1344.77 662.013C1306.81 598.065 1230.64 543.857 1142.45 481.12C1119.19 464.575 1094.95 448.486 1071.54 432.871C1056.09 422.567 1040.08 411.929 1024.54 401.276C1007.2 389.411 990.446 381.184 979.35 376.015C978.016 375.407 976.644 374.746 975.318 374.092C973.674 373.337 972.084 372.543 970.44 371.788C966.175 369.826 962.027 368.027 958.079 366.454C956.466 365.799 954.853 365.145 953.232 364.537C949.463 363.042 945.539 361.616 941.281 360.181C937.93 359.043 934.696 358.068 932.23 357.366C929.174 356.469 925.567 355.431 922.022 354.595C919.997 354.111 917.639 353.618 915.312 353.226C914.109 352.976 912.953 352.734 911.836 352.546L911.875 352.6Z" fill="#C1C1C1"/>
<path d="M420.35 779.943C369.288 771.348 321.254 741.063 285.071 694.687C229.209 623.038 204.339 532.204 227.252 483.383C236.664 463.293 253.83 452.308 276.878 451.594C328.128 449.694 388.204 455.357 446.301 460.83C520.134 467.803 596.511 475.013 658.633 467.384C714.01 460.582 760.383 440.446 792.736 409.194L800.461 401.691C833.56 369.417 859.68 343.91 888.843 338.149C895.084 336.903 901.703 336.821 909.764 337.843C911.734 338.079 913.697 338.362 915.745 338.707C918.445 339.161 920.889 339.716 923.177 340.34C925.488 340.825 927.815 341.504 930.011 342.113C933.617 343.15 937.286 344.39 940.442 345.543C943.917 346.798 946.848 347.865 949.633 348.956C953.898 350.631 957.83 352.297 961.738 354.103C963.335 354.851 964.979 355.606 966.623 356.361C970.617 358.229 974.811 360.323 979.084 362.525C980.712 363.373 982.332 364.268 983.961 365.116C985.279 365.817 986.636 366.571 988 367.28C999.119 373.17 1015.93 382.506 1033.34 395.629C1055.14 412.024 1077.72 428.026 1099.52 443.514C1116.76 455.744 1134.63 468.417 1151.79 481.066C1158.05 485.661 1164.22 490.24 1170.36 494.718C1256.03 557.652 1323.68 607.316 1359.38 667.343C1390.49 719.993 1394.46 774.584 1371.22 829.617C1354.98 868.125 1327.96 883.624 1288.58 876.996C1249.2 870.367 1197.37 840.161 1153.38 811.752C1140.04 803.143 1126.66 794.192 1112.45 784.721C1095.63 773.515 1078.25 761.882 1060.52 750.574C1016.15 719.899 974.93 701.718 934.527 694.917C898.453 688.845 863.078 692.269 829.411 705.166C714.614 749.046 602.314 763.587 503.231 776.382C487.281 778.434 472.209 780.395 457.167 782.456C444.797 782.862 432.499 781.988 420.443 779.959L420.35 779.943ZM915.355 340.459C913.353 340.122 911.39 339.84 909.466 339.611C901.638 338.629 895.158 338.734 889.119 339.918C860.5 345.579 834.504 370.915 801.63 402.988L793.952 410.499C761.312 442.038 714.574 462.351 658.855 469.192C596.539 476.836 520.069 469.61 446.143 462.622C388.092 457.156 328.117 451.463 276.961 453.378C254.635 454.07 238.051 464.723 228.895 484.138C206.224 532.377 230.987 622.428 286.501 693.588C322.405 739.63 370.004 769.65 420.648 778.175C432.61 780.188 444.823 781 456.945 780.648C471.94 778.579 487.005 776.665 502.962 774.567C601.952 761.756 714.104 747.238 828.747 703.427C862.716 690.437 898.386 686.968 934.786 693.095C975.422 699.935 1016.85 718.248 1061.46 749.009C1079.18 760.317 1096.56 771.95 1113.39 783.156C1127.59 792.627 1140.97 801.578 1154.31 810.187C1198.13 838.518 1248.43 868.372 1288.84 875.173C1327.24 881.637 1353.67 866.517 1369.53 828.901C1392.53 774.402 1388.57 720.339 1357.75 668.217C1322.24 608.508 1254.72 558.915 1169.17 496.097C1163.08 491.627 1156.86 487.086 1150.6 482.445C1133.44 469.796 1115.61 457.13 1098.34 444.892C1076.53 429.404 1053.95 413.403 1032.12 396.953C1014.78 383.939 998.061 374.619 986.989 368.736C985.625 368.028 984.268 367.273 982.903 366.565C981.283 365.67 979.654 364.822 978.073 363.982C973.808 361.733 969.652 359.694 965.705 357.833C964.061 357.078 962.464 356.331 960.866 355.583C956.997 353.832 953.065 352.165 948.846 350.498C946.062 349.408 943.177 348.348 939.749 347.101C936.631 346.002 932.971 344.716 929.449 343.74C927.301 343.14 924.966 342.507 922.662 341.976C920.42 341.36 918.016 340.859 915.362 340.412L915.355 340.459Z" fill="#C1C1C1"/>
<path d="M418.813 791.071C364.306 781.896 313.017 749.341 274.473 699.362C216.475 624.195 190.396 526.603 215.04 477.165C225.377 456.417 243.956 445.574 268.802 445.833C317.294 446.1 371.326 450.985 423.574 455.665C506.562 463.126 592.336 470.818 660.592 460.872C716.235 452.775 763.425 431.197 797.13 398.451C800.394 395.268 803.604 392.125 806.751 389.066C839.952 356.474 866.158 330.742 895.459 325.579C902.165 324.411 908.9 325.067 916.053 325.792L916.845 325.925C921.042 326.297 925.138 327.274 930.544 328.997C932.972 329.645 935.423 330.44 937.509 331.126C941.317 332.389 945.172 333.947 948.08 335.154C951.484 336.54 954.516 337.864 957.316 339.149C961.627 341.118 965.613 343.033 969.528 345.08C971.11 345.92 972.738 346.769 974.413 347.625C978.414 349.733 982.608 352.114 986.88 354.603C988.493 355.545 990.051 356.524 991.71 357.474C993.059 358.275 994.447 359.13 995.842 359.939C1006.94 366.543 1023.71 376.927 1041.13 391.197C1068.47 413.598 1096.88 434.791 1124.3 455.291C1136.12 464.123 1148.32 473.257 1160.12 482.228C1172.85 491.883 1185.25 501.243 1197.37 510.316C1276.27 569.624 1338.57 616.424 1372.45 673.322C1403.73 726.097 1407.72 782.029 1384.33 839.622C1368.04 879.844 1341.11 896.22 1302.06 889.646C1263 883.073 1211.46 852.293 1163.1 820.231C1152.21 812.991 1141.3 805.604 1129.74 797.773C1109.89 784.336 1089.35 770.402 1068.26 756.947C1024.04 726.731 983.076 708.783 942.999 702.037C902.922 695.291 866.73 699.869 830.926 714.942C694.83 772.174 565.898 783.438 452.169 793.384L449.352 793.628C439.078 793.525 428.844 792.616 418.79 790.924L418.813 791.071ZM919.588 328.11C918.611 327.945 917.587 327.773 916.594 327.701L915.802 327.568C908.781 326.912 902.147 326.227 895.681 327.387C866.97 332.458 840.888 358.019 807.921 390.363C804.773 393.422 801.564 396.566 798.292 399.795C764.307 432.781 716.752 454.536 660.767 462.672C592.318 472.633 506.451 464.926 423.369 457.448C371.168 452.776 317.182 447.9 268.738 447.64C244.659 447.367 226.617 457.87 216.583 477.951C192.22 526.862 218.245 623.632 275.848 698.301C314.121 747.9 365.015 780.245 419.056 789.342C429.017 791.018 439.158 791.912 449.238 792.03L451.954 791.817C565.536 781.893 694.274 770.645 830.16 713.521C866.267 698.355 904.297 693.943 943.211 700.493C982.124 707.043 1024.76 725.32 1069.15 755.661C1090.19 769.108 1110.78 783.004 1130.63 796.487C1142.19 804.318 1153.05 811.697 1163.95 818.89C1212.14 850.828 1262.24 881.318 1302.18 888.041C1340.82 894.544 1366.32 878.98 1382.5 839.122C1405.65 782.064 1401.68 726.613 1370.74 674.374C1336.99 617.833 1274.83 571.103 1196.09 511.919C1184.02 502.855 1171.58 493.487 1158.84 483.832C1147 474.853 1134.8 465.718 1123.03 456.895C1095.56 436.34 1067.16 415.147 1039.81 392.747C1022.44 378.53 1005.75 368.163 994.746 361.621C993.35 360.812 991.962 359.956 990.613 359.155C989.009 358.167 987.396 357.226 985.83 356.292C981.558 353.803 977.41 351.43 973.409 349.322C971.781 348.473 970.161 347.579 968.525 346.777C964.648 344.785 960.716 342.831 956.397 340.908C953.598 339.623 950.558 338.346 947.2 336.968C944.338 335.768 940.523 334.265 936.769 332.963C934.729 332.285 932.325 331.497 929.897 330.85C925.856 329.547 922.598 328.712 919.526 328.195L919.588 328.11Z" fill="#C1C1C1"/>
<path d="M417.693 802.557C359.556 792.771 304.941 757.79 263.873 704.037C202.918 624.258 176.063 521.894 202.727 470.978C213.95 449.518 233.987 438.824 260.679 440.064C303.355 441.889 349.055 445.945 393.241 449.889C488.217 458.364 586.498 467.108 662.456 454.344C718.319 444.944 766.419 421.941 801.468 387.746C805.362 383.952 809.147 380.235 812.831 376.549C846.187 343.601 872.533 317.606 901.973 313.04C908.609 312.004 915.872 312.365 923.971 314.016C927.997 314.837 932.791 315.931 937.84 317.785C940.299 318.534 942.772 319.477 944.882 320.31C948.752 321.775 952.614 323.573 955.545 324.928C959.011 326.516 962.058 328.034 964.881 329.466C969.199 331.676 973.192 333.831 977.162 336.126C978.775 337.067 980.387 338.009 982.085 339.012C986.093 341.361 990.295 343.982 994.605 346.813C996.202 347.847 997.838 348.936 999.474 350.025C1000.81 350.919 1002.19 351.821 1003.56 352.77C1020.88 364.201 1035.28 375.046 1048.79 386.936C1080.77 415.333 1114.07 441.273 1146.27 466.358C1153.68 472.103 1161.05 477.84 1168.31 483.607C1186.32 497.739 1203.75 511.102 1220.63 523.991C1294.5 580.491 1352.76 625.081 1385.39 679.518C1417.24 733.155 1421.11 788.878 1397.3 849.891C1380.9 891.865 1354.07 909.071 1315.25 902.537C1276.43 896.003 1230.99 868.499 1172.74 828.935C1163.98 822.963 1155.05 816.867 1146.06 810.615C1123.45 795.04 1100.12 778.96 1075.95 763.6C1031.9 733.795 991.135 716.072 951.244 709.358C911.353 702.643 870.287 707.74 832.385 725.044C689.588 790.239 555.791 800.54 441.582 805.095C433.559 804.701 425.521 803.827 417.654 802.503L417.693 802.557ZM920.694 315.282C913.898 314.138 907.846 313.981 902.242 314.856C873.345 319.321 847.216 345.161 814.047 377.854C810.371 381.494 806.578 385.257 802.685 389.052C767.355 423.486 718.937 446.675 662.733 456.113C586.526 468.931 488.152 460.171 393.029 451.72C348.889 447.783 303.236 443.734 260.567 441.863C234.636 440.656 215.181 451.017 204.309 471.818C177.933 522.161 204.734 623.702 265.303 702.938C306.1 756.31 360.326 791.035 417.999 800.743C425.819 802.059 433.763 802.918 441.639 803.334C555.561 798.779 689.164 788.493 831.65 723.437C869.863 705.994 910.2 700.679 951.534 707.636C992.867 714.594 1032.7 732.206 1076.91 762.136C1101.04 777.442 1124.42 793.576 1147.02 809.151C1156.07 815.363 1164.95 821.498 1173.71 827.47C1231.79 866.91 1278.12 894.47 1315.55 900.769C1352.97 907.068 1379.35 890.839 1395.64 849.228C1419.26 788.805 1415.44 733.571 1383.89 680.462C1351.46 626.297 1293.28 581.769 1219.57 525.44C1202.69 512.551 1185.26 499.188 1167.25 485.056C1159.94 479.327 1152.62 473.598 1145.22 467.807C1112.97 442.668 1079.67 416.728 1047.65 388.276C1034.18 376.44 1019.87 365.611 1002.64 354.242C1001.26 353.34 999.889 352.391 998.556 351.497C996.92 350.408 995.331 349.328 993.734 348.293C989.462 345.517 985.261 342.896 981.299 340.554C979.648 339.559 977.988 338.61 976.422 337.676C972.499 335.389 968.506 333.234 964.234 331.032C961.412 329.6 958.403 328.136 954.945 326.502C952.014 325.147 948.144 323.395 944.375 321.9C942.304 321.12 939.83 320.178 937.379 319.382C932.424 317.544 927.669 316.504 923.736 315.698C922.758 315.534 921.788 315.323 920.811 315.158L920.694 315.282Z" fill="#C1C1C1"/>
<path d="M416.999 814.354C355.091 803.933 296.926 766.441 253.264 708.758C189.398 624.375 161.76 517.286 190.435 464.938C202.552 442.72 224.047 432.176 252.585 434.395C284.963 436.831 318.613 439.959 351.122 443.039C462.709 453.496 578.113 464.309 664.397 447.925C720.517 437.276 769.396 412.777 805.883 377.15C810.352 372.783 814.665 368.485 818.87 364.265C852.436 330.921 878.938 304.57 908.564 300.609C915.417 299.705 922.656 300.206 931.08 302.198C934.85 303.12 939.9 304.401 945.228 306.589C947.26 307.314 949.501 308.217 952.393 309.518C955.518 310.857 958.829 312.515 963.187 314.779C966.622 316.554 969.684 318.265 972.615 319.907C976.81 322.287 980.934 324.8 984.957 327.343C986.601 328.385 988.237 329.474 989.88 330.516C993.849 333.098 997.965 335.944 1002.45 339.139C1004.07 340.321 1005.69 341.503 1007.36 342.692C1008.68 343.68 1010.04 344.675 1011.41 345.67C1028.69 358.149 1043.03 369.94 1056.57 382.745C1092.99 417.487 1131.05 448.197 1167.84 477.882L1176.69 485.017C1199.19 503.206 1220.74 519.896 1241.57 536.034C1311.66 590.27 1366.91 633.156 1398.5 685.745C1430.57 739.514 1434.46 796.579 1410.41 860.136C1393.91 903.863 1367.08 921.93 1328.49 915.435C1286.92 908.439 1233.6 873.196 1182.52 837.662C1175.67 832.872 1168.69 828.012 1161.67 823.052C1136.58 805.48 1110.68 787.293 1083.73 770.268C1039.77 740.812 999.115 723.253 959.41 716.569C916.075 709.275 873.859 715.518 833.943 735.114C685.136 808.149 548.191 817.25 433.912 816.531C428.248 816.056 422.584 815.294 416.999 814.354ZM925.236 302.794C919.278 301.791 913.893 301.65 908.802 302.324C879.758 306.239 853.435 332.381 820.102 365.477C815.897 369.697 811.537 373.987 807.069 378.354C770.348 414.229 721.159 438.867 664.689 449.601C578.157 466.039 462.613 455.203 350.926 444.776C318.408 441.743 284.766 438.568 252.388 436.133C224.611 433.945 203.737 444.211 191.971 465.77C163.629 517.553 191.169 623.811 254.694 707.659C298.123 765.015 355.854 802.244 417.296 812.586C422.835 813.518 428.452 814.272 434.023 814.731C548.061 815.458 684.719 806.357 833.208 733.507C873.489 713.733 916.047 707.452 959.754 714.809C999.692 721.532 1040.61 739.185 1084.75 768.765C1111.7 785.79 1137.64 804.031 1162.73 821.603C1169.75 826.517 1176.73 831.423 1183.58 836.213C1234.48 871.622 1287.64 906.741 1328.83 913.675C1367 920.099 1392.4 902.891 1408.8 859.481C1432.62 796.46 1428.73 739.922 1397.01 686.643C1365.57 634.318 1310.44 591.548 1240.53 537.389C1219.65 521.244 1198.1 504.554 1175.6 486.365L1166.75 479.23C1129.96 449.499 1091.86 418.78 1055.41 383.984C1041.9 371.233 1027.65 359.504 1010.41 347.033C1009.05 346.038 1007.68 345.043 1006.36 344.056C1004.71 342.82 1003.09 341.638 1001.46 340.503C997.016 337.315 992.892 334.516 988.97 331.942C987.334 330.853 985.644 329.803 984.047 328.769C980.07 326.233 975.946 323.721 971.79 321.395C968.906 319.761 965.882 318.104 962.447 316.329C958.136 314.073 954.818 312.462 951.739 311.13C948.885 309.884 946.691 308.988 944.659 308.264C939.424 306.091 934.467 304.826 930.744 303.912C928.859 303.451 927.052 303.099 925.329 302.809L925.236 302.794Z" fill="#C1C1C1"/>
<path d="M416.725 826.508C350.907 815.429 289.076 775.262 242.666 713.433C175.881 624.491 147.513 512.639 178.061 458.836C191.117 435.867 214.033 425.418 244.408 428.665C259.273 430.21 274.232 431.771 289.136 433.371C425.091 447.786 565.7 462.698 666.309 441.405C723.44 429.299 771.862 404.102 810.223 366.446C815.212 361.544 820.046 356.712 824.764 352.004C858.594 318.226 885.299 291.526 915.172 288.086C922.25 287.267 929.644 287.986 938.246 290.343C943.831 291.857 948.391 293.486 952.617 295.393C954.68 296.219 956.945 297.27 959.868 298.671C963.008 300.204 966.474 302.079 970.8 304.53C974.204 306.491 977.336 308.357 980.282 310.193C984.437 312.806 988.616 315.567 992.685 318.405C994.313 319.54 995.98 320.73 997.646 321.919C1001.66 324.796 1005.78 327.882 1010.27 331.365C1011.97 332.655 1013.65 334.039 1015.34 335.376C1016.6 336.402 1017.91 337.436 1019.22 338.469C1036.3 351.917 1050.63 364.616 1064.33 378.5C1104.94 419.88 1147.43 455.214 1184.97 486.412C1211.35 508.315 1236.43 527.942 1260.75 546.964C1325.17 597.328 1380.79 640.851 1411.57 692.011C1443.79 745.998 1447.71 804.358 1423.52 870.428C1406.87 915.9 1380.08 934.836 1341.63 928.364C1300.34 921.415 1249.63 887.138 1192.29 846.435C1187.16 842.797 1181.99 839.103 1176.74 835.348C1149.39 815.817 1121.1 795.649 1091.55 776.945C1047.63 747.83 1007.1 730.433 967.486 723.766C921.823 716.08 877.433 723.296 835.542 745.239C673.665 829.949 524.43 833.011 426.236 828.013C423.047 827.62 419.874 827.134 416.755 826.609L416.725 826.508ZM930.207 290.329C924.901 289.436 920.051 289.242 915.363 289.792C886.08 293.141 859.554 319.632 825.996 353.216C821.278 357.924 816.444 362.756 811.455 367.658C772.814 405.554 724.121 430.945 666.648 443.088C565.744 464.428 425.034 449.547 288.94 435.108C274.035 433.508 259.123 431.955 244.211 430.402C214.581 427.281 192.248 437.397 179.588 459.715C149.374 512.952 177.698 623.936 244.041 712.373C290.172 773.868 351.615 813.778 416.968 824.779C420.04 825.296 423.213 825.782 426.309 826.16C524.215 831.156 673.171 828.048 834.621 743.601C876.877 721.48 921.663 714.187 967.698 721.935C1007.54 728.642 1048.3 746.124 1092.43 775.418C1122.03 794.084 1150.36 814.306 1177.71 833.837C1182.93 837.538 1188.14 841.239 1193.27 844.924C1250.39 885.495 1300.93 919.647 1341.84 926.534C1379.87 932.935 1405.26 914.912 1421.82 869.711C1445.82 804.184 1441.92 746.305 1410 692.8C1379.37 641.903 1323.92 598.505 1259.62 548.257C1235.34 529.29 1210.22 509.608 1183.8 487.698C1146.26 456.499 1103.73 421.112 1063.03 379.669C1049.41 365.893 1035.12 353.203 1018.09 339.809C1016.78 338.776 1015.47 337.742 1014.21 336.716C1012.52 335.332 1010.83 333.995 1009.14 332.705C1004.69 329.277 1000.61 326.198 996.596 323.321C994.93 322.132 993.31 320.95 991.682 319.815C987.659 316.985 983.481 314.224 979.364 311.665C976.418 309.83 973.332 307.971 969.929 306.01C965.649 303.567 962.183 301.692 959.082 300.213C956.205 298.82 953.979 297.823 951.917 296.998C947.737 295.098 943.262 293.531 937.77 292.033C935.164 291.307 932.627 290.737 930.207 290.329Z" fill="#C1C1C1"/>
<path d="M416.914 839.028C347 827.26 281.324 784.34 232.011 718.147C162.355 624.655 133.248 508.085 165.622 452.819C179.572 429.091 203.954 418.746 236.229 422.935C400.403 444.014 556.926 460.791 668.126 434.869C725.469 421.507 774.707 394.868 814.522 355.686C820.032 350.251 825.332 344.923 830.462 339.758C864.565 305.5 891.471 278.451 921.638 275.538C928.934 274.852 936.49 275.742 945.224 278.456C950.824 280.164 955.446 281.994 959.866 284.174C961.96 285.1 964.301 286.26 967.201 287.801C970.45 289.544 973.985 291.574 978.264 294.304C981.683 296.458 984.838 298.472 987.838 300.556C992.001 303.41 996.233 306.419 1000.3 309.544C1001.91 310.772 1003.57 312.055 1005.26 313.345C1009.29 316.462 1013.49 319.898 1017.9 323.559C1019.62 324.997 1021.34 326.481 1023.1 327.973C1024.35 329.046 1025.6 330.165 1026.9 331.245C1043.86 345.678 1058.12 359.323 1071.94 374.184C1112.27 417.86 1155.63 455.685 1193.13 487.69C1222.93 513.136 1251.17 535.352 1278.51 556.891C1340.68 605.824 1394.31 648.103 1424.47 698.107C1456.95 752.28 1460.83 811.974 1436.46 880.549C1419.45 928.448 1393.38 947.696 1354.46 941.146C1313.5 934.251 1263.32 899.634 1201.9 855.038L1191.28 847.318C1161.77 825.844 1131.28 803.679 1099.16 783.488C1055.29 754.622 1014.74 737.318 975.273 730.674C927.329 722.604 880.803 730.849 836.938 755.139C766.038 794.447 691.324 820.865 614.838 833.636C552.533 844.057 488.325 845.88 418.403 839.278L416.821 839.012L416.914 839.028ZM935.416 277.857C930.668 277.058 926.246 276.888 921.915 277.307C892.384 280.135 865.657 306.975 831.833 340.993C826.704 346.158 821.403 351.486 815.885 356.969C775.846 396.352 726.335 423.184 668.651 436.584C557.156 462.552 400.439 445.79 236.079 424.68C204.556 420.57 180.757 430.582 167.196 453.706C135.102 508.445 164.218 624.107 233.433 717.094C282.467 782.953 347.708 825.608 417.204 837.306L418.693 837.557C571.587 852.001 708.126 824.554 836.141 753.617C880.379 729.103 927.301 720.782 975.617 728.914C1015.37 735.605 1056.1 752.94 1100.18 781.985C1132.3 802.176 1162.83 824.396 1192.34 845.869L1202.96 853.589C1264.22 898.014 1314.22 932.553 1354.81 939.385C1392.74 945.771 1418.18 926.895 1434.84 879.941C1459.03 811.862 1455.16 752.695 1423.03 699.012C1393.01 649.272 1339.51 607.11 1277.46 558.294C1250.15 536.808 1221.88 514.538 1192.04 489.084C1154.54 457.033 1111.13 419.2 1070.72 375.462C1056.99 360.663 1042.71 347.064 1025.84 332.694C1024.54 331.614 1023.29 330.495 1022.04 329.422C1020.28 327.93 1018.57 326.445 1016.89 325.015C1012.53 321.362 1008.32 317.927 1004.3 314.81C1002.6 313.519 1000.95 312.237 999.338 311.008C995.261 307.93 991.083 304.882 986.912 302.075C983.905 300.038 980.804 297.985 977.377 295.877C973.09 293.194 969.601 291.171 966.399 289.436C963.546 287.903 961.243 286.798 959.157 285.825C954.83 283.661 950.247 281.885 944.787 280.2C941.467 279.163 938.38 278.452 935.354 277.943L935.416 277.857Z" fill="#C1C1C1"/>
<path d="M410.752 850.621C339.165 836.562 271.941 791.181 221.421 722.775C148.939 624.741 119.041 503.493 153.295 446.725C168.1 422.184 193.995 411.95 228.161 417.127C370.119 438.533 548.634 459.156 670.14 428.318C727.694 413.7 777.788 385.674 818.963 344.951C824.994 338.981 830.714 333.15 836.302 327.535C870.732 292.758 897.895 265.322 928.356 262.937C935.876 262.337 943.58 263.49 952.507 266.476C958.122 268.378 962.814 270.364 967.381 272.807C969.506 273.835 971.87 275.142 974.793 276.83C978.112 278.728 981.654 280.999 985.995 283.931C989.305 286.162 992.561 288.433 995.623 290.718C999.839 293.82 1004.07 297.116 1008.2 300.443C1009.85 301.772 1011.53 303.156 1013.2 304.586C1017.23 307.944 1021.49 311.674 1025.89 315.622C1027.72 317.269 1029.54 318.963 1031.4 320.712L1034.88 323.929C1051.47 339.16 1066.18 354.124 1079.87 369.777C1120.22 416.09 1162.22 454.401 1201.6 488.876C1234.47 517.662 1265.52 542.217 1295.55 565.98C1355.87 613.738 1408.04 655.006 1437.73 704.117C1470.85 759.261 1474.67 818.513 1449.71 890.577C1432.54 940.268 1406.43 960.322 1367.51 953.772C1323.76 946.407 1266.85 904.294 1211.77 863.541L1205.77 859.086C1174.23 835.74 1141.58 811.585 1107.08 789.94C1063.17 761.306 1022.64 744.15 983.218 737.514C933.086 729.075 884.425 738.348 838.616 765.086C704.11 843.59 564.179 871.566 410.853 850.59L410.752 850.621ZM940.823 265.371C936.494 264.642 932.459 264.441 928.431 264.768C898.653 267.076 871.707 294.357 837.518 328.841C831.93 334.455 826.164 340.278 820.179 346.256C778.733 387.173 728.366 415.392 670.517 430.056C548.709 460.987 369.961 440.325 227.864 418.895C194.45 413.797 169.176 423.753 154.768 447.642C120.848 503.845 150.748 624.232 222.843 721.723C273.092 789.748 339.928 834.873 411.003 848.845C563.957 869.759 703.491 841.86 837.625 763.58C883.76 736.61 932.817 727.26 983.414 735.776C1023.12 742.46 1063.87 759.701 1107.94 788.506C1142.49 810.159 1175.13 834.36 1206.72 857.715L1212.72 862.169C1267.63 902.798 1324.36 944.787 1367.7 952.082C1405.59 958.459 1431.07 938.73 1447.93 890.039C1472.66 818.463 1468.91 759.7 1436.09 705.037C1406.58 656.245 1354.55 615.047 1294.36 567.405C1264.32 543.642 1233.27 519.087 1200.36 490.247C1160.94 455.717 1118.91 417.352 1078.47 370.977C1064.82 355.378 1050.14 340.468 1033.6 325.292L1030.12 322.075C1028.26 320.326 1026.43 318.679 1024.6 317.031C1020.24 313.091 1015.98 309.408 1012 306.058C1010.32 304.628 1008.63 303.291 1007 301.915C1002.92 298.549 998.727 295.308 994.511 292.206C991.449 289.92 988.193 287.65 984.93 285.426C980.636 282.502 977.085 280.278 973.813 278.387C970.937 276.707 968.611 275.454 966.44 274.419C961.958 272.038 957.313 270.06 951.791 268.174C947.897 266.848 944.275 265.904 940.737 265.308L940.823 265.371Z" fill="#C1C1C1"/>
<path d="M409.131 863.076C407.083 862.731 405.082 862.394 403.034 862.049C330.411 845.328 262.151 797.572 210.803 727.543C135.62 625.083 104.883 499.148 140.785 440.84C156.39 415.525 183.619 405.324 219.554 411.372L227.327 412.681C426.736 446.246 572.222 449.252 672.04 421.844C729.752 406.009 780.663 376.542 823.338 334.301C829.827 327.881 836.014 321.554 841.959 315.522C876.669 280.218 904.136 252.402 934.852 250.491C942.543 250.015 950.549 251.363 959.522 254.643C965.067 256.677 969.991 258.989 974.667 261.642C976.861 262.825 979.303 264.241 982.21 266.022C985.59 268.122 989.195 270.595 993.551 273.72C996.876 276.146 1000.15 278.61 1003.27 281.097C1007.54 284.448 1011.78 287.984 1015.91 291.598C1017.58 293.028 1019.24 294.551 1020.91 296.028C1024.95 299.626 1029.12 303.534 1033.61 307.878C1035.55 309.735 1037.51 311.693 1039.53 313.659L1042.65 316.72C1058.99 332.82 1073.69 348.738 1087.58 365.477C1129.52 416.315 1172.92 457.064 1209.84 490.216C1245.53 522.202 1280.61 550.116 1311.6 574.71C1370.5 621.512 1421.42 661.948 1450.71 710.275C1484.04 765.643 1487.87 826.191 1462.73 900.807C1445.4 952.29 1419.19 973.189 1380.27 966.685C1336.98 959.399 1283.47 919.005 1221.45 872.252L1219.79 871.016C1186.28 845.758 1151.62 819.638 1114.77 796.546C1070.78 768.09 1030.29 751.035 990.817 744.391C938.451 735.577 887.748 745.893 840.041 775.087C765.655 820.602 688.406 850.421 610.453 863.662C545.214 874.738 477.471 874.531 409.093 863.021L409.131 863.076ZM219.264 413.094C184.121 407.178 157.521 417.055 142.312 441.719C106.698 499.454 137.437 624.528 212.24 726.398C263.364 796.053 331.275 843.608 403.386 860.243C405.341 860.572 407.389 860.916 409.437 861.261C560.576 886.701 701.151 858.021 839.144 773.596C887.223 744.178 938.322 733.785 991.107 742.67C1030.81 749.353 1071.53 766.494 1115.69 795.074C1152.58 818.173 1187.29 844.302 1220.84 869.614L1222.5 870.85C1284.3 917.471 1337.65 957.693 1380.52 964.909C1418.41 971.287 1443.99 950.713 1460.96 900.222C1485.92 826.149 1482.15 766.09 1449.12 711.203C1419.97 663.14 1369.18 622.774 1310.46 576.096C1279.46 551.502 1244.34 523.581 1208.61 491.54C1171.65 458.334 1128.17 417.523 1086.19 366.63C1072.38 349.953 1057.69 334.035 1041.38 317.99L1038.26 314.929C1036.25 312.963 1034.33 311.013 1032.39 309.156C1027.9 304.812 1023.76 300.958 1019.73 297.36C1018.07 295.837 1016.36 294.352 1014.73 292.93C1010.6 289.316 1006.4 285.834 1002.17 282.492C999.051 280.004 995.827 277.548 992.54 275.177C988.23 272.059 984.664 269.641 981.331 267.548C978.424 265.767 976.075 264.367 973.88 263.184C969.298 260.547 964.46 258.297 959 256.326C950.251 253.131 942.486 251.776 935.036 252.244C904.956 254.071 877.753 281.74 843.284 316.75C837.331 322.829 831.106 329.101 824.608 335.567C781.747 378.064 730.58 407.632 672.519 423.552C572.452 451.013 426.718 448.061 227.076 414.457L219.303 413.148L219.264 413.094Z" fill="#C1C1C1"/>
<path d="M423.154 878.737C413.938 877.186 404.567 875.417 395.336 873.385C321.771 854.017 252.474 803.885 200.213 732.172C122.631 625.767 90.9227 495.363 128.069 435.35C144.568 408.702 173.536 398.411 211.944 405.689C227.118 408.531 242.261 411.271 256.97 413.747C435.339 443.77 575.645 444.278 674 415.332C732.722 398.04 783.006 368.037 827.771 323.612C834.727 316.697 841.318 309.959 847.675 303.47C882.759 267.654 910.443 239.397 941.547 238.03C949.454 237.686 957.662 239.259 966.766 242.897C972.327 245.124 977.367 247.599 982.143 250.508C984.453 251.854 986.965 253.425 989.763 255.284C993.252 257.593 997.003 260.33 1001.24 263.626C1004.5 266.137 1007.78 268.795 1011.05 271.547C1015.25 275.075 1019.49 278.852 1023.76 282.823C1025.41 284.346 1027.1 285.97 1028.79 287.594C1032.88 291.487 1037.18 295.753 1041.55 300.267C1043.58 302.38 1045.61 304.54 1047.74 306.715L1050.59 309.683C1066.74 326.612 1081.41 343.531 1095.45 361.348C1138.83 416.734 1183.9 460.107 1218.26 491.681C1256.49 526.774 1294.05 556.685 1327.23 583.082C1384.97 629.068 1434.86 668.804 1463.87 716.556C1497.45 772.158 1501.27 833.947 1475.93 911.114C1458.44 964.389 1432.14 986.133 1393.17 979.622C1350.25 972.398 1296.93 931.462 1235.26 884.096L1231.31 881.088C1198.72 856.033 1161.7 827.698 1122.64 803.277C1078.57 774.999 1038.02 757.983 998.552 751.339C944.045 742.164 891.245 753.563 841.688 785.22C706.852 871.372 566.047 902.837 423.24 878.799L423.154 878.737ZM208.629 406.902C172.555 400.83 145.186 411.007 129.588 436.275C92.8233 495.731 124.494 625.22 201.681 731.127C253.718 802.468 322.665 852.397 395.819 871.648C405.012 873.626 414.329 875.433 423.498 876.977C565.887 900.944 706.249 869.548 840.713 783.62C890.65 751.692 943.847 740.217 998.819 749.47C1038.52 756.153 1079.31 773.209 1123.54 801.61C1162.65 826.04 1199.66 854.422 1232.35 879.492L1236.29 882.5C1297.79 929.741 1350.99 970.561 1393.45 977.706C1431.38 984.092 1457.05 962.719 1474.17 910.436C1499.37 833.819 1495.58 772.465 1462.3 717.345C1433.44 669.856 1383.68 630.237 1326.07 584.321C1292.89 557.924 1255.27 528.005 1217.01 492.857C1182.56 461.222 1137.46 417.794 1094 362.3C1080 344.537 1065.37 327.672 1049.26 310.751L1046.41 307.783C1044.29 305.561 1042.26 303.402 1040.22 301.335C1035.85 296.867 1031.59 292.61 1027.5 288.717C1025.81 287.093 1024.12 285.515 1022.46 283.992C1018.23 280.076 1013.99 276.299 1009.84 272.778C1006.62 270.034 1003.32 267.423 1000.11 264.92C995.915 261.678 992.21 258.949 988.76 256.694C985.962 254.835 983.496 253.272 981.178 251.973C976.449 249.072 971.494 246.659 966.073 244.455C957.186 240.949 949.258 239.423 941.591 239.759C911.208 241.104 883.75 269.161 848.954 304.69C842.542 311.218 835.998 317.963 829.042 324.878C784.098 369.512 733.55 399.663 674.525 417.047C575.914 446.093 435.321 445.585 256.719 415.523C242.01 413.047 226.813 410.345 211.647 407.458C210.669 407.293 209.692 407.128 208.714 406.964L208.629 406.902Z" fill="#C1C1C1"/>
<path d="M432.374 894.211C417.525 891.712 402.46 888.506 387.637 884.719C313.075 862.744 242.742 810.237 189.615 736.847C109.641 626.451 76.9619 491.577 115.305 429.852C131.844 403.259 160.541 392.587 198.337 398.949C200.152 399.255 201.968 399.56 203.814 399.967C227.179 404.761 250.383 409.097 272.772 412.866C441.459 441.259 577.104 439.882 675.959 408.82C734.838 390.31 785.931 358.912 832.165 312.868C839.533 305.496 846.536 298.302 853.298 291.402C888.715 255.021 916.711 226.337 948.116 225.451C956.241 225.24 964.658 226.992 973.902 230.94C979.485 233.315 984.579 236.038 989.502 239.211C991.843 240.658 994.386 242.33 997.254 244.344C1000.76 246.847 1004.58 249.739 1008.82 253.276C1012.18 256.043 1015.53 258.903 1018.68 261.778C1022.97 265.609 1027.26 269.681 1031.45 273.83C1033.13 275.501 1034.81 277.171 1036.53 278.896C1040.66 283.084 1044.96 287.637 1049.34 292.344C1051.57 294.776 1053.78 297.254 1056.08 299.794L1058.37 302.381C1074.22 319.977 1088.88 337.85 1103.18 356.955C1137.36 402.754 1176.56 445.954 1226.53 492.881C1267.12 531.004 1307 562.788 1342.16 590.81C1399.01 636.119 1448.08 675.287 1476.89 722.574C1510.66 778.401 1514.5 841.485 1488.93 921.15C1471.24 976.208 1444.84 998.844 1405.83 992.279C1363.24 985.11 1310.45 943.879 1249.36 896.135L1240.98 889.606C1204.3 860.991 1168.27 833.348 1130.36 809.743C1086.22 781.597 1045.57 764.658 1006.05 758.006C949.399 748.471 894.595 760.968 843.179 795.135C709.145 884.197 570.945 917.536 432.374 894.211ZM198.001 400.663C160.996 394.434 132.873 404.82 116.778 430.77C78.8159 491.937 111.411 625.888 191.036 735.794C243.932 808.858 313.923 861.116 388.121 882.983C402.851 886.754 417.869 889.952 432.671 892.443C570.777 915.69 708.527 882.466 842.181 793.675C893.977 759.237 949.223 746.671 1006.34 756.285C1046.09 762.976 1086.93 779.946 1131.28 808.224C1169.28 831.892 1205.36 859.543 1242.03 888.203L1250.41 894.733C1311.28 942.345 1363.9 983.451 1406.03 990.541C1444.01 996.935 1469.77 974.716 1487.16 920.612C1512.54 841.49 1508.77 778.848 1475.29 723.502C1446.69 676.487 1397.64 637.42 1340.97 592.188C1305.78 564.112 1265.85 532.32 1225.22 494.143C1175.17 447.108 1135.88 403.845 1101.67 357.945C1087.36 338.886 1072.75 321.068 1056.99 303.488L1054.7 300.901C1052.4 298.361 1050.18 295.883 1047.96 293.451C1043.63 288.751 1039.37 284.206 1035.24 280.019C1033.52 278.294 1031.84 276.623 1030.2 274.961C1026.02 270.811 1021.72 266.786 1017.48 262.963C1014.32 260.134 1011.02 257.282 1007.65 254.515C1003.4 251.025 999.638 248.094 996.173 245.645C993.352 243.639 990.856 241.975 988.514 240.528C983.638 237.363 978.63 234.702 973.131 232.389C964.159 228.534 956.022 226.83 948.137 227.034C917.453 227.897 889.683 256.38 854.507 292.467C847.737 299.413 840.742 306.561 833.367 313.979C786.907 360.224 735.604 391.731 676.422 410.333C577.311 441.496 441.379 442.873 272.459 414.44C250.023 410.663 226.82 406.327 203.408 401.525C201.554 401.165 199.793 400.821 197.978 400.515L198.001 400.663Z" fill="#C1C1C1"/>
<path d="M438.588 909.611C419.038 906.32 399.32 901.757 379.937 896.055C304.385 871.424 233.063 816.55 178.968 741.514C96.5635 627.073 63.0068 487.745 102.501 424.3C120.604 395.243 152.955 384.756 195.643 394.19C225.229 400.701 254.468 406.436 282.536 411.16C445.265 438.551 578.212 435.571 677.823 402.292C736.859 382.565 788.754 349.818 836.504 302.163C844.33 294.342 851.69 286.73 858.81 279.412C894.608 242.473 922.923 213.316 954.677 212.92C963.073 212.802 971.637 214.818 980.973 219.068C986.533 221.583 991.689 224.508 996.844 228.008C999.255 229.61 1001.83 231.382 1004.67 233.536C1008.33 236.257 1012.16 239.389 1016.38 243.065C1019.72 245.972 1023.03 249.018 1026.34 252.111C1030.59 256.175 1034.94 260.448 1039.16 264.938C1040.83 266.702 1042.54 268.473 1044.24 270.338C1048.38 274.766 1052.68 279.606 1057.06 284.601C1059.55 287.459 1062.1 290.473 1064.7 293.542L1066.14 295.219C1081.71 313.582 1096.35 332.409 1110.89 352.702C1145.69 401.573 1185.08 446.527 1234.77 494.268C1277.55 535.295 1319.63 568.836 1356.63 598.412C1412.76 643.17 1461.25 681.81 1489.87 728.778C1523.89 784.838 1527.75 849.217 1501.95 931.379C1484.11 988.183 1457.62 1011.62 1418.57 1005.04C1376.49 997.961 1324.51 956.725 1264.33 909.036C1259.81 905.453 1255.29 901.87 1250.69 898.224C1217.59 871.889 1178.84 841.635 1138.06 816.302C1093.82 788.234 1053.05 771.373 1013.49 764.713C953.905 754.684 898.65 767.871 844.661 805.097C710.917 897.27 574.281 932.403 438.55 909.557L438.588 909.611ZM187.425 394.385C149.443 387.992 120.606 398.64 104.068 425.233C64.9076 488.113 98.4654 626.58 180.483 740.477C234.291 815.226 305.366 869.867 380.513 894.334C399.804 900.021 419.437 904.521 438.894 907.796C574.16 930.565 710.354 895.501 843.709 803.645C897.363 766.697 954.575 752.979 1013.83 762.953C1053.63 769.651 1094.62 786.599 1139.09 814.753C1179.95 840.147 1218.7 870.401 1251.88 896.799C1256.49 900.444 1261.01 904.028 1265.52 907.611C1325.49 955.167 1377.36 996.241 1418.97 1003.25C1457 1009.65 1482.84 986.629 1500.38 930.78C1525.99 849.16 1522.2 785.223 1488.43 729.636C1460.01 682.94 1411.6 644.362 1355.64 599.729C1318.55 570.137 1276.48 536.55 1233.66 495.468C1183.84 447.658 1144.42 402.603 1109.53 353.669C1095.04 333.384 1080.44 314.612 1064.9 296.303L1063.46 294.625C1060.87 291.557 1058.35 288.598 1055.87 285.692C1051.5 280.651 1047.23 275.912 1043.09 271.484C1041.38 269.666 1039.68 267.848 1038.01 266.131C1033.78 261.687 1029.47 257.421 1025.22 253.358C1021.96 250.273 1018.64 247.227 1015.34 244.374C1011.17 240.706 1007.34 237.62 1003.72 234.907C1000.92 232.808 998.353 230.989 995.98 229.441C990.911 226.004 985.84 223.141 980.373 220.642C971.254 216.523 962.969 214.555 954.86 214.673C923.828 215.048 895.786 244.01 860.235 280.609C853.108 287.973 845.756 295.539 837.922 303.407C789.993 351.27 737.881 384.172 678.55 403.945C578.683 437.325 445.402 440.296 282.44 412.866C254.325 408.134 225.033 402.438 195.454 395.88C192.778 395.286 190.133 394.793 187.573 394.362L187.425 394.385Z" fill="#C1C1C1"/>
<path d="M442.701 924.992C419.148 921.027 395.443 915.123 372.221 907.483C295.712 880.299 223.307 823.042 168.353 746.282C83.5572 627.85 48.9909 483.999 89.7298 418.849C108.656 388.591 142.599 378.037 187.497 388.56C222.217 396.701 256.381 403.6 289.057 409.1C447.877 435.833 579.251 431.392 679.719 395.865C739.72 374.673 790.916 341.522 840.827 291.552C849.065 283.274 856.83 275.251 864.307 267.515C900.487 230.018 929.12 200.389 961.222 200.481C969.789 200.488 978.554 202.729 988.038 207.244C993.528 209.89 998.97 213.103 1004.14 216.796C1006.63 218.507 1009.23 220.427 1012.05 222.673C1015.77 225.596 1019.62 228.923 1023.89 232.847C1027.2 235.893 1030.54 239.087 1033.9 242.474C1038.2 246.786 1042.55 251.347 1046.84 256.039C1048.49 257.896 1050.22 259.815 1051.96 261.733C1056.14 266.457 1060.45 271.537 1064.83 276.819C1067.81 280.43 1070.78 284.135 1073.91 288.011C1088.98 306.815 1104.03 327.148 1118.59 348.449C1153.99 400.338 1193.55 447.092 1243.06 495.616C1287.9 539.525 1332.04 574.705 1370.9 605.743C1426.44 650.019 1474.42 688.286 1502.95 734.951C1537.26 791.299 1541.09 856.966 1515.07 941.625C1497.06 1000.27 1470.38 1024.53 1431.19 1017.93C1389.21 1010.87 1337.41 969.088 1277.49 920.678C1271.89 916.147 1266.19 911.6 1260.47 906.951C1224.61 877.997 1185.9 847.751 1145.9 822.932C1101.49 794.98 1060.62 778.149 1020.96 771.474C959.242 761.085 902.076 775.385 846.268 815.176C712.41 910.583 576.664 947.541 442.794 925.008L442.701 924.992ZM176.796 388.147C137.836 381.589 108.239 392.492 91.2572 419.728C50.8994 484.32 85.4203 627.303 169.829 745.191C224.59 821.679 296.653 878.687 372.798 905.762C395.88 913.379 419.492 919.267 442.998 923.224C576.403 945.679 711.707 908.79 845.176 813.701C901.419 773.6 958.981 759.223 1021.21 769.698C1061.11 776.413 1102.2 793.329 1146.82 821.414C1186.92 846.248 1225.66 876.549 1261.56 905.557C1267.3 910.159 1272.99 914.752 1278.59 919.284C1338.3 967.515 1389.97 1009.18 1431.49 1016.17C1469.61 1022.58 1495.64 998.736 1513.35 941.048C1539.57 855.8 1535.86 792.499 1501.41 735.841C1473.03 689.439 1425.18 651.242 1369.81 607.091C1330.91 576.045 1286.72 540.81 1241.85 496.847C1192.26 448.262 1152.66 401.407 1117.18 349.408C1102.67 328.162 1087.66 307.837 1072.57 289.126C1069.49 285.258 1066.48 281.545 1063.49 277.933C1059.16 272.659 1054.84 267.626 1050.66 262.902C1048.93 260.937 1047.24 259.073 1045.59 257.216C1041.35 252.532 1037.04 247.979 1032.73 243.713C1029.42 240.38 1026.03 237.179 1022.76 234.14C1018.53 230.27 1014.69 226.944 1011 224.076C1008.18 221.829 1005.63 219.917 1003.13 218.253C997.998 214.614 992.695 211.425 987.244 208.833C977.985 204.404 969.491 202.256 961.173 202.196C929.831 202.135 901.431 231.516 865.546 268.68C858.07 276.417 850.305 284.44 842.059 292.764C791.923 342.935 740.517 376.195 680.259 397.487C579.543 433.068 447.773 437.586 288.721 410.814C255.999 405.306 221.788 398.399 187.021 390.251C183.522 389.423 180.047 388.742 176.696 388.178L176.796 388.147Z" fill="#C1C1C1"/>
<path d="M445.431 940.331C418.294 935.764 391.084 928.504 364.521 918.818C265.253 880.674 197.329 806.468 157.761 750.91C70.5343 628.433 35.0516 480.073 76.9881 413.212C96.6923 381.745 132.326 371.093 179.38 382.745C218.584 392.406 257.006 400.452 293.592 406.61C449.712 432.888 580.265 427.065 681.683 389.306C760.685 359.878 812.849 313.301 845.266 280.816C853.908 272.128 861.976 263.725 869.802 255.617C906.418 217.524 935.37 187.422 967.883 187.919C976.752 188.12 985.68 190.532 995.256 195.349C1000.77 198.143 1006.27 201.558 1011.63 205.569C1014.23 207.489 1016.94 209.573 1019.67 211.85C1023.36 214.912 1027.27 218.441 1031.64 222.621C1034.97 225.861 1038.37 229.256 1041.75 232.791C1045.98 237.235 1050.33 242.083 1054.75 247.132C1056.43 249.09 1058.15 251.102 1059.86 253.16C1063.97 258.015 1068.3 263.335 1072.74 269.06C1075.69 272.857 1078.72 276.764 1081.82 280.826C1096.56 300.15 1111.55 321.475 1126.44 344.172C1161.84 398.312 1202.73 448.302 1251.45 496.98C1298.25 543.707 1344.33 580.458 1384.97 612.895C1440.05 656.759 1487.61 694.715 1516.07 741.178C1551.07 798.551 1554.82 863.582 1528.18 951.87C1509.96 1012.34 1483.14 1037.44 1443.81 1030.82C1401.87 1023.76 1350.19 981.334 1290.39 932.226C1283.79 926.762 1277.06 921.275 1270.24 915.725C1234.07 886.049 1194.86 855.096 1153.67 829.647C1109.06 801.757 1068.04 784.949 1028.29 778.258C964.477 767.516 905.455 782.891 847.772 825.286C713.498 924.02 578.122 962.762 445.462 940.432L445.431 940.331ZM166.275 381.831C126.337 375.108 96.0179 386.32 78.5462 414.191C36.9909 480.496 72.4284 627.986 159.268 749.92C198.634 805.253 266.365 879.187 365.175 917.206C391.598 926.868 418.677 934.058 445.721 938.61C577.915 960.861 712.795 922.227 846.688 823.763C904.759 781.052 964.231 765.561 1028.56 776.389C1068.54 783.119 1109.79 800.013 1154.56 828.027C1195.84 853.539 1235.09 884.546 1271.3 914.23C1278.12 919.779 1284.85 925.314 1291.44 930.778C1351.08 979.714 1402.55 1022.01 1444.02 1028.99C1482.33 1035.44 1508.51 1010.76 1526.41 951.286C1552.87 863.493 1549.18 798.952 1514.44 742.052C1486.18 695.814 1438.69 658.013 1383.74 614.219C1343.06 581.775 1296.93 545.016 1250.1 498.188C1201.3 449.401 1160.33 399.348 1124.85 345.101C1109.99 322.457 1095 301.179 1080.3 281.863C1077.21 277.801 1074.19 273.848 1071.23 270.096C1066.77 264.419 1062.45 259.098 1058.39 254.251C1056.67 252.193 1054.95 250.181 1053.27 248.27C1048.9 243.228 1044.54 238.427 1040.35 233.991C1037.02 230.464 1033.62 227.069 1030.28 223.875C1025.99 219.757 1022.09 216.229 1018.44 213.174C1015.75 210.951 1013.09 208.829 1010.49 206.956C1005.22 203.006 999.797 199.654 994.369 196.922C985.018 192.191 976.369 189.826 967.779 189.672C936.027 189.207 908.761 217.535 871.034 256.829C863.208 264.938 855.14 273.34 846.49 282.075C814.003 314.692 761.614 361.469 682.263 390.982C580.589 428.842 449.694 434.703 293.248 408.37C256.615 402.204 218.146 394.15 178.943 384.489C174.622 383.427 170.325 382.512 166.228 381.823L166.275 381.831Z" fill="#C1C1C1"/>
<path d="M446.975 955.615C416.579 950.498 386.282 941.954 356.821 930.153C256.789 888.867 187.611 812.44 147.161 755.586C57.6985 628.761 21.3148 475.8 64.3633 407.45C84.8219 374.915 122.078 364.296 171.21 376.968C214.469 388.125 256.646 397.186 296.63 403.916C450.981 429.897 581.179 422.77 683.555 382.731C761.799 352.123 813.387 306.407 849.573 270.011C858.627 260.865 867.099 252.053 875.237 243.518C913.687 203.341 941.497 174.339 974.366 175.279C983.46 175.566 992.543 178.195 1002.25 183.369C1007.74 186.303 1013.35 189.927 1018.86 194.202C1021.48 196.224 1024.22 198.454 1026.97 200.879C1030.81 204.205 1034.78 207.935 1039.03 212.24C1042.39 215.627 1045.84 219.271 1049.19 222.992C1053.43 227.676 1057.84 232.772 1062.25 238.108C1063.96 240.167 1065.67 242.272 1067.41 244.431C1071.65 249.689 1075.97 255.297 1080.34 261.153C1083.32 265.098 1086.35 269.245 1089.46 273.548C1103.84 293.336 1118.8 315.615 1134.02 339.803C1169.89 396.844 1210.95 448.681 1259.57 498.204C1308.2 547.726 1356.14 585.939 1398.52 619.674C1453.27 663.242 1500.55 700.864 1528.93 747.219C1564.29 805.035 1568.07 871.268 1541.09 961.937C1522.75 1024.25 1495.79 1050.19 1456.27 1043.54C1414.24 1036.47 1362.58 993.323 1302.73 943.347C1295.22 937.059 1287.59 930.655 1279.81 924.227C1243.23 893.86 1203.53 862.154 1161.3 836.051C1116.49 808.223 1075.38 791.399 1035.49 784.685C969.627 773.598 908.695 790.087 849.177 835.139C714.23 937.3 578.89 977.819 446.928 955.607L446.975 955.615ZM155.622 375.445C114.8 368.573 83.7821 379.955 65.8828 408.376C23.2076 476.214 59.5537 628.26 148.629 754.541C188.924 811.178 257.901 887.379 357.483 928.494C386.766 940.217 416.97 948.746 447.226 953.839C578.722 975.972 713.62 935.523 848.178 833.679C908.076 788.357 969.459 771.752 1035.84 782.925C1075.96 789.678 1117.3 806.541 1162.28 834.494C1204.65 860.62 1244.39 892.381 1281.01 922.802C1288.78 929.23 1296.42 935.634 1303.93 941.922C1363.56 991.719 1415.05 1034.74 1456.62 1041.74C1495.12 1048.21 1521.44 1022.65 1539.46 961.376C1566.27 871.203 1562.59 805.466 1527.49 748.078C1499.26 701.987 1452.11 664.435 1397.49 620.983C1355.11 587.248 1307.08 548.973 1258.37 499.388C1209.67 449.757 1168.48 397.85 1132.58 340.708C1117.4 316.575 1102.42 294.342 1088.09 274.562C1084.98 270.306 1081.99 266.166 1079.01 262.221C1074.68 256.419 1070.31 250.804 1066.12 245.553C1064.38 243.394 1062.67 241.289 1061.01 239.239C1056.59 233.902 1052.22 228.861 1047.99 224.177C1044.64 220.456 1041.22 216.866 1037.87 213.479C1033.61 209.174 1029.69 205.499 1025.89 202.18C1023.13 199.802 1020.44 197.579 1017.85 195.612C1012.39 191.391 1006.91 187.791 1001.51 184.919C992.02 179.877 983.209 177.341 974.402 177.055C942.301 176.101 914.763 204.91 876.609 244.754C868.424 253.28 859.999 262.101 850.898 271.239C814.595 307.758 762.844 353.591 684.29 384.338C581.604 424.516 451.11 431.689 296.433 405.653C256.356 398.907 214.133 389.839 170.835 378.627C165.653 377.277 160.572 376.182 155.685 375.359L155.622 375.445Z" fill="#C1C1C1"/>
<path d="M447.931 970.99C414.463 965.357 381.235 955.458 349.115 941.535C247.692 896.856 177.524 818.349 136.556 760.307C44.6316 629.623 7.27713 472.193 51.5545 401.945C72.8453 368.161 111.7 357.429 163.127 371.253C210.109 383.898 255.753 393.973 298.856 401.228C452.043 427.013 582.166 418.629 685.554 376.273C763.955 344.16 816.756 296.926 854.046 259.376C863.559 249.782 872.334 240.589 880.829 231.637C919.715 190.863 947.796 161.381 981.061 162.817C990.326 163.228 999.656 166.091 1009.46 171.521C1014.98 174.602 1020.65 178.428 1026.34 183.022C1029.04 185.198 1031.8 187.53 1034.54 190.048C1038.53 193.638 1042.64 197.678 1046.73 202.052C1050.07 205.533 1053.54 209.371 1056.99 213.348C1061.21 218.172 1065.61 223.555 1070.11 229.24C1071.81 231.391 1073.54 233.597 1075.31 235.904C1079.51 241.348 1083.88 247.251 1088.26 253.394C1091.28 257.587 1094.37 261.983 1097.37 266.363C1111.01 285.979 1126 309.267 1141.87 335.526C1178.31 395.772 1219.58 449.463 1267.97 499.521C1318.44 551.986 1368.34 591.676 1412.46 626.709C1466.85 669.882 1513.75 707.2 1542.12 753.361C1577.68 811.402 1581.44 878.876 1554.31 972.105C1535.76 1036.25 1508.56 1063.06 1468.85 1056.38C1426.82 1049.3 1375.18 1005.49 1315.42 954.716C1307 947.558 1298.37 940.268 1289.65 932.915C1254.47 903.311 1212.65 869.429 1169.14 842.681C1124.22 814.93 1082.96 798.176 1042.97 791.446C975.059 780.014 912.216 797.617 850.785 845.218C715.336 950.931 579.791 993.233 447.969 971.044L447.931 970.99ZM145.112 369.082C103.266 362.038 71.4322 373.713 53.074 402.87C9.13117 472.552 46.4482 629.068 138.024 759.262C178.884 817.095 248.796 895.415 349.824 939.884C381.804 953.783 414.947 963.62 448.228 969.222C579.538 991.324 714.641 949.091 849.693 843.742C911.512 795.824 974.853 778.114 1043.28 789.631C1083.49 796.4 1124.98 813.24 1170.07 841.116C1213.66 867.926 1255.58 901.87 1290.79 931.529C1299.52 938.835 1308.1 946.164 1316.56 953.33C1376.11 1003.93 1427.58 1047.61 1469.15 1054.61C1507.79 1061.11 1534.33 1034.77 1552.62 971.629C1579.62 878.904 1575.92 811.873 1540.62 754.305C1512.44 708.416 1465.62 671.206 1411.37 628.104C1367.25 593.024 1317.26 553.319 1266.71 500.744C1218.19 450.57 1176.89 396.824 1140.38 336.424C1124.5 310.21 1109.55 286.977 1095.96 267.369C1092.96 262.989 1089.86 258.64 1086.83 254.446C1082.46 248.303 1078.08 242.448 1073.89 236.956C1072.16 234.704 1070.43 232.498 1068.73 230.347C1064.28 224.669 1059.85 219.38 1055.64 214.556C1052.19 210.578 1048.76 206.795 1045.42 203.314C1041.32 198.987 1037.25 195.001 1033.3 191.419C1030.56 188.947 1027.85 186.577 1025.14 184.447C1019.58 179.97 1014 176.16 1008.52 173.133C998.932 167.835 989.88 165.019 980.895 164.655C948.438 163.259 920.597 192.447 882.053 232.895C873.558 241.848 864.728 251.079 855.223 260.627C817.817 298.3 764.845 345.698 686.141 377.903C582.442 420.398 451.978 428.82 298.465 402.98C255.315 395.717 209.625 385.634 162.597 372.982C156.601 371.351 150.69 370.069 145.057 369.121L145.112 369.082Z" fill="#C1C1C1"/>
<path d="M447.712 986.216C325.944 965.72 211.7 887.162 125.955 764.982C31.5303 630.385 -6.79501 468.485 38.7422 396.44C60.8654 361.409 101.412 350.579 154.994 365.531C205.466 379.624 254.344 390.674 300.286 398.407C659.352 458.846 795.915 314.948 886.324 219.74C925.568 178.261 953.961 148.352 987.62 150.286C997.102 150.829 1006.59 153.909 1016.58 159.658C1022.12 162.84 1027.85 166.914 1033.68 171.818C1036.36 174.088 1039.15 176.567 1042 179.248C1046.01 183.032 1050.18 187.274 1054.34 191.85C1057.73 195.579 1061.22 199.564 1064.69 203.735C1068.95 208.854 1073.37 214.43 1077.88 220.356C1079.6 222.609 1081.32 224.908 1083.07 227.307C1087.32 233.047 1091.69 239.236 1096.07 245.619C1099.08 249.953 1102.1 254.48 1105.19 259.162C1118.73 279.624 1133.66 303.858 1149.63 331.235C1239.4 485.239 1342.65 567.161 1425.53 632.976C1544.1 727.046 1622.48 789.185 1567.38 982.296C1548.53 1048.26 1521.15 1075.85 1481.26 1069.13C1439.18 1062.05 1387.56 1017.53 1327.79 965.938C1318.52 957.917 1309.02 949.765 1299.36 941.487C1227.39 880.19 1142.8 813.464 1050.03 797.849C980.069 786.073 915.408 804.805 852.32 855.141C715.532 964.265 579.402 1008.33 447.758 986.224L447.712 986.216ZM134.551 362.712C91.6813 355.496 59.079 367.471 40.2152 397.357C-4.9488 468.891 33.3312 629.922 127.377 763.93C212.851 885.729 326.707 964.03 447.963 984.44C579.133 1006.52 714.766 962.557 851.166 853.751C914.643 803.098 979.808 784.211 1050.28 796.073C1143.47 811.759 1228.32 878.671 1300.45 940.14C1310.12 948.37 1319.6 956.569 1328.88 964.59C1388.44 1015.95 1439.85 1060.35 1481.46 1067.35C1520.33 1073.89 1547.07 1046.67 1565.56 981.75C1620.36 789.833 1542.37 727.951 1424.31 634.254C1341.29 568.368 1237.93 486.331 1147.97 332.008C1132.03 304.685 1117.11 280.451 1103.6 260.044C1100.51 255.362 1097.44 250.873 1094.48 246.548C1090.1 240.164 1085.72 234.021 1081.52 228.29C1079.77 225.89 1078.05 223.591 1076.32 221.339C1071.86 215.421 1067.43 209.891 1063.17 204.772C1059.75 200.655 1056.3 196.678 1052.9 192.995C1048.73 188.466 1044.61 184.232 1040.65 180.455C1037.84 177.829 1035.1 175.358 1032.41 173.135C1026.66 168.339 1021.01 164.327 1015.56 161.161C1005.83 155.552 996.618 152.566 987.424 152.023C954.618 150.137 926.458 179.798 887.471 220.89C842.492 268.293 786.46 327.328 695.552 368.053C587.965 416.305 458.49 426.807 299.857 400.105C253.868 392.364 204.944 381.306 154.379 367.197C147.568 365.285 140.835 363.769 134.458 362.696L134.551 362.712Z" fill="#C1C1C1"/>
</g>
<defs>
<clipPath id="clip0_1172_21911">
<rect width="914.282" height="1616.72" fill="white" transform="translate(1691.05 268.354) rotate(99.5546)"/>
</clipPath>
</defs>
</svg>
