<svg width="22" height="21" viewBox="0 0 22 21" fill="none" xmlns="http://www.w3.org/2000/svg">
<path d="M19.4653 20.5436H2.53517C2.47276 20.5311 2.41078 20.5135 2.3475 20.5062C1.36959 20.3938 0.664567 19.8915 0.238452 19.0096C0.132139 18.7896 0.0779058 18.5439 0 18.3102C0 14.3869 0 10.4641 0 6.54079C0.0154951 6.50291 0.0365856 6.46675 0.045194 6.42715C0.320232 5.18238 1.33516 4.35641 2.60963 4.34952C3.59744 4.34436 4.58525 4.34823 5.57306 4.34823C5.64882 4.34823 5.72457 4.34823 5.81453 4.34823C5.81453 3.9092 5.81109 3.5016 5.81539 3.09442C5.83088 1.60388 6.94782 0.4736 8.44008 0.46327C10.1437 0.451649 11.8473 0.457675 13.5513 0.461979C14.3106 0.463701 14.9618 0.734004 15.4839 1.29226C15.9608 1.8023 16.1782 2.41565 16.185 3.10733C16.1889 3.51322 16.1859 3.9191 16.1859 4.34909C16.2862 4.34909 16.3628 4.34909 16.4394 4.34909C17.4414 4.34909 18.4439 4.34221 19.4459 4.35167C20.8689 4.36545 21.9987 5.50993 21.9996 6.93031C22.0013 10.594 22.0009 14.2578 21.9996 17.9211C21.9996 19.0987 21.2498 20.0955 20.1156 20.4188C19.9043 20.479 19.6826 20.5031 19.4657 20.5436H19.4653ZM1.30116 10.5312C1.3003 10.5381 1.29384 10.5648 1.29384 10.5915C1.29384 13.0319 1.28781 15.4724 1.29685 17.9129C1.29943 18.6846 1.86673 19.2158 2.64708 19.2162C8.21713 19.2166 13.7876 19.2166 19.3577 19.2153C19.4644 19.2153 19.5737 19.2127 19.677 19.1895C20.3239 19.0436 20.7066 18.5361 20.707 17.8234C20.7083 15.4474 20.7075 13.0711 20.707 10.6952C20.707 10.6341 20.7014 10.5729 20.6993 10.5325C14.2266 12.6687 7.76863 12.6652 1.30073 10.5312H1.30116ZM5.81496 5.64078C5.71682 5.64078 5.65312 5.64078 5.58985 5.64078C4.62313 5.64078 3.65684 5.63949 2.69012 5.64078C1.83918 5.6425 1.29599 6.18569 1.29341 7.03792C1.29126 7.6461 1.29987 8.25471 1.28867 8.8629C1.28523 9.03463 1.33903 9.10694 1.50001 9.16978C4.15871 10.2097 6.92974 10.684 9.76836 10.7882C11.5434 10.8532 13.3159 10.7882 15.0802 10.5454C16.9495 10.2884 18.7676 9.84296 20.528 9.16161C20.6605 9.11039 20.7135 9.04754 20.7113 8.89862C20.7019 8.26892 20.7109 7.63921 20.7066 7.00908C20.701 6.18741 20.1501 5.64293 19.3245 5.64078C18.3509 5.6382 17.3769 5.64035 16.4033 5.64035H16.1855C16.1855 5.73117 16.1855 5.78798 16.1855 5.8448C16.1855 6.19559 16.1919 6.54638 16.1833 6.89674C16.173 7.30951 15.8949 7.58541 15.5132 7.57896C15.1456 7.5725 14.8817 7.28756 14.8748 6.88598C14.8718 6.71424 14.8744 6.54251 14.8744 6.37077C14.8744 6.13103 14.8744 5.89128 14.8744 5.65627H7.12602C7.12602 6.07938 7.13032 6.48655 7.12472 6.89373C7.11913 7.3108 6.83032 7.59359 6.43691 7.57809C6.08096 7.56389 5.82314 7.28541 5.81625 6.88942C5.80893 6.48268 5.81453 6.0755 5.81453 5.64035L5.81496 5.64078ZM14.8736 4.34134C14.8736 3.89242 14.8783 3.46372 14.8723 3.03545C14.8624 2.32526 14.3084 1.77174 13.5999 1.77002C11.8671 1.76658 10.1346 1.76744 8.40178 1.77002C7.80608 1.77088 7.26461 2.15223 7.18111 2.74019C7.10708 3.26142 7.16561 3.8016 7.16561 4.34134H14.8736Z" fill="white"/>
<path d="M11.0017 15.9898C10.3652 15.9898 9.72856 15.9911 9.09197 15.9893C8.69513 15.988 8.41449 15.7195 8.41406 15.3459C8.41363 14.9718 8.68867 14.7007 9.08853 14.6994C10.3617 14.6959 11.6349 14.6959 12.9081 14.6994C13.3101 14.7002 13.5851 14.9684 13.586 15.3424C13.5868 15.7246 13.3045 15.9889 12.89 15.9898C12.2607 15.9911 11.631 15.9898 11.0017 15.9898Z" fill="white"/>
</svg>
