<svg width="22" height="19" viewBox="0 0 22 19" fill="none" xmlns="http://www.w3.org/2000/svg">
<path d="M6.23322 0.379486C6.3973 0.3948 6.56139 0.41099 6.72547 0.425429C7.08251 0.456932 7.29909 0.687521 7.2829 1.02006C7.26803 1.33247 7.02213 1.55037 6.68127 1.55081C6.6012 1.55081 6.52113 1.53812 6.4415 1.54162C5.81755 1.5705 5.18967 1.567 4.57053 1.6405C3.37559 1.78227 2.46898 2.40884 1.8446 3.42702C1.19353 4.48808 1.01588 5.66027 1.09639 6.88366C1.10602 7.02849 1.11958 7.17376 1.12045 7.31859C1.13621 9.29719 1.14277 11.2758 1.17121 13.2539C1.17734 13.6652 1.23903 14.08 1.31779 14.4848C1.44949 15.1604 1.80172 15.7178 2.29396 16.1995C3.07061 16.9591 3.97809 17.3958 5.07765 17.408C6.97575 17.429 8.87427 17.454 10.7724 17.4802C11.2812 17.4872 11.7905 17.4956 12.299 17.5205C14.1301 17.6106 16.0527 16.6865 16.7738 14.8864C16.9685 14.4003 17.0442 13.8936 17.0621 13.376C17.0731 13.0636 17.07 12.7503 17.0665 12.4379C17.0639 12.1846 17.14 11.9732 17.3833 11.8665C17.6314 11.7575 17.862 11.8092 18.0751 11.9772C18.44 12.2651 18.801 12.56 19.1838 12.8225C19.3838 12.9599 19.6183 13.0592 19.8506 13.1327C20.2628 13.2636 20.5971 13.117 20.7144 12.7057C20.8242 12.3198 20.8894 11.9089 20.8946 11.5077C20.9086 10.4611 20.8771 9.41358 20.8671 8.36652C20.8623 7.85809 20.8929 7.3479 20.8548 6.8421C20.836 6.59313 20.7332 6.33235 20.605 6.11445C20.4374 5.82917 20.1241 5.76616 19.8231 5.89568C19.2713 6.13327 18.7664 6.44743 18.3232 6.8526C18.2549 6.91517 18.2037 7.0333 18.2024 7.1265C18.1928 7.89747 18.1976 8.66843 18.1967 9.43983C18.1967 9.83537 17.9858 10.0681 17.634 10.0668C17.2844 10.0651 17.0709 9.83187 17.07 9.43414C17.0665 8.20506 17.0621 6.97555 17.0678 5.74647C17.0783 3.49003 15.529 2.06974 13.7096 1.64532C13.1465 1.51405 12.5781 1.49874 11.9984 1.53987C11.4121 1.58187 10.8201 1.56 10.2307 1.54818C9.91039 1.54162 9.68812 1.28259 9.69774 0.973241C9.70781 0.653392 9.92964 0.431117 10.2587 0.427617C10.7899 0.422366 11.3211 0.428492 11.8522 0.423679C11.9586 0.422804 12.0649 0.395238 12.1716 0.379924C12.4919 0.379924 12.8122 0.379924 13.1325 0.379924C13.1806 0.393925 13.2283 0.415803 13.2773 0.420178C13.8685 0.474434 14.4368 0.622764 14.9755 0.866917C16.6027 1.60506 17.6922 2.80351 18.0851 4.57559C18.153 4.88144 18.1735 5.19735 18.2173 5.51501C18.9694 4.94488 19.3693 4.7738 20.0541 4.7261C20.8675 4.66966 21.6503 5.21003 21.8257 6.00594C21.9281 6.47062 21.9815 6.95411 21.9881 7.43016C22.0078 8.84826 21.999 10.2668 21.9885 11.6853C21.9859 12.0476 21.9535 12.4121 21.9014 12.7705C21.7842 13.5821 21.1694 14.1999 20.384 14.2918C19.7758 14.3631 19.218 14.1907 18.7056 13.8678C18.5367 13.7615 18.3796 13.6372 18.2151 13.5195C18.205 13.5401 18.1998 13.5458 18.1993 13.5524C18.195 13.5882 18.1915 13.6246 18.1884 13.6604C18.0353 15.4776 17.2004 16.8843 15.6506 17.8548C14.6998 18.4503 13.6414 18.6266 12.5405 18.6201C11.2747 18.6126 10.0084 18.6069 8.74257 18.5929C7.45574 18.5785 6.16759 18.5781 4.88207 18.5273C3.99341 18.4923 3.15506 18.2565 2.4086 17.7279C1.58776 17.1464 0.867988 16.4874 0.476819 15.5345C0.171847 14.7911 0.0537081 14.0052 0.0432069 13.2128C0.0108282 10.7774 -0.00361095 8.3407 0.00076455 5.90443C0.0020772 5.14178 0.0957128 4.38088 0.401998 3.66636C1.10383 2.02949 2.38016 1.07169 4.05948 0.604387C4.42702 0.502 4.80944 0.452994 5.18485 0.379486C5.53402 0.379486 5.88362 0.379486 6.23279 0.379486H6.23322Z" fill="white"/>
<path d="M6.44612 9.49671C6.44612 8.71087 6.45312 7.92503 6.4435 7.13963C6.43781 6.6452 6.65221 6.28466 7.07138 6.04795C7.49055 5.81123 7.91497 5.81561 8.3324 6.0707C9.62229 6.85873 10.9153 7.64107 12.203 8.43259C13.0662 8.96334 13.0676 10.0629 12.2047 10.595C10.924 11.3843 9.63586 12.161 8.35427 12.9481C7.92285 13.2133 7.48836 13.2299 7.05563 12.9783C6.63864 12.7359 6.43737 12.3666 6.4435 11.8757C6.45356 11.0828 6.44612 10.2896 6.44612 9.49671ZM7.63013 6.97774C7.60694 7.07225 7.57412 7.14445 7.57369 7.21664C7.57106 8.75157 7.5715 10.2865 7.57369 11.8214C7.57369 12.0485 7.62182 12.0756 7.81346 11.9592C9.06748 11.1962 10.3206 10.4318 11.5733 9.66605C11.7702 9.54572 11.768 9.48621 11.5707 9.36589C10.3237 8.60543 9.07579 7.8454 7.82834 7.08581C7.77977 7.05606 7.72814 7.03068 7.63057 6.97774H7.63013Z" fill="white"/>
</svg>
