<svg width="22" height="17" viewBox="0 0 22 17" fill="none" xmlns="http://www.w3.org/2000/svg">
<path d="M0 10.5584C0 10.2149 0 9.87137 0 9.52829C0.014636 9.47362 0.0361594 9.41981 0.0426165 9.36428C0.276361 7.31223 1.86135 5.50211 3.87336 4.97909C4.64649 4.77806 5.42391 4.75395 6.18025 4.88008C6.18025 4.2249 6.20392 3.57403 6.17164 2.92618C6.15184 2.52455 6.27495 2.21504 6.56121 1.95418C6.89052 1.65414 7.28871 1.47722 7.70368 1.33732C8.58313 1.04029 9.49314 0.904694 10.4165 0.847011C11.8878 0.755321 13.3489 0.816448 14.7853 1.17115C15.3686 1.31536 15.9416 1.49917 16.428 1.8754C16.7905 2.15607 16.9704 2.52197 16.9687 2.98515C16.9639 4.3803 16.967 5.77545 16.967 7.17061C16.967 7.25326 16.967 7.33634 16.967 7.35528C17.9308 7.49776 18.8593 7.61098 19.7779 7.77886C20.4047 7.89336 21.0073 8.10903 21.5213 8.51066C21.8377 8.75818 22.003 9.07285 22.0004 9.48998C21.9905 11.0422 21.9923 12.595 22 14.1472C22.0017 14.5127 21.8756 14.8157 21.5954 15.0275C21.3358 15.2238 21.0525 15.4025 20.7547 15.5312C19.8929 15.904 18.9729 16.0495 18.0457 16.1282C16.7078 16.2419 15.3716 16.2096 14.0475 15.9634C13.3639 15.8364 12.6941 15.6625 12.0876 15.3065C11.7931 15.1339 11.5254 14.9212 11.4083 14.5885C11.3558 14.4391 11.2774 14.427 11.1449 14.4141C10.342 14.3358 9.5392 14.2497 8.73853 14.1515C8.6081 14.1356 8.51727 14.1403 8.40793 14.2217C7.27278 15.0671 5.99601 15.4352 4.59311 15.2342C2.4894 14.9333 1.05939 13.7568 0.304342 11.7779C0.15583 11.3896 0.099008 10.9661 0 10.5584ZM5.23322 14.4042C7.63739 14.4167 9.60765 12.4606 9.61496 10.0548C9.62228 7.6523 7.68431 5.71691 5.24871 5.6941C2.85358 5.67171 0.903555 7.61012 0.888489 10.0281C0.873422 12.44 2.81097 14.3922 5.23365 14.4046L5.23322 14.4042ZM11.8073 3.82328C12.8099 3.79228 13.8779 3.70705 14.9102 3.38592C15.2205 3.28949 15.5232 3.14959 15.8068 2.98946C16.103 2.82244 16.0974 2.70276 15.7982 2.52541C15.5727 2.39197 15.3316 2.27445 15.0832 2.19094C13.9106 1.79749 12.6954 1.69848 11.4681 1.7002C10.2839 1.70192 9.11175 1.80438 7.98176 2.18749C7.72736 2.27359 7.47898 2.39326 7.24954 2.53316C6.98953 2.692 6.98695 2.8121 7.24394 2.9688C7.49146 3.11989 7.75706 3.25377 8.0317 3.34503C9.23357 3.74364 10.4789 3.82715 11.8069 3.82285L11.8073 3.82328ZM16.5989 8.32599C15.6114 8.34191 14.6489 8.39917 13.7053 8.62645C13.2055 8.74699 12.7057 8.87785 12.2852 9.19553C12.0971 9.33759 12.085 9.43832 12.283 9.55713C12.568 9.72846 12.8672 9.89289 13.1814 9.99492C14.2447 10.3397 15.3467 10.4344 16.459 10.443C17.6213 10.4516 18.7762 10.375 19.8941 10.0375C20.2708 9.92346 20.629 9.73362 20.9768 9.54378C21.1614 9.44306 21.1558 9.33415 20.9742 9.22007C20.7404 9.07328 20.4925 8.93639 20.2334 8.8447C19.0513 8.42801 17.8171 8.35698 16.5993 8.32642L16.5989 8.32599ZM12.1853 10.6036C12.1853 10.951 12.1956 11.3229 12.181 11.6935C12.1732 11.8868 12.246 12.0177 12.4109 12.0848C12.7991 12.2437 13.1823 12.4322 13.5869 12.5304C15.4345 12.9776 17.2971 12.9729 19.1623 12.6371C19.7258 12.5355 20.2777 12.3883 20.7801 12.0995C20.9497 12.0018 21.1158 11.8907 21.1188 11.6669C21.1244 11.2911 21.1206 10.9153 21.1206 10.5726C18.1365 11.5833 15.162 11.5984 12.1853 10.6036ZM12.2085 13.0461C12.2103 13.0379 12.2017 13.0577 12.2021 13.0771C12.2073 13.406 12.2249 13.7353 12.2159 14.0637C12.2098 14.2785 12.2942 14.4279 12.4767 14.5131C12.7729 14.6517 13.0665 14.8123 13.3794 14.8958C15.4285 15.4429 17.4938 15.4494 19.5562 14.9879C20.0151 14.885 20.4486 14.6608 20.8859 14.4735C20.9781 14.4339 21.0939 14.3151 21.0986 14.2277C21.121 13.8097 21.1085 13.39 21.1085 12.994C18.1352 14.0177 15.1796 14.0155 12.2085 13.0457V13.0461ZM7.12298 3.99374C7.12298 4.29851 7.129 4.63988 7.11996 4.98081C7.11652 5.11296 7.17851 5.15601 7.28526 5.21197C7.64514 5.40052 7.99382 5.61016 8.34982 5.80688C8.46002 5.86758 8.57366 5.93645 8.69462 5.96185C10.5969 6.3652 12.5026 6.35874 14.3992 5.94678C14.8671 5.84519 15.3109 5.62823 15.7599 5.44959C15.9416 5.37727 16.063 5.22532 16.0681 5.0217C16.0772 4.65236 16.0707 4.28259 16.0707 3.93606C13.079 4.96746 10.0954 4.97048 7.12341 3.99331L7.12298 3.99374ZM9.61884 7.04061C9.83623 7.5421 10.0536 8.05006 10.2805 8.55414C10.2994 8.59632 10.379 8.63162 10.4329 8.63463C10.7325 8.65357 11.0334 8.6553 11.333 8.67639C11.4802 8.68672 11.5818 8.6299 11.6976 8.54596C11.9158 8.38754 12.1453 8.2343 12.3906 8.12453C13.2283 7.74959 14.1233 7.6028 15.0294 7.51369C15.3699 7.48011 15.7121 7.46203 16.0591 7.43664V6.33937C13.9597 7.22097 11.7785 7.22355 9.61884 7.04061ZM11.3058 11.9932C10.9012 11.9742 10.5258 11.9566 10.1888 11.9411C9.90639 12.4275 9.63649 12.8928 9.3442 13.3961C9.99937 13.4516 10.6472 13.5067 11.3058 13.5622V11.9932ZM10.5065 9.52872C10.4815 10.0487 10.457 10.5507 10.4316 11.075H11.2787C11.2813 11.0345 11.2856 10.9932 11.2856 10.9523C11.286 10.4968 11.2856 10.041 11.2856 9.57306C10.9933 9.55627 10.748 9.54249 10.506 9.52872H10.5065Z" fill="white"/>
<path d="M4.81653 12.7185C4.19579 12.5054 3.78986 12.1072 3.63704 11.477C3.60691 11.3535 3.59485 11.2222 3.5983 11.0952C3.60518 10.8516 3.789 10.6781 4.0236 10.6738C4.26122 10.6695 4.43943 10.8318 4.46742 11.0776C4.51907 11.5317 4.71752 11.7779 5.09891 11.8619C5.52034 11.9544 5.94823 11.6591 6.01366 11.2308C6.08124 10.7891 5.75753 10.3768 5.32018 10.3397C5.15014 10.3251 4.9758 10.3152 4.81222 10.2713C4.11099 10.0827 3.64005 9.48912 3.59658 8.75776C3.55482 8.06169 3.97926 7.40307 4.64046 7.13704C4.69341 7.11594 4.74722 7.09743 4.80663 7.07548C4.80964 7.01608 4.81222 6.95968 4.8161 6.90329C4.83331 6.64673 5.00895 6.46034 5.24398 6.44958C5.47299 6.43925 5.6921 6.62047 5.69641 6.8723C5.69942 7.05051 5.77561 7.10777 5.92154 7.17406C6.52893 7.44956 6.84533 7.93986 6.90646 8.59633C6.93314 8.88431 6.75278 9.10471 6.4932 9.12581C6.24095 9.14647 6.04336 8.94931 6.01926 8.65315C5.9831 8.21493 5.64647 7.89553 5.23236 7.90629C4.81523 7.91748 4.47129 8.26573 4.46828 8.68156C4.46483 9.10428 4.79457 9.42757 5.25173 9.45038C6.12601 9.49429 6.74417 10.038 6.89096 10.8925C7.00805 11.5739 6.61158 12.3212 5.94737 12.6053C5.74419 12.6922 5.69253 12.796 5.70243 12.9992C5.71664 13.294 5.56339 13.4878 5.3318 13.5192C5.06017 13.5562 4.83805 13.3776 4.81868 13.0999C4.8105 12.9794 4.81739 12.8575 4.81739 12.7185H4.81653Z" fill="white"/>
</svg>
