<svg width="22" height="22" viewBox="0 0 22 22" fill="none" xmlns="http://www.w3.org/2000/svg">
<path d="M11.7698 22.0009H10.2233C10.1618 21.9867 10.1007 21.9682 10.0387 21.9591C9.59423 21.8933 9.14415 21.8541 8.70568 21.7603C6.60499 21.3115 4.78657 20.3257 3.2642 18.8137C1.62177 17.1824 0.581756 15.2246 0.171687 12.9411C0.10241 12.5559 0.0567986 12.1665 0 11.7788C0 11.2633 0 10.7478 0 10.2328C0.0473322 9.88683 0.0826162 9.53873 0.143718 9.19492C0.638554 6.41136 1.97978 4.11661 4.20396 2.37307C6.82057 0.321861 9.80336 -0.39974 13.0624 0.208693C15.9845 0.754304 18.3133 2.29733 20.0172 4.73236C21.719 7.16437 22.3141 9.87608 21.8468 12.8008C21.4785 15.1063 20.441 17.0929 18.7948 18.7483C17.1661 20.386 15.2096 21.4191 12.9316 21.8296C12.5465 21.8989 12.1575 21.9445 11.7698 22.0009ZM15.9204 16.938C15.9578 16.8834 15.9694 16.8731 15.9733 16.8602C16.4449 15.296 16.9187 13.7324 17.3855 12.167C17.6635 11.2358 17.7784 10.2952 17.528 9.3352C17.3356 8.59897 16.9514 7.9574 16.5744 7.30723C16.3395 6.90233 16.111 6.47892 15.9738 6.03485C15.6713 5.05723 16.1601 4.07917 17.0512 3.78529C17.2281 3.72677 17.4195 3.71171 17.6046 3.67685C13.1024 -0.466436 5.8778 0.635974 2.77281 5.57573C3.15577 5.57573 3.5185 5.58735 3.88038 5.57315C4.58089 5.54561 5.28055 5.49957 5.98107 5.46859C6.25602 5.45654 6.42255 5.60026 6.44019 5.83778C6.45869 6.08477 6.30809 6.25258 6.02754 6.28356C5.67556 6.32186 5.32272 6.35198 4.94836 6.38813C6.14114 9.93546 7.32874 13.4686 8.52711 17.0323C8.55938 16.9729 8.58046 16.9445 8.59079 16.9127C9.28184 14.8408 9.97246 12.7689 10.6592 10.6962C10.6794 10.6351 10.6794 10.5551 10.6579 10.4948C10.1777 9.16609 9.69449 7.83821 9.20353 6.51377C9.17986 6.44966 9.08262 6.3821 9.01205 6.37177C8.71515 6.33004 8.4148 6.31325 8.11618 6.27969C7.87651 6.25258 7.74182 6.08778 7.75689 5.85714C7.77238 5.62263 7.92341 5.4716 8.15706 5.46859C8.29991 5.46687 8.4432 5.47849 8.58606 5.48451C9.36489 5.5185 10.1441 5.58262 10.923 5.57918C11.7522 5.5753 12.5809 5.50387 13.4101 5.46902C13.6799 5.45783 13.8455 5.60714 13.8623 5.84854C13.8782 6.07831 13.7194 6.25387 13.4561 6.28227C13.1011 6.321 12.7453 6.35112 12.3662 6.38726C13.5478 9.89501 14.7285 13.3997 15.9208 16.938H15.9204ZM11.1966 11.9557C11.1794 11.9557 11.1622 11.9557 11.1446 11.9553C10.167 14.7956 9.18933 17.6355 8.20869 20.4858C10.2586 21.0719 12.2625 21.0133 14.2556 20.3369C13.2302 17.5275 12.2134 14.7418 11.1966 11.9557ZM6.65361 19.8361C5.09596 15.5701 3.5383 11.3046 1.95998 6.98236C0.866609 9.60585 0.806368 12.1889 1.86059 14.7659C2.79819 17.0577 4.41437 18.7414 6.65404 19.8361H6.65361ZM19.7483 6.46257C19.7483 6.73924 19.753 7.04217 19.7474 7.34467C19.7263 8.4716 19.4509 9.54217 19.0775 10.6007C18.0736 13.4462 17.0955 16.3012 16.1076 19.1528C16.0693 19.2638 16.0361 19.3769 15.9931 19.5125C20.9303 16.6588 22.0293 10.4897 19.7483 6.46214V6.46257Z" fill="white"/>
</svg>
