<svg width="22" height="24" viewBox="0 0 22 24" fill="none" xmlns="http://www.w3.org/2000/svg">
<path d="M21.9993 10.8538C21.8349 11.4139 21.4013 11.7712 21.0085 12.1576C20.9071 12.2575 20.8619 12.3495 20.8786 12.4977C20.917 12.8417 20.7994 13.1424 20.5606 13.391C20.4484 13.5076 20.3239 13.6115 20.2368 13.6922C20.4287 13.9919 20.6433 14.2306 20.7477 14.5107C20.9342 15.0112 20.8057 15.4827 20.4297 15.8641C19.4946 16.814 18.5521 17.7575 17.6101 18.7005C17.4103 18.9003 17.1716 18.9116 17.0047 18.7433C16.8384 18.5755 16.8531 18.3407 17.0539 18.1379C17.9349 17.2491 18.8184 16.3627 19.7013 15.4758C20.1561 15.0191 20.1482 14.7809 19.6398 14.3251C19.5738 14.3881 19.5045 14.4516 19.438 14.518C16.8989 17.0571 14.3618 19.5977 11.8172 22.1309C11.6794 22.2682 11.4919 22.3785 11.3074 22.4425C10.2827 22.7973 9.25206 23.133 8.22392 23.4775C8.14812 23.5026 8.07725 23.542 8.00441 23.5745H7.7096C7.44186 23.352 7.41282 23.2526 7.52356 22.9194C7.88432 21.8356 8.24164 20.7504 8.61175 19.6701C8.66244 19.5219 8.75398 19.3728 8.86472 19.2621C11.7538 16.3642 14.6487 13.4727 17.5387 10.5762C17.834 10.2805 18.1667 10.1215 18.5915 10.1549C18.6732 10.1613 18.778 10.1121 18.842 10.055C19.0305 9.88622 19.2023 9.69821 19.3839 9.52103C20.2624 8.6622 21.5922 9.00278 21.9555 10.1781C21.9648 10.2086 21.9845 10.2357 21.9998 10.2647V10.8543L21.9993 10.8538ZM14.9356 17.8786C14.9588 17.8618 14.9804 17.8505 14.9972 17.8338C16.6459 16.1855 18.2947 14.5382 19.941 12.888C20.1585 12.6699 20.1536 12.4726 19.9336 12.2486C19.5783 11.8869 19.218 11.5301 18.8587 11.1718C18.5378 10.8509 18.3887 10.8524 18.0614 11.1796C16.4825 12.7585 14.9041 14.3384 13.3223 15.9143C13.2608 15.9753 13.1619 15.999 13.091 16.0349C13.7549 16.6988 14.3381 17.2821 14.9351 17.8791L14.9356 17.8786ZM12.589 16.7461C11.6189 17.7162 10.6351 18.7005 9.68517 19.6504C10.2487 20.2154 10.8349 20.803 11.396 21.3656C12.3577 20.4044 13.3381 19.425 14.3032 18.4603C13.7328 17.8899 13.1456 17.3027 12.5885 16.7461H12.589ZM8.48427 22.5537C9.22696 22.3061 9.92436 22.0733 10.5804 21.8548C10.1119 21.3868 9.64383 20.9187 9.18266 20.458C8.96266 21.1175 8.73184 21.8115 8.48427 22.5537ZM20.4524 11.6049C20.6473 11.4051 20.8486 11.2146 21.0307 11.0069C21.2723 10.7318 21.264 10.3287 21.0282 10.0673C20.789 9.80255 20.3569 9.74349 20.0754 9.97826C19.8475 10.1682 19.661 10.4079 19.4631 10.6176C19.7791 10.9326 20.1015 11.2545 20.4524 11.6049Z" fill="white"/>
<path d="M12.5719 0.816993C12.4439 0.805181 12.3322 0.785987 12.2205 0.785987C8.82449 0.78451 5.429 0.783526 2.03303 0.785987C1.28887 0.786479 0.78538 1.29145 0.78538 2.03708C0.783412 7.74921 0.783412 13.4618 0.78538 19.1739C0.78538 19.9319 1.28936 20.43 2.05223 20.4314C3.67245 20.4344 5.29267 20.4314 6.9129 20.4329C7.2082 20.4329 7.37308 20.5742 7.37554 20.8203C7.378 21.0668 7.21164 21.2155 6.92176 21.216C5.89903 21.2174 4.8763 21.2165 3.85308 21.2165C3.21473 21.2165 2.57639 21.2199 1.93853 21.2155C0.872002 21.2076 0.00233781 20.3419 0.00184564 19.2753C-0.000615213 13.4978 -0.000615213 7.71968 0.00184564 1.94209C0.00233781 0.874577 0.87151 0.00343629 1.93706 0.00195978C5.40636 -0.00148541 8.87616 0.000483268 12.3455 0.000975438C12.8519 0.000975438 13.2959 0.177664 13.6537 0.528582C14.4308 1.29046 15.2001 2.06071 15.9624 2.83735C16.3202 3.20205 16.4989 3.65189 16.4989 4.16769C16.4989 6.1974 16.4989 8.22711 16.4989 10.2563C16.4989 10.5629 16.3517 10.747 16.1096 10.749C15.8669 10.751 15.7159 10.5669 15.7154 10.2617C15.7149 8.28124 15.7154 6.30075 15.7149 4.32026C15.7149 3.928 15.7134 3.928 15.3324 3.928C14.8088 3.928 14.2851 3.93046 13.7614 3.92751C13.0768 3.92357 12.5753 3.41811 12.5729 2.72957C12.5704 2.10008 12.5724 1.47109 12.5724 0.816993H12.5719ZM15.0288 3.14299C14.4731 2.58782 13.9032 2.01838 13.3564 1.47207C13.3564 1.85055 13.351 2.28317 13.3584 2.7148C13.3628 2.97368 13.5139 3.13413 13.7674 3.14004C14.2059 3.15037 14.6449 3.14299 15.0288 3.14299Z" fill="white"/>
<path d="M4.32127 8.83396C4.03089 8.95405 3.84928 8.84134 3.69129 8.62675C3.42453 8.26501 3.14203 7.91458 2.87035 7.55628C2.67644 7.30085 2.70055 7.09955 2.95648 6.90268C4.47827 5.72935 6.00006 4.55601 7.52726 3.38957C7.97612 3.04653 8.51209 3.04013 8.95948 3.3812C10.4941 4.5506 12.0223 5.72935 13.5495 6.9081C13.8005 7.10152 13.8172 7.30675 13.6218 7.56465C13.355 7.91655 13.0848 8.2655 12.8137 8.61445C12.5961 8.89499 12.5351 8.91713 12.165 8.85315C12.165 8.94568 12.165 9.03427 12.165 9.12286C12.165 10.3503 12.1655 11.5773 12.165 12.8048C12.165 13.234 12.039 13.3585 11.6103 13.3585C9.35223 13.3585 7.09465 13.3585 4.83657 13.3585C4.44431 13.3585 4.32127 13.2379 4.32127 12.851C4.32078 11.5261 4.32127 10.2007 4.32127 8.83445V8.83396ZM11.3435 12.5646C11.3499 12.5085 11.3573 12.4765 11.3573 12.4445C11.3583 11.0787 11.3613 9.71248 11.3519 8.34671C11.3514 8.25418 11.2776 8.1336 11.2003 8.07355C10.279 7.354 9.34829 6.64675 8.42695 5.9272C8.29259 5.82237 8.21384 5.81646 8.07554 5.92474C7.14239 6.65512 6.20234 7.37713 5.25836 8.09373C5.13876 8.18429 5.10136 8.27584 5.10185 8.41955C5.10677 9.72823 5.1048 11.0369 5.10529 12.3456C5.10529 12.4165 5.11415 12.4868 5.11858 12.5597H6.64382C6.64382 12.4578 6.64382 12.3697 6.64382 12.2816C6.64382 11.3736 6.64234 10.466 6.6448 9.55794C6.64579 9.16962 6.77867 9.03771 7.15715 9.03722C7.8767 9.03624 8.59626 9.03624 9.3163 9.03722C9.69232 9.03722 9.81831 9.16174 9.81881 9.53234C9.81979 10.4566 9.81881 11.3809 9.81881 12.3052C9.81881 12.3909 9.81881 12.477 9.81881 12.5641H11.3431L11.3435 12.5646ZM12.8087 7.3161C12.7644 7.2915 12.7256 7.27525 12.6931 7.25015C11.3066 6.18362 9.92167 5.11561 8.53375 4.05105C8.30341 3.87436 8.17545 3.88765 7.91952 4.08501C6.79836 4.9468 5.67769 5.80859 4.55702 6.67087C4.27402 6.88841 3.99299 7.10841 3.70015 7.33579C3.86552 7.54595 4.01415 7.73494 4.16722 7.92984C4.26221 7.85897 4.33456 7.8068 4.40543 7.75217C5.56498 6.85986 6.72404 5.96707 7.88409 5.07575C8.19563 4.83655 8.30588 4.83704 8.61939 5.07821C9.4295 5.7008 10.2376 6.32537 11.0478 6.94845C11.473 7.27575 11.8992 7.60107 12.3338 7.93378C12.4952 7.72411 12.6384 7.53758 12.8087 7.3166V7.3161ZM7.46968 9.82962V12.5577H9.01805V9.82962H7.46968Z" fill="white"/>
<path d="M5.6808 18.073C4.71516 18.073 3.74903 18.0808 2.78389 18.0636C2.65494 18.0612 2.48563 17.9598 2.41427 17.852C2.35521 17.7634 2.36997 17.568 2.43248 17.473C2.49547 17.3775 2.6574 17.2978 2.7765 17.2973C4.72451 17.287 6.67203 17.2889 8.62004 17.2909C8.87154 17.2909 9.03149 17.4494 9.03346 17.6778C9.03543 17.916 8.87203 18.0715 8.60281 18.0725C7.62881 18.0749 6.6548 18.0735 5.68129 18.0735L5.6808 18.073Z" fill="white"/>
<path d="M8.8504 14.9314C9.52959 14.9314 10.2088 14.9314 10.8885 14.9314C11.2231 14.9314 11.3939 15.0683 11.3905 15.3291C11.387 15.5821 11.2212 15.715 10.9013 15.715C9.52615 15.7155 8.15152 15.7155 6.77639 15.715C6.45747 15.715 6.29062 15.5816 6.28718 15.3291C6.28324 15.0673 6.45353 14.9314 6.7887 14.9314C7.47626 14.9309 8.16382 14.9314 8.85138 14.9314H8.8504Z" fill="white"/>
<path d="M3.9432 14.9315C4.31135 14.9315 4.67998 14.9295 5.04813 14.9319C5.33654 14.9339 5.50289 15.0845 5.49748 15.3326C5.49255 15.5688 5.32915 15.7135 5.05354 15.7145C4.30052 15.717 3.5475 15.717 2.79448 15.7145C2.5228 15.7135 2.3594 15.5629 2.35743 15.3262C2.35596 15.087 2.51788 14.9349 2.78857 14.9324C3.17296 14.929 3.55783 14.9315 3.94271 14.9315H3.9432Z" fill="white"/>
</svg>
