<svg width="22" height="22" viewBox="0 0 22 22" fill="none" xmlns="http://www.w3.org/2000/svg">
<g clip-path="url(#clip0_748_6073)">
<path d="M11.6893 21.9978H11.4745C11.339 21.8851 11.1935 21.7822 11.0687 21.6582C10.0133 20.6076 8.95964 19.5553 7.91159 18.4977C7.79022 18.3755 7.66884 18.329 7.4984 18.3299C6.11678 18.3363 4.73516 18.3342 3.35354 18.3329C3.00405 18.3329 2.6735 18.267 2.38598 18.0467C1.9758 17.732 1.82989 17.3064 1.83118 16.8067C1.83463 15.4177 1.83032 14.0288 1.83549 12.6399C1.83592 12.4836 1.789 12.3734 1.67753 12.2645C1.19159 11.7889 0.712975 11.3056 0.233068 10.8235C-0.0772582 10.5119 -0.0776886 10.2907 0.231776 9.97992C0.706519 9.50302 1.17868 9.02311 1.66203 8.55483C1.79288 8.42829 1.83764 8.29873 1.83635 8.1214C1.82903 7.14782 1.83032 6.1738 1.83506 5.20021C1.83592 5.0302 1.84366 4.85373 1.88714 4.69103C2.06403 4.03078 2.58612 3.65374 3.30878 3.65374C6.78047 3.65245 10.2526 3.65202 13.7243 3.65676C13.8878 3.65676 14.001 3.60898 14.1155 3.4932C15.1033 2.4968 16.0971 1.506 17.0897 0.51433C17.7723 -0.167871 18.5802 -0.170883 19.2594 0.506152C19.3962 0.642592 19.5331 0.779032 19.6695 0.915903C20.3427 1.59122 20.3418 2.36725 19.6652 3.04557C19.4759 3.23495 19.2835 3.42132 19.0467 3.65374C19.4518 3.65374 19.7858 3.64944 20.1193 3.6546C20.6905 3.66407 21.1747 3.86594 21.5582 4.30237C21.7975 4.57482 21.9068 4.90236 21.9998 5.24067V19.5053C21.9847 19.5522 21.9658 19.5983 21.955 19.6465C21.7743 20.4273 21.0938 21.0174 20.3414 21.0535C19.8701 21.0759 19.398 21.0793 18.9262 21.0815C18.5014 21.0836 18.3331 20.9098 18.3301 20.4798C18.3271 20.036 18.3292 19.5918 18.3292 19.1481C18.3292 18.8847 18.3292 18.6213 18.3292 18.354H14.3208C14.3501 18.3931 14.3613 18.4112 14.3755 18.4267C14.7788 18.8545 14.7762 19.003 14.3548 19.4244C13.5956 20.1837 12.8376 20.9446 12.0745 21.6996C11.96 21.8128 11.8184 21.8988 11.6893 21.9978ZM2.75312 7.425C3.11854 7.26833 3.24379 7.29372 3.5171 7.56704C6.74173 10.7921 9.9668 14.0163 13.188 17.2448C13.3038 17.361 13.4178 17.4066 13.5805 17.4062C15.3702 17.4011 17.1598 17.3937 18.949 17.4075C19.6549 17.4131 20.378 17.2857 21.0796 17.6386C21.0796 17.5246 21.0796 17.448 21.0796 17.3709C21.0796 16.7481 21.0796 16.1249 21.0796 15.5021C21.0796 12.2516 21.0692 9.00073 21.0873 5.75027C21.0916 4.99189 20.7383 4.5292 19.9033 4.5774C19.3893 4.6071 18.8724 4.58859 18.3572 4.57956C18.1941 4.57654 18.0792 4.62647 17.9638 4.74268C16.3933 6.321 14.8184 7.89458 13.2435 9.46859C13.0485 9.66356 12.8475 9.85251 12.6259 10.0669H16.4845V10.9953C16.4255 10.9953 16.3834 10.9953 16.3407 10.9953C14.1358 10.9953 11.9312 10.9918 9.7262 11.0004C9.36853 11.0017 9.06079 10.7336 9.22004 10.2821C9.51917 9.43416 9.78431 8.57463 10.0809 7.72586C10.1441 7.54422 10.2547 7.36216 10.389 7.22529C11.1952 6.40148 12.0147 5.59102 12.8295 4.77539C12.8807 4.72417 12.9289 4.66951 13.0098 4.58343H12.7188C11.6665 4.58343 10.6141 4.58343 9.56178 4.58343C7.48591 4.58343 5.40961 4.583 3.33374 4.58386C2.94681 4.58386 2.76001 4.73709 2.75613 5.08658C2.7471 5.8596 2.75355 6.63261 2.75355 7.425H2.75312ZM6.76239 12.1483C6.44819 12.4815 6.13701 12.8116 5.85079 13.115C5.62482 12.9028 5.41263 12.7036 5.17375 12.4793C5.50215 12.1561 5.82582 11.8376 6.13313 11.5358C5.7363 11.1382 5.35366 10.7542 4.95123 10.3505C4.64305 10.6625 4.32369 10.9858 4.02369 11.2901C3.79773 11.0658 3.58769 10.8567 3.36559 10.6363C3.67506 10.3311 3.99529 10.0152 4.30131 9.71349C3.88166 9.2904 3.47535 8.88108 3.10304 8.50576C2.46389 9.14449 1.81397 9.79398 1.18212 10.4254C4.6409 13.8846 8.12163 17.3658 11.5714 20.8168C12.2105 20.1781 12.86 19.5286 13.4987 18.8903C13.114 18.5055 12.7102 18.1013 12.2966 17.6877C11.9846 18.0041 11.6639 18.329 11.3734 18.6238C11.1388 18.4005 10.9236 18.1952 10.6718 17.9554C10.9916 17.6399 11.3148 17.321 11.6166 17.0232C11.2296 16.6379 10.8453 16.2557 10.4222 15.8348C10.1252 16.1511 9.814 16.4826 9.50497 16.8118C9.27857 16.585 9.07155 16.378 8.84687 16.1524C9.17011 15.8374 9.49636 15.5197 9.81142 15.2128C9.40555 14.8083 9.02162 14.4256 8.62134 14.0271C8.32177 14.3327 8.00327 14.658 7.69208 14.9753C7.46009 14.7411 7.25005 14.5289 7.0215 14.2982C7.33269 13.9913 7.65765 13.6707 7.97529 13.3573C7.58276 12.9657 7.1984 12.5826 6.76283 12.1483H6.76239ZM12.4856 8.88452C14.1474 7.22098 15.8212 5.54583 17.477 3.88875C17.0793 3.49105 16.6709 3.08302 16.2788 2.69049C14.6195 4.35015 12.9465 6.02401 11.2869 7.68411C11.6807 8.07836 12.0883 8.48682 12.4856 8.88452ZM2.75269 13.3978C2.75269 14.5677 2.74882 15.7272 2.75484 16.8863C2.75656 17.2319 2.94638 17.4019 3.30189 17.4023C4.40418 17.4041 5.50603 17.4032 6.60831 17.4023C6.6591 17.4023 6.71031 17.3912 6.73958 17.3877C5.41349 16.0608 4.09041 14.7364 2.75269 13.3978ZM16.9756 1.94889C17.397 2.36983 17.8046 2.777 18.2225 3.19407C18.5005 2.91258 18.8023 2.61775 19.0919 2.31172C19.2852 2.10771 19.3024 1.8925 19.1285 1.69753C18.9198 1.46338 18.696 1.24043 18.4622 1.03082C18.2879 0.874153 18.0482 0.880179 17.8777 1.04244C17.5631 1.34287 17.2627 1.65836 16.9752 1.94889H16.9756ZM19.2559 20.1531C19.5452 20.1531 19.8155 20.1531 20.0853 20.1531C20.1495 20.1531 20.2144 20.1548 20.2781 20.1471C20.6987 20.0937 21.0378 19.7438 21.0641 19.3383C21.0951 18.8601 20.8484 18.4469 20.403 18.3755C20.0315 18.3161 19.6433 18.3635 19.2559 18.3635V20.1531ZM11.5554 9.40274C11.2856 9.1333 11.0222 8.87032 10.7575 8.60562C10.6357 8.97362 10.5048 9.36744 10.3619 9.79914C10.7953 9.65496 11.1896 9.52411 11.5554 9.40231V9.40274Z" fill="white"/>
<path d="M18.3286 10.9845H17.4277V10.0811H18.3286V10.9845Z" fill="white"/>
<path d="M20.1563 10.0768V10.9841H19.2637V10.0768H20.1563Z" fill="white"/>
</g>
<defs>
<clipPath id="clip0_748_6073">
<rect width="22" height="21.9978" fill="white"/>
</clipPath>
</defs>
</svg>
