<svg width="22" height="22" viewBox="0 0 22 22" fill="none" xmlns="http://www.w3.org/2000/svg">
<path d="M9.32342 0C9.87611 0.138173 10.2562 0.520407 10.6401 0.908668C11.7072 1.98822 12.7885 3.05357 13.8564 4.13269C14.6213 4.90577 14.5361 6.10886 13.6774 6.74678C13.2925 7.0326 12.8569 7.14666 12.3817 7.05885C12.2526 7.03518 12.1682 7.06402 12.0796 7.15613C11.9612 7.27924 11.826 7.38599 11.6736 7.52115C12.0864 7.75316 12.3357 8.05748 12.4067 8.47501C12.4773 8.89125 12.3701 9.27047 12.0774 9.59761C12.7713 10.2037 13.4548 10.8011 14.1388 11.3977C15.6707 12.7347 17.2023 14.0712 18.7346 15.4073C19.4681 16.047 20.196 16.6931 20.9381 17.3224C21.6264 17.906 22.0232 18.6141 21.9991 19.5391C21.9664 20.8012 20.8395 21.9509 19.5775 21.9996C18.7041 22.0331 17.9874 21.7193 17.4153 21.0625C14.8447 18.1084 12.2737 15.1546 9.70264 12.2009C9.67036 12.1639 9.63592 12.1282 9.60278 12.0925C8.82453 12.6968 7.9503 12.4265 7.53191 11.7081C7.37308 11.8673 7.21467 12.0158 7.07134 12.1781C7.03862 12.2147 7.04766 12.3004 7.05756 12.3606C7.17938 13.113 6.83158 13.825 6.16611 14.1788C5.50194 14.5318 4.70346 14.4194 4.14733 13.8719C3.33078 13.0683 2.52542 12.2535 1.71532 11.4434C1.45189 11.1799 1.19491 10.9105 0.924594 10.6544C0.52299 10.2743 0.141616 9.883 0 9.32385C0 9.12326 0 8.92268 0 8.72209C0.011622 8.70444 0.0288398 8.68808 0.0340051 8.66871C0.30045 7.67826 1.04598 7.18239 2.05838 7.31368C2.12596 7.32228 2.22195 7.28311 2.27188 7.23318C3.92909 5.58243 5.58286 3.92866 7.23189 2.27016C7.28742 2.2142 7.31755 2.09755 7.30722 2.0162C7.20779 1.25001 7.53449 0.559147 8.18877 0.209626C8.35621 0.121385 8.54346 0.0693015 8.72209 0C8.92268 0 9.12326 0 9.32342 0ZM7.79706 2.99245C6.19323 4.59628 4.58466 6.20442 3.00407 7.78501C4.19941 8.97993 5.40681 10.1873 6.59182 11.3719C8.18059 9.78313 9.78916 8.17499 11.3874 6.57676C10.1959 5.38701 8.99112 4.18435 7.79706 2.99202V2.99245ZM10.217 11.4713C11.758 13.2418 13.2925 15.0049 14.8198 16.7593C15.4697 16.1111 16.1072 15.4758 16.7546 14.8301C14.9958 13.2956 13.2306 11.7559 11.4688 10.2192C11.0448 10.6432 10.6406 11.0473 10.2166 11.4713H10.217ZM18.7639 16.585C18.0253 17.3241 17.3039 18.0455 16.5721 18.7781C17.1054 19.3863 17.6362 20.0359 18.2147 20.6394C18.8879 21.3418 20.0049 21.2975 20.6678 20.5847C21.3311 19.8715 21.2859 18.8031 20.5563 18.1488C20.0927 17.733 19.6188 17.3288 19.1492 16.9199C19.0101 16.7985 18.8707 16.6776 18.7643 16.585H18.7639ZM13.5039 5.37409C13.5142 5.10378 13.3954 4.89458 13.2095 4.70906C12.3426 3.84602 11.4787 2.97953 10.6139 2.11477C10.2751 1.77601 9.94326 1.42907 9.59417 1.10108C9.1125 0.648249 8.34588 0.871649 8.18317 1.50914C8.09579 1.85091 8.21287 2.13586 8.46038 2.38251C9.63119 3.54858 10.7981 4.71896 11.9668 5.88761C12.0171 5.93798 12.0666 5.99135 12.1235 6.03397C12.4058 6.24445 12.7136 6.28534 13.0304 6.13038C13.3395 5.9793 13.4961 5.72017 13.5035 5.37453L13.5039 5.37409ZM5.25056 13.5155C5.73136 13.4923 6.00125 13.3309 6.14459 12.9955C6.29137 12.6529 6.23541 12.3262 5.97543 12.0641C4.76157 10.8399 3.54299 9.62 2.31923 8.40571C1.97143 8.0605 1.43639 8.07513 1.10624 8.41389C0.777813 8.75136 0.771356 9.26574 1.11313 9.6101C2.32784 10.8334 3.54471 12.0546 4.77449 13.2633C4.92041 13.4066 5.15026 13.4643 5.25013 13.5155H5.25056ZM8.28174 11.0758C8.29208 11.3293 8.37859 11.4576 8.54647 11.5282C8.73629 11.6082 8.89513 11.5492 9.03244 11.4119C9.82618 10.6191 10.6208 9.82704 11.4111 9.03072C11.6086 8.83185 11.6095 8.57617 11.4309 8.40313C11.257 8.2344 10.9996 8.24387 10.8007 8.44144C10.0104 9.22743 9.22184 10.0156 8.43886 10.8089C8.35492 10.8937 8.3136 11.0202 8.28174 11.0758ZM17.458 15.4448C16.7783 16.1244 16.1115 16.7908 15.4353 17.4666C15.5989 17.6542 15.7766 17.8578 15.9398 18.0451C16.6414 17.3456 17.3336 16.6556 18.0391 15.9523C17.8471 15.7844 17.6396 15.6036 17.458 15.4448Z" fill="white"/>
<path d="M0 20.7991C0.0482097 20.6514 0.0895324 20.5012 0.14549 20.357C0.317237 19.9136 0.545373 19.6545 1.06879 19.274C0.996048 18.9382 0.878536 18.6262 0.870358 18.3107C0.848836 17.5156 1.53023 16.8489 2.32956 16.8476C4.76373 16.8441 7.19789 16.845 9.63205 16.8467C10.8412 16.8476 11.5514 18.0713 10.9578 19.1264C10.9406 19.1573 10.923 19.1879 10.8988 19.231C10.966 19.2774 11.0297 19.3205 11.0921 19.3657C11.6952 19.8 12.0176 20.3833 12.0296 21.1314C12.0318 21.2674 12.0318 21.4034 12.0296 21.5394C12.0245 21.836 11.86 21.9961 11.5591 22.0017C11.5303 22.0022 11.5019 22.0017 11.4731 22.0017C7.83624 22.0017 4.19898 22 0.56216 22.0056C0.304754 22.0056 0.11665 21.935 0.000430444 21.7017C0.000430444 21.4008 0.000430444 21.0999 0.000430444 20.7991H0ZM11.1614 21.1365C11.1373 20.3811 10.5812 19.8542 9.81585 19.8538C7.28182 19.8521 4.7478 19.8525 2.21377 19.8551C2.08636 19.8551 1.95594 19.8706 1.83154 19.8994C1.31328 20.0182 0.829896 20.5524 0.885854 21.137H11.1614V21.1365ZM5.99307 18.9951C6.94479 18.9951 7.89607 18.9951 8.84778 18.9951C9.11982 18.9951 9.39186 19.0032 9.66304 18.9912C10.0255 18.9753 10.2911 18.7118 10.3096 18.3701C10.3259 18.0597 10.0788 17.7661 9.74913 17.7123C9.67208 17.6999 9.59202 17.7042 9.51368 17.7042C7.68945 17.7042 5.86523 17.7042 4.04058 17.7042C3.49693 17.7042 2.95328 17.7016 2.40963 17.7055C2.09411 17.7076 1.85091 17.8755 1.76052 18.1389C1.609 18.581 1.92624 18.9921 2.43029 18.9938C3.61788 18.9972 4.80548 18.9951 5.99307 18.9951Z" fill="white"/>
<path d="M5.93735 7.06488C5.81166 6.95985 5.67391 6.8828 5.59256 6.76658C5.49011 6.62066 5.52326 6.44762 5.63862 6.30988C5.73461 6.19538 5.84523 6.09294 5.95112 5.98662C6.4457 5.49118 6.942 4.99789 7.43486 4.5003C7.59154 4.34189 7.76932 4.27776 7.97679 4.36901C8.26476 4.49556 8.30694 4.8524 8.06202 5.10076C7.62081 5.54843 7.17401 5.99049 6.72979 6.43514C6.58861 6.57676 6.45474 6.72698 6.30279 6.85612C6.21025 6.93446 6.08972 6.97965 5.93691 7.06445L5.93735 7.06488Z" fill="white"/>
<path d="M4.32813 7.7975C4.32727 7.55904 4.52613 7.35716 4.75986 7.36017C4.99058 7.36318 5.19676 7.57539 5.19117 7.80396C5.18557 8.0308 4.99273 8.22149 4.76417 8.22665C4.5257 8.23182 4.32899 8.03855 4.32813 7.7975Z" fill="white"/>
</svg>
