<svg width="22" height="17" viewBox="0 0 22 17" fill="none" xmlns="http://www.w3.org/2000/svg">
<path d="M0 12.1524C0.855397 11.108 1.83856 10.2032 2.97608 9.4732C3.16274 9.35351 3.17509 9.25947 3.10289 9.06189C2.5111 7.43848 2.2361 5.76046 2.27742 4.03209C2.28502 3.72005 2.41421 3.59038 2.72435 3.58183C4.35773 3.53624 5.94503 3.79177 7.49292 4.30567C7.55941 4.32799 7.62638 4.35031 7.66248 4.36219C8.08234 3.75282 8.45186 3.12255 8.91399 2.56923C9.46826 1.90571 10.0957 1.30252 10.7027 0.684123C10.9031 0.479891 11.075 0.49699 11.3068 0.695047C12.4581 1.67916 13.4038 2.83283 14.1537 4.14703C14.1927 4.21543 14.2311 4.28382 14.2767 4.36361C14.7061 4.24155 15.1321 4.11284 15.5624 4.00027C16.7759 3.68253 18.0108 3.54906 19.2642 3.58183C19.5749 3.58991 19.7064 3.72005 19.7131 4.03067C19.7516 5.77518 19.4775 7.46841 18.8696 9.10463C18.8035 9.28179 18.842 9.36016 18.9949 9.45895C20.0778 10.1562 21.0282 11.0049 21.8542 11.9928C22.0275 12.1999 22.0513 12.3614 21.8969 12.5447C20.5248 14.1672 18.9261 15.4828 16.8752 16.1596C16.4454 16.3017 15.9894 16.3634 15.5453 16.4622H14.4553C14.3413 16.4384 14.2278 16.4114 14.1129 16.3909C13.0404 16.1972 12.0867 15.7251 11.1829 15.1399C11.0437 15.0497 10.9506 15.0634 10.8072 15.138C10.1332 15.4904 9.46114 15.8528 8.76295 16.152C8.37966 16.3164 7.9465 16.3629 7.53567 16.4622H6.44564C6.40194 16.4479 6.3592 16.4247 6.31455 16.4199C5.59594 16.3425 4.91295 16.1354 4.26036 15.8352C2.56049 15.0539 1.18122 13.8684 0 12.4365V12.1524ZM10.9862 14.0456C11.0176 14.0266 11.0399 14.0176 11.0565 14.0024C12.0981 13.033 12.9863 11.9439 13.6403 10.6744C14.585 8.84151 14.6624 6.98727 13.7794 5.10787C13.3368 4.16603 12.7564 3.31538 12.0677 2.53883C11.73 2.15791 11.3671 1.79932 11.0076 1.42173C9.71477 2.63762 8.64849 3.9599 8.0111 5.58805C7.52427 6.83149 7.44542 8.09867 7.83156 9.38438C8.14123 10.4155 8.66321 11.3369 9.30345 12.1957C9.80358 12.8668 10.3621 13.4852 10.9858 14.0447L10.9862 14.0456ZM18.9536 4.33369C17.4528 4.35791 16.0203 4.58779 14.6396 5.07225C14.6396 5.11879 14.6353 5.13589 14.6401 5.14967C14.6633 5.21664 14.6895 5.28218 14.7137 5.34867C15.2328 6.75122 15.3231 8.16992 14.8894 9.61284C14.4159 11.1873 13.523 12.5096 12.4344 13.7155C12.3864 13.7687 12.3403 13.8238 12.2539 13.9235C12.5251 13.8414 12.7379 13.7863 12.9445 13.7136C14.5285 13.156 15.931 12.3225 16.9807 10.9821C17.8023 9.93343 18.2725 8.71897 18.5789 7.43516C18.8187 6.42825 18.9337 5.40567 18.9532 4.33417L18.9536 4.33369ZM7.35898 5.0713C5.95976 4.58732 4.52729 4.35221 3.04162 4.33702C3.04162 4.45196 3.03877 4.53745 3.04162 4.62246C3.07867 5.56905 3.19456 6.50472 3.40782 7.42946C3.97349 9.88356 5.2174 11.8399 7.50289 13.0415C8.19965 13.4077 8.91874 13.7103 9.72712 13.9074C9.65065 13.8219 9.6041 13.7692 9.55661 13.7169C8.82565 12.9152 8.18588 12.0484 7.68908 11.0809C6.8883 9.52069 6.5848 7.89017 7.02224 6.1637C7.11438 5.79988 7.24214 5.44509 7.35803 5.0713H7.35898ZM18.4834 10.036C17.125 12.6863 14.8415 14.0542 12.0378 14.7856C13.2518 15.4676 14.4738 15.8523 15.8355 15.6225C16.8985 15.4429 17.8427 14.9893 18.7275 14.3957C19.6091 13.8039 20.3946 13.1033 21.1047 12.2944C20.3386 11.4196 19.4742 10.681 18.4834 10.036ZM0.88247 12.2963C1.88748 13.4068 2.99128 14.3505 4.31831 15.0064C5.40643 15.5441 6.54016 15.8462 7.76839 15.6149C8.5345 15.4705 9.25168 15.2107 9.93325 14.7785C7.14525 14.0527 4.86023 12.6825 3.50708 10.0379C2.51965 10.6744 1.65855 11.4162 0.88247 12.2963Z" fill="white"/>
<path d="M8.34269 7.55438C8.39494 6.70563 8.61817 5.88633 9.03518 5.1226C9.15392 4.90459 9.38095 4.83287 9.57188 4.93926C9.76566 5.0466 9.82598 5.26223 9.7025 5.49259C9.3287 6.19125 9.14015 6.93788 9.09883 7.72536C9.08505 7.98516 8.93212 8.13477 8.70271 8.12527C8.48471 8.11625 8.34744 7.95999 8.34222 7.71444C8.34127 7.66741 8.34222 7.61992 8.34222 7.5539L8.34269 7.55438Z" fill="white"/>
<path d="M10.615 3.95134C10.6193 4.16317 10.4621 4.33036 10.2517 4.33748C10.0399 4.3446 9.86982 4.18977 9.85985 3.98031C9.8494 3.75803 10.0133 3.5842 10.2346 3.58277C10.4469 3.58135 10.6108 3.74046 10.615 3.95134Z" fill="white"/>
<path d="M5.69065 9.34592C5.67213 9.55823 5.57999 9.68884 5.39808 9.72969C5.19575 9.77529 5.03284 9.69359 4.95257 9.50456C4.73504 8.99113 4.51751 8.47723 4.32373 7.95525C4.22304 7.68405 4.16889 7.39528 4.10097 7.11268C4.04255 6.8676 4.15892 6.66147 4.37122 6.61492C4.5992 6.56458 4.77921 6.67524 4.83906 6.93172C5.01906 7.70875 5.27507 8.45728 5.63651 9.16972C5.66738 9.23099 5.67783 9.3027 5.69065 9.3464V9.34592Z" fill="white"/>
<path d="M4.16868 5.85261C3.95685 5.85166 3.79489 5.69113 3.79299 5.4793C3.79062 5.25749 3.9616 5.09078 4.18388 5.09791C4.39476 5.10456 4.55197 5.27032 4.54817 5.48262C4.54437 5.6935 4.38051 5.85356 4.16916 5.85261H4.16868Z" fill="white"/>
</svg>
