<svg width="22" height="21" viewBox="0 0 22 21" fill="none" xmlns="http://www.w3.org/2000/svg">
<g clip-path="url(#clip0_748_6046)">
<path d="M0 10.1153C0.171474 9.34949 0.687552 8.91502 1.3729 8.59302C2.33282 8.14255 3.26959 7.64247 4.21187 7.15506C4.37177 7.07236 4.52615 6.96594 4.65572 6.84133C6.27949 5.27877 7.89554 3.70793 9.52041 2.14591C10.3138 1.38337 11.4392 1.40874 12.1251 2.19829C12.2552 2.34826 12.3561 2.52801 12.4471 2.7061C13.9694 5.69615 15.4674 8.69943 17.0184 11.6751C17.6271 12.8429 16.9986 14.1855 15.6985 14.3851C14.1083 14.6294 12.5237 14.9072 10.9369 15.1708C10.4682 15.2485 10.0001 15.3263 9.49174 15.4112C9.5375 15.5115 9.57334 15.5987 9.6158 15.6825C10.0288 16.4979 10.4136 17.3294 10.863 18.125C11.5202 19.2878 10.9672 20.6282 9.47575 20.9535C9.43275 20.9629 9.3925 20.9866 9.35114 21.0037H8.96629C8.13869 20.8427 7.6761 20.2941 7.34638 19.5569C7.02935 18.8484 6.64946 18.168 6.29658 17.4755C6.21443 17.314 6.12952 17.1541 6.0424 16.9875C5.79429 17.1122 5.56823 17.2301 5.33831 17.341C4.40265 17.7909 3.40964 17.4678 2.92775 16.5536C2.72319 16.1655 2.5258 15.7734 2.33117 15.3803C1.55209 13.8095 0.776321 12.237 0 10.6656C0 10.4825 0 10.2989 0 10.1159V10.1153ZM10.7522 2.73753C10.6044 2.83291 10.4368 2.9068 10.3127 3.02644C8.77993 4.49858 7.25541 5.979 5.72096 7.45004C5.56878 7.59615 5.55059 7.69926 5.64818 7.88837C6.62961 9.79996 7.59891 11.7176 8.57262 13.6325C8.68013 13.8442 8.74354 14.1486 8.91612 14.2368C9.09641 14.3294 9.38588 14.2252 9.62407 14.1855C11.5632 13.8657 13.5024 13.5454 15.4399 13.2157C16.0651 13.1092 16.2305 12.7586 15.9449 12.1962C15.1917 10.7125 14.4375 9.22929 13.6838 7.74557C12.9179 6.23759 12.1504 4.73071 11.3873 3.22162C11.2594 2.968 11.0995 2.77447 10.7522 2.73753ZM7.8167 14.76C6.72389 12.6086 5.63991 10.4754 4.55372 8.33719C4.49748 8.35593 4.46164 8.3631 4.43077 8.37854C3.46808 8.86594 2.5043 9.35059 1.54492 9.84351C1.20087 10.0205 1.10218 10.3276 1.26979 10.6766C1.44402 11.0394 1.63314 11.3951 1.81509 11.7534C2.52746 13.1561 3.23872 14.5593 3.95328 15.9604C4.1402 16.3265 4.43187 16.461 4.76324 16.2983C5.77996 15.7983 6.7873 15.28 7.8167 14.7595V14.76ZM7.10102 16.4489C7.60332 17.4391 8.09072 18.4018 8.58034 19.3634C8.81026 19.8149 9.10193 19.9092 9.54412 19.6815C9.97033 19.4626 10.0596 19.1759 9.83359 18.7282C9.3754 17.8223 8.91446 16.9175 8.45352 16.0127C8.42099 15.9493 8.37964 15.8909 8.33663 15.8203C7.92421 16.0298 7.52613 16.2322 7.10102 16.4483V16.4489Z" fill="white"/>
<path d="M19.6515 3.28779C19.9878 3.28283 20.2083 3.43555 20.2888 3.67815C20.376 3.94281 20.2888 4.21959 20.0374 4.36791C19.6211 4.61382 19.1938 4.84208 18.7704 5.07697C17.9318 5.54177 17.0937 6.00822 16.2534 6.47026C15.9303 6.6478 15.6855 6.6274 15.4732 6.41954C15.1661 6.1196 15.251 5.6774 15.669 5.44362C16.458 5.00198 17.2508 4.5664 18.042 4.12862C18.4815 3.88547 18.9198 3.63956 19.362 3.40137C19.4717 3.34237 19.5958 3.30929 19.652 3.28779H19.6515Z" fill="white"/>
<path d="M21.3751 7.42413C21.6966 7.42247 21.9535 7.63971 21.9937 7.92697C22.0351 8.2214 21.8719 8.49433 21.5642 8.57317C20.9715 8.72535 20.3738 8.85768 19.7767 8.99386C19.0643 9.15596 18.3509 9.31641 17.6369 9.47079C17.2862 9.54633 16.9901 9.3528 16.9124 9.01316C16.8445 8.71708 17.0293 8.40776 17.3612 8.32947C18.6685 8.02236 19.9791 7.72903 21.2885 7.4313C21.3238 7.42302 21.3613 7.42523 21.3746 7.42413H21.3751Z" fill="white"/>
<path d="M14.3621 3.68477C14.0258 3.67705 13.8482 3.56071 13.7473 3.34403C13.6415 3.11631 13.6712 2.89191 13.8399 2.70555C14.0054 2.52249 14.1884 2.35488 14.3648 2.18175C15.0375 1.52066 15.7107 0.86013 16.3845 0.200146C16.5527 0.0358398 16.7495 -0.0441081 16.9844 0.0253638C17.2154 0.093733 17.3885 0.252526 17.3951 0.486856C17.4001 0.661087 17.3472 0.888801 17.2319 1.00624C16.3983 1.85589 15.5453 2.68625 14.689 3.5133C14.5854 3.61309 14.4244 3.65334 14.3621 3.68477Z" fill="white"/>
</g>
<defs>
<clipPath id="clip0_748_6046">
<rect width="22" height="21.0042" fill="white"/>
</clipPath>
</defs>
</svg>
