<svg width="22" height="22" viewBox="0 0 22 22" fill="none" xmlns="http://www.w3.org/2000/svg">
<g clip-path="url(#clip0_748_6019)">
<path d="M0 1.24991C0.00602575 1.24604 0.0154948 1.24346 0.0176468 1.23829C0.382635 0.285362 0.792816 0.00516493 1.82494 0.00516493C6.95715 0.00516493 12.0898 0.00688657 17.222 0C17.4889 0 17.6791 0.0809172 17.8625 0.269437C18.4969 0.920648 19.1438 1.55895 19.7898 2.19897C19.8458 2.25449 19.9259 2.3126 19.9995 2.31991C20.5663 2.37587 20.5667 2.37199 21.0096 2.75032C21.0849 2.65735 21.1551 2.54975 21.2459 2.46324C21.4379 2.27988 21.6884 2.27644 21.8618 2.44086C22.0405 2.61044 22.0426 2.8717 21.8558 3.07227C21.7736 3.1605 21.672 3.23066 21.5958 3.29522C21.6144 3.35333 21.6144 3.3727 21.6234 3.37915C21.9703 3.62276 22.0034 3.97011 22.0004 4.36221C21.9862 6.2091 21.9918 8.05556 21.9974 9.90245C21.9978 10.1108 21.9389 10.2692 21.7904 10.4168C20.4355 11.7648 19.0857 13.1176 17.7338 14.4687C17.6834 14.519 17.6318 14.5711 17.5724 14.6086C17.3942 14.7213 17.1661 14.6856 17.0266 14.5302C16.8958 14.3847 16.8807 14.1571 16.9991 13.9961C17.0494 13.9272 17.1127 13.8674 17.1734 13.8071C18.4435 12.5361 19.7124 11.2643 20.9868 9.99757C21.0979 9.88696 21.1409 9.77849 21.1405 9.62269C21.1353 7.85456 21.1387 6.08643 21.1332 4.31874C21.1332 4.20425 21.0776 4.08976 21.0367 3.9318C20.9421 4.00841 20.8969 4.03897 20.8585 4.07642C20.6347 4.29808 20.4225 4.53265 20.1862 4.73968C20.0313 4.87569 20.0038 4.99836 20.0614 5.19721C20.2207 5.75071 19.9581 6.33607 19.452 6.62445C18.9501 6.90981 18.32 6.82588 17.9089 6.41914C17.4919 6.00595 17.4049 5.36679 17.6972 4.85933C17.9869 4.35618 18.5744 4.09579 19.1283 4.25977C19.3336 4.32046 19.4494 4.27355 19.5841 4.12764C19.8299 3.86078 20.0963 3.61243 20.4114 3.29996C20.2392 3.24831 20.1277 3.18633 20.0158 3.1859C18.2335 3.17987 16.4511 3.17901 14.6688 3.18762C14.5573 3.18805 14.4187 3.24917 14.3396 3.32836C10.7159 6.94295 7.09747 10.5623 3.47858 14.1816C3.08217 14.578 3.08002 14.9352 3.47341 15.3286C5.31557 17.1717 7.15773 19.0138 9.00074 20.856C9.38209 21.2369 9.74535 21.2347 10.1336 20.8469C11.4855 19.4963 12.8366 18.144 14.1881 16.7925C14.4738 16.5067 14.7256 16.4684 14.9266 16.6797C15.116 16.879 15.0721 17.1325 14.8005 17.4041C13.5252 18.6798 12.246 19.9517 10.9763 21.233C10.6458 21.5666 10.3126 21.8825 9.83961 21.9978H9.28137C8.81265 21.8769 8.47779 21.5657 8.14681 21.2326C6.38729 19.4619 4.61873 17.6998 2.85405 15.9342C2.13397 15.2137 2.13268 14.3056 2.85061 13.5859C3.59307 12.8417 4.33768 12.0988 5.08056 11.3551C5.13307 11.3026 5.18128 11.2462 5.26564 11.1537C5.1391 11.1537 5.06292 11.1537 4.98674 11.1537C3.87111 11.1537 2.75506 11.1528 1.63943 11.1537C1.05494 11.1545 0.57718 10.9397 0.256094 10.4426C0.143757 10.2735 0.0830692 10.0716 0 9.88438C0 7.00622 0 4.12807 0 1.24991ZM18.6824 2.32465C18.187 1.82881 17.7398 1.37559 17.2836 0.931839C17.2323 0.881911 17.1299 0.865125 17.0511 0.865125C11.9116 0.862112 6.77208 0.862112 1.63255 0.862973C1.14274 0.862973 0.859099 1.14704 0.859099 1.63685C0.857808 4.26365 0.857808 6.89087 0.859099 9.51767C0.859099 10.0014 1.13499 10.2782 1.6149 10.2786C3.06797 10.2799 4.52103 10.2816 5.9741 10.2735C6.07912 10.273 6.20824 10.2145 6.28485 10.1405C6.75357 9.68811 7.20894 9.22197 7.67336 8.76574C7.72587 8.71409 7.80937 8.693 7.87823 8.65814C7.85413 8.63446 7.83003 8.61036 7.80549 8.58669C6.96318 8.52256 6.44238 8.04007 6.42129 7.30406C6.40236 6.64123 6.89733 6.08342 7.59502 5.99648C7.90449 5.95774 8.19157 6.04468 8.44724 6.22158C8.84709 6.49791 9.00548 6.90206 9.02183 7.40435C9.10619 7.32386 9.16258 7.27178 9.21724 7.21712C10.7611 5.67367 12.3076 4.13237 13.8454 2.58289C14.0322 2.39437 14.2242 2.31819 14.4885 2.32034C15.7913 2.33153 17.0938 2.32551 18.3966 2.32551H18.6828L18.6824 2.32465ZM19.2428 5.50452C19.2445 5.28802 19.0396 5.07884 18.8218 5.07497C18.601 5.0711 18.3953 5.26779 18.3876 5.49075C18.3794 5.71929 18.5899 5.93364 18.8188 5.93106C19.0409 5.92847 19.2411 5.72747 19.2428 5.50495V5.50452ZM8.13217 7.28814C8.13476 7.04711 7.95915 6.8672 7.71898 6.86505C7.47623 6.86289 7.29761 7.03678 7.29546 7.27738C7.2933 7.5197 7.46719 7.69832 7.70779 7.7009C7.94968 7.70349 8.12916 7.52874 8.13174 7.28814H8.13217Z" fill="white"/>
<path d="M9.90938 11.4304C9.95113 11.4463 10.0471 11.4726 10.1341 11.5169C11.1528 12.0326 12.1708 12.5499 13.1878 13.069C13.5403 13.2489 13.6092 13.6341 13.3286 13.8416C13.1581 13.9673 12.9756 13.953 12.8073 13.8446C12.6653 13.7529 12.5736 13.78 12.4639 13.9018C12.2728 14.114 12.067 14.3146 11.8583 14.5096C11.7675 14.5944 11.7645 14.6624 11.8165 14.7687C11.8686 14.8746 11.9216 14.9964 11.9185 15.1096C11.9134 15.3054 11.7907 15.4418 11.5992 15.4939C11.4145 15.5443 11.2617 15.478 11.1447 15.3299C11.1184 15.2968 11.0995 15.2572 11.0801 15.2189C10.5516 14.1825 10.0213 13.1465 9.49619 12.1083C9.32187 11.7635 9.50092 11.4304 9.90852 11.4296L9.90938 11.4304ZM10.9101 12.883C10.9002 12.8947 10.8899 12.9063 10.88 12.9179C11.028 13.2076 11.1756 13.4968 11.3211 13.7809C11.483 13.6255 11.6315 13.4822 11.7894 13.3302C11.4886 13.177 11.1993 13.0302 10.9105 12.883H10.9101Z" fill="white"/>
<path d="M6.55078 15.051C6.56455 14.7114 6.68894 14.4222 6.92136 14.1803C7.11462 13.9793 7.31175 13.7817 7.51275 13.5881C7.72107 13.3871 7.98534 13.381 8.16009 13.5644C8.33526 13.7482 8.32536 13.9875 8.12608 14.1949C7.95263 14.3757 7.77143 14.5483 7.59625 14.7274C7.38879 14.94 7.37028 15.1939 7.54589 15.3734C7.7215 15.5529 7.94919 15.5451 8.17644 15.3523C8.97313 14.6748 10.1008 15.0286 10.3251 16.0324C10.4184 16.4499 10.3121 16.8303 10.0263 17.1471C9.82061 17.3752 9.59895 17.5896 9.37643 17.8022C9.18575 17.9843 8.93439 17.983 8.7618 17.813C8.58964 17.6434 8.58662 17.3899 8.76524 17.1992C8.94128 17.0115 9.12937 16.8351 9.30885 16.65C9.53051 16.4215 9.55074 16.1976 9.37341 16.0061C9.19824 15.8167 8.96883 15.8232 8.72737 16.0242C7.95349 16.6694 6.8624 16.3552 6.60458 15.41C6.57316 15.2942 6.568 15.1711 6.55078 15.0515V15.051Z" fill="white"/>
<path d="M14.6548 7.63075C14.8778 7.85327 15.0689 8.04394 15.2798 8.25398C15.4356 8.09602 15.597 7.9273 15.764 7.76417C15.9702 7.56274 16.234 7.54811 16.4118 7.72199C16.5925 7.89889 16.5861 8.16187 16.3825 8.36933C16.2181 8.53676 16.0403 8.69128 15.8634 8.85656C16.0898 9.06918 16.2865 9.25382 16.5258 9.47893C16.6601 9.33087 16.8064 9.15784 16.9653 8.99687C17.1869 8.77219 17.4379 8.75369 17.6255 8.93618C17.814 9.11911 17.7921 9.38725 17.5674 9.61408C17.3208 9.86328 17.0746 10.1121 16.8241 10.357C16.5856 10.5902 16.3666 10.5941 16.1333 10.3621C15.3422 9.57577 14.5532 8.78726 13.7669 7.99616C13.5534 7.78139 13.5551 7.5537 13.7669 7.33505C14.0256 7.0682 14.2885 6.80522 14.555 6.54568C14.7672 6.33865 15.0211 6.32961 15.2014 6.51168C15.3852 6.69762 15.3753 6.94295 15.1631 7.15643C14.9974 7.323 14.8201 7.47752 14.6553 7.63032L14.6548 7.63075Z" fill="white"/>
<path d="M14.2911 11.699C14.511 11.4679 14.6991 11.263 14.895 11.0659C15.1274 10.8321 15.3818 10.8154 15.5707 11.0121C15.7468 11.1954 15.7235 11.4549 15.5057 11.6749C15.2191 11.9646 14.9316 12.2534 14.6415 12.5391C14.3966 12.7802 14.177 12.7815 13.9347 12.54C13.1548 11.7631 12.3766 10.9841 11.5993 10.2046C11.388 9.99241 11.3699 9.74363 11.5438 9.55985C11.731 9.36229 11.9815 9.36702 12.2036 9.58739C12.8385 10.2167 13.4686 10.8498 14.1 11.4825C14.1551 11.538 14.2042 11.6 14.2911 11.699Z" fill="white"/>
<path d="M15.9759 16.038C15.7319 16.0358 15.5477 15.8456 15.5528 15.6007C15.5576 15.3738 15.75 15.1797 15.9746 15.1758C16.2075 15.172 16.4089 15.373 16.4094 15.6097C16.4098 15.8529 16.2204 16.0401 15.9759 16.038Z" fill="white"/>
<path d="M3.94531 8.02027C3.96382 7.97206 3.98577 7.88124 4.02967 7.80291C4.93353 6.19619 5.83912 4.59033 6.74685 2.98533C6.89405 2.72493 7.13121 2.64917 7.35847 2.77572C7.57927 2.89881 7.64254 3.15448 7.49878 3.40928C6.59406 5.016 5.68718 6.62143 4.77859 8.22643C4.64989 8.45369 4.47257 8.53504 4.26597 8.47306C4.06454 8.4128 3.96038 8.27421 3.94531 8.02027Z" fill="white"/>
<path d="M5.37396 3.8681C5.37482 4.58946 4.80538 5.1589 4.08359 5.15804C3.36867 5.15718 2.79149 4.57655 2.79494 3.86078C2.79838 3.1562 3.37427 2.58375 4.07971 2.58246C4.80409 2.58117 5.37267 3.1463 5.37353 3.8681H5.37396ZM4.09736 3.44199C3.87613 3.43553 3.67082 3.63051 3.66178 3.85561C3.65275 4.07814 3.84256 4.28473 4.06852 4.29765C4.29836 4.31099 4.50969 4.1087 4.51184 3.87412C4.514 3.64773 4.32289 3.44845 4.09736 3.44242V3.44199Z" fill="white"/>
</g>
<defs>
<clipPath id="clip0_748_6019">
<rect width="22" height="21.9983" fill="white"/>
</clipPath>
</defs>
</svg>
