<svg width="22" height="25" viewBox="0 0 22 25" fill="none" xmlns="http://www.w3.org/2000/svg">
<path d="M17.646 0C17.8832 0 18.1204 0 18.3577 0C18.3919 0.0163238 18.4247 0.0384089 18.4608 0.047531C19.5442 0.312552 20.2112 1.27325 20.0624 2.38567C20.0272 2.64829 19.9259 2.90179 19.8527 3.16825C19.8955 3.17257 19.9492 3.18073 20.0029 3.18313C21.2404 3.23403 21.9995 4.03149 22 5.28746C22.001 9.30455 22.0014 13.3216 21.9972 17.3387C21.9972 17.5524 21.9786 17.7718 21.9273 17.9777C21.6986 18.8876 20.9447 19.4464 19.9578 19.4474C17.6175 19.4493 15.2777 19.4478 12.9374 19.4478H12.6379C12.83 20.2616 13.012 21.0327 13.1965 21.8148C13.6039 21.8148 13.9904 21.81 14.3768 21.8158C15.1118 21.8273 15.6894 22.3059 15.8215 23.0208C15.8543 23.197 15.8453 23.3809 15.8567 23.5768C16.3539 23.5768 16.8346 23.5739 17.3156 23.5778C17.5928 23.5802 17.7953 23.7621 17.8134 24.0199C17.8309 24.2725 17.6313 24.5399 17.2424 24.5389C13.0838 24.5293 8.92569 24.5332 4.76709 24.5332C4.71955 24.5332 4.67201 24.5356 4.62495 24.5308C4.38013 24.5063 4.18665 24.2864 4.19378 24.043C4.20091 23.8063 4.38916 23.5994 4.62495 23.5802C4.74284 23.5706 4.86216 23.5768 4.98053 23.5768C5.37272 23.5768 5.76443 23.5768 6.15709 23.5768C6.16755 23.3689 6.15709 23.1908 6.18894 23.0204C6.32015 22.3079 6.90106 21.8273 7.63504 21.8162C8.02818 21.81 8.42132 21.8153 8.81683 21.8153C9.00365 21.0173 9.1843 20.2467 9.3716 19.4483C9.23754 19.4483 9.14389 19.4483 9.05024 19.4483C6.70996 19.4483 4.37015 19.4502 2.02986 19.4474C1.05724 19.4459 0.297586 18.8621 0.0713067 17.9566C0.0475378 17.8644 0.0232935 17.7732 0 17.6815C0 13.433 0 9.18404 0 4.93554C0.0394563 4.79151 0.0722574 4.64507 0.119795 4.50344C0.39694 3.67429 1.12522 3.18409 2.08406 3.18361C6.23363 3.18265 10.3827 3.18217 14.5323 3.18698C14.7172 3.18698 14.8318 3.13752 14.9359 2.97429C15.3599 2.31125 15.8025 1.65974 16.2346 1.00199C16.4671 0.64815 16.7575 0.362964 17.1459 0.192044C17.3095 0.120028 17.4792 0.0633746 17.646 0ZM0.989736 15.2642C0.989736 16.0871 0.974524 16.8687 0.995916 17.6494C1.00685 18.0454 1.36671 18.394 1.7589 18.4511C1.89913 18.4713 2.04222 18.4747 2.18436 18.4747C8.06526 18.4756 13.9462 18.4756 19.8275 18.4756C19.8908 18.4756 19.954 18.4771 20.0172 18.4747C20.658 18.4507 21.0255 18.0767 21.0307 17.4314C21.0355 16.7765 21.0326 16.1216 21.0307 15.4672C21.0307 15.4063 21.0184 15.3453 21.0093 15.2642H20.6685C15.9019 15.2642 11.1357 15.2642 6.36911 15.2632C6.25122 15.2632 6.13095 15.2622 6.0159 15.2397C5.79866 15.1974 5.65462 15.0203 5.64701 14.8033C5.63893 14.567 5.74779 14.3995 5.96789 14.3299C6.08531 14.2924 6.21651 14.2895 6.34154 14.2891C11.1319 14.2871 15.9218 14.2876 20.7122 14.2876H21.0326C21.0326 14.169 21.0326 14.0826 21.0326 13.9962C21.0326 11.0978 21.0326 8.19933 21.0326 5.30042C21.0326 5.21256 21.0321 5.1247 21.0255 5.03732C20.9894 4.55241 20.6038 4.17552 20.1232 4.1616C19.8546 4.15392 19.5846 4.17456 19.3174 4.15392C19.1035 4.13759 18.9718 4.22209 18.8416 4.38341C17.5685 5.96154 16.2926 7.53678 15.0077 9.10482C14.8023 9.35544 14.6293 9.58301 14.7895 9.92533C14.828 10.0074 14.818 10.1135 14.8256 10.2091C14.9174 11.418 14.1938 12.4867 13.0814 12.7119C12.6546 12.7983 12.201 12.781 11.7618 12.7618C11.0478 12.7306 10.3803 12.7926 9.81845 13.3168C9.54844 13.5689 9.15768 13.4234 9.05927 13.0533C8.81826 12.1482 8.67517 11.2346 8.7731 10.2878C8.9409 8.66408 10.1303 7.52382 11.7494 7.47965C11.903 7.47532 11.9886 7.42347 12.0717 7.29624C12.7121 6.31826 13.36 5.34555 14.0056 4.37093C14.0431 4.3138 14.0755 4.25282 14.1306 4.15872C14.0198 4.15872 13.9433 4.15872 13.8672 4.15872C9.93064 4.15872 5.99404 4.16688 2.05791 4.15008C1.46131 4.14768 0.969295 4.55817 0.973098 5.25097C0.990687 8.17341 0.980229 11.0958 0.98118 14.0183C0.98118 14.1023 0.98831 14.1868 0.993064 14.2881C1.43564 14.2881 1.8535 14.2823 2.27088 14.29C2.61173 14.2963 2.82612 14.5229 2.79855 14.8277C2.77525 15.086 2.5756 15.2565 2.26613 15.2618C1.84922 15.2685 1.43184 15.2637 0.992589 15.2637L0.989736 15.2642ZM15.6993 6.73595C16.0003 6.36627 16.2855 6.01627 16.5698 5.66531C17.3404 4.71517 18.1181 3.77031 18.8792 2.81201C19.3174 2.25988 19.1758 1.48738 18.5963 1.12922C18.0634 0.799384 17.4212 0.955901 17.0475 1.51715C16.1624 2.84706 15.2824 4.18032 14.4006 5.51263C14.3664 5.56448 14.3379 5.6197 14.2998 5.68547C14.7629 6.03307 15.2183 6.37443 15.6993 6.73595ZM9.8156 12.0839C10.156 11.997 10.4711 11.8765 10.7949 11.8443C11.2403 11.8002 11.6924 11.8184 12.1416 11.8179C12.5609 11.8174 12.9859 11.8439 13.3415 11.5582C13.882 11.1242 13.9552 10.5471 13.8007 9.91669C13.7736 9.80482 13.6923 9.68575 13.6015 9.61374C13.2165 9.30887 12.8019 9.04001 12.4302 8.72025C12.1392 8.47059 11.8493 8.39762 11.4775 8.47348C10.628 8.64631 10.0405 9.0957 9.81227 9.96518C9.62545 10.6762 9.69248 11.3863 9.81607 12.0844L9.8156 12.0839ZM14.8727 23.5629C14.9435 22.993 14.7738 22.7933 14.23 22.7933C12.0641 22.7933 9.89879 22.7928 7.73297 22.7933C7.2362 22.7933 7.02418 23.078 7.15301 23.5629H14.8722H14.8727ZM10.3552 19.4555C10.1702 20.2429 9.98911 21.0135 9.80609 21.7937H12.2063C12.0185 20.9991 11.8369 20.2285 11.6544 19.4555H10.3552ZM15.0918 7.48493C14.6445 7.14933 14.21 6.82381 13.7574 6.48438C13.4503 6.9472 13.1575 7.38842 12.8556 7.84309C13.2592 8.14508 13.6557 8.44227 14.065 8.74858C14.4125 8.3208 14.7462 7.9103 15.0918 7.48493Z" fill="white"/>
<path d="M4.69553 14.7908C4.6903 15.0591 4.4702 15.269 4.20494 15.2589C3.95013 15.2488 3.75 15.0366 3.75 14.7773C3.75 14.5142 3.97343 14.2886 4.22966 14.2929C4.48731 14.2972 4.70076 14.5253 4.69553 14.7908Z" fill="white"/>
</svg>
