<svg width="22" height="23" viewBox="0 0 22 23" fill="none" xmlns="http://www.w3.org/2000/svg">
<path d="M0.00043084 14.3621C0.470908 13.8838 0.935354 13.3996 1.4166 12.9325C1.50449 12.8472 1.65658 12.7977 1.78368 12.7873C2.96849 12.6895 4.15373 12.6004 5.3394 12.5185C5.5643 12.503 5.73793 12.4422 5.90424 12.2738C7.13299 11.0299 8.37252 9.79645 9.61075 8.56209C9.66418 8.50867 9.73828 8.47592 9.80248 8.4337C9.78611 8.41 9.7693 8.38674 9.75293 8.36304C9.13037 8.18424 8.50737 8.00458 7.88481 7.82621C6.38635 7.39753 4.88788 6.97056 3.38985 6.54059C2.61219 6.31741 2.12275 5.58671 2.25071 4.84954C2.39203 4.03697 3.05337 3.51695 3.88446 3.54194C6.25494 3.61346 8.62542 3.67765 10.9959 3.74486C12.0342 3.77416 13.073 3.80087 14.1113 3.83577C14.2668 3.84094 14.3763 3.79958 14.4874 3.68713C15.4 2.76556 16.3241 1.85563 17.234 0.931046C17.7239 0.433425 18.2896 0.105987 18.9914 0.0340364C19.0259 0.0305897 19.0587 0.0116327 19.0923 0C19.2211 0 19.3503 0 19.4792 0C19.6459 0.0357597 19.8143 0.0641952 19.9789 0.108572C21.9983 0.649707 22.6807 3.14901 21.2116 4.6479C20.2585 5.62031 19.2896 6.57678 18.3232 7.53583C18.2181 7.64009 18.1737 7.7422 18.178 7.8917C18.2659 10.8352 18.3508 13.7787 18.4322 16.7222C18.4482 17.2944 18.4874 17.8704 18.4443 18.4391C18.3896 19.1642 17.7894 19.7204 17.0953 19.7751C16.356 19.8333 15.6968 19.3938 15.4891 18.6838C15.1647 17.5731 14.8532 16.4585 14.5348 15.3457C14.2522 14.3565 13.9674 13.3681 13.6835 12.3793C13.6723 12.3406 13.6585 12.3026 13.6378 12.2393C13.5689 12.3026 13.5168 12.3475 13.4681 12.3957C12.201 13.6619 10.9326 14.9269 9.6715 16.1996C9.58534 16.2866 9.52071 16.4292 9.51037 16.5512C9.41084 17.7498 9.32338 18.9496 9.23765 20.1495C9.22171 20.3749 9.14588 20.5563 8.97828 20.7161C8.60474 21.072 8.24671 21.4438 7.88093 21.8074C7.55909 22.1275 7.25449 22.0883 7.03002 21.6963C6.32258 20.461 5.61643 19.225 4.90943 17.9889C4.88831 17.9518 4.86677 17.9148 4.82972 17.8497C4.64489 18.0307 4.47342 18.2077 4.29203 18.3736C4.1253 18.5261 3.88747 18.5451 3.71729 18.4283C3.53677 18.3043 3.4743 18.1246 3.53418 17.9208C3.56262 17.8239 3.63457 17.7312 3.70781 17.658C3.85904 17.5076 4.02405 17.3715 4.20802 17.2082C3.47861 16.7916 2.80865 16.4094 2.13955 16.0264C1.57429 15.7033 1.00687 15.384 0.446781 15.0514C0.286078 14.9562 0.148209 14.8218 0 14.7054C0 14.5908 0 14.4762 0 14.3616L0.00043084 14.3621ZM5.68666 16.9971C5.81419 17.0135 5.89045 17.0298 5.96671 17.0324C6.97444 17.0669 7.83785 16.7136 8.54356 16.0105C10.9903 13.5732 13.425 11.1239 15.8666 8.681C17.2901 7.25707 18.7179 5.83746 20.1426 4.41525C20.3253 4.23301 20.514 4.0555 20.6799 3.85904C21.274 3.15461 21.2262 2.10896 20.5787 1.45624C19.8604 0.731998 18.7398 0.741907 17.9846 1.49329C16.8571 2.6152 15.7399 3.74745 14.6145 4.87194C11.7667 7.71894 8.92055 10.5681 6.06451 13.4065C5.46478 14.0027 5.1214 14.7115 5.00119 15.5339C4.96544 15.7795 4.99559 16.0346 4.99559 16.2858C5.11494 16.241 5.17181 16.1888 5.22652 16.1341C6.36179 14.9997 7.49705 13.8649 8.63275 12.7309C8.6935 12.6702 8.75381 12.6072 8.82361 12.5581C9.0149 12.4228 9.24885 12.4457 9.41084 12.6081C9.57241 12.7701 9.59481 13.0049 9.45953 13.1962C9.41041 13.2656 9.34708 13.3259 9.28633 13.3862C8.15193 14.5215 7.01666 15.6563 5.88183 16.7911C5.82712 16.8459 5.77541 16.9032 5.68666 16.9966V16.9971ZM17.2724 8.62154C17.2203 8.66075 17.2017 8.67109 17.1875 8.68574C16.2905 9.58232 15.3918 10.4772 14.5012 11.3802C14.4482 11.4341 14.425 11.5603 14.4461 11.6366C14.7416 12.7038 15.0471 13.7679 15.3508 14.8325C15.686 16.0074 16.0199 17.1823 16.3577 18.3564C16.4633 18.7235 16.714 18.8915 17.057 18.8406C17.3594 18.7958 17.5481 18.5455 17.5464 18.1858C17.5455 17.9923 17.5391 17.7989 17.5335 17.6054C17.4658 15.2276 17.3986 12.8502 17.3301 10.4724C17.3129 9.86667 17.2922 9.26048 17.2724 8.62154ZM13.4172 4.7289C13.241 4.7289 13.1156 4.73192 12.9903 4.72847C11.6939 4.69401 10.3975 4.65997 9.10107 4.62292C7.35358 4.57337 5.60609 4.51951 3.85861 4.47169C3.48162 4.46135 3.22312 4.65437 3.17831 4.95768C3.12661 5.30666 3.30411 5.55956 3.6811 5.66727C5.90553 6.30233 8.13039 6.93481 10.3531 7.57503C10.5 7.61726 10.5849 7.58537 10.687 7.48283C11.5396 6.62288 12.3974 5.76809 13.2535 4.91115C13.297 4.86763 13.3358 4.82024 13.4172 4.72933V4.7289ZM8.53064 17.2172C7.72281 17.7243 6.89689 17.9781 5.96972 17.9785C6.51474 18.9316 7.04381 19.857 7.59528 20.8212C7.80812 20.5976 8.002 20.4072 8.17821 20.2017C8.24715 20.1215 8.30876 20.0108 8.3191 19.9083C8.36735 19.4322 8.39622 18.954 8.43284 18.4766C8.46386 18.0725 8.49574 17.6683 8.53107 17.2172H8.53064ZM4.7763 13.5034C4.71296 13.5004 4.67806 13.4952 4.64403 13.4978C3.78838 13.5607 2.93273 13.624 2.07751 13.6895C2.02193 13.6938 1.95085 13.699 1.91552 13.7335C1.68329 13.9592 1.45839 14.1927 1.22057 14.4349C2.16713 14.9747 3.09343 15.5034 4.04257 16.0449C4.02146 15.1066 4.30625 14.2944 4.7763 13.503V13.5034Z" fill="white"/>
<path d="M18.9704 1.67252C19.5425 1.69148 19.976 1.94395 20.2151 2.46872C20.4533 2.99133 20.3805 3.49369 20.0044 3.9297C19.7898 4.17872 19.5486 4.40577 19.3095 4.6324C19.1048 4.82627 18.8584 4.83101 18.6554 4.63455C18.2229 4.2162 17.7968 3.79096 17.378 3.35883C17.182 3.15677 17.1889 2.91076 17.3849 2.70525C17.6119 2.46656 17.845 2.23262 18.0872 2.00944C18.3332 1.78282 18.6317 1.67295 18.9704 1.67166V1.67252ZM18.9859 3.65611C19.1768 3.43811 19.4921 3.28344 19.3758 2.93144C19.3349 2.80736 19.1819 2.6682 19.0544 2.63459C18.7149 2.54497 18.5688 2.84484 18.3775 3.02235C18.5844 3.23777 18.7812 3.44285 18.9859 3.65611Z" fill="white"/>
</svg>
