<svg width="22" height="19" viewBox="0 0 22 19" fill="none" xmlns="http://www.w3.org/2000/svg">
<path d="M19.379 18.3244C18.958 18.1893 18.7845 17.9039 18.8146 17.4609C18.8383 17.111 18.8284 16.758 18.8138 16.4072C18.8095 16.3064 18.7612 16.1846 18.6919 16.1127C18.1982 15.6035 17.6933 15.105 17.1926 14.6018C16.8259 14.2333 16.8263 13.8907 17.1939 13.5209C17.6941 13.0177 18.1982 12.5184 18.6937 12.0109C18.7561 11.9472 18.8133 11.8438 18.8138 11.7586C18.8206 10.0514 18.8189 8.34463 18.8185 6.63742C18.8185 6.60901 18.8142 6.5806 18.8095 6.52249C18.5882 6.59954 18.3764 6.67272 18.1651 6.74762C17.9231 6.83371 17.6838 6.92884 17.4389 7.00633C17.3015 7.0498 17.2533 7.11739 17.2542 7.26676C17.2611 8.35711 17.2581 9.44704 17.2581 10.5374C17.2581 10.6665 17.243 10.7978 17.2607 10.9244C17.3351 11.4521 17.0773 11.8064 16.6886 12.115C15.8457 12.7848 14.8768 13.183 13.8406 13.4008C11.5829 13.8756 9.32382 13.8769 7.08327 13.2812C6.19867 13.0461 5.37864 12.6647 4.66967 12.0655C4.32746 11.7763 4.14709 11.4504 4.15914 10.9722C4.19057 9.73201 4.16646 8.49056 4.17378 7.24997C4.17464 7.08768 4.12772 7.01235 3.97405 6.95639C2.81998 6.5354 1.66936 6.10494 0.517875 5.67706C0.159301 5.54405 -0.00255236 5.34001 3.04096e-05 5.02535C0.00261318 4.72273 0.165758 4.51611 0.514001 4.38998C3.85093 3.1791 7.1883 1.96993 10.5252 0.759907C10.598 0.733649 10.6694 0.703517 10.7418 0.675537C10.799 0.675537 10.8563 0.675537 10.9135 0.675537C11.7766 0.991065 12.6392 1.30831 13.5032 1.62212C16.0317 2.54072 18.5606 3.45804 21.0892 4.37578C21.465 4.51224 21.6453 4.72101 21.6509 5.02405C21.6561 5.33097 21.4701 5.55524 21.0887 5.69471C20.8275 5.79027 20.567 5.88928 20.3014 5.97193C20.1572 6.0167 20.1034 6.08385 20.1039 6.24355C20.1103 8.07172 20.1064 9.90032 20.1129 11.7285C20.1129 11.8219 20.1615 11.9373 20.2265 12.0044C20.685 12.4775 21.1581 12.9372 21.6169 13.4099C21.759 13.5562 21.873 13.7297 21.9996 13.8907V14.2351C21.8735 14.3956 21.7598 14.5687 21.6182 14.7146C21.1701 15.176 20.7155 15.631 20.2545 16.0792C20.1413 16.1894 20.0995 16.3 20.1043 16.4541C20.1142 16.783 20.0896 17.1131 20.1116 17.4407C20.1417 17.8845 19.9838 18.1871 19.5498 18.3244H19.3781H19.379ZM2.53372 5.03955C2.6366 5.07829 2.69601 5.10068 2.75584 5.12306C5.31192 6.0718 7.86886 7.01838 10.4228 7.97314C10.6092 8.04288 10.7667 8.04589 10.9535 7.97788C13.2083 7.15785 15.4656 6.34557 17.7221 5.53071C18.159 5.37316 18.5947 5.21217 19.0699 5.03826C18.976 4.99607 18.9265 4.97025 18.8745 4.95131C16.2499 3.99913 13.6258 3.04566 10.9987 2.10079C10.8903 2.06162 10.7426 2.06636 10.6328 2.10596C8.87958 2.73486 7.12933 3.37324 5.37864 4.0086C4.44669 4.34694 3.51431 4.68442 2.53372 5.03998V5.03955ZM5.46516 7.51944C5.46516 8.64767 5.46861 9.74406 5.46129 10.8404C5.46043 10.9954 5.51596 11.0914 5.63089 11.1822C6.10483 11.5572 6.64635 11.7948 7.22015 11.9571C9.34835 12.5593 11.4938 12.5881 13.6461 12.1064C14.417 11.9338 15.1501 11.6536 15.7906 11.1693C15.9004 11.0862 15.9568 10.998 15.9555 10.8491C15.9482 9.81681 15.9516 8.78456 15.9508 7.75188C15.9508 7.69248 15.9409 7.63265 15.9344 7.55775C15.8535 7.58659 15.7936 7.60725 15.7338 7.62877C14.1837 8.18837 12.6328 8.74668 11.084 9.30972C10.8334 9.40098 10.5997 9.4281 10.3371 9.32823C9.04272 8.83579 7.74273 8.35754 6.44446 7.87543C6.12549 7.75705 5.8048 7.64255 5.46516 7.51901V7.51944ZM19.4633 14.9845C19.7668 14.681 20.0823 14.3655 20.3849 14.0629C20.081 13.759 19.7651 13.4434 19.4646 13.143C19.1611 13.4452 18.8452 13.7598 18.5426 14.0612C18.8465 14.3659 19.1616 14.6819 19.4633 14.9845Z" fill="white"/>
</svg>
