<svg width="22" height="23" viewBox="0 0 22 23" fill="none" xmlns="http://www.w3.org/2000/svg">
<path d="M17.3483 0C17.5143 0.108532 17.5692 0.261169 17.5632 0.458342C17.5519 0.831502 17.5601 1.20509 17.5601 1.59166C18.0384 1.43945 18.5006 1.29201 18.9633 1.14542C19.0316 1.1238 19.1025 1.10997 19.17 1.08532C19.3779 1.00965 19.5366 1.06975 19.6906 1.22715C20.0066 1.55058 20.3383 1.85845 20.66 2.16934C20.7997 2.11313 20.9471 2.02535 21.1049 1.99595C21.5114 1.92028 21.898 2.2035 21.9741 2.61471C21.9922 2.71287 21.9961 2.81448 21.9961 2.9148C21.9974 6.05747 21.9974 9.20057 21.9961 12.3432C21.9961 12.4358 21.9931 12.5313 21.971 12.6204C21.9312 12.7791 21.8093 12.8855 21.6562 12.8483C21.5438 12.821 21.4336 12.716 21.3618 12.617C21.3151 12.5525 21.3324 12.4371 21.3319 12.3445C21.3306 9.23776 21.3311 6.13098 21.3311 3.02419C21.3311 2.96669 21.3319 2.90918 21.3311 2.85167C21.3259 2.61817 21.2848 2.59266 21.0786 2.70854C18.3687 4.23188 15.6602 5.75739 12.949 7.27813C12.8154 7.35294 12.7756 7.44504 12.7761 7.58946C12.7795 11.9403 12.78 16.2915 12.7808 20.6423C12.7808 20.7071 12.7808 20.7716 12.7808 20.8364C12.7817 21.1711 12.8167 21.194 13.1017 21.0336C14.6484 20.1653 16.1946 19.2958 17.7409 18.4267C18.8677 17.7932 19.9928 17.1567 21.1231 16.5297C21.2835 16.4407 21.3406 16.3386 21.3358 16.157C21.3233 15.6684 21.3324 15.1789 21.3311 14.6899C21.3306 14.5 21.3847 14.3461 21.5897 14.296C21.802 14.2441 21.9892 14.3868 21.9926 14.6259C22.0017 15.201 22.0039 15.7765 21.9914 16.3516C21.9844 16.6828 21.7937 16.9007 21.5071 17.0611C19.496 18.1867 17.4888 19.3191 15.4803 20.4494C14.7733 20.8472 14.0711 21.255 13.3546 21.6351C13.1752 21.7302 12.9477 21.7341 12.7436 21.7847C12.6879 21.7985 12.6243 21.8167 12.5854 21.8547C12.4172 22.0195 12.223 22.0999 11.9852 22.0977C11.331 22.0925 10.6763 22.0999 10.0221 22.0925C9.89717 22.0912 9.73631 22.0839 9.65502 22.0099C9.44618 21.8206 9.2049 21.7821 8.94589 21.7527C8.84341 21.741 8.74093 21.6882 8.64883 21.6364C5.92472 20.107 3.20321 18.5732 0.476935 17.0477C0.22528 16.9068 0.0946953 16.6962 0.000432398 16.4441C0 11.8391 0 7.23576 0 2.63244C0.0142691 2.60909 0.0332947 2.58747 0.0415102 2.56239C0.208416 2.04914 0.699621 1.84331 1.17266 2.08978C1.23536 2.12221 1.2972 2.15594 1.3426 2.17972C1.68635 1.84548 2.02276 1.52247 2.35441 1.19428C2.47721 1.07278 2.60563 1.01614 2.77989 1.07365C2.97014 1.13634 3.16645 1.17958 3.35757 1.23969C3.7169 1.35254 4.07406 1.47188 4.44895 1.59425C4.44895 1.20336 4.45673 0.830205 4.44592 0.457478C4.43987 0.260736 4.49478 0.108532 4.66082 0C4.74687 0 4.83335 0 4.91983 0C5.10533 0.0869121 5.29039 0.175121 5.47676 0.259871C7.61583 1.23147 9.35494 2.65147 10.4861 4.74687C10.6746 5.09668 10.8294 5.46465 11.0115 5.84862C11.0448 5.77382 11.0677 5.71717 11.0945 5.66269C11.3133 5.21948 11.504 4.75898 11.7578 4.33652C12.7999 2.60477 14.2899 1.36508 16.0857 0.473476C16.4169 0.309165 16.7546 0.157393 17.0893 0C17.1757 0 17.2618 0 17.3483 0ZM0.678433 9.53784C0.678433 11.7526 0.678866 13.9669 0.677136 16.1816C0.677136 16.3183 0.693567 16.4169 0.835826 16.4964C3.54134 18.012 6.24254 19.5349 8.94546 21.0548C9.16166 21.1763 9.22565 21.1374 9.22911 20.8918C9.22998 20.8343 9.22911 20.7767 9.22911 20.7192C9.22911 16.3978 9.22609 12.0765 9.23603 7.75507C9.2369 7.47357 9.15733 7.32224 8.90914 7.18387C6.26286 5.70852 3.6248 4.21978 0.984139 2.73449C0.703945 2.57666 0.678433 2.5918 0.678433 2.91566C0.678433 5.12306 0.678433 7.33045 0.678433 9.53784ZM10.4986 6.81373C10.1774 6.41766 9.90236 6.01034 9.55903 5.6722C9.03324 5.15419 8.46204 4.68158 7.90597 4.1947C7.78879 4.09222 7.66686 4.00314 7.70707 3.82327C7.76631 3.55864 8.03094 3.45876 8.25492 3.63993C8.72969 4.02347 9.19106 4.42387 9.65719 4.81778C9.71167 4.86405 9.76356 4.91378 9.85177 4.99334C9.24857 3.51108 6.6144 1.22023 5.10317 0.844042C5.10317 1.13418 5.10922 1.41956 5.10057 1.70451C5.09668 1.83164 5.14208 1.89347 5.25797 1.94579C5.64323 2.12048 6.02461 2.30425 6.40209 2.49537C6.57851 2.58488 6.62434 2.74703 6.54738 2.9122C6.46652 3.0856 6.30048 3.15002 6.11628 3.07522C6.0432 3.04538 5.97358 3.0082 5.9031 2.97231C4.94794 2.48672 3.95818 2.08805 2.92691 1.79705C2.84864 1.775 2.72757 1.76894 2.67482 1.81348C2.4223 2.02535 2.18621 2.25669 1.92158 2.50272C2.04092 2.57364 2.10059 2.61082 2.16156 2.64541C4.46408 3.94045 6.77093 5.22726 9.06523 6.53613C9.50282 6.78563 9.93089 6.94605 10.4991 6.81417L10.4986 6.81373ZM9.89284 10.4554V18.4907H12.1171V10.4554H9.89284ZM20.0901 2.50964C19.8458 2.28306 19.6279 2.0954 19.4277 1.88958C19.3196 1.77845 19.2292 1.74862 19.0727 1.79402C18.1054 2.07465 17.1723 2.44089 16.2712 2.88842C14.6449 3.69614 13.1864 4.72482 12.0336 6.14784C11.8603 6.36231 11.7037 6.59018 11.5247 6.83103C12.0042 6.89805 12.4008 6.85006 12.8025 6.61872C14.5818 5.59437 16.3771 4.59726 18.1664 3.59064C18.7851 3.24256 19.4043 2.89491 20.0901 2.50964ZM16.9059 0.812044C14.8749 1.71705 13.2491 3.01511 12.1759 4.94404C12.5249 4.66082 12.8522 4.35209 13.1998 4.06844C14.27 3.19542 15.4556 2.51137 16.7178 1.95704C16.8173 1.91336 16.9146 1.88699 16.9094 1.73954C16.899 1.44551 16.9063 1.15061 16.9063 0.811612L16.9059 0.812044ZM12.1283 8.34616C12.1283 8.10488 12.1383 7.8757 12.1206 7.64913C12.1167 7.59767 12.0168 7.51379 11.9597 7.51292C11.3211 7.50341 10.6824 7.50384 10.0438 7.51206C9.98884 7.51292 9.89111 7.58686 9.88809 7.63183C9.87209 7.86533 9.88074 8.10055 9.88074 8.34572H12.1283V8.34616ZM9.8803 20.6003C9.8803 20.8472 9.87166 21.0764 9.88722 21.3043C9.89068 21.3553 9.97889 21.4413 10.029 21.4422C10.6828 21.4513 11.3371 21.4509 11.9908 21.4422C12.0371 21.4418 12.1188 21.3613 12.1219 21.3146C12.1353 21.0807 12.1279 20.8455 12.1279 20.6003H9.8803ZM9.89025 9.77999H12.118V9.03324H9.89025V9.77999ZM9.88722 19.9262H12.1141V19.1721H9.88722V19.9262Z" fill="white"/>
<path d="M13.7172 10.4351C13.7172 10.1116 13.7233 9.78777 13.7151 9.46477C13.7103 9.27798 13.7825 9.15517 13.9442 9.06307C15.9212 7.93624 17.8955 6.80509 19.8724 5.67783C20.1608 5.51351 20.4069 5.66269 20.409 5.99996C20.4129 6.62521 20.4021 7.25089 20.4142 7.87614C20.419 8.11526 20.3299 8.26011 20.1241 8.37686C18.5389 9.27625 16.9581 10.1834 15.3759 11.0876C15.0209 11.2904 14.6655 11.4936 14.3092 11.6942C13.9503 11.8966 13.7203 11.7677 13.7177 11.3621C13.7155 11.053 13.7177 10.7438 13.7177 10.4346L13.7172 10.4351ZM14.3693 10.8748C14.4143 10.8657 14.4367 10.867 14.4536 10.8575C16.1867 9.86906 17.9197 8.88017 19.651 7.88825C19.6956 7.86274 19.7522 7.80782 19.7526 7.76545C19.7604 7.35423 19.7574 6.94302 19.7574 6.52965C19.7172 6.53311 19.709 6.53138 19.7038 6.53441C17.9586 7.52892 16.2135 8.52387 14.47 9.52142C14.4272 9.54606 14.3749 9.60271 14.374 9.64551C14.3667 10.0515 14.3697 10.458 14.3697 10.8748H14.3693Z" fill="white"/>
<path d="M10.6707 14.4789C10.6707 13.8752 10.6694 13.2712 10.672 12.6675C10.672 12.5828 10.6633 12.4725 10.71 12.4185C10.7861 12.3307 10.905 12.2274 11.0054 12.2282C11.1057 12.2291 11.2229 12.3342 11.2977 12.4228C11.3439 12.4777 11.3348 12.5871 11.3348 12.6719C11.337 13.8722 11.337 15.0725 11.3348 16.2729C11.3348 16.3581 11.3448 16.4662 11.2994 16.5228C11.2259 16.6136 11.1074 16.7295 11.0123 16.726C10.9055 16.7217 10.7857 16.6114 10.7053 16.518C10.659 16.4644 10.6715 16.3537 10.6715 16.2685C10.6689 15.6718 10.6702 15.0751 10.6702 14.4789H10.6707Z" fill="white"/>
</svg>
