<svg width="22" height="19" viewBox="0 0 22 19" fill="none" xmlns="http://www.w3.org/2000/svg">
<g clip-path="url(#clip0_748_6091)">
<path d="M0 7.38772C0.125291 7.08676 0.207957 6.75825 0.383623 6.49045C0.829677 5.81017 1.49359 5.50405 2.30088 5.50405C4.88635 5.50405 7.4714 5.50405 10.0569 5.50405C10.1391 5.50405 10.2213 5.50405 10.2769 5.50405C10.149 5.15573 9.98755 4.83367 9.9135 4.49225C9.63321 3.19714 10.7049 1.86027 12.0275 1.83745C12.7651 1.82497 13.503 1.83874 14.2401 1.82798C14.4218 1.8254 14.6113 1.79655 14.7826 1.73713C15.9839 1.32036 17.1808 0.891956 18.3795 0.467861C18.8264 0.309417 19.0774 0.485513 19.0774 0.958692C19.0774 3.05377 19.0774 5.14927 19.0774 7.24434C19.0774 7.70977 18.8225 7.88845 18.3782 7.73173C17.1657 7.30462 15.9537 6.87493 14.7409 6.44954C14.6315 6.41122 14.514 6.39658 14.3697 6.36386C14.3697 6.49088 14.3697 6.57569 14.3697 6.66008C14.3697 7.85831 14.3697 9.05654 14.3697 10.2552C14.3697 10.6565 14.2113 10.8722 13.9263 10.8627C13.6486 10.8537 13.4996 10.6423 13.4996 10.2565C13.4996 9.91249 13.4996 9.56847 13.4996 9.18786C13.2654 9.18786 13.0397 9.18786 12.8141 9.18786C12.6854 9.18786 12.5562 9.18916 12.4275 9.18786C12.1231 9.18442 11.9797 9.07506 11.9052 8.784C11.7184 8.0568 11.5337 7.32873 11.3477 6.6011C11.3305 6.53307 11.3094 6.4659 11.2861 6.38324C11.1935 6.38324 11.1087 6.38324 11.0239 6.38324C8.13058 6.38324 5.23726 6.39874 2.34436 6.37376C1.46087 6.36601 0.842594 7.0084 0.852066 7.88156C0.874885 9.962 0.858093 12.0433 0.860246 14.1242C0.861107 14.8238 1.26927 15.3512 1.92328 15.5019C2.03307 15.5273 2.15019 15.5299 2.26385 15.5304C3.04445 15.5325 3.82504 15.5312 4.60563 15.5316C5.0293 15.5321 5.18344 15.6888 5.18473 16.1185C5.18602 16.4746 5.18473 16.8306 5.18473 17.2358C5.30959 17.1372 5.39742 17.0691 5.48353 16.999C6.00063 16.5783 6.52031 16.1615 7.0318 15.7344C7.20058 15.5932 7.37625 15.5273 7.59798 15.5282C9.0877 15.5342 10.5774 15.5127 12.0667 15.5385C12.933 15.5536 13.5125 14.8647 13.5043 14.2042C13.5009 13.9235 13.7196 13.7414 13.9766 13.7625C14.222 13.7823 14.3727 13.9769 14.3637 14.2628C14.325 15.4886 13.3605 16.3983 12.0813 16.4031C10.6562 16.4087 9.23107 16.4009 7.80594 16.4104C7.6772 16.4113 7.52522 16.4672 7.42404 16.5482C6.64516 17.1682 5.87447 17.7994 5.10464 18.431C4.93673 18.5683 4.76192 18.645 4.5544 18.5434C4.35462 18.4461 4.30597 18.2644 4.30683 18.0573C4.30984 17.591 4.30769 17.1243 4.30769 16.658C4.30769 16.5813 4.30769 16.5047 4.30769 16.4044C4.03343 16.4044 3.78414 16.4052 3.53485 16.4044C3.04789 16.4018 2.56007 16.4182 2.07441 16.3906C1.06347 16.3333 0.266082 15.6367 0.0452081 14.6499C0.0361665 14.6103 0.0159305 14.5732 0.000430554 14.5349C0.000430554 12.1527 0.000430554 9.76997 0.000430554 7.38772H0ZM18.206 6.74921V1.47019C18.1659 1.47708 18.1371 1.47794 18.1108 1.48698C17.1274 1.83229 16.144 2.17587 15.1637 2.52892C15.1068 2.54959 15.0418 2.64732 15.0414 2.70975C15.0336 3.63501 15.0375 4.56027 15.0336 5.48553C15.0332 5.59748 15.0689 5.64957 15.177 5.68402C15.4353 5.76625 15.6885 5.86356 15.9447 5.95355C16.6908 6.21618 17.4374 6.47839 18.206 6.74878V6.74921ZM14.1519 5.49027V2.69641C13.4402 2.69641 12.7453 2.67402 12.0521 2.70243C11.3378 2.73171 10.7643 3.33707 10.741 4.02725C10.7165 4.75833 11.2241 5.42956 11.9281 5.47864C12.6613 5.52988 13.401 5.49027 14.1514 5.49027H14.1519ZM13.4811 8.30997V6.39529H12.1911C12.3466 7.00969 12.4942 7.60386 12.6522 8.19501C12.6652 8.2428 12.7465 8.30135 12.7991 8.30437C13.0195 8.31642 13.2408 8.30953 13.4811 8.30953V8.30997Z" fill="white"/>
<path d="M7.91923 10.9389C7.91923 10.3146 7.91794 9.69074 7.91966 9.06643C7.92095 8.65568 8.06992 8.50628 8.47421 8.50542C8.82511 8.50456 9.17601 8.50241 9.52691 8.50714C10.3441 8.51791 10.9495 8.89723 11.2819 9.6339C11.7103 10.5828 11.6999 11.546 11.1634 12.4579C10.7906 13.0917 10.2115 13.409 9.47051 13.4129C9.13382 13.4146 8.79756 13.4155 8.46086 13.4167C8.11384 13.418 7.94894 13.2673 7.92224 12.919C7.91492 12.8265 7.91923 12.7326 7.91923 12.6392C7.91923 12.0726 7.91923 11.5055 7.91923 10.9389ZM8.81736 9.376V12.5466C9.07225 12.5466 9.30776 12.5565 9.54241 12.5444C9.97254 12.5229 10.289 12.3051 10.4763 11.9236C10.7871 11.2885 10.7859 10.6392 10.497 9.99686C10.3359 9.63821 10.0479 9.4182 9.65565 9.38074C9.38096 9.35447 9.10196 9.37557 8.81736 9.37557V9.376Z" fill="white"/>
<path d="M6.9537 13.0211C6.95586 13.2411 6.8155 13.4163 6.61873 13.465C6.41508 13.5149 6.21617 13.4254 6.12532 13.2204C6.03576 13.0181 5.95999 12.8093 5.88894 12.5996C5.85364 12.4949 5.79982 12.4584 5.68831 12.4592C5.14452 12.4648 4.60116 12.4648 4.05737 12.4592C3.9437 12.4579 3.89376 12.5001 3.85931 12.6039C3.79645 12.7938 3.7224 12.9802 3.64705 13.1653C3.53726 13.434 3.30261 13.5455 3.06322 13.4482C2.83804 13.3565 2.74074 13.1158 2.8389 12.8562C3.34954 11.5064 3.86491 10.1583 4.37684 8.80898C4.46553 8.57562 4.63474 8.44172 4.87844 8.44129C5.1217 8.44085 5.29349 8.57174 5.38175 8.80596C5.89067 10.157 6.40087 11.5073 6.90936 12.8583C6.93175 12.9182 6.94294 12.9819 6.95327 13.0211H6.9537ZM4.87887 9.92626C4.66014 10.5036 4.45994 11.0324 4.25413 11.5753H5.49886C5.29435 11.0311 5.09716 10.5071 4.87887 9.92626Z" fill="white"/>
<path d="M21.8794 1.44047C21.7959 1.555 21.7365 1.70785 21.625 1.77673C21.2736 1.99287 20.9064 2.18447 20.5383 2.37176C20.3195 2.48327 20.0776 2.39802 19.9682 2.19566C19.8507 1.97737 19.9131 1.73842 20.1421 1.60796C20.4948 1.40689 20.8504 1.2097 21.2138 1.02843C21.5122 0.879892 21.8321 1.0844 21.8799 1.44047H21.8794Z" fill="white"/>
<path d="M20.9457 4.53918C20.7528 4.53918 20.5599 4.54521 20.3671 4.53789C20.0988 4.52756 19.9055 4.33467 19.9102 4.09442C19.915 3.86106 20.0967 3.67808 20.361 3.67162C20.7606 3.66215 21.161 3.66172 21.5606 3.67248C21.8314 3.6798 21.9993 3.85503 22.0006 4.09873C22.0019 4.34716 21.8189 4.52842 21.5455 4.53832C21.3457 4.54521 21.1455 4.53961 20.9457 4.53961V4.53918Z" fill="white"/>
<path d="M21.8733 6.76771C21.8336 7.10784 21.5228 7.31925 21.2317 7.17845C20.8528 6.99504 20.4839 6.7901 20.1192 6.57912C19.9117 6.459 19.8574 6.22047 19.962 6.01768C20.0636 5.82092 20.3052 5.71931 20.5114 5.82221C20.9006 6.01682 21.2856 6.22306 21.6576 6.4491C21.757 6.50937 21.8026 6.65921 21.8728 6.76771H21.8733Z" fill="white"/>
<path d="M14.3612 12.253C14.3633 12.4958 14.1898 12.6784 13.9509 12.684C13.7059 12.69 13.5048 12.5023 13.5001 12.2633C13.4953 12.0317 13.7029 11.8267 13.9414 11.8267C14.1756 11.8267 14.359 12.0132 14.3612 12.2525V12.253Z" fill="white"/>
</g>
<defs>
<clipPath id="clip0_748_6091">
<rect width="22" height="18.1788" fill="white" transform="translate(0 0.410583)"/>
</clipPath>
</defs>
</svg>
