<svg width="22" height="19" viewBox="0 0 22 19" fill="none" xmlns="http://www.w3.org/2000/svg">
<path d="M9.75338 0.649426C10.5843 0.649426 11.4148 0.649426 12.2458 0.649426C12.3366 0.663597 12.4274 0.685927 12.5187 0.690221C13.7488 0.746477 14.9672 0.895919 16.1675 1.17118C17.1586 1.39835 18.1256 1.6981 18.9918 2.2512C19.8508 2.79916 20.3627 3.52532 20.2968 4.60406C20.249 5.38562 20.2873 6.17277 20.2873 6.95734V7.18837C20.8229 7.30861 21.272 7.54866 21.5699 7.98153C21.755 8.25078 21.8592 8.575 22 8.87475V17.6996C21.7959 18.1921 21.4274 18.372 20.8978 18.3489C20.2047 18.3184 19.5093 18.3424 18.8149 18.3403C18.7301 18.3403 18.6418 18.336 18.5609 18.3141C18.173 18.2097 17.9237 17.8851 17.9207 17.4797C17.9172 17.0039 17.9198 16.5285 17.9198 16.0484H4.07977C4.07977 16.5255 4.08149 16.9884 4.07934 17.4513C4.07675 17.977 3.71467 18.3403 3.19157 18.3416C2.43253 18.3433 1.67393 18.3424 0.914891 18.3416C0.356054 18.3411 0.000430537 17.9907 0.000430537 17.4376C0 14.6892 0.000430537 11.9413 0 9.19339C0 8.64414 0.205366 8.18079 0.586391 7.79086C0.894225 7.47609 1.27482 7.29101 1.71224 7.18451C1.71224 7.09862 1.71224 7.02089 1.71224 6.9436C1.71224 6.07271 1.72172 5.20182 1.70923 4.33137C1.70019 3.7147 1.93053 3.20841 2.35461 2.77769C2.9199 2.20311 3.62684 1.86386 4.37124 1.59675C5.79373 1.08659 7.27392 0.859417 8.77391 0.735741C9.10069 0.708687 9.42703 0.678197 9.75381 0.649426H9.75338ZM0.87399 12.8599C0.969999 12.8599 1.05395 12.8599 1.13791 12.8599C3.79475 12.8599 6.45159 12.8599 9.10887 12.8599C9.18034 12.8599 9.25267 12.8556 9.3237 12.862C9.54586 12.8818 9.70516 13.0523 9.71205 13.2726C9.71937 13.5092 9.57126 13.6882 9.33877 13.7149C9.24664 13.7252 9.15278 13.7235 9.05979 13.7235C6.42447 13.7235 3.78872 13.7235 1.15341 13.7235C1.063 13.7235 0.973013 13.7235 0.877434 13.7235V15.1586H21.1204V13.7235H20.8522C18.2169 13.7235 15.5811 13.7235 12.9458 13.7235C12.8528 13.7235 12.759 13.7252 12.6668 13.7157C12.4417 13.6921 12.2905 13.5242 12.2871 13.3009C12.2824 13.0205 12.4662 12.8607 12.7981 12.8603C15.4907 12.8599 18.1837 12.8603 20.8763 12.8603H21.1359C21.1359 12.7559 21.1359 12.6851 21.1359 12.6147C21.1359 11.5222 21.1368 10.4297 21.1359 9.33767C21.1351 8.54666 20.6163 8.01846 19.8228 8.01803C13.9429 8.01588 8.06352 8.01588 2.18368 8.01803C1.38676 8.01803 0.864948 8.5428 0.864087 9.33123C0.863226 10.4306 0.864087 11.5303 0.864087 12.6297C0.864087 12.6993 0.870115 12.7688 0.87399 12.8603V12.8599ZM3.72027 7.14199C3.72027 6.90022 3.71424 6.66661 3.72156 6.43343C3.74567 5.6553 4.27308 5.14857 5.05407 5.14814C6.27852 5.14772 7.5034 5.14772 8.72784 5.14814C9.51529 5.14814 10.0505 5.67806 10.0535 6.46006C10.0543 6.68551 10.0535 6.91053 10.0535 7.14113H12.0757C12.0757 6.88992 12.0735 6.64901 12.0757 6.40852C12.083 5.69953 12.6354 5.14986 13.3462 5.14857C14.6137 5.14686 15.8812 5.14772 17.1491 5.149C17.2344 5.149 17.3218 5.1533 17.4044 5.17219C18.0193 5.31305 18.3947 5.79444 18.4115 6.46263C18.4171 6.6868 18.4123 6.91139 18.4123 7.13684H19.4228C19.4228 7.04408 19.4228 6.96636 19.4228 6.88863C19.4228 6.06026 19.4125 5.23188 19.4271 4.40394C19.4349 3.95519 19.2893 3.57256 18.9389 3.3149C18.5566 3.03406 18.1523 2.76137 17.7179 2.57714C16.0013 1.85011 14.1746 1.64742 12.3344 1.54951C10.9313 1.47479 9.5295 1.51258 8.13155 1.67061C6.96436 1.80245 5.81268 2.00557 4.70361 2.40279C4.08881 2.62309 3.49596 2.88676 3.01462 3.34711C2.72142 3.62753 2.56858 3.95991 2.57375 4.37517C2.58494 5.21771 2.57719 6.06026 2.57719 6.9028C2.57719 6.97881 2.57719 7.05482 2.57719 7.14156H3.7207L3.72027 7.14199ZM4.59512 7.13985H9.18765C9.18765 6.90838 9.19239 6.68937 9.18636 6.47036C9.17818 6.16461 9.02405 6.01431 8.71665 6.01001C8.43766 6.00572 8.15867 6.00915 7.87968 6.00915C6.94973 6.00915 6.0202 6.0083 5.09024 6.00958C4.78111 6.01001 4.60804 6.14142 4.59727 6.39521C4.58694 6.63655 4.59512 6.87875 4.59512 7.13985ZM12.9531 7.1377H17.5349C17.5349 6.89507 17.5383 6.6679 17.534 6.44073C17.5293 6.17363 17.3786 6.01259 17.1065 6.01173C15.8627 6.00701 14.6184 6.00744 13.3746 6.01173C13.1404 6.01259 12.9764 6.14485 12.9587 6.36215C12.9381 6.61465 12.954 6.87059 12.954 7.1377H12.9531ZM3.20233 16.0527H0.876142V17.4651H3.20233V16.0527ZM18.8041 16.045V17.4681H21.1221V16.045H18.8041Z" fill="white"/>
<path d="M10.9932 13.7192C10.7439 13.7149 10.5657 13.5306 10.5704 13.2816C10.5747 13.0377 10.7654 12.856 11.013 12.8607C11.2601 12.8654 11.441 13.0531 11.4362 13.3009C11.4315 13.5482 11.2459 13.7235 10.9932 13.7196V13.7192Z" fill="white"/>
</svg>
