<svg width="2318" height="1047" viewBox="0 0 2318 1047" fill="none" xmlns="http://www.w3.org/2000/svg">
<mask id="mask0_1004_51" style="mask-type:alpha" maskUnits="userSpaceOnUse" x="0" y="0" width="2318" height="1047">
<path d="M2318 0H0V1047H2318V0Z" fill="#D9D9D9"/>
</mask>
<g mask="url(#mask0_1004_51)">
<g clip-path="url(#clip0_1004_51)">
<path d="M-126.101 996.677L-116.614 868.842C-44.5889 842.659 40.0868 886.09 198.496 836.445C419.69 767.089 596.78 370.834 417.083 84.391L477.372 39.295C477.372 39.295 675.584 389.696 842.038 499.651C1008.49 609.605 1234.57 624.371 1460.83 576.153C1680.35 529.327 1697.56 696.232 1893.78 684.175C2043.03 675.021 2090.61 395.979 2355.72 415.238L2349.22 946.659C2347.08 975.367 2322.11 996.879 2293.38 994.747L-77.9761 1052.48C-106.703 1050.35 -128.231 1025.39 -126.101 996.677Z" fill="#1D0E78"/>
</g>
</g>
<defs>
<clipPath id="clip0_1004_51">
<rect width="2431.98" height="1051.51" fill="white" transform="matrix(-0.997258 -0.0740061 -0.0740061 0.997258 2373.18 179.982)"/>
</clipPath>
</defs>
</svg>
