<svg width="2255" height="1047" viewBox="0 0 2255 1047" fill="none" xmlns="http://www.w3.org/2000/svg">
<mask id="mask0_1004_33" style="mask-type:alpha" maskUnits="userSpaceOnUse" x="0" y="0" width="2255" height="1047">
<path d="M0 0H2255V1047H0V0Z" fill="#D9D9D9"/>
</mask>
<g mask="url(#mask0_1004_33)">
<g clip-path="url(#clip0_1004_33)">
<path d="M2377.67 996.677L2368.44 868.842C2298.37 842.659 2216 886.09 2061.9 836.445C1846.71 767.089 1674.44 370.834 1849.25 84.391L1790.6 39.295C1790.6 39.295 1597.77 389.696 1435.84 499.651C1273.91 609.605 1053.98 624.371 833.874 576.152C620.319 529.327 603.577 696.232 412.685 684.175C267.492 675.021 221.205 395.979 -36.6979 415.238L-30.37 946.659C-28.2974 975.367 -3.9994 996.879 23.9469 994.747L2330.85 1052.48C2358.8 1050.35 2379.74 1025.39 2377.67 996.677Z" fill="#1D0E78"/>
</g>
</g>
<defs>
<clipPath id="clip0_1004_33">
<rect width="2366.25" height="1051.35" fill="white" transform="matrix(0.997103 -0.0760619 0.0720053 0.997404 -53.6816 179.982)"/>
</clipPath>
</defs>
</svg>
