<svg width="178" height="38" viewBox="0 0 178 38" fill="none" xmlns="http://www.w3.org/2000/svg">
<path d="M101.821 22.8255L112.369 12.6659H101.98V7.88188H119.75V12.7444L109.2 22.8647H119.951V27.6488H101.825L101.821 22.8255ZM94.326 1.38039H99.8214V6.29852H94.326V1.38039ZM94.2519 7.94143H99.7473V27.7083H94.2519V7.94143ZM27.7858 17.7653C27.8077 12.1154 32.4689 7.55074 38.2015 7.56518C43.9341 7.57958 48.5716 12.1676 48.5643 17.8176C48.557 23.4675 43.9077 28.0439 38.1751 28.0439C35.4115 28.0479 32.7605 26.965 30.8102 25.0354C28.8598 23.1058 27.7711 20.489 27.7858 17.7653ZM43.2283 17.7653C43.2283 14.9585 40.9818 12.6226 38.1751 12.6226C35.3272 12.6226 33.1603 14.9557 33.1603 17.7653C33.1603 20.5748 35.3272 22.908 38.1751 22.908C40.9818 22.9039 43.2296 20.5721 43.2296 17.7653L43.2283 17.7653ZM73.3635 7.88183H78.8205V10.0959C80.103 8.4719 82.0679 7.48663 84.3543 7.48663C89.0889 7.48663 91.9368 10.4911 91.9368 15.5905V27.6488H86.3605V16.3023C86.3605 13.6538 85.1163 12.107 82.6708 12.107C80.5849 12.107 78.8602 13.5293 78.8602 16.8437V27.6366H73.3677L73.3635 7.88183ZM120.264 17.7653C120.264 10.7672 125.482 7.47994 130.013 7.47994C132.622 7.47994 134.667 8.42728 135.989 9.81308V7.88188H141.482V27.6488H135.989V25.4347C134.667 26.9762 132.54 28.0439 129.933 28.0439C125.681 28.0439 120.264 24.7283 120.264 17.7653ZM136.147 17.7261C136.147 14.8001 133.981 12.4277 131.013 12.4277C127.964 12.4277 125.638 14.6811 125.638 17.7261C125.638 20.7711 127.964 23.0623 131.013 23.0623C133.984 23.0623 136.15 20.6506 136.15 17.7261L136.147 17.7261ZM143.703 7.88188H149.159V10.0959C150.443 8.47194 152.408 7.48667 154.694 7.48667C159.427 7.48667 162.275 10.4911 162.275 15.5905V27.6488H156.699V16.3023C156.699 13.6538 155.463 12.107 153.009 12.107C150.923 12.107 149.199 13.5293 149.199 16.8437V27.6366H143.706L143.703 7.88188ZM101.821 27.6488V22.8255L112.369 12.6659H101.98V7.88188H119.75V12.7444L109.2 22.8647M21.9238 17.5935L21.8483 17.7504C20.3309 20.9024 17.5407 22.7105 14.1929 22.7105C9.33884 22.7105 5.54205 18.9292 5.54205 14.1032C5.54205 9.15399 9.31272 5.42286 14.3138 5.42286C17.5544 5.42286 20.0165 6.91827 21.6327 9.86993L21.7192 10.0269L26.6104 6.94539L26.528 6.81008C23.9877 2.54564 19.4205 0 14.3138 0C6.15309 0 0 6.06432 0 14.1059C0 22.2801 6.0199 28.2131 14.3138 28.2131C19.6594 28.2131 24.3817 25.2885 26.9468 20.3908L27.0237 20.2433L21.9238 17.5935ZM49.9485 17.7654C49.9485 10.7672 55.1665 7.47994 59.6979 7.47994C62.3069 7.47994 64.3501 8.54771 65.6739 10.0094V7.88188H71.1665V27.0993C71.1665 32.6738 67.5963 37.1804 60.817 37.1804C55.7226 37.1804 51.9931 34.5698 50.3811 31.4869L55.2351 28.7991C56.2774 30.8549 58.1188 32.1595 60.8101 32.1595C63.7789 32.1595 65.6629 29.8669 65.6629 27.2969V25.4348C64.3391 26.9762 62.2135 28.0439 59.6073 28.0439C55.3628 28.0439 49.9485 24.7283 49.9485 17.7654ZM65.8318 17.7261C65.8318 14.8001 63.6663 12.4277 60.6976 12.4277C57.6491 12.4277 55.323 14.6811 55.323 17.7261C55.323 20.7711 57.6491 23.0623 60.6976 23.0623C63.6663 23.0623 65.8318 20.6506 65.8318 17.7261ZM175.809 12.7444V7.88188H172.038V1.36147H166.546V7.88188H163.134V12.7444H166.539V19.0699C166.539 25.5145 168.625 27.6488 175.003 27.6488H175.805V22.5886C172.435 22.5886 172.034 22.1136 172.034 19.0307V12.7444H175.809ZM176.975 3.72032C176.845 3.84946 176.69 3.95191 176.519 4.02179C176.349 4.09168 176.166 4.12763 175.982 4.12758C175.798 4.12763 175.615 4.09168 175.445 4.0218C175.274 3.95191 175.12 3.84946 174.989 3.72032C174.857 3.59313 174.752 3.4405 174.681 3.27179C174.61 3.10307 174.575 2.92183 174.577 2.73917C174.579 2.11388 175.006 1.56741 175.619 1.40667C176.232 1.24592 176.878 1.51101 177.195 2.053C177.511 2.59499 177.419 3.27881 176.969 3.72032H176.975ZM175.129 1.9001C175.016 2.0092 174.926 2.14019 174.865 2.28498C174.805 2.42977 174.775 2.58528 174.778 2.74191C174.775 2.89906 174.805 3.0551 174.865 3.20067C174.925 3.34623 175.014 3.47833 175.127 3.58904C175.239 3.70026 175.372 3.7885 175.518 3.84869C175.665 3.90889 175.822 3.93985 175.981 3.93981C176.301 3.93981 176.609 3.81354 176.835 3.58908C176.948 3.47888 177.038 3.34692 177.099 3.20126C177.159 3.0556 177.189 2.89929 177.186 2.74187C177.19 2.25898 176.897 1.82195 176.444 1.63701C175.992 1.45204 175.47 1.55611 175.127 1.9001H175.129ZM175.953 1.97719C176.095 1.96998 176.238 1.98834 176.373 2.03138C176.45 2.06128 176.515 2.1149 176.558 2.1842C176.601 2.25349 176.62 2.33473 176.612 2.41573C176.616 2.4744 176.605 2.53308 176.578 2.58583C176.552 2.63858 176.512 2.68353 176.463 2.71613C176.394 2.75502 176.319 2.77989 176.24 2.78923C176.292 2.79434 176.343 2.81024 176.388 2.83589C176.433 2.86154 176.473 2.89636 176.504 2.9381C176.556 3.00555 176.585 3.08745 176.588 3.17226V3.39689C176.588 3.42347 176.592 3.44992 176.6 3.4754L176.61 3.49431H176.356C176.355 3.48936 176.355 3.48438 176.356 3.47943V3.29405C176.365 3.22852 176.356 3.16177 176.33 3.10065C176.305 3.03953 176.263 2.98624 176.21 2.94625C176.115 2.90672 176.011 2.89002 175.908 2.89751H175.694V3.49431H175.419V1.97724L175.953 1.97719ZM176.246 2.21543C176.142 2.17114 176.03 2.15212 175.918 2.15995H175.685V2.70939H175.931C176.019 2.71347 176.106 2.702 176.189 2.67554C176.232 2.65652 176.27 2.62678 176.298 2.58923C176.326 2.55168 176.344 2.50759 176.349 2.46125C176.355 2.41492 176.348 2.36792 176.33 2.32484C176.312 2.28176 176.283 2.24407 176.246 2.21543Z" fill="white"/>
</svg>
