<svg width="140" height="38" viewBox="0 0 140 38" fill="none" xmlns="http://www.w3.org/2000/svg">
<path d="M5.53442 0C5.12759 0 4.78204 0.295345 4.71842 0.697506L0.00923528 30.5618C-0.00787623 30.6709 -0.00115266 30.7824 0.0289361 30.8887C0.0590249 30.9949 0.111779 31.0934 0.18355 31.1773C0.255322 31.2612 0.344391 31.3286 0.444685 31.3748C0.544978 31.421 0.654106 31.445 0.76453 31.445H6.34924C6.75549 31.445 7.10162 31.149 7.16524 30.7475L8.54858 21.9776C8.61162 21.576 8.95775 21.2801 9.36458 21.2801H14.4421C20.3746 21.2801 25.4107 16.9514 26.3306 11.086C27.2581 5.17088 22.637 0.0128411 16.0875 0H5.53442ZM10.9633 6.66687H15.0257C18.3703 6.66687 19.4595 8.64032 19.1151 10.8227C18.7707 13.0098 17.0792 14.6208 13.8438 14.6208H9.70893L10.9633 6.66687ZM37.6891 8.69693C36.2789 8.70219 34.6563 8.99111 32.8346 9.74991C28.656 11.4916 26.6493 15.0912 25.7971 17.7155C25.7971 17.7155 23.0847 25.7219 29.2129 30.1206C29.2129 30.1206 34.8962 34.3552 41.294 29.8597L41.1837 30.5618C41.1666 30.6708 41.1733 30.7822 41.2033 30.8884C41.2333 30.9946 41.2859 31.093 41.3576 31.1769C41.4292 31.2608 41.5182 31.3282 41.6183 31.3745C41.7185 31.4207 41.8275 31.4448 41.9378 31.445H47.2394C47.6463 31.445 47.9918 31.149 48.0554 30.7475L51.2803 10.2962C51.2976 10.1872 51.291 10.0756 51.2611 9.96932C51.2312 9.86301 51.1785 9.76446 51.1069 9.68042C51.0352 9.59639 50.9462 9.52888 50.846 9.48253C50.7457 9.43619 50.6366 9.41211 50.5262 9.41195H45.2246C44.8177 9.41195 44.4716 9.70788 44.4086 10.1095L44.2352 11.2103C44.2352 11.2103 41.9203 8.68117 37.6891 8.69693ZM37.8625 15.1566C38.4713 15.1566 39.0281 15.2407 39.5278 15.4012C41.8152 16.1354 43.1122 18.333 42.7369 20.715C42.274 23.6481 39.8686 25.8077 36.7839 25.8077C36.1757 25.8077 35.6188 25.7242 35.1186 25.5637C32.8317 24.8295 31.5266 22.6319 31.9019 20.2499C32.3648 17.3168 34.7777 15.1566 37.8625 15.1566Z" fill="white"/>
<path d="M81.8801 0C81.4733 0 81.1277 0.295345 81.0641 0.697506L76.3549 30.5618C76.3378 30.6709 76.3446 30.7824 76.3746 30.8887C76.4047 30.9949 76.4575 31.0934 76.5293 31.1773C76.601 31.2612 76.6901 31.3286 76.7904 31.3748C76.8907 31.421 76.9998 31.445 77.1102 31.445H82.6949C83.1012 31.445 83.4473 31.149 83.5109 30.7475L84.8943 21.9776C84.9573 21.576 85.3035 21.2801 85.7103 21.2801H90.7878C96.7204 21.2801 101.756 16.9514 102.675 11.086C103.603 5.17088 98.9827 0.0128411 92.4332 0H81.8801ZM87.309 6.66687H91.3714C94.716 6.66687 95.8052 8.64032 95.4608 10.8227C95.1164 13.0098 93.4255 14.6208 90.1895 14.6208H86.0547L87.309 6.66687ZM114.034 8.69693C112.624 8.70219 111.001 8.99111 109.18 9.74991C105.001 11.4916 102.994 15.0912 102.142 17.7155C102.142 17.7155 99.431 25.7219 105.559 30.1206C105.559 30.1206 111.241 34.3552 117.64 29.8597L117.529 30.5618C117.512 30.6709 117.519 30.7824 117.549 30.8887C117.579 30.9949 117.632 31.0934 117.704 31.1773C117.775 31.2612 117.865 31.3286 117.965 31.3748C118.065 31.421 118.174 31.445 118.285 31.445H123.586C123.993 31.445 124.338 31.149 124.402 30.7475L127.628 10.2962C127.645 10.1871 127.638 10.0754 127.608 9.96904C127.578 9.86265 127.526 9.76403 127.454 9.67998C127.382 9.59593 127.293 9.52844 127.193 9.48217C127.092 9.4359 126.983 9.41194 126.872 9.41195H121.571C121.164 9.41195 120.818 9.70788 120.755 10.1095L120.581 11.2103C120.581 11.2103 118.265 8.68117 114.034 8.69693ZM114.208 15.1566C114.816 15.1566 115.373 15.2407 115.873 15.4012C118.16 16.1354 119.457 18.333 119.082 20.715C118.619 23.6481 116.214 25.8077 113.129 25.8077C112.521 25.8077 111.964 25.7242 111.464 25.5637C109.177 24.8295 107.872 22.6319 108.247 20.2499C108.71 17.3168 111.123 15.1566 114.208 15.1566Z" fill="white"/>
<path d="M53.7966 9.41172C53.3763 9.41172 53.0774 9.82205 53.2059 10.2219L59.0182 28.2584L53.7627 36.758C53.5076 37.1707 53.8041 37.7036 54.2892 37.7036H60.5008C60.6784 37.7034 60.853 37.6575 61.0077 37.5702C61.1624 37.4829 61.292 37.3571 61.3839 37.2051L77.6168 10.3515C77.8661 9.93879 77.5684 9.41113 77.0863 9.41113H70.8752C70.6959 9.41129 70.5196 9.45813 70.3638 9.54707C70.2081 9.63601 70.0782 9.76397 69.9869 9.91836L63.5972 20.7061L60.3537 9.99832C60.2481 9.64986 59.9264 9.41113 59.5628 9.41113L53.7966 9.41172Z" fill="white"/>
<path d="M133.653 0C133.247 0 132.901 0.295929 132.837 0.697506L128.127 30.5607C128.109 30.6699 128.116 30.7815 128.146 30.8879C128.176 30.9943 128.229 31.0929 128.3 31.1769C128.372 31.261 128.461 31.3285 128.562 31.3748C128.662 31.421 128.771 31.445 128.882 31.445H134.467C134.873 31.445 135.219 31.149 135.283 30.7475L139.992 0.883119C140.009 0.774126 140.002 0.662723 139.972 0.55656C139.942 0.450398 139.89 0.351989 139.818 0.26809C139.746 0.184192 139.657 0.11679 139.557 0.0705138C139.457 0.0242374 139.348 0.000183218 139.238 0H133.653Z" fill="white"/>
</svg>
