<svg width="164" height="35" viewBox="0 0 164 35" fill="none" xmlns="http://www.w3.org/2000/svg">
<path fill-rule="evenodd" clip-rule="evenodd" d="M12.9771 33.7317C22.1508 36.0191 31.441 30.4368 33.7279 21.2642C36.0147 12.0911 30.433 2.79923 21.2599 0.512373C12.0889 -1.77448 2.79862 3.80836 0.512836 12.982C-1.77509 22.154 3.80721 31.4449 12.9771 33.7317ZM20.9039 10.3629C23.2758 11.18 25.0105 12.4047 24.6696 14.683C24.423 16.3508 23.4984 17.1582 22.2709 17.4413C23.9564 18.3188 24.8141 19.6644 23.997 21.9973C22.9831 24.8947 20.5743 25.1392 17.3708 24.533L16.5934 27.6486L14.7148 27.1805L15.4821 24.1065C14.9952 23.9856 14.4976 23.8572 13.985 23.7181L13.215 26.8064L11.3385 26.3383L12.116 23.2167C11.9407 23.1718 11.7642 23.1258 11.5865 23.0795C11.3196 23.0098 11.0498 22.9395 10.7767 22.8711L8.33203 22.2616L9.26465 20.1112C9.26465 20.1112 10.6489 20.4793 10.6301 20.452C11.162 20.5837 11.3979 20.237 11.491 20.0058L12.7195 15.0806C12.7657 15.0916 12.8109 15.103 12.8545 15.1139C12.8761 15.1193 12.8973 15.1246 12.918 15.1298C12.8431 15.0998 12.7752 15.0806 12.7228 15.0672L13.5992 11.5513C13.6222 11.1521 13.4847 10.6486 12.7238 10.4587C12.7533 10.4389 11.3594 10.1195 11.3594 10.1195L11.8592 8.11298L14.4499 8.75987L14.4478 8.7695C14.8373 8.86635 15.2386 8.95838 15.6474 9.05148L16.4174 5.96631L18.2949 6.43449L17.5405 9.4592C18.0445 9.57423 18.5517 9.69034 19.0456 9.81341L19.7947 6.8085L21.6733 7.27668L20.9039 10.3629ZM14.9617 21.5525C16.4946 21.9574 19.8447 22.8422 20.3774 20.7019C20.9231 18.5135 17.674 17.7845 16.0886 17.4287C15.9115 17.389 15.7551 17.3539 15.6271 17.3219L14.5955 21.4574C14.7006 21.4835 14.8238 21.5161 14.9617 21.5525ZM16.4072 15.5096C17.6852 15.8506 20.4728 16.5946 20.9584 14.6493C21.4543 12.6596 18.7449 12.0598 17.4217 11.7668C17.2728 11.7339 17.1415 11.7048 17.0343 11.6781L16.099 15.4289C16.1873 15.4509 16.291 15.4786 16.4072 15.5096Z" fill="white"/>
<path d="M50.1766 10.3597C51.5651 10.3597 52.7647 10.6085 53.7728 11.097C54.7856 11.5903 55.6214 12.2548 56.2918 13.0906C56.9532 13.9307 57.4454 14.9125 57.7633 16.0377C58.0789 17.1662 58.2373 18.3792 58.2373 19.6778C58.2373 21.6725 57.8719 23.557 57.134 25.3334C56.3962 27.1124 55.3951 28.6556 54.1216 29.9718C52.8493 31.2865 51.3468 32.3229 49.6143 33.0886C47.8844 33.8548 46.0037 34.2379 43.9843 34.2379C43.7232 34.2379 43.2641 34.2304 42.6157 34.217C41.9672 34.2036 41.2218 34.1367 40.3871 34.0238C39.5471 33.9067 38.6589 33.7333 37.7209 33.5011C36.7835 33.2732 35.8931 32.9537 35.0547 32.5481L42.552 1.04582L49.267 0.00512695L46.5826 11.1842C47.1573 10.9252 47.7362 10.7246 48.3141 10.5785C48.8925 10.4346 49.5131 10.3597 50.1766 10.3597ZM44.544 28.9108C45.5553 28.9108 46.5082 28.662 47.4034 28.1735C48.3012 27.6844 49.076 27.0242 49.725 26.2018C50.3741 25.3756 50.8877 24.4452 51.2623 23.4055C51.6368 22.3659 51.8262 21.2813 51.8262 20.1529C51.8262 18.7666 51.5945 17.6852 51.1328 16.9035C50.671 16.1249 49.8165 15.7333 48.5757 15.7333C48.1691 15.7333 47.6452 15.8109 46.9957 15.9494C46.344 16.0966 45.7607 16.4021 45.238 16.8617L42.3797 28.7337C42.552 28.7642 42.7045 28.7931 42.8345 28.8204C42.9618 28.8498 43.1026 28.8707 43.2427 28.8851C43.391 28.9017 43.5606 28.9103 43.7655 28.9103C43.9704 28.9103 44.2267 28.9108 44.544 28.9108ZM65.2012 33.6349H58.7874L64.2038 10.8428H70.6615L65.2012 33.6349ZM68.3222 8.06584C67.427 8.06584 66.6153 7.79938 65.8951 7.26539C65.1691 6.7346 64.8095 5.91757 64.8095 4.81641C64.8095 4.21072 64.9326 3.64248 65.1766 3.10635C65.4243 2.57129 65.748 2.1106 66.1536 1.71893C66.5586 1.33048 67.0279 1.02014 67.5608 0.786318C68.0969 0.556241 68.6673 0.441203 69.2751 0.441203C70.1698 0.441203 70.9772 0.707664 71.7 1.24166C72.4202 1.77832 72.7825 2.59536 72.7825 3.69064C72.7825 4.29847 72.6599 4.86884 72.4138 5.40391C72.1693 5.93897 71.8456 6.39966 71.44 6.79132C71.0382 7.18031 70.5646 7.48958 70.0328 7.72126C69.4961 7.95508 68.9279 8.06584 68.3222 8.06584ZM76.2823 5.1642L83 4.1235L81.3504 10.8417H88.5449L87.2457 16.1271H80.0946L78.1898 24.0995C78.0143 24.7641 77.9148 25.3847 77.887 25.9615C77.8554 26.541 77.9287 27.0386 78.1021 27.4576C78.2743 27.8776 78.5841 28.2013 79.0336 28.4303C79.4809 28.6631 80.1214 28.7802 80.9614 28.7802C81.6533 28.7802 82.3274 28.7144 82.9791 28.5839C83.6271 28.4555 84.2836 28.2767 84.9482 28.0429L85.4265 32.9848C84.5597 33.3026 83.6212 33.576 82.6099 33.8061C81.5971 34.0394 80.398 34.1517 79.0122 34.1517C77.0196 34.1517 75.4749 33.8558 74.3743 33.2667C73.2752 32.6734 72.4983 31.8627 72.0334 30.8365C71.5748 29.814 71.3699 28.6352 71.4271 27.3072C71.4865 25.976 71.6872 24.5768 72.0334 23.1032L76.2823 5.1642ZM88.2623 24.5335C88.2623 22.5703 88.5802 20.719 89.2153 18.9859C89.8493 17.2513 90.7627 15.7344 91.9479 14.4325C93.1287 13.1372 94.5675 12.1109 96.261 11.3575C97.9464 10.6085 99.8336 10.2307 101.913 10.2307C103.215 10.2307 104.378 10.3538 105.401 10.6004C106.428 10.8492 107.358 11.1708 108.198 11.5742L105.986 16.6038C105.408 16.3695 104.809 16.1629 104.188 15.9757C103.568 15.7846 102.81 15.6926 101.914 15.6926C99.7731 15.6926 98.0807 16.4305 96.8212 17.9014C95.5665 19.3733 94.9346 21.3546 94.9346 23.84C94.9346 25.313 95.2524 26.5041 95.8902 27.4153C96.5248 28.3265 97.6971 28.7797 99.3991 28.7797C100.239 28.7797 101.05 28.692 101.826 28.5207C102.608 28.3474 103.299 28.1291 103.908 27.8712L104.386 33.027C103.575 33.3416 102.681 33.6258 101.699 33.8746C100.716 34.1148 99.5452 34.2395 98.1877 34.2395C96.3958 34.2395 94.8789 33.9773 93.6381 33.461C92.3968 32.9366 91.3711 32.2405 90.5631 31.3587C89.7509 30.4748 89.1677 29.4426 88.807 28.258C88.4464 27.0745 88.2623 25.831 88.2623 24.5335ZM116.754 34.2395C115.224 34.2395 113.894 34.0062 112.766 33.5444C111.641 33.0827 110.71 32.4347 109.973 31.5947C109.235 30.7589 108.683 29.7685 108.305 28.6272C107.926 27.4865 107.744 26.2232 107.744 24.839C107.744 23.1027 108.023 21.367 108.587 19.636C109.147 17.9014 109.979 16.3427 111.081 14.9574C112.173 13.57 113.521 12.4357 115.108 11.5512C116.693 10.6727 118.517 10.2307 120.565 10.2307C122.068 10.2307 123.391 10.4645 124.534 10.9263C125.672 11.387 126.61 12.0403 127.351 12.876C128.084 13.7161 128.641 14.7022 129.015 15.8451C129.393 16.9837 129.579 18.2502 129.579 19.6355C129.579 21.3664 129.304 23.1022 128.758 24.8384C128.212 26.5662 127.401 28.1285 126.331 29.517C125.263 30.9023 123.927 32.0361 122.323 32.9168C120.721 33.7975 118.864 34.2395 116.754 34.2395ZM119.96 15.6932C119.009 15.6932 118.169 15.9692 117.449 16.5145C116.727 17.0661 116.12 17.7596 115.631 18.5959C115.136 19.4359 114.77 20.3519 114.522 21.3477C114.277 22.3456 114.156 23.2889 114.156 24.1851C114.156 25.6314 114.389 26.7577 114.848 27.5683C115.313 28.3747 116.148 28.7802 117.362 28.7802C118.316 28.7802 119.153 28.5063 119.876 27.9552C120.595 27.4078 121.202 26.7138 121.695 25.8759C122.186 25.0402 122.556 24.1215 122.803 23.1241C123.046 22.1294 123.169 21.1807 123.169 20.2861C123.169 18.8436 122.937 17.7146 122.474 16.9051C122.012 16.0987 121.173 15.6932 119.96 15.6932ZM136.568 33.6349H130.149L135.565 10.8428H142.026L136.568 33.6349ZM139.684 8.06584C138.789 8.06584 137.978 7.79938 137.259 7.26539C136.537 6.7346 136.174 5.91757 136.174 4.81641C136.174 4.21072 136.299 3.64248 136.543 3.10635C136.788 2.57129 137.114 2.1106 137.519 1.71893C137.922 1.33048 138.396 1.02014 138.927 0.786318C139.46 0.556241 140.031 0.441203 140.636 0.441203C141.533 0.441203 142.343 0.707664 143.064 1.24166C143.786 1.77832 144.151 2.59536 144.151 3.69064C144.151 4.29847 144.021 4.86884 143.779 5.40391C143.536 5.93897 143.211 6.39966 142.807 6.79132C142.4 7.18031 141.932 7.48958 141.399 7.72126C140.862 7.95508 140.293 8.06584 139.684 8.06584ZM146.648 11.8792C147.135 11.7369 147.679 11.5657 148.27 11.3795C148.863 11.1933 149.526 11.0199 150.267 10.8637C150.999 10.7026 151.826 10.5721 152.735 10.4709C153.644 10.3677 154.68 10.3174 155.831 10.3174C159.214 10.3174 161.546 11.3024 162.833 13.2666C164.119 15.2309 164.342 17.919 163.507 21.3263L160.557 33.6327H154.101L156.96 21.5853C157.134 20.833 157.271 20.1058 157.373 19.3952C157.475 18.6911 157.469 18.0704 157.35 17.5332C157.236 17.0024 156.967 16.568 156.55 16.2314C156.127 15.9002 155.488 15.7338 154.62 15.7338C153.784 15.7338 152.933 15.8237 152.065 15.9971L147.861 33.6322H141.402L146.648 11.8792Z" fill="white"/>
</svg>
