<svg width="147" height="30" viewBox="0 0 147 30" fill="none" xmlns="http://www.w3.org/2000/svg">
<path d="M4.79653 19.4517C4.79653 21.1474 5.1687 22.4492 5.65515 23.2368C6.29294 24.2684 7.24421 24.7054 8.21402 24.7054C9.46489 24.7054 10.6092 24.395 12.8144 21.345C14.5811 18.9004 16.6628 15.469 18.0634 13.3179L20.4354 9.67337C22.0832 7.14229 23.9904 4.32862 26.1771 2.42143C27.9623 0.864797 29.888 0 31.8261 0C35.0799 0 38.1792 1.88557 40.5512 5.42197C43.1472 9.29502 44.4073 14.1734 44.4073 19.2077C44.4073 22.2006 43.8174 24.3996 42.8136 26.1369C41.8438 27.8171 39.9536 29.4957 36.7739 29.4957V24.7054C39.4965 24.7054 40.176 22.2036 40.176 19.3406C40.176 15.2606 39.2247 10.7327 37.1291 7.49748C35.642 5.20268 33.7147 3.80047 31.5944 3.80047C29.3012 3.80047 27.4557 5.53006 25.3818 8.61399C24.2792 10.2525 23.1472 12.2492 21.8763 14.5023L20.4771 16.9809C17.6666 21.9643 16.9546 23.0993 15.5493 24.9725C13.0862 28.2526 10.9829 29.4957 8.21402 29.4957C4.92934 29.4957 2.85228 28.0735 1.5659 25.93C0.515789 24.1834 0 21.8917 0 19.2803L4.79653 19.4517Z" fill="white"/>
<path d="M3.78125 5.76016C5.9803 2.37047 9.1538 0 12.7937 0C14.9016 0 16.9972 0.623889 19.1854 2.41062C21.5791 4.36413 24.1302 7.58087 27.313 12.8824L28.4542 14.7849C31.2092 19.3745 32.7766 21.7357 33.6939 22.8492C34.8738 24.2792 35.7 24.7054 36.7732 24.7054C39.4958 24.7054 40.1753 22.2036 40.1753 19.3406L44.4066 19.2077C44.4066 22.2006 43.8167 24.3996 42.8129 26.1369C41.8431 27.8171 39.9529 29.4957 36.7732 29.4957C34.7966 29.4957 33.0453 29.0664 31.1088 27.2395C29.6201 25.8373 27.8797 23.3464 26.5408 21.1072L22.5581 14.4545C20.5598 11.1157 18.7268 8.62635 17.6659 7.49902C16.5246 6.28676 15.0576 4.82278 12.7165 4.82278C10.8216 4.82278 9.21248 6.15241 7.86587 8.18622L3.78125 5.76016Z" fill="white"/>
<path d="M12.7171 4.82278C10.8223 4.82278 9.21317 6.15241 7.86656 8.18623C5.96246 11.0601 4.79653 15.3409 4.79653 19.4517C4.79653 21.1474 5.1687 22.4492 5.65515 23.2368L1.5659 25.93C0.515789 24.1834 0 21.8917 0 19.2803C0 14.5317 1.30337 9.58225 3.78194 5.76016C5.98099 2.37047 9.15449 0 12.7944 0L12.7171 4.82278Z" fill="white"/>
<path d="M53.7324 0.932861H59.281L68.715 18.0002L78.1506 0.932861H83.5787V28.977H79.0524V7.4837L70.7782 22.3675H66.5314L58.2587 7.4837V28.977H53.7324V0.932861ZM97.7614 11.3892C94.5153 11.3892 92.5602 13.8322 92.0923 16.8575H103.109C102.882 13.7411 101.085 11.3892 97.7614 11.3892ZM87.6047 18.5809C87.6047 12.2154 91.7186 7.58253 97.8401 7.58253C103.861 7.58253 107.456 12.1567 107.456 18.9206V20.1638H92.0923C92.6375 23.4546 94.8211 25.6722 98.342 25.6722C101.151 25.6722 102.907 24.8151 104.572 23.2477L106.976 26.1926C104.711 28.2759 101.829 29.4773 98.1814 29.4773C91.5549 29.4773 87.6047 24.6453 87.6047 18.5809ZM112.945 11.7907H108.778V8.08442H112.945V1.95517H117.312V8.08442H123.642V11.7907H117.312V21.1845C117.312 24.392 118.337 25.5317 120.858 25.5317C122.008 25.5317 122.668 25.4329 123.642 25.2707V28.9368C122.428 29.2797 121.27 29.4372 120.016 29.4372C115.301 29.4372 112.945 26.8613 112.945 21.705V11.7907ZM142.031 15.395C141.154 13.1805 139.197 11.5498 136.322 11.5498C132.585 11.5498 130.193 14.2013 130.193 18.5207C130.193 22.7319 132.395 25.5116 136.143 25.5116C139.089 25.5116 141.193 23.7975 142.031 21.6648V15.395ZM146.398 28.977H142.112V26.0521C140.913 27.774 138.733 29.4773 135.201 29.4773C129.521 29.4773 125.725 24.7225 125.725 18.5207C125.725 12.2602 129.612 7.58253 135.442 7.58253C138.323 7.58253 140.584 8.73456 142.112 10.7684V8.08442H146.398V28.977Z" fill="white"/>
</svg>
