<svg width="140" height="44" viewBox="0 0 140 44" fill="none" xmlns="http://www.w3.org/2000/svg">
<path d="M73.7849 10.8565C73.7849 12.4136 72.5166 13.668 70.9421 13.668C69.3677 13.668 68.0993 12.4136 68.0993 10.8565C68.0993 9.29942 69.3239 8.04508 70.9421 8.04508C72.5603 8.08834 73.7849 9.34268 73.7849 10.8565ZM62.0639 16.5227V17.2147C62.0639 17.2147 60.7081 15.4846 57.8216 15.4846C53.0544 15.4846 49.3369 19.0746 49.3369 24.0487C49.3369 28.9796 53.0107 32.6129 57.8216 32.6129C60.7518 32.6129 62.0639 30.8395 62.0639 30.8395V31.5748C62.0639 31.9208 62.3263 32.1803 62.6762 32.1803H66.2187V15.9172H62.6762C62.3263 15.9172 62.0639 16.2199 62.0639 16.5227ZM62.0639 26.9467C61.4079 27.8983 60.0958 28.7201 58.5213 28.7201C55.7223 28.7201 53.5793 26.99 53.5793 24.0487C53.5793 21.1075 55.7223 19.3774 58.5213 19.3774C60.0521 19.3774 61.4516 20.2425 62.0639 21.1508V26.9467ZM68.8428 15.9172H73.0414V32.1803H68.8428V15.9172ZM131.559 15.4846C128.673 15.4846 127.317 17.2147 127.317 17.2147V8.08834H123.118V32.1803H126.661C127.011 32.1803 127.273 31.8776 127.273 31.5748V30.8395C127.273 30.8395 128.629 32.6129 131.515 32.6129C136.283 32.6129 140 28.9796 140 24.0487C140 19.1179 136.283 15.4846 131.559 15.4846ZM130.859 28.6768C129.241 28.6768 127.973 27.855 127.317 26.9034V21.1075C127.973 20.2425 129.372 19.3341 130.859 19.3341C133.658 19.3341 135.801 21.0643 135.801 24.0055C135.801 26.9467 133.658 28.6768 130.859 28.6768ZM120.931 22.5349V32.2236H116.733V23.0107C116.733 20.329 115.858 19.2476 113.496 19.2476C112.228 19.2476 110.916 19.8964 110.085 20.848V32.1803H105.887V15.9172H109.21C109.56 15.9172 109.823 16.2199 109.823 16.5227V17.2147C111.047 15.9604 112.665 15.4846 114.284 15.4846C116.121 15.4846 117.651 16.0037 118.876 17.0417C120.363 18.2528 120.931 19.8099 120.931 22.5349ZM95.6963 15.4846C92.8097 15.4846 91.4539 17.2147 91.4539 17.2147V8.08834H87.2554V32.1803H90.7979C91.1478 32.1803 91.4102 31.8776 91.4102 31.5748V30.8395C91.4102 30.8395 92.766 32.6129 95.6525 32.6129C100.42 32.6129 104.137 28.9796 104.137 24.0487C104.181 19.1179 100.463 15.4846 95.6963 15.4846ZM94.9965 28.6768C93.3783 28.6768 92.11 27.855 91.4539 26.9034V21.1075C92.11 20.2425 93.5095 19.3341 94.9965 19.3341C97.7955 19.3341 99.9386 21.0643 99.9386 24.0055C99.9386 26.9467 97.7955 28.6768 94.9965 28.6768ZM83.6253 15.4846C84.8937 15.4846 85.5497 15.7009 85.5497 15.7009V19.5504C85.5497 19.5504 82.0509 18.3826 79.8641 20.848V32.2236H75.6655V15.9172H79.2081C79.558 15.9172 79.8204 16.2199 79.8204 16.5227V17.2147C80.6076 16.3064 82.3133 15.4846 83.6253 15.4846ZM40.0213 30.7097C39.8027 30.1907 39.584 29.6284 39.3653 29.1526C39.0154 28.3741 38.6656 27.6388 38.3594 26.9467L38.3157 26.9034C35.2979 20.4155 32.0615 13.841 28.6502 7.35303L28.519 7.09351C28.1691 6.44472 27.8192 5.75267 27.4693 5.06062C27.032 4.28206 26.5946 3.46025 25.8949 2.68169C24.4954 0.951569 22.4835 0 20.3405 0C18.1538 0 16.1857 0.951569 14.7424 2.59519C14.0864 3.37374 13.6053 4.19555 13.1679 4.97411C12.8181 5.66616 12.4682 6.35821 12.1183 7.00701L11.9871 7.26653C8.61948 13.7545 5.33934 20.329 2.32161 26.8169L2.27787 26.9034C1.97173 27.5955 1.62185 28.3308 1.27197 29.1094C1.05329 29.5851 0.834613 30.1042 0.615937 30.6665C0.0473799 32.2668 -0.127561 33.7807 0.091115 35.3378C0.572202 38.5818 2.75896 41.3067 5.77669 42.5178C6.91381 42.9936 8.09466 43.2099 9.31924 43.2099C9.66912 43.2099 10.1065 43.1666 10.4564 43.1234C11.8996 42.9504 13.3866 42.4746 14.8299 41.6528C16.623 40.6579 18.3287 39.2306 20.253 37.1544C22.1774 39.2306 23.9268 40.6579 25.6762 41.6528C27.1195 42.4746 28.6065 42.9504 30.0497 43.1234C30.3996 43.1666 30.837 43.2099 31.1868 43.2099C32.4114 43.2099 33.636 42.9936 34.7294 42.5178C37.7909 41.3067 39.9339 38.5385 40.415 35.3378C40.7648 33.8239 40.5899 32.3101 40.0213 30.7097ZM20.2968 32.9589C17.9351 30.0177 16.4043 27.2495 15.8795 24.9138C15.6608 23.919 15.6171 23.0539 15.7483 22.2754C15.8358 21.5833 16.0982 20.9778 16.4481 20.4587C17.279 19.2909 18.6786 18.5556 20.2968 18.5556C21.915 18.5556 23.3582 19.2476 24.1455 20.4587C24.4954 20.9778 24.7578 21.5833 24.8452 22.2754C24.9764 23.0539 24.9327 23.9622 24.714 24.9138C24.1892 27.2062 22.6585 29.9744 20.2968 32.9589ZM37.7471 34.9918C37.441 37.2409 35.9102 39.1873 33.7672 40.0524C32.7176 40.4849 31.5805 40.6147 30.4433 40.4849C29.35 40.3552 28.2566 40.0091 27.1195 39.3603C25.545 38.4953 23.9705 37.1544 22.1337 35.1648C25.0202 31.6613 26.7696 28.4606 27.4256 25.6059C27.7318 24.265 27.7755 23.0539 27.6443 21.9293C27.4693 20.848 27.0757 19.8532 26.4634 18.9881C25.1076 17.0417 22.8334 15.9172 20.2968 15.9172C17.7601 15.9172 15.4859 17.085 14.1301 18.9881C13.5178 19.8532 13.1242 20.848 12.9493 21.9293C12.7743 23.0539 12.8181 24.3083 13.1679 25.6059C13.824 28.4606 15.6171 31.7045 18.4599 35.208C16.6668 37.1977 15.0486 38.5385 13.4741 39.4036C12.337 40.0524 11.2436 40.3984 10.1502 40.5282C8.96936 40.6579 7.83224 40.4849 6.82633 40.0956C4.68331 39.2306 3.15258 37.2842 2.84643 35.035C2.71523 33.9537 2.8027 32.8724 3.24005 31.6613C3.37125 31.2288 3.58993 30.7962 3.80861 30.2772C4.11475 29.5851 4.46463 28.8498 4.81452 28.1145L4.85825 28.028C7.87598 21.5833 11.1124 15.0088 14.48 8.60737L14.6112 8.34785C14.9611 7.69906 15.311 7.00701 15.6608 6.35821C16.0107 5.66616 16.4043 5.01736 16.8854 4.45507C17.8039 3.417 19.0285 2.85471 20.3842 2.85471C21.74 2.85471 22.9646 3.417 23.8831 4.45507C24.3641 5.01736 24.7578 5.66616 25.1076 6.35821C25.4575 7.00701 25.8074 7.69906 26.1573 8.34785L26.2885 8.60737C29.6124 15.0521 32.8488 21.6266 35.8665 28.0713V28.1145C36.2164 28.8066 36.5225 29.5851 36.8724 30.2772C37.0911 30.7962 37.3098 31.2288 37.441 31.6613C37.7909 32.7859 37.9221 33.8672 37.7471 34.9918Z" fill="white"/>
</svg>
