<svg width="151" height="37" viewBox="0 0 151 37" fill="none" xmlns="http://www.w3.org/2000/svg">
<path d="M148.127 34.3208C148.219 34.3217 148.311 34.3037 148.396 34.2677C148.481 34.2318 148.558 34.1788 148.621 34.112C148.685 34.0451 148.734 33.9659 148.766 33.8793C148.798 33.7926 148.812 33.7003 148.807 33.6081C148.807 33.1026 148.502 32.8611 147.876 32.8611H146.865V35.5075H147.245V34.3539H147.712L147.723 34.368L148.448 35.5075H148.855L148.075 34.3281L148.127 34.3208ZM147.687 34.0557H147.246V33.161H147.805C148.094 33.161 148.423 33.2082 148.423 33.5862C148.423 34.0209 148.09 34.0557 147.685 34.0557M0 5.38442H5.61238V25.8278H16.0026V31.0072H0V5.38442ZM18.4839 13.6342H23.8755V30.9976H18.4839V13.6342ZM21.1797 5.00195C21.7983 5.00206 22.4029 5.1856 22.9172 5.52934C23.4315 5.87309 23.8323 6.36161 24.0689 6.93314C24.3056 7.50467 24.3674 8.13353 24.2467 8.74021C24.1259 9.3469 23.828 9.90415 23.3906 10.3415C22.9531 10.7789 22.3958 11.0767 21.7891 11.1973C21.1824 11.318 20.5536 11.256 19.9821 11.0193C19.4106 10.7825 18.9221 10.3816 18.5785 9.86729C18.2348 9.35295 18.0514 8.74826 18.0514 8.12968C18.0514 7.71889 18.1323 7.31213 18.2895 6.93262C18.4468 6.55311 18.6772 6.20829 18.9677 5.91784C19.2582 5.6274 19.603 5.39703 19.9826 5.23988C20.3621 5.08273 20.7689 5.00188 21.1797 5.00195ZM46.4295 5.38049H51.8212V20.6934L57.9317 13.6264H64.5421L57.4656 21.665L64.3933 31.0049H57.6167L51.8931 22.4221H51.8223V31.0038H46.4306L46.4295 5.38049ZM26.8651 13.6359H32.0428V16.0088H32.1163C32.6335 15.1228 33.3816 14.3938 34.2808 13.8998C35.1799 13.4059 36.1964 13.1654 37.2216 13.204C42.6891 13.204 43.6955 16.8013 43.6955 21.4746V30.9965H38.3038V22.5546C38.3038 20.5395 38.2668 17.9492 35.4957 17.9492C32.6931 17.9492 32.2607 20.1435 32.2607 22.408V30.9943H26.869L26.8651 13.6359Z" fill="white"/>
<path d="M75.8971 20.2965C75.9074 19.859 75.8288 19.4241 75.6661 19.0179C75.5033 18.6118 75.2599 18.2429 74.9504 17.9336C74.6409 17.6243 74.2718 17.3811 73.8655 17.2186C73.4593 17.0561 73.0243 16.9779 72.5868 16.9885C71.6448 16.9298 70.7174 17.2438 70.0047 17.8626C69.2919 18.4814 68.8509 19.3555 68.7767 20.2965H75.8971ZM80.4643 27.9908C79.5683 29.0773 78.442 29.9509 77.1668 30.5484C75.8915 31.1459 74.4994 31.4523 73.0912 31.4454C67.6995 31.4454 63.3828 27.8465 63.3828 22.2734C63.3828 16.7003 67.699 13.1031 73.0912 13.1031C78.1307 13.1031 81.291 16.6975 81.291 22.2734V23.9639H68.7767C68.9325 24.9227 69.4296 25.7928 70.1763 26.414C70.923 27.0352 71.869 27.3656 72.8401 27.3444C73.6075 27.3396 74.3616 27.143 75.0336 26.7724C75.7057 26.4018 76.2743 25.869 76.6879 25.2225L80.4643 27.9908ZM92.5292 17.8315C89.8334 17.8315 88.2159 19.6315 88.2159 22.2543C88.2159 24.8771 89.8329 26.6789 92.5292 26.6789C95.2256 26.6789 96.8465 24.8816 96.8465 22.2543C96.8465 19.627 95.2284 17.8315 92.5292 17.8315ZM101.81 30.9944H96.8465V28.6917H96.7729C96.1502 29.5293 95.3425 30.2118 94.4128 30.686C93.483 31.1602 92.4563 31.4134 91.4127 31.4258C86.2322 31.4258 82.8198 27.687 82.8198 22.3998C82.8198 17.5439 85.8396 13.0851 90.8039 13.0851C93.0353 13.0851 95.1195 13.6956 96.3422 15.3878H96.4129V5.37898H101.81L101.81 30.9944ZM138.209 31.0045H132.817V22.561C132.817 20.5475 132.781 17.9556 130.013 17.9556C127.205 17.9556 126.775 20.1493 126.775 22.4144V31.004H121.384V13.6406H126.56V16.0135H126.632C127.15 15.1278 127.899 14.3992 128.798 13.9053C129.697 13.4114 130.714 13.1706 131.739 13.2087C137.204 13.2087 138.211 16.8031 138.211 21.4793L138.209 31.0045ZM115.3 11.2671C114.681 11.2672 114.076 11.0838 113.562 10.7401C113.047 10.3964 112.646 9.90783 112.409 9.33615C112.172 8.76447 112.11 8.13537 112.231 7.52842C112.351 6.92146 112.649 6.3639 113.087 5.92624C113.524 5.48858 114.082 5.19049 114.689 5.06965C115.295 4.94882 115.925 5.01067 116.496 5.24738C117.068 5.48409 117.557 5.88504 117.901 6.39951C118.245 6.91399 118.428 7.51888 118.428 8.13771C118.428 8.5486 118.348 8.95547 118.19 9.33511C118.033 9.71475 117.803 10.0597 117.512 10.3503C117.222 10.6409 116.877 10.8714 116.497 11.0287C116.118 11.186 115.711 11.267 115.3 11.2671ZM117.996 31.0045H112.599V13.6406H117.996V31.0045ZM140.897 0.00247823H109.889C109.185 -0.005464 108.507 0.26633 108.004 0.758134C107.5 1.24994 107.213 1.92152 107.204 2.6253V33.7616C107.212 34.4657 107.5 35.1378 108.003 35.6301C108.507 36.1224 109.185 36.3947 109.889 36.3872H140.897C141.602 36.3961 142.283 36.1245 142.788 35.6322C143.294 35.1399 143.583 34.4671 143.593 33.7616V2.62305C143.583 1.91788 143.293 1.24553 142.788 0.753742C142.282 0.261949 141.602 -0.0090687 140.897 0.000231699M147.734 31.6824C147.078 31.6887 146.451 31.9546 145.99 32.4218C145.53 32.889 145.273 33.5195 145.276 34.1755C145.279 34.8315 145.542 35.4596 146.007 35.9224C146.472 36.3851 147.102 36.6449 147.758 36.6449C148.414 36.6449 149.043 36.3851 149.508 35.9224C149.973 35.4596 150.236 34.8315 150.239 34.1755C150.242 33.5195 149.985 32.889 149.525 32.4218C149.064 31.9546 148.437 31.6887 147.781 31.6824H147.734ZM147.734 36.3608C147.303 36.368 146.881 36.2474 146.519 36.0143C146.157 35.7812 145.873 35.4461 145.701 35.0513C145.53 34.6566 145.48 34.2199 145.557 33.7965C145.634 33.3731 145.834 32.982 146.134 32.6727C146.433 32.3634 146.817 32.1497 147.238 32.0588C147.658 31.9678 148.096 32.0036 148.497 32.1616C148.897 32.3197 149.241 32.5928 149.486 32.9466C149.731 33.3004 149.866 33.7188 149.873 34.1491V34.1856C149.885 34.7501 149.672 35.2962 149.282 35.7039C148.891 36.1116 148.355 36.3475 147.79 36.3597H147.734" fill="white"/>
</svg>
