<svg width="146" height="28" viewBox="0 0 146 28" fill="none" xmlns="http://www.w3.org/2000/svg">
<path d="M137.512 23.2451C137.512 21.1254 139.237 19.4058 141.36 19.4058C143.485 19.4058 145.208 21.1254 145.208 23.2451C145.208 25.3647 143.485 27.0834 141.36 27.0834C139.237 27.0834 137.512 25.3647 137.512 23.2451Z" fill="white"/>
<path d="M14.7711 13.077C14.7711 10.6453 14.3 8.84113 13.3577 7.66586C12.4145 6.4914 10.9858 5.90483 9.06477 5.90483H7.02131V20.7757H8.5848C10.7186 20.7757 12.2821 20.1448 13.2776 18.8783C14.2721 17.6142 14.7711 15.68 14.7711 13.077ZM22.0584 12.8237C22.0584 17.2542 20.8646 20.6681 18.4771 23.0643C16.0895 25.4616 12.733 26.6603 8.40662 26.6603H0V0.112671H8.99346C13.1651 0.112671 16.3857 1.20258 18.6551 3.3811C20.9238 5.56076 22.0584 8.70671 22.0584 12.8237ZM45.3448 26.6599H52.0344V0.00130822H45.3448V26.6599ZM61.4317 16.7161C61.4317 18.4159 61.6545 19.7123 62.0989 20.6032C62.5443 21.4954 63.2903 21.9409 64.3394 21.9409C65.3772 21.9409 66.1112 21.4954 66.5387 20.6032C66.9664 19.7123 67.179 18.4159 67.179 16.7161C67.179 15.0253 66.963 13.7499 66.5299 12.8889C66.0955 12.0258 65.3551 11.5936 64.305 11.5936C63.2781 11.5936 62.5444 12.0237 62.0989 12.879C61.6545 13.7355 61.4317 15.0141 61.4317 16.7161ZM73.9877 16.7161C73.9877 19.9545 73.137 22.4807 71.4308 24.2916C69.726 26.1035 67.3393 27.0101 64.2715 27.0101C61.3293 27.0101 58.9873 26.0835 57.2491 24.2304C55.5085 22.3775 54.6388 19.8734 54.6388 16.7161C54.6388 13.4878 55.4907 10.9793 57.1968 9.19059C58.9027 7.40209 61.2948 6.50775 64.375 6.50775C66.2781 6.50775 67.9619 6.92213 69.4208 7.74991C70.8807 8.57736 72.0077 9.76294 72.7994 11.307C73.5923 12.849 73.9877 14.6531 73.9877 16.7161ZM76.6442 26.6601H83.3349V6.85787H76.6442V26.6601ZM76.6441 4.46268H83.3346V0H76.6441V4.46268ZM96.8895 21.6094C97.7928 21.6094 98.8686 21.3804 100.124 20.9262V25.9085C99.2215 26.3041 98.364 26.5873 97.5488 26.7551C96.7337 26.9252 95.777 27.0096 94.6825 27.0096C92.4363 27.0096 90.8172 26.4464 89.8227 25.322C88.8326 24.1977 88.3359 22.4713 88.3359 20.1417V11.9787H85.9929V6.8595H88.336V1.80257L95.0779 0.632853V6.8595H99.3463V11.9787H95.0777V19.6863C95.0777 20.9684 95.6826 21.6094 96.8895 21.6094ZM112.374 21.6094C113.277 21.6094 114.353 21.3804 115.608 20.9262V25.9085C114.707 26.3041 113.849 26.5873 113.033 26.7551C112.217 26.9252 111.264 27.0096 110.167 27.0096C107.921 27.0096 106.301 26.4464 105.309 25.322C104.317 24.1977 103.82 22.4713 103.82 20.1417V11.9787H101.476V6.8595H103.82V1.72587L110.561 0.632853V6.8595H114.832V11.9787H110.561V19.6863C110.561 20.9684 111.166 21.6094 112.374 21.6094ZM124.05 14.3038C124.141 13.2196 124.452 12.4252 124.982 11.9174C125.514 11.4108 126.171 11.1577 126.958 11.1577C127.815 11.1577 128.496 11.442 129.002 12.0152C129.511 12.5851 129.776 13.3483 129.797 14.3038H124.05ZM133.484 8.84244C131.894 7.28713 129.638 6.50841 126.719 6.50841C123.651 6.50841 121.29 7.40274 119.635 9.19125C117.982 10.9799 117.154 13.546 117.154 16.8901C117.154 20.1283 118.049 22.6257 119.833 24.3787C121.618 26.1317 124.124 27.0094 127.353 27.0094C128.903 27.0094 130.237 26.9039 131.355 26.6938C132.467 26.4861 133.542 26.1107 134.586 25.5686L133.558 21.1059C132.799 21.4148 132.078 21.6526 131.396 21.8091C130.412 22.0368 129.332 22.1513 128.156 22.1513C126.866 22.1513 125.848 21.837 125.102 21.2081C124.356 20.5782 123.958 19.7095 123.913 18.6031H135.871V15.5625C135.871 12.6374 135.076 10.3966 133.484 8.84244ZM30.9372 14.3038C31.0285 13.2196 31.3391 12.4252 31.8692 11.9174C32.4003 11.4108 33.0585 11.1577 33.8458 11.1577C34.7012 11.1577 35.3826 11.442 35.8894 12.0152C36.3982 12.5851 36.6622 13.3483 36.6856 14.3038H30.9372ZM40.3726 8.84244C38.7814 7.28713 36.5263 6.50841 33.6065 6.50841C30.5372 6.50841 28.1775 7.40274 26.5239 9.19125C24.8702 10.9799 24.0416 13.546 24.0416 16.8901C24.0416 20.1283 24.9348 22.6257 26.7209 24.3787C28.505 26.1317 31.0117 27.0094 34.24 27.0094C35.7903 27.0094 37.1243 26.9039 38.2424 26.6938C39.3538 26.4861 40.4294 26.1107 41.4741 25.5686L40.4452 21.1059C39.6867 21.4148 38.9649 21.6526 38.2847 21.8091C37.298 22.0368 36.2189 22.1513 35.0429 22.1513C33.7545 22.1513 32.7356 21.837 31.9895 21.2081C31.2422 20.5782 30.8459 19.7095 30.8001 18.6031H42.7581V15.5625C42.7581 12.6374 41.9628 10.3966 40.3726 8.84244Z" fill="white"/>
</svg>
