<svg width="14" height="14" viewBox="0 0 14 14" fill="none" xmlns="http://www.w3.org/2000/svg">
<g clip-path="url(#clip0_927_1460)">
<path d="M9.78686 14C9.54567 13.9578 9.30283 13.9244 9.06411 13.8716C8.17581 13.6752 7.36235 13.2906 6.57272 12.853C5.29935 12.1472 4.16657 11.2573 3.17797 10.1905C2.00189 8.92105 1.02836 7.51683 0.413325 5.88611C0.194335 5.30547 0.0318056 4.71059 0.00357535 4.08531C-0.0273957 3.40059 0.139519 2.78462 0.634507 2.28669C1.02315 1.89586 1.4033 1.49488 1.81524 1.12979C2.30777 0.693218 3.01599 0.699244 3.51728 1.12569C3.78752 1.35548 4.03666 1.61074 4.2869 1.86272C4.68157 2.2604 5.08419 2.65178 5.45612 3.07028C5.8856 3.55342 5.87601 4.27319 5.44296 4.75633C5.12722 5.10882 4.7849 5.43776 4.4497 5.77245C4.38748 5.83435 4.37981 5.8757 4.41928 5.95595C4.75557 6.63793 5.2311 7.21748 5.74527 7.76854C6.27589 8.33685 6.85941 8.84464 7.51473 9.26533C7.68658 9.3757 7.86967 9.46937 8.05275 9.5603C8.08455 9.57592 8.15581 9.554 8.18541 9.52525C8.46058 9.25903 8.72973 8.98678 9.00189 8.71755C9.25596 8.4664 9.53772 8.26865 9.9069 8.22456C10.2717 8.18074 10.6009 8.27139 10.8725 8.5094C11.1633 8.76439 11.4338 9.04293 11.7071 9.31737C12.0798 9.69204 12.4586 10.0618 12.8127 10.4534C13.2534 10.9407 13.2542 11.6621 12.8327 12.1677C12.6959 12.3318 12.5444 12.4838 12.3942 12.6363C12.1067 12.9283 11.8263 13.2287 11.5226 13.5032C11.2184 13.7782 10.8445 13.9217 10.437 13.9743C10.4109 13.9776 10.3865 13.9915 10.3613 14.0003H9.78686V14ZM0.808822 3.89139C0.806629 4.54242 0.975463 5.08938 1.17719 5.62702C1.66121 6.91593 2.40232 8.05174 3.28322 9.0999C4.47957 10.5236 5.90589 11.6596 7.58051 12.4767C8.30682 12.8311 9.05342 13.1214 9.871 13.192C10.3882 13.237 10.8325 13.1102 11.1959 12.7262C11.4744 12.4317 11.7627 12.1463 12.0458 11.856C12.0998 11.8007 12.1535 11.7443 12.2012 11.6835C12.392 11.4403 12.3854 11.1732 12.1842 10.9382C12.1368 10.8829 12.0858 10.8306 12.0343 10.7791C11.5382 10.2828 11.0419 9.78681 10.5455 9.2908C10.5102 9.25547 10.4748 9.21986 10.4378 9.1859C10.2032 8.97008 9.95048 8.95967 9.6997 9.15714C9.64982 9.19658 9.60487 9.24232 9.55964 9.28724C9.24007 9.6055 8.92268 9.92622 8.60119 10.2426C8.37836 10.4619 8.12237 10.5038 7.8513 10.3674C7.66027 10.2713 7.46951 10.1741 7.28588 10.0651C6.44034 9.56277 5.70964 8.92187 5.04884 8.19826C4.49081 7.5875 3.98541 6.93975 3.64007 6.18027C3.45863 5.78149 3.50138 5.56813 3.81438 5.26576C4.1452 4.94586 4.47519 4.62486 4.7934 4.29264C5.03322 4.04231 5.02828 3.79115 4.806 3.52466C4.77695 3.4896 4.74653 3.45564 4.71446 3.42332C4.18658 2.89445 3.65925 2.36475 3.12891 1.83807C3.06505 1.7748 2.99159 1.71591 2.91238 1.67428C2.67914 1.55131 2.44974 1.6069 2.21129 1.84135C1.90925 2.13852 1.61681 2.44582 1.30984 2.73778C0.957922 3.07247 0.785799 3.47344 0.809096 3.89112L0.808822 3.89139Z" fill="white"/>
<path d="M14.0017 6.31666C13.9954 6.32296 13.986 6.32789 13.983 6.33529C13.8951 6.54481 13.749 6.65491 13.579 6.63903C13.3653 6.61876 13.2293 6.49168 13.1849 6.25148C13.0369 5.44762 12.7606 4.69224 12.338 3.99191C11.7528 3.02208 10.9745 2.24369 10.0045 1.6584C9.31243 1.24099 8.56803 0.958069 7.77156 0.815921C7.57504 0.780864 7.41114 0.702258 7.35962 0.491365C7.28972 0.205154 7.5364 -0.04737 7.83295 0.00740736C9.27735 0.274173 10.5494 0.889049 11.6347 1.8849C12.5833 2.75504 13.2721 3.79636 13.6876 5.01242C13.809 5.36792 13.8792 5.74068 13.9734 6.1055C13.98 6.13124 13.9921 6.15535 14.0017 6.18027V6.31694V6.31666Z" fill="white"/>
<path d="M7.65856 2.50497C8.01651 2.61864 8.38844 2.70026 8.72967 2.85172C10.1025 3.46139 10.9889 4.49914 11.3806 5.95239C11.4088 6.05756 11.4332 6.1641 11.4516 6.27147C11.4891 6.49194 11.3614 6.69626 11.1594 6.74693C10.9481 6.80007 10.74 6.67928 10.671 6.45853C10.5737 6.1474 10.5139 5.819 10.378 5.52595C9.8216 4.32632 8.88233 3.59778 7.58347 3.3354C7.37297 3.29295 7.25101 3.15929 7.23922 2.96949C7.22744 2.78407 7.32693 2.6274 7.50042 2.56578C7.54647 2.54934 7.59717 2.54524 7.64568 2.53538C7.65007 2.52524 7.65445 2.51511 7.65911 2.50497H7.65856Z" fill="white"/>
</g>
<defs>
<clipPath id="clip0_927_1460">
<rect width="14" height="14" fill="white"/>
</clipPath>
</defs>
</svg>
