<svg width="33" height="48" viewBox="0 0 33 48" fill="none" xmlns="http://www.w3.org/2000/svg">
<path d="M29.5688 48.0003H3.43481C2.03283 47.5046 1.47665 46.484 1.57811 45.0035C1.67588 43.5736 1.64913 42.1315 1.80224 40.7082C2.01438 38.7347 2.58532 36.857 3.75763 35.2356C4.24187 34.5652 4.84416 33.9832 5.40219 33.3504C5.41602 33.3757 5.41141 33.3522 5.40127 33.3504C5.15039 33.2931 4.89858 33.2386 4.64678 33.1832C3.06679 32.834 1.58549 32.2829 0.451912 31.0323C-0.296118 30.2071 -0.095967 29.0466 0.907555 28.5866C1.86957 28.1453 2.51983 27.414 2.95518 26.4685C3.6451 24.972 3.84987 23.3684 3.89045 21.7376C3.89414 21.6034 3.74564 21.4137 3.61743 21.3349C2.76794 20.8129 2.34643 20.058 2.34735 19.0506C2.34827 17.817 2.34643 16.5833 2.34735 15.3497C2.34919 14.3423 2.78178 13.594 3.63219 13.0739C3.76778 12.9913 3.88676 12.7866 3.91166 12.6232C4.04448 11.7313 4.07584 10.8178 4.26769 9.9409C6.18527 1.18043 16.416 -2.88013 23.6224 2.27138C27.0821 4.74527 28.877 8.1843 29.0707 12.4843C29.0846 12.7885 29.1436 12.98 29.4369 13.1443C30.2587 13.6034 30.6461 14.3573 30.6535 15.3037C30.6636 16.5683 30.6618 17.8329 30.6535 19.0976C30.648 20.0834 30.232 20.8448 29.376 21.318C29.1464 21.4447 29.0652 21.5874 29.1012 21.8315C29.2746 22.9995 29.365 24.1881 29.6417 25.3306C29.9756 26.7108 30.6461 27.9059 32.0149 28.5387C33.1365 29.057 33.3228 30.2277 32.4576 31.1328C31.6109 32.0181 30.5732 32.5645 29.4231 32.9006C28.8134 33.079 28.1908 33.2114 27.5396 33.3729C27.6023 33.4461 27.6346 33.4968 27.6789 33.5325C28.8789 34.5117 29.7265 35.752 30.3104 37.1912C31.4578 40.0228 31.4725 42.999 31.3969 45.9864C31.3951 46.0625 31.3637 46.1376 31.3443 46.2127C31.1018 47.1685 30.4275 47.6792 29.5688 47.9993V48.0003ZM12.5062 32.8086C11.9085 32.8687 11.3016 32.9194 10.6965 32.9917C7.02553 33.4273 4.64401 35.5388 3.7069 39.1685C3.19868 41.1354 3.13504 43.1417 3.15441 45.1584C3.16456 46.1845 3.36747 46.4042 4.35716 46.4042C12.4527 46.4042 20.5473 46.4042 28.6428 46.4042C28.7959 46.4042 28.9508 46.4146 29.1021 46.3948C29.5439 46.3385 29.8354 46.04 29.8427 45.5846C29.8769 43.5539 29.852 41.5269 29.388 39.5346C28.248 34.631 24.9294 32.8941 20.4882 32.864C19.8998 35.5013 18.5411 36.8429 16.4797 36.8213C14.4034 36.7988 13.066 35.4637 12.5052 32.8096L12.5062 32.8086ZM27.5064 12.7932C27.309 8.43592 25.4984 5.09734 21.8053 3.04688C17.7534 0.796438 13.7015 1.10157 9.96415 3.85711C7.03568 6.01648 5.61341 9.05556 5.51656 12.7941C6.03769 12.7941 6.48595 12.7481 6.91946 12.8082C7.30039 12.8607 7.79201 12.919 8.01245 13.1734C8.43581 13.6653 8.90068 13.61 9.41351 13.563C9.65793 13.5405 9.90328 13.5358 10.1477 13.5189C12.2636 13.3677 14.3435 13.0222 16.3146 12.1895C17.8032 11.5614 19.1757 10.7493 20.0722 9.31469C20.3065 8.93914 20.5943 8.73823 21.0223 8.84244C21.4392 8.94478 21.5895 9.27713 21.6283 9.68272C21.6615 10.0235 21.6753 10.37 21.7509 10.7014C22.0618 12.0655 22.7489 13.1114 24.1629 13.4766C24.3335 13.5208 24.6047 13.4719 24.7227 13.3546C25.112 12.9678 25.5593 12.7941 26.0888 12.7941C26.5296 12.7941 26.9714 12.7941 27.5083 12.7941L27.5064 12.7932ZM22.0378 26.4742C21.441 26.3709 21.0675 26.4009 20.7723 26.9511C20.3914 27.6628 19.6904 27.9961 18.8898 28.0177C18.0781 28.0402 17.2646 28.0449 16.4529 28.0177C15.1782 27.9735 14.1941 26.9708 14.1314 25.6893C14.0723 24.5035 14.9403 23.3778 16.1596 23.2558C17.1742 23.1553 18.2072 23.2107 19.2301 23.2501C19.8057 23.2727 20.3711 23.5581 20.6118 24.0613C20.9826 24.8359 21.5637 24.8415 22.2315 24.7908C22.4602 24.7739 22.6945 24.8124 22.9195 24.7777C23.0468 24.7579 23.2156 24.6734 23.2728 24.5664C23.8705 23.4473 24.3151 22.2709 24.328 20.9772C24.3464 19.1661 24.328 17.3551 24.3427 15.5449C24.3446 15.2501 24.2523 15.1469 23.9683 15.0924C22.6465 14.837 21.6375 14.0991 20.9439 12.9321C20.6939 12.5115 20.5113 12.0496 20.2899 11.5895C16.9381 14.4484 12.8733 15.0201 8.6664 15.2276C8.6664 15.3863 8.6664 15.5243 8.6664 15.6614C8.6664 17.3626 8.66363 19.0647 8.66917 20.7659C8.66917 21.0617 8.67562 21.3612 8.72543 21.6513C9.18476 24.3139 10.5711 26.4038 12.6113 28.0702C13.5558 28.842 14.6184 29.4053 15.8396 29.5377C18.4904 29.825 20.3167 28.3575 22.035 26.4723L22.0378 26.4742ZM12.5578 31.0558C12.5578 31.0051 12.5384 30.8342 12.5615 30.669C12.6316 30.1695 12.4324 29.8803 12.0192 29.5762C9.72434 27.8872 8.14712 25.6583 7.36588 22.8708C7.25428 22.4718 7.18233 22.0606 7.08549 21.624C6.68149 21.624 6.29872 21.6466 5.91963 21.6175C5.56452 21.5893 5.49535 21.7517 5.46214 22.0747C5.35792 23.0962 5.28413 24.1289 5.07014 25.1288C4.63202 27.1774 3.74748 28.9499 1.79578 29.9526C1.77641 29.962 1.77457 30.0062 1.72568 30.1404C2.19793 30.4324 2.66648 30.7845 3.18393 31.0276C4.36454 31.5834 5.64016 31.7684 6.92407 31.8829C7.3502 31.9214 7.79201 32.0078 8.20338 31.9346C9.62842 31.6811 11.0433 31.3666 12.5587 31.0558H12.5578ZM20.4458 31.1666C21.4004 31.2886 22.2979 31.3759 23.1852 31.5271C23.7847 31.6294 24.3741 31.9627 24.9607 31.9458C26.6892 31.8961 28.4177 31.7243 30.0078 30.9384C30.4626 30.7141 30.8675 30.3845 31.3868 30.0428C30.3611 29.5311 29.5826 28.9171 29.0966 28.0308C28.6262 27.1717 28.2627 26.2507 27.8431 25.3372C27.7001 25.4452 27.5119 25.5973 27.3155 25.7353C26.4402 26.3512 25.4486 26.4535 24.4211 26.4394C24.2274 26.4366 23.9572 26.5324 23.8493 26.6788C22.9509 27.9012 21.9169 28.9725 20.6672 29.824C20.5611 29.8963 20.467 30.0578 20.455 30.1855C20.4246 30.5084 20.4449 30.8361 20.4449 31.1656L20.4458 31.1666ZM14.1729 30.8793C14.1729 31.5609 14.1461 32.2603 14.1793 32.9579C14.2328 34.1005 15.122 35.06 16.1817 35.168C17.3983 35.2929 18.4959 34.63 18.7293 33.4565C18.8981 32.6068 18.8363 31.7092 18.875 30.8671C18.0274 30.9929 17.2757 31.1929 16.5239 31.1929C15.7565 31.1929 14.9901 30.9966 14.1729 30.8793ZM7.0366 14.4427C6.20187 14.4427 5.39204 14.4164 4.58498 14.454C4.21051 14.4718 3.97254 14.7563 3.96977 15.1506C3.9587 16.5251 3.9587 17.8996 3.96977 19.2741C3.97346 19.6693 4.21696 19.951 4.58867 19.9688C5.39481 20.0073 6.20464 19.981 7.03568 19.981V14.4427H7.0366ZM25.9587 19.9829C26.7999 19.9829 27.595 20.0055 28.3882 19.9735C28.7645 19.9585 29.0237 19.6928 29.0283 19.2994C29.0449 17.9099 29.0431 16.5195 29.0311 15.13C29.0283 14.7563 28.7913 14.4756 28.4426 14.4577C27.6226 14.4164 26.799 14.4446 25.9587 14.4446V19.982V19.9829ZM17.6861 26.385C17.6861 26.385 17.6861 26.3869 17.6861 26.3878C18.0689 26.3878 18.4526 26.4019 18.8344 26.384C19.3233 26.3615 19.636 26.0423 19.6323 25.601C19.6286 25.1551 19.315 24.8406 18.8252 24.8331C18.0597 24.8208 17.2941 24.8208 16.5286 24.8331C16.048 24.8406 15.7602 25.1241 15.7427 25.5644C15.7243 26.0329 16.0037 26.354 16.4926 26.3803C16.8892 26.4019 17.2886 26.385 17.6861 26.385ZM25.9264 21.6513C25.7936 22.1883 25.6829 22.7178 25.5289 23.2332C25.3749 23.7459 25.1756 24.2453 24.9893 24.7701C26.7123 24.788 27.7352 23.4492 27.4169 21.6513H25.9264Z" fill="white"/>
</svg>
