<svg width="19" height="41" viewBox="0 0 19 41" fill="none" xmlns="http://www.w3.org/2000/svg">
<path d="M0.537109 18.0559C0.709041 17.3649 0.851543 16.7157 1.04361 16.082C1.09318 15.9162 1.2713 15.7257 1.43239 15.6683C3.78212 14.8549 6.06524 13.8107 8.62562 13.7657C10.633 13.7301 12.4608 14.1469 13.9106 15.6358C14.8849 16.6367 15.1776 17.8855 15.1652 19.2474C15.1404 21.7341 14.2529 24.0271 13.6271 26.3821C13.0339 28.6148 12.4778 30.8567 11.9094 33.0939C11.8722 33.2427 11.8613 33.3992 11.8474 33.5525C11.6739 35.5822 12.501 36.5304 14.5394 36.4684C15.681 36.4344 16.8179 36.2066 18.0385 36.0563C17.896 36.6249 17.7457 37.2865 17.5521 37.9357C17.5118 38.0689 17.3198 38.2006 17.1695 38.2502C15.3929 38.8436 13.6473 39.6012 11.8242 39.9576C9.63553 40.3852 7.41436 40.3031 5.43792 38.9583C3.79141 37.8381 3.11298 36.2856 3.2307 34.3303C3.39643 31.5771 4.40324 29.0238 5.09871 26.3961C5.58507 24.5601 6.1272 22.7319 6.47726 20.8695C6.96362 18.279 5.96921 17.2456 3.32363 17.4904C2.41596 17.5741 1.52533 17.8483 0.538657 18.0528L0.537109 18.0559Z" fill="white"/>
<path d="M13.4712 0.504834C16.0765 0.509482 18.2527 2.31293 18.499 4.58893C18.8553 7.89216 15.7218 9.97449 13.0452 9.72814C10.649 9.50659 8.75004 7.87666 8.4356 5.85321C7.98332 2.94817 10.2897 0.498636 13.4727 0.504834H13.4712Z" fill="white"/>
</svg>
