<svg width="40" height="44" viewBox="0 0 40 44" fill="none" xmlns="http://www.w3.org/2000/svg">
<path d="M32.0837 0C32.515 0 32.9463 0 33.3776 0C33.4398 0.0291435 33.4994 0.0685729 33.5651 0.084859C35.5349 0.558012 36.7476 2.27319 36.477 4.25924C36.4131 4.7281 36.229 5.18068 36.0959 5.65641C36.1736 5.66412 36.2713 5.6787 36.369 5.68298C38.6188 5.77384 39.9991 7.19759 40 9.43992C40.0017 16.6118 40.0026 23.7837 39.9948 30.9555C39.9948 31.337 39.9611 31.7287 39.8678 32.0964C39.452 33.7207 38.0812 34.7185 36.2869 34.7202C32.0318 34.7236 27.7776 34.721 23.5225 34.721H22.978C23.3272 36.1739 23.6582 37.5505 23.9936 38.9468C24.7343 38.9468 25.437 38.9383 26.1397 38.9486C27.476 38.9691 28.5261 39.8237 28.7664 41.1C28.826 41.4146 28.8096 41.7429 28.8304 42.0926C29.7344 42.0926 30.6083 42.0875 31.483 42.0943C31.9869 42.0986 32.3551 42.4235 32.3879 42.8838C32.4199 43.3347 32.0569 43.8121 31.3499 43.8104C23.7888 43.7932 16.2285 43.8001 8.66743 43.8001C8.581 43.8001 8.49457 43.8044 8.409 43.7958C7.96387 43.7521 7.61209 43.3595 7.62506 42.9249C7.63802 42.5024 7.98029 42.1329 8.409 42.0986C8.62335 42.0815 8.84029 42.0926 9.05551 42.0926C9.76858 42.0926 10.4808 42.0926 11.1947 42.0926C11.2137 41.7215 11.1947 41.4035 11.2526 41.0992C11.4912 39.8272 12.5474 38.9691 13.8819 38.9494C14.5967 38.9383 15.3115 38.9477 16.0306 38.9477C16.3703 37.5231 16.6987 36.1474 17.0393 34.7219C16.7955 34.7219 16.6253 34.7219 16.455 34.7219C12.1999 34.7219 7.94572 34.7253 3.69066 34.7202C1.92225 34.7176 0.541066 33.6753 0.129648 32.0587C0.0864323 31.8941 0.0423518 31.7313 0 31.5675C0 23.9825 0 16.3966 0 8.81162C0.0717388 8.55447 0.131377 8.29304 0.217809 8.04018C0.72171 6.55986 2.04585 5.68469 3.78919 5.68384C11.3339 5.68212 18.8777 5.68127 26.4224 5.68984C26.7586 5.68984 26.9669 5.60155 27.1562 5.31012C27.9271 4.12638 28.7318 2.96321 29.5175 1.7889C29.9401 1.15717 30.4682 0.648014 31.1744 0.342865C31.4717 0.21429 31.7803 0.113145 32.0837 0ZM1.79952 27.2517C1.79952 28.7209 1.77186 30.1164 1.81076 31.5101C1.83064 32.2173 2.48493 32.8396 3.19799 32.9416C3.45297 32.9776 3.71313 32.9836 3.97156 32.9836C14.6641 32.9853 25.3566 32.9853 36.05 32.9853C36.165 32.9853 36.28 32.9879 36.3949 32.9836C37.56 32.9407 38.2281 32.273 38.2376 31.121C38.2463 29.9518 38.2411 28.7826 38.2376 27.6143C38.2376 27.5055 38.2152 27.3966 38.1988 27.2517H37.579C28.9125 27.2517 20.2468 27.2517 11.5802 27.25C11.3658 27.25 11.1472 27.2483 10.938 27.208C10.543 27.1326 10.2811 26.8163 10.2673 26.4289C10.2526 26.0071 10.4505 25.708 10.8507 25.5837C11.0642 25.5168 11.3028 25.5117 11.5301 25.5108C20.2398 25.5074 28.9488 25.5083 37.6586 25.5083H38.2411C38.2411 25.2966 38.2411 25.1423 38.2411 24.988C38.2411 19.8133 38.2411 14.6386 38.2411 9.46306C38.2411 9.3062 38.2402 9.14934 38.2281 8.99334C38.1625 8.12761 37.4615 7.45473 36.5877 7.42988C36.0993 7.41616 35.6084 7.45302 35.1226 7.41616C34.7337 7.38702 34.4943 7.53788 34.2574 7.82588C31.9428 10.6434 29.6229 13.4557 27.2867 16.2552C26.9133 16.7026 26.5987 17.1089 26.8899 17.7201C26.96 17.8667 26.9418 18.0561 26.9556 18.2267C27.1225 20.385 25.807 22.2931 23.7844 22.6951C23.0083 22.8494 22.1837 22.8185 21.3851 22.7842C20.0869 22.7285 18.8734 22.8391 17.8517 23.7751C17.3608 24.2251 16.6503 23.9654 16.4714 23.3045C16.0332 21.6888 15.773 20.0576 15.9511 18.3673C16.2562 15.4683 18.4187 13.4326 21.3626 13.3537C21.6418 13.346 21.7974 13.2534 21.9486 13.0263C23.1129 11.2802 24.2909 9.54364 25.4647 7.8036C25.533 7.7016 25.5917 7.59274 25.692 7.42473C25.4906 7.42473 25.3515 7.42473 25.2132 7.42473C18.0557 7.42473 10.8982 7.4393 3.74165 7.4093C2.65693 7.40502 1.76235 8.13789 1.76927 9.37478C1.80125 14.5923 1.78223 19.8099 1.78396 25.0274C1.78396 25.1774 1.79693 25.3283 1.80557 25.5091C2.61026 25.5091 3.37 25.4988 4.12887 25.5126C4.74859 25.5237 5.1384 25.9283 5.08827 26.4726C5.04592 26.9337 4.6829 27.238 4.12023 27.2474C3.36222 27.2595 2.60334 27.2509 1.80471 27.2509L1.79952 27.2517ZM28.5443 12.026C29.0914 11.366 29.61 10.7411 30.1268 10.1145C31.5279 8.41818 32.9419 6.73129 34.3257 5.02039C35.1226 4.03466 34.8651 2.65549 33.8114 2.01604C32.8425 1.42717 31.6748 1.70661 30.9955 2.70863C29.3861 5.08297 27.7863 7.4633 26.1829 9.84193C26.1207 9.9345 26.0688 10.0331 25.9997 10.1505C26.8415 10.7711 27.6696 11.3805 28.5443 12.026ZM17.8465 21.5739C18.4654 21.4188 19.0384 21.2036 19.627 21.1462C20.4369 21.0673 21.2589 21.0999 22.0757 21.099C22.838 21.0982 23.6107 21.1453 24.2572 20.6353C25.24 19.8604 25.3731 18.8301 25.0922 17.7047C25.0429 17.505 24.8951 17.2924 24.73 17.1638C24.0299 16.6195 23.2762 16.1395 22.6003 15.5686C22.0714 15.1229 21.5441 14.9926 20.8682 15.128C19.3237 15.4366 18.2554 16.2389 17.8405 17.7912C17.5008 19.0607 17.6227 20.3284 17.8474 21.5748L17.8465 21.5739ZM27.0412 42.0678C27.17 41.0503 26.8614 40.6937 25.8726 40.6937C21.9348 40.6937 17.9978 40.6929 14.0599 40.6937C13.1567 40.6937 12.7712 41.202 13.0055 42.0678H27.0403H27.0412ZM18.8275 34.7348C18.4913 36.1405 18.162 37.5162 17.8293 38.9091H22.1932C21.8518 37.4905 21.5216 36.1148 21.1897 34.7348H18.8275ZM27.4397 13.3631C26.6263 12.764 25.8363 12.1828 25.0135 11.5768C24.4552 12.4031 23.9227 13.1909 23.3739 14.0026C24.1077 14.5417 24.8285 15.0723 25.5727 15.6192C26.2045 14.8555 26.8113 14.1226 27.4397 13.3631Z" fill="white"/>
<path d="M8.53554 26.4066C8.52604 26.8857 8.12586 27.2603 7.64356 27.2423C7.18029 27.2243 6.81641 26.8454 6.81641 26.3826C6.81641 25.9128 7.22264 25.51 7.68851 25.5177C8.15697 25.5254 8.54505 25.9326 8.53554 26.4066Z" fill="white"/>
</svg>
