<svg width="42" height="42" viewBox="0 0 42 42" fill="none" xmlns="http://www.w3.org/2000/svg">
<path d="M41.9999 18.5383C41.8898 19.0692 41.7962 19.6033 41.6672 20.1293C41.3674 21.3472 40.8416 22.4657 40.1236 23.4929C39.8887 23.8291 39.5691 23.9696 39.1641 23.8726C38.7928 23.783 38.5348 23.5332 38.5225 23.1667C38.5135 22.9037 38.6112 22.598 38.7591 22.3761C39.8575 20.7251 40.329 18.9171 40.2156 16.9432C40.0053 13.268 37.4307 10.0663 33.8736 9.10396C33.3109 8.95192 32.7268 8.85988 32.146 8.79825C31.7024 8.7514 31.4289 8.56157 31.2292 8.1671C29.5756 4.89796 26.9583 2.8418 23.3913 2.01342C17.4486 0.63279 11.1633 4.65553 9.92775 10.6169C9.87764 10.8569 9.82671 11.0968 9.78235 11.3384C9.65584 12.0205 9.44882 12.2244 8.74972 12.2498C7.39836 12.3 6.1431 12.6517 4.99629 13.3765C1.62486 15.505 0.742565 20.0849 3.08466 23.3171C3.16435 23.428 3.25389 23.5316 3.33029 23.645C3.61781 24.0699 3.5636 24.5555 3.19803 24.8588C2.83082 25.1637 2.24098 25.1481 1.95838 24.7265C1.46138 23.9827 0.926581 23.2316 0.604553 22.4065C-1.42291 17.2086 1.85405 11.5069 7.37535 10.6284C8.00216 10.529 8.19275 10.3087 8.36198 9.74086C9.91132 4.51746 13.3986 1.36255 18.6997 0.189015C19.0546 0.110122 19.4169 0.0624572 19.7759 0C20.5957 0 21.4164 0 22.2363 0C22.3119 0.025476 22.385 0.0657444 22.4622 0.0756061C26.8967 0.661553 30.2336 2.8944 32.4705 6.7651C32.6028 6.99438 32.7572 7.09547 33.0053 7.1308C37.2139 7.72332 40.6272 10.778 41.6713 14.8928C41.8044 15.4179 41.8923 15.9553 42.0007 16.4871V18.5375L41.9999 18.5383Z" fill="white"/>
<path d="M25.3778 38.6076C25.7861 39.1417 26.1796 39.6874 26.6068 40.206C26.9116 40.5758 27.3075 40.8938 27.0602 41.4543C26.8113 42.0197 26.3143 42 25.8091 41.9992C22.5297 41.9934 19.2494 41.9926 15.97 42C15.5256 42.0008 15.1559 41.9112 14.9554 41.4724C14.7501 41.0245 14.9669 40.7032 15.2504 40.3695C15.7309 39.8025 16.177 39.205 16.6371 38.6207C16.6108 38.5788 16.5853 38.5369 16.559 38.495C16.4169 38.495 16.2748 38.495 16.1327 38.495C14.069 38.495 12.0046 38.449 9.94265 38.5081C8.0606 38.5624 6.96307 37.185 6.97868 35.5587C7.0214 31.0897 6.99265 26.6199 6.99347 22.1501C6.99347 20.3298 8.07703 19.2376 9.8909 19.231C10.9293 19.2278 11.9685 19.2195 13.0068 19.2352C13.7602 19.2467 14.2013 19.831 13.9442 20.449C13.7848 20.8327 13.4809 20.9996 13.0693 20.9979C11.9898 20.9946 10.9104 20.9955 9.83011 20.9979C9.09158 20.9996 8.7753 21.3094 8.7753 22.0383C8.77366 25.6329 8.7753 29.2283 8.7753 32.8229C8.7753 32.9429 8.7753 33.0637 8.7753 33.2058H33.2157C33.2231 33.0678 33.2363 32.9363 33.2363 32.8048C33.2371 29.2373 33.2379 25.6699 33.2363 22.1024C33.2363 21.2938 32.9356 20.9979 32.1182 20.9971C31.0798 20.9963 30.0415 20.9988 29.0023 20.9963C28.4075 20.9946 28.0148 20.6626 27.9918 20.1523C27.9696 19.6436 28.3804 19.2434 28.9825 19.236C30.1031 19.2228 31.2244 19.2064 32.3441 19.2393C33.9411 19.2869 35.0132 20.4112 35.0148 22.0071C35.0189 26.5722 35.0181 31.1374 35.0148 35.7025C35.014 37.3716 33.9198 38.4818 32.2505 38.4909C30.1326 38.5032 28.014 38.4942 25.8962 38.4942C25.7516 38.4942 25.6062 38.4942 25.4616 38.4942L25.3762 38.6068L25.3778 38.6076ZM33.2289 35.0385H8.78023C8.78023 35.3639 8.76216 35.663 8.78434 35.9597C8.82295 36.4725 9.21234 36.7445 9.8835 36.7445C17.3008 36.7445 24.7173 36.7454 32.1346 36.7413C32.3228 36.7413 32.5602 36.7536 32.6867 36.6517C32.9044 36.4766 33.1287 36.24 33.2092 35.9852C33.2987 35.7025 33.2297 35.3697 33.2297 35.0377L33.2289 35.0385ZM24.2967 40.2109C24.0018 39.657 23.7438 39.1508 23.4596 38.6593C23.4087 38.5714 23.2452 38.5024 23.1327 38.5016C21.7139 38.4909 20.2952 38.4925 18.8765 38.4991C18.768 38.4991 18.6021 38.5361 18.561 38.61C18.2727 39.127 18.0106 39.6578 17.7264 40.2109H24.2967Z" fill="white"/>
<path d="M22.6305 15.325C22.3224 15.6488 22.0242 15.9824 21.7046 16.2947C21.2717 16.7196 20.769 16.7443 20.3952 16.381C20.0025 15.9997 20.0247 15.4951 20.4691 15.0456C21.2857 14.2205 22.1055 13.3987 22.9311 12.5826C23.4093 12.1109 23.8463 12.1085 24.3195 12.5752C25.1558 13.3995 25.9863 14.2304 26.8103 15.0678C27.2342 15.4984 27.2457 16.0046 26.8669 16.3744C26.4973 16.736 25.983 16.7089 25.5534 16.2972C25.2379 15.9948 24.929 15.6858 24.6169 15.3809C24.6095 15.3735 24.5939 15.3735 24.5183 15.3513C24.5183 15.5083 24.5183 15.6488 24.5183 15.7893C24.5183 17.7559 24.5199 19.7233 24.5175 21.6899C24.5166 22.3145 24.2184 22.6925 23.7116 22.7319C23.1291 22.7763 22.7414 22.3892 22.7397 21.7351C22.7348 19.7685 22.7381 17.8011 22.7381 15.8345C22.7381 15.6858 22.7381 15.5378 22.7381 15.3891C22.7019 15.3677 22.6666 15.3455 22.6305 15.3242V15.325Z" fill="white"/>
<path d="M19.2709 24.9862C19.6751 24.5802 19.9881 24.2564 20.3118 23.9433C20.7291 23.5406 21.2631 23.5209 21.6237 23.8841C21.9991 24.2622 21.9852 24.7536 21.5572 25.19C20.734 26.0274 19.9043 26.8583 19.0664 27.6809C18.6293 28.1107 18.1307 28.1074 17.6945 27.6776C16.8582 26.8533 16.0277 26.0233 15.2037 25.1867C14.7765 24.7528 14.7617 24.2589 15.1404 23.8833C15.5068 23.5184 16.0277 23.5406 16.4466 23.9548C16.767 24.2712 17.071 24.6032 17.3823 24.9287C17.4185 24.9188 17.4546 24.9081 17.4907 24.8983C17.4907 24.7602 17.4907 24.6221 17.4907 24.4841C17.4907 22.4904 17.4858 20.4967 17.4932 18.503C17.4957 17.7058 18.1767 17.2497 18.8084 17.6088C19.1715 17.8151 19.2734 18.1521 19.2726 18.5457C19.2693 20.5123 19.2709 22.478 19.2709 24.4446C19.2709 24.5893 19.2709 24.7347 19.2709 24.9878V24.9862Z" fill="white"/>
</svg>
