<svg width="50" height="41" viewBox="0 0 50 41" fill="none" xmlns="http://www.w3.org/2000/svg">
<path d="M-0.000974747 20.3068C0.259274 19.7775 0.685847 19.6011 1.27287 19.6224C2.22875 19.6573 3.1856 19.6321 4.1992 19.6321C4.1992 18.7142 4.19724 17.8341 4.1992 16.953C4.20116 16.1398 4.56218 15.7821 5.39087 15.7763C6.04051 15.7724 6.69015 15.7763 7.29283 15.7763C7.87595 14.3805 8.44438 13.0225 9.05489 11.5628C8.64984 11.177 8.16359 10.7282 7.69299 10.2639C7.10009 9.67849 7.09911 9.18318 7.68614 8.59967C9.4208 6.87627 11.1574 5.15578 12.898 3.4382C13.4664 2.87795 13.9712 2.88086 14.5446 3.44401C15.0171 3.90927 15.474 4.38907 15.8849 4.80877C17.329 4.21557 18.7007 3.65144 20.1282 3.06405C20.1282 2.47569 20.1233 1.81658 20.1291 1.15746C20.136 0.365548 20.5009 0.00303358 21.2924 0.00206429C23.7658 0.000125707 26.2391 0.000125707 28.7125 0.00206429C29.4756 0.00206429 29.8523 0.368456 29.863 1.12159C29.8718 1.78168 29.865 2.44177 29.865 3.1445C30.1722 3.24143 30.4843 3.31413 30.7759 3.43626C31.7611 3.85015 32.7434 4.27082 33.7139 4.71572C33.9448 4.82137 34.0769 4.81847 34.252 4.63333C34.6404 4.22138 35.0504 3.82882 35.4564 3.43432C36.016 2.89152 36.5238 2.87698 37.0678 3.41203C38.8328 5.14996 40.5939 6.89275 42.3491 8.64135C42.8774 9.16767 42.8745 9.67461 42.3589 10.2038C41.9411 10.6332 41.4999 11.0403 41.0909 11.4775C41.0097 11.5647 40.9618 11.7673 41.0068 11.871C41.5605 13.1524 42.1348 14.4251 42.7365 15.7753C43.2198 15.7753 43.8196 15.7753 44.4193 15.7753C45.4946 15.7753 45.793 16.0661 45.793 17.112C45.793 17.931 45.793 18.7501 45.793 19.6321C46.8594 19.6321 47.8945 19.6389 48.9297 19.6282C49.3425 19.6244 49.6615 19.7678 49.8689 20.1187C50.2133 20.7032 49.8347 21.4612 49.1566 21.5533C49.0441 21.5688 48.9297 21.562 48.8152 21.562C42.2415 21.562 35.6677 21.562 29.095 21.561C28.9336 21.561 28.7653 21.563 28.6127 21.5203C28.1577 21.3924 27.8799 20.9504 27.9317 20.4754C27.9845 19.9937 28.372 19.6399 28.8984 19.635C30.1027 19.6253 31.3061 19.6312 32.5105 19.6312C32.6876 19.6312 32.8657 19.6312 33.0418 19.6312C33.1748 16.4703 29.4687 12.883 25.9231 12.5456C21.0792 12.0852 17.3232 15.6435 16.9074 19.6312C17.0854 19.6312 17.2576 19.6312 17.4308 19.6312C18.6508 19.6312 19.8718 19.6244 21.0919 19.635C21.6574 19.6399 22.0526 20.0373 22.0634 20.5704C22.0751 21.1258 21.6769 21.5426 21.0919 21.5581C20.5391 21.5726 19.9853 21.562 19.4325 21.562C13.3793 21.562 7.32708 21.5562 1.27385 21.5717C0.688782 21.5736 0.261231 21.4127 -0.00195312 20.8874V20.3068H-0.000974747ZM14.8958 19.6079C15.4838 14.492 19.6175 10.7602 24.5945 10.5615C29.8572 10.3512 34.4898 14.1867 35.114 19.5992H43.8225V17.7352C43.2042 17.7352 42.6054 17.743 42.0076 17.7333C41.3042 17.7217 40.9921 17.4832 40.8316 16.8163C40.4373 15.1753 39.7857 13.6419 38.9081 12.1996C38.5158 11.556 38.5637 11.1935 39.1156 10.6584C39.5294 10.2572 39.9628 9.87622 40.3424 9.52728C38.9199 8.11599 37.5785 6.78516 36.1971 5.41555C35.837 5.78679 35.4603 6.18614 35.0709 6.57482C34.4692 7.17481 34.1327 7.21358 33.395 6.77256C31.9802 5.92733 30.4716 5.30893 28.8651 4.92412C28.1323 4.74868 27.8945 4.45886 27.8848 3.70669C27.8779 3.12996 27.8838 2.55324 27.8838 1.96391H22.171C22.1427 2.01043 22.127 2.024 22.127 2.03757C22.1192 2.61721 22.1192 3.19684 22.1045 3.77648C22.0879 4.44044 21.8482 4.75546 21.1985 4.90861C19.5255 5.30311 17.964 5.95447 16.4935 6.83265C15.8693 7.20583 15.5024 7.15155 14.976 6.62522C14.5661 6.21521 14.1738 5.78679 13.7912 5.38356C12.3833 6.77546 11.0381 8.10533 9.63703 9.49045C10.002 9.8297 10.3874 10.1748 10.7563 10.5353C11.4695 11.2323 11.5047 11.5124 10.9999 12.344C10.1732 13.7049 9.57832 15.1598 9.18306 16.6961C8.96782 17.5326 8.72616 17.7284 7.86323 17.7333C7.30066 17.7372 6.73809 17.7333 6.17455 17.7333V19.605H14.8968L14.8958 19.6079Z" fill="white"/>
<path d="M39.0582 41C38.6444 40.8711 38.2198 40.7683 37.8186 40.6074C36.8667 40.2265 36.1427 39.5742 35.631 38.695C35.2964 38.1212 35.4089 37.5532 35.901 37.2576C36.4029 36.9561 36.9665 37.1025 37.306 37.686C38.346 39.4695 40.8839 39.4482 41.8926 37.7228C42.8857 36.0237 41.7087 33.9174 39.7157 33.8282C37.3451 33.7226 35.6349 32.3811 35.1252 30.2273C34.6428 28.1908 35.7083 26.0458 37.6543 25.1356C39.6042 24.2235 41.9826 24.7906 43.2614 26.4703C43.6654 27.0015 43.6322 27.5676 43.1743 27.9291C42.7095 28.2955 42.1421 28.1957 41.6911 27.65C40.9935 26.8077 40.0836 26.4936 39.0367 26.7185C38.0026 26.9404 37.3343 27.6141 37.0624 28.6416C36.6642 30.1469 37.7717 31.721 39.3459 31.8228C40.5786 31.9022 41.7312 32.1523 42.6606 33.014C44.0538 34.3061 44.5655 35.8899 44.0147 37.7044C43.4737 39.4869 42.2204 40.5648 40.3517 40.9089C40.2753 40.9225 40.2049 40.968 40.1325 40.9981H39.0582V41Z" fill="white"/>
<path d="M20.5961 30.1963C20.5961 31.0483 20.5961 31.9003 20.5961 32.7523C20.5961 34.9274 20.598 37.1015 20.5941 39.2766C20.5931 39.9261 20.1959 40.3797 19.6343 40.3971C19.0551 40.4155 18.6383 39.9609 18.6373 39.2747C18.6334 34.9739 18.6344 30.6722 18.6373 26.3715C18.6373 25.7899 18.8966 25.439 19.375 25.3227C19.8584 25.2054 20.239 25.3838 20.5325 25.9014C22.1106 28.6765 23.6828 31.4545 25.2571 34.2315C25.3422 34.3817 25.4322 34.529 25.5486 34.7239C26.389 33.2409 27.2079 31.7976 28.0249 30.3553C28.8516 28.8965 29.6754 27.4367 30.5031 25.9789C30.8348 25.3945 31.2066 25.1987 31.7143 25.3247C32.2133 25.4487 32.4599 25.8103 32.4599 26.4742C32.4638 30.711 32.4491 34.9478 32.4706 39.1845C32.4765 40.2401 31.6185 40.5735 31.0686 40.3012C30.597 40.0676 30.4747 39.6634 30.4757 39.1768C30.4806 36.3736 30.4787 33.5704 30.4787 30.7682C30.4787 30.5928 30.4787 30.4163 30.4787 30.2409C30.4493 30.2264 30.4209 30.2118 30.3916 30.1973C30.3084 30.334 30.2213 30.4697 30.1421 30.6092C28.9162 32.7688 27.6971 34.9313 26.4644 37.087C25.9859 37.9235 25.1123 37.9235 24.624 37.1044C24.5829 37.0356 24.5467 36.9629 24.5066 36.8931C23.313 34.7898 22.1204 32.6874 20.9268 30.585C20.8485 30.4483 20.7683 30.3117 20.69 30.176C20.6587 30.1827 20.6274 30.1905 20.5961 30.1973V30.1963Z" fill="white"/>
<path d="M5.76804 32.8337C5.76804 31.6415 5.76315 30.4483 5.76804 29.2561C5.77978 26.8949 7.4939 25.1589 9.87527 25.1395C10.8801 25.1308 11.9083 25.0901 12.8857 25.2733C14.6321 25.6009 15.8923 27.2409 15.9285 29.0012C15.9412 29.6438 15.5929 30.0655 15.0245 30.0984C14.4286 30.1323 14.0197 29.7398 13.9698 29.0836C13.8759 27.8623 13.0315 27.081 11.7929 27.0723C11.1746 27.0684 10.5562 27.0684 9.93789 27.0723C8.68067 27.0791 7.76883 27.8787 7.74926 29.1204C7.7111 31.6018 7.71012 34.0841 7.74926 36.5645C7.76883 37.7888 8.66502 38.5826 9.8968 38.5952C10.5641 38.602 11.2313 38.6049 11.8986 38.5933C13.0403 38.5739 13.8866 37.7674 13.9678 36.6324C14.0304 35.7562 14.8435 35.2521 15.4794 35.7387C15.7113 35.9171 15.9031 36.2941 15.9119 36.5868C15.9745 38.5981 14.2995 40.4126 12.2576 40.5115C11.1579 40.5648 10.0259 40.6162 8.95364 40.4233C7.04091 40.0802 5.78565 38.4343 5.76902 36.5083C5.75826 35.2841 5.76706 34.0589 5.76706 32.8347L5.76804 32.8337Z" fill="white"/>
<path d="M24.0235 20.5829C24.0293 20.0372 24.4657 19.6204 25.0214 19.632C25.5527 19.6427 25.9656 20.0566 25.9705 20.5829C25.9763 21.1305 25.5478 21.5599 24.997 21.5599C24.4452 21.5599 24.0186 21.1315 24.0235 20.5829Z" fill="white"/>
</svg>
