<svg width="47" height="38" viewBox="0 0 47 38" fill="none" xmlns="http://www.w3.org/2000/svg">
<path d="M26.2618 0C26.3161 0.0266741 26.3675 0.0625462 26.4245 0.0781828C27.4366 0.349523 27.9532 1.03109 27.8218 2.0723C27.625 3.63136 27.3704 5.18306 27.1342 6.7366C26.6911 9.64775 26.2434 12.558 25.7976 15.4692C25.3518 18.3803 24.9051 21.2906 24.4601 24.2017C24.018 27.0982 23.5777 29.9937 23.1355 32.8901C22.9811 33.901 22.8386 34.9137 22.6667 35.9208C22.5077 36.8498 21.628 37.5121 20.7529 37.3944C19.7565 37.2601 19.0671 36.4782 19.1875 35.4849C19.3823 33.8798 19.6462 32.2831 19.8888 30.6835C20.2988 27.983 20.7143 25.2834 21.128 22.5838C21.5729 19.6726 22.0187 16.7615 22.4636 13.8503C22.9057 10.9539 23.3479 8.05834 23.79 5.1619C23.9748 3.95513 24.1504 2.74743 24.3471 1.5425C24.4905 0.666853 25.0963 0.231789 25.8951 0C26.0173 0 26.1396 0 26.2618 0Z" fill="white"/>
<path d="M46.9997 19.1787C46.6311 19.6533 46.2974 20.1611 45.8874 20.598C42.5506 24.1539 39.1982 27.6942 35.8559 31.2437C35.3926 31.7358 34.8705 32.078 34.1682 31.9841C33.4576 31.8894 32.953 31.4911 32.7094 30.816C32.4483 30.0949 32.6616 29.4676 33.1736 28.9249C34.6627 27.3456 36.1519 25.7672 37.642 24.1889C39.3508 22.3778 41.0606 20.5676 42.7997 18.7253C42.6683 18.5818 42.5488 18.4493 42.4265 18.3196C39.3526 15.0626 36.2797 11.8056 33.203 8.55046C32.6791 7.99674 32.4419 7.36668 32.7085 6.62533C32.9521 5.9502 33.4576 5.55376 34.1673 5.45718C34.8291 5.36704 35.3494 5.66138 35.7916 6.13048C37.846 8.3104 39.9032 10.4885 41.9596 12.6675C43.3439 14.1346 44.7375 15.5943 46.108 17.0751C46.4426 17.4357 46.7037 17.8643 46.9988 18.2617V19.1796L46.9997 19.1787Z" fill="white"/>
<path d="M4.21213 18.7207C6.42103 21.0606 8.59224 23.362 10.7644 25.6624C11.8031 26.7634 12.8464 27.8598 13.8796 28.9663C14.3778 29.4989 14.5608 30.1262 14.3034 30.8261C14.0626 31.4801 13.5717 31.8719 12.8813 31.9786C12.2186 32.0816 11.6928 31.802 11.2488 31.332C10.325 30.3533 9.40116 29.3765 8.47734 28.3979C5.88512 25.6523 3.29199 22.9067 0.700688 20.1592C-0.236922 19.1658 -0.233245 18.269 0.70988 17.2701C4.20386 13.567 7.70059 9.86669 11.1927 6.16175C11.724 5.59884 12.3335 5.28886 13.1176 5.51421C13.7923 5.70829 14.2115 6.16543 14.3687 6.84608C14.5249 7.52121 14.2675 8.06849 13.8107 8.55138C11.7314 10.7506 9.65303 12.9526 7.57558 15.1546C6.46423 16.332 5.35473 17.5102 4.21305 18.7207H4.21213Z" fill="white"/>
</svg>
