<svg width="44" height="40" viewBox="0 0 44 40" fill="none" xmlns="http://www.w3.org/2000/svg">
<path d="M43.9989 36.7738C43.788 37.3802 43.5608 37.9738 43.0581 38.4175C42.4883 38.9185 41.8272 39.1943 41.0689 39.1943C39.2655 39.1943 37.4614 39.2175 35.6598 39.1558C34.2481 39.107 33.0525 37.8856 33.0215 36.4877C32.9811 34.6514 32.9793 32.8124 33.0215 30.9769C33.056 29.4446 34.3747 28.2831 36.0342 28.2429C36.5309 28.2309 37.0284 28.2412 37.5698 28.2412V27.7375C37.5698 26.0425 37.5698 24.3475 37.5698 22.6533C37.5698 20.6738 36.1496 19.2023 34.1422 19.1681C32.196 19.1347 30.2481 19.1578 28.3011 19.157C26.6837 19.157 25.0654 19.157 23.448 19.157H22.9634V28.2061C23.6598 28.2395 24.3458 28.2318 25.0207 28.3123C26.3583 28.4707 27.4566 29.6313 27.4859 30.9718C27.5264 32.8081 27.5315 34.6471 27.485 36.4826C27.4463 37.9978 26.224 39.1378 24.5533 39.1866C22.7663 39.2389 20.9742 39.2226 19.1872 39.1575C17.7403 39.1053 16.5576 37.895 16.5266 36.4663C16.4861 34.6299 16.4818 32.791 16.5283 30.9555C16.567 29.4266 17.8978 28.2754 19.5608 28.2429C20.0454 28.2335 20.53 28.2412 21.0439 28.2412V19.1886C20.9406 19.1784 20.8313 19.1578 20.7228 19.1578C17.1584 19.1561 13.5931 19.1458 10.0286 19.1621C8.69873 19.1681 7.60555 19.7051 6.88423 20.8392C6.66387 21.186 6.48311 21.6263 6.4745 22.0271C6.43405 24.0759 6.45557 26.1256 6.45557 28.2403C6.94707 28.2403 7.42824 28.2335 7.90855 28.242C9.1515 28.2643 10.144 28.7517 10.688 29.896C10.8885 30.3174 10.9832 30.8219 10.9944 31.2921C11.0306 32.8861 11.0099 34.4818 11.0082 36.0775C11.0065 37.895 9.91156 39.119 8.07984 39.1832C6.27911 39.2466 4.47235 39.2192 2.67162 39.1575C1.25909 39.1087 0.0677887 37.8967 0.0342187 36.4886C-0.0105414 34.6522 -0.0122629 32.8133 0.0342187 30.9778C0.0729533 29.4386 1.38821 28.2832 3.04605 28.2438C3.54272 28.2318 4.04024 28.242 4.57995 28.242C4.57995 28.0433 4.57995 27.89 4.57995 27.7375C4.57995 25.9714 4.59974 24.2053 4.57564 22.4391C4.53949 19.7411 6.77147 17.7411 9.11276 17.3874C9.56295 17.3197 10.0252 17.306 10.4814 17.3052C13.8169 17.2983 17.1524 17.3017 20.4887 17.3017H21.0387V11.8568C20.4973 11.8568 19.9456 11.868 19.3938 11.8534C18.8808 11.8397 18.3514 11.8706 17.8591 11.7549C16.4715 11.4303 15.6056 10.3314 15.5849 8.87017C15.5574 6.90532 15.5591 4.93875 15.5832 2.9739C15.6038 1.16579 16.9905 0.0189144 18.4056 0.0103492C20.8098 -0.00421162 23.2148 -0.00421162 25.6189 0.0120622C27.0374 0.0223404 28.4112 1.17864 28.431 2.98418C28.4534 4.93533 28.4569 6.88648 28.431 8.83762C28.4069 10.6397 27.1554 11.8243 25.2952 11.8526C24.5249 11.8646 23.7553 11.8543 22.9626 11.8543V17.2992C23.1235 17.2992 23.2871 17.2992 23.4515 17.2992C26.9307 17.2992 30.4091 17.2932 33.8883 17.3017C35.7114 17.306 37.2272 17.9929 38.3858 19.4062C39.0882 20.2636 39.4334 21.2554 39.4343 22.3638C39.4343 24.1445 39.4343 25.9243 39.4343 27.705C39.4343 27.8609 39.4343 28.0159 39.4343 28.2395C39.949 28.2395 40.4439 28.2292 40.938 28.2412C42.1844 28.272 43.1364 28.7962 43.7123 29.9217C43.8268 30.1452 43.9051 30.3868 43.9998 30.6197V36.773L43.9989 36.7738ZM21.9899 10.0248C23.0917 10.0248 24.1935 10.0273 25.2961 10.0239C26.1285 10.0213 26.5692 9.58622 26.5709 8.76653C26.5735 6.88733 26.5735 5.00813 26.5709 3.12893C26.5709 2.24757 26.144 1.81932 25.2634 1.81846C23.0882 1.81589 20.9131 1.81589 18.7379 1.81846C17.8797 1.81932 17.4424 2.251 17.4416 3.09724C17.439 4.97644 17.439 6.85564 17.4416 8.73484C17.4424 9.58793 17.8754 10.0213 18.7276 10.0239C19.8156 10.0273 20.9027 10.0239 21.9907 10.0239L21.9899 10.0248ZM5.53798 30.0955C4.72283 30.0955 3.90769 30.0921 3.09254 30.0964C2.31612 30.0998 1.86938 30.4998 1.86163 31.2561C1.84614 32.9066 1.84614 34.5571 1.86249 36.2077C1.87024 36.9306 2.33506 37.3674 3.05983 37.3708C4.69013 37.3785 6.32129 37.3785 7.95158 37.3708C8.68066 37.3674 9.15064 36.9357 9.15838 36.2171C9.17646 34.5529 9.17646 32.8878 9.15838 31.2227C9.15064 30.5135 8.69615 30.1015 7.98257 30.0964C7.16742 30.0904 6.35227 30.0947 5.53712 30.0947L5.53798 30.0955ZM22.0321 30.0955C21.2169 30.0955 20.4018 30.0921 19.5866 30.0964C18.8102 30.0998 18.3635 30.4998 18.3566 31.2561C18.3411 32.9066 18.3411 34.5571 18.3574 36.2077C18.3652 36.9306 18.83 37.3674 19.5548 37.3708C21.1851 37.3785 22.8162 37.3785 24.4465 37.3708C25.1756 37.3674 25.6456 36.9357 25.6533 36.2171C25.6714 34.5529 25.6714 32.8878 25.6533 31.2227C25.6456 30.5135 25.1911 30.1015 24.4775 30.0964C23.6624 30.0904 22.8472 30.0947 22.0321 30.0947V30.0955ZM38.5124 30.0955C37.6972 30.0955 36.8821 30.0921 36.0669 30.0964C35.3008 30.1007 34.8567 30.5101 34.8507 31.2707C34.836 32.9066 34.836 34.5434 34.8507 36.1794C34.8575 36.9271 35.3189 37.3682 36.0643 37.3717C37.6946 37.3785 39.3258 37.3794 40.9561 37.3717C41.6791 37.3682 42.1422 36.9288 42.15 36.2042C42.1663 34.5537 42.1663 32.9032 42.15 31.2527C42.1431 30.5144 41.6972 30.1024 40.9578 30.0981C40.1427 30.0921 39.3275 30.0973 38.5124 30.0964V30.0955Z" fill="white"/>
</svg>
