<svg width="1131" height="308" viewBox="0 0 1131 308" fill="none" xmlns="http://www.w3.org/2000/svg">
<path d="M865.5 1H979.5C1062.89 1 1130.5 68.605 1130.5 152V152C1130.5 235.395 1062.89 303 979.5 303H865.5" stroke="#8E82D1" stroke-dasharray="2 2"/>
<path d="M98.5 1.5H944" stroke="#8E82D1" stroke-dasharray="2 2"/>
<path d="M0.646447 303.146C0.451184 303.342 0.451184 303.658 0.646447 303.854L3.82843 307.036C4.02369 307.231 4.34027 307.231 4.53553 307.036C4.7308 306.84 4.7308 306.524 4.53553 306.328L1.70711 303.5L4.53553 300.672C4.7308 300.476 4.7308 300.16 4.53553 299.964C4.34027 299.769 4.02369 299.769 3.82843 299.964L0.646447 303.146ZM1 304H2.00052V303H1V304ZM4.00156 304H6.0026V303H4.00156V304ZM8.00365 304H10.0047V303H8.00365V304ZM12.0057 304H14.0068V303H12.0057V304ZM16.0078 304H18.0089V303H16.0078V304ZM20.0099 304H22.0109V303H20.0099V304ZM24.012 304H26.013V303H24.012V304ZM28.0141 304H30.0151V303H28.0141V304ZM32.0161 304H34.0172V303H32.0161V304ZM36.0182 304H38.0193V303H36.0182V304ZM40.0203 304H42.0214V303H40.0203V304ZM44.0224 304H46.0234V303H44.0224V304ZM48.0245 304H50.0255V303H48.0245V304ZM52.0266 304H54.0276V303H52.0266V304ZM56.0286 304H58.0297V303H56.0286V304ZM60.0307 304H62.0318V303H60.0307V304ZM64.0328 304H66.0339V303H64.0328V304ZM68.0349 304H70.0359V303H68.0349V304ZM72.037 304H74.038V303H72.037V304ZM76.0391 304H78.0401V303H76.0391V304ZM80.0412 304H82.0422V303H80.0412V304ZM84.0433 304H86.0443V303H84.0433V304ZM88.0453 304H90.0464V303H88.0453V304ZM92.0474 304H94.0485V303H92.0474V304ZM96.0495 304H98.0506V303H96.0495V304ZM100.052 304H102.053V303H100.052V304ZM104.054 304H106.055V303H104.054V304ZM108.056 304H110.057V303H108.056V304ZM112.058 304H114.059V303H112.058V304ZM116.06 304H118.061V303H116.06V304ZM120.062 304H122.063V303H120.062V304ZM124.064 304H126.065V303H124.064V304ZM128.066 304H130.067V303H128.066V304ZM132.068 304H134.069V303H132.068V304ZM136.07 304H138.071V303H136.07V304ZM140.072 304H142.074V303H140.072V304ZM144.075 304H146.076V303H144.075V304ZM148.077 304H150.078V303H148.077V304ZM152.079 304H154.08V303H152.079V304ZM156.081 304H158.082V303H156.081V304ZM160.083 304H162.084V303H160.083V304ZM164.085 304H166.086V303H164.085V304ZM168.087 304H170.088V303H168.087V304ZM172.089 304H174.09V303H172.089V304ZM176.091 304H178.092V303H176.091V304ZM180.093 304H182.094V303H180.093V304ZM184.095 304H186.096V303H184.095V304ZM188.097 304H190.098V303H188.097V304ZM192.099 304H194.1V303H192.099V304ZM196.102 304H198.103V303H196.102V304ZM200.104 304H202.105V303H200.104V304ZM204.106 304H206.107V303H204.106V304ZM208.108 304H210.109V303H208.108V304ZM212.11 304H214.111V303H212.11V304ZM216.112 304H218.113V303H216.112V304ZM220.114 304H222.115V303H220.114V304ZM224.116 304H226.117V303H224.116V304ZM228.118 304H230.119V303H228.118V304ZM232.12 304H234.121V303H232.12V304ZM236.122 304H238.123V303H236.122V304ZM240.124 304H242.125V303H240.124V304ZM244.126 304H246.127V303H244.126V304ZM248.129 304H250.13V303H248.129V304ZM252.131 304H254.132V303H252.131V304ZM256.133 304H258.134V303H256.133V304ZM260.135 304H262.136V303H260.135V304ZM264.137 304H266.138V303H264.137V304ZM268.139 304H270.14V303H268.139V304ZM272.141 304H274.142V303H272.141V304ZM276.143 304H278.144V303H276.143V304ZM280.145 304H282.146V303H280.145V304ZM284.147 304H286.148V303H284.147V304ZM288.149 304H290.15V303H288.149V304ZM292.151 304H294.152V303H292.151V304ZM296.153 304H298.154V303H296.153V304ZM300.155 304H302.157V303H300.155V304ZM304.158 304H306.159V303H304.158V304ZM308.16 304H310.161V303H308.16V304ZM312.162 304H314.163V303H312.162V304ZM316.164 304H318.165V303H316.164V304ZM320.166 304H322.167V303H320.166V304ZM324.168 304H326.169V303H324.168V304ZM328.17 304H330.171V303H328.17V304ZM332.172 304H334.173V303H332.172V304ZM336.174 304H338.175V303H336.174V304ZM340.176 304H342.177V303H340.176V304ZM344.178 304H346.179V303H344.178V304ZM348.18 304H350.181V303H348.18V304ZM352.182 304H354.184V303H352.182V304ZM356.185 304H358.186V303H356.185V304ZM360.187 304H362.188V303H360.187V304ZM364.189 304H366.19V303H364.189V304ZM368.191 304H370.192V303H368.191V304ZM372.193 304H374.194V303H372.193V304ZM376.195 304H378.196V303H376.195V304ZM380.197 304H382.198V303H380.197V304ZM384.199 304H386.2V303H384.199V304ZM388.201 304H390.202V303H388.201V304ZM392.203 304H394.204V303H392.203V304ZM396.205 304H398.206V303H396.205V304ZM400.207 304H402.208V303H400.207V304ZM404.209 304H406.21V303H404.209V304ZM408.212 304H410.213V303H408.212V304ZM412.214 304H414.215V303H412.214V304ZM416.216 304H418.217V303H416.216V304ZM420.218 304H422.219V303H420.218V304ZM424.22 304H426.221V303H424.22V304ZM428.222 304H430.223V303H428.222V304ZM432.224 304H434.225V303H432.224V304ZM436.226 304H438.227V303H436.226V304ZM440.228 304H442.229V303H440.228V304ZM444.23 304H446.231V303H444.23V304ZM448.232 304H450.233V303H448.232V304ZM452.234 304H454.235V303H452.234V304ZM456.236 304H458.237V303H456.236V304ZM460.238 304H462.24V303H460.238V304ZM464.241 304H466.242V303H464.241V304ZM468.243 304H470.244V303H468.243V304ZM472.245 304H474.246V303H472.245V304ZM476.247 304H478.248V303H476.247V304ZM480.249 304H482.25V303H480.249V304ZM484.251 304H486.252V303H484.251V304ZM488.253 304H490.254V303H488.253V304ZM492.255 304H494.256V303H492.255V304ZM496.257 304H498.258V303H496.257V304ZM500.259 304H502.26V303H500.259V304ZM504.261 304H506.262V303H504.261V304ZM508.263 304H510.264V303H508.263V304ZM512.266 304H514.267V303H512.266V304ZM516.268 304H518.269V303H516.268V304ZM520.27 304H522.271V303H520.27V304ZM524.272 304H526.273V303H524.272V304ZM528.274 304H530.275V303H528.274V304ZM532.276 304H534.277V303H532.276V304ZM536.278 304H538.279V303H536.278V304ZM540.28 304H542.281V303H540.28V304ZM544.282 304H546.283V303H544.282V304ZM548.284 304H550.285V303H548.284V304ZM552.286 304H554.287V303H552.286V304ZM556.288 304H558.289V303H556.288V304ZM560.29 304H562.291V303H560.29V304ZM564.292 304H566.294V303H564.292V304ZM568.295 304H570.296V303H568.295V304ZM572.297 304H574.298V303H572.297V304ZM576.299 304H578.3V303H576.299V304ZM580.301 304H582.302V303H580.301V304ZM584.303 304H586.304V303H584.303V304ZM588.305 304H590.306V303H588.305V304ZM592.307 304H594.308V303H592.307V304ZM596.309 304H598.31V303H596.309V304ZM600.311 304H602.312V303H600.311V304ZM604.313 304H606.314V303H604.313V304ZM608.315 304H610.316V303H608.315V304ZM612.317 304H614.318V303H612.317V304ZM616.319 304H618.32V303H616.319V304ZM620.322 304H622.323V303H620.322V304ZM624.324 304H626.325V303H624.324V304ZM628.326 304H630.327V303H628.326V304ZM632.328 304H634.329V303H632.328V304ZM636.33 304H638.331V303H636.33V304ZM640.332 304H642.333V303H640.332V304ZM644.334 304H646.335V303H644.334V304ZM648.336 304H650.337V303H648.336V304ZM652.338 304H654.339V303H652.338V304ZM656.34 304H658.341V303H656.34V304ZM660.342 304H662.343V303H660.342V304ZM664.344 304H666.345V303H664.344V304ZM668.346 304H670.347V303H668.346V304ZM672.349 304H674.35V303H672.349V304ZM676.351 304H678.352V303H676.351V304ZM680.353 304H682.354V303H680.353V304ZM684.355 304H686.356V303H684.355V304ZM688.357 304H690.358V303H688.357V304ZM692.359 304H694.36V303H692.359V304ZM696.361 304H698.362V303H696.361V304ZM700.363 304H702.364V303H700.363V304ZM704.365 304H706.366V303H704.365V304ZM708.367 304H710.368V303H708.367V304ZM712.369 304H714.37V303H712.369V304ZM716.371 304H718.372V303H716.371V304ZM720.373 304H722.374V303H720.373V304ZM724.375 304H726.377V303H724.375V304ZM728.378 304H730.379V303H728.378V304ZM732.38 304H734.381V303H732.38V304ZM736.382 304H738.383V303H736.382V304ZM740.384 304H742.385V303H740.384V304ZM744.386 304H746.387V303H744.386V304ZM748.388 304H750.389V303H748.388V304ZM752.39 304H754.391V303H752.39V304ZM756.392 304H758.393V303H756.392V304ZM760.394 304H762.395V303H760.394V304ZM764.396 304H766.397V303H764.396V304ZM768.398 304H770.399V303H768.398V304ZM772.4 304H774.401V303H772.4V304ZM776.402 304H778.404V303H776.402V304ZM780.405 304H782.406V303H780.405V304ZM784.407 304H786.408V303H784.407V304ZM788.409 304H790.41V303H788.409V304ZM792.411 304H794.412V303H792.411V304ZM796.413 304H798.414V303H796.413V304ZM800.415 304H802.416V303H800.415V304ZM804.417 304H806.418V303H804.417V304ZM808.419 304H810.42V303H808.419V304ZM812.421 304H814.422V303H812.421V304ZM816.423 304H818.424V303H816.423V304ZM820.425 304H822.426V303H820.425V304ZM824.427 304H826.428V303H824.427V304ZM828.429 304H830.43V303H828.429V304ZM832.432 304H834.433V303H832.432V304ZM836.434 304H838.435V303H836.434V304ZM840.436 304H842.437V303H840.436V304ZM844.438 304H846.439V303H844.438V304ZM848.44 304H850.441V303H848.44V304ZM852.442 304H854.443V303H852.442V304ZM856.444 304H858.445V303H856.444V304ZM860.446 304H862.447V303H860.446V304ZM864.448 304H866.449V303H864.448V304ZM868.45 304H870.451V303H868.45V304ZM872.452 304H874.453V303H872.452V304ZM876.454 304H878.455V303H876.454V304ZM880.456 304H882.457V303H880.456V304ZM884.458 304H886.46V303H884.458V304ZM888.461 304H890.462V303H888.461V304ZM892.463 304H894.464V303H892.463V304ZM896.465 304H898.466V303H896.465V304ZM900.467 304H902.468V303H900.467V304ZM904.469 304H906.47V303H904.469V304ZM908.471 304H910.472V303H908.471V304ZM912.473 304H914.474V303H912.473V304ZM916.475 304H918.476V303H916.475V304ZM920.477 304H922.478V303H920.477V304ZM924.479 304H926.48V303H924.479V304ZM928.481 304H930.482V303H928.481V304ZM932.483 304H934.484V303H932.483V304ZM936.485 304H938.487V303H936.485V304ZM940.488 304H942.489V303H940.488V304ZM944.49 304H946.491V303H944.49V304ZM948.492 304H950.493V303H948.492V304ZM952.494 304H954.495V303H952.494V304ZM956.496 304H958.497V303H956.496V304ZM960.498 304H961.5V303H960.498V304Z" fill="#8E82D1"/>
</svg>
