<svg width="67" height="51" viewBox="0 0 67 51" fill="none" xmlns="http://www.w3.org/2000/svg">
<g clip-path="url(#clip0_728_3647)">
<path d="M67.0006 48.8422C66.9665 48.8645 66.9114 48.8789 66.9009 48.9091C66.4538 50.2447 65.4914 50.8337 64.1199 50.8324C59.8232 50.8324 55.5278 50.8468 51.231 50.8245C49.4426 50.8154 48.3962 49.8288 48.3779 48.0393C48.3359 43.6994 48.3372 39.3595 48.3779 35.0209C48.3949 33.2039 49.4609 32.2304 51.2769 32.2173C52.9526 32.2055 54.6283 32.2147 56.3499 32.2147V26.7189H34.8386V32.2133C35.7184 32.2133 36.5825 32.2133 37.4479 32.2133C38.2333 32.2133 39.0187 32.2094 39.8028 32.2133C41.801 32.2251 42.8014 33.2248 42.8054 35.2387C42.8132 38.9029 42.808 42.5659 42.8067 46.2301C42.8067 46.9281 42.8185 47.626 42.7857 48.3227C42.7228 49.7028 41.7118 50.7773 40.3259 50.7957C36.6415 50.8416 32.9558 50.8272 29.2701 50.8311C28.3981 50.8311 27.5249 50.8455 26.6543 50.7996C25.2749 50.7275 24.2246 49.691 24.2168 48.3043C24.1879 43.7899 24.1866 39.2768 24.2155 34.7624C24.2246 33.2904 25.3286 32.2475 26.8221 32.2252C28.5843 32.1989 30.3465 32.2186 32.1533 32.2186V26.715H10.6421V32.212C11.438 32.212 12.2155 32.2107 12.9931 32.212C14.0394 32.2147 15.087 32.1963 16.1333 32.2304C17.4183 32.2737 18.4345 33.2419 18.5853 34.5158C18.6128 34.7533 18.6377 34.9933 18.6377 35.2321C18.6403 39.4198 18.6469 43.6062 18.6377 47.794C18.6338 49.388 17.952 50.3982 16.6578 50.7261C16.2841 50.8206 15.8816 50.8259 15.4922 50.8272C11.3698 50.8337 7.24879 50.835 3.12644 50.8298C0.987901 50.8298 0.00189393 49.8432 0.000582747 47.7244C0.000582747 43.559 -0.000728433 39.3936 0.000582747 35.2282C0.000582747 33.2406 1.01806 32.2251 3.01892 32.216C4.61069 32.2081 6.20246 32.2081 7.79424 32.2015C7.83357 32.2015 7.87291 32.174 7.99485 32.1268C7.99485 31.5351 7.99485 30.9106 7.99485 30.2861C7.99485 28.8036 7.99354 27.3198 7.99485 25.8373C7.99616 24.4598 8.40394 24.0452 9.78854 24.0452C16.941 24.0426 24.0948 24.0439 31.2473 24.0439C31.5292 24.0439 31.8111 24.0439 32.1442 24.0439V18.6243C30.5157 18.6243 28.9082 18.6334 27.3007 18.6177C26.8706 18.6138 26.4235 18.5915 26.0131 18.4734C24.9563 18.169 24.222 17.2625 24.2168 16.1617C24.1945 11.6041 24.1892 7.04638 24.2168 2.48869C24.2259 1.14395 25.2841 0.0668482 26.628 0.0432333C29.5087 -0.00793245 32.388 0.0117467 35.2661 0.00387501C36.7713 -6.0809e-05 38.2752 -0.00530857 39.7805 0.00518696C41.7958 0.0183064 42.8014 1.01145 42.8054 3.01216C42.8145 7.17757 42.8145 11.343 42.8054 15.5084C42.8014 17.4789 41.7931 18.4826 39.829 18.4944C38.1769 18.5036 36.5261 18.497 34.8386 18.497V24.0439H35.6896C42.7555 24.0439 49.8215 24.0439 56.8874 24.0439C57.1051 24.0439 57.3241 24.0347 57.5417 24.0491C58.5658 24.1174 58.9932 24.549 58.9998 25.5815C59.0129 27.5441 59.0037 29.5068 59.0037 31.4695C59.0037 31.6859 59.0037 31.9024 59.0037 32.216H59.9281C61.1488 32.216 62.3734 32.2737 63.5915 32.2015C65.258 32.1031 66.404 32.7421 67.0006 34.3177V48.8435V48.8422ZM2.62688 48.1797H15.976V34.9251H2.62688V48.1797ZM40.1529 48.1902V34.912H26.8575V48.1902H40.1529ZM26.8444 2.64612V15.7708C31.3011 15.8587 35.7158 15.944 40.1424 16.0305V2.64612H26.8444ZM51.0291 34.8543V47.9737H64.3559V34.8543H51.0291Z" fill="#D5D0F1"/>
</g>
<defs>
<clipPath id="clip0_728_3647">
<rect width="67" height="50.8377" fill="white"/>
</clipPath>
</defs>
</svg>
