<svg width="48" height="48" viewBox="0 0 48 48" fill="none" xmlns="http://www.w3.org/2000/svg">
<g clip-path="url(#clip0_737_3692)">
<path d="M48.0002 25.7615C47.8446 26.7437 47.7125 27.7306 47.5322 28.7092C45.8522 37.7845 38.3309 45.511 29.3253 47.401C21.7768 48.9857 14.9203 47.4423 8.89969 42.6223C4.24187 38.8928 1.35592 34.0174 0.373902 28.1185C-0.887518 20.53 1.04587 13.7786 6.12692 8.00707C9.76736 3.87207 14.3769 1.35239 19.808 0.366691C20.6132 0.220486 21.4278 0.121444 22.2377 0C23.4532 0 24.6686 0 25.8841 0C26.9981 0.18983 28.1181 0.351363 29.2239 0.580103C30.0255 0.746352 30.8166 0.978629 31.5994 1.22034C32.6745 1.55402 33.1473 2.27207 32.8891 3.10685C32.6179 3.98408 31.8198 4.2871 30.7234 3.92513C28.322 3.13161 25.8558 2.76256 23.3282 2.83802C13.3335 3.13869 4.81009 10.5574 3.16082 20.385C1.31348 31.3881 8.09568 41.8063 18.8791 44.53C30.7718 47.5331 42.7741 39.6958 44.8502 27.5856C45.4585 24.0377 45.1732 20.5724 44.032 17.1649C43.6324 15.9729 44.2961 14.9777 45.4172 15.065C46.0809 15.1169 46.4818 15.5178 46.6869 16.1226C47.2929 17.9066 47.7173 19.7306 47.8858 21.61C47.9012 21.7798 47.9625 21.9461 48.0014 22.1147V25.7615H48.0002Z" fill="#D5D0F1"/>
<path d="M48.0004 5.64659C47.6125 6.07931 47.2424 6.52971 46.8333 6.94003C44.6771 9.10834 42.5126 11.2684 40.3493 13.4296C39.405 14.3729 38.7236 14.3753 37.7888 13.4426C36.637 12.293 35.4781 11.1517 34.3417 9.98675C33.7251 9.35477 33.7286 8.50466 34.2981 7.9387C34.8686 7.37275 35.6986 7.38925 36.3505 7.98586C36.538 8.15801 36.7148 8.34194 36.894 8.52352C37.5919 9.2345 38.2886 9.94784 39.0195 10.6954C39.2282 10.502 39.385 10.3641 39.5335 10.2167C41.4339 8.31954 43.332 6.42006 45.2312 4.52175C46.3287 3.42522 47.082 3.47592 48.0004 4.70569V5.64659Z" fill="#D5D0F1"/>
<path d="M30.8887 28.6667C33.0001 29.3471 34.7967 30.4896 36.1619 32.2323C36.6771 32.8902 37.118 33.6177 37.5129 34.3558C38.0399 35.3426 37.8112 36.1762 36.9954 36.5653C36.2079 36.9403 35.4522 36.5925 34.9712 35.6233C33.7982 33.2639 31.9308 31.7842 29.3526 31.2359C28.7832 31.1145 28.1878 31.0638 27.6043 31.0591C25.2135 31.0402 22.8226 31.0225 20.4318 31.0591C17.0602 31.1098 14.5574 32.6143 13.026 35.6504C12.7006 36.2953 12.2715 36.7481 11.4887 36.6939C10.4548 36.6219 9.909 35.5737 10.3935 34.5409C11.6868 31.7807 13.7864 29.893 16.6393 28.833C16.7949 28.7752 16.9517 28.7198 17.1274 28.6561C11.8153 24.1214 12.1737 16.7062 16.3411 12.5665C20.4731 8.46453 27.0549 8.35252 31.3767 12.2894C35.6208 16.1556 36.4884 23.9139 30.8887 28.6667ZM24.0275 28.2317C28.4165 28.2163 32.0275 24.5754 32.0027 20.1904C31.978 15.8219 28.3741 12.234 24.0063 12.2317C19.616 12.2281 15.9968 15.8514 16.0027 20.2423C16.0086 24.6308 19.6408 28.2482 24.0287 28.2328L24.0275 28.2317Z" fill="#D5D0F1"/>
</g>
<defs>
<clipPath id="clip0_737_3692">
<rect width="48" height="48" fill="white"/>
</clipPath>
</defs>
</svg>
