<svg width="65" height="50" viewBox="0 0 65 50" fill="none" xmlns="http://www.w3.org/2000/svg">
<g clip-path="url(#clip0_728_3667)">
<path d="M42.1046 0C43.5355 0.262333 44.9877 0.444327 46.3958 0.801755C56.176 3.28736 63.2834 11.1869 64.7095 21.2244C65.8699 29.3862 63.5279 36.4954 57.8302 42.3635C53.7265 46.5903 48.6025 48.9169 42.7304 49.5285C38.0302 50.0171 33.5793 49.1727 29.3452 47.0953C28.3689 46.6166 28.0446 45.9329 28.4341 45.1688C28.8139 44.4212 29.5098 44.2539 30.4567 44.7179C32.9372 45.9329 35.5383 46.7068 38.2958 46.9232C38.5061 46.9396 38.718 46.9248 39.0211 46.9248C39.0211 46.1345 39.0146 45.3787 39.0227 44.6228C39.0341 43.7063 39.5068 43.1653 40.2891 43.1505C41.1105 43.1341 41.601 43.685 41.6157 44.6474C41.6255 45.3557 41.6287 46.0624 41.6385 46.7707C41.6385 46.7937 41.6646 46.8166 41.7542 46.956C46.7136 46.6231 51.0944 44.7835 55.0368 41.4109C54.4371 40.8387 53.8634 40.3189 53.3207 39.7664C52.6883 39.1204 52.6443 38.3678 53.1691 37.812C53.7151 37.2332 54.499 37.2693 55.1753 37.9104C55.4508 38.1727 55.7213 38.44 55.9805 38.7187C56.2396 38.9958 56.4841 39.2893 56.7937 39.6418C60.1722 35.733 61.9943 31.3209 62.3398 26.1448C61.7938 26.1448 61.3179 26.1448 60.842 26.1448C59.0868 26.1448 58.518 25.8185 58.5327 24.8183C58.5473 23.8395 59.1031 23.5362 60.8844 23.5362C61.3375 23.5362 61.7906 23.5362 62.3284 23.5362C61.9764 18.3863 60.1592 13.9676 56.7986 10.0326C56.2135 10.6606 55.6969 11.2524 55.1379 11.8033C54.5104 12.4215 53.7314 12.4379 53.1919 11.8919C52.6525 11.3459 52.6785 10.572 53.2995 9.9375C53.8455 9.37841 54.4289 8.85702 55.045 8.27169C51.14 4.86628 46.7348 3.07258 41.6173 2.70367C41.6173 3.56117 41.6255 4.31702 41.6157 5.07123C41.6026 5.97955 41.1186 6.52225 40.3347 6.53209C39.5442 6.54029 39.039 5.99923 39.026 5.10238C39.0146 4.34489 39.0227 3.5874 39.0227 2.75778C37.1289 2.74466 35.3704 3.12832 33.6559 3.68906C32.5542 4.04977 31.4899 4.52852 30.4257 4.99089C29.4804 5.40078 28.7829 5.24174 28.4195 4.47114C28.0772 3.7448 28.3657 3.06274 29.2376 2.62661C31.9218 1.28051 34.756 0.437768 37.7515 0.1574C37.9601 0.137725 38.1606 0.0541062 38.3659 0H42.1046Z" fill="#D5D0F1"/>
<path d="M0 24.3494C0.409072 23.7329 0.959933 23.5181 1.71289 23.5198C10.1046 23.5444 18.4946 23.5345 26.8863 23.5362C27.103 23.5362 27.3263 23.5099 27.5349 23.5542C28.1933 23.6969 28.5731 24.1084 28.604 24.7987C28.6334 25.4627 28.1819 26.0267 27.5349 26.1267C27.297 26.1628 27.0492 26.1448 26.8048 26.1448C18.4685 26.1448 10.1306 26.1366 1.79437 26.1595C1.02675 26.1612 0.423739 25.989 0 25.3315V24.3511L0 24.3494Z" fill="#D5D0F1"/>
<path d="M35.8264 27.6106C35.1354 26.3235 34.9479 25.0692 35.2038 23.7805C35.8248 20.6637 39.068 18.9356 42.1923 20.0669C42.7578 20.2718 43.0919 20.2193 43.5189 19.7783C45.4062 17.8272 47.3342 15.9154 49.2508 13.9939C50.0037 13.2396 50.7925 13.1626 51.3727 13.7709C51.9268 14.3529 51.8421 15.1219 51.1217 15.8482C49.0405 17.9485 46.9528 20.0423 44.8553 22.1508C45.4925 23.3509 45.6881 24.6036 45.429 25.8923C44.808 28.9895 41.6186 30.7405 38.5236 29.6371C37.8326 29.3912 37.4187 29.4748 37.0145 30.0224C36.9037 30.1732 36.7553 30.3011 36.6087 30.4208C36.0301 30.8963 35.2576 30.8668 34.7784 30.3618C34.3221 29.8814 34.2911 29.1174 34.7589 28.5845C35.062 28.2402 35.4369 27.9598 35.8248 27.6106H35.8264ZM40.3571 22.3787C38.7746 22.3639 37.7185 23.3493 37.7169 24.838C37.7169 26.2858 38.7567 27.2876 40.2756 27.3023C41.8516 27.3171 42.9159 26.3251 42.9159 24.8413C42.9159 23.3887 41.881 22.3934 40.3555 22.3803L40.3571 22.3787Z" fill="#D5D0F1"/>
<path d="M19.0186 18.2993C15.7705 18.2993 12.524 18.2928 9.27589 18.3043C8.64354 18.3059 8.08127 18.1124 7.93622 17.4927C7.83844 17.0762 7.93623 16.5122 8.16276 16.1515C8.33226 15.8826 8.84889 15.7104 9.21233 15.7088C15.7884 15.6826 22.3646 15.6875 28.9407 15.6941C29.8175 15.6941 30.3895 16.2351 30.383 17.0024C30.3765 17.7681 29.8028 18.2928 28.9227 18.2961C25.6208 18.3043 22.3189 18.2993 19.017 18.2993H19.0186Z" fill="#D5D0F1"/>
<path d="M19.0641 33.9885C15.8437 33.9885 12.6233 33.9902 9.40284 33.9885C8.36631 33.9885 7.8073 33.5229 7.81056 32.6818C7.81219 31.8407 8.36794 31.3832 9.41099 31.3832C15.9056 31.3816 22.4019 31.38 28.8965 31.3832C29.7277 31.3832 30.2785 31.7899 30.3682 32.485C30.4545 33.1605 30.1433 33.6557 29.5256 33.9066C29.2876 34.0033 28.9959 33.9853 28.727 33.9869C25.5066 33.9918 22.2862 33.9902 19.0657 33.9902L19.0641 33.9885Z" fill="#D5D0F1"/>
<path d="M23.9013 10.4557C21.6571 10.4557 19.4129 10.4589 17.1688 10.4557C16.1501 10.454 15.5911 9.96378 15.614 9.11284C15.6351 8.30288 16.1795 7.85036 17.1671 7.85036C21.6832 7.84708 26.1977 7.84708 30.7137 7.85036C31.6753 7.85036 32.2278 8.33732 32.2294 9.15055C32.2294 9.96378 31.6753 10.4524 30.7154 10.454C28.4435 10.4606 26.1732 10.4557 23.9013 10.4557Z" fill="#D5D0F1"/>
<path d="M23.9888 39.2237C26.2053 39.2237 28.4234 39.2204 30.6399 39.2237C31.6666 39.2254 32.2322 39.6976 32.2273 40.5338C32.2224 41.3683 31.6617 41.829 30.6236 41.829C26.1075 41.8307 21.593 41.8323 17.0769 41.829C16.2392 41.829 15.7128 41.4142 15.6183 40.7223C15.5287 40.073 15.9166 39.432 16.531 39.2713C16.7608 39.2106 17.0134 39.2237 17.2562 39.2237C19.5004 39.2204 21.7446 39.2221 23.9888 39.2221V39.2237Z" fill="#D5D0F1"/>
</g>
<defs>
<clipPath id="clip0_728_3667">
<rect width="65" height="49.6629" fill="white"/>
</clipPath>
</defs>
</svg>
