<svg width="60" height="54" viewBox="0 0 60 54" fill="none" xmlns="http://www.w3.org/2000/svg">
<g clip-path="url(#clip0_728_3656)">
<path d="M60.0003 42.9806V44.4934C59.9639 44.5808 59.9099 44.6659 59.8958 44.7568C59.0858 49.7985 54.9379 53.3298 49.8015 53.331C36.5996 53.3345 23.3976 53.3357 10.1956 53.3217C9.42192 53.3217 8.63297 53.2413 7.87572 53.0816C3.38271 52.1388 -0.0384172 47.949 0.000325799 43.4841C0.00619595 42.7441 0.32201 42.4212 1.05813 42.4072C1.29293 42.4026 1.52657 42.4072 1.76137 42.4072C2.57263 42.4072 3.38271 42.4072 4.21862 42.4072C4.21862 42.0856 4.21862 41.8548 4.21862 41.6241C4.21862 31.2329 4.21392 20.8429 4.22214 10.4518C4.22449 7.99267 4.85494 5.69556 6.24147 3.64787C7.77945 1.37641 9.83988 -0.00232108 12.7127 9.82198e-06C24.2358 0.0151607 35.7578 0.0151607 47.2797 9.82198e-06C49.6325 -0.00348653 51.5156 0.926543 53.0078 2.67239C54.9203 4.90889 55.7656 7.5498 55.7715 10.4459C55.7903 20.8557 55.7797 31.2655 55.7797 41.6765C55.7797 41.9026 55.7797 42.1287 55.7797 42.4049C56.8164 42.4049 57.7885 42.4282 58.7594 42.3956C59.2983 42.3769 59.7068 42.5331 60.0003 42.9806ZM6.09707 42.4049C6.39175 42.4049 6.62303 42.4049 6.85549 42.4049C12.6752 42.4049 18.4948 42.4049 24.3145 42.4049C25.2866 42.4049 25.5461 42.6671 25.5496 43.6531C25.5519 44.4223 25.5496 45.1903 25.5496 45.9828H34.3982C34.3982 45.2125 34.3959 44.4608 34.3982 43.7091C34.4018 42.6532 34.6507 42.4061 35.7038 42.4061C41.5434 42.4061 47.3819 42.4061 53.2215 42.4061C53.4469 42.4061 53.6723 42.4061 53.9036 42.4061C53.9153 42.2045 53.9271 42.0902 53.9271 41.9749C53.9235 31.3518 53.9294 20.7287 53.9059 10.1056C53.9024 8.3155 53.4211 6.6186 52.4971 5.07438C51.3454 3.15139 49.7792 1.83559 47.383 1.83559C35.7824 1.83559 24.183 1.83559 12.5824 1.83443C11.1912 1.83443 9.97019 2.28662 8.96405 3.23064C7.02572 5.05107 6.12055 7.37964 6.10528 9.95179C6.04306 20.6331 6.07124 31.3133 6.06772 41.9947C6.06772 42.1077 6.0818 42.2208 6.09472 42.4049H6.09707ZM1.86469 44.209C1.93395 44.5878 1.9727 44.8745 2.04079 45.1554C2.99293 49.0491 6.28374 51.5502 10.4985 51.5525C23.5032 51.5595 36.5068 51.5584 49.5115 51.5467C50.2101 51.5467 50.9192 51.4826 51.6037 51.3509C54.9849 50.6994 57.8624 47.5411 58.0784 44.2487H36.238C36.238 45.0994 36.2473 45.9281 36.2344 46.7555C36.2227 47.4863 35.8869 47.8382 35.1625 47.8406C31.7062 47.8487 28.2499 47.8487 24.7947 47.8406C24.0832 47.8382 23.7791 47.5166 23.7639 46.7928C23.7498 46.1728 23.7157 45.5481 23.7721 44.9328C23.8273 44.3302 23.6148 44.195 23.0278 44.1962C16.2137 44.2172 9.39844 44.209 2.58437 44.209H1.86469Z" fill="#D5D0F1"/>
<path d="M29.9667 17.3932C24.2468 17.3932 18.5258 17.3932 12.8059 17.3932C12.0533 17.3932 11.7199 17.11 11.7188 16.4923C11.7188 15.9632 11.99 15.6578 12.5065 15.5786C12.7167 15.5459 12.935 15.5588 13.1487 15.5588C24.3748 15.5588 35.5997 15.5588 46.8258 15.5599C47.0782 15.5599 47.3377 15.5553 47.5819 15.6089C48.1055 15.7231 48.3227 16.0949 48.2675 16.6007C48.2147 17.0832 47.9305 17.378 47.4198 17.3885C46.8152 17.4002 46.2094 17.3943 45.6048 17.3955C40.3921 17.3955 35.1794 17.3955 29.9667 17.3955V17.3932Z" fill="#D5D0F1"/>
<path d="M30.015 10.5369C35.6586 10.5369 41.301 10.5369 46.9445 10.5381C47.1582 10.5381 47.3801 10.5241 47.5856 10.573C48.0106 10.6721 48.2583 10.9506 48.2747 11.397C48.2911 11.8597 48.0857 12.1837 47.6231 12.3037C47.4376 12.3515 47.238 12.362 47.0443 12.362C35.6609 12.3643 24.2764 12.3643 12.893 12.362C12.0923 12.362 11.7295 12.0765 11.7189 11.4658C11.7107 10.96 11.9972 10.6127 12.5008 10.5486C12.6934 10.5241 12.8906 10.5357 13.0855 10.5357C18.7291 10.5357 24.3715 10.5357 30.015 10.5357V10.5369Z" fill="#D5D0F1"/>
<path d="M30.8372 27.6806C30.8372 26.7506 30.8325 25.8217 30.8384 24.8917C30.8431 24.1575 31.146 23.7962 31.7447 23.7903C32.347 23.7845 32.6722 24.1446 32.6746 24.8684C32.6828 26.669 32.6816 28.4708 32.6769 30.2714C32.6746 31.2294 33.2275 31.734 34.2912 31.7212C35.3361 31.7096 35.8621 31.1723 35.8539 30.1991C35.8386 28.3601 35.848 26.5198 35.8609 24.6807C35.8644 24.1272 36.1955 23.809 36.7215 23.7892C37.2568 23.7694 37.6759 24.0561 37.6795 24.5898C37.69 26.6981 37.757 28.8146 37.6008 30.9136C37.4705 32.6582 35.8773 33.6769 33.885 33.544C32.1345 33.4274 30.8795 32.1676 30.8419 30.466C30.822 29.5372 30.8384 28.6071 30.8384 27.6771L30.8372 27.6806Z" fill="#D5D0F1"/>
<path d="M13.0074 27.1363C13.0074 26.148 13.0027 25.1597 13.0097 24.1714C13.0144 23.5479 13.3009 23.2274 13.8492 23.2052C14.4456 23.1819 14.7849 23.4803 14.7943 24.1283C14.8166 25.9103 14.8307 27.6934 14.8048 29.4754C14.7954 30.1327 14.9211 30.6653 15.5621 30.9695C16.2043 31.2737 17.1822 31.2072 17.5849 30.7177C17.8162 30.4369 17.943 29.9952 17.9501 29.6222C17.9888 27.8402 17.9606 26.0571 17.9759 24.2751C17.9829 23.5094 18.3187 23.1703 18.9715 23.2076C19.4693 23.2355 19.8027 23.4873 19.805 23.9966C19.8144 26.0886 19.8743 28.1852 19.7722 30.2737C19.6876 32.0219 17.7822 33.2456 15.8485 32.9414C13.9959 32.6501 13.0062 31.4998 13.0062 29.6374C13.0062 28.8041 13.0062 27.9708 13.0062 27.1375L13.0074 27.1363Z" fill="#D5D0F1"/>
<path d="M43.1617 30.2271C42.4268 31.2073 41.7353 32.1396 41.0321 33.0638C40.6305 33.5906 40.1938 33.6804 39.7265 33.3564C39.2593 33.0324 39.1877 32.5149 39.5716 31.9905C40.2948 31.0033 41.0203 30.0174 41.7776 29.0559C42.0171 28.7517 41.9995 28.5559 41.7752 28.2587C41.0614 27.3135 40.3781 26.3462 39.689 25.3824C39.2569 24.7775 39.2933 24.3206 39.7817 23.9663C40.2595 23.6214 40.7515 23.7402 41.1694 24.316C41.8374 25.239 42.4984 26.1667 43.1981 27.1422C43.9131 26.1935 44.5917 25.2973 45.2644 24.3987C45.5122 24.0677 45.7998 23.8288 46.2506 23.9221C46.9456 24.0666 47.2145 24.8078 46.7695 25.4243C46.0874 26.3683 45.3959 27.3077 44.6762 28.2237C44.405 28.5687 44.3792 28.8111 44.6563 29.1736C45.3631 30.0989 46.0276 31.0581 46.6991 32.0091C47.009 32.4485 46.9891 32.8925 46.6017 33.2713C46.2682 33.5965 45.8667 33.6256 45.4852 33.3505C45.3325 33.241 45.2198 33.0697 45.1059 32.9147C44.4684 32.0394 43.8356 31.1607 43.1606 30.2271H43.1617Z" fill="#D5D0F1"/>
<path d="M29.6489 22.0701C29.3824 23.0759 29.144 23.9919 28.8987 24.9057C28.0522 28.0582 27.2034 31.2107 26.3545 34.3621C26.3099 34.5299 26.2735 34.7024 26.209 34.8621C26.0164 35.3341 25.5409 35.5625 25.069 35.4227C24.5923 35.2817 24.3293 34.8504 24.4655 34.3318C25.0725 32.0149 25.6959 29.7026 26.317 27.3892C26.7971 25.5991 27.2761 23.8066 27.7716 22.02C27.9806 21.2671 28.6779 21.0061 29.2415 21.4699C29.434 21.6284 29.5362 21.8953 29.65 22.0689L29.6489 22.0701Z" fill="#D5D0F1"/>
<path d="M21.5694 28.0512C21.5694 26.7914 21.5658 25.5315 21.5705 24.2705C21.5741 23.5596 21.9028 23.1971 22.5145 23.2076C23.0944 23.2181 23.4208 23.5771 23.4232 24.2519C23.429 26.7716 23.4278 29.2924 23.4232 31.8121C23.4232 32.4928 23.0545 32.9286 22.5027 32.9356C21.9486 32.9426 21.5729 32.5067 21.5694 31.8308C21.5635 30.5709 21.5682 29.3111 21.5682 28.0501L21.5694 28.0512Z" fill="#D5D0F1"/>
</g>
<defs>
<clipPath id="clip0_728_3656">
<rect width="60" height="53.3333" fill="white"/>
</clipPath>
</defs>
</svg>
