<svg width="68" height="68" viewBox="0 0 68 68" fill="none" xmlns="http://www.w3.org/2000/svg">
<g clip-path="url(#clip0_737_3698)">
<path d="M68.0005 2.51812C67.8205 3.80109 67.6699 5.08937 67.4566 6.3657C65.9195 15.5736 62.8774 24.1679 56.8331 31.4646C55.3307 33.2775 53.5323 34.8473 51.8686 36.5261C51.7153 36.6815 51.546 36.8209 51.474 36.8847C51.9406 38.1929 52.5152 39.4002 52.7951 40.6725C53.523 43.9915 52.5085 46.8722 50.2076 49.3027C47.4574 52.2059 43.994 53.8555 40.1334 54.7121C39.0176 54.9591 37.8578 55.0109 36.7153 55.1278C36.1034 55.1902 35.6222 54.9392 35.3676 54.3708C35.1063 53.7864 35.2329 53.2591 35.6808 52.7956C37.3165 51.1036 38.0537 49.0596 38.0471 46.7301C38.0471 46.5322 38.0311 46.3316 37.9951 46.1377C37.8791 45.5122 37.6258 45.3887 37.0233 45.5959C35.1849 46.2241 33.3506 46.8642 31.4989 47.4499C30.3111 47.8258 30.0272 47.7886 28.8207 47.4751C28.7794 47.511 28.7087 47.5416 28.6847 47.5934C27.0504 51.0438 24.2029 52.9869 20.6035 53.8993C18.6158 54.4026 16.5842 54.7533 14.5606 55.0946C13.2515 55.3151 12.5529 54.7094 12.6769 53.4916C12.9862 50.4555 13.5967 47.4871 14.8112 44.6609C15.8337 42.2809 17.5747 40.5968 19.8196 39.3762C19.9916 39.2833 20.1649 39.1903 20.3849 39.0708C19.7636 37.6723 20.3195 36.3734 20.7261 35.0824C21.1621 33.6972 21.682 32.3385 22.1859 30.9745C22.4685 30.2082 22.3232 29.912 21.4833 29.8642C19.1238 29.7274 17.0255 30.3981 15.2431 31.9746C15.1111 32.0915 14.9858 32.219 14.8485 32.3292C14.4099 32.6798 13.9193 32.7343 13.4168 32.5059C12.9049 32.2734 12.6596 31.8537 12.6582 31.2906C12.6542 29.1245 13.1221 27.0459 13.862 25.0259C14.8218 22.4068 16.1736 20.0188 18.1746 18.0359C21.5767 14.6638 25.8319 14.0051 30.1085 16.1752C30.3444 16.2948 30.5764 16.4236 30.8404 16.5644C30.9137 16.5033 31.0097 16.4475 31.0763 16.3678C36.8766 9.45094 44.3646 5.17305 52.9005 2.54734C56.8198 1.34141 60.8191 0.508672 64.9077 0.126172C65.0557 0.112891 65.1983 0.0438281 65.3423 0C66.2288 0 67.1166 0 68.0031 0V2.51812H68.0005ZM61.8655 17.2324C61.7722 17.1222 61.6616 16.9695 61.5309 16.838C58.0516 13.3689 54.5668 9.90516 51.0968 6.4268C50.8328 6.1625 50.6235 6.1293 50.2903 6.25812C46.3483 7.77883 42.6089 9.67672 39.2562 12.2626C33.3319 16.8313 29.058 22.6963 25.8079 29.3595C25.6319 29.7194 25.7426 29.9067 25.9879 30.1511C29.9139 34.0491 33.8345 37.9525 37.7445 41.8678C38.0351 42.1587 38.2604 42.1839 38.6057 41.9993C39.7748 41.3711 40.9772 40.8053 42.129 40.1479C51.2528 34.9443 58.0102 27.6861 61.6629 17.7451C61.7162 17.6003 61.7762 17.4582 61.8655 17.2337V17.2324ZM23.5283 27.548C25.34 24.6088 27.1743 21.6338 29.0087 18.6562C28.1702 18.1183 26.7517 17.6813 25.7253 17.6136C23.2924 17.4516 21.4007 18.5154 19.7943 20.2021C17.908 22.181 16.7402 24.561 15.971 27.1548C15.8577 27.536 15.7857 27.9278 15.675 28.3953C18.3039 27.2252 20.8741 26.7723 23.527 27.548H23.5283ZM49.2704 38.849C46.2483 40.6951 43.2715 42.5133 40.32 44.3169C41.2119 46.9306 40.6106 49.5138 39.4988 52.1714C43.4101 51.1448 46.8669 49.6187 49.1811 46.2891C50.7542 44.026 50.7075 40.9567 49.2718 38.849H49.2704ZM15.5284 52.2803C17.852 51.9177 19.9943 51.429 22.0459 50.567C24.0789 49.713 25.4026 48.1844 26.3478 46.2586C26.5318 45.8827 26.4838 45.6357 26.1798 45.3409C24.9561 44.1562 23.7429 42.9582 22.5605 41.7337C22.2112 41.3724 21.9299 41.3073 21.4767 41.5318C19.5024 42.5119 17.9826 43.9038 17.1481 45.9877C16.3496 47.9798 15.859 50.0424 15.5284 52.2803ZM53.7776 5.08406C56.8318 8.12812 59.8606 11.1456 62.8987 14.1724C64.0252 10.5028 64.8197 6.70172 65.2036 2.77312C61.2297 3.19547 57.4317 3.95516 53.7776 5.08406ZM24.3842 32.4966C23.8869 34.0797 23.3937 35.6681 22.8844 37.2512C22.7085 37.7998 22.8524 38.2527 23.2404 38.6405C25.2267 40.626 27.2077 42.6169 29.222 44.5732C29.4779 44.8216 29.9738 45.0673 30.2711 44.9889C31.9908 44.536 33.6839 43.9835 35.3929 43.4629C31.6855 39.7707 28.0782 36.1768 24.3842 32.4952V32.4966Z" fill="#D5D0F1"/>
<path d="M1.10006 56.7415C0.750792 56.4718 0.236216 56.2607 0.0735776 55.8941C-0.0930597 55.5209 0.0669121 54.9923 0.128235 54.5368C0.145565 54.4093 0.310869 54.295 0.420183 54.1861C3.31567 51.2975 6.2085 48.4048 9.11198 45.5254C9.99449 44.6502 11.2183 44.8986 11.5169 45.9956C11.6835 46.6092 11.3796 47.0528 10.969 47.4618C8.33479 50.0809 5.70458 52.704 3.07305 55.3243C2.74377 55.6524 2.43316 56.0043 2.07056 56.2886C1.84127 56.4692 1.53065 56.5462 1.10006 56.7401V56.7415Z" fill="#D5D0F1"/>
<path d="M1.89769 68C0.780555 67.8274 0.177994 66.7064 0.723232 65.8365C0.827213 65.6705 0.972521 65.5271 1.1125 65.3876C3.97732 62.5308 6.84482 59.6767 9.70965 56.8199C10.1362 56.3949 10.5935 56.0788 11.24 56.2886C12.1306 56.5755 12.4785 57.5397 11.9599 58.3114C11.8506 58.4747 11.7066 58.6168 11.5667 58.7576C8.73382 61.5839 5.90365 64.4128 3.05482 67.2231C2.72954 67.5431 2.28696 67.745 1.90036 68.0027L1.89769 68Z" fill="#D5D0F1"/>
<path d="M11.0781 66.466C11.2581 66.1526 11.3794 65.7834 11.626 65.535C14.5722 62.572 17.533 59.6235 20.5018 56.6831C21.1244 56.0655 21.8975 56.0668 22.4521 56.6206C23.0054 57.1731 23.0107 57.9474 22.3935 58.5663C19.4433 61.5254 16.4785 64.4699 13.515 67.4143C13.0671 67.8592 12.5365 68.012 11.9393 67.7344C11.4287 67.498 11.1754 67.0876 11.0795 66.4647L11.0781 66.466Z" fill="#D5D0F1"/>
<path d="M12.2602 35.4928C12.6015 35.777 13.0228 36.0174 13.2827 36.3733C13.5946 36.7997 13.5267 37.3455 13.1627 37.7201C11.8416 39.0801 10.5045 40.4268 9.13144 41.7337C8.63552 42.2065 7.86633 42.1002 7.39174 41.6208C6.92249 41.148 6.83051 40.3683 7.29843 39.8823C8.59953 38.5329 9.9353 37.2167 11.2844 35.9151C11.4857 35.7212 11.8283 35.6721 12.2589 35.4928H12.2602Z" fill="#D5D0F1"/>
<path d="M32.2443 55.9194C32.151 56.0787 32.023 56.4426 31.779 56.695C30.5952 57.9142 29.3888 59.1095 28.1743 60.2982C27.5611 60.8985 26.7692 60.9158 26.2227 60.3819C25.6734 59.8453 25.6734 59.0471 26.2693 58.4428C27.4758 57.2169 28.7009 56.0057 29.9247 54.7958C30.3513 54.3734 30.8525 54.2114 31.4351 54.4651C31.9803 54.7015 32.2363 55.1278 32.2443 55.9194Z" fill="#D5D0F1"/>
<path d="M47.9247 26.7047C44.308 26.7857 41.3152 23.8784 41.1965 20.1716C41.0819 16.5737 44.1027 13.4779 47.7847 13.4181C51.3921 13.3597 54.4382 16.3161 54.5288 19.9657C54.6182 23.5849 51.6427 26.621 47.9247 26.7047ZM51.8146 20.0972C51.8293 17.8819 50.1029 16.1394 47.8807 16.1235C45.6597 16.1089 43.904 17.8354 43.896 20.0428C43.888 22.2661 45.6091 24.0046 47.826 24.0139C50.0576 24.0232 51.8 22.3112 51.8133 20.0972H51.8146Z" fill="#D5D0F1"/>
<path d="M41.6779 27.7751C41.5712 27.9597 41.4366 28.3143 41.198 28.576C40.6501 29.1789 40.0635 29.7474 39.4716 30.3078C38.857 30.8922 38.0545 30.9161 37.5159 30.3955C36.9574 29.8563 36.9774 29.0355 37.5919 28.402C38.1905 27.7844 38.7957 27.1735 39.4249 26.5891C39.8489 26.196 40.3648 26.1216 40.8993 26.3739C41.4099 26.6143 41.6352 27.0393 41.6765 27.7738L41.6779 27.7751Z" fill="#D5D0F1"/>
<path d="M36.0312 33.2111C36.0165 33.9336 35.374 34.5405 34.6461 34.5206C33.9089 34.5007 33.3157 33.8658 33.349 33.1354C33.381 32.4315 33.9942 31.8418 34.6888 31.8471C35.398 31.8524 36.0459 32.5111 36.0312 33.2111Z" fill="#D5D0F1"/>
</g>
<defs>
<clipPath id="clip0_737_3698">
<rect width="68" height="68" fill="white"/>
</clipPath>
</defs>
</svg>
