<svg width="47" height="55" viewBox="0 0 47 55" fill="none" xmlns="http://www.w3.org/2000/svg">
<g clip-path="url(#clip0_728_3677)">
<path d="M22.9633 55.0001C20.0016 54.2596 17.3915 52.7969 14.929 51.0496C8.01499 46.1419 3.30787 39.6745 1.12789 31.4339C0.316059 28.3662 0.00447931 25.2381 0.00124492 22.0745C-0.000911343 18.3805 0.000166787 14.6865 0.00124492 10.9915C0.00124492 9.87044 0.210402 9.5848 1.29824 9.28191C8.69852 7.22096 15.7182 4.25996 22.3379 0.366571C23.1681 -0.121719 23.8301 -0.120641 24.6624 0.364415C31.294 4.23301 38.3104 7.20263 45.7032 9.28191C46.791 9.58803 47.0034 9.87044 47.0002 10.9915C46.9883 15.2233 47.0293 19.4562 46.9452 23.687C46.8234 29.8149 45.1393 35.5105 41.906 40.7243C38.6921 45.9037 34.3645 49.935 29.0795 52.9467C27.4925 53.851 25.8225 54.5678 24.0403 55.0012H22.9643L22.9633 55.0001ZM44.5949 18.2846C44.6218 18.2846 44.6488 18.2846 44.6768 18.2846C44.6768 16.1514 44.6693 14.0171 44.6843 11.884C44.6865 11.538 44.5819 11.386 44.2412 11.2922C43.3626 11.0518 42.4936 10.7737 41.6268 10.4924C35.4642 8.48965 29.569 5.8822 23.9465 2.6625C23.6274 2.48034 23.388 2.46309 23.0657 2.65604C22.2668 3.13355 21.4485 3.57764 20.628 4.01851C14.9528 7.06897 9.01657 9.48563 2.82702 11.275C2.4583 11.3817 2.31276 11.5164 2.31491 11.9228C2.33216 15.3473 2.30952 18.7718 2.33001 22.1963C2.34941 25.4505 2.72352 28.6604 3.6464 31.7928C5.23557 37.1867 8.08399 41.8184 12.1173 45.7226C14.5916 48.1177 17.3311 50.1678 20.4642 51.6187C23.5002 53.0254 23.4452 52.9456 26.2882 51.7556C26.4036 51.7071 26.5125 51.6435 26.6246 51.5874C31.75 49.0231 35.9278 45.3615 39.1676 40.6489C42.4709 35.8447 44.2337 30.4875 44.5755 24.683C44.7005 22.5574 44.5959 20.4177 44.5959 18.2856L44.5949 18.2846Z" fill="#D5D0F1"/>
<path d="M19.8686 29.3254C20.0163 29.1195 20.1198 28.9223 20.2707 28.7714C23.9062 25.1281 27.5492 21.4923 31.1847 17.849C32.3835 16.6482 33.7743 16.2257 35.3969 16.798C37.7278 17.6205 38.5903 20.6214 37.0702 22.568C36.916 22.7653 36.7554 22.9604 36.5785 23.1372C31.9275 27.7937 27.2754 32.4492 22.6178 37.0993C21.2314 38.4833 19.4514 38.7571 17.8676 37.8312C17.5463 37.6436 17.2498 37.3968 16.9857 37.1337C14.7852 34.9478 12.5848 32.7596 10.4026 30.5542C8.64851 28.7822 8.76926 26.2825 10.6538 24.7627C11.9648 23.7052 14.0295 23.6923 15.3114 24.8597C16.7021 26.1251 18.0002 27.4951 19.3392 28.8177C19.4772 28.9546 19.6196 29.0861 19.8675 29.3233L19.8686 29.3254ZM13.016 26.2103C12.1363 26.3235 11.4463 26.9551 11.5401 27.7528C11.5886 28.1731 11.829 28.6453 12.1276 28.9525C14.2321 31.1083 16.3744 33.2274 18.5058 35.3563C19.4244 36.2747 20.1446 36.2682 21.075 35.338C25.6539 30.7612 30.2316 26.1833 34.8093 21.6044C34.9484 21.4654 35.095 21.3295 35.2115 21.1722C35.8379 20.3282 35.4109 19.1737 34.3899 18.9215C33.7258 18.7566 33.259 19.0778 32.8213 19.5165C28.8537 23.4875 24.883 27.4553 20.9122 31.423C20.0497 32.2853 19.5085 32.2843 18.6428 31.4187C17.1323 29.9107 15.6337 28.3909 14.1038 26.9034C13.802 26.6102 13.3815 26.4377 13.016 26.2092V26.2103Z" fill="#D5D0F1"/>
<path d="M4.57476 16.1772C4.57476 15.5143 4.5683 14.8514 4.57692 14.1885C4.58662 13.4307 4.84322 13.0685 5.54293 12.8185C7.54501 12.106 9.54818 11.3946 11.5524 10.6875C12.3233 10.4158 12.9723 10.654 13.2246 11.2879C13.4866 11.9465 13.1631 12.5846 12.3632 12.8799C10.7212 13.4857 9.07272 14.0775 7.41672 14.6444C7.02967 14.777 6.89921 14.957 6.91323 15.3666C6.94557 16.3691 6.9294 17.3726 6.9197 18.3761C6.91431 18.8817 6.6976 19.2794 6.2243 19.495C5.79305 19.6912 5.32299 19.6653 5.03297 19.3139C4.79255 19.0218 4.63406 18.5982 4.59525 18.2177C4.52625 17.544 4.57584 16.8585 4.57584 16.1772H4.57476Z" fill="#D5D0F1"/>
<path d="M36.6964 37.1068C37.4996 37.1165 38.0398 37.8915 37.7358 38.6471C37.6042 38.9737 37.3832 39.2669 37.1827 39.5612C35.3574 42.2344 33.0998 44.4947 30.564 46.4889C29.97 46.9567 29.3059 46.9179 28.8821 46.4177C28.4412 45.8971 28.5048 45.2169 29.0805 44.7039C29.749 44.1078 30.453 43.5527 31.1193 42.9544C32.8087 41.44 34.2696 39.7261 35.5342 37.843C35.8156 37.4237 36.1412 37.0874 36.6954 37.1046L36.6964 37.1068Z" fill="#D5D0F1"/>
<path d="M25.736 47.5679C25.7554 46.891 26.3117 46.3757 26.9974 46.4005C27.6011 46.4221 28.1078 46.9459 28.1057 47.5474C28.1035 48.1812 27.4955 48.7654 26.8497 48.7514C26.206 48.7374 25.7165 48.2189 25.7349 47.5679H25.736Z" fill="#D5D0F1"/>
<path d="M16.6064 10.3705C16.5956 11.0021 16.0027 11.5454 15.359 11.5152C14.7693 11.4872 14.255 10.9299 14.2658 10.3295C14.2766 9.72697 14.8523 9.17401 15.4614 9.18048C16.076 9.18694 16.6183 9.75069 16.6064 10.3705Z" fill="#D5D0F1"/>
</g>
<defs>
<clipPath id="clip0_728_3677">
<rect width="47" height="55" fill="white"/>
</clipPath>
</defs>
</svg>
