<svg width="45" height="54" viewBox="0 0 45 54" fill="none" xmlns="http://www.w3.org/2000/svg">
<g clip-path="url(#clip0_737_3686)">
<path d="M45.0012 22.0443V22.993C44.7541 23.9512 44.4174 24.8586 43.653 25.5474C42.9056 26.2214 42.8117 27.0201 43.1822 27.9381C44.0785 30.1576 43.1347 32.4596 40.9283 33.3776C39.9771 33.7727 39.557 34.4182 39.5548 35.4397C39.5506 37.2515 38.6744 38.5308 37.0455 39.3031C36.9114 39.3665 36.7773 39.4288 36.6221 39.5006C37.8773 41.6631 39.1167 43.7812 40.335 45.911C40.7341 46.6093 41.1194 47.3224 41.4361 48.0608C41.756 48.8087 41.3062 49.4542 40.4965 49.4732C40.0774 49.4827 39.6551 49.4489 39.2381 49.4003C38.023 49.2577 36.81 49.0982 35.5791 48.9429C34.9942 50.3099 34.4358 51.6685 33.8277 53.0048C33.6609 53.3714 33.3453 53.6704 33.0982 54.001H32.1502C31.7216 53.3651 31.2613 52.7481 30.8707 52.0889C29.9839 50.5962 29.1299 49.0834 28.2663 47.578C27.4735 46.1962 26.6849 44.8134 25.8456 43.3449C24.9103 44.3591 23.8366 45.0109 22.4758 45.0172C21.0939 45.0236 20.0171 44.3422 19.0797 43.347C18.9393 43.5837 18.8485 43.7326 18.7619 43.8837C17.3483 46.3483 15.9538 48.8256 14.5106 51.2734C13.9543 52.2168 13.2839 53.0925 12.6653 54H11.8228C11.4755 53.4443 11.0669 52.9172 10.7935 52.3277C10.2794 51.2205 9.8434 50.0775 9.37573 48.9503C8.96295 49.0042 8.59979 49.0559 8.23558 49.0971C7.0342 49.2334 5.83493 49.4046 4.63038 49.487C3.61058 49.5567 3.10807 48.813 3.53352 47.9097C3.85445 47.2283 4.23028 46.5723 4.6061 45.9184C5.83915 43.776 7.08276 41.6409 8.32637 39.4953C8.24508 39.4478 8.18702 39.4066 8.12368 39.3791C6.27832 38.6048 5.40526 37.3265 5.39999 35.3637C5.39682 34.3622 4.91226 33.7484 3.99486 33.367C1.80957 32.4596 0.846779 30.145 1.75256 27.974C2.15584 27.0074 1.99749 26.232 1.26061 25.4935C-0.424276 23.8054 -0.413719 21.2879 1.28489 19.6061C2.02599 18.8719 2.19384 18.1028 1.78846 17.1309C0.865782 14.9198 1.82541 12.62 4.01597 11.6829C5.06322 11.235 5.40421 10.7153 5.39893 9.57644C5.38837 7.21745 7.18622 5.37611 9.53936 5.39407C10.6067 5.40252 11.2696 4.9546 11.6771 3.96473C12.5639 1.80858 14.8791 0.846179 17.0274 1.73146C18.0113 2.13713 18.8105 1.98606 19.5537 1.22438C20.3571 0.397201 21.3631 0.00843789 22.5297 -1.34731e-05C23.7838 -0.00952126 24.7329 0.606372 25.5954 1.41876C26.251 2.03571 26.9467 2.17621 27.8081 1.81809C30.0768 0.875759 32.3476 1.84767 33.3041 4.11897C33.7031 5.06764 34.2289 5.41626 35.2466 5.40675C37.7063 5.38456 39.5306 7.14773 39.5432 9.60602C39.5485 10.6498 40.0088 11.2836 40.9557 11.7167C41.5575 11.9925 42.1561 12.4098 42.5815 12.9116C43.6478 14.1719 43.7998 15.6297 43.1706 17.1552C42.8739 17.8746 42.8074 18.6173 43.3648 19.1793C44.1798 20.0012 44.752 20.9203 45.0022 22.0454L45.0012 22.0443ZM10.0366 7.63896C8.35382 7.64213 7.64122 8.35099 7.64122 9.73807C7.64122 11.5266 6.66682 12.9792 4.99671 13.6775C3.75522 14.1962 3.37622 15.1057 3.88718 16.3418C4.58605 18.032 4.24822 19.7329 2.95183 21.0418C2.01226 21.9915 2.00593 23.0078 2.93283 23.9427C4.26406 25.2854 4.58077 26.9197 3.85128 28.6808C3.37094 29.8407 3.76894 30.8073 4.92598 31.288C6.69743 32.0243 7.61166 33.3839 7.61589 35.2866C7.61905 36.5807 8.38338 37.3423 9.67977 37.3413C11.5388 37.3402 12.9176 38.2657 13.6439 40.0024C14.1475 41.2078 15.1134 41.6008 16.3306 41.1021C18.0746 40.388 19.6244 40.7039 20.9736 42.0064C21.9364 42.9361 22.9826 42.9467 23.938 42.0286C25.2893 40.7313 26.8411 40.4165 28.5841 41.1127C29.8129 41.604 30.7577 41.2184 31.2687 40.0056C31.9876 38.2974 33.4033 37.3529 35.2466 37.3497C36.5546 37.3476 37.3009 36.5976 37.2967 35.2908C37.2904 33.4748 38.2426 32.0317 39.9053 31.3334C41.1912 30.7936 41.5543 29.8935 41.017 28.5814C40.3519 26.9598 40.6897 25.2601 41.9228 24.0177C42.9383 22.9962 42.9457 22.0242 41.947 21.0037C40.6876 19.717 40.3603 18.0479 41.0434 16.3935C41.5733 15.111 41.207 14.212 39.9433 13.687C38.2669 12.9918 37.321 11.5731 37.3157 9.74652C37.3115 8.39219 36.5905 7.67277 35.2371 7.67171C33.4529 7.67066 31.9866 6.68607 31.2972 5.02855C30.7746 3.77141 29.8625 3.40377 28.582 3.9024C26.8633 4.57218 25.3135 4.28589 23.9728 3.0055C22.9688 2.04627 21.9723 2.04205 20.9725 2.996C19.6497 4.25842 18.12 4.56689 16.4151 3.90769C15.0807 3.39215 14.2024 3.75451 13.6281 5.07186C12.8922 6.76002 11.5705 7.57981 10.0387 7.63896H10.0366ZM28.6274 43.6281C29.9058 45.8423 31.1842 48.0555 32.4975 50.33C32.9261 49.3084 33.3115 48.3893 33.6989 47.4703C33.9903 46.7772 34.5202 46.5026 35.2539 46.5903C35.5844 46.6293 35.9148 46.6674 36.2442 46.7075C36.8987 46.7889 37.5532 46.8713 38.3091 46.9663C36.9177 44.5482 35.5759 42.2167 34.1486 39.7362C33.8245 40.2274 33.5036 40.5993 33.3115 41.0293C32.7351 42.3181 31.8008 43.178 30.4294 43.4918C29.8646 43.6207 29.2618 43.5858 28.6274 43.6291V43.6281ZM12.4193 50.3427C13.741 48.0513 15.0184 45.836 16.3042 43.6069C15.883 43.6069 15.5336 43.6344 15.1894 43.6027C13.4644 43.4432 12.2704 42.5632 11.5779 40.9627C11.4027 40.557 11.0838 40.2137 10.7692 39.7531C9.33878 42.2378 8.00121 44.5598 6.61298 46.9695C7.60744 46.8396 8.47205 46.7075 9.33983 46.6198C10.6003 46.4931 10.8875 46.6716 11.3858 47.8411C11.7268 48.6408 12.0509 49.4479 12.4203 50.3437L12.4193 50.3427Z" fill="#D5D0F1"/>
<path d="M38.1938 22.5166C38.2043 31.2056 31.1333 38.2625 22.4048 38.2699C13.7956 38.2784 6.72883 31.176 6.72461 22.5123C6.72039 13.8106 13.7534 6.75687 22.4365 6.75476C31.165 6.75265 38.1822 13.7726 38.1938 22.5166ZM22.4819 35.9796C29.9488 35.9521 35.9557 29.9157 35.943 22.4521C35.9304 15.0498 29.82 8.96796 22.4386 9.01128C14.9632 9.05565 8.95529 15.0973 8.97641 22.5483C8.99858 29.9717 15.0656 36.006 22.4808 35.9796H22.4819Z" fill="#D5D0F1"/>
<path d="M15.7701 30.4735C16.0171 29.041 16.1945 27.5916 16.5365 26.1813C16.773 25.203 16.6241 24.5375 15.8123 23.8804C14.8073 23.0659 13.9332 22.0908 13.0042 21.1834C12.8785 21.0608 12.7582 20.9319 12.6484 20.7957C12.0488 20.0445 12.2947 19.1751 13.2322 18.9818C14.499 18.7208 15.788 18.5634 17.0675 18.3659C17.5004 18.2993 17.9343 18.1947 18.3671 18.1926C18.84 18.1905 19.0248 17.9317 19.2032 17.5577C19.8514 16.1971 20.5218 14.848 21.1921 13.4979C21.3167 13.2475 21.4582 13.0014 21.6271 12.7795C22.0684 12.1985 22.8601 12.1858 23.2824 12.7795C23.5748 13.1905 23.8081 13.649 24.0351 14.1032C24.6305 15.2949 25.2175 16.4907 25.7865 17.6951C25.929 17.9961 26.0948 18.1282 26.4421 18.1736C28.108 18.3923 29.7686 18.6553 31.4313 18.9015C31.9296 18.9754 32.3561 19.1719 32.5229 19.6811C32.6929 20.1998 32.5166 20.6298 32.1238 21.0069C30.9583 22.1246 29.8245 23.2761 28.6411 24.3748C28.2684 24.7203 28.1924 25.0477 28.2801 25.521C28.5799 27.1405 28.8385 28.7674 29.1236 30.3901C29.208 30.8697 29.0792 31.2648 28.696 31.5553C28.3096 31.8469 27.8831 31.8574 27.4587 31.6356C25.9375 30.8401 24.4141 30.0488 22.9023 29.2354C22.593 29.0685 22.3544 29.0579 22.0388 29.2291C20.5777 30.0235 19.1114 30.8116 17.6228 31.5521C17.2945 31.7159 16.8289 31.8014 16.4901 31.7032C15.9527 31.5458 15.7236 31.0672 15.769 30.4746L15.7701 30.4735ZM18.4146 28.5403C19.6297 27.9064 20.7329 27.3381 21.8277 26.7549C22.252 26.5288 22.6564 26.5162 23.0765 26.7454C23.3679 26.9049 23.6677 27.0507 23.9623 27.205C24.7794 27.6317 25.5965 28.0585 26.4495 28.5044C26.4495 28.3353 26.4643 28.2286 26.4474 28.1293C26.2616 27.0592 26.0821 25.988 25.8784 24.921C25.7633 24.3188 25.8847 23.835 26.364 23.4113C26.9805 22.8652 27.5474 22.263 28.1407 21.6894C28.411 21.4295 28.6928 21.1812 29.0644 20.8411C27.8103 20.6594 26.744 20.466 25.6693 20.3625C24.8807 20.2865 24.3339 19.9938 24.0045 19.2364C23.6002 18.3057 23.1209 17.4077 22.669 16.4981C22.6141 16.3861 22.5339 16.2868 22.4336 16.1347C21.9301 17.1637 21.4297 18.1081 21.001 19.0853C20.6379 19.9125 20.0858 20.315 19.1641 20.3763C18.1127 20.447 17.0718 20.6678 16.0984 20.8126C16.9261 21.6904 17.7316 22.5905 18.5898 23.4356C19.0132 23.8529 19.1599 24.2945 19.0554 24.8544C19.0037 25.1301 18.9593 25.4069 18.9118 25.6827C18.7535 26.5943 18.5951 27.506 18.4157 28.5413L18.4146 28.5403Z" fill="#D5D0F1"/>
</g>
<defs>
<clipPath id="clip0_737_3686">
<rect width="45" height="54" fill="white"/>
</clipPath>
</defs>
</svg>
