<svg width="63" height="68" viewBox="0 0 63 68" fill="none" xmlns="http://www.w3.org/2000/svg">
<path d="M30.4307 67.8463C30.1017 67.7374 29.77 67.6365 29.445 67.517C27.4255 66.7787 26.068 65.3965 25.3873 63.3584C25.346 63.2336 25.31 63.1061 25.2674 62.98C25.2541 62.9388 25.2301 62.9003 25.1875 62.8074C24.263 62.8074 23.3145 62.7954 22.3661 62.81C20.6783 62.8366 19.3941 62.1302 18.6255 60.6458C17.8688 59.1852 18.0367 57.7473 18.9971 56.4076C19.0464 56.3385 19.0904 56.2655 19.1503 56.1725C18.2378 55.0386 17.9541 53.7719 18.3484 52.3818C18.443 52.0472 18.5549 51.6568 18.7933 51.4364C19.506 50.7752 19.2902 50.1737 18.9292 49.4195C17.0602 45.5013 15.1486 41.599 13.4329 37.613C8.74778 26.7386 15.138 14.0359 26.6582 11.1772C37.6069 8.46062 48.4596 15.2707 50.7149 26.3323C51.5835 30.5918 50.9827 34.7066 49.123 38.6434C47.3447 42.4103 45.5929 46.1904 43.8092 49.9559C43.6067 50.3822 43.5748 50.6544 43.9158 51.0527C45.0081 52.3247 45.0987 54.1942 44.2155 55.6229C44.101 55.8087 43.9717 55.9853 43.8332 56.1911C44.7337 57.3224 45.0401 58.5878 44.6378 59.9793C44.1569 61.6443 42.621 62.7901 40.8825 62.8061C39.8648 62.8154 38.8471 62.8074 37.788 62.8074C37.7321 62.9534 37.6708 63.0889 37.6268 63.2296C36.8729 65.6183 35.2716 67.1054 32.8379 67.7108C32.738 67.7361 32.6487 67.7998 32.5541 67.8463H30.4267H30.4307ZM36.0256 49.5616C37.5589 49.5616 39.0376 49.543 40.5149 49.5735C40.9465 49.5828 41.129 49.4129 41.2968 49.0517C43.1099 45.1547 44.9455 41.267 46.7599 37.3701C48.397 33.8541 48.8659 30.1895 47.9801 26.404C45.2586 14.7635 32.0599 9.63702 22.2728 16.0063C15.0594 20.7013 12.6176 29.5641 16.2436 37.4006C17.9567 41.1024 19.7351 44.7737 21.4096 48.4927C21.7959 49.3518 22.2422 49.6572 23.1773 49.5855C24.4229 49.4886 25.683 49.5616 26.9259 49.5616V38.3805C26.0361 38.3805 25.1782 38.492 24.3602 38.3592C21.9198 37.9622 20.2973 35.7157 20.617 33.3071C20.9314 30.9477 23.0401 29.2773 25.5205 29.4247C27.8091 29.5601 29.6181 31.5677 29.6301 33.9856C29.6328 34.5725 29.6301 35.158 29.6301 35.7236H33.3601C33.3601 35.0066 33.3467 34.3454 33.3627 33.6828C33.4267 31.034 36.0896 28.9374 38.6965 29.4778C41.0904 29.9744 42.6383 32.0723 42.3772 34.4689C42.1307 36.7221 40.1739 38.4137 37.8 38.4243C37.2126 38.427 36.6251 38.4243 36.027 38.4243V49.5603L36.0256 49.5616ZM31.4898 52.2078C28.4565 52.2078 25.4246 52.2039 22.3914 52.2105C21.4695 52.2131 20.8714 52.7323 20.8554 53.5064C20.8381 54.3057 21.4496 54.8514 22.4007 54.8607C23.3971 54.87 24.3935 54.8581 25.3886 54.8647C26.2625 54.8713 26.8233 55.3785 26.838 56.1566C26.8526 56.9679 26.2852 57.499 25.3793 57.5069C24.3829 57.5149 23.3865 57.5016 22.3914 57.5109C21.4709 57.5202 20.8728 58.0354 20.8554 58.8082C20.8381 59.6075 21.4496 60.1612 22.402 60.1612C28.4672 60.1665 34.5323 60.1665 40.5975 60.1612C41.5166 60.1612 42.1161 59.6354 42.1334 58.8639C42.1521 58.0646 41.5379 57.5202 40.5881 57.5109C39.6144 57.5016 38.6406 57.5109 37.6668 57.5069C36.7343 57.503 36.1668 57.013 36.1522 56.2137C36.1375 55.3799 36.7117 54.8687 37.6761 54.8647C38.7165 54.8594 39.7582 54.8846 40.7973 54.8527C41.5726 54.8288 42.1188 54.2659 42.1347 53.5635C42.1507 52.8345 41.5912 52.2702 40.788 52.2131C40.6121 52.2012 40.4336 52.2092 40.2564 52.2092C37.3351 52.2092 34.4124 52.2092 31.4911 52.2092L31.4898 52.2078ZM29.6781 38.4548V49.5072H33.3214V38.4548H29.6781ZM34.856 62.8658H28.0822C28.7123 64.3556 30.1576 65.2797 31.6576 65.1921C33.1522 65.1044 34.4844 64.1352 34.8547 62.8658H34.856ZM26.9672 35.7701C26.9672 35.0783 27.0032 34.4622 26.9592 33.8515C26.8846 32.8171 26.0587 32.055 25.0902 32.0709C24.1125 32.0869 23.2746 32.9207 23.2572 33.8953C23.2399 34.8593 24.0019 35.6864 25.0383 35.7621C25.6511 35.8073 26.2692 35.7701 26.9672 35.7701ZM36.0296 35.7608C36.7583 35.7608 37.403 35.8113 38.0371 35.7489C39.0416 35.6493 39.7636 34.8061 39.7289 33.8701C39.6943 32.9167 38.895 32.1148 37.9372 32.0723C37.0007 32.0298 36.1429 32.7494 36.0429 33.7453C35.9777 34.3945 36.031 35.0544 36.031 35.7608H36.0296Z" fill="#D5D0F1"/>
<path d="M62.9997 31.8014C62.6227 32.5277 62.0326 32.7826 61.2133 32.7574C59.712 32.7096 58.2067 32.7468 56.7041 32.7428C55.5824 32.7401 55.0243 32.302 55.0176 31.4296C55.0123 30.5599 55.5958 30.0873 56.6828 30.0859C58.1641 30.0846 59.6467 30.1231 61.1254 30.0713C61.9593 30.0421 62.5814 30.2811 62.9984 31.0074V31.8027L62.9997 31.8014Z" fill="#D5D0F1"/>
<path d="M48.9508 15.3875C48.5738 15.0609 48.1288 14.8046 47.8744 14.4235C47.5281 13.903 47.7345 13.3533 48.1515 12.9232C48.8735 12.1783 49.6155 11.4533 50.3495 10.7217C50.849 10.2225 51.3366 9.71129 51.8534 9.23064C52.4449 8.68227 53.2335 8.68227 53.761 9.19612C54.2872 9.70731 54.3192 10.5199 53.761 11.0935C52.5302 12.3575 51.278 13.6016 50.0071 14.8272C49.77 15.0555 49.4077 15.1525 48.9494 15.3888L48.9508 15.3875Z" fill="#D5D0F1"/>
<path d="M10.0586 8.64783C10.5328 8.90807 10.9098 9.02491 11.1629 9.26922C12.3885 10.4456 13.59 11.6472 14.7796 12.8595C15.4177 13.5101 15.423 14.2908 14.8409 14.8485C14.2801 15.3862 13.5194 15.3676 12.8934 14.7555C11.6785 13.5672 10.4835 12.3603 9.2833 11.1573C8.83571 10.7085 8.63323 10.1429 8.97292 9.60249C9.21536 9.21744 9.67628 8.9718 10.0573 8.64916L10.0586 8.64783Z" fill="#D5D0F1"/>
<path d="M3.97409 32.7387C3.11221 32.7387 2.25032 32.7533 1.38977 32.7348C0.562526 32.7175 0.0176889 32.197 0.000371372 31.4482C-0.0169462 30.694 0.573183 30.0965 1.3951 30.0899C3.14018 30.0752 4.88526 30.0726 6.63034 30.0899C7.43494 30.0978 7.97178 30.6608 7.97045 31.4203C7.96912 32.1864 7.44826 32.7135 6.62501 32.7334C5.74181 32.7533 4.85729 32.7374 3.97409 32.7387Z" fill="#D5D0F1"/>
<path d="M32.8226 4.01259C32.8226 4.84908 32.8306 5.6869 32.8213 6.52339C32.8119 7.38113 32.2858 7.94012 31.5051 7.9441C30.7205 7.94809 30.1783 7.39175 30.173 6.54065C30.1637 4.82253 30.1637 3.10573 30.173 1.3876C30.1783 0.541811 30.7325 -0.0105391 31.5211 0.00141082C32.2764 0.0133607 32.8079 0.561728 32.8199 1.37166C32.8333 2.25197 32.8226 3.13361 32.8226 4.01392V4.01259Z" fill="#D5D0F1"/>
<path d="M8.86726 52.4468C8.95385 52.2954 9.0804 51.9303 9.32418 51.678C10.5058 50.4591 11.71 49.2601 12.9276 48.0745C13.5683 47.4504 14.305 47.4371 14.8711 47.9855C15.4426 48.5392 15.4266 49.3358 14.7952 49.9732C13.6003 51.1814 12.3934 52.3764 11.1865 53.5714C10.7589 53.995 10.2513 54.1609 9.67586 53.91C9.14035 53.6763 8.86193 53.2541 8.86726 52.4468Z" fill="#D5D0F1"/>
<path d="M54.1199 52.4959C54.1319 53.2222 53.8748 53.6338 53.3779 53.8821C52.8717 54.1344 52.3548 54.0839 51.9592 53.7015C50.6284 52.4123 49.3123 51.1084 48.0241 49.7767C47.5445 49.2814 47.6098 48.5233 48.0694 48.036C48.561 47.5142 49.3243 47.4013 49.8531 47.9045C51.2119 49.1951 52.5267 50.5335 53.8348 51.8745C54.0173 52.0618 54.0679 52.3778 54.1186 52.4959H54.1199Z" fill="#D5D0F1"/>
<path d="M31.5254 54.862C32.2754 54.8766 32.8442 55.4754 32.8215 56.2296C32.7989 56.9744 32.1888 57.5348 31.4335 57.5042C30.7141 57.475 30.1653 56.8961 30.1719 56.1698C30.1786 55.421 30.7714 54.8474 31.5267 54.862H31.5254Z" fill="#D5D0F1"/>
</svg>
