<svg width="38" height="46" viewBox="0 0 38 46" fill="none" xmlns="http://www.w3.org/2000/svg">
<g clip-path="url(#clip0_944_85)">
<path d="M19.5658 0C19.8935 0.15748 20.2403 0.284589 20.5446 0.47919C21.4264 1.04387 21.8311 1.89201 21.8768 2.92801C21.8891 3.20472 21.879 3.48256 21.879 3.83127C22.1399 3.83127 22.3551 3.83127 22.5702 3.83127C27.257 3.83127 31.9448 3.83127 36.6316 3.83127C37.6851 3.83127 38.0028 4.14511 38.0028 5.1901C38.0028 14.1856 38.0028 23.1811 38.0028 32.1766C38.0028 33.2418 37.7029 33.5444 36.6505 33.5444C32.3896 33.5444 28.1288 33.5444 23.8679 33.5444H23.1957C23.2391 33.7379 23.2637 33.892 23.3083 34.0405C24.3361 37.4274 25.3662 40.8144 26.3952 44.2014C26.4498 44.3802 26.5167 44.5557 26.5546 44.7368C26.6773 45.3386 26.4019 45.829 25.8757 45.9696C25.4019 46.0956 24.8924 45.8032 24.7163 45.252C24.3595 44.1339 24.0296 43.0079 23.6873 41.8853C22.8891 39.2655 22.0842 36.649 21.3027 34.0247C21.1934 33.658 21.0463 33.5219 20.6539 33.5332C19.5803 33.5647 18.5045 33.5658 17.4309 33.5332C17.0039 33.5197 16.8233 33.6558 16.6996 34.0697C15.6271 37.658 14.5312 41.2385 13.4409 44.8211C13.3818 45.0169 13.3261 45.2171 13.2391 45.4005C13.0206 45.8594 12.6505 46.0709 12.1522 45.9651C11.6717 45.8639 11.3774 45.4319 11.4532 44.9089C11.5056 44.5433 11.6327 44.1867 11.7408 43.8313C12.7297 40.5692 13.7219 37.3082 14.7129 34.0461C14.7553 33.9055 14.7899 33.7627 14.8478 33.5433H14.2168C9.91918 33.5433 5.62041 33.5343 1.32275 33.5534C0.68841 33.5568 0.251398 33.3532 0.00390625 32.7638V4.60068C0.273694 3.98875 0.754185 3.82002 1.39298 3.82227C6.07972 3.83915 10.7664 3.83127 15.4521 3.83127C15.6672 3.83127 15.8835 3.83127 16.1433 3.83127C16.1433 3.48144 16.1321 3.20472 16.1455 2.92801C16.199 1.77615 16.6906 0.888639 17.7152 0.338583C17.9526 0.210349 18.2068 0.111361 18.4543 0C18.8244 0 19.1957 0 19.5658 0ZM36.0273 5.8369H1.9883V31.5872H36.0273V5.8369ZM19.9415 3.79753C19.8846 3.14736 20.1522 2.44207 19.4543 2.09786C19.1945 1.96963 18.7397 2 18.4877 2.15186C17.8601 2.52981 18.1377 3.19573 18.0864 3.79753H19.9415Z" fill="white"/>
<path d="M29.2211 12.4995C28.5566 11.6333 28.2846 10.7042 28.6358 9.64908C29.1063 8.23626 30.5221 7.43423 31.987 7.75144C33.3025 8.03603 34.3203 9.40499 34.1988 10.7233C34.0561 12.2655 32.8833 13.4174 31.3827 13.4342C31.0148 13.4376 30.8264 13.5523 30.6414 13.8594C29.4574 15.8212 28.2568 17.7728 27.0494 19.7199C26.8844 19.9865 26.8554 20.1643 27.055 20.4556C27.8008 21.5388 27.715 22.8898 26.89 23.8819C26.0784 24.8583 24.7807 25.1856 23.6235 24.7042C22.4374 24.2104 21.7406 23.0518 21.8911 21.7514C21.9312 21.4061 21.8309 21.2115 21.5622 21.009C19.7952 19.6806 18.0371 18.3409 16.288 16.9888C16.0304 16.7897 15.8543 16.8088 15.5589 16.9213C15.0862 17.1013 14.57 17.2059 14.065 17.2453C13.7785 17.2678 13.6035 17.3015 13.444 17.5647C12.0115 19.9415 10.5678 22.3127 9.11517 24.6783C8.9591 24.9325 8.95575 25.108 9.11294 25.3746C9.80525 26.5501 9.62465 27.9292 8.69042 28.8707C7.79076 29.7784 6.42287 29.9764 5.3125 29.36C4.18764 28.7357 3.62242 27.4545 3.90336 26.1688C4.17092 24.9427 5.29578 23.9247 6.58117 23.9854C7.25453 24.0169 7.46746 23.7154 7.74394 23.2565C9.08619 21.0203 10.444 18.7942 11.8086 16.5726C11.9736 16.3049 11.9981 16.1238 11.8231 15.8302C11.1698 14.7323 11.3259 13.3679 12.1587 12.4556C13.0282 11.5017 14.3716 11.2385 15.5098 11.7976C16.6269 12.3454 17.2467 13.5478 17.1007 14.8077C17.0806 14.9764 17.1809 15.234 17.3136 15.3364C19.0906 16.7121 20.8855 18.0653 22.6704 19.432C22.9134 19.6187 23.0951 19.6603 23.4084 19.5163C23.8153 19.3285 24.2935 19.3015 24.7317 19.1744C24.9357 19.1148 25.123 18.9888 25.3092 18.8774C25.366 18.8437 25.3917 18.7559 25.4307 18.6929C26.6849 16.6435 27.939 14.594 29.22 12.5006L29.2211 12.4995ZM24.7172 21.0956C24.2222 21.0855 23.7997 21.495 23.7796 22.0012C23.7595 22.5355 24.1687 22.9865 24.686 22.9978C25.1731 23.0079 25.6057 22.5917 25.6291 22.0889C25.6547 21.5658 25.2322 21.1058 24.7172 21.0956ZM14.2668 13.4534C13.7317 13.4534 13.3214 13.8786 13.3381 14.4129C13.3526 14.9168 13.7707 15.3251 14.2701 15.3251C14.7618 15.3251 15.1943 14.9044 15.211 14.4106C15.2289 13.8977 14.7885 13.4511 14.2668 13.4522V13.4534ZM31.3526 11.4815C31.8777 11.477 32.2579 11.09 32.259 10.558C32.2601 10.0012 31.8599 9.61196 31.3047 9.62883C30.7852 9.64458 30.4139 10.045 30.4251 10.5782C30.4362 11.1058 30.8275 11.486 31.3526 11.4804V11.4815ZM7.59789 26.8189C7.59121 26.2891 7.20548 25.9056 6.68039 25.9056C6.1319 25.9056 5.74617 26.3139 5.764 26.8741C5.78184 27.3949 6.18764 27.7784 6.70826 27.7638C7.22554 27.7492 7.60458 27.3465 7.59789 26.8189Z" fill="white"/>
</g>
<defs>
<clipPath id="clip0_944_85">
<rect width="38" height="46" fill="white"/>
</clipPath>
</defs>
</svg>
