<svg width="44" height="44" viewBox="0 0 44 44" fill="none" xmlns="http://www.w3.org/2000/svg">
<g clip-path="url(#clip0_944_20)">
<path d="M38.1568 44C37.9011 43.926 37.6436 43.8537 37.3888 43.7762C36.4916 43.5025 35.7503 42.9896 35.0907 42.3294C30.7306 37.9624 26.3619 33.6048 22.0077 29.2326C21.7417 28.965 21.5488 28.9331 21.2053 29.0837C12.4876 32.912 2.34667 27.7118 0.343975 18.3959C-1.32121 10.6551 3.20596 2.94177 10.7544 0.657551C19.324 -1.93565 28.2587 3.39276 30.0435 12.1931C30.6738 15.3018 30.3449 18.3391 29.0594 21.2525C28.9216 21.5641 28.9578 21.7431 29.2006 21.9849C33.5125 26.278 37.8064 30.589 42.1226 34.8778C43.0413 35.7909 43.7387 36.7979 43.9445 38.0993C43.9479 38.1216 43.9815 38.1397 44.0004 38.1595V39.6201C43.9729 39.6829 43.9315 39.7423 43.9186 39.8077C43.6181 41.3689 42.7959 42.5765 41.3985 43.3347C40.8466 43.6342 40.2137 43.7831 39.6179 44.0009H38.1568V44ZM15.155 27.7445C22.0646 27.7661 27.7007 22.1562 27.7455 15.2123C27.7903 8.30546 22.124 2.62332 15.1791 2.61127C8.26265 2.59836 2.62134 8.21337 2.5869 15.1452C2.55246 22.0607 8.20065 27.7239 15.1541 27.7454L15.155 27.7445ZM24.0724 27.6292C24.0587 27.6137 24.1052 27.6679 24.1551 27.7187C28.4369 31.9988 32.7187 36.2798 37.003 40.5582C37.1546 40.7088 37.3164 40.8543 37.4921 40.9747C38.899 41.9387 40.8862 41.2106 41.3158 39.5676C41.5733 38.5812 41.2917 37.7369 40.5771 37.0226C37.5093 33.9568 34.4415 30.8911 31.3755 27.8237C30.1021 26.5499 28.8312 25.2727 27.6301 24.0686C26.4393 25.2598 25.2718 26.4294 24.0716 27.6301L24.0724 27.6292Z" fill="white"/>
<path d="M36.7533 1.50013C37.164 2.27989 37.5489 3.01146 37.963 3.79984C36.1024 4.77756 34.2547 5.74839 32.3785 6.733C31.9713 5.95926 31.5813 5.21822 31.168 4.43243C33.0269 3.45643 34.8677 2.4899 36.7525 1.49927L36.7533 1.50013Z" fill="white"/>
<path d="M5.30098 39.0529C4.48302 38.7267 3.7064 38.4177 2.88672 38.0916C3.66593 36.1352 4.43395 34.2082 5.21746 32.2407C6.01992 32.5583 6.79655 32.8656 7.63259 33.1969C6.85337 35.1549 6.08191 37.0906 5.30012 39.0529H5.30098Z" fill="white"/>
<path d="M40.1163 16.0661C40.0663 16.9672 40.0198 17.79 39.9716 18.6627C38.018 18.5586 36.098 18.457 34.1211 18.352C34.1667 17.4767 34.2115 16.6324 34.2571 15.7537C36.228 15.8587 38.1489 15.9611 40.1163 16.0661Z" fill="white"/>
<path d="M16.8125 34.1764C17.7045 34.0361 18.5182 33.9078 19.38 33.7727C19.6857 35.7049 19.9879 37.6104 20.2961 39.5573C19.4325 39.695 18.606 39.8267 17.7277 39.9661C17.423 38.0373 17.1207 36.1301 16.8125 34.1764Z" fill="white"/>
<path d="M5.69531 14.0977C6.60712 14.0977 7.49223 14.0857 8.37649 14.1046C8.67784 14.1115 8.82593 14.0168 8.9525 13.7363C9.94524 11.5364 10.9569 9.34598 11.9643 7.153C12.0289 7.01357 12.1021 6.87758 12.2235 6.6366C13.2438 10.161 14.2356 13.5899 15.2602 17.129C16.5087 14.9532 17.7141 12.8498 18.9488 10.6981C19.74 11.73 20.5055 12.7086 21.2468 13.7053C21.4302 13.9523 21.6222 14.0409 21.9244 14.0315C22.621 14.0091 23.3192 14.0246 24.0382 14.0246V16.6083H23.5448C22.5564 16.6083 21.5688 16.598 20.5812 16.6152C20.3066 16.6204 20.1266 16.5403 19.9734 16.3165C19.7642 16.0119 19.5265 15.727 19.263 15.3844C17.6685 18.1687 16.0945 20.9168 14.469 23.7536C13.5262 20.4951 12.6083 17.3261 11.6621 14.0581C11.2944 14.8603 10.9535 15.5721 10.6435 16.2967C10.5213 16.5816 10.3749 16.6987 10.0451 16.6927C8.74241 16.6694 7.43885 16.6832 6.13615 16.6832H5.69617V14.0995L5.69531 14.0977Z" fill="white"/>
</g>
<defs>
<clipPath id="clip0_944_20">
<rect width="44" height="44" fill="white"/>
</clipPath>
</defs>
</svg>
