<svg width="42" height="53" viewBox="0 0 42 53" fill="none" xmlns="http://www.w3.org/2000/svg">
<g clip-path="url(#clip0_944_72)">
<path d="M16.5372 0C17.5676 0.188034 18.6074 0.334282 19.6249 0.569905C25.5886 1.95114 28.8563 5.90333 30.1055 11.6001C30.9148 15.2911 30.0985 18.7546 27.9718 21.9048C27.3871 22.7707 26.8072 23.64 26.225 24.5071C25.4251 25.6968 25.0875 27.0246 24.9723 28.4303C24.9264 28.9851 24.8193 29.5364 24.7276 30.0866C24.5982 30.8573 24.0312 31.303 23.4031 31.7301C23.8372 32.6099 23.8348 33.4456 23.1667 34.2059C23.9795 35.1519 23.9677 35.9539 23.1855 36.9266C23.0396 37.1077 22.962 37.4129 22.9902 37.6462C23.1126 38.6711 22.9055 39.5184 21.921 40.0651C21.7751 40.1464 21.694 40.3611 21.6093 40.5271C20.8024 42.0894 19.5143 42.9657 17.7605 43.2048C17.3182 43.2652 16.8842 43.4648 16.4466 43.4625C15.5962 43.459 14.7457 43.3673 13.8976 43.2872C13.7636 43.2745 13.6153 43.1491 13.5212 43.0377C12.5191 41.8561 11.5204 40.671 10.5323 39.4778C10.11 38.9683 10.0477 38.3624 10.0936 37.7263C10.1089 37.5127 10.0736 37.2748 9.98771 37.0786C9.67718 36.3648 9.66189 35.6661 9.97242 34.9488C10.0406 34.7909 10.0901 34.5564 10.0195 34.4218C9.62778 33.6685 9.75599 32.9349 9.99007 32.1758C10.0489 31.9866 10.0065 31.6349 9.87479 31.5409C8.80674 30.7749 8.41739 29.6513 8.36916 28.4662C8.25977 25.814 7.2517 23.5507 5.6755 21.4533C4.22868 19.5277 3.21474 17.4001 2.89008 14.9835C2.05964 8.81089 5.27557 2.63015 12.0438 0.591958C12.9696 0.31339 13.9435 0.193837 14.8951 0C15.4421 0 15.9891 0 16.5372 0ZM13.7718 30.9966C13.5883 29.0802 13.4483 27.3113 13.2413 25.5505C13.1084 24.4235 12.8378 23.3116 12.7026 22.1845C12.6061 21.3767 12.2885 20.9623 11.4416 20.686C9.26313 19.9757 7.70457 18.5585 7.10585 16.2858C6.8059 15.1495 7.16701 14.1908 8.03275 13.7125C8.94201 13.21 9.87832 13.3759 10.7217 14.2546C11.1075 14.6562 11.4969 15.0996 11.7274 15.594C12.312 16.8499 12.8378 18.1337 13.3189 19.4325C13.4648 19.826 13.6389 20.0384 14.0364 20.021C15.1057 19.9711 16.1737 19.8898 17.243 19.8399C17.6135 19.8225 17.7205 19.6333 17.7841 19.3048C17.9793 18.2845 18.1663 17.2585 18.4369 16.2568C18.7568 15.0729 19.2509 13.9598 20.2236 13.131C21.6552 11.9111 23.329 12.4926 23.6878 14.3266C23.9489 15.659 23.5843 16.8499 22.8173 17.9329C21.9257 19.1922 20.6742 19.9977 19.2532 20.5595C18.9427 20.6826 18.7874 20.8265 18.7521 21.1701C18.498 23.6238 18.2134 26.0752 17.9605 28.5289C17.8805 29.3089 17.8676 30.0947 17.8182 30.9954C18.9309 30.8608 19.9766 30.7691 21.0035 30.5822C21.227 30.5416 21.4693 30.1852 21.5564 29.9264C21.6775 29.5701 21.6575 29.1673 21.6999 28.7843C21.7693 28.154 21.7846 27.5133 21.9198 26.897C22.3056 25.1397 23.4125 23.7422 24.3394 22.2483C25.151 20.9402 26.0274 19.6228 26.5414 18.1917C28.207 13.5605 27.7765 9.16259 24.3794 5.36477C21.6152 2.27382 18.0981 0.728921 13.9047 1.44507C5.24969 2.92381 2.0761 11.6802 5.17205 18.1313C5.86958 19.5845 6.85883 20.9019 7.7375 22.2669C8.57501 23.5681 9.1855 24.947 9.40193 26.4849C9.53838 27.4564 9.65601 28.4326 9.85362 29.3925C10.0065 30.133 10.5065 30.6275 11.2851 30.7389C12.0697 30.8515 12.8625 30.9049 13.7706 30.9966H13.7718ZM15.4374 39.4894C16.6995 39.2712 18.1405 39.053 19.5673 38.7651C20.3554 38.6061 20.5118 38.2324 20.1836 37.5058C20.0319 37.1703 20.0237 36.9045 20.2789 36.6086C20.6506 36.1779 20.6789 35.5918 20.2989 35.1879C19.8355 34.6969 19.8578 34.286 20.253 33.7648C20.6236 33.2773 20.4013 32.7295 20.0907 32.3163C19.9543 32.1352 19.5308 32.1248 19.2344 32.1097C18.9074 32.0934 18.5745 32.1898 18.2451 32.1851C16.122 32.1515 13.9988 32.1027 11.8756 32.0632C11.731 32.0609 11.5416 32.0528 11.4498 32.1329C11.0393 32.4892 10.9134 33.5524 11.2593 33.9506C11.6604 34.4114 11.6768 34.799 11.2746 35.2749C10.8723 35.7508 10.9581 36.2441 11.3122 36.7502C11.4604 36.9614 11.5427 37.3236 11.4698 37.5627C11.2075 38.4216 11.3934 38.858 12.2862 39.0251C13.2601 39.2074 14.247 39.3176 15.4386 39.4894H15.4374ZM16.4737 30.9954C16.776 27.6793 17.0736 24.4073 17.3665 21.184C16.2231 21.2397 15.0433 21.2977 13.9529 21.3523C14.3411 24.5512 14.7293 27.7559 15.1221 30.9966H16.4737V30.9954ZM19.0756 19.2688C20.406 18.6664 21.4387 17.9131 22.0751 16.7188C22.4786 15.9631 22.655 15.1634 22.368 14.3242C22.1551 13.7021 21.734 13.5779 21.1999 13.9749C21 14.1234 20.8059 14.2975 20.6589 14.4972C19.6237 15.8912 19.3991 17.5405 19.0768 19.2688H19.0756ZM12.0827 19.6147C11.5204 18.0234 11.0205 16.5725 10.0371 15.348C9.87244 15.1425 9.65365 14.958 9.4231 14.828C8.88202 14.5216 8.33152 14.828 8.31035 15.4373C8.30212 15.6823 8.33505 15.9388 8.40563 16.1732C8.93848 17.9549 10.25 18.9461 12.0838 19.6147H12.0827ZM18.3804 40.4575C16.6619 40.5155 14.9139 40.5758 13.1872 40.6339C14.3164 42.7928 16.7219 43.1271 18.3804 40.4575Z" fill="white"/>
<path d="M11.4795 47.6608C11.4595 51.3194 8.12123 53.7719 4.76885 52.7795C4.13601 52.5927 3.46789 52.4673 2.88799 52.176C0.888322 51.1685 -0.123272 49.5272 0.0119991 47.3022C0.13786 45.2257 1.27414 43.8085 3.17147 42.9449C5.4452 41.9095 7.58014 42.1243 9.50805 43.6947C10.8102 44.7544 11.4183 46.1925 11.4795 47.6608ZM8.96344 47.6202C8.95285 45.5066 7.19903 43.7876 5.08056 43.8177C2.92916 43.8479 1.24944 45.5472 1.26591 47.6794C1.2812 49.8012 2.99738 51.4528 5.16996 51.4378C7.28254 51.4227 8.97285 49.7211 8.96344 47.6214V47.6202Z" fill="white"/>
<path d="M36.8178 31.2647C36.8178 30.9757 36.8249 30.6855 36.8167 30.3965C36.8037 29.9763 37.019 29.7175 37.4236 29.6919C37.8165 29.6676 38.0494 29.9415 38.0682 30.3036C38.1023 30.9571 38.1153 31.6164 38.0788 32.2687C37.5671 41.4406 30.6154 48.8331 21.7674 50.5637C18.9103 51.122 16.0613 51.0315 13.2395 50.2979C12.5913 50.1296 12.3125 49.8324 12.4678 49.4378C12.6725 48.9178 13.0771 48.97 13.5406 49.0838C23.0566 51.4273 32.9797 45.9731 35.9368 36.7711C36.2074 35.9296 36.432 35.066 36.5779 34.1966C36.7402 33.2298 36.7884 32.2443 36.8872 31.267C36.8637 31.2647 36.8414 31.2635 36.8178 31.2612V31.2647Z" fill="white"/>
<path d="M37.7101 28.7006C36.655 28.7006 35.5987 28.7273 34.5448 28.6832C34.2542 28.6716 33.8319 28.5161 33.7284 28.3048C33.6273 28.0959 33.7743 27.6734 33.9484 27.4448C35.0247 26.0241 36.1363 24.6301 37.2408 23.2302C37.7536 22.5803 38.1383 22.5826 38.6076 23.2384C39.6098 24.6405 40.6214 26.0368 41.593 27.4587C41.7553 27.6955 41.88 28.1261 41.7682 28.3304C41.653 28.5405 41.2295 28.6739 40.9343 28.6855C39.8615 28.7262 38.7852 28.7018 37.7101 28.7018V28.7006Z" fill="white"/>
<path d="M37.8939 15.9794C38.8279 14.994 39.6572 14.0979 40.517 13.232C40.6876 13.0602 40.9852 12.8966 41.2099 12.9128C41.7415 12.95 41.8945 13.5698 41.4886 14.0143C40.7558 14.8164 40.0007 15.5987 39.2561 16.3903C39.1384 16.5156 39.029 16.6468 38.855 16.8441C39.7407 17.7077 40.6147 18.555 41.4839 19.407C42.0368 19.949 42.1344 20.3111 41.8251 20.6269C41.4922 20.9669 41.1734 20.8869 40.5982 20.3181C39.743 19.4743 38.8891 18.6293 37.9833 17.7344C37.3905 18.36 36.8224 18.9589 36.2542 19.5579C35.9743 19.8538 35.6896 20.1463 35.4144 20.4458C35.1085 20.7777 34.7639 21.0029 34.3628 20.6315C33.9605 20.2578 34.1758 19.9107 34.4875 19.5845C35.345 18.6862 36.1942 17.7797 37.1058 16.8128C36.2942 16.0224 35.492 15.2412 34.6898 14.4589C34.551 14.3231 34.4134 14.1861 34.2757 14.0492C33.9758 13.7497 33.8723 13.4131 34.191 13.0835C34.5169 12.7457 34.8603 12.8501 35.1626 13.1473C35.8272 13.8008 36.4942 14.4519 37.1482 15.117C37.4046 15.377 37.6281 15.6695 37.8939 15.9794Z" fill="white"/>
</g>
<defs>
<clipPath id="clip0_944_72">
<rect width="42" height="53" fill="white"/>
</clipPath>
</defs>
</svg>
