<svg width="48" height="46" viewBox="0 0 48 46" fill="none" xmlns="http://www.w3.org/2000/svg">
<g clip-path="url(#clip0_944_96)">
<path d="M48.0005 34.6185C47.7694 35.5813 47.4284 36.4851 46.739 37.2333C45.7715 38.2824 44.5973 38.8946 43.163 38.9133C41.1792 38.9387 39.1944 38.933 37.2105 38.9115C36.8123 38.9068 36.6141 39.008 36.4553 39.3934C35.6644 41.305 34.8378 43.2026 34.0178 45.102C33.72 45.7921 33.2504 46.0424 32.668 45.8417C32.2115 45.6842 31.9353 45.207 32.0368 44.7336C32.0725 44.5676 32.1223 44.4017 32.189 44.2451C33.1086 42.1 34.046 39.9634 34.9468 37.8099C35.2136 37.1733 35.6269 36.9051 36.3079 36.9108C38.4486 36.9276 40.5893 36.9239 42.729 36.9145C44.3785 36.908 45.4934 36.1157 45.8804 34.6654C45.9678 34.34 45.9866 33.9885 45.9866 33.6491C45.9932 29.5164 45.9932 25.3847 45.9894 21.252C45.9885 20.0482 45.4653 19.2298 44.4555 19.0432C43.225 18.8154 42.0828 18.9382 41.2195 20.0567C39.8754 21.7967 38.4561 23.4796 37.1035 25.2131C36.677 25.7588 36.1961 25.9894 35.5057 25.9688C34.1634 25.9303 32.8202 25.9594 31.477 25.9575C30.2953 25.9557 29.9938 26.2604 29.9985 27.4595C29.9985 27.5982 29.9985 27.737 29.9985 27.9339C30.1835 27.9339 30.3357 27.9339 30.4879 27.9339C33.0033 27.9339 35.5188 27.9264 38.0343 27.9423C38.3941 27.9451 38.6035 27.8148 38.8046 27.5392C39.5588 26.5069 40.3347 25.4897 41.1021 24.4668C41.3745 24.104 41.7258 23.8799 42.188 23.9746C42.5975 24.059 42.9423 24.3253 42.9516 24.7509C42.9582 25.0781 42.8436 25.4625 42.6529 25.7306C41.8874 26.8126 41.0617 27.8504 40.2849 28.9248C40.1337 29.133 40.0369 29.4264 40.0294 29.6833C40.0003 30.649 40.0191 31.6165 40.0172 32.5831C40.0153 33.5666 39.6415 33.9453 38.6684 33.9482C37.559 33.95 36.4497 33.9463 35.3404 33.9491C34.2057 33.9528 33.5622 34.4244 33.194 35.527C32.1589 38.6227 31.1275 41.7203 30.0924 44.8161C30.0238 45.0214 29.9553 45.2323 29.8491 45.4198C29.6284 45.808 29.1747 45.9852 28.7689 45.8727C28.2823 45.7377 27.9996 45.372 28.0268 44.8751C28.0381 44.6764 28.0832 44.4739 28.1461 44.2845C29.1935 41.1437 30.2418 38.003 31.2994 34.8651C31.9447 32.9487 33.365 31.9296 35.3817 31.9184C36.2243 31.9137 37.0668 31.9184 37.9451 31.9184V29.9711H10.0549V31.9184C10.8693 31.9184 11.6931 31.8865 12.5122 31.9296C13.0823 31.9596 13.6713 32.0196 14.2095 32.1968C15.4654 32.6112 16.2591 33.5291 16.6743 34.7629C17.7545 37.9749 18.8216 41.1916 19.8886 44.4082C20.1263 45.1245 19.898 45.6552 19.2931 45.8577C18.7276 46.0471 18.2364 45.7433 17.9903 45.0514C17.9696 44.9923 17.9424 44.9361 17.9226 44.877C16.8894 41.7803 15.8561 38.6846 14.8229 35.5879C14.4199 34.3794 13.8225 33.951 12.5356 33.95C11.4573 33.9491 10.3799 33.9528 9.30158 33.9491C8.37917 33.9463 7.98842 33.56 7.98372 32.6478C7.97996 31.6962 7.96493 30.7446 7.99123 29.7949C8.00157 29.4095 7.88321 29.1142 7.65402 28.817C6.87251 27.8045 6.09288 26.7901 5.35551 25.7456C5.16483 25.4756 5.03896 25.095 5.04272 24.7669C5.04742 24.345 5.38369 24.0693 5.79511 23.9784C6.25632 23.8771 6.61326 24.0909 6.8866 24.4547C7.67468 25.5009 8.45244 26.5557 9.25555 27.5898C9.38048 27.7501 9.62001 27.9179 9.80787 27.9198C12.4483 27.9414 15.0887 27.9339 17.7291 27.932C17.8043 27.932 17.8804 27.9132 17.9903 27.8982C17.9903 27.5626 18.0213 27.2354 17.9837 26.9166C17.9057 26.2594 17.5309 25.9669 16.7748 25.9613C15.3217 25.9519 13.8685 25.936 12.4154 25.9678C11.7748 25.9819 11.3324 25.7569 10.9397 25.2572C9.56083 23.504 8.13213 21.7892 6.75885 20.0323C5.87683 18.9044 4.71584 18.8079 3.4703 19.0694C2.63243 19.2448 2.12614 19.9198 2.04066 20.772C2.02188 20.9576 2.01155 21.1452 2.01155 21.3317C2.00967 25.4175 2.01812 29.5024 2.00591 33.5881C2.00215 34.9335 2.45866 36.0201 3.72298 36.5939C4.2133 36.8161 4.80507 36.893 5.35269 36.9023C7.43046 36.937 9.50917 36.9361 11.5869 36.9061C12.345 36.8948 12.7996 37.1686 13.0936 37.8802C13.9794 40.0225 14.914 42.1441 15.8261 44.2761C16.1746 45.0917 15.9106 45.7199 15.1657 45.8802C14.6763 45.9852 14.264 45.7396 14.0104 45.1573C13.3961 43.7445 12.794 42.3269 12.1862 40.9122C11.9533 40.3684 11.7015 39.8321 11.4939 39.2799C11.3887 39.0005 11.2403 38.9133 10.9463 38.9152C8.99348 38.9283 7.04065 38.9246 5.08687 38.9208C2.19659 38.9152 0.00704487 36.7448 0.00422692 33.8731C-0.00140897 29.6008 -0.00140897 25.3275 0.00422692 21.0551C0.00704487 19.0976 1.16522 17.53 3.06734 17.0959C5.11129 16.63 6.94202 17.0228 8.32093 18.7657C9.60874 20.3923 10.92 22.0002 12.2088 23.6268C12.4023 23.8715 12.6033 23.9662 12.9151 23.9624C14.1964 23.9456 15.4776 23.954 16.7588 23.9559C18.7351 23.9578 19.9666 25.1672 20.0088 27.1444C20.0145 27.3891 20.0088 27.6348 20.0088 27.9067H27.962C27.9799 27.526 28.0043 27.1576 28.0137 26.7901C28.0494 25.3763 29.216 24.0759 30.7988 23.9587C30.8439 23.9549 30.8889 23.9381 30.9472 23.9231C30.9594 23.8659 30.9838 23.8068 30.9838 23.7478C30.9716 21.6749 30.9923 19.6001 30.9322 17.5281C30.8814 15.7806 29.1841 14.0799 27.4294 14.0405C25.1347 13.9889 22.8381 13.9899 20.5433 14.0405C18.8216 14.0789 17.1402 15.789 17.0613 17.5047C17.0115 18.5782 17.0199 19.6554 17.0096 20.7308C17.0049 21.2127 16.8903 21.6345 16.4169 21.8596C15.8486 22.1296 15.0577 21.7902 15.0474 21.1733C15.0192 19.3779 14.7365 17.5534 15.3968 15.8031C16.2488 13.5474 18.4796 11.9976 20.8984 11.9826C22.9611 11.9695 25.0229 11.9676 27.0857 11.9826C30.3244 12.0051 32.9705 14.6518 32.993 17.8891C33.0062 19.8073 32.9958 21.7255 32.9968 23.6427C32.9968 23.7328 33.0062 23.8218 33.0137 23.9531C33.8187 23.9531 34.5964 23.9699 35.3723 23.9381C35.516 23.9324 35.6757 23.7478 35.7856 23.6118C37.0903 21.9983 38.4138 20.3998 39.6781 18.7554C41.3849 16.5353 44.3353 16.5915 46.0176 17.5291C47.0226 18.0888 47.6247 18.9776 47.9009 20.0885C47.9272 20.1936 47.9648 20.2948 47.9977 20.3979V34.6194L48.0005 34.6185Z" fill="white"/>
<path d="M48.0012 10.6663C47.7682 11.6085 47.4244 12.4851 46.7754 13.2455C44.7943 15.565 41.1066 15.5396 39.1829 13.177C37.9176 11.6226 37.618 9.89192 38.3938 8.06747C39.1735 6.23459 40.6304 5.19673 42.6339 4.99329C45.0273 4.74953 47.4047 6.55148 47.9025 8.96188C47.9241 9.06501 47.9674 9.16252 48.0012 9.26283V10.6663ZM45.9751 10.0391C46.0211 8.4303 44.723 7.05306 43.1186 7.00993C41.4532 6.96493 40.0715 8.23435 40.0254 9.85067C39.9775 11.5579 41.255 12.9098 42.9542 12.9492C44.5914 12.9867 45.9281 11.6995 45.976 10.0391H45.9751Z" fill="white"/>
<path d="M24.7508 0C25.0007 0.0731278 25.2515 0.141568 25.4994 0.218446C27.843 0.944099 29.3469 3.38357 28.9449 5.80616C28.5438 8.21938 26.3213 10.0588 23.8829 9.99226C21.4454 9.92664 19.2774 7.93718 19.0276 5.62053C18.7251 2.82292 20.646 0.597211 22.953 0.100316C23.0553 0.0796906 23.1512 0.0346888 23.2507 0C23.7504 0 24.2511 0 24.7508 0ZM23.9684 7.9625C25.6263 7.97468 27.0014 6.62463 26.9977 4.98769C26.9939 3.36107 25.6507 2.02695 24.0097 2.01945C22.3725 2.01195 21.0302 3.33013 21.0048 4.96988C20.9804 6.57588 22.3415 7.95031 23.9684 7.9625Z" fill="white"/>
<path d="M5.02174 14.9677C2.25076 14.9724 0.00766822 12.7514 0.00391095 9.99784C0.000153687 7.25367 2.24888 4.98483 4.98323 4.97452C7.71006 4.96514 10.0029 7.23585 10.017 9.96034C10.0311 12.6867 7.76078 14.963 5.02174 14.9677ZM5.00859 12.9511C6.65521 12.9455 7.97777 11.6254 7.98058 9.98377C7.9834 8.32433 6.63924 6.99397 4.97195 7.00616C3.33097 7.01835 2.01029 8.35996 2.02532 9.9969C2.04129 11.6479 3.36197 12.9558 5.00859 12.9501V12.9511Z" fill="white"/>
<path d="M24.9874 45.8999H23.0195V31.9521H24.9874V45.8999Z" fill="white"/>
<path d="M24.9907 17.937H23.0078V15.9926H24.9907V17.937Z" fill="white"/>
</g>
<defs>
<clipPath id="clip0_944_96">
<rect width="48" height="45.913" fill="white"/>
</clipPath>
</defs>
</svg>
