<svg width="44" height="50" viewBox="0 0 44 50" fill="none" xmlns="http://www.w3.org/2000/svg">
<g clip-path="url(#clip0_944_64)">
<path d="M26.1551 0C27.0608 0.248469 27.7154 0.854968 28.3564 1.5094C30.3724 3.57052 32.4021 5.61892 34.4453 7.65265C35.2016 8.40589 35.5575 9.2677 35.5507 10.3506C35.5236 14.3046 35.5401 18.2576 35.5391 22.2116C35.5391 22.374 35.5575 22.5422 35.5255 22.6987C35.446 23.0841 35.1784 23.3003 34.805 23.2954C34.4346 23.2906 34.164 23.0802 34.1 22.686C34.0719 22.5109 34.0855 22.329 34.0855 22.1499C34.0855 18.2615 34.0855 14.3731 34.0855 10.4836V9.8429C33.8305 9.8429 33.6268 9.84485 33.4241 9.8429C31.9579 9.82529 30.481 9.91626 29.0294 9.7617C27.0958 9.5553 25.8099 7.97253 25.7886 6.01119C25.774 4.69352 25.7857 3.37585 25.7857 2.05721C25.7857 1.8821 25.7857 1.707 25.7857 1.46832C25.5626 1.46832 25.391 1.46832 25.2194 1.46832C18.1404 1.46832 11.0615 1.46832 3.98252 1.46832C2.3854 1.46832 1.4758 2.39567 1.4758 4.01757C1.4758 16.7903 1.4758 29.5619 1.4758 42.3346C1.4758 43.9614 2.366 44.8643 3.99028 44.8682C6.29627 44.8741 8.60226 44.8682 10.9082 44.8712C11.1012 44.8712 11.2981 44.8702 11.4852 44.9093C11.8227 44.9807 12.0099 45.2077 12.0331 45.5589C12.0574 45.9316 11.8886 46.1918 11.5424 46.3062C11.3795 46.36 11.1943 46.363 11.0198 46.363C8.66529 46.3659 6.31082 46.3679 3.95731 46.3649C1.58926 46.361 0.00473734 44.7851 0.00376762 42.3953C-0.00205069 29.5913 -0.000111255 16.7863 0.0027979 3.98137C0.00376762 1.95449 0.979304 0.668127 2.91874 0.0841273C2.96044 0.0714104 2.99244 0.0283685 3.02929 0C10.7376 0 18.4459 0 26.1551 0ZM27.2819 2.70088C27.2819 3.81508 27.2635 4.94493 27.2868 6.0738C27.3139 7.41397 28.2303 8.311 29.5656 8.32861C30.5644 8.34132 31.5632 8.33252 32.563 8.32861C32.6755 8.32861 32.787 8.29828 32.8239 8.29339C30.9843 6.43672 29.1448 4.58103 27.2819 2.70088Z" fill="white"/>
<path d="M23.3162 48.6226C21.9063 50.0156 19.992 49.6693 19.1203 47.9663C17.5581 48.426 16.216 47.7413 15.7408 46.1243C13.9022 45.8523 13.4077 45.4884 12.9529 44.0749C11.445 43.9917 10.644 43.4791 10.2716 42.3679C9.84976 41.1089 10.5237 40.1845 11.3247 39.1681C11.0493 39.1681 10.8786 39.1172 10.7613 39.1759C9.71109 39.7061 8.71228 39.6005 7.73481 38.9862C7.32462 38.7289 6.89794 38.499 6.48872 38.2407C5.65379 37.7154 5.41136 36.8204 5.9098 35.9654C7.9433 32.48 9.98649 29.0004 12.0365 25.5248C12.5378 24.6747 13.4377 24.4488 14.2911 24.93C14.7827 25.2079 15.2676 25.4974 15.7457 25.7987C16.6785 26.3876 17.1808 27.2338 17.1411 28.3548C17.1294 28.6864 17.2439 28.8517 17.5173 28.9936C18.1544 29.3242 18.7993 29.3986 19.4732 29.1345C19.9077 28.9642 20.3489 28.8097 20.7766 28.6238C22.0207 28.0838 23.2251 28.1601 24.38 28.8635C24.6835 29.0484 24.9551 29.0572 25.2838 28.9603C25.9626 28.7608 26.654 28.6072 27.3377 28.4233C28.1997 28.1905 29.024 28.3069 29.8357 28.6512C30.3089 28.8517 30.7831 29.0728 31.2786 29.1931C31.6839 29.291 32.1213 29.2548 32.58 29.2792C32.5421 28.8332 32.4743 28.4986 32.4937 28.1699C32.5557 27.1242 33.0386 26.3191 33.9385 25.7801C34.4088 25.4984 34.8733 25.2059 35.3504 24.9349C36.2028 24.4507 37.1066 24.6698 37.6089 25.5209C39.6608 28.9955 41.704 32.4751 43.7375 35.9605C44.2331 36.8106 44.0042 37.7487 43.1547 38.2319C42.3489 38.6907 41.5062 39.0889 40.6577 39.4635C40.4289 39.5643 40.1156 39.5183 39.8499 39.4772C39.0014 39.3452 39.0034 39.3344 38.247 39.8744C38.9074 40.9035 39.0131 41.9697 38.2344 42.9744C37.5372 43.8743 36.583 44.0993 35.4561 43.7892C35.2981 44.4975 34.9907 45.1108 34.3846 45.5207C33.7979 45.9169 33.1531 46.0548 32.4607 45.9149C31.9981 47.976 30.3292 48.5542 28.7263 47.8939C28.5527 48.6716 28.1648 49.3064 27.454 49.6879C26.6356 50.1272 25.8142 50.0978 25.0132 49.6341C24.4411 49.3035 23.8777 48.9592 23.3133 48.6236L23.3162 48.6226ZM24.2094 47.4214C24.6845 47.707 25.1626 48.0025 25.6484 48.2852C26.2574 48.6403 26.8218 48.5346 27.1195 48.0201C27.4191 47.5036 27.2388 46.9548 26.6395 46.585C26.2273 46.3307 25.7978 46.1037 25.3973 45.8327C24.8629 45.4718 24.8736 44.7596 25.438 44.5503C25.6775 44.4613 26.047 44.5268 26.2826 44.6589C27.3522 45.2576 28.3888 45.9149 29.4497 46.5302C29.9608 46.8266 30.5212 46.6672 30.7966 46.1966C31.0711 45.7281 30.9295 45.1587 30.4427 44.8379C30.146 44.6432 29.8337 44.473 29.5292 44.2901C28.6565 43.7687 27.7799 43.2532 26.9139 42.721C26.5153 42.4755 26.4067 42.0294 26.623 41.6733C26.8363 41.3231 27.231 41.2253 27.6344 41.4307C27.7634 41.4963 27.8846 41.5784 28.0097 41.6528C29.4788 42.5293 30.9431 43.4136 32.418 44.2803C33.0842 44.6716 33.7727 44.3938 33.9473 43.6934C34.0568 43.2541 33.8707 42.8658 33.38 42.5694C31.8595 41.6538 30.3292 40.7528 28.8165 39.8235C28.6012 39.6915 28.3597 39.4567 28.3142 39.2317C28.2696 39.0126 28.3985 38.6829 28.5644 38.5127C28.832 38.2368 29.1821 38.3268 29.4982 38.5166C31.2417 39.5623 32.9882 40.6051 34.7337 41.6479C35.108 41.8709 35.4755 42.1067 35.8625 42.3062C36.3173 42.541 36.7817 42.4315 37.0804 42.0568C37.351 41.7164 37.3801 41.2194 37.1037 40.8859C36.9534 40.7049 36.7468 40.5591 36.5422 40.4359C33.9541 38.8834 31.362 37.3378 28.7709 35.7913C28.2647 35.489 27.7585 35.1877 27.23 34.8727C26.6695 36.1376 25.7793 36.8918 24.4334 37.0414C23.4006 37.1559 22.6035 36.4623 22.586 35.4059C22.5754 34.7553 22.5919 34.1038 22.5822 33.4533C22.5628 32.2462 22.5046 31.0332 23.4035 30.0452C22.8314 29.7322 22.3019 29.6803 21.756 29.8671C21.4214 29.9816 21.0849 30.096 20.763 30.2408C19.352 30.8786 17.9518 31.0528 16.5466 30.1342C15.0125 32.747 13.4988 35.3266 11.8959 38.0568C12.2236 38.0167 12.4195 38.0314 12.5853 37.9659C13.6559 37.5433 14.7304 37.8015 15.4722 38.678C15.5517 38.7719 15.6341 38.8619 15.7137 38.9509C17.3971 37.6734 18.9312 38.1762 19.898 40.3087C20.7795 40.2305 21.5455 40.4956 22.1177 41.2097C22.685 41.9179 22.7771 42.7328 22.5521 43.5828C24.4169 44.3292 24.8552 45.3495 24.2103 47.4194L24.2094 47.4214ZM36.2571 26.1254C35.7345 26.4375 35.2496 26.7192 34.7715 27.0127C33.9327 27.5272 33.7456 28.2658 34.2324 29.1276C34.5029 29.6069 34.7996 30.0726 35.0498 30.5636C35.2438 30.9442 35.0886 31.2719 34.7531 31.4851C34.4244 31.6945 34.0966 31.6231 33.8406 31.3335C33.7136 31.1897 33.6108 31.0175 33.5283 30.8434C33.4033 30.5803 33.2636 30.5118 32.9611 30.6096C32.1737 30.8649 31.3727 30.8395 30.592 30.5509C30.1237 30.3788 29.6601 30.1948 29.2005 29.9992C28.6933 29.784 28.1871 29.7224 27.648 29.875C26.9052 30.0853 26.1507 30.2526 25.4079 30.4629C24.6254 30.6849 24.1327 31.2611 24.0969 32.0799C24.0513 33.1188 24.0726 34.1606 24.0687 35.2014C24.0687 35.308 24.0998 35.4147 24.1143 35.5144C24.8435 35.5604 25.4739 35.1799 25.7483 34.5166C25.8327 34.3112 25.8695 34.0794 25.8947 33.8563C25.9985 32.9182 26.4562 32.6864 27.2756 33.1687C27.3309 33.2009 27.3871 33.2342 27.4424 33.2675C30.4766 35.0791 33.5128 36.8879 36.5403 38.7093C36.8099 38.8717 37.0135 38.9206 37.2695 38.7034C37.4499 38.5499 37.672 38.4472 37.9047 38.3043C37.4082 37.4572 36.9253 36.6345 36.4433 35.8118C36.1233 35.2669 35.7606 34.7407 35.5075 34.1655C35.4077 33.9375 35.4668 33.5384 35.6123 33.333C35.7296 33.1677 36.1029 33.0923 36.3347 33.1334C36.5287 33.1677 36.7284 33.4015 36.8458 33.5961C37.575 34.8023 38.279 36.0251 38.9985 37.2371C39.3825 37.8847 39.9993 38.2094 40.6257 37.9502C41.2968 37.6734 41.9096 37.2508 42.5739 36.8761C40.4444 33.2489 38.3624 29.7038 36.2591 26.1225L36.2571 26.1254ZM13.396 26.1235C13.0799 26.6635 12.787 27.1643 12.4932 27.6652C10.7778 30.5861 9.0672 33.511 7.33819 36.4242C7.13164 36.7734 7.15201 36.9514 7.52244 37.1334C7.92681 37.332 8.29531 37.602 8.69192 37.8182C9.40951 38.2094 10.1698 38.0412 10.5858 37.3418C12.2343 34.5695 13.8692 31.7894 15.4887 28.9995C15.9027 28.2873 15.6913 27.5341 15.0058 27.09C14.5054 26.7652 13.9837 26.4756 13.396 26.1254V26.1235ZM14.4142 43.5173C14.4404 44.0925 14.6596 44.3967 15.0901 44.5434C15.5546 44.7019 15.9221 44.5298 16.1908 44.1619C16.8686 43.2356 17.5358 42.3004 18.1884 41.3544C18.5423 40.8409 18.4415 40.2637 17.9818 39.938C17.5231 39.6132 16.9685 39.7159 16.5922 40.2334C15.926 41.148 15.2715 42.0734 14.6285 43.0047C14.5064 43.1818 14.4579 43.4107 14.4152 43.5163L14.4142 43.5173ZM18.3513 46.5987C18.4541 46.538 18.7489 46.4559 18.8963 46.2602C19.6333 45.2791 20.3479 44.2793 21.0355 43.263C21.3341 42.8208 21.1896 42.272 20.7785 41.9688C20.3664 41.6655 19.8039 41.6997 19.4829 42.1282C18.7479 43.1103 18.0245 44.1042 17.3515 45.1304C16.9171 45.7926 17.4136 46.6134 18.3523 46.5987H18.3513ZM11.6205 41.508C11.6476 42.0421 11.8484 42.3503 12.2498 42.5068C12.6736 42.6721 13.0586 42.5723 13.334 42.2241C13.7044 41.7565 14.0516 41.2664 14.3725 40.7626C14.6838 40.2735 14.5674 39.7511 14.1262 39.4342C13.6898 39.1211 13.1497 39.1877 12.7996 39.6386C12.4428 40.0974 12.1121 40.5767 11.7911 41.0619C11.6893 41.2155 11.6544 41.4151 11.6214 41.5061L11.6205 41.508ZM21.978 45.0854C21.8898 45.1216 21.6212 45.149 21.4971 45.2977C21.1295 45.7418 20.7785 46.2123 20.4982 46.7161C20.2946 47.081 20.5079 47.5769 20.8638 47.8225C21.2217 48.069 21.7715 48.0592 22.0595 47.7217C22.4028 47.3196 22.7305 46.8863 22.971 46.4167C23.2862 45.8005 22.8033 45.101 21.978 45.0854Z" fill="white"/>
<path d="M17.7747 19.4393C13.9531 19.4393 10.1314 19.4393 6.30974 19.4393C6.14876 19.4393 5.98585 19.4481 5.82682 19.4295C5.40887 19.3816 5.1868 19.1145 5.17614 18.7134C5.16547 18.328 5.39626 18.0776 5.76572 17.9837C5.88791 17.9524 6.0227 17.968 6.15167 17.968C13.892 17.968 21.6313 17.968 29.3716 17.97C29.5461 17.97 29.7352 17.9661 29.8933 18.0277C30.2288 18.1588 30.4014 18.4327 30.3529 18.7976C30.3054 19.1546 30.096 19.3894 29.7226 19.4295C29.5626 19.4461 29.4007 19.4403 29.2397 19.4403C25.418 19.4403 21.5964 19.4403 17.7747 19.4403V19.4393Z" fill="white"/>
<path d="M17.8309 13.4545C21.6206 13.4545 25.4093 13.4545 29.1989 13.4545C29.3599 13.4545 29.5218 13.4496 29.6818 13.4652C30.0949 13.5053 30.3975 13.8164 30.3684 14.2008C30.3374 14.6019 30.1143 14.8611 29.708 14.9247C29.582 14.9443 29.4501 14.9326 29.3211 14.9326C21.6138 14.9326 13.9055 14.9326 6.19817 14.9326C6.0692 14.9326 5.93635 14.9463 5.81222 14.9218C5.41367 14.8426 5.17027 14.5882 5.17997 14.1803C5.18966 13.7802 5.41561 13.5122 5.83453 13.4682C6.01005 13.4496 6.18847 13.4554 6.36593 13.4554C10.1876 13.4554 14.0093 13.4554 17.8309 13.4554V13.4545Z" fill="white"/>
<path d="M11.823 9.8429C9.95341 9.8429 8.0838 9.84387 6.21515 9.84094C6.0406 9.84094 5.85732 9.83311 5.69247 9.78323C5.3424 9.67758 5.1087 9.39487 5.19307 9.05543C5.2561 8.80304 5.50726 8.56631 5.73029 8.39806C5.8612 8.29926 6.10266 8.3335 6.2937 8.3335C9.98445 8.33056 13.6752 8.33056 17.365 8.33154C18.1369 8.33154 18.4966 8.57023 18.5025 9.07988C18.5083 9.59541 18.1475 9.84192 17.3834 9.84192C15.5303 9.84192 13.6771 9.84192 11.823 9.84192V9.8429Z" fill="white"/>
</g>
<defs>
<clipPath id="clip0_944_64">
<rect width="44" height="50" fill="white"/>
</clipPath>
</defs>
</svg>
