<svg width="46" height="46" viewBox="0 0 46 46" fill="none" xmlns="http://www.w3.org/2000/svg">
<g clip-path="url(#clip0_944_90)">
<path d="M45.9996 3.69526C45.9086 4.44852 45.8222 5.20267 45.725 5.95503C45.257 9.57823 44.3002 13.0727 42.7323 16.3674C39.9988 22.1109 36.1177 26.9427 30.9836 30.736C30.2861 31.2508 29.5741 31.7467 28.8568 32.2335C28.6372 32.3829 28.5283 32.5287 28.5499 32.8122C28.6759 34.5275 28.7722 36.2446 28.9009 37.959C28.9711 38.8896 28.8847 39.0642 28.0143 39.4043C24.3033 40.8551 20.5923 42.3058 16.8804 43.7565C16.7967 43.7889 16.713 43.8195 16.6302 43.8528C16.2513 44.0085 15.911 43.9383 15.6635 43.6188C15.4097 43.2921 15.4709 42.9483 15.7103 42.628C16.5609 41.4904 17.4052 40.3466 18.2674 39.218C18.4645 38.9598 18.5879 38.7222 18.4501 38.4036C18.4213 38.337 18.4231 38.2569 18.4168 38.1822C18.3421 37.2463 17.9371 36.5128 17.2143 35.8882C16.425 35.2061 15.7238 34.4231 14.9723 33.6726C14.5051 33.9542 14.0587 34.2242 13.6222 34.487C13.759 34.9964 13.9381 35.4851 14.0173 35.9899C14.3503 38.1264 13.3089 40.28 11.3666 41.2267C8.92468 42.4174 6.43238 43.5036 3.96258 44.6348C2.9725 45.0884 1.98422 45.5438 0.995038 45.9992H0.454995C-0.0985498 45.4214 -0.114751 45.317 0.232677 44.5511C1.65839 41.4112 3.08141 38.2695 4.51342 35.1332C5.4657 33.0462 7.31895 31.8241 9.46202 31.9258C10.1047 31.9564 10.7392 32.1624 11.4359 32.3001C11.6627 31.8943 11.9237 31.4272 12.2333 30.8728C11.858 30.5164 11.4665 30.152 11.084 29.7785C10.6771 29.3816 10.2208 29.018 9.88865 28.5644C9.2244 27.6564 8.20642 27.7104 7.28204 27.5052C7.15873 27.4782 6.98052 27.6051 6.85541 27.6987C5.73842 28.5276 4.63493 29.3744 3.50984 30.1916C3.29472 30.3472 2.9995 30.4795 2.74478 30.4741C2.21194 30.4615 1.94371 29.9342 2.15793 29.3753C2.69167 27.9822 3.23982 26.5936 3.78436 25.204C4.73664 22.7724 5.68892 20.3407 6.64209 17.91C6.94722 17.1306 7.12633 17.0397 8.0039 17.1045C9.70414 17.2287 11.4071 17.3241 13.1064 17.4573C13.4601 17.4852 13.6438 17.3592 13.8274 17.0793C15.6689 14.2787 17.8165 11.7372 20.3025 9.48463C22.7093 7.30315 25.3798 5.50956 28.2501 3.99224C31.3383 2.35973 34.6037 1.2627 38.024 0.612933C40.3471 0.170158 42.6936 -0.0575288 45.0653 0.0126672C45.5279 0.0261664 45.8069 0.255653 45.9996 0.640832V3.69526ZM16.4376 32.9445C17.2755 33.7806 18.0847 34.5968 18.9119 35.3951C18.983 35.4644 19.1891 35.4545 19.3034 35.4086C20.1576 35.0594 21.0135 34.7111 21.8515 34.3259C26.9981 31.9582 31.6092 28.838 35.439 24.6227C37.6046 22.2387 39.4065 19.6082 40.8565 16.7346C40.9682 16.5132 41.0447 16.3413 40.8079 16.1074C37.168 12.4869 33.5399 8.85557 29.9144 5.22067C29.7469 5.05238 29.6182 5.04158 29.413 5.14328C26.6246 6.5274 24.0549 8.2373 21.721 10.2964C16.6023 14.8141 13.0893 20.4226 10.5925 26.7178C10.5502 26.8239 10.5313 27.012 10.5907 27.0732C11.3783 27.8796 12.182 28.6697 12.9975 29.4797C13.0929 29.3105 13.1667 29.1818 13.2396 29.0513C14.2459 27.2379 15.2585 25.4281 16.254 23.6093C16.4871 23.1837 16.7832 22.9884 17.289 22.9974C18.8606 23.0253 20.4321 23.0073 22.0036 23.0073C22.7741 23.0073 23 23.2386 23.0009 24.0251C23.0009 25.357 22.9739 26.6899 23.0135 28.0209C23.0306 28.604 22.8236 28.9487 22.3322 29.2502C20.3709 30.4516 18.4312 31.6909 16.4385 32.9445H16.4376ZM44.3974 1.57948C39.8134 1.60018 35.466 2.57932 31.3293 4.27933C34.8216 7.77113 38.2868 11.2368 41.7404 14.6899C43.2003 11.9613 44.6674 4.82199 44.3974 1.57948ZM2.41355 43.5612C2.49726 43.5612 2.54406 43.5747 2.57827 43.5594C5.26948 42.3355 7.967 41.1259 10.6438 39.8723C11.5205 39.4619 12.0893 38.715 12.3711 37.788C12.6141 36.988 12.6159 36.1852 12.2351 35.3816C11.8175 35.621 11.4404 35.8306 11.0695 36.052C10.705 36.2698 10.3549 36.2734 10.0462 35.971C9.73564 35.6669 9.74194 35.315 9.94986 34.9496C10.1695 34.5635 10.381 34.1738 10.6222 33.7365C10.3063 33.6537 10.0408 33.5439 9.76714 33.5178C7.9904 33.3486 6.6799 34.1189 5.92923 35.7631C4.80144 38.2353 3.67815 40.7093 2.55486 43.1832C2.50266 43.2984 2.46576 43.4208 2.41355 43.5621V43.5612ZM21.46 24.5417C20.2926 24.5417 19.1873 24.566 18.0838 24.5291C17.659 24.5147 17.4547 24.6749 17.262 25.025C16.046 27.2325 14.8093 29.4293 13.5807 31.6297C13.308 32.1175 13.0398 32.6079 12.7599 33.1164C12.8364 33.1164 12.8697 33.1272 12.8886 33.1146C15.6752 31.4281 18.4618 29.7425 21.2431 28.0479C21.3403 27.9885 21.4492 27.8508 21.4501 27.7491C21.4654 26.7043 21.4591 25.6585 21.4591 24.5417H21.46ZM12.5826 18.9818C11.1722 18.8837 9.80495 18.7982 8.44044 18.6866C8.09661 18.6587 7.9454 18.782 7.82479 19.0943C6.82031 21.6951 5.79872 24.2906 4.78344 26.8878C4.73214 27.0192 4.69704 27.1569 4.65383 27.2919C4.91755 27.2082 5.10477 27.0687 5.29288 26.931C7.16683 25.5595 6.38737 25.7764 8.60605 26.1877C9.00298 26.2615 9.11459 26.1427 9.2568 25.8304C10.021 24.152 10.795 22.4781 11.5889 20.8132C11.8814 20.1994 12.236 19.6154 12.5826 18.9827V18.9818ZM27.0287 33.4071C24.7209 34.748 22.3844 35.8891 19.9659 36.8638C19.8732 36.9016 19.7885 37.1194 19.8039 37.2391C19.8597 37.6665 19.9335 38.0967 20.0523 38.5107C20.1936 39.0039 20.0919 39.4052 19.7705 39.7976C19.3808 40.2746 19.0307 40.7831 18.5825 41.386C18.8048 41.3239 18.8885 41.3077 18.9668 41.2771C21.6472 40.2287 24.3258 39.1758 27.0107 38.1372C27.2736 38.0355 27.3393 37.896 27.3204 37.6395C27.2186 36.2536 27.1277 34.8668 27.0278 33.4062L27.0287 33.4071Z" fill="white"/>
<path d="M29.2053 10.2145C32.8767 10.246 35.8497 13.2455 35.7948 16.8624C35.739 20.5495 32.7777 23.4752 29.1351 23.4446C25.488 23.414 22.5286 20.4073 22.5628 16.7688C22.597 13.1402 25.5942 10.183 29.2062 10.2145H29.2053ZM29.1234 21.8859C31.7849 21.9534 34.1656 19.7404 34.2358 17.1324C34.3141 14.2238 32.2008 11.8488 29.4682 11.7741C26.4898 11.6931 24.2144 13.8089 24.1226 16.7427C24.0362 19.5083 26.2774 21.813 29.1234 21.8859Z" fill="white"/>
<path d="M29.356 20.5018C27.5189 20.5117 26.0941 19.4281 25.6243 17.7812C25.1958 16.281 25.8718 14.536 27.1976 13.7162C28.6431 12.8225 30.4478 12.9854 31.6818 14.122C32.0472 14.4586 32.1102 14.9005 31.8402 15.2326C31.5432 15.5997 31.1192 15.6411 30.6944 15.2884C30.0616 14.7628 29.365 14.5567 28.5675 14.7817C27.744 15.0139 27.1238 15.7509 27.0527 16.5996C26.9771 17.5013 27.3389 18.2069 28.113 18.6749C28.8582 19.1257 29.7817 19.0573 30.4739 18.5327C30.581 18.4517 30.6809 18.359 30.7934 18.2861C31.1606 18.0449 31.5801 18.0989 31.8393 18.4139C32.1021 18.7334 32.0589 19.186 31.7205 19.4965C31.0094 20.1481 30.1768 20.5045 29.3569 20.5009L29.356 20.5018Z" fill="white"/>
</g>
<defs>
<clipPath id="clip0_944_90">
<rect width="46" height="46" fill="white"/>
</clipPath>
</defs>
</svg>
