<svg width="49" height="51" viewBox="0 0 49 51" fill="none" xmlns="http://www.w3.org/2000/svg">
<g clip-path="url(#clip0_944_38)">
<path d="M18.0771 51C17.3492 50.4601 17.2839 50.1926 17.5915 49.3144C18.2344 47.4742 18.8693 45.632 19.4905 43.7848C19.709 43.1351 19.5577 42.6272 19.0157 42.1212C16.3543 39.6433 14.6898 36.5707 13.8867 33.018C13.7739 32.52 13.7077 32.012 13.6157 31.4851C13.5039 31.4771 13.409 31.4702 13.314 31.4642C12.0698 31.3833 11.2846 30.561 11.2766 29.2966C11.2658 27.5043 11.2579 25.711 11.2806 23.9187C11.2905 23.1523 11.0314 22.5815 10.3826 22.1623C8.9564 21.2412 7.83485 20.0447 7.09902 18.4799C4.849 13.6958 7.50947 7.92264 12.596 6.59238C17.1554 5.39983 21.7751 8.15117 22.9352 12.7507C22.9748 12.9084 23.0213 13.0651 23.0707 13.2447C23.859 12.9233 24.6175 12.5741 25.4018 12.3016C30.2816 10.6101 34.9746 11.123 39.4825 13.582C41.873 14.8853 43.9361 16.5878 45.4938 18.8561C46.9041 20.9089 47.6459 23.1692 47.3818 25.6921C47.3205 26.2788 47.18 26.8706 46.9812 27.4265C46.8111 27.9035 46.8369 28.3246 47.0297 28.7617C47.5302 29.8964 48.0346 31.0291 48.537 32.1617C49.3321 33.954 49.1581 34.5977 47.5727 35.7344C46.2553 36.6784 46.2662 36.6784 46.2949 38.2951C46.3196 39.6703 46.4086 41.0534 46.3018 42.4186C46.1208 44.7179 44.2674 46.4693 41.9719 46.5012C39.8039 46.5322 37.633 46.4264 35.4641 46.3525C35.0972 46.3396 34.9113 46.4433 34.8232 46.7876C34.6086 47.6199 34.3762 48.4472 34.1695 49.2805C33.9806 50.0409 33.5978 50.6407 32.8877 50.999H18.0771V51ZM19.8663 48.9801H32.1341C32.4565 47.8973 32.7077 46.8295 33.0944 45.8136C33.4752 44.8137 34.2387 44.2618 35.3622 44.3347C35.8548 44.3666 36.3493 44.3636 36.8428 44.3796C38.4381 44.4295 40.0324 44.4953 41.6277 44.5273C43.2121 44.5592 44.4197 43.3297 44.3623 41.9436C44.3416 41.4476 44.3772 40.9496 44.3742 40.4517C44.3673 39.1753 44.3594 37.8989 44.3406 36.6226C44.3307 35.9469 44.6491 35.447 45.1466 35.0508C45.6372 34.6606 46.1426 34.2884 46.6549 33.9291C46.912 33.7495 46.9803 33.5858 46.8418 33.2734C46.2494 31.9452 45.6837 30.6049 45.112 29.2677C44.7856 28.5053 44.755 27.7408 45.0448 26.9485C45.7608 24.9945 45.5086 23.0994 44.6076 21.2732C43.6067 19.2453 42.0609 17.7025 40.2421 16.4231C37.812 14.7147 35.1377 13.6019 32.1736 13.3624C29.3816 13.1369 26.7222 13.7367 24.1962 14.9661C23.5444 15.2835 23.1498 15.6407 23.0163 16.4631C22.6326 18.8172 21.3706 20.6724 19.3757 21.9597C18.5153 22.5156 18.1691 23.2142 18.1938 24.2311C18.2374 26.0224 18.2166 27.8167 18.1741 29.609C18.1533 30.4892 17.5441 31.1698 16.6935 31.3734C16.3632 31.4522 16.016 31.4632 15.658 31.5071C15.8538 32.987 16.2692 34.3921 16.8745 35.7414C17.7903 37.7802 19.084 39.5395 20.7396 41.0275C21.2282 41.4666 21.5199 41.9775 21.5664 42.6571C21.6346 43.6581 21.3983 44.6021 21.0976 45.5292C20.7247 46.6749 20.2896 47.7995 19.8663 48.9771V48.9801ZM14.7422 22.5336C14.94 22.5336 15.1388 22.5156 15.3346 22.5366C15.9903 22.6064 16.4057 22.4617 16.7964 21.7791C17.1831 21.1025 17.9268 20.6085 18.5707 20.1095C20.3242 18.7493 21.2301 16.958 21.2094 14.7506C21.1757 11.2039 18.358 8.40265 14.851 8.33778C10.071 8.24897 6.85276 13.2826 8.89904 17.6336C9.50729 18.926 10.4844 19.8511 11.6465 20.6175C12.2508 21.0167 12.7048 21.5476 12.9926 22.2292C13.05 22.3659 13.2596 22.5076 13.41 22.5206C13.8511 22.5595 14.2971 22.5346 14.7422 22.5346V22.5336ZM13.2715 28.0153C13.2715 28.4374 13.2537 28.8017 13.2834 29.1619C13.2913 29.2627 13.4386 29.4324 13.5247 29.4344C14.4069 29.4543 15.2891 29.4463 16.1733 29.4463V28.0143H13.2725L13.2715 28.0153ZM13.2982 24.5993V25.9635H16.1802V24.5993H13.2982Z" fill="white"/>
<path d="M2.38057 15.8592C1.87321 15.8592 1.36188 15.9022 0.86045 15.8473C0.305609 15.7874 -0.000986635 15.3962 2.38534e-06 14.8813C0.000991405 14.3853 0.289785 13.9621 0.817922 13.9352C1.86134 13.8803 2.91069 13.8813 3.9541 13.9362C4.48125 13.9641 4.76708 14.3873 4.76609 14.8862C4.7651 15.3842 4.47037 15.7704 3.94916 15.8393C3.4319 15.9081 2.90475 15.8992 2.38255 15.9251C2.38255 15.9031 2.38255 15.8812 2.38156 15.8592H2.38057Z" fill="white"/>
<path d="M2.96526 6.96163C3.0612 6.99855 3.28471 7.05743 3.48054 7.1672C4.19659 7.56937 4.90671 7.98153 5.61089 8.40366C6.22408 8.7719 6.40408 9.32775 6.10738 9.86565C5.82353 10.3816 5.23209 10.4944 4.60506 10.1371C3.84944 9.70498 3.09284 9.27386 2.35207 8.81681C1.90108 8.53838 1.73393 8.06735 1.89712 7.62226C2.05437 7.19315 2.36493 6.95664 2.96427 6.96163H2.96526Z" fill="white"/>
<path d="M27.652 8.14819C27.5353 8.29489 27.3642 8.65315 27.0813 8.83976C26.3287 9.33874 25.5355 9.77683 24.7452 10.2129C24.23 10.4974 23.69 10.3497 23.4061 9.8926C23.1193 9.43154 23.2044 8.85373 23.6969 8.54038C24.5277 8.01147 25.3772 7.50551 26.2535 7.06142C26.93 6.71913 27.6391 7.19615 27.653 8.14819H27.652Z" fill="white"/>
<path d="M19.2539 5.18227C19.2905 5.08347 19.3459 4.85694 19.4547 4.66134C19.8523 3.93883 20.2617 3.2223 20.6791 2.51177C21.0421 1.89504 21.6078 1.70044 22.1221 1.99583C22.6443 2.29621 22.7629 2.87003 22.4079 3.50772C21.9747 4.28611 21.5336 5.06052 21.0727 5.82195C20.8156 6.24708 20.3547 6.41174 19.9215 6.25306C19.4982 6.09838 19.2598 5.78503 19.2549 5.18227H19.2539Z" fill="white"/>
<path d="M6.3385 20.4997C6.12784 20.7682 5.96762 21.1135 5.69762 21.2901C4.93014 21.7951 4.12507 22.2441 3.321 22.6882C2.81759 22.9656 2.25484 22.804 1.98484 22.3539C1.71187 21.8978 1.81374 21.3041 2.2944 21.0017C3.11331 20.4858 3.94606 19.9848 4.80651 19.5427C5.50476 19.1834 6.22674 19.6575 6.33949 20.4997H6.3385Z" fill="white"/>
<path d="M8.09487 1.88107C8.23333 1.99584 8.58147 2.17447 8.76839 2.46088C9.24411 3.19138 9.6595 3.96379 10.0759 4.7322C10.3973 5.32598 10.247 5.8978 9.7317 6.18521C9.2451 6.45665 8.68532 6.28002 8.35399 5.72017C7.90102 4.95375 7.44607 4.18733 7.03266 3.39895C6.63804 2.6475 7.08904 1.86211 8.09586 1.88107H8.09487Z" fill="white"/>
<path d="M13.7436 2.38704C13.7436 1.95693 13.7298 1.52581 13.7466 1.0967C13.7733 0.428074 14.1966 -0.0140156 14.7712 -4.43791e-05C15.337 0.0139269 15.7167 0.423084 15.7316 1.0957C15.7504 1.9719 15.7504 2.85009 15.7316 3.72628C15.7167 4.38792 15.3271 4.81105 14.7712 4.82702C14.2055 4.84199 13.7733 4.39092 13.7476 3.72728C13.7298 3.2812 13.7446 2.83412 13.7436 2.38704Z" fill="white"/>
<path d="M7.89197 27.9933C7.14229 27.8906 6.6557 27.174 6.97416 26.5214C7.36482 25.721 7.82769 24.9526 8.31132 24.2041C8.58725 23.776 9.1233 23.7062 9.54265 23.9427C9.9699 24.1842 10.1934 24.7221 9.96001 25.1821C9.55748 25.9775 9.11638 26.7569 8.63275 27.5044C8.48538 27.7329 8.14516 27.8347 7.89296 27.9943L7.89197 27.9933Z" fill="white"/>
<path d="M30.8261 15.2445C33.8594 15.3174 36.4052 16.1826 38.7363 17.7244C39.3277 18.1156 39.4919 18.6944 39.1744 19.2084C38.8668 19.7083 38.2724 19.7992 37.6592 19.404C36.0491 18.3671 34.3292 17.6326 32.4224 17.3801C30.9567 17.1865 29.5107 17.2704 28.0816 17.6586C27.8313 17.7264 27.5643 17.7943 27.3101 17.7783C26.869 17.7504 26.5199 17.3672 26.4705 16.938C26.4111 16.4271 26.6287 15.999 27.1371 15.8593C27.9095 15.6467 28.6987 15.484 29.4889 15.3503C30.0052 15.2635 30.5353 15.2645 30.8261 15.2435V15.2445Z" fill="white"/>
<path d="M41.2235 20.1725C41.2373 20.7144 40.7735 21.2004 40.2404 21.2034C39.7301 21.2063 39.2276 20.7034 39.2227 20.1855C39.2178 19.6635 39.6608 19.2105 40.189 19.1965C40.7369 19.1825 41.2096 19.6276 41.2235 20.1715V20.1725Z" fill="white"/>
<path d="M19.7676 14.9542C19.6351 15.3833 19.4363 16.1806 19.1396 16.9401C18.918 17.5079 18.3286 17.6885 17.8291 17.449C17.3237 17.2065 17.1902 16.6976 17.3593 16.0988C17.5255 15.507 17.6452 14.8903 17.6877 14.2786C17.7312 13.6469 17.3396 13.1998 16.845 12.8515C16.7244 12.7667 16.5948 12.6918 16.4791 12.599C16.043 12.2517 15.9351 11.7158 16.2071 11.2787C16.492 10.8207 17.0419 10.671 17.5433 10.9444C18.9655 11.7198 19.6895 12.9343 19.7686 14.9542H19.7676Z" fill="white"/>
</g>
<defs>
<clipPath id="clip0_944_38">
<rect width="49" height="51" fill="white"/>
</clipPath>
</defs>
</svg>
