<svg width="46" height="43" viewBox="0 0 46 43" fill="none" xmlns="http://www.w3.org/2000/svg">
<g clip-path="url(#clip0_944_53)">
<path d="M3.12889 0C12.6771 0 22.2254 0 31.7736 0C31.8421 0.0327077 31.9076 0.0779212 31.9808 0.096199C33.7734 0.569498 34.8987 2.03269 34.9016 3.91049C34.9054 6.64543 34.9035 9.3794 34.9016 12.1143C34.9016 12.7849 34.6449 13.0484 33.9939 13.0513C33.1565 13.0552 32.3192 13.0513 31.4809 13.0513C31.1093 13.0513 30.7376 13.0513 30.3746 13.0513V23.6092C30.5162 23.3812 30.6093 23.2407 30.693 23.0955C31.6881 21.3543 32.6813 19.6111 33.6755 17.8699C35.2228 15.16 36.7626 12.4462 38.3203 9.74304C39.0779 8.428 40.4608 7.86812 41.8427 8.27696C43.1952 8.67811 44.0886 9.96622 43.9907 11.4563C43.9613 11.9037 43.7921 12.3404 43.6818 12.8051C44.2112 13.1139 44.7749 13.4063 45.2967 13.7622C45.5694 13.9489 45.7681 14.2461 46 14.4924V14.6848C44.4413 17.437 42.8835 20.1893 41.3124 22.9637C40.8466 22.6914 40.4294 22.4461 39.9808 22.1845C40.8742 20.6116 41.7439 19.0811 42.6287 17.5236C42.1754 17.26 41.7581 17.0186 41.3304 16.7694C41.2211 16.9551 41.1394 17.0907 41.0605 17.2283C37.9915 22.6097 34.9234 27.991 31.8554 33.3734C31.3583 34.2449 30.6721 35.0665 30.4249 36.0063C30.1731 36.9635 30.3556 38.0371 30.3479 39.0597C30.3479 39.1078 30.3479 39.1559 30.3479 39.204C30.3289 41.2934 28.6694 42.9942 26.6079 42.9962C18.0405 43.0029 9.47411 43 0.906732 42.9981C0.255672 42.9981 0 42.7326 0 42.0611C0.000950452 29.3128 0.000950452 16.5645 0.000950452 3.81622C0.000950452 2.71762 0.368776 1.7412 1.20898 1.06204C1.77069 0.607978 2.48353 0.347278 3.12889 0ZM28.8348 1.53437C28.62 1.53437 28.4642 1.53437 28.3092 1.53437C20.2332 1.53437 12.1582 1.53437 4.08219 1.53437C2.43316 1.53437 1.51502 2.47424 1.51502 4.16061C1.51502 16.4106 1.51502 28.6615 1.51502 40.9115C1.51502 41.0828 1.51502 41.253 1.51502 41.4666H2.07579C10.1195 41.4666 18.1641 41.4666 26.2078 41.4666C26.3503 41.4666 26.4929 41.4743 26.6345 41.4608C27.5764 41.3713 28.2836 40.9231 28.6466 40.0226C28.9964 39.1549 28.7807 38.2487 28.8481 37.2723C28.6704 37.3964 28.5925 37.4464 28.5183 37.5032C27.5432 38.2391 26.568 38.9731 25.5957 39.7119C25.3067 39.9313 25.0055 40.014 24.6718 39.8331C24.3306 39.6484 24.2536 39.3367 24.2898 38.977C24.3012 38.8654 24.3135 38.7547 24.3268 38.6441C24.4722 37.407 24.6433 36.1728 24.7564 34.9337C24.8591 33.8091 25.1024 32.7673 25.7164 31.7822C26.7343 30.1497 27.6506 28.4509 28.5868 26.7674C28.7322 26.5057 28.8253 26.1738 28.8253 25.8737C28.8377 17.9575 28.8358 10.0413 28.8358 2.12407C28.8358 1.94995 28.8358 1.77583 28.8358 1.53437H28.8348ZM36.2503 16.4587C33.0834 22.0103 29.9383 27.5206 26.7752 33.0655C27.6544 33.5812 28.4965 34.0747 29.3842 34.5951C32.5444 29.055 35.6942 23.5351 38.8592 17.9873C37.9782 17.4707 37.1484 16.9849 36.2503 16.4577V16.4587ZM30.3651 11.4862H33.3865C33.3865 8.97825 33.3913 6.50402 33.3846 4.02978C33.3808 2.31455 32.0626 1.25155 30.3641 1.59787V11.4862H30.3651ZM39.632 16.6444C40.5492 15.0263 41.453 13.4592 42.3208 11.8719C42.4539 11.6276 42.49 11.2813 42.452 10.9984C42.3569 10.2923 41.8655 9.83731 41.1707 9.7161C40.5986 9.61605 39.9969 9.90658 39.6624 10.4847C38.8269 11.9287 38.0048 13.3803 37.1798 14.83C37.1285 14.9195 37.1019 15.0234 37.0562 15.1379C37.9126 15.6391 38.7423 16.1249 39.631 16.6444H39.632ZM26.3513 34.6143C26.242 35.5561 26.1412 36.4286 26.0234 37.4416C26.8379 36.8269 27.5365 36.3007 28.2722 35.7456C27.623 35.3637 27.0176 35.0068 26.3513 34.6143ZM43.4005 16.1788C43.66 15.7218 43.8919 15.312 44.1438 14.8676C43.6913 14.6049 43.276 14.3644 42.8416 14.1124C42.5765 14.577 42.3427 14.9878 42.0965 15.4207C42.5299 15.6727 42.9376 15.9094 43.4005 16.1788Z" fill="white"/>
<path d="M15.2664 24.7587C16.9981 28.5557 15.0582 31.8861 12.6384 33.1223C9.92577 34.5085 6.56687 33.6562 4.86747 31.1165C3.1614 28.5663 3.57295 25.0983 5.80651 23.0954C8.17409 20.9733 11.8409 20.878 14.4167 23.5495C14.9793 22.9319 15.541 22.3153 16.0876 21.7159C16.5039 22.12 16.8536 22.4586 17.2205 22.8145C16.5533 23.4783 15.9022 24.1267 15.2664 24.7577V24.7587ZM13.2314 24.5913C11.687 22.7847 8.98958 22.5202 7.08392 23.9987C5.18397 25.4735 4.75056 28.2074 6.0964 30.2238C7.43654 32.2315 10.1092 32.8298 12.1783 31.6023C14.238 30.3796 14.8805 27.7409 14.0659 26.042C13.9481 26.1555 13.8321 26.2613 13.7219 26.3729C12.6593 27.4465 11.5995 28.5239 10.535 29.5956C10.0455 30.0881 9.68151 30.0881 9.19298 29.5975C8.29575 28.6961 7.40422 27.789 6.51175 26.8818C6.43856 26.8078 6.38154 26.7183 6.39104 26.7298C6.73796 26.3287 7.05446 25.9622 7.43939 25.5168C8.26533 26.3739 9.06656 27.2051 9.84784 28.016C10.977 26.8722 12.0928 25.7428 13.2305 24.5923L13.2314 24.5913Z" fill="white"/>
<path d="M15.5306 9.21303C12.7011 9.21303 9.87165 9.21303 7.0412 9.21303C6.3141 9.21303 6.07269 8.97061 6.07174 8.24239C6.06984 6.83499 6.06984 5.42664 6.07174 4.01925C6.07269 3.32469 6.32266 3.07457 7.01744 3.07457C12.7087 3.07361 18.3991 3.07361 24.0904 3.07457C24.7842 3.07457 25.0352 3.32565 25.0361 4.02021C25.038 5.44396 25.039 6.8677 25.0361 8.29145C25.0342 8.9533 24.7747 9.21207 24.1132 9.21303C21.2524 9.21496 18.3906 9.21303 15.5297 9.21303H15.5306ZM7.60767 7.64691H23.4859V4.63204H7.60767V7.64691Z" fill="white"/>
<path d="M14.7465 37.9996C14.6239 38.4681 14.5146 38.8481 14.4272 39.2338C14.3188 39.709 14.0423 39.9418 13.5556 39.9303C13.1013 39.9207 12.647 39.9284 12.168 39.9284V38.4123H13.0462C13.2572 37.5802 13.4625 36.7971 13.6507 36.0102C13.7372 35.6485 13.9225 35.3964 14.2932 35.3339C14.6639 35.2714 14.9271 35.4484 15.1239 35.7591C15.3358 36.0948 15.5611 36.4219 15.8082 36.7961C16.4621 35.609 17.5352 36.2074 18.441 36.1458C18.6025 36.1353 18.8496 36.4719 18.9513 36.6971C19.1471 37.13 19.2536 37.6023 19.4256 38.0477C19.4779 38.1824 19.6271 38.3757 19.7288 38.3738C19.898 38.3709 20.1299 38.2776 20.2212 38.1429C21.0709 36.8933 21.8959 35.6264 22.7284 34.3642C22.7712 34.2988 22.8235 34.2401 22.909 34.1285C23.3168 34.4037 23.7169 34.673 24.1389 34.9587C24.079 35.0751 24.0391 35.1752 23.9811 35.2627C23.0706 36.6451 22.1506 38.0208 21.2514 39.4099C21.0091 39.785 20.7135 39.9592 20.2706 39.9322C19.8609 39.9072 19.4494 39.9197 19.0388 39.9284C18.6158 39.938 18.3554 39.7312 18.2224 39.3396C18.0646 38.8721 17.9249 38.3969 17.7452 37.939C17.6948 37.811 17.5333 37.6485 17.4192 37.6456C17.2947 37.6427 17.1274 37.7812 17.0485 37.9044C16.886 38.1564 16.7815 38.4469 16.6313 38.7086C16.2977 39.2906 15.6761 39.3291 15.2807 38.7942C15.1115 38.5652 14.9623 38.3219 14.7475 37.9996H14.7465Z" fill="white"/>
<path d="M9.88672 13.7853V12.3135H25.7726V13.7853H9.88672Z" fill="white"/>
<path d="M25.7774 16.9291V18.4019H9.89062V16.9291H25.7765H25.7774Z" fill="white"/>
<path d="M7.56371 12.3135V13.7853H4.58594V12.3135H7.56371Z" fill="white"/>
<path d="M7.56276 18.4086H4.58594V16.9214H7.56276V18.4086Z" fill="white"/>
</g>
<defs>
<clipPath id="clip0_944_53">
<rect width="46" height="43" fill="white"/>
</clipPath>
</defs>
</svg>
