<svg width="45" height="37" viewBox="0 0 45 37" fill="none" xmlns="http://www.w3.org/2000/svg">
<g clip-path="url(#clip0_944_80)">
<path d="M31.206 37.0002H13.81C13.2378 36.6597 13.0371 36.308 13.1595 35.8624C13.2977 35.3595 13.6471 35.1467 14.354 35.145C15.3645 35.1424 16.3741 35.145 17.3846 35.145C17.8212 35.145 18.2569 35.145 18.7173 35.145V29.6219C18.5227 29.6219 18.3511 29.6219 18.1794 29.6219C13.1436 29.6219 8.10696 29.6019 3.07116 29.6315C1.13818 29.6419 -0.00788127 28.1602 4.08036e-05 26.6315C0.0396512 18.7451 0.0176454 10.8587 0.0202861 2.97323C0.0202861 2.72917 0.0202861 2.47816 0.0713394 2.24191C0.37854 0.845292 1.50259 0.00193539 3.04476 0.00193539C16.0158 0.00106685 28.9869 0.00193539 41.958 0.00193539C42.0601 0.00193539 42.1631 -0.00240733 42.2652 0.00540957C43.4667 0.0974753 44.3223 0.677663 44.8099 1.77203C44.8786 1.92663 44.9375 2.08644 45 2.24278V27.3793C44.4385 29.0973 43.1921 29.6575 41.4342 29.6384C36.5648 29.5863 31.6936 29.6202 26.8242 29.6202H26.3022V35.1432C26.487 35.1432 26.6455 35.1432 26.8039 35.1432C28.1348 35.1432 29.4657 35.138 30.7966 35.1467C31.4155 35.1511 31.8089 35.4403 31.8767 35.9475C31.9454 36.466 31.6417 36.7796 31.2068 37.0002H31.206ZM22.4618 27.738C28.9182 27.738 35.3747 27.738 41.8312 27.738C42.8417 27.738 43.1172 27.4731 43.1172 26.4908C43.1172 18.7052 43.1172 10.9195 43.1172 3.13478C43.1172 2.14898 42.8435 1.8832 41.8356 1.8832C28.9517 1.8832 16.0678 1.8832 3.18383 1.8832C2.17069 1.8832 1.8987 2.14463 1.8987 3.12956C1.8987 10.9152 1.8987 18.7008 1.8987 26.4856C1.8987 27.4714 2.17333 27.7372 3.17943 27.7372C9.60687 27.7372 16.0343 27.7372 22.4609 27.7372L22.4618 27.738ZM20.6687 35.0929H24.3349V29.6497H20.6687V35.0929Z" fill="white"/>
<path d="M24.4536 10.5884C24.3629 10.7804 24.2995 10.9037 24.2441 11.0314C22.7539 14.4604 21.2636 17.8894 19.7734 21.3184C19.7329 21.4114 19.6924 21.5034 19.651 21.5964C19.4838 21.9751 19.1977 22.1983 18.7735 22.2052C18.3501 22.2122 18.0596 21.9959 17.8739 21.6268C17.0464 19.9887 16.2173 18.3524 15.3881 16.7152C15.1143 16.1741 14.8309 15.6364 14.5704 15.0892C14.4691 14.8773 14.3433 14.8009 14.1012 14.8035C12.8865 14.8165 11.6718 14.8113 10.457 14.8087C9.80831 14.807 9.40605 14.4665 9.39108 13.9141C9.37524 13.3409 9.77046 12.9639 10.4438 12.9587C11.9217 12.9474 13.4005 12.9587 14.8784 12.9526C15.3916 12.9509 15.7155 13.1802 15.9409 13.6344C16.7709 15.3038 17.6221 16.9627 18.4663 18.6242C18.5305 18.751 18.6018 18.8744 18.6978 19.0507C19.2523 17.773 19.7848 16.5432 20.3191 15.3133C21.3666 12.9049 22.4141 10.4955 23.466 8.08877C23.6957 7.56417 24.0267 7.36701 24.5143 7.43129C24.9254 7.48514 25.141 7.75265 25.3136 8.09312C26.6295 10.6996 27.9507 13.3035 29.2711 15.9083C29.6434 16.6431 30.0325 17.3709 30.3837 18.1153C30.5201 18.4036 30.6821 18.5157 31.0113 18.5104C32.1961 18.4905 33.3826 18.4948 34.5674 18.5061C35.2074 18.5122 35.5885 18.844 35.6184 19.3755C35.6483 19.9062 35.2734 20.3457 34.7303 20.3509C33.1353 20.3639 31.5394 20.3613 29.9445 20.3518C29.4911 20.3492 29.2552 20.046 29.0677 19.6734C27.6427 16.8498 26.2114 14.0296 24.781 11.2095C24.686 11.0227 24.5847 10.8386 24.4527 10.5884H24.4536Z" fill="white"/>
</g>
<defs>
<clipPath id="clip0_944_80">
<rect width="45" height="37" fill="white"/>
</clipPath>
</defs>
</svg>
