<svg width="50" height="50" viewBox="0 0 50 50" fill="none" xmlns="http://www.w3.org/2000/svg">
<g clip-path="url(#clip0_944_105)">
<path d="M24.3123 50C23.9932 49.8904 23.6654 49.7994 23.3552 49.6682C21.4049 48.8384 20.3931 46.6661 20.9988 44.6259C21.5928 42.6257 23.638 41.3683 25.7106 41.7186C25.8917 41.749 26.1011 41.7558 26.2684 41.6952C28.982 40.7068 31.6907 39.7058 34.4013 38.7067C34.4874 38.6744 34.5716 38.6353 34.7017 38.5795C33.869 37.3064 32.8532 36.2702 31.6398 35.4326C24.5843 30.5644 14.9063 34.6576 13.4893 43.1131C13.3953 43.6718 13.3797 44.2442 13.3562 44.8118C13.3073 46.0173 12.6487 46.6739 11.4529 46.6739C8.24709 46.6759 5.0413 46.6759 1.83551 46.6739C0.659267 46.6739 -0.0286672 46.0036 -0.0032244 44.8304C0.182704 36.4179 3.69675 29.7091 10.4293 24.702C13.9042 22.1167 17.8478 20.6 22.1486 20.1567C29.7091 19.3778 36.3633 21.5345 41.9754 26.6786C46.1647 30.5184 48.6953 35.3034 49.6729 40.9016C49.8089 41.6834 49.8901 42.4741 49.9977 43.2608V45.4097C49.6102 46.3598 48.9027 46.7003 47.886 46.6876C44.782 46.6495 41.677 46.6749 38.572 46.6739C37.336 46.6739 36.6804 46.031 36.6344 44.802C36.6148 44.2951 36.5649 43.7892 36.5248 43.2236C36.287 43.3577 36.1324 43.4428 35.9797 43.5299C33.867 44.7394 31.7582 45.9567 29.6396 47.1534C29.1131 47.4509 28.6786 47.7894 28.2999 48.2924C27.9056 48.8179 27.3126 49.2122 26.7577 49.5919C26.4495 49.8033 26.0424 49.8678 25.6793 49.999H24.3123V50ZM7.87426 29.1709C3.82885 33.6555 1.75331 38.9024 1.6623 44.9674H11.6398C11.7073 41.6335 12.818 38.7185 14.9503 36.2408C12.589 33.8816 10.2561 31.5507 7.87426 29.1709ZM9.21 27.8431C11.5909 30.2258 13.9296 32.5655 16.2811 34.9188C16.3222 34.8856 16.4084 34.8132 16.4955 34.7417C18.571 33.0361 20.9431 32.0214 23.6175 31.7582C24.0441 31.7161 24.1537 31.6045 24.1508 31.1867C24.1332 28.1944 24.142 25.203 24.14 22.2106C24.14 22.0521 24.1254 21.8936 24.1156 21.695C18.3655 21.9778 13.4051 24.0464 9.21 27.8441V27.8431ZM33.7271 34.9159C36.106 32.5381 38.4369 30.2072 40.7933 27.8509C36.5914 24.0493 31.6329 21.9719 25.8897 21.6969V31.6936C27.3752 31.7944 28.7726 32.13 30.1171 32.6868C31.4636 33.2446 32.6761 34.0205 33.7271 34.9159ZM35.0775 36.2418C35.4083 36.69 35.7909 37.1391 36.0893 37.6372C36.2978 37.9855 36.5033 37.9885 36.835 37.8701C38.5778 37.2497 40.3256 36.644 42.0743 36.0402C42.7387 35.8113 43.3611 35.8788 43.8827 36.3886C44.6939 37.1812 44.5364 38.4357 43.5245 39.0492C41.8287 40.0767 40.1171 41.0777 38.4174 42.0993C38.2823 42.1805 38.0895 42.3498 38.1003 42.4623C38.1766 43.298 38.297 44.1288 38.4037 44.9605H48.3283C48.2275 38.8819 46.151 33.637 42.1291 29.1905C39.7629 31.5566 37.431 33.8884 35.0765 36.2418H35.0775ZM29.3069 45.4596C33.5089 43.0015 37.796 40.4945 42.0831 37.9875C42.0557 37.9298 42.0293 37.873 42.0019 37.8153C37.3263 39.4788 32.6516 41.1423 28.0856 42.7666C28.5074 43.6963 28.8832 44.5261 29.3059 45.4596H29.3069ZM27.4711 45.896C27.5014 44.5329 26.4436 43.39 25.1176 43.3518C23.6684 43.3107 22.5381 44.3734 22.5166 45.7962C22.497 47.171 23.5686 48.2905 24.9444 48.3325C26.2948 48.3736 27.4398 47.2689 27.4701 45.896H27.4711Z" fill="white"/>
<path d="M46.7927 12.2561C46.5735 12.6759 46.4091 13.1388 46.1214 13.5047C45.6908 14.0527 45.1565 14.5185 44.7024 15.0489C44.5694 15.2054 44.4823 15.4726 44.5028 15.6761C44.5743 16.4031 44.7122 17.1224 44.8023 17.8475C44.8952 18.6029 44.6447 19.237 44.0165 19.6763C43.4 20.1069 42.7453 20.1069 42.0828 19.7527C41.4957 19.4385 40.9095 19.1186 40.3048 18.8426C40.1335 18.7643 39.8664 18.7653 39.6951 18.8446C39.062 19.1372 38.4533 19.4826 37.829 19.7967C37.1733 20.1274 36.5285 20.0795 35.9443 19.646C35.3326 19.191 35.0919 18.5618 35.2084 17.8015C35.3189 17.0793 35.4403 16.3572 35.5176 15.6311C35.5362 15.454 35.4481 15.2181 35.3287 15.0812C34.8688 14.5537 34.3756 14.0566 33.8971 13.5468C33.3628 12.9783 33.1671 12.3168 33.4372 11.5721C33.6975 10.8559 34.221 10.4488 34.9901 10.3392C35.6331 10.2482 36.274 10.1327 36.9052 9.98496C37.0911 9.94093 37.3035 9.78241 37.3965 9.61703C37.736 9.00741 38.0306 8.37234 38.3427 7.74804C38.6842 7.06405 39.2313 6.65894 40.0004 6.65894C40.7696 6.65894 41.3176 7.06503 41.6601 7.74706C41.9664 8.35669 42.2824 8.96142 42.5653 9.58083C42.6876 9.84797 42.852 9.96637 43.1407 10.0075C43.8149 10.1043 44.4862 10.2296 45.1555 10.3597C46.0548 10.5349 46.6704 11.2884 46.6733 12.1935C46.7134 12.2141 46.7535 12.2356 46.7937 12.2561H46.7927ZM40.018 8.24122C39.881 8.47705 39.8037 8.59545 39.7401 8.7207C39.4055 9.38806 39.0453 10.0447 38.7498 10.7286C38.5081 11.2874 38.1137 11.5398 37.5286 11.6152C36.8377 11.7042 36.1527 11.8432 35.4677 11.9733C35.3219 12.0007 35.1859 12.0839 35.0449 12.1407C35.1281 12.2894 35.1868 12.4597 35.2984 12.582C35.8484 13.1808 36.4443 13.7406 36.9551 14.3698C37.1547 14.6154 37.2281 15.0029 37.2585 15.3346C37.2859 15.6321 37.1684 15.9403 37.1264 16.2456C37.0363 16.912 36.9532 17.5793 36.8533 18.3563C37.1136 18.2477 37.2614 18.1978 37.3984 18.1273C38.0766 17.779 38.7596 17.4375 39.426 17.0685C39.8213 16.8503 40.1805 16.8513 40.5748 17.0685C41.2138 17.4208 41.8685 17.7467 42.5173 18.0794C42.6827 18.1645 42.8549 18.234 43.0996 18.3455C43.0996 18.1537 43.1113 18.049 43.0976 17.9473C42.9831 17.095 42.8892 16.2388 42.7345 15.3933C42.6514 14.9393 42.7747 14.6095 43.0819 14.2944C43.6495 13.7122 44.2024 13.1172 44.7582 12.5233C45.0841 12.1739 45.0577 12.0653 44.6026 11.9802C43.8853 11.8451 43.1671 11.7091 42.4449 11.6123C41.8803 11.5359 41.5015 11.2933 41.2608 10.7512C40.9017 9.94093 40.476 9.16006 40.0161 8.2422L40.018 8.24122Z" fill="white"/>
<path d="M5.17847 18.0011C5.28024 17.2848 5.41039 16.4668 5.50237 15.6438C5.52195 15.4657 5.45442 15.227 5.33895 15.0939C4.86924 14.5547 4.36038 14.0488 3.87306 13.5243C3.33974 12.9509 3.16555 12.2816 3.44347 11.5428C3.70474 10.849 4.22241 10.4517 4.96905 10.3412C5.62665 10.2433 6.28327 10.1269 6.93206 9.9791C7.10429 9.93996 7.30196 9.78829 7.3871 9.63368C7.72177 9.0221 8.01534 8.38801 8.3275 7.76371C8.66707 7.08265 9.2092 6.66775 9.97835 6.65992C10.772 6.65112 11.3219 7.07482 11.6703 7.77447C11.9746 8.38507 12.2614 9.00546 12.5931 9.60139C12.6861 9.76774 12.8925 9.93311 13.0755 9.97421C13.7556 10.1298 14.4494 10.2218 15.1335 10.3588C16.5817 10.6484 17.165 12.3041 16.203 13.4245C15.7157 13.9921 15.1706 14.5097 14.6774 15.0714C14.5561 15.2103 14.4573 15.4422 14.4759 15.6174C14.5512 16.3435 14.6716 17.0656 14.7841 17.7878C14.9035 18.5481 14.6716 19.1783 14.0639 19.6392C13.465 20.0932 12.8074 20.1274 12.1371 19.784C11.5587 19.4875 10.9726 19.2037 10.4128 18.8749C10.1046 18.6939 9.86386 18.7164 9.56637 18.8857C8.98804 19.2145 8.39698 19.5257 7.79516 19.8084C6.53672 20.4005 5.16281 19.5002 5.17945 18.0021L5.17847 18.0011ZM13.0834 18.368C13.0834 18.0764 13.1019 17.914 13.0804 17.7584C12.9738 16.9873 12.8749 16.2133 12.7369 15.4481C12.6547 14.9921 12.7418 14.632 13.0745 14.2983C13.6372 13.7357 14.1774 13.1486 14.7156 12.5624C14.8321 12.4362 14.9045 12.2689 15.0405 12.0497C14.1128 11.8902 13.3026 11.7277 12.4864 11.6172C11.9071 11.5389 11.4971 11.3119 11.2534 10.7472C10.9579 10.0623 10.5988 9.40568 10.2631 8.7393C10.1956 8.60524 10.1114 8.47901 9.99303 8.27744C9.86484 8.49761 9.7797 8.62873 9.70924 8.76866C9.35304 9.47907 8.99489 10.1885 8.64847 10.9038C8.47331 11.2668 8.21888 11.488 7.80495 11.5526C7.02014 11.6749 6.23924 11.8236 5.45834 11.9724C5.31058 12.0007 5.17358 12.082 5.0307 12.1387C5.11584 12.2855 5.17847 12.4528 5.29002 12.5751C5.83998 13.174 6.42712 13.7396 6.94772 14.3619C7.13561 14.587 7.26674 14.9373 7.26184 15.2279C7.25401 15.7417 7.11701 16.2534 7.04558 16.7672C6.97708 17.2643 6.92326 17.7643 6.84595 18.4023C7.5652 18.0324 8.17583 17.7937 8.70132 17.4316C9.58888 16.819 10.3991 16.8102 11.2887 17.4287C11.8112 17.7917 12.4218 18.0285 13.0814 18.369L13.0834 18.368Z" fill="white"/>
<path d="M20.1984 11.1885C20.2728 10.6797 20.3618 9.98691 20.4793 9.299C20.5507 8.8753 20.5165 8.52792 20.1632 8.20892C19.7062 7.79598 19.2942 7.32922 18.8822 6.86833C17.8078 5.66474 18.3411 4.01787 19.9127 3.68908C20.5634 3.55307 21.2279 3.47381 21.8737 3.32018C22.0724 3.27321 22.3004 3.10588 22.4002 2.92877C22.7427 2.3211 23.0255 1.68114 23.3465 1.06173C23.6958 0.38752 24.2331 -0.0087851 25.0189 2.16823e-05C25.7821 0.00882846 26.3047 0.402198 26.6433 1.05781C26.9643 1.6782 27.2471 2.31816 27.5896 2.92583C27.6894 3.10196 27.9174 3.26929 28.116 3.31528C28.7952 3.47479 29.4899 3.5609 30.172 3.7067C31.5733 4.00515 32.1438 5.60309 31.2318 6.71568C30.7787 7.26855 30.2806 7.78913 29.762 8.28035C29.4684 8.55825 29.441 8.84888 29.4958 9.20115C29.5986 9.87536 29.6994 10.5505 29.7835 11.2267C29.8784 11.988 29.6142 12.6123 28.9723 13.036C28.3245 13.4636 27.6561 13.4088 26.9897 13.0438C26.4339 12.7395 25.8771 12.4342 25.3007 12.172C25.1304 12.0947 24.8633 12.0976 24.692 12.1759C24.0726 12.4597 23.4805 12.8021 22.868 13.1035C21.5332 13.7591 20.1329 12.8501 20.1994 11.1876L20.1984 11.1885ZM28.1376 11.7316C28.1072 11.4146 28.0965 11.2404 28.073 11.0682C27.9604 10.2482 27.8489 9.42719 27.7266 8.60816C27.6688 8.22164 27.7902 7.91732 28.0612 7.64039C28.6298 7.05914 29.1846 6.4642 29.7375 5.86729C29.8461 5.74987 29.9166 5.59918 30.0507 5.39368C29.0437 5.21266 28.1376 5.03261 27.2265 4.89268C26.794 4.82614 26.5249 4.61282 26.3409 4.22825C25.9974 3.51099 25.6373 2.80253 25.2792 2.09212C25.2038 1.94338 25.1089 1.80541 24.9768 1.58328C24.601 2.32893 24.2174 2.95714 23.961 3.63429C23.6293 4.50909 23.0852 5.00521 22.1282 5.00227C21.9843 5.00227 21.8405 5.04826 21.6966 5.07566C21.1339 5.18036 20.5713 5.28702 19.8931 5.41423C20.0722 5.6393 20.1603 5.76455 20.264 5.87708C20.6173 6.25968 20.9333 6.69122 21.3404 7.00533C22.2309 7.69421 22.4413 8.5514 22.1409 9.58865C22.1233 9.65127 22.1076 9.71488 22.0988 9.77946C22.0166 10.3832 21.9364 10.986 21.8414 11.6954C22.092 11.5897 22.2387 11.5369 22.3757 11.4674C22.9834 11.1572 23.6068 10.8735 24.1881 10.5183C24.7556 10.1709 25.2518 10.1807 25.8223 10.5202C26.5268 10.941 27.2774 11.2854 28.1395 11.7307L28.1376 11.7316Z" fill="white"/>
</g>
<defs>
<clipPath id="clip0_944_105">
<rect width="50" height="50" fill="white"/>
</clipPath>
</defs>
</svg>
