<svg width="48" height="48" viewBox="0 0 48 48" fill="none" xmlns="http://www.w3.org/2000/svg">
<g clip-path="url(#clip0_944_29)">
<path d="M37.5755 0C37.6271 0.0309841 37.675 0.0732351 37.7304 0.0901356C39.1828 0.541752 39.9959 1.6262 39.9969 3.15193C40.0006 8.46148 39.9987 13.771 39.9987 19.0806C39.9987 19.7012 39.9987 20.3209 39.9987 20.965H37.9642V20.4335C37.9642 14.7494 37.9642 9.06426 37.9642 3.38008C37.9642 2.29658 37.6825 2.00833 36.6178 2.00739C25.5304 2.00739 14.443 2.00739 3.35561 2.00739C2.32001 2.00739 2.00923 2.31536 2.00923 3.34347C2.00829 11.1045 2.00829 18.8665 2.00923 26.6275C2.00923 27.6801 2.31531 27.9786 3.38941 27.9786C7.37125 27.9786 11.354 27.9786 15.3359 27.9786C15.5368 27.9786 15.7377 27.9786 15.9753 27.9786V29.9607H14.0449V33.9539H17.9516V35.9566H10.0199V33.9849H11.9775V29.9842C11.7972 29.9842 11.631 29.9842 11.4658 29.9842C8.70167 29.9842 5.93756 29.9842 3.17346 29.9842C1.57171 29.9842 0.552069 29.2189 0.0751115 27.665C0.061967 27.6228 0.0253501 27.5881 0 27.5496C0 19.1782 0 10.8069 0 2.43554C0.155856 2.08438 0.280729 1.71445 0.472264 1.3849C0.910727 0.631888 1.63649 0.257262 2.43549 0C14.1491 0 25.8618 0 37.5755 0Z" fill="white"/>
<path d="M37.2729 35.7471C37.9808 36.4513 38.6643 37.1302 39.4136 37.8757C39.5854 37.6766 39.7685 37.4184 39.9976 37.209C40.452 36.794 40.9853 36.7865 41.4228 37.2203C43.5081 39.2859 45.5849 41.36 47.6514 43.4434C48.1209 43.9166 48.1115 44.4584 47.643 44.94C46.7501 45.8573 45.845 46.7634 44.9268 47.6554C44.447 48.1211 43.909 48.1136 43.433 47.6394C41.373 45.5926 39.3206 43.5392 37.2729 41.4792C36.7621 40.9656 36.7753 40.4398 37.2795 39.914C37.4625 39.7234 37.6672 39.5535 37.8259 39.407C37.1067 38.6888 36.4194 38.0033 35.7275 37.3123C30.2819 41.6341 23.2975 39.6709 20.1099 35.3284C16.852 30.8883 17.3984 24.6577 21.4366 20.902C25.4748 17.1464 31.739 17.0224 35.8833 20.5602C40.1252 24.1816 41.204 30.8028 37.271 35.7471H37.2729ZM28.8576 20.0007C23.9603 20.0082 20.0198 23.9328 19.9944 28.8292C19.9681 33.72 23.9444 37.6926 28.8613 37.6907C33.7595 37.6888 37.6869 33.7538 37.6869 28.848C37.6869 23.9516 33.737 19.9931 28.8576 19.9997V20.0007ZM39.4136 40.683C41.0144 42.2829 42.6189 43.8856 44.2132 45.4799C44.6319 45.0621 45.0713 44.6227 45.4779 44.2171C43.8789 42.6181 42.2753 41.0135 40.6792 39.4183C40.2633 39.8333 39.8239 40.2727 39.4126 40.683H39.4136Z" fill="white"/>
<path d="M9.76373 13.6602C9.25579 13.1719 8.79761 12.7306 8.30469 12.2574C8.95816 11.6058 9.60787 10.958 10.2576 10.3092C10.8547 9.71299 11.4425 9.10927 12.0518 8.52526C12.2255 8.35814 12.2443 8.21918 12.1729 8.00041C11.6087 6.27187 12.5015 4.57714 14.216 4.10017C15.8806 3.63729 17.5847 4.66821 17.919 6.41271C18.0138 6.9094 17.8983 7.45866 17.8138 7.97318C17.7753 8.20885 17.7556 8.35626 17.9443 8.53935C18.7846 9.35526 19.6099 10.1871 20.4305 11.0218C20.6014 11.1955 20.7403 11.265 20.9938 11.1664C21.6407 10.9148 22.312 10.9035 22.9589 11.1599C23.2312 11.2678 23.3805 11.1899 23.5617 11.004C24.371 10.1796 25.1869 9.35996 26.0141 8.55343C26.2113 8.36189 26.2319 8.20322 26.1474 7.94502C25.6104 6.3038 26.4967 4.60718 28.1266 4.11989C29.7612 3.63165 31.4494 4.56775 31.8812 6.23526C32.1695 7.34881 31.9019 8.35344 31.0682 9.15058C30.2391 9.94302 29.2364 10.2125 28.1313 9.85664C27.7717 9.74115 27.5755 9.81721 27.3332 10.0679C26.5756 10.8556 25.8 11.6265 25.0151 12.3879C24.8029 12.5936 24.7325 12.7635 24.832 13.0677C25.3672 14.7052 24.4649 16.3905 22.8219 16.8703C21.1901 17.3473 19.4775 16.3971 19.1001 14.7202C18.979 14.1831 19.0813 13.5804 19.1611 13.0189C19.1959 12.7748 19.2034 12.6236 19.0231 12.4471C18.1875 11.6265 17.3584 10.7993 16.5397 9.9618C16.3632 9.78153 16.2177 9.73083 15.9726 9.82472C15.3389 10.067 14.6845 10.0839 14.0517 9.83317C13.7653 9.7205 13.6047 9.79561 13.4066 9.99654C12.1917 11.2312 10.9646 12.4537 9.76373 13.6564V13.6602ZM14.9793 7.97506C15.5332 7.98069 15.9576 7.57321 15.9698 7.02113C15.983 6.46153 15.5304 5.99396 14.983 6.00147C14.4544 6.00804 14.015 6.45872 14.015 6.99484C14.015 7.54879 14.4291 7.96943 14.9802 7.97506H14.9793ZM28.9998 7.97506C29.534 7.96943 29.9837 7.51969 29.9828 6.9939C29.9819 6.4775 29.5162 6.0071 28.9988 5.99959C28.458 5.99208 27.998 6.46623 28.0092 7.02019C28.0196 7.56851 28.4487 7.98163 29.0007 7.97506H28.9998ZM22.0031 13.0151C21.4652 13.0086 21.0117 13.4377 20.9938 13.9681C20.9769 14.4986 21.4633 14.9953 21.9966 14.9897C22.5242 14.984 22.9665 14.5324 22.9674 13.9972C22.9693 13.4452 22.5524 13.0217 22.0022 13.0161L22.0031 13.0151Z" fill="white"/>
<path d="M5.99633 21.026C5.99633 21.6269 5.99163 22.2156 5.99726 22.8033C6.00477 23.5892 6.39348 23.9807 7.1737 23.9901C7.73422 23.9967 8.29568 23.9948 8.8562 23.9986C8.88436 23.9986 8.91253 24.0173 8.96698 24.0361V25.9975C7.96331 25.9487 6.94555 26.1646 5.97567 25.8031C4.8105 25.3694 4.12042 24.5046 4.02371 23.2512C3.96831 22.5245 4.01338 21.7893 4.01338 21.025H5.99539L5.99633 21.026Z" fill="white"/>
<path d="M5.97476 17.0309V18.9744H4.03125V17.0309H5.97476Z" fill="white"/>
<path d="M35.9381 28.9945C35.3654 28.9945 34.8199 28.9842 34.2744 28.9983C33.9796 29.0058 33.9618 28.8321 33.9411 28.6115C33.728 26.3487 32.2539 24.6352 30.071 24.1235C29.7255 24.0427 29.3677 24.0145 28.9922 23.9582V22.055C32.3046 21.7658 36.1081 24.9431 35.9372 28.9945H35.9381Z" fill="white"/>
</g>
<defs>
<clipPath id="clip0_944_29">
<rect width="48" height="48" fill="white"/>
</clipPath>
</defs>
</svg>
