<svg width="61" height="60" viewBox="0 0 61 60" fill="none" xmlns="http://www.w3.org/2000/svg">
<g clip-path="url(#clip0_927_1448)">
<path d="M60.5012 9.98798C60.0681 10.5452 59.6899 11.1588 59.1927 11.6505C50.1119 20.6145 41.0167 29.5641 31.9255 38.5163C31.8169 38.6238 31.7096 38.7313 31.5983 38.8349C30.5699 39.7907 29.4145 39.7959 28.4188 38.8178C24.0053 34.4859 19.597 30.1501 15.1914 25.8104C14.2336 24.8664 14.1891 23.5972 15.054 22.7306C15.898 21.8849 17.2274 21.9046 18.1472 22.8106C21.9327 26.538 25.7102 30.2747 29.4917 34.0061C29.6448 34.1582 29.8044 34.3037 30.142 34.6249C30.6955 33.993 31.2019 33.3387 31.7841 32.7631C40.0432 24.6094 48.3154 16.4701 56.5732 8.31501C57.2601 7.63717 57.9968 7.25957 58.969 7.51393C59.7881 7.72764 60.1754 8.37008 60.4999 9.07283V9.98798H60.5012Z" fill="white"/>
<path d="M29.3179 -4.33611e-05C35.176 -0.00922108 39.5724 1.04097 43.7255 3.10989C44.9306 3.71038 45.3703 4.8825 44.8351 5.9917C44.296 7.10876 43.0608 7.49029 41.8387 6.87276C37.6176 4.74222 33.1256 3.772 28.4504 4.26891C17.8793 5.39383 10.3726 10.8913 6.43928 20.815C0.730418 35.2162 9.50242 51.6404 24.5669 55.1004C38.663 58.3375 52.4491 49.6344 55.6287 35.485C56.0932 33.4147 56.2568 31.313 56.2136 29.1903C56.1926 28.1441 56.8325 27.3273 57.806 27.0611C58.6931 26.8186 59.7033 27.225 60.1377 28.0707C60.3091 28.405 60.402 28.8141 60.4138 29.193C60.8286 43.5168 50.8266 56.3092 36.8822 59.3103C21.666 62.5841 6.69574 53.9217 1.90543 39.0734C-1.89438 27.2932 2.19198 14.034 11.9741 6.40207C17.3768 2.18688 23.5894 0.0406008 29.3179 -4.33611e-05Z" fill="white"/>
</g>
<defs>
<clipPath id="clip0_927_1448">
<rect width="60" height="60" fill="white" transform="translate(0.5)"/>
</clipPath>
</defs>
</svg>
